<svg xmlns="http://www.w3.org/2000/svg" width="833.33" height="500" xmlns:xlink="http://www.w3.org/1999/xlink"><defs><linearGradient id="a"><stop stop-color="#fbd55f" offset="0"/><stop stop-color="#cb8e32" offset="1"/></linearGradient><radialGradient id="ao" gradientUnits="userSpaceOnUse" xlink:href="#a" cx="685.79" cy="453.08" r="8.107" gradientTransform="matrix(1 0 0 .997 1.768 2.964)"/><radialGradient id="an" gradientUnits="userSpaceOnUse" xlink:href="#a" cx="604.74" cy="740" r="2.914" gradientTransform="matrix(1 0 0 1.003 0 -1.96)"/><radialGradient id="am" gradientUnits="userSpaceOnUse" xlink:href="#a" cx="602" cy="734.39" r="2.724" gradientTransform="matrix(1 0 0 .989 0 8.212)"/><radialGradient id="al" gradientUnits="userSpaceOnUse" xlink:href="#a" cx="600.03" cy="728.91" r="2.506" gradientTransform="matrix(1 0 0 1.026 0 -19.31)"/><radialGradient id="ak" gradientUnits="userSpaceOnUse" xlink:href="#a" cx="612.94" cy="737.49" r="3.378" gradientTransform="matrix(1 0 0 1.016 0 -11.523)"/><radialGradient id="aj" gradientUnits="userSpaceOnUse" xlink:href="#a" cx="609.28" cy="730.85" r="3.122" gradientTransform="matrix(1 0 0 1.019 0 -13.586)"/><radialGradient id="ai" gradientUnits="userSpaceOnUse" xlink:href="#a" cx="606.69" cy="724.91" r="2.946" gradientTransform="matrix(1 0 0 1.005 0 -3.546)"/><radialGradient id="ah" gradientUnits="userSpaceOnUse" xlink:href="#a" cx="621.24" cy="734.22" r="3.473" gradientTransform="matrix(1 0 0 1.005 0 -3.906)"/><radialGradient id="ag" gradientUnits="userSpaceOnUse" xlink:href="#a" cx="617.69" cy="727.85" r="3.256" gradientTransform="matrix(1 0 0 1.016 0 -11.57)"/><radialGradient id="af" gradientUnits="userSpaceOnUse" xlink:href="#a" cx="614.05" cy="721.3" r="3.053" gradientTransform="matrix(1 0 0 1.01 0 -7.086)"/><radialGradient id="ae" gradientUnits="userSpaceOnUse" xlink:href="#a" cx="629.94" cy="730.32" r="3.904" gradientTransform="matrix(1 0 0 1.033 0 -24.397)"/><radialGradient id="ad" gradientUnits="userSpaceOnUse" xlink:href="#a" cx="625.6" cy="723.58" r="3.634" gradientTransform="matrix(1 0 0 1.019 0 -13.684)"/><radialGradient id="ac" gradientUnits="userSpaceOnUse" xlink:href="#a" cx="621.03" cy="717.31" r="3.417" gradientTransform="matrix(1 0 0 1.016 0 -11.635)"/><radialGradient id="ab" gradientUnits="userSpaceOnUse" xlink:href="#a" cx="639.59" cy="726.09" r="4.048" gradientTransform="matrix(1 0 0 1.032 0 -23.056)"/><radialGradient id="aa" gradientUnits="userSpaceOnUse" xlink:href="#a" cx="633.37" cy="718.62" r="3.871" gradientTransform="matrix(1 0 0 1.021 0 -15.183)"/><radialGradient id="Z" gradientUnits="userSpaceOnUse" xlink:href="#a" cx="628.35" cy="711.82" r="3.517" gradientTransform="matrix(1 0 0 1.027 0 -19.049)"/><radialGradient id="Y" gradientUnits="userSpaceOnUse" xlink:href="#a" cx="649.42" cy="720.03" r="4.405" gradientTransform="matrix(1 0 0 1.007 0 -5.25)"/><radialGradient id="X" gradientUnits="userSpaceOnUse" xlink:href="#a" cx="642.62" cy="712.94" r="4.135" gradientTransform="matrix(1 0 0 1.014 0 -9.865)"/><radialGradient id="W" gradientUnits="userSpaceOnUse" xlink:href="#a" cx="637.01" cy="705.72" r="3.872" gradientTransform="matrix(1 0 0 1.011 0 -7.714)"/><radialGradient id="V" gradientUnits="userSpaceOnUse" xlink:href="#a" cx="660.59" cy="713.14" r="4.846" gradientTransform="matrix(1 0 0 1.017 0 -12.2)"/><radialGradient id="U" gradientUnits="userSpaceOnUse" xlink:href="#a" cx="653.02" cy="704.68" r="4.489" gradientTransform="matrix(1 0 0 1.006 0 -3.892)"/><radialGradient id="T" gradientUnits="userSpaceOnUse" xlink:href="#a" cx="646.03" cy="696.48" r="4.136" gradientTransform="matrix(1 0 0 1.024 0 -16.403)"/><radialGradient id="S" gradientUnits="userSpaceOnUse" xlink:href="#a" cx="654.58" cy="687.37" r="4.49" gradientTransform="matrix(1 0 0 1.017 0 -11.49)"/><radialGradient id="R" gradientUnits="userSpaceOnUse" xlink:href="#a" cx="662.2" cy="695.65" r="5.292" gradientTransform="matrix(1 0 0 1.011 0 -7.342)"/><radialGradient id="Q" gradientUnits="userSpaceOnUse" xlink:href="#a" cx="671.6" cy="705.18" r="6.282" gradientTransform="matrix(1 0 0 1.006 0 -4.166)"/><radialGradient id="P" gradientUnits="userSpaceOnUse" xlink:href="#a" cx="663.89" cy="678.28" r="4.489" gradientTransform="matrix(1 0 0 1.009 0 -5.844)"/><radialGradient id="O" gradientUnits="userSpaceOnUse" xlink:href="#a" cx="673.31" cy="686.5" r="5.292" gradientTransform="matrix(1 0 0 1.017 0 -11.629)"/><radialGradient id="N" gradientUnits="userSpaceOnUse" xlink:href="#a" cx="682.71" cy="696.23" r="6.282" gradientTransform="matrix(1 0 0 1.008 0 -5.585)"/><radialGradient id="M" gradientUnits="userSpaceOnUse" xlink:href="#a" cx="671.83" cy="668.65" r="4.779" gradientTransform="matrix(1 0 0 1.024 0 -16.33)"/><radialGradient id="L" gradientUnits="userSpaceOnUse" xlink:href="#a" cx="682.92" cy="676.43" r="5.721" gradientTransform="matrix(1 0 0 1.006 0 -3.938)"/><radialGradient id="K" gradientUnits="userSpaceOnUse" xlink:href="#a" cx="694.25" cy="686.15" r="6.753" gradientTransform="matrix(1 0 0 1.01 0 -6.764)"/><radialGradient id="J" gradientUnits="userSpaceOnUse" xlink:href="#a" cx="680.18" cy="655.53" r="5.651" gradientTransform="matrix(1 0 0 1.005 0 -3.497)"/><radialGradient id="I" gradientUnits="userSpaceOnUse" xlink:href="#a" cx="693.57" cy="664.01" r="6.615" gradientTransform="matrix(1 0 0 1.013 0 -8.648)"/><radialGradient id="H" gradientUnits="userSpaceOnUse" xlink:href="#a" cx="707.38" cy="674.82" r="7.953" gradientTransform="matrix(1 0 0 .991 0 5.871)"/><radialGradient id="G" gradientUnits="userSpaceOnUse" xlink:href="#a" cx="686.7" cy="642.53" r="6.091" gradientTransform="matrix(1 0 0 1.007 0 -4.435)"/><radialGradient id="F" gradientUnits="userSpaceOnUse" xlink:href="#a" cx="702.21" cy="650.42" r="7.301" gradientTransform="matrix(1 0 0 .999 0 .647)"/><radialGradient id="E" gradientUnits="userSpaceOnUse" xlink:href="#a" cx="718.42" cy="660.82" r="8.623" gradientTransform="matrix(1 0 0 1.003 0 -1.666)"/><radialGradient id="D" gradientUnits="userSpaceOnUse" xlink:href="#a" cx="695.15" cy="628.49" r="6.64" gradientTransform="matrix(1 0 0 .998 0 1.462)"/><radialGradient id="C" gradientUnits="userSpaceOnUse" xlink:href="#a" cx="712.98" cy="635.08" r="7.792" gradientTransform="matrix(1 0 0 1.006 0 -3.791)"/><radialGradient id="B" gradientUnits="userSpaceOnUse" xlink:href="#a" cx="731.65" cy="644.12" r="9.333" gradientTransform="matrix(1 0 0 .998 0 1.067)"/><radialGradient id="A" gradientUnits="userSpaceOnUse" xlink:href="#a" cx="700.55" cy="614.7" r="7.03" gradientTransform="matrix(1 0 0 .996 0 2.179)"/><radialGradient id="z" gradientUnits="userSpaceOnUse" xlink:href="#a" cx="720.45" cy="618.78" r="8.345" gradientTransform="matrix(1 0 0 1.007 0 -4.273)"/><radialGradient id="y" gradientUnits="userSpaceOnUse" xlink:href="#a" cx="741.9" cy="625.39" r="9.95" gradientTransform="matrix(1 0 0 .999 0 .535)"/><radialGradient id="x" gradientUnits="userSpaceOnUse" xlink:href="#a" cx="706.08" cy="597.51" r="8.123" gradientTransform="matrix(1 0 0 .997 0 1.636)"/><radialGradient id="w" gradientUnits="userSpaceOnUse" xlink:href="#a" cx="729.67" cy="600.54" r="9.95" gradientTransform="matrix(1 0 0 .999 0 .513)"/><radialGradient id="v" gradientUnits="userSpaceOnUse" xlink:href="#a" cx="751.9" cy="604.02" r="10.462" gradientTransform="matrix(1 0 0 .989 0 6.531)"/><radialGradient id="u" gradientUnits="userSpaceOnUse" xlink:href="#a" cx="711.71" cy="576.36" r="10.886" gradientTransform="matrix(1 0 0 .993 0 4.272)"/><radialGradient id="t" gradientUnits="userSpaceOnUse" xlink:href="#a" cx="737.53" cy="577.5" r="10.886" gradientTransform="matrix(1 0 0 .992 0 4.591)"/><radialGradient id="s" gradientUnits="userSpaceOnUse" xlink:href="#a" cx="761.91" cy="580.39" r="10.886" gradientTransform="matrix(1 0 0 .993 0 4.303)"/><radialGradient id="r" gradientUnits="userSpaceOnUse" xlink:href="#a" cx="714.26" cy="552.78" r="11.385" gradientTransform="matrix(1 0 0 .989 0 6.081)"/><radialGradient id="q" gradientUnits="userSpaceOnUse" xlink:href="#a" cx="741.28" cy="552.78" r="11.347" gradientTransform="matrix(1 0 0 .992 0 4.237)"/><radialGradient id="p" gradientUnits="userSpaceOnUse" xlink:href="#a" cx="768.04" cy="552.78" r="11.383" gradientTransform="matrix(1 0 0 .989 0 5.991)"/><radialGradient id="o" gradientUnits="userSpaceOnUse" xlink:href="#a" cx="716.86" cy="525.29" r="12.039" gradientTransform="matrix(1 0 0 .993 0 3.648)"/><radialGradient id="n" gradientUnits="userSpaceOnUse" xlink:href="#a" cx="745.39" cy="525.29" r="12.039" gradientTransform="matrix(1 0 0 .993 0 3.648)"/><radialGradient id="m" gradientUnits="userSpaceOnUse" xlink:href="#a" cx="772.18" cy="526.29" r="12.039" gradientTransform="matrix(1 0 0 .993 0 3.655)"/><radialGradient id="l" gradientUnits="userSpaceOnUse" xlink:href="#a" cx="714.14" cy="499.67" r="12.039" gradientTransform="matrix(1 0 0 .991 0 4.502)"/><radialGradient id="k" gradientUnits="userSpaceOnUse" xlink:href="#a" cx="742.68" cy="499.67" r="12.039" gradientTransform="matrix(1 0 0 .991 0 4.502)"/><radialGradient id="j" gradientUnits="userSpaceOnUse" xlink:href="#a" cx="771.02" cy="499.67" r="12.039" gradientTransform="matrix(1 0 0 .991 0 4.502)"/><radialGradient id="i" gradientUnits="userSpaceOnUse" xlink:href="#a" cx="703.46" cy="474.25" r="12.039" gradientTransform="matrix(1 0 0 .993 0 3.294)"/><radialGradient id="h" gradientUnits="userSpaceOnUse" xlink:href="#a" cx="731.81" cy="474.25" r="12.039" gradientTransform="matrix(1 0 0 .993 0 1.879)"/><radialGradient id="g" gradientUnits="userSpaceOnUse" xlink:href="#a" cx="760.54" cy="474.25" r="12.039" gradientTransform="matrix(1 0 0 .993 0 3.294)"/><radialGradient id="f" xlink:href="#a" gradientUnits="userSpaceOnUse" cy="814.57" cx="416.38" gradientTransform="matrix(1 0 0 1.006 0 -4.636)" r="7.422"/><radialGradient id="e" xlink:href="#a" gradientUnits="userSpaceOnUse" cy="837.95" cx="393.34" gradientTransform="matrix(1 0 0 .991 0 7.468)" r="7.506"/><radialGradient id="d" xlink:href="#a" gradientUnits="userSpaceOnUse" cy="860.97" cx="416.58" gradientTransform="matrix(1 0 0 1.008 0 -7.063)" r="7.422"/><radialGradient id="c" xlink:href="#a" gradientUnits="userSpaceOnUse" cy="837.58" cx="439.62" gradientTransform="matrix(1 0 0 .988 0 10.237)" r="7.506"/><radialGradient id="b" xlink:href="#a" gradientUnits="userSpaceOnUse" cy="837.65" cx="416.51" gradientTransform="matrix(1 0 0 .988 0 9.646)" r="11.146"/></defs><path fill="#002b7f" d="M0 0h833.33v500h-833.33z"/><path fill="#fff" d="M0 83.333h833.33v333.33h-833.33z"/><path fill="#ce1126" d="M0 166.67h833.33v166.67h-833.33z"/><ellipse cx="250" cy="250" rx="62.5" ry="72.917" fill="#fff"/><g transform="matrix(.128 0 0 .128 196.611 195.364)"><g stroke-linejoin="round" stroke="#000" stroke-linecap="round"><path d="M105.36 349.34l11-20.25-26-7.25-8 18 23 9.5zM727.6 349.34l-11-20.25 26-7.25 8 18-23 9.5z" fill="#cea849" color="#000"/><path d="M409.48 91.438l-40.094 1.157c-25.601 2.417-35.334 12.289-19.437 30.965-41.272 6.468-81.637 15.908-118.94 35.626-10.486-1.741-22.662 4.134-26.156 14.232-2.912 8.158 4.188 16.828 16.812 13.387-8.349 21.987-106.99 19.428-109.5 56.05 7.472-6.369 15.699-11.766 23.906-6.318l-5.656 17.109c-14.363 4.278-24.455 6.645-30.469 22.364-6.212 15.769-15.131 39.832-21.344 51.671-4.08 5.472-5.063 11.284-5.063 14.169 0 6.815 4.868 16.327 16.125 16.327 11.456 0 17.094-7.175 17.094-14.388-.666-5.019-2.644-10.912-14.75-10.228 20.321-4.871 37.886 1.953 49.687 9.477 16.306 12.038 20.387 35.379 10.875 54.58-9.323 18.654-33.013 29.543-68.344 15.764-28.736-11.292-57.644 3.483-67.156 29.151-43.293 117.15 32.408 212.17 118.22 267.58 89.304 57.703 105.21 73.418 129.09 101.62 24.069 28.155 47.369 60.398 82.312 60.398 5.437 0 10.682-1.56 15.344-4.097 21.995 0 23.424 8.208 52.937 8.727v.031l1.5-.031 1.469.031v-.031c29.545-.514 30.966-8.727 52.969-8.727 4.662 2.537 9.875 4.097 15.312 4.097 34.943 0 58.243-32.243 82.312-60.398 23.88-28.205 39.821-43.92 129.12-101.62 85.81-55.415 161.51-150.44 118.22-267.58-9.512-25.668-38.451-40.443-67.187-29.151-35.331 13.779-58.989 2.89-68.312-15.764-9.512-19.201-5.431-42.542 10.875-54.58 11.802-7.524 29.335-14.349 49.656-9.477-12.106-.684-14.053 5.208-14.719 10.228 0 7.213 5.638 14.388 17.094 14.388 11.257 0 16.094-9.512 16.094-16.327 0-2.885-.951-8.697-5.031-14.169-6.212-11.839-15.163-35.903-21.375-51.671-6.014-15.719-16.106-18.086-30.469-22.364l-5.625-17.109c8.207-5.448 16.434-.051 23.906 6.318-2.506-36.622-101.18-34.064-109.53-56.05 12.625 3.441 19.756-5.229 16.844-13.387-3.494-10.098-15.67-15.973-26.156-14.232-37.27-19.72-77.67-29.16-118.94-35.63 15.89-18.68 6.16-28.547-19.44-30.964l-40.094-1.157-7-.219-6.969.219z" fill="#dca842"/><path d="M365.36 93.093c38.572.121 30.016 46.144-5 48.25-43.149 5.035-96.201 3.62-125 15.5" fill="none"/><path d="M136.36 218.09c33.314-9.378 69.202-1.792 91-11.75s26.49-42.896 3-47.25" color="#000" fill="none"/><path d="M349.11 123.59c7.681-1.77 15.889-2.044 19.979-5.771 4.09-3.726 5.313-10.404-4.479-11.229" fill="none"/><path d="M221.62 187.09c7.161-12.05 4.837-20.454-4.518-14.67" color="#000" fill="none"/><path d="M467.6 93.093c-38.572.121-30.016 46.144 5 48.25 43.149 5.035 96.201 3.62 125 15.5" fill="none"/><path d="M696.6 218.09c-33.314-9.378-69.202-1.792-91-11.75s-26.49-42.896-3-47.25" color="#000" fill="none"/><path d="M483.85 123.59c-7.681-1.77-15.889-2.044-19.979-5.771-4.09-3.726-5.313-10.404 4.479-11.229" fill="none"/><path d="M611.33 187.09c-7.161-12.05-4.837-20.454 4.518-14.67" color="#000" fill="none"/><g fill="none"><path d="M219.23 742.45c61.736 43.665 70.667 100.43 134.54 103.15M354.55 854.5c-37.662 8.11-62.318-12.363-92.023-56.818-15.15-22.4-54.94-53.9-122.89-96.38-106.78-66.66-138.42-182.91-103.67-246.66 8.543-15.676 30.48-21.857 43.099-18.346 32.811 8.852 87.947 0 88.141-53.159.194-29.917-24.268-64.879-55.912-64.879-19.224 0-29.511 6.379-34.556 13.154M349.89 831.9c0-2.918 2.52-5.984 6.212-5.984 3.688 0 6.988 3.264 6.988 7.319 0 8.901-5.049 13.698-15.725 11.571-8.737-1.731-12.619-11.176-8.931-20.67 3.688-9.643 16.112-15.626 29.506-9.643 13.399 6.181 11.843 26.654 7.186 38.275-2.719 6.725-8.156 12.363-14.756 16.022M613.72 742.45c-61.73 43.66-70.66 100.43-134.73 103.15M478.41 854.5c37.662 8.11 62.318-12.363 92.018-56.818 14.949-22.401 54.942-53.901 122.89-96.379 106.77-66.659 138.42-182.92 103.67-246.66-8.538-15.676-30.475-21.857-43.094-18.346-32.811 8.852-87.947 0-88.141-53.159-.194-29.917 24.268-64.879 55.911-64.879 19.219 0 29.511 6.379 34.556 13.154M495.88 830.52c0-26.456-44.843-34.764-79.205-34.764-34.168 0-79.205 8.308-79.205 34.764M483.07 831.9c0-2.918-2.52-5.984-6.212-5.984-3.688 0-6.988 3.264-6.988 7.319 0 8.901 5.049 13.698 15.725 11.571 8.737-1.731 12.619-11.176 8.931-20.67-3.688-9.643-16.112-15.626-29.506-9.643-13.399 6.181-11.843 26.654-7.186 38.275 2.719 6.725 8.156 12.363 14.756 16.022M460.16 857.17c-18.056 0-17.474 19.44-43.681 19.44-26.012 0-25.431-19.44-43.487-19.44"/></g></g><g stroke="#000" stroke-width="3"><path d="M416.48 828.14c-12.812 0-12.812 19.035 0 19.035s13.006-19.035 0-19.035" fill="url(#b)"/><path d="M439.58 831.66c-7.957 0-7.957 11.828 0 11.828 7.962 0 8.156-11.828 0-11.828" fill="url(#c)"/><path d="M422.5 860.99c0-8.002-11.843-8.002-11.843 0 0 7.952 11.843 7.952 11.843 0" fill="url(#d)"/><path d="M393.38 843.89c7.957 0 7.957-11.878 0-11.878-7.962 0-8.156 11.878 0 11.878" fill="url(#e)"/><path d="M410.46 814.57c0 7.952 11.843 7.952 11.843 0s-11.843-7.952-11.843 0" fill="url(#f)"/></g><g id="ap" stroke="#000"><path d="M154.052 272.66c2.175.121 4.391.669 6.438 1.531 3.616 1.522 6.784 4.129 7.906 7.75l.031.063c31.912 88.551 14.845 126.29-13.5 183.59-40.958 82.506-11.105 205.42 80.375 259.16 44.974 26.295 79.656 35.262 106.22 41.906 13.281 3.322 24.558 6.071 34.094 10.156 9.199 3.941 18.697 11.001 24.695 19.174-9.191.76-24.191 3.282-31.554 5.446-10.704-13.603-37.624-26.11-65.484-35.588-27.86-9.479-56.925-16.224-72.688-19.344h-.031c-51.284-14.874-99.099-48.249-135.12-90.656-38.135-44.889-57.625-106.35-50.094-167.97 1.687-14.102 7.292-22.719 15.281-27.406 7.989-4.687 18.096-5.486 28.812-4.781 19.477 1.124 38.56-4.194 56-14.938 22.488-13.845 31.704-38.325 31.344-64.906-.36-26.581-10.401-55.133-26.312-76.406-5.686-7.658-7.962-13.4-7.844-17.844.118-4.444 3.002-7.378 6.531-8.406.882-.257 1.806-.426 2.75-.5.708-.056 1.431-.072 2.156-.031z" fill="#825123"/><path fill="url(#g)" d="M72.842 462.8c-15.337 0-15.337 22.911 0 22.911s15.531-22.911 0-22.911"/><path fill="url(#h)" d="M101.572 461.38c-15.337 0-15.337 22.911 0 22.911s15.531-22.911 0-22.911"/><path fill="url(#i)" d="M129.912 462.8c-15.337 0-15.337 22.911 0 22.911s15.531-22.911 0-22.911"/><path fill="url(#j)" d="M62.352 488.24c-15.337 0-15.337 22.862 0 22.862s15.531-22.862 0-22.862"/><path fill="url(#k)" d="M90.702 488.24c-15.337 0-15.337 22.862 0 22.862s15.531-22.862 0-22.862"/><path fill="url(#l)" d="M119.242 488.24c-15.337 0-15.337 22.862 0 22.862s15.531-22.862 0-22.862"/><path fill="url(#m)" d="M61.192 514.84c-15.337 0-15.337 22.911 0 22.911s15.531-22.911 0-22.911"/><path fill="url(#n)" d="M87.982 513.84c-15.337 0-15.337 22.911 0 22.911s15.531-22.911 0-22.911"/><path fill="url(#o)" d="M116.522 513.84c-15.337 0-15.337 22.911 0 22.911s15.531-22.911 0-22.911"/><path fill="url(#p)" d="M65.272 542.02c-14.368 0-14.368 21.52 0 21.52 14.557 0 14.751-21.52 0-21.52"/><path fill="url(#q)" d="M92.062 542.02c-14.363 0-14.363 21.52 0 21.52 14.562 0 14.562-21.52 0-21.52"/><path fill="url(#r)" d="M119.042 542.02c-14.368 0-14.368 21.52 0 21.52 14.562 0 14.756-21.52 0-21.52"/><path fill="url(#s)" d="M70.982 570.11c-13.782.547-12.812 21.172.969 20.575 13.787-.596 13.011-21.371-.969-20.575"/><path fill="url(#t)" d="M95.362 567.22c-13.782.596-12.812 21.172.974 20.575 13.782-.547 13.006-21.122-.974-20.575"/><path fill="url(#u)" d="M121.182 566.07c-13.787.596-12.817 21.172.969 20.575 13.782-.596 13.006-21.371-.969-20.575"/><path fill="url(#v)" d="M80.802 594.2c-13.205.994-11.843 20.575 1.357 19.631 13.2-.795 12.037-20.575-1.357-19.631"/><path fill="url(#w)" d="M103.122 591.12c-12.619.745-11.262 19.581 1.163 18.836 12.619-.795 11.456-19.631-1.163-18.836"/><path fill="url(#x)" d="M126.802 589.93c-10.094.596-9.12 15.953.974 15.158 10.094-.596 9.319-15.705-.974-15.158"/><path fill="url(#y)" d="M90.892 615.97c-12.619.745-11.262 19.581 1.163 18.836 12.619-.795 11.456-19.631-1.163-18.836"/><path fill="url(#z)" d="M112.442 610.9c-10.487.795-9.319 16.5.969 15.755 10.486-.795 9.512-16.5-.969-15.755"/><path fill="url(#A)" d="M132.442 608.22c-8.737.348-7.763 13.568.775 12.971 8.737-.398 7.962-13.568-.775-12.971"/><path fill="url(#B)" d="M99.822 635.55c-11.456 2.535-7.574 19.83 3.881 17.096 11.456-2.535 7.569-19.581-3.881-17.096"/><path fill="url(#C)" d="M118.852 628c-9.512 2.137-6.212 16.5 3.106 14.164 9.512-2.137 6.406-16.5-3.106-14.164"/><path fill="url(#D)" d="M136.902 622.58c-7.962 1.74-5.243 13.767 2.719 11.828 7.957-1.74 5.238-13.767-2.719-11.828"/><path fill="url(#E)" d="M112.252 653.24c-10.099 3.479-4.662 18.836 5.437 15.158 10.094-3.529 4.851-18.836-5.437-15.158"/><path fill="url(#F)" d="M128.942 644.1c-8.543 2.932-3.881 15.755 4.468 12.624 8.538-2.883 4.075-15.705-4.468-12.624"/><path fill="url(#G)" d="M144.862 637.34c-6.988 2.286-3.3 12.971 3.688 10.437 6.993-2.485 3.3-13.17-3.688-10.437"/><path fill="url(#H)" d="M122.922 668.2c-8.931 4.075-2.719 17.444 6.212 13.17 8.931-3.877 2.719-17.246-6.212-13.17"/><path fill="url(#I)" d="M137.292 658.46c-7.38 3.33-2.137 14.562 5.045 11.083 7.38-3.28 2.331-14.562-5.045-11.083"/><path fill="url(#J)" d="M151.072 650.91c-6.212 2.932-1.744 12.027 4.274 9.294 6.212-2.882 1.938-12.226-4.274-9.294"/><path fill="url(#K)" d="M136.322 680.63c-7.38 3.678-1.556 14.91 5.626 11.033 7.38-3.678 1.749-14.91-5.626-11.033"/><path fill="url(#L)" d="M148.162 671.88c-6.212 3.081-1.357 12.425 4.662 9.095 6.212-3.081 1.357-12.425-4.662-9.095"/><path fill="url(#M)" d="M159.622 664.87c-5.049 2.733-.969 10.288 3.881 7.604 5.049-2.535 1.168-10.486-3.881-7.604"/><path fill="url(#N)" d="M147.582 691.46c-6.406 4.075 0 13.816 6.212 9.542 6.406-4.075.194-13.816-6.212-9.542"/><path fill="url(#O)" d="M157.482 682.57c-5.238 3.479 0 11.431 5.243 7.952 5.243-3.479 0-11.679-5.243-7.952"/><path fill="url(#P)" d="M167.382 674.96c-4.468 2.932 0 9.542 4.269 6.61 4.463-2.882 0-9.492-4.269-6.61"/><path fill="url(#Q)" d="M158.682 700.43c-6.406 4.274 0 13.767 6.212 9.492 6.406-4.075.194-13.767-6.212-9.492"/><path fill="url(#R)" d="M168.582 691.66c-5.238 3.529 0 11.48 5.243 7.952 5.243-3.479 0-11.431-5.243-7.952"/><path fill="url(#S)" d="M176.702 684.11c-4.463 2.932 0 9.492 4.274 6.61 4.463-2.932 0-9.741-4.274-6.61"/><path fill="url(#T)" d="M185.432 693.4c-4.075 2.535 0 8.747 3.886 6.212 4.075-2.684 0-8.896-3.886-6.212"/><path fill="url(#U)" d="M178.252 701.4c-4.463 2.883 0 9.492 4.269 6.56 4.468-2.883 0-9.492-4.269-6.56"/><path fill="url(#V)" d="M170.492 709.55c-4.851 3.28 0 10.486 4.662 7.157 4.856-3.081 0-10.487-4.662-7.157"/><path fill="url(#W)" d="M194.562 702.94c-3.688 2.535 0 7.952 3.688 5.616 3.693-2.535 0-8.151-3.688-5.616"/><path fill="url(#X)" d="M188.842 709.92c-4.075 2.733 0 8.747 3.881 6.014 4.08-2.684 0-8.697-3.881-6.014"/><path fill="url(#Y)" d="M181.862 716.84c-4.274 2.684 0 9.294 4.269 6.411 4.274-2.932 0-9.343-4.269-6.411"/><path fill="url(#Z)" d="M203.412 709.28c-3.3 2.137 0 7.405 3.3 5.069 3.3-2.137 0-7.356-3.3-5.069"/><path fill="url(#aa)" d="M198.202 715.78c-3.688 2.535 0 8.151 3.688 5.666 3.688-2.535 0-8.151-3.688-5.666"/><path fill="url(#ab)" d="M191.882 723.19c-3.881 2.535 0 8.747 3.881 5.815 3.881-2.535 0-8.747-3.881-5.815"/><path fill="url(#ac)" d="M210.672 714.97c-3.106 2.336.393 7.008 3.499 4.672 2.912-2.336-.393-7.008-3.499-4.672"/><path fill="url(#ad)" d="M205.962 721.07c-3.3 2.535.388 7.554 3.688 5.02 3.3-2.485-.388-7.554-3.688-5.02"/><path fill="url(#ae)" d="M201.442 727.58c-3.494 2.733.388 8.349 4.075 5.467 3.494-2.733-.388-8.349-4.075-5.467"/><path fill="url(#af)" d="M217.712 719.44c-2.525 2.137.775 6.063 3.3 3.727 2.52-2.336-.78-6.014-3.3-3.727"/><path fill="url(#ag)" d="M213.832 725.92c-2.525 2.286.969 6.56 3.688 3.877 2.719-2.336-.969-6.61-3.688-3.877"/><path fill="url(#ah)" d="M210.232 732.05c-2.912 2.733.969 7.008 3.881 4.274 2.912-2.485-.969-6.958-3.881-4.274"/><path fill="url(#ai)" d="M225.072 723.22c-2.331 2.137.969 5.616 3.3 3.479 2.331-2.336-.969-5.815-3.3-3.479"/><path fill="url(#aj)" d="M222.392 729c-2.525 2.535.969 6.212 3.494 3.678 2.525-2.336-.969-6.212-3.494-3.678"/><path fill="url(#ak)" d="M218.512 735.44c-2.719 2.733 1.163 6.809 3.881 4.075 2.719-2.535-.974-6.809-3.881-4.075"/><path fill="url(#al)" d="M231.912 727.58c-1.744 1.938 1.168 4.672 2.912 2.733 1.749-1.938-.969-4.87-2.912-2.733"/><path fill="url(#am)" d="M229.802 732.94c-1.943 2.137 1.163 5.02 3.3 2.883 1.744-2.137-1.168-5.02-3.3-2.883"/><path fill="url(#an)" d="M226.922 738.49c-2.132 2.336 1.362 5.417 3.499 3.131 2.132-2.336-1.362-5.666-3.499-3.131"/><path fill="url(#ao)" d="M145.812 446.92c-10.094 0-10.094 15.158 0 15.158s10.288-15.158 0-15.158"/></g><use xlink:href="#ap" transform="matrix(-1 0 0 1 832.957 0)" height="500" width="833.333"/></g><path fill="#89c5e3" d="M219.926 250.798c1.442-4.797 2.162-10.961.125-18.982 8.97-5.789 15.282-11.082 29.894-11.082 14.587 0 21.469 4.02 29.894 11.082-2.013 8.022-1.292 14.161.124 18.982h-60.086" stroke="#000" stroke-width="0.128"/><path fill="#fcdd09" d="M226.755 239.12l-.668 7.252h-.02l-2.575-7.188 1.24 7.592-.028.012-2.876-3.795 1.728 4.512-2.112-1.472 1.284 2.408-.036.048-1.504-.184.932 1.308c-.189.527-.292 1.094-.292 1.686l.008.08h9.936l.008-.08c0-.594-.101-1.164-.292-1.692l1.957-1.878-2.464.86-.06-.092c.379-.465 4.084-5.024 3.932-5.024-.157 0-4.685 3.884-4.844 4.02l-.024-.02 3.556-7.872-4.92 7.064-.048-.02 1.449-7.46-2.592 7.168-.672-7.232z"/><path fill="#0f47af" d="M219.884 250.798c-.795 2.659-1.789 4.924-2.658 6.858-2.262 5.096-2.734 16.947 5.616 25.325 12.4 12.398 21.843 7.405 26.589 14.161h.969c4.746-6.756 14.189-1.762 26.589-14.161 8.349-8.378 7.902-20.229 5.616-25.325-.845-1.915-1.864-4.199-2.659-6.858h-60.086" stroke="#000" stroke-width="0.128"/><path d="M238.034 239.392c-.144-.695-1.766-.562-1.648-1.68-1.079-.172-.878-2.1 1.136-1.968.212-.383 2.646-1.259 2.352-.048 1.222-1.064 2.106-.09 1.424.384.471.472.709 1.551-.736 1.456.553.984-.731.947-1.584.672.021.373-.042.668-.528.576-.306.207-.074.474-.032.72l-.384-.112zM260.383 240.151c.014-.877-1.64-.61-1.578-1.609-.897-.138-.767-1.996 1.088-1.885-.103-.537 2.498-1.226 2.252-.046.906-.961 1.8-.063 1.252.368.451.452.999 1.229-.593 1.394.642.622-.7.907-1.517.644.02.357-.217.479-.682.392-.293.198.105.614.145.85l-.368-.107zM273.27 243.184c.154-.664-1.364-.606-1.325-1.362-.69-.104-.589-1.512.836-1.427-.079-.407 1.775-1.088 1.651-.099.696-.727 1.463.017 1.042.342.347.342.768.931-.456 1.056.493.471-.538.687-1.166.487.015.27-.07.315-.428.249-.225.15.272.513.304.691l-.459.063z" fill="#fff"/><path d="M268.171 255.875c.373-1.94 1.963-3.728 2.137-5.242.149-1.368.422-1.94 1.218-3.378.795-1.444 1.118-2.112 1.292-3.111.248-1.291 1.218-1.565 1.665-.248.422 1.317 1.267 4.625 1.714 5.395.422.77.87 1.838.795 2.36-.074.522.572.719.945 1.094.373.35.422 1.565 1.516 2.608 1.093 1.043 2.311 1.788 3.33 2.309.919 2.067 1.541 5.197 1.391 8.772h-68.261c-.025-.942 0-1.864.05-2.755 6.063-1.565 8.325-5.566 10.884-5.293 1.392-1.94 3.081-4.027 4.249-5.096 1.391-1.266 4.125-6.311 4.821-9.396.696-3.054 1.714-4.695 2.485-4.523.77.178 1.094.324 2.013 3.085 1.268 3.798 2.137 4.249 3.106 6.979.845 2.366 2.61 6.61 5.318 8.823 1.69-1.266 3.628-2.685 4.249-3.677.522-.872 1.318-2.214 2.262-2.856.422-1.266.969-3.531 1.417-4.078.422-.496.596-.992.646-1.864.025-.872.696-2.71 1.615-4.249.92-1.514 2.137-2.01 2.684 0 .522 2.017 1.739 6.241 2.882 8.874.472 1.094 1.342 3.251 3.255 5.515l.207.244c.039-.068.078-.119.117-.295z" stroke="#000" stroke-width="0.127872" fill="#509164"/><path fill="#034418" d="M260.345 263.029c-1.267-1.221-3.28-.948-4.298-1.915-.994-.942-2.585-.299-6.014-2.036-.422-.223-.845-.496-1.267-.821-2.709-2.214-4.473-6.463-5.318-8.823-.945-2.71-1.839-3.155-3.106-6.985-.671-2.036-1.044-2.659-1.491-2.882 1.168 1.272.547 3.257 1.491 5.395.373.846-.249.846-.447.573-.174-.274-.746-.401-1.019-.375.497.426.572 1.495 1.069 2.608.472 1.12-.373.999.646 2.589.273.445.373 1.113-.025 1.387-.422.248-.721-.77-1.342-.42.174.401.894 1.12 1.367 1.539.472.426.025.649-.348.452-.398-.204-.92-.401-1.193-.623 0 .324.398.693.944 1.19.572.477.199.821-1.118.821.199.299.125 1.043-.472 1.145.82.051 1.442 1.565 2.46 1.667.994.07 1.094.77.125.942-.969.172-2.933-1.393-3.901-2.411-.249.35-.77.496-1.143.299-.025.471.124 1.616.571 2.36-.472-.197-1.093-.821-1.714-1.59-.596-.719-.994.35-.472.992.522.649.87 1.171.025 1.667-.82.471-1.342.299-1.963-.573-.87.725-1.218.77-1.889.649 0 .42-.721 1.419-1.043 2.163-.721 1.438 31.956 4.421 31.037.942M283.849 263.249c-8.598-.751-13.344-4.078-16.028-7.258-1.913-2.239-2.783-4.421-3.255-5.515-1.143-2.634-2.361-6.858-2.882-8.874-.174-.668-.422-1.069-.721-1.215-.447-.223-.224.547.099.942.348.375.323.725-.124.452-.447-.248-.671.248-.249.865.398.598 1.019 1.298 1.143 1.966.125.649.174 1.215.497 1.539.298.324-.82.401-1.292-.369-.025.496.125 1.215.447 1.139.298-.051.398.223-.025.973-.422.719-.373.967-.223 1.291.223.496.795-1.469 1.143-.35.174.522.472 1.171.745 1.59.274.401.249.649-.149.649s-.746-.999-.795-.153c-.025.821.622 1.094 1.292 1.043.646-.025.746.223.646.573-.074.35.198.693.571.623.348-.102.895.223 1.193 1.069.298.846-.198 1.215-.919.617-.721-.617-1.764-1.164-1.864-1.616-.074-.394-.373.178-.05.725.298.547.472.795.87 1.018.398.197-.025 1.018-.695.496-.646-.496-.945-.375-1.143.197-.323.922-1.292.7-.994 1.196.298.496.174 1.291-.273 1.489-.473.197-1.019-.095-.969-.967-.124.172-.596.248-.969.146-.05 1.221-.398 1.641-1.143 1.317-.025.274-.05.744-.422 1.094.82-.121.994.445 1.068.795.05.35.174.299.646.35.447.025 1.019.617.174.471-.845-.121-2.162.172-2.933-.394.795.719 3.057.744 4.001 1.66 6.884 2.837 19.011 3.83 23.805 2.513.025-.573-.05-1.889-.099-2.309M273.866 243.111c.198.095.398.369.571.795.422 1.317 1.267 4.618 1.715 5.388.422.77.87 1.838.795 2.36-.075.522.571.725.944 1.094.373.35.422 1.565 1.516 2.608 1.094 1.043 2.311 1.794 3.33 2.316.622 1.387 1.094 3.251 1.292 5.439-2.932-.223-6.61-1.094-8.449-1.915.074-.274.074-.617-.025-1.139-.124-.522-.025-.922.522-1.419.547-.496.373-1.342.075-1.813-.298-.445-.274-.719-.025-.992.224-.248.224-.7-.298-1.196-.547-.496-.174-1.018.124-1.463.298-.452.746-1.221.422-2.214-.323-.967-.82.223-1.218-.146-.249-.254-.398-.725-.124-1.12.273-.375.099-1.094-.224-1.641.721-.197-.497-2.309-.696-3.206-.198-.897.224-1.342-.248-1.692"/><path fill="#509164" d="M242.601 251.18c0 .471-.124 1.145-.249 1.368.298.471.696 1.438.646 1.737.398-.369 1.168-.076 1.342.948.174 1.043.348 2.01.249 2.583.348.299 1.094.821 1.218 1.393.124.547.497.471.87.42 1.168-.172 1.069 1.24 2.286 1.043 1.714-.248.646 1.12 2.361 1.069.994-.051 2.361.146 3.057 1.12.77-1.043 1.441-.649 2.137-.375.696.248 1.566.178.795-.369-.795-.573-2.361-.649-3.057-.477-.696.178-1.739.051-2.46-.592-.696-.649-1.913-1.196-2.659-1.221-.746-.025-.919-.07-1.49-.916-.547-.821-1.442-.725-1.889-.77-.422-.025-.746-.573-.249-1.094.721-.77-.298-.872.074-1.342.373-.471.174-1.094-.82-1.171-.994-.076-.621-.394-.472-1.094.348-1.66-1.889-1.387-1.714-2.182M281.615 260.124c.099-1.018-.671-1.438-.845-2.214-.149-.77-1.367-.795-1.69-.566.124.223 0 .617-.149.84-.149.204-.149.324.149.426.323.076.596.146.621.42.025.248.174.025.298-.299.099-.318.969.401 1.069 1.043.074.649.422 1.094.522.324M277.59 259.03c.149.375.696.897.994.897.298 0 .746.223.82.573.05.299.298.719.622.77.323.051.149.299-.249.274-.422-.025-1.068-.274-1.118-.573.149.623-.05.897-.448.445-.373-.42-.571-1.018-1.068-1.094.373-.07.422-.172.248-.547-.149-.369-.025-1.361.199-.744"/><path d="M215.972 265.27c.817-.401 2.077-.248 2.548.172.247-.471.643-.821 1.386-.693.594-.649 1.089-.973 1.436-.649.347-.643 1.51-.795 1.906-.394.421-.649 1.262-.948 1.832-.598.743-.973 2.055-1.317 2.847-.821.693-.522 1.486-.42 1.832-.076.347.324 1.089-.344 1.387.274.52-.121 1.51-.146 1.708.401.124-.299.569-.477.817-.248 0-1.145.817-2.017 1.956-1.743.544-.821 1.486-1.164 1.931-.872.47-.471 1.436-.146 1.856.426.916-.025 1.362.394 1.832 1.215.47.821 1.832 1.317 2.699.948.866-.324 1.659-.426 1.956-.025.52-.471 1.089-.35 1.436-.025.594.522 1.164-.401 1.51-.051.545.573 1.04-.522 2.005.051.941.573 2.797 1.438 4.234 1.438s2.575-1.762 3.491-.522c.916-.617 2.302-.916 3.268-.394.57-.522 1.882-.693 2.401-.197.52-.795 1.51-1.272 2.352-.999.47-.814 2.352-.942 2.921.204.471 0 1.213.42 1.213.942.471 0 1.214.299 1.214.846.52-.127 1.163.197 1.262.821 1.039-.076 1.882.35 2.352 1.215.347-.299.148-1.069.941-1.215.792-.127 1.04.121 1.262.394.866-.643 2.08-.566 3.095.35.743-.299 1.436-.172 1.659.197.322-.299.842-.369 1.362-.369.025 1.686-.124 3.524-.496 5.414h-67.04c-.347-1.838-.495-3.677-.47-5.369" stroke="#000" stroke-width="0.127872" fill="#078930"/><g fill="#fff"><path d="M249.899 226.761l-.671 2.163h-2.286l1.863 1.342-.696 2.163 1.814-1.342 1.839 1.342-.696-2.163 1.838-1.291h-2.261l-.696-2.163M241.251 227.48l-.323 2.239-2.236.35 2.038 1.018-.348 2.233 1.59-1.616 2.013 1.024-1.044-2.017 1.615-1.59-2.236.35-1.044-2.017M232.803 229.592l.025 2.265-2.162.719 2.187.674v2.258l1.292-1.864 2.162.674-1.367-1.819 1.318-1.838-2.162.725-1.366-1.819M224.826 233.046l.398 2.239-2.013 1.069 2.261.299.373 2.233.969-2.036 2.236.299-1.64-1.59.994-2.017-2.013 1.069-1.64-1.565M258.596 227.48l.323 2.239 2.236.35-2.038 1.018.348 2.233-1.59-1.616-2.013 1.024 1.043-2.017-1.59-1.59 2.237.35 1.044-2.017M267.046 229.592l-.025 2.265 2.162.719-2.186.674v2.258l-1.292-1.864-2.162.674 1.367-1.819-1.318-1.838 2.137.725 1.366-1.819M275.023 233.046l-.398 2.239 2.013 1.069-2.262.299-.372 2.233-.969-2.036-2.237.299 1.641-1.59-.994-2.017 2.013 1.069 1.64-1.565"/></g><path fill="#865800" d="M246.175 281.479l.248-16.622c0-.795.149-.922.174-.051l.05 16.851"/><path stroke-linejoin="round" d="M246.175 281.479l.248-16.622c0-.795.149-.922.174-.051l.05 16.851" stroke="#000" stroke-linecap="round" fill="#704d25" stroke-width="0.128"/><path fill="#fff" d="M246.622 264.831c.571-.496 1.888.623 2.708.153-.497 1.609-2.485.344-2.708.942v-1.094"/><path stroke-linejoin="round" d="M246.622 264.831c.571-.496 1.888.623 2.708.153-.497 1.609-2.485.344-2.708.942v-1.094" stroke="#000" stroke-linecap="round" fill="none" stroke-width="0.128"/><path fill="#865800" d="M251.791 281.504l.248-16.596c0-.795.149-.948.174-.025l.05 16.819"/><path stroke-linejoin="round" d="M251.791 281.504l.248-16.596c0-.795.149-.948.174-.025l.05 16.819" stroke="#000" stroke-linecap="round" fill="#704d25" stroke-width="0.128"/><path fill="#fff" d="M252.263 264.882c.571-.496 1.889.623 2.709.146-.522 1.616-2.485.35-2.709.948v-1.094"/><path stroke-linejoin="round" d="M252.263 264.882c.571-.496 1.889.623 2.709.146-.522 1.616-2.485.35-2.709.948v-1.094" stroke="#000" stroke-linecap="round" fill="none" stroke-width="0.128"/><path fill="#865800" d="M257.108 282.427l.249-16.628c0-.795.149-.916.174-.019l.05 16.819"/><path stroke-linejoin="round" d="M257.108 282.427l.249-16.628c0-.795.149-.916.174-.019l.05 16.819" stroke="#000" stroke-linecap="round" fill="#704d25" stroke-width="0.128"/><path fill="#fff" d="M257.556 265.799c.572-.496 1.889.623 2.709.127-.522 1.616-2.485.35-2.709.942v-1.088"/><path stroke-linejoin="round" d="M257.556 265.799c.572-.496 1.889.623 2.709.127-.522 1.616-2.485.35-2.709.942v-1.088.019z" stroke="#000" stroke-linecap="round" fill="none" stroke-width="0.128"/><path fill="#704d25" d="M259.021 284.336c-.572 0-1.292-.267-1.491-.719-.422.401-2.186.623-2.882.025-.472.401-1.938.674-2.684.197-.596.522-2.361.477-3.28-.07-.373.394-1.442.693-2.013.744-.82-1.171-3.032-3.034-4.423-3.728-1.566-.77-4.697-2.265-6.361-2.984-.969-.42-1.864-1.145-.025-.35 1.963.846 5.119 2.112 7.256 3.06 3.057 1.342 15.258 1.145 17.27.967 1.044-.07 2.435-.865 3.405-1.463.746-.452.77-.178.05.197-.795.42-1.665.744-2.286 1.616-.845 1.171-2.013 1.692-2.46 2.462"/><path stroke-linejoin="round" d="M259.021 284.336c-.572 0-1.292-.267-1.491-.719-.422.401-2.186.623-2.882.025-.472.401-1.938.674-2.684.197-.596.522-2.361.477-3.28-.07-.373.394-1.442.693-2.013.744-.82-1.171-3.032-3.034-4.423-3.728-1.566-.77-4.697-2.265-6.361-2.984-.969-.42-1.864-1.145-.025-.35 1.963.846 5.119 2.112 7.256 3.06 3.057 1.342 15.258 1.145 17.27.967 1.044-.07 2.435-.865 3.405-1.463.746-.452.77-.178.05.197-.795.42-1.665.744-2.286 1.616-.845 1.171-2.013 1.692-2.46 2.462l-.074.045z" stroke="#000" stroke-linecap="round" fill="#704d25" stroke-width="0.128"/><path fill="#fff" d="M260.164 268.635l-3.951-.426c-.696 1.171-.795 2.634-.422 3.658 1.267-1.196 3.554-.573 4.697.045-.373-1.043-.945-2.456-.298-3.251"/><path stroke-linejoin="round" d="M260.164 268.635l-3.951-.426c-.696 1.171-.795 2.634-.422 3.658 1.267-1.196 3.554-.573 4.697.045-.373-1.043-.945-2.456-.298-3.251l-.025-.025z" stroke="#000" stroke-linecap="round" fill="none" stroke-width="0.128"/><path fill="#fff" d="M260.463 271.886c-1.167.025-3.95-.045-4.821-.045-.944 1.215-.422 3.054-.198 3.753 1.043-1.667 4.349-.776 5.616.42-.646-1.221-1.143-2.265-.571-4.148"/><path stroke-linejoin="round" d="M260.463 271.886c-1.167.025-3.95-.045-4.821-.045-.944 1.215-.422 3.054-.198 3.753 1.043-1.667 4.349-.776 5.616.42-.646-1.221-1.143-2.265-.571-4.148l-.025.019z" stroke="#000" stroke-linecap="round" fill="none" stroke-width="0.128"/><path fill="#fff" d="M261.035 276.065c-1.143-.204-4.821-.452-5.566-.649-.597 1.24-1.094 2.856-1.342 4.402 1.789-1.966 5.939-.522 6.809 1.387-.87-1.641-1.74-4.122.124-5.14"/><path stroke-linejoin="round" d="M261.035 276.065c-1.143-.204-4.821-.452-5.566-.649-.597 1.24-1.094 2.856-1.342 4.402 1.789-1.966 5.939-.522 6.809 1.387-.87-1.641-1.74-4.122.124-5.14h-.025z" stroke="#000" stroke-linecap="round" fill="none" stroke-width="0.128"/><path fill="#fff" d="M256.114 267.44l-5.219-.693c-.745.872-1.292 2.411-1.218 4.199 1.094-1.043 5.094-.623 6.113.872-.348-1.616-.795-3.651.348-4.402"/><path stroke-linejoin="round" d="M256.114 267.44l-5.219-.693c-.745.872-1.292 2.411-1.218 4.199 1.094-1.043 5.094-.623 6.113.872-.348-1.616-.795-3.651.348-4.402l-.025.025z" stroke="#000" stroke-linecap="round" fill="none" stroke-width="0.128"/><path fill="#fff" d="M255.716 271.963l-5.79-.77c-.919 1.171-.87 2.831-.646 4.599 1.318-1.094 5.616-.496 6.635.967-.621-2.137-1.143-3.403-.174-4.797"/><path stroke-linejoin="round" d="M255.716 271.963l-5.79-.77c-.919 1.171-.87 2.831-.646 4.599 1.318-1.094 5.616-.496 6.635.967-.621-2.137-1.143-3.403-.174-4.797h-.025z" stroke="#000" stroke-linecap="round" fill="none" stroke-width="0.128"/><path fill="#fff" d="M255.89 276.759l-5.889-.598c-.919 1.145-1.541 2.316-1.342 4.027.919-1.514 4.821-.42 6.486 1.266-.994-1.317-1.094-3.206.746-4.695"/><path stroke-linejoin="round" d="M255.89 276.759l-5.889-.598c-.919 1.145-1.541 2.316-1.342 4.027.919-1.514 4.821-.42 6.486 1.266-.994-1.317-1.094-3.206.746-4.695z" stroke="#000" stroke-linecap="round" fill="none" stroke-width="0.128"/><path fill="#fff" d="M246.298 267.44c-.646.496-1.64 2.214-1.789 2.685 1.094-.445 3.405-.573 4.846.496-.422-.821-.572-2.258-.199-2.856-.571-.248-2.087-.375-2.833-.299"/><path stroke-linejoin="round" d="M246.298 267.44c-.646.496-1.64 2.214-1.789 2.685 1.094-.445 3.405-.573 4.846.496-.422-.821-.572-2.258-.199-2.856-.571-.248-2.087-.375-2.833-.299l-.025-.025z" stroke="#000" stroke-linecap="round" fill="none" stroke-width="0.128"/><path fill="#fff" d="M243.888 270.919c1.516-.025 4.622.35 5.964.719-.795 1.196-.696 3.232-.373 4.498-2.062-2.036-5.467-1.985-7.48-1.387.373-.922 1.292-2.837 1.864-3.855"/><path stroke-linejoin="round" d="M243.888 270.919c1.516-.025 4.622.35 5.964.719-.795 1.196-.696 3.232-.373 4.498-2.062-2.036-5.467-1.985-7.48-1.387.373-.922 1.292-2.837 1.864-3.855l.025.025z" stroke="#000" stroke-linecap="round" fill="none" stroke-width="0.128"/><path fill="#fff" d="M249.901 276.588c-1.466.051-5.218-.598-6.933-1.444-.596 1.616-.87 4.3-.919 5.267 1.665-2.233 5.741-.992 7.033 1.291-.124-1.215-.572-4.199.82-5.14"/><path stroke-linejoin="round" d="M249.901 276.588c-1.466.051-5.218-.598-6.933-1.444-.596 1.616-.87 4.3-.919 5.267 1.665-2.233 5.741-.992 7.033 1.291-.124-1.215-.572-4.199.82-5.14v.025z" stroke="#000" stroke-linecap="round" fill="none" stroke-width="0.128"/><path fill="#fff" d="M246.298 267.44c-4.125 2.487-7.256 7.507-8.424 10.986 1.168-.025 2.634.35 3.156 1.393 1.218-5 2.932-9.619 5.268-12.405"/><path stroke-linejoin="round" d="M246.298 267.44c-4.125 2.487-7.256 7.507-8.424 10.986 1.168-.025 2.634.35 3.156 1.393 1.218-5 2.932-9.619 5.268-12.405v.025zM246.422 265.028c-3.379 3.403-8.175 9.472-9.915 12.774M260.164 268.635c.919 4.472 1.143 10.484.77 12.697" stroke="#000" stroke-linecap="round" fill="none" stroke-width="0.128"/><path fill="#00009e" d="M265.055 276.712c-1.048.523-3.033-.939-3.971-.275v-.579c.91-.636 2.896.826 3.971.275v.607"/><path fill="#002b7f" d="M265.055 276.712c-1.048.523-3.033-.939-3.971-.275v-.579c.91-.636 2.896.826 3.971.275v.607-.028z"/><path fill="#fff" d="M265.055 277.319c-1.048.523-3.033-.939-3.971-.304v-.607c.91-.636 2.896.826 3.971.275v.607"/><path d="M265.055 277.319c-1.048.523-3.033-.939-3.971-.304v-.607c.91-.636 2.896.826 3.971.275v.635z" fill="none"/><path fill="#ff0016" d="M265.055 277.927c-1.048.551-3.033-.911-3.971-.275v-.607c.91-.636 2.896.826 3.971.304v.579"/><path fill="#ce1126" d="M265.055 277.927c-1.048.551-3.033-.911-3.971-.275v-.607c.91-.636 2.896.826 3.971.304v.579"/><path fill="#fff" d="M265.055 278.533c-1.048.551-3.033-.911-3.971-.275v-.607c.91-.607 2.896.826 3.971.275v.607"/><path d="M265.055 278.533c-1.048.551-3.033-.911-3.971-.275v-.607c.91-.607 2.896.826 3.971.275v.607" fill="none"/><path fill="#00009e" d="M265.055 279.113c-1.048.551-3.033-.911-3.971-.275v-.607c.91-.636 2.896.826 3.971.275v.579"/><path fill="#002b7f" d="M265.055 279.113c-1.048.551-3.033-.911-3.971-.275v-.607c.91-.636 2.896.826 3.971.275v.607z"/><path fill="#865800" d="M248.174 251.45l.087-5.844c0-.28.053-.324.061-.018l.017 5.924"/><path stroke-linejoin="round" d="M248.174 251.45l.087-5.844c0-.28.053-.324.061-.018l.017 5.924" stroke="#000" stroke-linecap="round" fill="#704d25" stroke-width="0.045"/><path fill="#fff" d="M248.331 245.598c.201-.174.664.219.952.054-.175.566-.874.121-.952.331v-.385"/><path stroke-linejoin="round" d="M248.331 245.598c.201-.174.664.219.952.054-.175.566-.874.121-.952.331v-.385" stroke="#000" stroke-linecap="round" fill="none" stroke-width="0.045"/><path fill="#865800" d="M250.149 251.459l.087-5.835c0-.28.053-.333.061-.009l.017 5.913"/><path stroke-linejoin="round" d="M250.149 251.459l.087-5.835c0-.28.053-.333.061-.009l.017 5.913" stroke="#000" stroke-linecap="round" fill="#704d25" stroke-width="0.045"/><path fill="#fff" d="M250.315 245.616c.201-.174.664.219.952.051-.184.568-.874.123-.952.333v-.385"/><path stroke-linejoin="round" d="M250.315 245.616c.201-.174.664.219.952.051-.184.568-.874.123-.952.333v-.385" stroke="#000" stroke-linecap="round" fill="none" stroke-width="0.045"/><path fill="#865800" d="M252.018 251.784l.087-5.846c0-.28.052-.322.061-.007l.017 5.913"/><path stroke-linejoin="round" d="M252.018 251.784l.087-5.846c0-.28.052-.322.061-.007l.017 5.913" stroke="#000" stroke-linecap="round" fill="#704d25" stroke-width="0.045"/><path fill="#fff" d="M252.175 245.938c.201-.174.664.219.952.045-.183.568-.874.123-.952.331v-.382"/><path stroke-linejoin="round" d="M252.175 245.938c.201-.174.664.219.952.045-.183.568-.874.123-.952.331v-.382.007z" stroke="#000" stroke-linecap="round" fill="none" stroke-width="0.045"/><path fill="#704d25" d="M252.691 252.455c-.201 0-.454-.094-.524-.253-.148.141-.769.219-1.013.009-.166.141-.681.237-.944.069-.21.183-.83.168-1.153-.025-.131.139-.507.244-.708.262-.288-.412-1.066-1.067-1.555-1.311-.55-.271-1.651-.796-2.236-1.049-.341-.148-.655-.403-.009-.123.69.297 1.8.742 2.551 1.076 1.075.472 5.364.403 6.071.34.367-.025.856-.304 1.197-.514.262-.159.271-.063.017.069-.28.148-.585.262-.804.568-.297.412-.708.595-.865.866"/><path stroke-linejoin="round" d="M252.691 252.455c-.201 0-.454-.094-.524-.253-.148.141-.769.219-1.013.009-.166.141-.681.237-.944.069-.21.183-.83.168-1.153-.025-.131.139-.507.244-.708.262-.288-.412-1.066-1.067-1.555-1.311-.55-.271-1.651-.796-2.236-1.049-.341-.148-.655-.403-.009-.123.69.297 1.8.742 2.551 1.076 1.075.472 5.364.403 6.071.34.367-.025.856-.304 1.197-.514.262-.159.271-.063.017.069-.28.148-.585.262-.804.568-.297.412-.708.595-.865.866l-.026.016z" stroke="#000" stroke-linecap="round" fill="#704d25" stroke-width="0.045"/><path fill="#fff" d="M253.092 246.935l-1.389-.15c-.245.412-.28.926-.148 1.286.446-.42 1.249-.201 1.651.016-.131-.367-.332-.863-.105-1.143"/><path stroke-linejoin="round" d="M253.092 246.935l-1.389-.15c-.245.412-.28.926-.148 1.286.446-.42 1.249-.201 1.651.016-.131-.367-.332-.863-.105-1.143l-.009-.009z" stroke="#000" stroke-linecap="round" fill="none" stroke-width="0.045"/><path fill="#fff" d="M253.197 248.078c-.41.009-1.389-.016-1.695-.016-.332.427-.148 1.074-.07 1.319.367-.586 1.529-.273 1.974.148-.227-.429-.402-.796-.201-1.458"/><path stroke-linejoin="round" d="M253.197 248.078c-.41.009-1.389-.016-1.695-.016-.332.427-.148 1.074-.07 1.319.367-.586 1.529-.273 1.974.148-.227-.429-.402-.796-.201-1.458l-.009.007z" stroke="#000" stroke-linecap="round" fill="none" stroke-width="0.045"/><path fill="#fff" d="M253.398 249.547c-.402-.072-1.695-.159-1.957-.228-.21.436-.384 1.004-.472 1.548.629-.691 2.088-.183 2.394.488-.306-.577-.612-1.449.044-1.807"/><path stroke-linejoin="round" d="M253.398 249.547c-.402-.072-1.695-.159-1.957-.228-.21.436-.384 1.004-.472 1.548.629-.691 2.088-.183 2.394.488-.306-.577-.612-1.449.044-1.807h-.009z" stroke="#000" stroke-linecap="round" fill="none" stroke-width="0.045"/><path fill="#fff" d="M251.669 246.515l-1.835-.244c-.262.306-.454.848-.428 1.476.384-.367 1.791-.219 2.149.306-.122-.568-.28-1.284.122-1.548"/><path stroke-linejoin="round" d="M251.669 246.515l-1.835-.244c-.262.306-.454.848-.428 1.476.384-.367 1.791-.219 2.149.306-.122-.568-.28-1.284.122-1.548l-.009.009z" stroke="#000" stroke-linecap="round" fill="none" stroke-width="0.045"/><path fill="#fff" d="M251.529 248.105l-2.036-.271c-.323.412-.306.995-.227 1.617.463-.385 1.974-.174 2.333.34-.218-.751-.402-1.197-.061-1.686"/><path stroke-linejoin="round" d="M251.529 248.105l-2.036-.271c-.323.412-.306.995-.227 1.617.463-.385 1.974-.174 2.333.34-.218-.751-.402-1.197-.061-1.686h-.009z" stroke="#000" stroke-linecap="round" fill="none" stroke-width="0.045"/><path fill="#fff" d="M251.59 249.791l-2.07-.21c-.323.403-.542.814-.472 1.416.323-.532 1.695-.148 2.28.445-.349-.463-.384-1.127.262-1.651"/><path stroke-linejoin="round" d="M251.59 249.791l-2.07-.21c-.323.403-.542.814-.472 1.416.323-.532 1.695-.148 2.28.445-.349-.463-.384-1.127.262-1.651z" stroke="#000" stroke-linecap="round" fill="none" stroke-width="0.045"/><path fill="#fff" d="M248.218 246.515c-.227.174-.577.778-.629.944.384-.157 1.197-.201 1.704.174-.148-.289-.201-.794-.07-1.004-.201-.087-.734-.132-.996-.105"/><path stroke-linejoin="round" d="M248.218 246.515c-.227.174-.577.778-.629.944.384-.157 1.197-.201 1.704.174-.148-.289-.201-.794-.07-1.004-.201-.087-.734-.132-.996-.105l-.009-.009z" stroke="#000" stroke-linecap="round" fill="none" stroke-width="0.045"/><path fill="#fff" d="M247.37 247.738c.533-.009 1.625.123 2.097.253-.28.42-.245 1.136-.131 1.581-.725-.716-1.922-.698-2.63-.488.131-.324.454-.997.655-1.355"/><path stroke-linejoin="round" d="M247.37 247.738c.533-.009 1.625.123 2.097.253-.28.42-.245 1.136-.131 1.581-.725-.716-1.922-.698-2.63-.488.131-.324.454-.997.655-1.355l.009.009z" stroke="#000" stroke-linecap="round" fill="none" stroke-width="0.045"/><path fill="#fff" d="M249.484 249.731c-.516.018-1.835-.21-2.438-.508-.21.568-.306 1.512-.323 1.852.585-.785 2.018-.349 2.472.454-.044-.427-.201-1.476.288-1.807"/><path stroke-linejoin="round" d="M249.484 249.731c-.516.018-1.835-.21-2.438-.508-.21.568-.306 1.512-.323 1.852.585-.785 2.018-.349 2.472.454-.044-.427-.201-1.476.288-1.807v.009z" stroke="#000" stroke-linecap="round" fill="none" stroke-width="0.045"/><path fill="#fff" d="M248.218 246.515c-1.45.874-2.551 2.639-2.962 3.862.411-.009.926.123 1.11.49.428-1.758 1.031-3.382 1.852-4.361"/><path stroke-linejoin="round" d="M248.218 246.515c-1.45.874-2.551 2.639-2.962 3.862.411-.009.926.123 1.11.49.428-1.758 1.031-3.382 1.852-4.361v.009zM248.261 245.667c-1.188 1.197-2.874 3.33-3.486 4.491M253.092 246.935c.323 1.572.402 3.686.271 4.464" stroke="#000" stroke-linecap="round" fill="none" stroke-width="0.045"/><path fill="#00009e" d="M254.812 249.775c-.368.184-1.066-.33-1.396-.097v-.204c.32-.223 1.018.291 1.396.097v.214"/><path fill="#002b7f" d="M254.812 249.775c-.368.184-1.066-.33-1.396-.097v-.204c.32-.223 1.018.291 1.396.097v.214-.01z"/><path fill="#fff" d="M254.812 249.988c-.368.184-1.066-.33-1.396-.107v-.214c.32-.223 1.018.291 1.396.097v.214"/><path d="M254.812 249.988c-.368.184-1.066-.33-1.396-.107v-.214c.32-.223 1.018.291 1.396.097v.224z" fill="none"/><path fill="#ff0016" d="M254.812 250.202c-.368.194-1.066-.32-1.396-.097v-.214c.32-.223 1.018.291 1.396.107v.204"/><path fill="#ce1126" d="M254.812 250.202c-.368.194-1.066-.32-1.396-.097v-.214c.32-.223 1.018.291 1.396.107v.204"/><path fill="#fff" d="M254.812 250.415c-.368.194-1.066-.32-1.396-.097v-.214l1.396.097v.214"/><path d="M254.812 250.415c-.368.194-1.066-.32-1.396-.097v-.214l1.396.097v.214" fill="none"/><path fill="#00009e" d="M254.812 250.619c-.368.194-1.066-.32-1.396-.097v-.214c.32-.223 1.018.291 1.396.097v.204"/><path fill="#002b7f" d="M254.812 250.619c-.368.194-1.066-.32-1.396-.097v-.214c.32-.223 1.018.291 1.396.097v.214z"/><path d="M279.826 231.816c-3.156 12.475.373 20.376 2.808 25.841 2.286 5.096 2.734 16.947-5.616 25.325-12.4 12.398-21.843 7.405-26.589 14.161M249.411 297.166c-4.746-6.756-14.189-1.761-26.589-14.161-8.349-8.378-7.901-20.229-5.615-25.325 2.435-5.439 5.964-13.34 2.808-25.841" stroke="#000" stroke-width="0.384" fill="none"/><g transform="matrix(.128 0 0 .128 196.611 195.364)"><g stroke-linejoin="round" stroke="#000" stroke-width="3" stroke-linecap="round"><path d="M427.55 39.787c1.357 6.308 3.106 23.321-6.212 25.758 17.082 21.075 41.737 24.086 85.03 24.086 27.18 0 49.118-.191 65.23 0 0 5.4-1.749 11.183-1.749 17.921 0 6.499 6.799 9.51 16.699 7.264 9.9-2.246 31.062-8.602 42.513 1.482 19.224 17.204 54.555 20.167 64.067 31.015-2.912-13.094-15.337-26.332-29.119-37.371 13.006-1.864 29.894-.526 35.719 3.919-14.76-15.999-41.55-16.382-55.14-24.219-13.59-7.838-26.6-14.767-36.69-17.395 0-4.444-.586-8.029-4.468-10.609-8.543-5.974-25.237-8.029-38.825-8.793 1.938-2.055 2.326-4.492 2.326-8.22v-21.075c0-7.312.78-9.175-7.569-14.385-32.225-19.785-71.442-33.978-142.88-33.978-71.249 0-110.47 14.002-142.88 33.978-8.543 5.209-7.569 7.073-7.569 14.385v21.075c0 3.728.194 6.165 2.326 8.22-13.588.573-30.088 2.628-38.825 8.793-3.688 2.581-4.468 5.974-4.468 10.609-9.9 2.437-22.906 9.367-36.688 17.395-13.593 7.837-40.38 8.22-55.136 24.229 5.631-4.444 22.519-5.974 35.525-3.919-13.588 10.848-26.012 24.086-29.119 37.371 9.512-10.848 44.843-13.811 64.261-31.015 11.257-10.084 32.419-3.919 42.513-1.482 9.9 2.246 16.699-.573 16.699-7.264 0-6.738-1.749-12.521-1.749-17.921 15.919-.382 37.856 0 65.23 0 43.099 0 67.755-3.011 85.03-24.086-9.512-2.437-7.763-19.259-6.212-25.758-20.188-4.492-30.282-12.138-46.593-12.138-16.112 0-19.025 8.554-19.025 11.756v2.628c-12.812 0-30.868-3.202-35.331-11.613 24.85-10.084 61.736-19.211 112.4-19.211 50.668 0 87.555 9.128 112.4 19.211-4.463 8.411-22.519 11.613-35.331 11.613v-2.628c0-3.011-2.719-11.756-19.025-11.756s-26.405 7.455-46.593 12.138h-.775z" fill="#89c5e3"/><path d="M260.98 89.965c-12.619.191-21.55.956-26.405 2.437-7.763 2.437-8.538 6.547-3.494 8.793M339.21 42.176v9.749c0 6.308 6.794 14.528 17.28 14.528 25.819 0 30.868-4.444 50.087-3.919M406.38 62.009c-17.86-3.011-32.03-12.521-47.76-12.521-15.531 0-18.831 7.073-16.112 10.466M224.48 72.809v19.211c0 5.257 3.688 12.521 17.668 9.749 12.231-2.246 20.188.526 20.188 5.782M267.96 53.215c2.912 2.963 9.319 5.591 23.493 10.657 26.012 9.51 85.805 16.009 124.64-.956M528.88 30.42c5.049 2.055 9.706 4.11 13.787 6.165 24.263 12.138 26.012 14.958 17.469 19.594M571.79 89.965c12.619.191 21.55.956 26.405 2.437 7.763 2.437 8.538 6.547 3.494 8.793M493.36 42.176v9.749c0 6.308-6.794 14.528-17.28 14.528-25.819 0-30.868-4.444-50.087-3.919M426.18 62.009c17.87-3.011 32.04-12.521 47.77-12.521 15.526 0 18.831 7.073 15.919 10.466M608.09 72.809v19.211c0 5.257-3.688 12.521-17.668 9.749-12.231-2.246-20.193.526-20.193 5.782M564.61 53.215c-2.912 2.963-9.319 5.591-23.493 10.657-26.012 9.51-85.805 16.009-124.64-.956" fill="none"/><path d="M416.28 66.453c11.843 0 12.231-8.937 12.231-17.156 0-8.029-.388-17.013-12.231-17.013s-12.231 8.984-12.231 17.013.388 17.156 12.231 17.156z" fill="#89c5e3"/><path d="M304.55 30.437c-5.169 2.052-9.936 4.105-14.113 6.157-24.843 12.123-26.628 14.939-17.883 19.568" fill="none"/></g><g id="aq" stroke="#000" stroke-width="3" fill="#078930"><path d="M387.94 192.56c16.306-10.486 36.499-28.13 43.874-39.809 10.094-16.301 11.456-8.349 19.219-9.691-18.25 19.979-40.962 41.35-57.074 52.631l-6.019-3.131"/><path d="M251.46 231.77c-40.768-23.11-56.299.994-65.812 2.137 11.257 2.733 20.769 20.774 65.812-2.137zM269.71 218.4c-38.83-26.241-56.105-3.33-65.816-2.733 11.068 3.479 19.224 22.315 65.816 2.733zM297.47 202.84c-38.248-26.987-56.105-4.473-65.816-4.075 11.068 3.877 18.637 22.514 65.816 4.075zM320.38 189.08c-35.137-31.062-55.33-10.486-64.842-11.282 10.482 5.069 16.112 24.452 64.842 11.282zM349.69 178.99c-33.582-32.851-54.744-13.22-64.256-14.562 10.288 5.417 14.95 25.396 64.256 14.562zM380.37 175.66c-27.762-37.672-51.831-21.917-61.15-24.651 9.125 7.206 10.482 27.384 61.15 24.651zM385.42 177.2c-1.362-8.498-17.28-19.383-18.637-23.458 4.075-.398 4.657-5.268 2.912-7.008-1.362-1.342-4.662-.596-6.406 1.193-1.749 2.137-3.494 7.157 2.132 11.431 5.825 4.274 13.205 12.027 15.536 17.842M214.38 234.5c11.063-3.33 25.043-1.74 34.75-2.733M232.44 218.2c11.451-2.535 25.043 0 34.943 0M260.2 201.85c11.451-2.087 25.043.596 34.943.596M283.49 184.01c11.65-.944 24.85 3.33 34.556 4.473M313 171.98c11.644-.398 24.656 4.473 34.362 6.212M345.42 163.03c11.649 1.193 23.686 8.548 32.811 11.48"/></g><use xlink:href="#aq" transform="matrix(-1 0 0 1 832.761 0)"/><g stroke-linejoin="round" stroke="#000" stroke-linecap="round" stroke-width="3"><path d="M416.49 190.46c9.125 0 16.888 0 22.519-.745v-13.021c0-4.274 15.143-9.343 38.05-4.87 89.692 17.494 101.92 58.049 170.07 81.357.775.199 3.3.994 6.212 1.541 1.749-4.075 3.688-8.151 5.825-13.17 1.163-3.727 11.068-3.529 19.8.547 10.099 4.87 14.562 10.487 12.817 13.419-1.749 4.274-3.499 7.753-5.049 11.232 15.919 5.666 44.843 14.214 35.331 52.433-7.375-7.157-25.237-14.959-36.3-14.959-12.619 0-26.211-4.821-21.937-18.637-2.331-1.143-6.411-3.28-8.543-3.678-.388 1.193-.969 2.336-1.556 3.479-2.912 7.206-15.531 9.741-28.15 5.467-71.055-24.253-92.992-77.878-176.86-78.624v2.336c0 6.759-8.737 12.971-32.225 12.971-23.299 0-32.225-6.212-32.225-12.971v-2.336c-83.673.547-105.81 54.172-176.86 78.624-12.425 4.274-25.043 1.541-28.15-5.467-.393-1.143-.974-2.286-1.556-3.479-2.137.398-6.212 2.535-8.543 3.678 4.08 13.618-9.125 18.637-21.937 18.637-11.063 0-28.731 7.803-36.3 14.959-9.512-38.02 19.025-46.568 35.331-52.433-1.556-3.479-3.106-6.958-5.049-11.232-1.551-2.932 2.719-8.548 12.812-13.419 8.737-4.274 18.443-4.473 19.805-.547 2.137 4.821 3.881 8.896 5.825 13.17 2.912-.547 5.238-1.342 6.212-1.541 67.949-23.309 80.373-63.863 170.06-81.357 22.717-4.473 38.055.596 38.055 4.87v13.021c5.631.547 13.394.745 22.519.745zM393.78 189.71c-6.019-.596-9.512-1.938-9.512-4.274 0-5.815 9.512-3.877 9.512-8.747M165.27 253.58c3.494 8.349 7.962 19.035 12.037 28.13M156.73 257.85c3.494 8.151 10.099 22.116 12.037 27.931" fill="#fff"/><path d="M140.62 255.71c2.331 4.075 14.562-1.938 16.112 1.938 1.362 4.075-2.326 6.212-10.869 9.294M173.43 241.55c1.744 5.218-10.487 7.356-7.962 12.027 1.556 3.081 8.349 2.137 13.786.944" fill="none"/><path d="M384.06 185.24v26.987M439.2 189.71c5.825-.596 9.512-1.938 9.512-4.274 0-5.815-9.512-3.877-9.512-8.747M667.7 253.58c-3.494 8.349-7.962 19.035-12.037 28.13M676.24 257.85c-3.499 8.151-10.099 22.116-12.037 27.931" fill="#fff"/><path d="M692.36 255.71c-2.331 4.075-14.562-1.938-16.112 1.938-1.362 4.075 2.326 6.212 10.869 9.294M659.55 241.55c-1.744 5.218 10.487 7.356 7.962 12.027-1.556 3.081-8.349 2.137-13.787.944" fill="none"/><path d="M448.91 185.24v26.987" fill="#fff"/></g><path d="M203.96 281.77l-7.523-26.884 9.371-2.622c2.396-.67 4.175-.908 5.338-.712 1.162.196 2.24.797 3.234 1.804.994 1.007 1.723 2.342 2.188 4.005.588 2.103.558 3.937-.091 5.503-.649 1.566-1.857 2.774-3.623 3.624 1.145.418 2.143.946 2.994 1.585.851.639 2.109 1.859 3.773 3.66l4.145 4.496-5.3 1.483-4.864-4.947c-1.753-1.79-2.912-2.893-3.477-3.308-.564-.415-1.107-.659-1.628-.731-.521-.072-1.295.036-2.322.323l-.917.257 3.14 11.223zm.097-16.756l3.301-.924c2.017-.564 3.276-1.012 3.777-1.343.501-.331.847-.814 1.038-1.447.192-.634.163-1.397-.087-2.289-.239-.856-.603-1.496-1.091-1.919-.488-.424-1.052-.651-1.694-.683-.453-.018-1.676.252-3.669.809l-3.484.975zM228.67 274.55l-12.392-25.016 15.221-7.54 2.096 4.232-11.092 5.494 2.747 5.546 10.307-5.106 2.088 4.215-10.307 5.106 3.373 6.809 11.467-5.68 2.088 4.215zM248.81 263.92l-15.128-23.463 6.242-4.024c2.326-1.5 3.919-2.368 4.778-2.605 1.376-.373 2.816-.207 4.321.499s2.86 1.993 4.064 3.86c1.094 1.696 1.69 3.325 1.79 4.884.099 1.56-.182 2.881-.843 3.965-.661 1.083-2.165 2.382-4.513 3.895l-2.545 1.641 5.706 8.851zm-8.695-21.991l4.293 6.658 2.145-1.383c1.44-.929 2.354-1.661 2.741-2.198.387-.536.575-1.175.566-1.917-.01-.741-.262-1.496-.758-2.264-.502-.779-1.096-1.325-1.781-1.638-.685-.313-1.337-.399-1.956-.257-.618.142-1.739.736-3.36 1.781zM250.55 229.77l3.778-2.639 8.66 12.395c1.345 1.925 2.268 3.147 2.769 3.664.872.893 1.815 1.395 2.83 1.507 1.015.112 2.038-.192 3.068-.912.874-.611 1.451-1.304 1.73-2.08.279-.776.278-1.58-.003-2.414-.281-.834-1.217-2.39-2.809-4.669l-8.845-12.66 3.793-2.65 8.398 12.02c2.145 3.07 3.532 5.404 4.16 7.001.628 1.598.664 3.222.106 4.874-.557 1.652-1.778 3.135-3.662 4.452-1.956 1.367-3.729 2.083-5.318 2.147-1.589.065-3.076-.368-4.461-1.297s-3.274-3.106-5.666-6.53zM269.82 215.83l7.703-4.957c2.103-1.353 3.705-2.113 4.807-2.278 1.101-.165 2.258.049 3.471.643 1.212.594 2.214 1.504 3.004 2.732.728 1.132 1.135 2.315 1.221 3.551s-.131 2.33-.65 3.283c1.403-.329 2.744-.211 4.022.356s2.37 1.554 3.277 2.964c1.099 1.708 1.617 3.417 1.554 5.125s-.566 3.063-1.508 4.061c-.656.694-2.403 1.954-5.243 3.782l-6.55 4.215zm6.39 1.413l3.494 5.429 2.562-1.649c1.537-.989 2.47-1.627 2.799-1.914.593-.533.931-1.146 1.012-1.84.082-.694-.128-1.431-.63-2.21-.447-.694-.961-1.159-1.544-1.396-.583-.237-1.124-.269-1.625-.098-.501.172-1.776.917-3.826 2.236zm6.008 9.336l4.04 6.277 3.603-2.319c1.58-1.017 2.541-1.752 2.883-2.206.342-.454.509-1.022.5-1.703-.008-.682-.253-1.396-.734-2.143-.495-.769-1.065-1.296-1.71-1.583-.645-.287-1.297-.35-1.957-.19-.659.16-1.822.776-3.487 1.848zM302.8 227.14l-12.79-24.557 4.087-2.129 10.617 20.386 10.201-5.313 2.173 4.172zM320.09 217.81l-10.795-25.746 4.25-1.782 10.795 25.746zM338.51 201.14l4.784.377c.226 3.192-.232 5.711-1.376 7.558-1.144 1.846-2.853 3.11-5.127 3.79-2.858.855-5.505.448-7.939-1.222-2.804-1.931-4.852-5.055-6.144-9.372-1.365-4.561-1.405-8.438-.121-11.632 1.118-2.773 3.186-4.611 6.202-5.513 2.457-.735 4.763-.511 6.92.672 1.536.839 2.929 2.35 4.179 4.534l-3.996 2.587c-.713-1.364-1.601-2.307-2.666-2.83-1.064-.523-2.162-.615-3.293-.277-1.618.484-2.726 1.584-3.326 3.301-.599 1.717-.413 4.199.558 7.446 1.008 3.369 2.224 5.616 3.647 6.74s2.931 1.448 4.525.972c1.168-.349 2.042-1.105 2.622-2.265.58-1.161.764-2.783.552-4.866zM368.64 204.55l-4.942.924-3.131-5.866-8.985 1.68-.688 6.58-4.829.903 3.629-29.079 4.811-.899zm-10.397-9.292l-4.993-9.605-1.147 10.753zM397.3 193.94l8.208.624c2.075.158 3.623.508 4.644 1.052 1.021.543 1.934 1.399 2.74 2.566.806 1.167 1.395 2.647 1.769 4.439.373 1.793.461 3.992.263 6.598-.178 2.347-.599 4.368-1.262 6.063-.663 1.695-1.441 3.018-2.333 3.969-.892.951-1.935 1.639-3.129 2.064-1.194.425-2.699.568-4.515.43l-8.449-.642zm4.135 4.936l-1.367 17.992 3.372.256c1.445.11 2.502.053 3.172-.169.669-.222 1.232-.593 1.687-1.111.456-.518.864-1.36 1.226-2.525.362-1.165.616-2.717.764-4.657.153-2.014.135-3.611-.055-4.794-.19-1.182-.553-2.129-1.089-2.841-.536-.712-1.216-1.204-2.04-1.478-.618-.208-1.829-.381-3.632-.518zM420.77 222.48l-1.723-27.188 16.542-1.049.292 4.599-12.054.764.382 6.027 11.201-.71.29 4.581-11.201.71.469 7.4 12.462-.79.29 4.581zM471.17 196.46l4.378 1.965c-.861 3.082-2.14 5.3-3.838 6.654s-3.733 1.969-6.103 1.845c-2.979-.156-5.334-1.43-7.065-3.822-1.991-2.761-2.869-6.392-2.633-10.893.249-4.754 1.515-8.419 3.799-10.995 1.986-2.235 4.551-3.27 7.695-3.106 2.561.134 4.658 1.121 6.29 2.961 1.165 1.307 1.968 3.199 2.411 5.675l-4.634 1.092c-.213-1.524-.732-2.711-1.558-3.562-.826-.851-1.829-1.307-3.008-1.368-1.686-.088-3.1.575-4.242 1.99s-1.802 3.815-1.979 7.2c-.184 3.512.205 6.037 1.167 7.574.962 1.538 2.273 2.35 3.934 2.437 1.217.064 2.294-.353 3.231-1.251.937-.898 1.656-2.364 2.156-4.397zM481.46 193.93c.794-3.23 1.926-5.772 3.396-7.627 1.469-1.855 3.1-3.104 4.893-3.748 1.793-.644 3.786-.696 5.981-.157 3.181.782 5.474 2.634 6.88 5.556 1.406 2.921 1.557 6.626.453 11.113-1.116 4.537-3.048 7.82-5.796 9.85-2.417 1.798-5.221 2.304-8.414 1.519-3.218-.791-5.483-2.532-6.795-5.221-1.493-3.073-1.692-6.835-.597-11.286zm4.668.952c-.767 3.119-.751 5.604.049 7.454.8 1.851 2.075 2.991 3.826 3.422 1.763.434 3.414.019 4.953-1.243s2.703-3.496 3.492-6.701c.773-3.144.781-5.606.023-7.388-.758-1.781-2.049-2.897-3.874-3.345-1.825-.449-3.497-.056-5.016 1.178s-2.67 3.442-3.453 6.622zM505.57 205.27l4.363 1.272c-.926 3.482-.092 5.774 2.502 6.875 1.286.546 2.439.639 3.46.279s1.743-1.036 2.164-2.029c.248-.584.33-1.136.247-1.654-.084-.518-.332-1.02-.747-1.506-.414-.486-1.501-1.468-3.26-2.945-1.578-1.318-2.652-2.477-3.22-3.477-.569-1-.879-2.128-.932-3.385s.176-2.487.687-3.691c.595-1.402 1.449-2.529 2.562-3.381 1.113-.852 2.352-1.326 3.717-1.422s2.871.205 4.519.904c2.478 1.051 4.127 2.544 4.947 4.478.82 1.934.741 4.169-.239 6.705l-4.356-1.58c.398-1.458.404-2.594.018-3.406-.386-.812-1.152-1.461-2.297-1.947-1.145-.486-2.129-.621-2.952-.405-.823.216-1.385.681-1.688 1.394-.298.701-.268 1.41.09 2.128.358.717 1.426 1.791 3.205 3.222 1.876 1.527 3.145 2.834 3.807 3.922.662 1.088 1.015 2.279 1.059 3.573s-.262 2.713-.916 4.255c-.947 2.232-2.43 3.816-4.448 4.753s-4.488.785-7.409-.455c-5.165-2.192-6.793-6.351-4.883-12.478zM527.08 225.29l11.3-20.255-5.937-3.312 2.301-4.124 15.882 8.86-2.301 4.124-5.92-3.303-11.3 20.255zM556.83 243.82l-4.205-2.756 1.804-6.4-7.645-5.011-5.053 4.27-4.109-2.693 22.758-18.462 4.093 2.683zm-1.064-13.904l3.051-10.386-8.275 6.962zM566.04 250.48l15.933-22.924 7.99 5.554c2.043 1.42 3.36 2.64 3.949 3.661.589 1.02.812 2.234.669 3.642-.144 1.408-.708 2.82-1.693 4.238-1.246 1.793-2.68 2.938-4.301 3.435-1.621.497-3.321.335-5.101-.485.407 1.149.636 2.255.686 3.317.05 1.063-.09 2.809-.419 5.24l-.825 6.059-4.519-3.141.715-6.901c.263-2.492.375-4.088.336-4.787-.039-.7-.197-1.273-.474-1.721-.277-.447-.853-.975-1.728-1.584l-.782-.543-6.651 9.57zm12.979-10.599l2.815 1.956c1.72 1.196 2.867 1.881 3.441 2.056.574.175 1.167.134 1.777-.121.611-.256 1.181-.764 1.709-1.525.507-.73.769-1.418.785-2.063.016-.646-.168-1.226-.553-1.741-.275-.361-1.262-1.132-2.961-2.313l-2.971-2.065zM584.91 263.5l15.362-23.31 3.848 2.536-15.362 23.31zM610.21 266.99l3.024 3.726c-2.157 2.364-4.298 3.768-6.424 4.213-2.126.444-4.219.077-6.28-1.102-2.59-1.481-4.119-3.679-4.587-6.594-.534-3.362.318-6.999 2.555-10.911 2.364-4.133 5.145-6.834 8.343-8.105 2.78-1.101 5.536-.87 8.269.693 2.226 1.273 3.654 3.099 4.282 5.477.451 1.691.317 3.742-.404 6.153l-4.629-1.112c.497-1.456.568-2.75.213-3.882-.355-1.131-1.044-1.99-2.069-2.577-1.466-.838-3.027-.883-4.684-.134s-3.327 2.595-5.01 5.537c-1.746 3.053-2.536 5.482-2.37 7.288s.971 3.122 2.415 3.948c1.058.605 2.207.718 3.448.338 1.241-.38 2.543-1.365 3.905-2.954zM631.84 287.24l-4.709-1.762.349-6.64-8.561-3.203-3.988 5.279-4.602-1.722 18.13-23.024 4.584 1.715zm-4.102-13.327l.687-10.804-6.537 8.615zM307.368 23.483l-3.876 1.752-3.752-4.193-7.048 3.185.756 5.546-3.788 1.712-2.857-24.632 3.774-1.706zm-10.412-5.55l-6.033-6.893 1.217 9.069zM309.313 22.888l-7.399-22.434 5.555-1.832 8.383 14.202-1.742-16.393 5.57-1.837 7.399 22.434-3.443 1.136-5.824-17.659 2.167 18.865-3.581 1.181-9.451-16.463 5.824 17.659zM330.879 16.058l-5.652-22.936 13.955-3.439.956 3.88-10.17 2.506 1.253 5.085 9.45-2.329.952 3.864-9.45 2.329 1.538 6.242 10.513-2.591.952 3.864zM348.434 11.851l-4.196-23.247 8.103-1.463c2.072-.374 3.59-.432 4.553-.175.963.257 1.823.85 2.58 1.777.757.928 1.265 2.11 1.525 3.548.328 1.818.156 3.361-.515 4.629-.672 1.267-1.785 2.189-3.341 2.764.931.443 1.73.968 2.396 1.573.666.606 1.628 1.734 2.887 3.384l3.134 4.117-4.583.827-3.704-4.555c-1.334-1.648-2.223-2.669-2.665-3.064-.442-.395-.88-.643-1.313-.745-.433-.102-1.094-.073-1.982.088l-.793.143 1.752 9.704zm1.416-14.108l2.854-.515c1.744-.315 2.84-.592 3.288-.831.448-.239.778-.618.99-1.137.212-.519.248-1.164.109-1.935-.134-.74-.389-1.308-.766-1.704-.377-.396-.835-.633-1.373-.71-.38-.051-1.432.078-3.155.389l-3.013.544zM367.561 8.612l-3.203-23.404 3.863-.529 3.203 23.404zM386.67-2.294l3.909 1.098c-.336 2.687-1.13 4.703-2.382 6.048s-2.878 2.113-4.878 2.305c-2.513.241-4.643-.531-6.389-2.317-2.011-2.063-3.198-4.992-3.562-8.788-.385-4.01.218-7.235 1.808-9.675 1.383-2.118 3.401-3.305 6.053-3.559 2.16-.207 4.038.357 5.634 1.694 1.138.948 2.046 2.432 2.725 4.449l-3.742 1.492c-.368-1.249-.951-2.178-1.748-2.787-.798-.609-1.694-.865-2.688-.77-1.422.136-2.523.868-3.302 2.194-.779 1.327-1.032 3.417-.758 6.272.284 2.962.924 5.027 1.921 6.194s2.196 1.683 3.596 1.549c1.027-.098 1.876-.582 2.548-1.45.672-.868 1.091-2.185 1.256-3.949zM412.051 5.091l-4.251.17-1.905-5.294-7.728.309-1.38 5.425-4.154.166 6.592-23.904 4.138-.165zm-7.57-9.051l-3.006-8.652-2.275 8.863zM434.358-3.129l3.735 1.593c-.68 2.621-1.727 4.518-3.142 5.69-1.415 1.172-3.127 1.724-5.134 1.657-2.523-.085-4.535-1.126-6.037-3.122-1.728-2.305-2.528-5.363-2.399-9.174.136-4.026 1.149-7.146 3.041-9.361 1.645-1.922 3.798-2.838 6.461-2.749 2.169.073 3.958.875 5.368 2.406 1.006 1.087 1.715 2.675 2.129 4.763l-3.903.997c-.204-1.286-.662-2.282-1.374-2.989-.712-.707-1.568-1.077-2.566-1.11-1.428-.048-2.614.535-3.558 1.75-.944 1.215-1.464 3.256-1.561 6.122-.1 2.974.269 5.104 1.106 6.39.838 1.286 1.96 1.952 3.367 2 1.031.035 1.935-.335 2.714-1.11.778-.774 1.364-2.026 1.755-3.754zM441.195 5.91l2.042-23.533 14.319 1.242-.345 3.981-10.434-.905-.453 5.217 9.696.841-.344 3.965-9.696-.841-.556 6.405 10.788.936-.344 3.965zM459.202 7.557l3.343-23.385 3.764.538 5.616 16.738 2.232-15.616 3.605.515-3.343 23.385-3.892-.556-5.541-16.353-2.18 15.249zM482.743 11.316l3.863-19.242-5.64-1.132.787-3.918 15.087 3.029-.787 3.918-5.624-1.129-3.863 19.242zM494.713 13.784l6.036-22.838 7.961 2.104c2.036.538 3.435 1.127 4.199 1.768.764.641 1.293 1.542 1.586 2.702.293 1.161.253 2.447-.12 3.86-.472 1.786-1.281 3.112-2.426 3.976-1.145.864-2.544 1.228-4.197 1.091.656.796 1.158 1.609 1.505 2.439.347.831.742 2.26 1.183 4.288l1.097 5.057-4.502-1.19-1.428-5.694c-.513-2.058-.893-3.359-1.128-3.904-.226-.545-.522-.955-.87-1.231-.348-.276-.966-.529-1.834-.759l-.779-.206-2.52 9.534zm7.253-12.183l2.804.741c1.714.453 2.824.666 3.331.639.507-.027.966-.231 1.378-.611.412-.38.718-.949.918-1.707.192-.727.201-1.35.027-1.868-.174-.518-.489-.926-.943-1.224-.323-.208-1.331-.535-3.024-.982l-2.96-.782zM530.077 24.562l-4.023-1.382.143-5.624-7.315-2.512-3.252 4.557-3.932-1.35 14.805-19.891 3.917 1.345zm-3.776-11.179l.333-9.154-5.331 7.437zM532.07 25.433l9.405-21.458 3.571 1.565-7.807 17.812 8.914 3.907-1.598 3.645z"/></g></svg>