<svg xmlns="http://www.w3.org/2000/svg" height="900" width="1575" xmlns:xlink="http://www.w3.org/1999/xlink" viewBox="-157.5 0 315 180"><title>Flag of Iran</title><path fill="#239f40" d="M-157.5 0h315v180h-315z"/><path fill="#FFF" d="M-157.5 60h315v60h-315z"/><path fill="#da0000" d="M-157.5 120h315v60h-315z"/><g id="e"><g id="d"><g id="c" transform="translate(0 55.1)" stroke="#FFF" stroke-linecap="square" fill="none"><path id="a" d="M-12.6-4.2h16.8m-16.8 5.6v-2.8h5.6v2.8h5.6v-2.8h-2.8m8.4 2.8h-2.8v-2.8h5.6v-2.8m0 2.8v2.8h5.6v-5.6m-2.8 0v5.6m-19.6 0h.001"/><path id="b" d="M-12.6 4.5h11.2m2.8 0h11.2"/><use xlink:href="#a" transform="translate(0 72.6)" height="180" width="315"/><use xlink:href="#b" transform="translate(0 60.8)" height="180" width="315"/></g><use xlink:href="#c" transform="translate(28)" height="180" width="315"/></g><use xlink:href="#d" transform="translate(-56)" height="180" width="315"/></g><use xlink:href="#e" transform="translate(112)" height="180" width="315"/><use xlink:href="#c" transform="translate(-84)" height="180" width="315"/><use xlink:href="#d" transform="translate(-140)" height="180" width="315"/><g fill="#da0000"><path d="M9.166 73.916s16.28 12.732 4.313 31.029c11.271-6.888 12.244-25.829-4.313-31.029zM0 72.107c-2.592 2.922-7.044.017-5.514-3.166 2.679 4.8 5.514.922 5.514.922s2.835 3.879 5.514-.922c1.531 3.183-2.922 6.088-5.514 3.166zM0 111.764l-1.861-2.435s-4.383 1.461-10.158-.557c4.731 0 7.375-.835 8.349-1.322 0 0-10.715-5.774-10.506-17.532.626-11.897 6.957-15.515 6.957-15.515s-11.271 16.419 5.287 30.142l-.731-16.976v-12.471c.939-.226 2.661-2.209 2.661-2.209s1.722 1.983 2.661 2.209v12.471l-.731 16.976c16.558-13.723 5.287-30.143 5.287-30.143s6.331 3.618 6.957 15.515c.209 11.758-10.506 17.532-10.506 17.532.974.487 3.618 1.322 8.349 1.322-5.775 2.018-10.158.557-10.158.557l-1.861 2.435zM-9.165 73.916s-16.28 12.732-4.313 31.029c-11.271-6.888-12.245-25.829 4.313-31.029z"/></g></svg>