<svg xmlns="http://www.w3.org/2000/svg" height="400" width="600" version="1" xmlns:xlink="http://www.w3.org/1999/xlink"><path fill="#f00" d="M240 400h360v-400h-360v400z"/><path fill="#060" d="M0 400h240v-400h-240v400z"/><path fill-rule="evenodd" fill="#ff0" d="M318.24 262.04c-30.21-.91-168.74-87.38-169.69-101.15l7.65-12.757c13.741 19.966 155.36 104.06 169.27 101.08l-7.23 12.823"/><path fill-rule="evenodd" fill="#ff0" d="M154.59 146.4c-2.709 7.294 36.15 31.318 82.903 59.754s87.065 46.006 90.053 43.486c.182-.325 1.47-2.541 1.352-2.522-.561.845-1.924 1.109-4.051.497-12.63-3.643-45.575-18.763-86.374-43.506-40.798-24.743-76.294-47.542-81.812-57.232-.383-.671-.657-1.894-.601-2.847h-.135l-1.176 2.051-.161.322.001-.002zm164.36 116.03c-.513.93-1.468.962-3.283.761-11.3-1.251-45.589-17.925-86.161-42.213-47.212-28.262-86.204-54.011-81.968-60.744l1.151-2.035.227.071c-3.804 11.405 76.948 57.576 81.702 60.522 46.724 28.947 86.114 45.851 89.601 41.457l-1.268 2.181"/><path stroke-linejoin="round" d="M154.59 146.4c-2.71 7.294 36.149 31.318 82.903 59.754 46.752 28.434 87.065 46.006 90.053 43.486.183-.325 1.47-2.541 1.352-2.523-.56.844-1.923 1.11-4.051.497-12.631-3.643-45.575-18.765-86.374-43.506-40.798-24.743-76.294-47.544-81.811-57.232-.384-.671-.657-1.896-.601-2.849l-.134-.002-1.175 2.053-.161.322h-.001zm164.36 116.04c-.512.93-1.468.96-3.282.761-11.3-1.251-45.589-17.925-86.162-42.213-47.21-28.26-86.2-54.01-81.97-60.74l1.151-2.035.227.071c-3.804 11.405 76.948 57.578 81.702 60.522 46.724 28.947 86.115 45.851 89.601 41.458l-1.268 2.181v-.002z" stroke="#000" stroke-linecap="round" stroke-width=".573" fill="none"/><path fill-rule="evenodd" fill="#ff0" d="M240.17 169.23c30.237-.239 67.55-4.132 89.023-12.69l-4.627-7.517c-12.692 7.025-50.21 11.644-84.652 12.335-40.736-.375-69.49-4.168-83.897-13.835l-4.367 8.005c26.484 11.207 53.623 13.587 88.52 13.703"/><path fill-rule="evenodd" fill="#ff0" d="M330.44 156.71c-.739 1.182-14.744 6.01-35.374 9.573-13.987 2.132-32.234 3.955-55.004 3.978-21.633.02-39.305-1.52-52.685-3.333-21.656-3.396-32.833-8.12-36.966-9.788.395-.786.649-1.339 1.03-2.073 11.895 4.738 23.124 7.594 36.279 9.618 13.291 1.8 30.75 3.362 52.277 3.34 22.664-.021 40.709-1.983 54.616-4.052 21.155-3.414 32.711-7.805 34.334-9.844l1.494 2.579v.002zm-4.062-7.624c-2.293 1.841-13.718 5.893-33.819 9.103-13.415 1.924-30.472 3.645-52.265 3.666-20.704.02-37.619-1.375-50.486-3.251-20.414-2.664-31.278-7.474-35.197-8.876.39-.674.787-1.344 1.194-2.015 3.049 1.535 13.534 5.793 34.227 8.724 12.721 1.802 29.66 3.146 50.262 3.125 21.69-.02 38.553-1.776 51.883-3.687 20.205-2.78 31.077-7.947 32.728-9.243l1.473 2.453"/><path stroke-linejoin="round" d="M330.44 156.71c-.739 1.182-14.743 6.011-35.373 9.575-13.988 2.132-32.234 3.955-55.004 3.978-21.633.02-39.305-1.52-52.684-3.333-21.656-3.396-32.833-8.12-36.965-9.79.395-.786.649-1.337 1.03-2.071 11.895 4.736 23.124 7.592 36.279 9.616 13.291 1.8 30.75 3.362 52.276 3.342 22.664-.023 40.709-1.984 54.616-4.053 21.155-3.412 32.711-7.803 34.334-9.842l1.494 2.579h-.002zm-4.06-7.623c-2.293 1.841-13.718 5.893-33.819 9.103-13.415 1.923-30.472 3.643-52.265 3.664-20.704.02-37.619-1.375-50.485-3.249-20.414-2.666-31.279-7.475-35.196-8.878.39-.674.787-1.342 1.194-2.014 3.048 1.535 13.533 5.791 34.226 8.722 12.72 1.804 29.661 3.148 50.262 3.127 21.69-.022 38.553-1.776 51.883-3.688 20.205-2.78 31.077-7.947 32.728-9.241l1.473 2.451v.002z" stroke="#000" stroke-linecap="round" stroke-width=".573" fill="none"/><path fill-rule="evenodd" fill="#ff0" d="M140.88 205.66c18.598 10.003 59.905 15.044 98.994 15.391 35.591.056 81.958-5.502 99.297-14.69l-.477-10.012c-5.425 8.477-55.113 16.609-99.206 16.276-44.093-.333-85.038-7.143-98.687-15.959l.079 8.991"/><path fill-rule="evenodd" fill="#ff0" d="M340.12 204.22l.001 2.389c-2.606 3.114-18.946 7.824-39.436 11.14-15.596 2.391-35.928 4.194-61.262 4.194-24.069 0-43.262-1.714-58.148-4.001-23.528-3.425-38.579-9.425-41.6-11.216l.013-2.783c9.075 6.032 33.661 10.445 41.917 11.796 14.788 2.272 33.868 3.975 57.817 3.975 25.216 0 45.434-1.793 60.931-4.168 14.701-2.124 35.644-7.646 39.767-11.324v-.002zm.01-8.492l.001 2.389c-2.606 3.114-18.946 7.824-39.436 11.14-15.596 2.391-35.928 4.194-61.262 4.194-24.069 0-43.263-1.714-58.148-4.001-23.528-3.425-38.579-9.425-41.6-11.217l.012-2.783c9.076 6.032 33.661 10.447 41.917 11.796 14.788 2.272 33.868 3.976 57.817 3.976 25.216 0 45.434-1.792 60.932-4.169 14.701-2.124 35.644-7.646 39.767-11.324"/><path stroke-linejoin="round" d="M340.12 204.22l.001 2.387c-2.606 3.116-18.946 7.825-39.437 11.142-15.595 2.391-35.927 4.194-61.262 4.194-24.069 0-43.263-1.716-58.148-4.001-23.529-3.426-38.579-9.426-41.6-11.217l.013-2.785c9.075 6.033 33.661 10.447 41.917 11.798 14.788 2.27 33.868 3.973 57.817 3.973 25.216 0 45.434-1.791 60.931-4.166 14.701-2.124 35.644-7.646 39.767-11.324h.001zm.01-8.492l.001 2.387c-2.606 3.114-18.946 7.824-39.437 11.14-15.595 2.391-35.927 4.194-61.262 4.194-24.069 0-43.263-1.714-58.148-4.001-23.529-3.425-38.579-9.425-41.6-11.216l.013-2.785c9.075 6.032 33.661 10.447 41.917 11.796 14.788 2.272 33.868 3.976 57.817 3.976 25.216 0 45.434-1.792 60.931-4.169 14.701-2.124 35.644-7.646 39.767-11.324l.001.002z" stroke="#000" stroke-linecap="round" stroke-width=".573" fill="none"/><path fill-rule="evenodd" fill="#ff0" d="M239.79 260.32c-42.772-.255-79.421-11.659-87.16-13.544l5.643 8.834c13.67 5.75 49.424 14.32 81.927 13.371 32.504-.948 60.91-3.466 80.928-13.211l5.786-9.155c-13.642 6.425-60.068 13.639-87.125 13.705"/><path fill-rule="evenodd" fill="#ff0" d="M323.3 253.72c-.85 1.297-1.717 2.581-2.597 3.829-9.442 3.328-24.319 6.823-30.597 7.842-12.823 2.644-32.664 4.596-50.273 4.605-37.889-.555-68.905-7.974-83.496-14.301l-1.177-2.024.193-.304 1.997.774c25.948 9.282 55.091 12.985 82.697 13.652 17.538.062 35.095-2.01 49.291-4.549 21.772-4.362 30.575-7.65 33.276-9.14l.686-.385v.002zm5.016-8.277l.065.078c-.636 1.073-1.291 2.165-1.962 3.262-5.037 1.802-18.703 5.8-38.659 8.591-13.149 1.79-21.322 3.524-47.479 4.034-49.016-1.247-80.751-10.832-88.289-13.197l-1.117-2.141c28.406 7.415 57.421 12.592 89.408 13.121 23.931-.51 34.111-2.272 47.15-4.048 23.271-3.62 34.996-7.452 38.516-8.557l-.155-.198 2.523-.942"/><path stroke-linejoin="round" d="M323.3 253.72c-.85 1.299-1.717 2.582-2.596 3.829-9.442 3.329-24.319 6.824-30.597 7.844-12.824 2.642-32.665 4.594-50.274 4.603-37.89-.555-68.905-7.972-83.496-14.299l-1.177-2.024.192-.304 1.997.774c25.948 9.283 55.091 12.987 82.698 13.652 17.538.062 35.095-2.01 49.292-4.549 21.771-4.362 30.574-7.65 33.275-9.14l.687-.385h-.001zm5.017-8.275l.065.078c-.636 1.073-1.291 2.165-1.962 3.262-5.036 1.8-18.702 5.799-38.659 8.589-13.149 1.791-21.322 3.526-47.479 4.034-49.015-1.247-80.75-10.831-88.289-13.195l-1.117-2.143c28.406 7.415 57.422 12.592 89.408 13.121 23.931-.51 34.112-2.272 47.152-4.05 23.271-3.619 34.996-7.45 38.515-8.556l-.154-.199 2.523-.943-.002.002z" stroke="#000" stroke-linecap="round" stroke-width=".55" fill="none"/><path fill-rule="evenodd" fill="#ff0" d="M328.83 197.76c.139 28.137-14.26 53.386-25.858 64.525-16.408 15.759-38.163 25.896-63.569 26.363-28.37.521-55.12-17.974-62.295-26.099-14.028-15.885-25.449-36.057-25.815-63.243 1.738-30.709 13.793-52.1 31.268-66.769s40.743-21.813 60.121-21.302c22.358.59 48.475 11.558 66.521 33.332 11.823 14.266 16.943 29.748 19.627 53.193zm-89.186-96.342c54.485 0 99.296 44.338 99.296 98.703 0 54.364-44.811 98.704-99.296 98.704s-98.924-44.339-98.924-98.704 44.439-98.703 98.924-98.703"/><path stroke-linejoin="round" d="M239.91 101.08c54.534 0 99.011 44.483 99.011 99.022 0 54.538-44.478 99.02-99.011 99.02-54.534 0-99.011-44.481-99.011-99.02s44.478-99.022 99.011-99.022zm0 2.178c53.096 0 96.833 43.582 96.833 96.844 0 53.26-43.736 96.842-96.833 96.842-53.096 0-96.832-43.582-96.832-96.842s43.736-96.844 96.832-96.844z" stroke="#000" stroke-linecap="round" stroke-width=".573" fill="none"/><path stroke-linejoin="round" d="M239.99 109.31c49.731 0 90.693 40.821 90.693 90.704 0 49.884-40.963 90.703-90.693 90.703s-90.693-40.819-90.693-90.703c0-49.883 40.964-90.704 90.693-90.704zm0 2.178c48.537 0 88.515 39.839 88.515 88.525 0 48.685-39.979 88.524-88.515 88.524s-88.515-39.839-88.515-88.524c0-48.686 39.979-88.525 88.515-88.525z" stroke="#000" stroke-linecap="round" stroke-width=".573" fill="none"/><path fill-rule="evenodd" fill="#ff0" d="M243.12 99.531v1.094h-6.25v-1.063h-2.156v201.22h2.156v-.938h6.281v.969h2.156l-.031-201.28h-2.156z"/><path stroke-linejoin="round" d="M237.02 100.68h6.019" stroke="#000" stroke-linecap="round" stroke-width=".573" fill="none"/><path stroke-linejoin="round" d="M237.03 299.64h6.048" stroke="#000" stroke-linecap="round" stroke-width=".573" fill="none"/><path stroke-linejoin="round" d="M243.13 99.546h2.16l.018 201.25h-2.162l-.016-201.25h-.001zm-8.421.002h2.177l.003 201.25h-2.178v-201.25h-.001z" stroke="#000" stroke-linecap="round" stroke-width=".573" fill="none"/><path fill-rule="evenodd" fill="#ff0" d="M140.54 195.88c12.416-11.431 58.227-18.843 98.872-18.65 40.645.191 88.781 8.543 99.252 18.407l.105 8.525c-8.77-8.249-46.167-18.086-99.277-18.196-53.111-.11-91.672 9.998-98.954 18.417l.002-8.502"/><path stroke-linejoin="round" d="M140.52 196.28v7.357" stroke="#000" stroke-linecap="round" stroke-width=".572" fill="none"/><path stroke-linejoin="round" d="M338.99 196.58v7.355" stroke="#000" stroke-linecap="round" stroke-width=".572" fill="none"/><path fill-rule="evenodd" fill="#ff0" d="M239.95 184.77c23.383-.043 46.069 2.217 64.065 5.719 18.569 3.714 31.637 8.357 36.104 13.573l-.005 2.581c-5.388-6.489-22.973-11.247-36.518-13.966-17.859-3.476-40.394-5.718-63.647-5.674-24.538.044-47.387 2.37-64.984 5.801-14.12 2.802-32.952 8.37-35.303 13.858v-2.689c1.292-3.799 15.313-9.479 34.985-13.417 17.728-3.457 40.62-5.74 65.302-5.786h.001zm.01-8.492c23.383-.042 46.069 2.217 64.065 5.719 18.569 3.714 31.637 8.357 36.104 13.573l-.005 2.581c-5.388-6.489-22.973-11.247-36.518-13.966-17.859-3.476-40.394-5.718-63.647-5.674-24.538.044-47.277 2.37-64.875 5.801-13.626 2.583-33.227 8.37-35.412 13.858v-2.689c1.292-3.759 15.597-9.641 34.986-13.417 17.728-3.457 40.62-5.74 65.302-5.786"/><path stroke-linejoin="round" d="M239.95 184.77c23.383-.043 46.07 2.215 64.065 5.719 18.569 3.712 31.637 8.356 36.105 13.571l-.005 2.582c-5.388-6.49-22.973-11.248-36.518-13.968-17.858-3.474-40.393-5.717-63.647-5.674-24.538.046-47.387 2.37-64.984 5.803-14.12 2.802-32.951 8.368-35.302 13.858v-2.689c1.291-3.8 15.313-9.479 34.984-13.417 17.729-3.457 40.62-5.742 65.302-5.786zm.01-8.492c23.383-.042 46.07 2.217 64.065 5.719 18.569 3.714 31.637 8.356 36.105 13.571l-.005 2.582c-5.388-6.489-22.973-11.247-36.518-13.966-17.858-3.476-40.393-5.718-63.647-5.674-24.538.044-47.276 2.37-64.875 5.801-13.626 2.583-33.226 8.37-35.412 13.86v-2.691c1.291-3.759 15.597-9.641 34.985-13.417 17.729-3.457 40.62-5.74 65.302-5.786z" stroke="#000" stroke-linecap="round" stroke-width=".573" fill="none"/><path fill-rule="evenodd" fill="#ff0" d="M239.48 132.96c36.849-.184 68.99 5.152 83.695 12.685l5.364 9.279c-12.781-6.888-47.456-14.05-89.005-12.979-33.854.208-70.027 3.727-88.176 13.41l6.404-10.709c14.895-7.724 50.022-11.643 81.72-11.684"/><path stroke-linejoin="round" d="M324.11 147.15l3.65 5.861" stroke="#000" stroke-linecap="round" stroke-width=".574" fill="none"/><path fill-rule="evenodd" fill="#ff0" d="M239.97 140.62c21.017-.057 41.326 1.13 57.477 4.044 15.041 2.799 29.385 6.999 31.435 9.262l1.589 2.81c-4.988-3.257-17.4-6.884-33.339-9.906-16.007-3.008-36.301-4.005-57.201-3.95-23.722-.081-42.152 1.169-57.969 3.927-16.727 3.132-28.333 7.601-31.197 9.727l1.559-2.97c5.563-2.838 14.39-6.259 29.223-8.93 16.357-2.988 34.983-3.886 58.423-4.015h.001zm-.009-8.483c20.114-.055 39.972 1.066 55.452 3.851 12.209 2.375 24.283 6.087 28.703 9.387l2.326 3.697c-3.953-4.396-18.836-8.56-31.974-10.892-15.362-2.649-34.396-3.698-54.508-3.866-21.108.057-40.615 1.35-55.752 4.108-14.442 2.748-23.76 6.002-27.703 8.541l2.045-3.087c5.441-2.865 14.232-5.495 25.303-7.645 15.25-2.776 34.877-4.038 56.108-4.095"/><path stroke-linejoin="round" d="M239.97 140.62c21.017-.056 41.325 1.13 57.476 4.044 15.041 2.799 29.385 7.001 31.436 9.26l1.59 2.81c-4.988-3.257-17.401-6.884-33.339-9.906-16.006-3.008-36.3-4.005-57.2-3.95-23.722-.081-42.152 1.171-57.969 3.929-16.728 3.13-28.334 7.601-31.197 9.726l1.558-2.97c5.563-2.838 14.39-6.259 29.223-8.93 16.357-2.988 34.983-3.884 58.423-4.013h-.001zm-.009-8.484c20.113-.053 39.972 1.068 55.452 3.851 12.209 2.377 24.283 6.087 28.704 9.389l2.326 3.695c-3.954-4.395-18.836-8.559-31.974-10.892-15.361-2.649-34.395-3.698-54.508-3.866-21.108.059-40.615 1.352-55.752 4.108-14.441 2.748-23.76 6.002-27.703 8.543l2.045-3.087c5.441-2.865 14.232-5.495 25.303-7.646 15.249-2.776 34.876-4.036 56.108-4.095z" stroke="#000" stroke-linecap="round" stroke-width=".573" fill="none"/><path fill-rule="evenodd" fill="#ff0" d="M289.15 241.26c-18.218-3.401-36.469-3.895-49.217-3.745-61.407.72-81.244 12.609-83.665 16.209l-4.589-7.481c15.634-11.332 49.073-17.687 88.587-17.037 20.518.336 38.224 1.699 53.119 4.583l-4.236 7.473"/><path stroke-linejoin="round" d="M152.7 247.28l3.013 5.187" stroke="#000" stroke-linecap="round" stroke-width=".573" fill="none"/><path fill-rule="evenodd" fill="#ff0" d="M239.58 236.46c17.082.255 33.85.96 50.033 3.978l-1.172 2.069c-15.031-2.775-31.055-3.837-48.803-3.752-22.662-.175-45.585 1.941-65.541 7.668-6.297 1.751-16.721 5.801-17.785 9.146l-1.165-1.924c.335-1.977 6.636-6.079 18.413-9.388 22.858-6.546 44.239-7.649 66.019-7.799l-.001.002zm.775-8.596c17.698.331 35.975 1.149 53.74 4.668l-1.221 2.155c-16.041-3.186-31.369-4.247-52.414-4.57-22.735.04-46.85 1.663-68.778 8.037-7.079 2.062-19.297 6.52-19.705 10.048l-1.165-2.066c.265-3.206 10.842-7.388 20.358-10.156 22.096-6.424 46.275-8.076 69.186-8.117"/><path stroke-linejoin="round" d="M239.58 236.46c17.082.255 33.849.96 50.033 3.978l-1.172 2.069c-15.031-2.775-31.055-3.837-48.803-3.75-22.663-.177-45.585 1.939-65.541 7.667-6.297 1.752-16.721 5.801-17.784 9.146l-1.166-1.923c.336-1.977 6.636-6.081 18.414-9.39 22.858-6.546 44.239-7.649 66.019-7.799v.002zm.775-8.596c17.698.331 35.975 1.149 53.74 4.668l-1.221 2.154c-16.042-3.185-31.369-4.247-52.415-4.57-22.735.041-46.851 1.663-68.778 8.037-7.079 2.062-19.297 6.52-19.704 10.05l-1.166-2.066c.265-3.206 10.842-7.388 20.358-10.156 22.096-6.424 46.275-8.076 69.186-8.117z" stroke="#000" stroke-linecap="round" stroke-width=".55" fill="none"/><path fill-rule="evenodd" fill="#ff0" d="M156.9 144.52c30.419-.395 170.91 85.849 171.32 101.73l-8.704 13.341c-3.93-18.44-146.48-102.37-170-100.78l7.379-14.29"/><path stroke-linejoin="round" d="M327.58 247.38l-7.379 11.449" stroke="#000" stroke-linecap="round" stroke-width=".573" fill="none"/><path stroke-linejoin="round" d="M156.67 145.27l-6.86 12.72" stroke="#000" stroke-linecap="round" stroke-width=".573" fill="none"/><path fill-rule="evenodd" fill="#ff0" d="M148.65 158.3c5.647-3.829 47.139 14.654 90.555 40.832 43.301 26.254 84.678 55.921 80.943 61.475l-1.229 1.931-.564.446c.121-.088.743-.848-.061-2.906-1.845-6.07-31.195-29.491-79.894-58.895-47.475-28.31-87.041-45.371-90.997-40.495l1.247-2.387h-.001zm180.44 88.925c3.57-7.05-34.916-36.044-82.632-64.272-48.813-27.664-83.994-43.951-90.42-39.095l-1.429 2.597c-.011.145.052-.176.354-.41 1.169-1.02 3.105-.951 3.979-.967 11.066.166 42.668 14.709 87.005 40.128 19.428 11.316 82.071 51.491 81.833 62.789.017.971.08 1.169-.286 1.65l1.594-2.422"/><path stroke-linejoin="round" d="M148.65 158.29c5.646-3.829 47.139 14.655 90.555 40.834 43.301 26.254 84.677 55.921 80.942 61.473l-1.228 1.932-.564.445c.121-.086.743-.848-.061-2.906-1.845-6.07-31.195-29.491-79.894-58.895-47.475-28.309-87.041-45.371-90.997-40.494l1.247-2.389h-.001zm180.44 88.927c3.57-7.052-34.916-36.044-82.632-64.272-48.813-27.666-83.994-43.951-90.42-39.095l-1.428 2.599c-.012.143.052-.177.354-.41 1.169-1.02 3.105-.951 3.979-.967 11.065.166 42.667 14.709 87.006 40.128 19.428 11.315 82.071 51.491 81.832 62.789.017.971.08 1.171-.285 1.652l1.594-2.424v-.002z" stroke="#000" stroke-linecap="round" stroke-width=".573" fill="none"/><path fill-rule="evenodd" fill="#fff" d="M180.6 211.01c0 16.27 6.663 30.987 17.458 41.742 10.816 10.778 25.513 17.579 41.809 17.579 16.381 0 31.247-6.652 42.016-17.389 10.769-10.735 17.444-25.551 17.446-41.878h-.001v-79.189l-118.74-.141.012 79.276"/><path d="M180.6 211.01c0 16.271 6.663 30.987 17.457 41.742 10.815 10.778 25.512 17.579 41.809 17.579 16.381 0 31.247-6.652 42.016-17.389 10.769-10.735 17.443-25.552 17.446-41.88h-.002v-79.189l-118.74-.141.012 79.278h.002z" stroke="#000" stroke-width=".67" fill="none"/><path d="M182.82 211.12v.045c0 15.557 6.442 29.724 16.776 40.009 10.354 10.305 24.614 16.712 40.214 16.712 15.68 0 29.912-6.361 40.221-16.626s16.697-24.433 16.699-40.046h-.002v-76.824l-113.84-.02-.07 76.75m91.022-53.747l.004 48.889-.042 5.172h.001c0 1.363-.082 2.914-.24 4.233-.926 7.731-4.481 14.467-9.745 19.708-6.164 6.138-14.672 9.941-24.047 9.941-9.327 0-17.639-3.938-23.829-10.1-6.349-6.318-10.029-14.984-10.029-23.945l-.013-54.023 67.941.123" fill-rule="evenodd" fill="#f00"/><path d="M182.82 211.12v.045c0 15.557 6.441 29.724 16.775 40.009 10.354 10.305 24.614 16.712 40.214 16.712 15.681 0 29.912-6.361 40.222-16.626 10.308-10.265 16.697-24.433 16.699-40.044h-.002v-76.826l-113.84-.018-.07 76.748m91.022-53.747l.004 48.891-.041 5.172h.001c0 1.361-.082 2.912-.241 4.233-.925 7.729-4.48 14.467-9.745 19.708-6.164 6.136-14.671 9.941-24.047 9.941-9.327 0-17.639-3.938-23.829-10.1-6.35-6.32-10.03-14.986-10.03-23.947l-.013-54.023 67.94.123.002.002z" stroke="#000" stroke-width=".507" fill="none"/><use id="c" xlink:href="#a" transform="translate(-20.745 -.041)" height="400" width="600"/><use id="d" xlink:href="#b" transform="translate(-.067 51.8)" height="400" width="600"/><use xlink:href="#c" transform="translate(-20.799 .051)" height="400" width="600"/><use id="a" xlink:href="#d" transform="translate(20.818 -25.743)" height="400" width="600"/><path id="b" fill="#039" d="M232.63 176.39v.005c0 2.212.849 4.227 2.212 5.689 1.365 1.467 3.245 2.378 5.302 2.378 2.067 0 3.944-.905 5.303-2.365 1.358-1.459 2.202-3.472 2.202-5.693v-10.768l-14.992-.012-.027 10.766"/><g><use xlink:href="#e" transform="translate(10.608)" height="400" width="600"/><path fill-rule="evenodd" fill="#ff0" d="M190.19 154.43c.135-5.521 4.052-6.828 4.081-6.847.028-.018 4.231 1.408 4.217 6.899l-8.298-.051"/><path fill-rule="evenodd" fill="#ff0" d="M186.81 147.68l-.682 6.346 4.141.009c.04-5.249 3.975-6.122 4.07-6.103.089-.005 3.989 1.159 4.093 6.103h4.151l-.75-6.393-15.022.038"/><path d="M186.81 147.69l-.682 6.345 4.141.009c.04-5.249 3.974-6.122 4.069-6.103.089-.005 3.989 1.161 4.093 6.103h4.151l-.75-6.393-15.022.038v.002z" stroke="#000" stroke-width=".499" fill="none"/><path fill-rule="evenodd" fill="#ff0" d="M185.85 154.06h16.946c.356 0 .648.353.648.784 0 .429-.291.781-.648.781h-16.946c-.357 0-.649-.351-.649-.781 0-.431.292-.784.649-.784"/><path d="M185.85 154.06h16.946c.357 0 .649.353.649.784 0 .43-.292.781-.649.781h-16.946c-.357 0-.649-.351-.649-.781 0-.431.292-.784.649-.784z" stroke="#000" stroke-width=".499" fill="none"/><path fill-rule="evenodd" fill="#ff0" d="M192.01 154.03c.018-3.313 2.262-4.25 2.274-4.248.001 0 2.341.967 2.36 4.248h-4.633"/><path d="M192.01 154.03c.018-3.313 2.262-4.25 2.274-4.248.001 0 2.342.967 2.361 4.248h-4.634" stroke="#000" stroke-width=".497" fill="none"/><path fill-rule="evenodd" fill="#ff0" d="M186.21 145.06h16.245c.342 0 .623.317.623.705 0 .385-.28.705-.623.705h-16.245c-.342 0-.623-.318-.623-.705 0-.388.28-.705.623-.705"/><path d="M186.21 145.05h16.245c.342 0 .623.318.623.705 0 .387-.28.705-.623.705h-16.245c-.342 0-.623-.316-.623-.705 0-.386.28-.705.623-.705z" stroke="#000" stroke-width=".499" fill="none"/><path fill-rule="evenodd" fill="#ff0" d="M186.55 146.47h15.539c.327 0 .596.317.596.704 0 .388-.268.705-.596.705h-15.539c-.327 0-.595-.317-.595-.705 0-.387.268-.704.595-.704"/><path d="M186.55 146.47h15.538c.327 0 .595.317.595.704 0 .388-.268.705-.595.705h-15.538c-.327 0-.595-.317-.595-.705 0-.387.268-.704.595-.704z" stroke="#000" stroke-width=".499" fill="none"/><use xlink:href="#f" transform="translate(-5.279 -3.163)" height="400" width="600"/><path d="M191.57 135.88l1.227.002v.871h.895v-.891l1.257.004v.887h.898v-.891h1.258l-.002 2.012c0 .316-.254.52-.549.52h-4.411c-.296 0-.57-.237-.571-.527l-.003-1.988h.001z" stroke="#000" stroke-width=".5" fill="none"/><path fill-rule="evenodd" fill="#ff0" d="M196.19 138.57l.277 6.453-4.303-.016.285-6.451 3.742.015"/><path d="M196.19 138.57l.277 6.451-4.303-.016.285-6.452 3.741.017" stroke="#000" stroke-width=".499" fill="none"/><use id="f" xlink:href="#g" transform="translate(10.608)" height="400" width="600"/><use xlink:href="#h" transform="translate(10.609)" height="400" width="600"/><use xlink:href="#i" transform="translate(10.609 -.011)" height="400" width="600"/><path id="g" fill-rule="evenodd" fill="#ff0" d="M186.3 139.04l1.2.002v.871h.877v-.891l1.229.004v.887h.879v-.891l1.23.002-.002 2.012c0 .314-.249.519-.536.519h-4.317c-.29 0-.558-.235-.558-.527l-.002-1.987"/><path id="i" d="M186.3 139.04l1.199.003v.872h.877v-.893l1.229.004v.889h.879v-.893l1.23.002-.002 2.012c0 .314-.249.519-.536.519h-4.317c-.289 0-.558-.235-.559-.526l-.003-1.989h.001z" stroke="#000" stroke-width=".5" fill="none"/><path id="e" fill-rule="evenodd" fill="#ff0" d="M190.94 141.56l.131 3.478-4.126.002.116-3.479h3.879"/><path id="h" d="M190.94 141.56l.131 3.478-4.126.002.116-3.479h3.879-.001z" stroke="#000" stroke-width=".501" fill="none"/><path fill-rule="evenodd" d="M193.9 140.61c-.026-.627.877-.634.866 0v1.536h-.866v-1.536"/><use xlink:href="#j" transform="translate(10.641)" height="400" width="600"/><path id="j" fill-rule="evenodd" d="M188.57 142.84c-.003-.606.837-.618.826 0v1.187h-.826v-1.187"/></g><use xlink:href="#k" transform="translate(-45.205)" height="400" width="600"/><use id="k" xlink:href="#l" transform="translate(90.919 -46.32)" height="400" width="600"/><g id="l" transform="translate(0 46.32)"><use xlink:href="#e" transform="translate(10.608)" height="400" width="600"/><path fill-rule="evenodd" fill="#ff0" d="M190.19 154.43c.135-5.521 4.052-6.828 4.081-6.847.028-.018 4.231 1.408 4.217 6.899l-8.298-.051"/><path fill-rule="evenodd" fill="#ff0" d="M186.81 147.68l-.682 6.346 4.141.009c.04-5.249 3.975-6.122 4.07-6.103.089-.005 3.989 1.159 4.093 6.103h4.151l-.75-6.393-15.022.038"/><path d="M186.81 147.69l-.682 6.345 4.141.009c.04-5.249 3.974-6.122 4.069-6.103.089-.005 3.989 1.161 4.093 6.103h4.151l-.75-6.393-15.022.038v.002z" stroke="#000" stroke-width=".499" fill="none"/><path fill-rule="evenodd" fill="#ff0" d="M185.85 154.06h16.946c.356 0 .648.353.648.784 0 .429-.291.781-.648.781h-16.946c-.357 0-.649-.351-.649-.781 0-.431.292-.784.649-.784"/><path d="M185.85 154.06h16.946c.357 0 .649.353.649.784 0 .43-.292.781-.649.781h-16.946c-.357 0-.649-.351-.649-.781 0-.431.292-.784.649-.784z" stroke="#000" stroke-width=".499" fill="none"/><path fill-rule="evenodd" fill="#ff0" d="M192.01 154.03c.018-3.313 2.262-4.25 2.274-4.248.001 0 2.341.967 2.36 4.248h-4.633"/><path d="M192.01 154.03c.018-3.313 2.262-4.25 2.274-4.248.001 0 2.342.967 2.361 4.248h-4.634" stroke="#000" stroke-width=".497" fill="none"/><path fill-rule="evenodd" fill="#ff0" d="M186.21 145.06h16.245c.342 0 .623.317.623.705 0 .385-.28.705-.623.705h-16.245c-.342 0-.623-.318-.623-.705 0-.388.28-.705.623-.705"/><path d="M186.21 145.05h16.245c.342 0 .623.318.623.705 0 .387-.28.705-.623.705h-16.245c-.342 0-.623-.316-.623-.705 0-.386.28-.705.623-.705z" stroke="#000" stroke-width=".499" fill="none"/><path fill-rule="evenodd" fill="#ff0" d="M186.55 146.47h15.539c.327 0 .596.317.596.704 0 .388-.268.705-.596.705h-15.539c-.327 0-.595-.317-.595-.705 0-.387.268-.704.595-.704"/><path d="M186.55 146.47h15.538c.327 0 .595.317.595.704 0 .388-.268.705-.595.705h-15.538c-.327 0-.595-.317-.595-.705 0-.387.268-.704.595-.704z" stroke="#000" stroke-width=".499" fill="none"/><use xlink:href="#f" transform="translate(-5.279 -3.163)" height="400" width="600"/><path d="M191.57 135.88l1.227.002v.871h.895v-.891l1.257.004v.887h.898v-.891h1.258l-.002 2.012c0 .316-.254.52-.549.52h-4.411c-.296 0-.57-.237-.571-.527l-.003-1.988h.001z" stroke="#000" stroke-width=".5" fill="none"/><path fill-rule="evenodd" fill="#ff0" d="M196.19 138.57l.277 6.453-4.303-.016.285-6.451 3.742.015"/><path d="M196.19 138.57l.277 6.451-4.303-.016.285-6.452 3.741.017" stroke="#000" stroke-width=".499" fill="none"/><use xlink:href="#g" transform="translate(10.608)" height="400" width="600"/><use xlink:href="#h" transform="translate(10.609)" height="400" width="600"/><use xlink:href="#i" transform="translate(10.609 -.011)" height="400" width="600"/><path fill-rule="evenodd" fill="#ff0" d="M186.3 139.04l1.2.002v.871h.877v-.891l1.229.004v.887h.879v-.891l1.23.002-.002 2.012c0 .314-.249.519-.536.519h-4.317c-.29 0-.558-.235-.558-.527l-.002-1.987"/><path d="M186.3 139.04l1.199.003v.872h.877v-.893l1.229.004v.889h.879v-.893l1.23.002-.002 2.012c0 .314-.249.519-.536.519h-4.317c-.289 0-.558-.235-.559-.526l-.003-1.989h.001z" stroke="#000" stroke-width=".5" fill="none"/><path fill-rule="evenodd" fill="#ff0" d="M190.94 141.56l.131 3.478-4.126.002.116-3.479h3.879"/><path d="M190.94 141.56l.131 3.478-4.126.002.116-3.479h3.879-.001z" stroke="#000" stroke-width=".501" fill="none"/><path fill-rule="evenodd" d="M193.9 140.61c-.026-.627.877-.634.866 0v1.536h-.866v-1.536"/><use xlink:href="#j" transform="translate(10.641)" height="400" width="600"/><path fill-rule="evenodd" d="M188.57 142.84c-.003-.606.837-.618.826 0v1.187h-.826v-1.187"/></g><g transform="matrix(.707 .707 -.707 .707 240.44 -.495)"><use xlink:href="#e" transform="translate(10.608)" height="400" width="600"/><path fill-rule="evenodd" fill="#ff0" d="M190.19 154.43c.135-5.521 4.052-6.828 4.081-6.847.028-.018 4.231 1.408 4.217 6.899l-8.298-.051"/><path fill-rule="evenodd" fill="#ff0" d="M186.81 147.68l-.682 6.346 4.141.009c.04-5.249 3.975-6.122 4.07-6.103.089-.005 3.989 1.159 4.093 6.103h4.151l-.75-6.393-15.022.038"/><path d="M186.81 147.69l-.682 6.345 4.141.009c.04-5.249 3.974-6.122 4.069-6.103.089-.005 3.989 1.161 4.093 6.103h4.151l-.75-6.393-15.022.038v.002z" stroke="#000" stroke-width=".499" fill="none"/><path fill-rule="evenodd" fill="#ff0" d="M185.85 154.06h16.946c.356 0 .648.353.648.784 0 .429-.291.781-.648.781h-16.946c-.357 0-.649-.351-.649-.781 0-.431.292-.784.649-.784"/><path d="M185.85 154.06h16.946c.357 0 .649.353.649.784 0 .43-.292.781-.649.781h-16.946c-.357 0-.649-.351-.649-.781 0-.431.292-.784.649-.784z" stroke="#000" stroke-width=".499" fill="none"/><path fill-rule="evenodd" fill="#ff0" d="M192.01 154.03c.018-3.313 2.262-4.25 2.274-4.248.001 0 2.341.967 2.36 4.248h-4.633"/><path d="M192.01 154.03c.018-3.313 2.262-4.25 2.274-4.248.001 0 2.342.967 2.361 4.248h-4.634" stroke="#000" stroke-width=".497" fill="none"/><path fill-rule="evenodd" fill="#ff0" d="M186.21 145.06h16.245c.342 0 .623.317.623.705 0 .385-.28.705-.623.705h-16.245c-.342 0-.623-.318-.623-.705 0-.388.28-.705.623-.705"/><path d="M186.21 145.05h16.245c.342 0 .623.318.623.705 0 .387-.28.705-.623.705h-16.245c-.342 0-.623-.316-.623-.705 0-.386.28-.705.623-.705z" stroke="#000" stroke-width=".499" fill="none"/><path fill-rule="evenodd" fill="#ff0" d="M186.55 146.47h15.539c.327 0 .596.317.596.704 0 .388-.268.705-.596.705h-15.539c-.327 0-.595-.317-.595-.705 0-.387.268-.704.595-.704"/><path d="M186.55 146.47h15.538c.327 0 .595.317.595.704 0 .388-.268.705-.595.705h-15.538c-.327 0-.595-.317-.595-.705 0-.387.268-.704.595-.704z" stroke="#000" stroke-width=".499" fill="none"/><use xlink:href="#f" transform="translate(-5.279 -3.163)" height="400" width="600"/><path d="M191.57 135.88l1.227.002v.871h.895v-.891l1.257.004v.887h.898v-.891h1.258l-.002 2.012c0 .316-.254.52-.549.52h-4.411c-.296 0-.57-.237-.571-.527l-.003-1.988h.001z" stroke="#000" stroke-width=".5" fill="none"/><path fill-rule="evenodd" fill="#ff0" d="M196.19 138.57l.277 6.453-4.303-.016.285-6.451 3.742.015"/><path d="M196.19 138.57l.277 6.451-4.303-.016.285-6.452 3.741.017" stroke="#000" stroke-width=".499" fill="none"/><use xlink:href="#g" transform="translate(10.608)" height="400" width="600"/><use xlink:href="#h" transform="translate(10.609)" height="400" width="600"/><use xlink:href="#i" transform="translate(10.609 -.011)" height="400" width="600"/><path fill-rule="evenodd" fill="#ff0" d="M186.3 139.04l1.2.002v.871h.877v-.891l1.229.004v.887h.879v-.891l1.23.002-.002 2.012c0 .314-.249.519-.536.519h-4.317c-.29 0-.558-.235-.558-.527l-.002-1.987"/><path d="M186.3 139.04l1.199.003v.872h.877v-.893l1.229.004v.889h.879v-.893l1.23.002-.002 2.012c0 .314-.249.519-.536.519h-4.317c-.289 0-.558-.235-.559-.526l-.003-1.989h.001z" stroke="#000" stroke-width=".5" fill="none"/><path fill-rule="evenodd" fill="#ff0" d="M190.94 141.56l.131 3.478-4.126.002.116-3.479h3.879"/><path d="M190.94 141.56l.131 3.478-4.126.002.116-3.479h3.879-.001z" stroke="#000" stroke-width=".501" fill="none"/><path fill-rule="evenodd" d="M193.9 140.61c-.026-.627.877-.634.866 0v1.536h-.866v-1.536"/><use xlink:href="#j" transform="translate(10.641)" height="400" width="600"/><path fill-rule="evenodd" d="M188.57 142.84c-.003-.606.837-.618.826 0v1.187h-.826v-1.187"/></g><g transform="translate(90.85 46.321)"><use xlink:href="#e" transform="translate(10.608)" height="400" width="600"/><path fill-rule="evenodd" fill="#ff0" d="M190.19 154.43c.135-5.521 4.052-6.828 4.081-6.847.028-.018 4.231 1.408 4.217 6.899l-8.298-.051"/><path fill-rule="evenodd" fill="#ff0" d="M186.81 147.68l-.682 6.346 4.141.009c.04-5.249 3.975-6.122 4.07-6.103.089-.005 3.989 1.159 4.093 6.103h4.151l-.75-6.393-15.022.038"/><path d="M186.81 147.69l-.682 6.345 4.141.009c.04-5.249 3.974-6.122 4.069-6.103.089-.005 3.989 1.161 4.093 6.103h4.151l-.75-6.393-15.022.038v.002z" stroke="#000" stroke-width=".499" fill="none"/><path fill-rule="evenodd" fill="#ff0" d="M185.85 154.06h16.946c.356 0 .648.353.648.784 0 .429-.291.781-.648.781h-16.946c-.357 0-.649-.351-.649-.781 0-.431.292-.784.649-.784"/><path d="M185.85 154.06h16.946c.357 0 .649.353.649.784 0 .43-.292.781-.649.781h-16.946c-.357 0-.649-.351-.649-.781 0-.431.292-.784.649-.784z" stroke="#000" stroke-width=".499" fill="none"/><path fill-rule="evenodd" fill="#ff0" d="M192.01 154.03c.018-3.313 2.262-4.25 2.274-4.248.001 0 2.341.967 2.36 4.248h-4.633"/><path d="M192.01 154.03c.018-3.313 2.262-4.25 2.274-4.248.001 0 2.342.967 2.361 4.248h-4.634" stroke="#000" stroke-width=".497" fill="none"/><path fill-rule="evenodd" fill="#ff0" d="M186.21 145.06h16.245c.342 0 .623.317.623.705 0 .385-.28.705-.623.705h-16.245c-.342 0-.623-.318-.623-.705 0-.388.28-.705.623-.705"/><path d="M186.21 145.05h16.245c.342 0 .623.318.623.705 0 .387-.28.705-.623.705h-16.245c-.342 0-.623-.316-.623-.705 0-.386.28-.705.623-.705z" stroke="#000" stroke-width=".499" fill="none"/><path fill-rule="evenodd" fill="#ff0" d="M186.55 146.47h15.539c.327 0 .596.317.596.704 0 .388-.268.705-.596.705h-15.539c-.327 0-.595-.317-.595-.705 0-.387.268-.704.595-.704"/><path d="M186.55 146.47h15.538c.327 0 .595.317.595.704 0 .388-.268.705-.595.705h-15.538c-.327 0-.595-.317-.595-.705 0-.387.268-.704.595-.704z" stroke="#000" stroke-width=".499" fill="none"/><use xlink:href="#f" transform="translate(-5.279 -3.163)" height="400" width="600"/><path d="M191.57 135.88l1.227.002v.871h.895v-.891l1.257.004v.887h.898v-.891h1.258l-.002 2.012c0 .316-.254.52-.549.52h-4.411c-.296 0-.57-.237-.571-.527l-.003-1.988h.001z" stroke="#000" stroke-width=".5" fill="none"/><path fill-rule="evenodd" fill="#ff0" d="M196.19 138.57l.277 6.453-4.303-.016.285-6.451 3.742.015"/><path d="M196.19 138.57l.277 6.451-4.303-.016.285-6.452 3.741.017" stroke="#000" stroke-width=".499" fill="none"/><use xlink:href="#g" transform="translate(10.608)" height="400" width="600"/><use xlink:href="#h" transform="translate(10.609)" height="400" width="600"/><use xlink:href="#i" transform="translate(10.609 -.011)" height="400" width="600"/><path fill-rule="evenodd" fill="#ff0" d="M186.3 139.04l1.2.002v.871h.877v-.891l1.229.004v.887h.879v-.891l1.23.002-.002 2.012c0 .314-.249.519-.536.519h-4.317c-.29 0-.558-.235-.558-.527l-.002-1.987"/><path d="M186.3 139.04l1.199.003v.872h.877v-.893l1.229.004v.889h.879v-.893l1.23.002-.002 2.012c0 .314-.249.519-.536.519h-4.317c-.289 0-.558-.235-.559-.526l-.003-1.989h.001z" stroke="#000" stroke-width=".5" fill="none"/><path fill-rule="evenodd" fill="#ff0" d="M190.94 141.56l.131 3.478-4.126.002.116-3.479h3.879"/><path d="M190.94 141.56l.131 3.478-4.126.002.116-3.479h3.879-.001z" stroke="#000" stroke-width=".501" fill="none"/><path fill-rule="evenodd" d="M193.9 140.61c-.026-.627.877-.634.866 0v1.536h-.866v-1.536"/><use xlink:href="#j" transform="translate(10.641)" height="400" width="600"/><path fill-rule="evenodd" d="M188.57 142.84c-.003-.606.837-.618.826 0v1.187h-.826v-1.187"/></g><use xlink:href="#e" transform="matrix(.707 -.707 .707 .707 -27.965 266.76)" height="400" width="600"/><path fill-rule="evenodd" fill="#ff0" d="M208.22 248.98c-3.808-3.999-1.963-7.694-1.956-7.727.007-.033 3.987-1.997 7.86 1.896l-5.904 5.831"/><path fill-rule="evenodd" fill="#ff0" d="M201.06 246.59l4.006 4.97 2.934-2.922c-3.684-3.74-1.519-7.14-1.438-7.193.059-.067 3.64-2.001 7.21 1.421l2.935-2.935-5.051-3.99-10.595 10.649"/><path d="M201.06 246.6l4.004 4.968 2.934-2.922c-3.684-3.74-1.519-7.139-1.438-7.193.059-.067 3.641-2 7.21 1.421l2.935-2.935-5.051-3.991-10.596 10.649.001.001z" stroke="#000" stroke-width=".499" fill="none"/><path fill-rule="evenodd" fill="#ff0" d="M204.89 251.78l11.982-11.983c.252-.252.708-.209 1.013.096.303.303.347.758.094 1.011l-11.982 11.983c-.253.253-.707.211-1.012-.094-.305-.305-.348-.761-.095-1.013"/><path d="M204.89 251.78l11.983-11.983c.253-.253.708-.21 1.013.095.304.304.346.759.094 1.012l-11.983 11.983c-.253.253-.707.211-1.012-.094-.305-.305-.348-.761-.095-1.013z" stroke="#000" stroke-width=".499" fill="none"/><path fill-rule="evenodd" fill="#ff0" d="M209.22 247.4c-2.329-2.355-1.406-4.605-1.396-4.612.001-.001 2.339-.972 4.673 1.335l-3.276 3.276"/><path d="M209.22 247.4c-2.329-2.355-1.406-4.605-1.396-4.612.001-.001 2.34-.973 4.673 1.335l-3.277 3.277" stroke="#000" stroke-width=".497" fill="none"/><path fill-rule="evenodd" fill="#ff0" d="M198.77 245.16l11.487-11.487c.242-.242.664-.216.939.058.273.273.3.697.058.939l-11.487 11.487c-.242.242-.665.216-.939-.058-.274-.274-.3-.697-.058-.939"/><path d="M198.77 245.16l11.487-11.487c.242-.242.665-.215.939.058.274.274.3.697.058.939l-11.487 11.487c-.242.242-.664.217-.939-.058-.273-.273-.3-.697-.058-.939z" stroke="#000" stroke-width=".499" fill="none"/><path fill-rule="evenodd" fill="#ff0" d="M200.01 245.91l10.988-10.988c.231-.231.645-.198.919.076s.309.688.077.92l-10.988 10.988c-.231.231-.645.197-.919-.077s-.308-.687-.077-.919"/><path d="M200.01 245.91l10.987-10.987c.231-.231.645-.197.919.077s.309.688.077.919l-10.987 10.987c-.231.231-.645.197-.919-.077s-.308-.687-.077-.919z" stroke="#000" stroke-width=".499" fill="none"/><use xlink:href="#f" transform="matrix(.707 -.707 .707 .707 -41.435 275.76)" height="400" width="600"/><path d="M196.08 234.88l.869-.866.616.616.633-.633-.63-.63.891-.886.627.627.635-.635-.63-.63.889-.889 1.421 1.424c.223.223.188.548-.02.756l-3.119 3.119c-.21.21-.571.235-.776.031l-1.407-1.404.001-.001z" stroke="#000" stroke-width=".5" fill="none"/><path fill-rule="evenodd" fill="#ff0" d="M201.25 233.51l4.759 4.367-3.054 3.031-4.36-4.763 2.656-2.635"/><path d="M201.25 233.52l4.758 4.366-3.054 3.031-4.361-4.764 2.657-2.634" stroke="#000" stroke-width=".499" fill="none"/><use xlink:href="#g" transform="matrix(.707 -.707 .707 .707 -27.965 266.76)" height="400" width="600"/><use xlink:href="#h" transform="matrix(.707 -.707 .707 .707 -27.965 266.76)" height="400" width="600"/><use xlink:href="#i" transform="matrix(.707 -.707 .707 .707 -27.972 266.75)" height="400" width="600"/><path fill-rule="evenodd" fill="#ff0" d="M194.59 240.84l.85-.847.616.616.62-.62-.63-.63.872-.867.627.627.622-.622-.63-.63.871-.869 1.421 1.424c.222.222.191.543-.013.746l-3.053 3.053c-.205.205-.561.228-.768.022l-1.406-1.404"/><path d="M194.59 240.84l.85-.846.617.617.62-.62-.631-.631.872-.867.629.629.622-.622-.631-.631.871-.869 1.421 1.424c.222.222.191.543-.013.746l-3.053 3.053c-.205.205-.561.228-.767.024l-1.408-1.404.001-.001z" stroke="#000" stroke-width=".5" fill="none"/><path fill-rule="evenodd" fill="#ff0" d="M199.65 239.34l2.552 2.366-2.917 2.919-2.378-2.542 2.743-2.743"/><path d="M199.65 239.34l2.552 2.366-2.916 2.918-2.378-2.542 2.743-2.743-.001.001z" stroke="#000" stroke-width=".501" fill="none"/><path fill-rule="evenodd" d="M201.07 236.58c-.462-.425.171-1.068.612-.612l1.086 1.086-.612.612-1.086-1.086"/><use xlink:href="#j" transform="matrix(.707 -.707 .707 .707 -27.942 266.74)" height="400" width="600"/><path fill-rule="evenodd" d="M198.88 241.93c-.43-.427.155-1.029.584-.584l.839.839-.584.584-.839-.839"/><use xlink:href="#m" transform="translate(-20.819 25.744)" height="400" width="600"/><use xlink:href="#m" transform="translate(-29.056 25.754)" height="400" width="600"/><use xlink:href="#m" transform="translate(-24.976 21.575)" height="400" width="600"/><use xlink:href="#m" transform="translate(-20.81 17.581)" height="400" width="600"/><path id="m" fill="#fff" d="M265.13 202.46c-.818 0-1.486.667-1.486 1.485 0 .817.668 1.485 1.486 1.485s1.486-.667 1.486-1.485c0-.818-.668-1.485-1.486-1.485"/><use id="n" xlink:href="#m" transform="translate(-8.113 .012)" height="400" width="600"/><use id="o" xlink:href="#n" transform="translate(3.955 -4.18)" height="400" width="600"/><use id="p" xlink:href="#o" transform="translate(4.166 -3.995)" height="400" width="600"/><use id="q" xlink:href="#p" transform="translate(-8.139 -.007)" height="400" width="600"/><use id="r" xlink:href="#q" transform="translate(-12.617 8.13)" height="400" width="600"/><use id="s" xlink:href="#r" transform="translate(-8.309 .011)" height="400" width="600"/><use id="t" xlink:href="#s" transform="translate(4.152 -4.181)" height="400" width="600"/><use id="u" xlink:href="#t" transform="translate(4.167 -3.993)" height="400" width="600"/><use id="v" xlink:href="#u" transform="translate(-8.319 -.007)" height="400" width="600"/><use id="w" xlink:href="#v" transform="translate(-12.489 8.223)" height="400" width="600"/><use id="x" xlink:href="#w" transform="translate(-8.113 .01)" height="400" width="600"/><use id="y" xlink:href="#x" transform="translate(3.955 -4.18)" height="400" width="600"/><use xlink:href="#y" transform="translate(4.167 -3.993)" height="400" width="600"/><use xlink:href="#m" transform="translate(-29.056 17.574)" height="400" width="600"/><path fill="#ff0" d="M215.45 194.3c-.818 0-1.486.667-1.486 1.485 0 .817.668 1.485 1.486 1.485s1.486-.667 1.486-1.485-.668-1.485-1.486-1.485"/><use xlink:href="#m" transform="translate(-29.056 -34.226)" height="400" width="600"/><use xlink:href="#m" transform="translate(-20.917 -34.226)" height="400" width="600"/><use xlink:href="#m" transform="translate(-25.084 -30.225)" height="400" width="600"/><use xlink:href="#m" transform="translate(-20.925 -26.056)" height="400" width="600"/><use xlink:href="#m" transform="translate(-29.056 -26.045)" height="400" width="600"/><use xlink:href="#m" transform="translate(-49.674 -8.158)" height="400" width="600"/></svg>