<?xml version="1.0" encoding="utf-8"?>
<!-- Generator: Adobe Illustrator 15.1.0, SVG Export Plug-In . SVG Version: 6.00 Build 0)  -->
<!DOCTYPE svg PUBLIC "-//W3C//DTD SVG 1.1//EN" "http://www.w3.org/Graphics/SVG/1.1/DTD/svg11.dtd">
<svg version="1.1" id="Layer_1" xmlns="http://www.w3.org/2000/svg" xmlns:xlink="http://www.w3.org/1999/xlink" x="0px" y="0px"
	 width="612px" height="792px" viewBox="0 0 612 792" enable-background="new 0 0 612 792" xml:space="preserve">
<title  id="title3045">Logo-FAF-DZ</title>
<g id="Balon">
	<polygon id="polygon4" fill="#040404" points="180.164,302.814 245.83,353.026 223.366,435.613 135.936,435.613 110.609,358.752 	
		"/>
	<path id="path6" fill="#040404" d="M353.521,376.15c0,34.687-10.16,66.995-27.667,94.108c-1.877,2.895-3.82,5.722-5.854,8.498
		c-2.789,3.819-5.736,7.506-8.828,11.074l-12.063-24.71l-3.767-7.704l29.439-75.649l27.789-23.93
		c0.384,3.62,0.646,7.28,0.794,10.967C353.47,371.249,353.521,373.693,353.521,376.15z"/>
	<path id="path8" fill="#040404" d="M329.129,287.314L289,290.261l-63.215-56.159l-10.346-28.053
		c7.862,1.652,15.526,3.819,22.966,6.488c29.889,10.704,55.974,29.375,75.741,53.437
		C319.655,272.687,324.663,279.822,329.129,287.314z"/>
	<path id="path10" fill="#040404" d="M140.582,206.828l-6.409,36.298l-61.708,39.8l-5.907,3.806l-37.659,3.132
		c1.203-2.101,2.444-4.176,3.739-6.21c13.373-21.235,31.225-39.377,52.221-53.08c13.227-8.655,27.696-15.54,43.104-20.336
		C132.112,208.942,136.314,207.807,140.582,206.828z"/>
	<path id="path12" fill="#040404" d="M58.854,455.434l-7.677,37.606c-4.03-4.428-7.796-9.038-11.377-13.874l-0.013-0.027
		c-18.936-25.688-30.96-56.792-33.352-90.554v-0.014C6.145,384.462,6,380.326,6,376.15c0-5.655,0.264-11.231,0.806-16.742
		l30.907,20.375L58.854,455.434z"/>
	<path id="path14" fill="#040404" d="M248.407,535.825c-3.185,1.374-6.422,2.655-9.699,3.832c-2.736,0.991-5.51,1.901-8.312,2.762
		c-16.016,4.874-33.022,7.492-50.636,7.492s-34.62-2.617-50.635-7.492c-6.039-1.838-11.945-3.992-17.68-6.448l28.449-23.943
		l42.403,1.823l39.522,1.704L248.407,535.825z"/>
</g>
<g id="etoile">
	<path id="path17" fill="#EC252D" d="M540.089,358.669c-21.684,109.066-117.483,191.243-232.378,191.243
		c-23.996,0-47.16-3.581-69.002-10.253c3.277-1.179,6.514-2.459,9.699-3.833c24.274-10.452,45.707-26.281,62.765-45.998
		c3.092-3.566,6.038-7.253,8.828-11.073c2.035-2.775,3.979-5.602,5.854-8.497c8.838,1.109,17.852,1.691,27.007,1.691
		C434.748,471.951,505.653,425.848,540.089,358.669z"/>
	<polygon id="polygon19" fill="#EC252D" points="465.179,308.1 428.841,320.983 397.788,290.261 397.788,333.536 361.78,352.366 
		400.761,364.919 406.047,403.9 431.152,372.517 470.134,376.481 445.357,344.438 	"/>
	<path id="path21" fill="#EC252D" d="M274.438,75.879c-16.557,6.567-32.057,15.143-46.183,25.423
		c-10.783,7.836-20.772,16.676-29.81,26.375c-2.048,2.167-4.03,4.4-5.959,6.66c-7.214,8.404-13.742,17.376-19.504,26.851
		c-1.902,3.105-3.712,6.263-5.444,9.487c-4.625,8.602-8.655,17.561-12.011,26.837c-0.846,2.286-1.625,4.585-2.378,6.911
		c-4.242,0.647-8.431,1.453-12.566,2.405c-4.268,0.978-8.47,2.114-12.619,3.409c-15.407,4.797-29.876,11.681-43.104,20.336
		c4.123-11.43,9.091-22.438,14.813-32.982c5.114-9.369,10.822-18.367,17.099-26.917c2.338-3.198,4.757-6.33,7.241-9.408
		c7.822-9.633,16.372-18.631,25.582-26.93c2.59-2.352,5.246-4.638,7.955-6.858c12.078-9.963,25.159-18.75,39.06-26.177
		C220.419,88.564,246.663,79.803,274.438,75.879z"/>
</g>
<g id="g23">
	<polygon id="polygon25" fill="#0EA14A" points="579.584,195.333 567.243,210.753 553.486,210.753 553.486,228.75 531.247,255.745 
		531.247,195.28 	"/>
	<polygon id="polygon27" fill="#0EA14A" points="606,162.311 590.01,182.291 531.247,182.581 531.247,162.231 	"/>
	<polygon id="polygon29" fill="#0EA14A" points="518.694,195.266 518.694,256.566 497.988,256.566 497.988,213.423 485.66,213.423 
		472.632,231.577 454.701,256.566 428.894,256.566 448.054,231.551 448.067,231.551 475.896,195.228 	"/>
	<polygon id="polygon31" fill="#0EA14A" points="518.694,162.219 518.694,182.648 485.409,182.818 501.2,162.205 501.213,162.205 	
		"/>
	<polygon id="polygon33" fill="#0EA14A" points="487.801,162.193 471.933,182.886 412.983,183.175 412.983,162.113 	"/>
	<polygon id="polygon35" fill="#0EA14A" points="462.484,195.213 450.235,211.201 432.805,211.201 432.805,231.75 412.983,255.441 
		412.983,195.16 	"/>
	<path id="path37" fill="#0EA14A" d="M45.033,170.676h71.738c-6.277,8.549-11.985,17.548-17.099,26.917l-74.328,0.105
		L45.033,170.676z"/>
	<path id="path39" fill="#0EA14A" d="M401.092,231.498v25.066h-54.177c-14.31,0-22.596-5.88-31.713-13.214l-45.918-41.505
		c-7.056-5.616-19.701-4.083-24.366-4.453l-89.391,0.119c3.356-9.276,7.387-18.235,12.011-26.837h89.523
		c8.007,0.581,15.526,2.643,25.106,10.571l45.587,42.284c7.018,6.277,15.699,8.259,26.428,7.928L401.092,231.498z"/>
	<path id="path41" fill="#0EA14A" d="M71.514,134.338h78.08c-9.21,8.298-17.759,17.297-25.582,26.93l-72.201,0.119L71.514,134.338z"
		/>
	<path id="path43" fill="#0EA14A" d="M401.092,195.16v25.066h-40.963c-14.31,0-22.596-5.88-31.713-13.214l-45.918-41.505
		c-7.056-5.616-19.702-4.083-24.366-4.453l-85.15,0.132c5.762-9.475,12.29-18.447,19.504-26.851h77.79
		c8.007,0.581,15.526,2.643,25.106,10.571l45.587,42.284c7.018,6.277,15.699,8.259,26.428,7.928L401.092,195.16z"/>
	<path id="path45" fill="#0EA14A" d="M95.603,101.304h101.006c-13.901,7.426-26.982,16.213-39.06,26.177l-80.736-0.396
		L95.603,101.304z"/>
	<path id="path47" fill="#0EA14A" d="M401.092,162.113v25.08h-28.41c-14.31,0-22.595-5.88-31.713-13.214l-45.918-41.504
		c-7.056-5.616-19.701-4.083-24.366-4.453l-72.24-0.344c9.038-9.699,19.027-18.539,29.81-26.375h54.573
		c8.008,0.581,15.526,2.643,25.106,10.571l45.587,42.284c7.018,6.277,15.699,8.259,26.428,7.928L401.092,162.113z"/>
</g>
<g id="Algerie">
	<polygon id="polygon50" fill="#0EA14A" points="459.893,577.092 459.893,683.372 442.715,683.372 442.715,591.072 	"/>
	<polygon id="polygon52" fill="#0EA14A" points="246.49,577.092 246.49,683.372 229.313,683.372 229.313,591.072 	"/>
	<path id="path54" fill="#0EA14A" d="M420.912,577.092v101.985c0,2.814-1.651,4.295-3.634,4.295h-44.993l0.502,12.487
		c0,0-3.092-5.353-7.306-12.487h-74.091c-0.158,5.047-0.356,9.514-0.634,12.487c-0.158,1.73-0.29,5.351-1.096,6.896
		c-1.348,2.55-5.444,7.175-8.153,8.141c-2.695,0.962-8.773,1.004-11.456,0c-2.18-0.807-6.184-3.516-7.704-5.286
		c-2.207-2.563-6.831-11.668-6.831-11.668h20.045v-34.355l16.293-11.456c0,0,0,8.205-0.132,18.063h63.453
		c-4.003-6.515-7.796-12.487-10.241-15.856c-1.771-2.431-6.448-7.479-9.354-7.598c-1.996-0.08-7.162,4.955-7.162,4.955v-14.865
		c0,0,3.607-4.295,5.285-4.955c1.613-0.635,5.325-0.621,6.938,0c2.551,0.978,7.017,4.32,8.919,6.276
		c6.238,6.421,17.14,25.424,20.852,32.043h33.325v-75.121L420.912,577.092z"/>
	<ellipse id="ellipse56" fill="#0EA14A" cx="280.351" cy="615.155" rx="8.094" ry="8.424"/>
	<ellipse id="ellipse58" fill="#0EA14A" cx="347.41" cy="707.697" rx="8.094" ry="8.424"/>
	<path id="path60" fill="#0EA14A" d="M207.51,643.73v35.347c0,2.814-1.652,4.295-3.634,4.295h-63.268
		c-0.159,5.377-0.37,10.175-0.647,13.319c-0.159,1.73-0.304,5.338-1.11,6.885c-1.334,2.549-5.431,7.174-8.14,8.152
		c-2.695,0.964-8.773,0.991-11.456,0c-2.193-0.819-6.184-3.516-7.704-5.285c-2.207-2.564-6.832-11.682-6.832-11.682h20.045v-34.355
		l16.292-11.443c0,0-0.013,7.742-0.119,17.23h49.393v-8.919L207.51,643.73z"/>
	<path id="path62" fill="#0EA14A" d="M205.308,597.482v7.928h-11.671c0,0-1.453,1.818-1.543,3.854
		c-0.109,2.532,1.431,5.396,1.431,5.396h11.783v7.873h-24.997v-7.982l3.909,0.109c0,0-1.048-6.011-1.101-8.038
		c-0.037-1.444,0.373-4.425,1.101-5.671c0.676-1.155,2.533-3.139,4.074-3.469H205.308L205.308,597.482z"/>
</g>
</svg>
