<?xml version="1.0" encoding="utf-8"?>
<!-- Generator: Adobe Illustrator 15.1.0, SVG Export Plug-In . SVG Version: 6.00 Build 0)  -->
<!DOCTYPE svg PUBLIC "-//W3C//DTD SVG 1.1//EN" "http://www.w3.org/Graphics/SVG/1.1/DTD/svg11.dtd">
<svg version="1.1" id="Layer_1" xmlns="http://www.w3.org/2000/svg" xmlns:xlink="http://www.w3.org/1999/xlink" x="0px" y="0px"
	 width="612px" height="792px" viewBox="0 0 612 792" enable-background="new 0 0 612 792" xml:space="preserve">
<g>
	<path fill="#C4A006" d="M298.491,4.567c3.118-0.041,6.237-0.082,9.356-0.123c0.184,1.589,0.529,4.79,0.713,6.38
		c2.264,0.509,4.524,0.999,6.787,1.508c-0.366,4.158-1.019,8.418-3.954,11.659c3.344,4.362,6.728,8.765,8.684,13.962
		c-3.323,3.057-6.339,6.441-8.744,10.272c5.625,2.772,10.558,6.666,14.716,11.354c7.726-3.384,17.284-5.544,24.765-0.408
		c8.704,5.625,10.886,16.775,9.887,26.417c4.32-0.632,7.947,0.917,10.436,4.484c5.055-6.38,8.765-14.656,16.428-18.325
		c8.439-2.14,19.141,1.529,22.095,10.355c3.507,8.968-0.876,18.201-3.485,26.782c4.811,1.163,10.05,3.242,9.071,9.254
		c-8.438,3.139-14.309,10.742-16.531,19.303c-6.299-0.693-7.48,6.319-11.251,9.661c-4.076,2.609-8.643,4.26-13.004,6.339
		c2.425,3.933,4.871,7.867,7.337,11.802c-5.34,2.955-8.885,7.887-13.065,12.127c-11.453,7.481-25.6,8.398-38.646,11.17
		c-26.395,1.713-53.504,2.12-79.166-5.258c-5.178-1.651-12.087-2.751-13.004-9.274c-3.22-2.039-6.502-3.995-9.783-5.952
		c2.099-3.668,4.199-7.379,6.257-11.088c-4.688-2.202-9.641-3.69-14.716-4.729c-3.771-9.886-12.332-16.388-18.385-24.745
		c-2.772-3.975-7.297-6.054-11.169-8.744c3.139-3.607,7.622-4.953,12.188-5.687c-2.915-6.747-8.093-13.575-5.932-21.341
		c1.814-13.29,18.691-21.666,30.125-14.023c5.035,4.627,8.643,10.559,12.78,15.94c0.958-4.852,5.177-7.583,10.049-6.319
		c-1.386-7.766-4.423-17.081,1.508-23.767c7.114-9.03,20.648-8.846,29.495-2.507c4.444-4.872,9.417-9.274,14.777-13.126
		c-2.853-3.445-5.646-6.93-8.377-10.497c2.792-5.198,6.053-10.151,9.682-14.818c-1.284-0.123-3.894-0.387-5.198-0.51
		c-0.02-3.079-0.041-6.177-0.041-9.254C296.167,12.761,297.655,8.766,298.491,4.567L298.491,4.567z"/>
	<path fill="#C4A006" d="M259.54,39.359c7.093-5.074,13.595,8.031,5.421,10.519C258.642,53.2,253.322,42.376,259.54,39.359
		L259.54,39.359z"/>
	<path fill="#C4A006" d="M341.172,39.564c7.013-5.055,13.351,7.684,5.504,10.701C339.928,53.24,334.996,42.825,341.172,39.564
		L341.172,39.564z"/>
	<path fill="#C4A006" d="M275.743,43.457c4.016-2.569,10.028,1.121,8.907,5.972c0.143,5.769-9.355,7.114-11.19,1.855
		C271.789,48.817,273.032,44.599,275.743,43.457L275.743,43.457z"/>
	<path fill="#C4A006" d="M324.928,44.333c5.789-5.319,13.98,5.198,7.317,9.417C326.395,58.989,318.507,48.654,324.928,44.333
		L324.928,44.333z"/>
	<path fill="#C4A006" d="M355.379,43.967c6.216-6.502,14.961,5.442,7.42,9.478C356.948,57.684,350.508,48.674,355.379,43.967
		L355.379,43.967z"/>
	<path fill="#C4A006" d="M243.661,45.984c3.383-3.22,9.824-1.733,10.313,3.261c1.244,4.892-4.952,9.254-9.05,6.216
		C241.479,53.852,241.439,48.674,243.661,45.984L243.661,45.984z"/>
	<path fill="#C4A006" d="M379.838,54.504c4.321-3.873,11.599,1.63,9.214,6.767c-0.856,4.485-7.176,5.117-10.131,2.446
		C376.882,61.027,376.761,56.461,379.838,54.504L379.838,54.504z"/>
	<path fill="#C4A006" d="M223.258,56.338c6.542-2.976,11.7,8.214,4.851,11.007C220.975,71.381,215.35,58.989,223.258,56.338
		L223.258,56.338z"/>
	<path fill="#C4A006" d="M365.979,56.318c4.993-2.629,11.046,3.364,8.071,8.256c-1.938,4.158-8.092,4.097-10.499,0.408
		C362.41,62.066,362.371,57.439,365.979,56.318L365.979,56.318z"/>
	<path fill="#C4A006" d="M396.124,55.911c2.669-2.121,7.827-1.346,9.028,2.181c2.365,3.771-1.182,9.029-5.501,8.622
		C394.187,66.999,391.803,58.867,396.124,55.911L396.124,55.911z"/>
	<path fill="#C4A006" d="M206.483,57.867c7.379-3.872,12.78,8.459,4.973,11.231C204.587,71.686,200.103,61.271,206.483,57.867
		L206.483,57.867z"/>
	<path fill="#C4A006" d="M237.016,57.786c6.543-4.444,12.943,6.992,6.115,10.437C236.648,72.481,230.065,61.434,237.016,57.786
		L237.016,57.786z"/>
	<path fill="#FFFFFF" d="M290.398,66.429c3.853-9.335,14.268-0.245,20.994-4.791c1.753,2.079,3.507,4.158,5.258,6.238
		c-2.261,5.809-4.89,11.556-5.665,17.794c-1.366-2.365-2.426-5.279-5.238-6.278c-3.324-0.632-5.483,2.405-8.093,3.791
		C295.025,77.863,289.42,72.767,290.398,66.429L290.398,66.429z"/>
	<path fill="#C4A006" d="M410.248,64.125c7.156-5.666,13.922,7.95,5.628,10.417C409.494,77.618,404.665,67.712,410.248,64.125
		L410.248,64.125z"/>
	<path fill="#C4A006" d="M300.345,65.878c2.956-1.794,7.317-0.694,8.623,2.608c1.896,3.526-0.918,9.009-5.177,8.439
		C297.797,77.761,295.331,68.629,300.345,65.878L300.345,65.878z"/>
	<path fill="#C4A006" d="M190.198,67.998c5.299-5.523,14.165,3.424,8.315,8.519C193.458,82.877,183.919,72.95,190.198,67.998
		L190.198,67.998z"/>
	<path fill="#FFFFFF" d="M259.661,77.986c-1.548-5.381,5.036-9.642,9.785-7.889c12.882,3.281,19.608,17.04,20.402,29.392
		c-6.624,0.979-13.249,2.019-19.873,2.896C265.96,94.556,260.701,86.934,259.661,77.986L259.661,77.986z"/>
	<path fill="#FFFFFF" d="M330.533,72.013c5.38-5.014,15.96-3.485,18.446,3.853c1.467,9.05-0.226,19.283-6.972,25.927
		c-7.257,0.794-14.573-1.773-21.85-2.365C319.545,89.4,322.358,78.495,330.533,72.013L330.533,72.013z"/>
	<path fill="#C4A006" d="M365.896,70.749c7.298-4.219,12.72,8.234,5.057,10.905C364.143,84.915,359.415,73.46,365.896,70.749
		L365.896,70.749z"/>
	<path fill="#C4A006" d="M235.406,74.623c2.528-3.058,8.337-2.466,9.682,1.447c2.61,4.036-1.814,9.966-6.482,8.438
		C233.917,84.528,232.002,77.496,235.406,74.623L235.406,74.623z"/>
	<path fill="#C4A006" d="M416.588,80.839c6.504-5.177,13.941,6.278,6.664,9.987C417.036,95.352,410.637,84.773,416.588,80.839
		L416.588,80.839z"/>
	<path fill="#C4A006" d="M185.999,82.469c4.504-1.957,9.498,3.037,7.663,7.604c-1.284,4.626-8.479,5.584-10.721,1.304
		C180.759,88.381,182.329,83.346,185.999,82.469L185.999,82.469z"/>
	<path fill="#FFFFFF" d="M372.072,109.17c4.361-8.805,8.784-18.508,17.407-23.909c4.77-1.101,10.477,3.934,9.742,8.989
		c-0.979,8.254-5.952,15.348-11.598,21.178C382.386,113.492,377.168,111.475,372.072,109.17L372.072,109.17z"/>
	<path fill="#FFFFFF" d="M208.093,96.371c-0.958-6.155,6.604-11.272,11.985-7.95c8.663,4.525,13.147,14.431,14.513,23.726
		c-3.914,1.367-7.644,4.444-11.883,4.098C215.594,111.862,209.867,104.625,208.093,96.371L208.093,96.371z"/>
	<path fill="#FFFFFF" d="M306.155,91.397c0.977-0.795,2.934-2.386,3.892-3.18c-0.243,2.812-0.487,5.625-0.733,8.438
		c-3.057,0.204-6.114,0.449-9.152,0.694c-0.204-2.365-0.407-4.729-0.591-7.073C301.222,90.541,304.503,91.112,306.155,91.397
		L306.155,91.397z"/>
	<path fill="#FFFFFF" d="M252.283,94.333c1.019,2.079,2.058,4.137,3.118,6.216c-3.771,1.06-7.521,2.141-11.271,3.18
		c-1.081-2.14-2.16-4.26-3.261-6.38C245.23,99.979,249.858,98.979,252.283,94.333L252.283,94.333z"/>
	<path fill="#FFFFFF" d="M357.275,94.516c3.077,1.345,6.256,2.446,9.578,3.038c-0.916,2.017-1.813,4.015-2.688,6.033
		c-2.428-1.264-4.852-2.548-7.258-3.812C357.009,98.47,357.172,95.84,357.275,94.516L357.275,94.516z"/>
	<path fill="#C4A006" d="M412.715,99.041c5.769-4.688,13.514,3.301,8.623,8.867C415.814,113.981,406.621,104.584,412.715,99.041
		L412.715,99.041z"/>
	<path fill="#C4A006" d="M186.141,100.508c3.485-2.752,9.947-1.039,10.09,3.853c1.589,5.972-7.869,9.294-10.824,4.28
		C183.471,106.154,184.083,102.709,186.141,100.508L186.141,100.508z"/>
	<path fill="#FFFFFF" d="M294.821,109.579c5.523-0.123,6.624,8.458,0.714,9.03C289.95,119.301,289.033,110.17,294.821,109.579
		L294.821,109.579z"/>
	<path fill="#FFFFFF" d="M317.121,109.314c4.993-0.877,7.48,7.093,2.404,8.683C313.655,120.28,310.944,110.598,317.121,109.314
		L317.121,109.314z"/>
	<path fill="#FFFFFF" d="M270.261,113.798c4.605-4.219,10.313,3.913,5.299,7.093C271.361,124.214,265.715,116.958,270.261,113.798
		L270.261,113.798z"/>
	<path fill="#FFFFFF" d="M339.216,112.86c5.645-2.018,8.479,7.684,2.345,8.642C336.279,122.787,334.038,114.694,339.216,112.86
		L339.216,112.86z"/>
	<path fill="#FFFFFF" d="M245.149,120.768c1.731-1.467,3.607-2.771,5.442-4.096c1.61,2.446,5.075,4.994,2.772,8.132
		C250.368,129.024,244.354,125.294,245.149,120.768L245.149,120.768z"/>
	<path fill="#FFFFFF" d="M359.883,120.035c5.197-4.586,9.969,5.911,4.017,7.562C359.436,129.594,355.359,122.44,359.883,120.035
		L359.883,120.035z"/>
	<path fill="#FFFFFF" d="M227.437,126.272c5.442-3.547,9.375,7.521,2.894,7.847C225.235,135.995,222.789,128.188,227.437,126.272
		L227.437,126.272z"/>
	<path fill="#FFFFFF" d="M380.553,130.002c2.832-4.708,10.619,0.428,7.255,4.933C384.852,140.112,376.882,134.507,380.553,130.002
		L380.553,130.002z"/>
	<path fill="#FFFFFF" d="M296.167,143.006c3.404-2.181,6.808-4.342,10.211-6.543c3.567,2.161,7.095,4.403,10.579,6.706
		c-3.445,2.874-7.072,5.504-10.802,8.01C302.791,148.489,299.448,145.778,296.167,143.006L296.167,143.006z"/>
	<path fill="#FFFFFF" d="M332.774,138.074c8.173,1.529,16.286,3.322,24.377,5.178c-0.447,2.486-0.917,4.994-1.365,7.5
		c-8.273-1.183-16.407-3.058-24.561-4.912C331.611,143.903,332.389,140.01,332.774,138.074L332.774,138.074z"/>
	<path fill="#FFFFFF" d="M253.832,145.656c8.01-2.12,16.041-4.159,24.092-6.094c0.53,2.161,1.06,4.322,1.61,6.482
		c-7.887,2.099-15.694,4.443-23.501,6.767C255.3,150.426,254.565,148.04,253.832,145.656L253.832,145.656z"/>
	<path fill="#C4A006" d="M444.145,148.856c9.417-4.526,21.301-4.831,30.168,1.142c12.332,7.745,18.345,22.155,30.575,29.962
		c-4.445-9.457-7.849-19.323-11.028-29.27c10.538,2.609,23.542,2.935,30.574,12.475c6.42,11.598,9.294,24.745,13.432,37.28
		c2.854-10.068,3.629-20.892-0.121-30.859c12.207,3.22,22.072,14.084,23.683,26.661c2.039,14.818-5.053,29.31-2.058,44.148
		c3.24-6.808,2.895-15.124,7.95-21.055c4.116-5.523,9.702-9.641,15.347-13.473c2.446,6.542,4.811,13.534,3.405,20.607
		c-3.139,17.754-17.429,31.308-19.771,49.347c7.663-8.703,16.796-16.265,28.007-19.832c4.341,16.245-5.769,31.409-15.982,43.047
		c-6.032,7.318-14.431,13.575-15.734,23.644c10.6-10.211,20.546-21.381,33.387-28.882c0.265,7.419,0.143,15.145-3.077,22.014
		c-8.032,18.181-25.296,30.574-32.47,49.265c8.581-9.275,19.018-18.916,32.204-19.996c-0.528,6.481-1.528,13.045-4.442,18.936
		c-9.051,19.547-28.212,31.919-37.975,51.019c10.354-8.439,21.626-16.265,34.917-19.139c-2.814,28.291-32.797,40.357-45.148,63.491
		c10.395-4.77,21.157-9.293,32.838-9.293c-1.244,7.947-3.854,15.796-8.949,22.136c-13.799,17.813-35.834,26.6-50.039,44.025
		c11.657-4.442,23.767-8.907,36.525-7.581c-2.813,12.596-11.658,23.013-22.482,29.656c-16.081,10.15-35.282,17.202-46.085,33.854
		c13.105-4.218,26.844-5.747,40.561-5.664c-10.518,23.215-34.752,35.261-57.274,44.087c-6.543,2.019-11.985,6.258-16.673,11.129
		c14.472-3.852,29.595-4.179,44.454-3.078c-3.914,10.415-11.577,19.283-21.811,23.848c-20.34,9.804-46.981,10.579-60.658,31.004
		c14.879-0.063,30.065-1.225,43.783-7.461c-0.734,11.21-9.948,18.874-18.957,24.133c-18.568,10.436-42.069,2.261-60.17,13.961
		c14.086,3.385,28.494,8.337,43.108,4.975c-4.687,12.697-17.854,20.423-30.858,21.707c-17.264,1.632-34.242-2.977-51.14-5.747
		c-7.787-1.855-14.859,2.895-21.81,5.605c17.53,10.7,31.654,26.681,41.602,44.535c-1.062,5.341-6.157,8.745-9.581,12.657
		c-8.315-13.961-13.187-30.776-26.579-41.069c-4.524-3.344-8.499-8.071-13.493-10.377c-12.046,8.907-21.667,20.689-30.737,32.53
		c-3.547,4.302-5.728,9.459-7.746,14.617c-3.424-3.465-5.992-7.624-7.644-12.189c9.295-15.104,21.953-27.599,35.527-38.829
		c-20.832-6.36-41.153,9.009-61.882,2.63c-10.599-3.282-22.034-6.239-29.921-14.574c13.676-8.112,29.819-9.784,45.392-9.54
		c-4.953-3.974-10.314-7.868-16.612-9.272c-14.309,1.914-30.391,6.438-43.619-1.715c-7.97-6.114-15.735-12.88-21.382-21.277
		c14.39-0.164,28.801-1.51,43.15,0.061c-4.769-6.706-10.354-13.127-17.794-16.896c-7.582-4.342-16.734-1.692-24.825-4.24
		c-18.875-5.279-33.122-19.752-46.209-33.551c17.979,7.318,38.361,3.222,56.033,11.516c-9.946-14.96-28.006-21.768-45.372-22.379
		c-19.364-6.258-32.124-24.724-38.157-43.355c14.533,4.975,29.555,8.48,43.884,14.146c-4.81-14.737-20.26-20.934-33.632-25.602
		c-22.034-7.011-34.813-29.065-40.235-50.284c11.721,9.438,27.395,9.845,40.398,16.675c-11.475-17.959-36.383-19.099-48.673-36.18
		c-6.829-10.132-14.023-20.975-14.146-33.673c13.616,11.517,29.718,19.363,45.82,26.702c-2.079-5.729-4.75-11.415-9.355-15.532
		c-12.067-11.373-30.187-15.573-39.217-30.27c-6.706-11.801-9.314-25.396-12.128-38.522c13.799,10.068,26.885,21.057,40.623,31.186
		c-2.018-24.378-28.271-33.713-40.664-51.792c-7.256-9.641-5.768-22.197-4.443-33.387c10.619,9.824,20.75,20.199,31.735,29.637
		c1.346-15.818-14.41-22.931-24.397-31.716c-11.169-9.03-10.599-24.786-11.7-37.769c6.808,6.481,14.167,12.494,22.584,16.754
		c-2.527-15.857-18.793-23.97-23.542-38.748c-1.55-8.133-1.244-16.51-1.345-24.745c7.338,8.908,17.244,14.981,25.967,22.359
		c-2.079-17.569-14.797-32.306-14.43-50.325c-0.184-6.053,2.792-11.456,5.666-16.55c3.934,5.157,7.807,10.375,11.944,15.368
		c1.244-13.574,1.569-28.229,9.682-39.848c4.301-6.767,11.496-10.905,18.936-13.391c-2.12,8.5-4.158,17.141-3.75,25.967
		c7.277-12.658,12.658-27.17,24.521-36.444c5.014-4.26,11.435-6.156,17.815-7.053c-3.384,12.393-7.583,24.684-14.981,35.303
		c15.979-8.663,20.994-28.556,36.525-37.646c7.929-4.913,17.51-3.119,26.151-1.631c-3.954,7.746-8.887,14.921-14.187,21.81
		c10.844-4.117,21.79-10.579,33.877-8.458c12.677,1.957,21.279,12.698,27.781,22.869c-10.497,6.42-23.155,3.099-33.692-1.385
		c-9.152-4.016-19.242-5.83-29.127-3.648c9.559,4.911,18.263,11.454,28.393,15.225c-4.341,2.507-8.826,5.3-14.023,5.401
		c-14.391,0.408-26.438-9.682-40.664-10.252c-5.217-0.408-9.946,2.018-14.512,4.219c10.109,2.324,19.791,6.218,28.82,11.292
		c-12.901,10.66-30.084,4.341-45.066,6.299c-6.034,0.489-10.864,4.402-14.879,8.622c8.051-0.367,16.265-1.019,24.092,1.447
		c-5.116,14.471-21.219,17.896-32.511,25.845c-5.462,3.465-8.031,9.662-9.355,15.736c7.358-7.175,13.982-16.143,24.705-18.284
		c3.139,29.188-27.334,49.53-22.809,78.901c7.521-12.718,14.329-26.64,26.681-35.485c6.074,17.732-2.181,35.73-11.007,50.875
		c-6.155,9.498-8.133,21.178-6.97,32.307c4.647-15.206,11.148-30.146,22.359-41.703c6.91,7.888,5.83,19.425,4.036,29.025
		c-3.628,19.119-18.711,36.893-11.821,57.132c5.646-12.005,12.372-23.521,16.244-36.281c6.503,11.129,9.926,25.336,5.524,37.872
		c-3.445,10.966-10.334,20.872-11.496,32.511c-0.672,6.196,1.692,12.128,4.851,17.325c2.649-16.368,10.395-31.207,14.94-47.044
		c7.379,7.174,9.478,17.917,10.11,27.781c0.551,16.368-4.096,32.267-7.256,48.165c-1.549,6.828,0.286,13.82,2.507,20.261
		c1.019,2.467,1.773,5.87,4.872,6.36c-3.465-4.505-0.265-9.907,0.632-14.656c3.628-10.457,7.338-21.259,5.483-32.492
		c9.458,5.933,15.022,16.064,18.895,26.214c6.869,21.444-10.884,43.762,0.183,64.513c1.305-13.454,7.358-25.806,8.725-39.237
		c11.536,6.726,17.712,19.873,18.649,32.815c1.63,13.719-1.916,27.272-2.629,40.889c2.507,8.764,8.581,15.958,14.472,22.726
		c-1.651-15.715-5.341-32.041,0.183-47.43c14.635,13.39,23.828,33.243,22.075,53.261c-0.754,12.269,0.407,26.619,10.416,35.159
		c-0.999-7.686-4.26-15.186-3.2-23.054c1.121-9.273,2.996-18.446,4.464-27.681c7.174,3.792,13.126,9.949,15.511,17.836
		c5.28,15.818,1.203,33.408,7.97,48.858c2.446,6.012,7.46,10.355,12.597,14.085c-5.667-16.165-9.01-33.389-6.36-50.509
		c7.949,4.116,12.372,12.128,17.814,18.854c11.232,14.124,9.335,34.304,20.546,48.429c4.219,5.687,11.659,6.95,16.938,11.312
		c12.128-5.972,26.007-13.125,29.983-27.17c6.768-19.933,13.045-43.843,33.998-53.401c2.955,19.077,0.917,39.074-8.153,56.337
		c5.85-4.036,11.069-9.234,13.78-15.898c7.03-16.652,4.544-35.548,10.822-52.403c3.485-9.276,10.763-16.349,17.569-23.257
		c5.299,15.999,3.771,33.183,0.693,49.447c11.476-15.449,7.563-35.853,11.067-53.668c1.633-12.331,8.786-23.133,17.978-31.205
		c4.179,12.331,4.424,25.438,6.096,38.238c12.413-16.532,9.457-38.524,9.845-57.907c-0.673-11.679,4.973-22.808,13.288-30.719
		c5.708,12.455,7.99,26.05,9.622,39.544c4.83-4.139,7.174-10.701,5.952-16.959c-2.08-12.188-11.232-23.686-7.379-36.465
		c3.485-10.925,8.193-21.503,14.572-31.044c8.337,10.377,11.151,23.585,13.781,36.283c5.563-7.094,9.741-16.796,5.38-25.581
		c-7.808-21.402-12.576-46.9,0.591-67.284c10.172,14.392,17.12,31.371,16.51,49.245c4.873-8.498,9.335-19.036,5.768-28.82
		c-4.259-12.535-13.98-23.034-15.326-36.547c-0.389-9.069,1.752-18.018,3.362-26.884c9.254,10.333,16.286,22.666,22.055,35.262
		c1.385-6.931,5.299-15.715-0.876-21.443c-16.286-17.122-17.184-43.313-10.743-64.898c11.945,11.394,16.307,27.7,24.195,41.662
		c-0.102-8.092-2.304-15.959-5.871-23.175c-8.865-19.037-16.427-39.807-13.696-61.168c9.294,9.58,18.672,19.241,25.296,30.981
		c1.12-5.973,3.077-12.535-0.042-18.242c-5.707-11.313-18.162-17.876-22.482-30.045c-1.915-7.685-0.387-15.695-0.061-23.501
		c10.68,2.018,16.734,11.659,24.255,18.446c-2.528-10.823-9.743-22.135-21.278-24.52c-11.619-3.384-20.036-13.311-25.193-23.828
		c11.312-4.484,22.257,1.794,32.367,6.318c-2.079-4.952-5.544-9.763-10.985-11.271c-17.938-5.28-38.342,6.013-54.871-5.441
		c7.297-11.578,22.114-10.273,33.814-12.984c-4.281-2.344-8.906-4.586-13.941-4.178c-12.271,0.835-22.442,9.844-34.875,9.783
		c-8.274-0.245-16.428-2.161-24.316-4.586c8.071-8.989,20.546-10.925,31.594-14.064c-16.939-4.261-31.349,9.355-48.022,8.826
		c-6.399-0.531-12.495-2.711-18.731-4.158c4.381-13.311,18.038-20.812,31.225-22.646c9.562-1.998,18.937,1.508,28.108,3.71
		C457.109,158.843,450.71,153.544,444.145,148.856L444.145,148.856z"/>
	<path fill="#FFFFFF" d="M466.281,156.765c9.051,1.937,15.084,9.824,17.753,18.263C476.025,171.46,469.563,164.917,466.281,156.765
		L466.281,156.765z"/>
	<path fill="#FFFFFF" d="M121.202,178.411c4.973-9.233,13.167-17.57,23.909-19.323C141.89,169.912,130.985,174.905,121.202,178.411
		L121.202,178.411z"/>
	<path fill="#FFFFFF" d="M252.568,174.07c33.122-16.063,72.36-13.637,106.907-3.485c-11.639,5.483-24.479,7.705-37.156,9.091
		C298.959,181.591,275.275,179.94,252.568,174.07L252.568,174.07z"/>
	<path fill="#FFFFFF" d="M509.392,164.55c8.702,4.893,13.065,14.33,14.491,23.848C516.932,182.06,510.553,174.212,509.392,164.55
		L509.392,164.55z"/>
	<path fill="#FFFFFF" d="M84.838,191.089c1.753-10.395,7.583-20.667,17.733-24.765C100.879,176.862,93.685,185.545,84.838,191.089
		L84.838,191.089z"/>
	<path fill="#FFFFFF" d="M421.623,178.941c4.34-8.846,15.552-8.622,23.808-6.747C438.479,176.984,430.04,179.287,421.623,178.941
		L421.623,178.941z"/>
	<path fill="#FFFFFF" d="M164.413,174.151c10.763-2.772,23.053,0.244,29.677,9.58C183.267,184.648,173.564,179.125,164.413,174.151
		L164.413,174.151z"/>
	<path fill="#FFFFFF" d="M453.134,192.129c7.379-5.667,17.225-4.321,25.948-4.953C471.724,192.964,462.002,193.066,453.134,192.129
		L453.134,192.129z"/>
	<path fill="#FFFFFF" d="M135.633,190.091c7.887,0.692,15.797,2.833,22.073,7.867C149.432,199.222,141.748,195.288,135.633,190.091
		L135.633,190.091z"/>
	<path fill="#FFFFFF" d="M60.032,193.658c-0.061,10.538,2.548,23.277-5.034,31.919C53.083,214.733,54.305,203.197,60.032,193.658
		L60.032,193.658z"/>
	<path fill="#FFFFFF" d="M549.321,193.555c3.261,8.072,3.058,16.897,2.343,25.417C543.674,213.144,547.894,201.627,549.321,193.555
		L549.321,193.555z"/>
	<path fill="#FFFFFF" d="M493.145,203.359c8.032-3.24,17.267-3.954,25.338-0.448C510.206,204.46,501.298,206.539,493.145,203.359
		L493.145,203.359z"/>
	<path fill="#C4A006" d="M87.998,241.802c65.306-26.05,135.647-38.137,205.784-39.114c75.253-1.285,151.058,9.334,222.172,34.365
		c3.688,1.366,9.192,2.711,8.541,7.868c-0.51,56.603-8.704,113.226-25.235,167.403c-20.85,68.648-55.093,133.079-99.55,189.337
		c-26.396,32.835-55.072,64.408-89.337,89.215c-52.607-41.785-98.794-91.948-134.363-149.04
		C119.754,452.458,90.159,347.16,87.998,241.802L87.998,241.802z"/>
	<path fill="#FFFFFF" d="M92.563,207.273c6.727-3.486,14.594-3.057,21.483-0.245C107.28,209.637,99.351,209.882,92.563,207.273
		L92.563,207.273z"/>
	<path fill="#FFF200" d="M232.553,219.85c49.673-5.524,99.997-5.891,149.691-0.245c0.161,15.756,0.223,31.532,0.06,47.289
		c-0.876,0.631-2.607,1.916-3.485,2.547c-6.807-5.442-15.082-9.314-24.031-8.132c-9.927-0.428-18.711,8.521-18.364,18.364
		c-0.591,6.136,3.527,11.109,5.626,16.531c-2.16-0.184-4.322-0.286-6.462-0.286c-0.755,2.262-2.241,6.767-2.996,9.03
		c-2.323-7.195-6.033-13.942-13.372-16.938c3.73-3.995,7.787-8.581,7.055-14.513c0.142-8.357-7.808-13.738-15.329-14.696
		c-15.328-2.242-30.553,1.834-45.799,2.955c0.061,2.222,0.121,4.444,0.203,6.666c3.465,0.162,6.91,0.326,10.375,0.529
		c1.569,13.778,2.67,27.599,3.913,41.397c0.428,5.197-6.095,6.87-10.212,6.706c-3.771-2.528-2.895-9.193-4.586-13.453
		c-2.241,0.388-4.484,0.755-6.726,1.162c0.366,3.71,0.529,7.44,0.427,11.191c-5.605-6.42-8.377-16.265-17.549-18.671
		c4.524-4.81,8.601-11.333,6.379-18.202c-1.732-6.828-8.703-9.682-14.818-11.353C232.553,251.769,232.553,235.809,232.553,219.85
		L232.553,219.85z"/>
	<path fill="#ED1B2D" d="M382.244,219.604c25.152,2.957,50.161,7.297,74.722,13.576c18.121,4.382,35.568,11.189,53.547,16.143
		c1.019,73.622-18.55,145.919-45.209,214.019c-18.693,44.535-43.803,86.261-73.276,124.498c-2.834,3.73-5.892,7.297-9.172,10.659
		c0.059-49.896,0-99.813,0.02-149.709c-0.284-10.519,0.307-21.159-1.937-31.492c0.042-2.182,0.042-4.342-0.04-6.504l0.836-0.591
		c1.507-20.382,0.103-40.847,0.732-61.27c0.634-7.419-1.752-14.533-2.609-21.81l0.96-0.733c0.63-0.754,1.937-2.263,2.587-3.037
		c2.222-8.642,5.096-18.222-1.019-26.07c3.466-10.293,5.382-21.015,5.278-31.879c-1.344,0.367-4.015,1.122-5.36,1.489
		C382.467,251.137,382.405,235.361,382.244,219.604L382.244,219.604z"/>
	<path d="M125.36,242.189c34.894-10.946,70.912-17.957,107.193-22.339c0,15.959,0,31.919,0,47.878
		c6.115,1.671,13.085,4.525,14.818,11.353c2.221,6.869-1.855,13.392-6.379,18.202c9.172,2.406,11.944,12.251,17.549,18.671
		c0.102-3.751-0.061-7.48-0.427-11.191c2.242-0.407,4.484-0.774,6.726-1.162c1.692,4.26,0.816,10.925,4.586,13.453
		c4.117,0.164,10.64-1.509,10.212-6.706c-1.243-13.799-2.344-27.619-3.913-41.397c-3.465-0.204-6.91-0.367-10.375-0.529
		c-0.082-2.222-0.143-4.444-0.203-6.666c15.246-1.121,30.471-5.197,45.799-2.955c7.521,0.958,15.471,6.339,15.329,14.696
		c0.732,5.932-3.324,10.518-7.055,14.513c7.339,2.995,11.049,9.742,13.372,16.938c0.755-2.263,2.241-6.768,2.996-9.03
		c2.14,0,4.302,0.102,6.462,0.286c-1.325,12.903,10.232,24.316,23.031,23.277c5.238,1.467,7.604-3.648,10.111-7.114
		c-7.318-10.783-21.3-13.432-33.143-16.163c-2.099-5.422-6.217-10.395-5.626-16.531c-0.347-9.844,8.438-18.792,18.364-18.364
		c8.949-1.182,17.225,2.69,24.031,8.132c0.878-0.631,2.609-1.916,3.485-2.547c1.346-0.367,4.017-1.122,5.36-1.489
		c0.104,10.864-1.813,21.586-5.278,31.879c6.114,7.848,3.24,17.428,1.019,26.07c-0.65,0.774-1.957,2.283-2.587,3.037l-0.96,0.733
		c-7.703,0.02-15.429,2.447-23.092,0.673c-5.444-0.958-9.846-4.526-14.329-7.46c-2.794,1.202-5.301,4.138-8.581,3.302
		c-1.51-2.731-2.365-5.789-4.037-8.418c-4.077,0.265-7.174,4.504-11.455,4.769c-15.185,1.774-30.451,2.914-45.697,3.894
		c-1-0.795-2.956-2.386-3.934-3.18c-5.932,4.627-13.942,9.682-21.402,5.136c-5.911-6.339-8.336-15.205-14.472-21.483
		c-0.387,7.195-0.346,14.39-0.326,21.604c1.63-0.183,4.851-0.57,6.461-0.753l-0.103,0.937c-4.036,0.815-8.05,1.794-12.066,2.711
		c-3.791-6.646-6.176-13.921-8.112-21.279c4.729-2.405,10.293-5.953,15.633-3.057c6.992,5.217,7.787,15.266,14.533,20.688
		c6.319,2.833,15.736,0.265,17.774-6.829c-1.264-4.913,0.225-14.778-7.337-13.494c-0.571,3.567,4.708,12.475-1.794,11.19
		c-4.851-4.301-6.869-10.823-11.496-15.267c-2.588-1.142-5.339-1.774-8.05-2.527c3.791-4.22,8.906-8.5,8.886-14.696
		c0.449-8.847-9.621-16.531-17.957-13.065c-15.206,4.605-29.779,11.169-44.333,17.508c3.832,5.605,12.495-2.548,14.941,3.954
		c5.788,13.065,10.456,26.579,16.061,39.706c-3.037,2.345-6.257,4.403-9.539,6.4c0.631,1.591,1.263,3.18,1.895,4.769
		c10.335-3.852,20.729-7.663,30.493-12.86c-1.813,1.753-3.791,3.26-5.769,4.789c-0.163,22.911-0.183,45.801,0.021,68.71
		c4.75,1.712,9.458,3.486,14.206,5.259c-0.142,1.51-0.428,4.547-0.57,6.053c-4.626-0.549-9.192-1.467-13.799-2.158
		c0.632,60.517-1.08,121.052-0.224,181.568c-26.009-30.146-47.533-64.062-65.897-99.346c-39.135-75.211-59.579-159.27-64.43-243.675
		C109.196,246.857,117.41,244.737,125.36,242.189L125.36,242.189z"/>
	<path fill="#FFFFFF" d="M522.294,222.744c8.091,1.385,15.98,4.932,21.115,11.557C535.563,232.344,526.268,230.775,522.294,222.744
		L522.294,222.744z"/>
	<path fill="#FFFFFF" d="M569.499,247.59c-0.529-8.439,0.225-17.346,4.892-24.623C577.082,231.508,574.065,240.314,569.499,247.59
		L569.499,247.59z"/>
	<path fill="#FFFFFF" d="M34.982,227.371c6.788,8.377,9.764,19.261,8.357,29.942C36.735,248.874,33.76,238.01,34.982,227.371
		L34.982,227.371z"/>
	<path fill="#FFFFFF" d="M63.07,240.538c4.688-7.053,12.861-10.865,21.32-9.763C78.989,236.971,70.754,238.866,63.07,240.538
		L63.07,240.538z"/>
	<path fill="#FFFFFF" d="M267.183,262.735c14.757-1.285,29.676-5.403,44.474-2.61c7.541,0.938,14.758,7.439,13.434,15.552
		c0.06,5.687-5.096,9.009-8.623,12.658c4.178,2.1,8.704,4.179,11.414,8.174c1.896,4.545,0.998,9.641,1.061,14.451
		c-2.874,3.485-5.788,7.867-10.822,7.99c-14.432,1.549-28.904,2.772-43.355,3.792c-1.223-0.694-3.668-2.079-4.892-2.752
		c3.689-2.548,9.723-3.017,11.271-7.888c-1.712-14.146-2.344-28.414-4.137-42.559c-2.283-3.73-7.786-1.264-11.313-2.405
		C266.083,266.036,266.816,263.836,267.183,262.735L267.183,262.735z"/>
	<path fill="#FFFFFF" d="M57.159,288.784c0.815-9.967,5.748-19.14,12.78-26.13C69.857,272.824,63.905,281.669,57.159,288.784
		L57.159,288.784z"/>
	<path fill="#FFFFFF" d="M348.917,263.366c9.274-2.71,19.466-0.631,26.863,5.585c3.466,3.689,7.441-1.732,11.05-2.446
		c-0.917,8.398-0.816,17.082-3.752,25.112c-1.202-0.612-3.626-1.855-4.829-2.466c4.156-16.531-24.112-29.352-31.165-12.496
		c1.486,2.63,2.323,6.074,5.442,7.257c6.685,3.098,13.513,5.932,20.523,8.174l1.244,0.917l1.447,1.019
		c12.129,5.564,12.454,24.072,1.447,30.881c-11.619,5.279-25.437,2.16-34.671-6.319c-2.834,1.57-5.565,3.343-8.459,4.77
		c-1.957-8.561-0.246-17.468,2.139-25.764c4.934-3.159,4.955,4.504,5.993,7.46c2.833,12.74,17.591,17.184,29.128,15.268
		c2.201-3.282,5.932-7.318,3.077-11.333c-7.826-10.904-24.012-8.377-32.835-17.814C333.59,282.546,338.154,267.158,348.917,263.366
		L348.917,263.366z"/>
	<path fill="#FFFFFF" d="M539.007,261.675c8.152,7.216,18.671,14.594,19.222,26.559
		C549.565,281.446,541.433,272.742,539.007,261.675L539.007,261.675z"/>
	<path d="M289.542,267.423c5.707-1.223,11.985-3.567,17.589-0.836c5.442,3.302,6.341,11.414,2.081,16.042
		c-4.893,3.791-11.477,2.792-17.245,3.648C290.725,280.061,290.133,273.721,289.542,267.423L289.542,267.423z"/>
	<path fill="#FFF200" d="M290.663,268.401c5.381-1.202,11.537-3.588,16.674-0.285c3.689,3.098,4.402,8.968,1.631,12.943
		c-4.179,4.403-10.823,3.261-16.267,3.873C291.886,279.448,291.234,273.924,290.663,268.401L290.663,268.401z"/>
	<path fill="#FFFFFF" d="M184.571,288.029c14.553-6.339,29.127-12.903,44.333-17.508c8.336-3.466,18.406,4.219,17.957,13.065
		c0.02,6.195-5.096,10.476-8.886,14.696c2.711,0.753,5.462,1.385,8.05,2.527c4.627,4.444,6.646,10.965,11.496,15.267
		c6.502,1.284,1.223-7.623,1.794-11.19c7.562-1.284,6.074,8.581,7.337,13.494c-2.038,7.093-11.455,9.662-17.774,6.829
		c-6.746-5.422-7.541-15.471-14.533-20.688c-5.34-2.896-10.905,0.652-15.633,3.057c1.937,7.358,4.321,14.634,8.112,21.279
		c4.016-0.917,8.031-1.896,12.066-2.711c-0.122,0.979-0.347,2.895-0.469,3.853c-9.763,5.197-20.158,9.009-30.493,12.86
		c-0.632-1.589-1.264-3.178-1.895-4.769c3.282-1.998,6.502-4.056,9.539-6.4c-5.605-13.126-10.273-26.64-16.061-39.706
		C197.066,285.481,188.403,293.634,184.571,288.029L184.571,288.029z"/>
	<path fill="#FFF200" d="M348.836,277.756c0.347-6.685,8.643-9.661,14.31-7.134c9.376,1.774,15.754,10.763,13.859,20.179
		c0.978,0.429,2.914,1.264,3.871,1.672c-0.732,0.652-2.18,1.937-2.914,2.589l-2.221-1.041l-1.447-1.019l-1.244-0.917
		C366.039,285.808,353.219,286.949,348.836,277.756L348.836,277.756z"/>
	<path fill="#FFFFFF" d="M568.623,294.45c2.1-9.192,7.5-17.447,15.41-22.645C583.524,281.609,577.531,290.374,568.623,294.45
		L568.623,294.45z"/>
	<path fill="#FFFFFF" d="M24.322,274.821c11.129,4.851,16.143,16.877,18.916,27.904C35.207,294.959,24.485,287.153,24.322,274.821
		L24.322,274.821z"/>
	<path fill="#FFFFFF" d="M401.607,279.774c0.488-5.809,6.135-1.711,9.091-0.896c14.696,6.135,29.533,11.903,44.271,18.018
		c-2.976,7.235-5.239,14.758-8.459,21.912c-1.428-0.51-4.261-1.509-5.687-2.019c0.998-5.34,5.075-11.617,1.508-16.734
		c-5.196-5.666-12.615-8.459-19.771-10.701c-3.709,5.809-6.972,11.924-9.193,18.467c3.466,1.324,6.991,3.119,10.845,2.385
		c4.055-2.1,4.586-10.518,10.332-6.441c-2.852,10.171-7.052,19.893-11.21,29.596c-7.216-2.629-1.405-10.986-3.648-16.469
		c-2.12-1.875-4.77-3.567-7.684-3.281c-4.158,6.074-7.44,13.595-6.666,21.075c2.508,2.589,5.893,4.423,7.44,7.848
		c-11.129-0.408-20.77-6.686-30.839-10.763c-0.307-1.039-0.897-3.118-1.202-4.158c3.547,0.306,7.195,2.141,10.74,1.06
		c5.096-8.928,8.358-18.792,12.781-28.067c1.915-4.892,4.995-9.519,5.381-14.858C407.987,282.71,404.155,281.854,401.607,279.774
		L401.607,279.774z"/>
	<path d="M210.56,285.135c3.628-4.341,10.253-6.257,15.837-6.523c5.83-0.162,7.685,5.708,9.581,10.029
		c-0.591-0.082-1.794-0.205-2.386-0.266c2.691,9.52-10.252,9.58-16.081,12.577C214.269,296.142,211.843,290.801,210.56,285.135
		L210.56,285.135z"/>
	<path fill="#FFFFFF" d="M155.016,305.253c8.112-4.668,15.593-10.396,23.767-14.941c0.979,0.428,2.955,1.264,3.933,1.671
		c-2.303,2.936-4.707,5.769-7.194,8.542c4.872,13.432,16.876,22.727,21.565,36.219c2.507,6.522-0.51,13.657-5.36,18.182
		c-6.951,6.583-16.205,12.372-26.213,10.68c-15.531-8.255-21.096-26.212-31.715-39.155c-4.402,0-9.274,7.48-12.25,1.752
		c7.848-8.315,18.039-14.125,28.291-18.977c0.815,0.51,2.487,1.529,3.302,2.06c-3.057,2.792-6.176,5.564-8.927,8.703
		c7.175,11.394,14.756,22.584,22.747,33.408c8.051,5.666,20.913-1.019,22.482-10.436c-4.056-14.085-14.33-25.153-22.075-37.28
		c-3.73,0.591-7.256,1.896-10.619,3.586C156.321,308.27,155.444,306.251,155.016,305.253L155.016,305.253z"/>
	<path d="M292.029,294.308c6.767-1.243,14.736-3.709,20.832,0.795c4.342,4.749,4.911,14.941-1.938,17.753
		c-5.421,1.589-11.169,1.488-16.733,2.181C292.967,308.188,292.335,301.258,292.029,294.308L292.029,294.308z"/>
	<path fill="#FFF200" d="M293.069,295.082c6.237-0.855,13.493-3.098,19.058,1.081c3.729,4.362,4.157,13.758-2.242,15.857
		c-4.872,1.244-9.906,1.324-14.879,1.753C294.047,307.577,293.477,301.319,293.069,295.082L293.069,295.082z"/>
	<path fill="#FFF200" d="M342.049,296.203c11.843,2.731,25.824,5.38,33.143,16.163c-2.508,3.465-4.873,8.581-10.111,7.114
		C352.281,320.52,340.724,309.106,342.049,296.203L342.049,296.203z"/>
	<path fill="#FFF200" d="M232.858,304.356c6.136,6.278,8.561,15.144,14.472,21.483c7.46,4.545,15.471-0.509,21.402-5.136
		c0.979,0.794,2.935,2.384,3.934,3.18c15.246-0.979,30.512-2.12,45.697-3.894c4.281-0.265,7.378-4.504,11.455-4.769
		c1.672,2.629,2.527,5.687,4.037,8.418c3.28,0.835,5.787-2.1,8.581-3.302c4.483,2.935,8.885,6.502,14.329,7.46
		c7.663,1.773,15.389-0.653,23.092-0.673c0.857,7.277,3.243,14.391,2.609,21.81c-0.63,20.423,0.774,40.887-0.732,61.27l-0.836,0.591
		c-11.537-1.711-22.952,1.04-34.223,2.996c-12.536-0.611-25.03,0.858-37.463,2.143c-0.797,8.967,11.025,5.787,12.923,13.043
		c5.99,11.74,10.495,24.257,17.446,35.467c0.183,0.285,0.57,0.836,0.754,1.101l0.49,1.183c0.896,3.241,1.957,6.48,3.729,9.375
		c4.261,0.49,8.847,0.063,12.779-1.773c6.379-18.221,8.316-37.91,16.225-55.644c2.446-0.571,4.893-1.02,7.379-1.386
		c2.243,10.333,1.652,20.974,1.937,31.492c-0.02,49.896,0.039,99.813-0.02,149.709c-0.878,1.979-2.264,3.671-3.566,5.382
		c-21.076,24.826-44.192,47.94-69.302,68.688c-28.292-23.52-54.81-49.529-77.7-78.351c-0.856-60.517,0.856-121.052,0.224-181.568
		c4.607,0.691,9.172,1.609,13.799,2.158c0.143-1.506,0.428-4.543,0.57-6.053c-4.748-1.772-9.457-3.547-14.206-5.259
		c-0.204-22.909-0.184-45.799-0.021-68.71c1.978-1.529,3.955-3.036,5.769-4.789c0.122-0.958,0.347-2.875,0.469-3.853l0.103-0.937
		c-1.611,0.183-4.831,0.57-6.461,0.753C232.512,318.747,232.471,311.551,232.858,304.356L232.858,304.356z"/>
	<path fill="#FFF200" d="M330.756,306.782c4.363-1.04,1.162,8.683-0.814,3.425C330.145,309.35,330.553,307.638,330.756,306.782
		L330.756,306.782z"/>
	<path fill="#FFFFFF" d="M473.517,307.455c3.956,1.651,7.868,3.424,11.7,5.38c-3.221,18.773-4.708,37.79-8.01,56.542
		c2.446,2.344,4.972,4.565,7.562,6.767c-0.715,0.673-2.139,2.018-2.854,2.691c-10.519-3.751-19.629-10.395-29.657-15.206
		c3.934-4.464,9.397-0.734,14.125-0.347c1.509-4.402,4.831-10.232,0.306-14.023c-5.32-3.383-11.517-5.075-17.203-7.745
		c-2.935,2.344-6.053,4.586-8.274,7.664c-1.081,5.585,13.635,6.829,6.298,11.578c-9.375-3.038-18.061-7.908-26.295-13.208
		c1.715-5.442,8.826,0,12.517-3.037C447.244,332.443,460.35,319.908,473.517,307.455L473.517,307.455z"/>
	<path fill="#FFFFFF" d="M63.559,339.414c1.305-10.986,5.503-21.911,13.758-29.534C76.379,320.927,71.773,331.812,63.559,339.414
		L63.559,339.414z"/>
	<path fill="#FFFFFF" d="M536.765,311.877c9.234,5.728,11.577,17.672,13.596,27.578
		C543.817,331.465,537.906,322.394,536.765,311.877L536.765,311.877z"/>
	<path fill="#FFFFFF" d="M566.441,333.932c2.59-9.233,9.296-16.571,17.123-21.79C582.747,322.191,574.534,329.141,566.441,333.932
		L566.441,333.932z"/>
	<path fill="#FFFFFF" d="M28.357,320.213c10.335,6.074,17.265,16.449,21.158,27.579C37.938,343.45,30.192,332.199,28.357,320.213
		L28.357,320.213z"/>
	<path fill="#ED1B2D" d="M455.743,336.397c5.056-6.033,10.682-11.536,16.634-16.693c0.202,8.052-1.102,16.062-3.528,23.705
		C464.284,341.433,459.882,339.13,455.743,336.397L455.743,336.397z"/>
	<path fill="#FFFFFF" d="M73.017,384.848c0.49-11.455,3.73-22.951,10.538-32.266C83.799,363.996,81.903,376.735,73.017,384.848
		L73.017,384.848z"/>
	<path fill="#FFFFFF" d="M527.531,352.704c9.03,9.071,14.473,21.993,13.147,34.896C531.322,378.61,527.43,365.402,527.531,352.704
		L527.531,352.704z"/>
	<path fill="#FFFFFF" d="M30.763,362.57c11.659,6.604,19.383,18.385,25.58,29.921C44.032,386.967,32.74,376.49,30.763,362.57
		L30.763,362.57z"/>
	<path fill="#FFFFFF" d="M559.389,383.645c3.589-8.887,9.397-17.428,18.426-21.483C574.473,371.313,567.604,378.631,559.389,383.645
		L559.389,383.645z"/>
	<path fill="#FFFFFF" d="M179.944,389.943c1.202-3.118,3.709-5.319,6.93-3.159c7.95,3.098,16.143,5.584,23.909,9.131
		c2.772,5.994-5.564,3.241-8.601,4.322c-3.71,6.134-6.543,12.922-8.357,19.894c10.049-3.038,19.486-7.971,28.618-13.106
		c-3.343-2.221-10.151-3.364-5.524-8.417c9.641,3.912,19.608,7.052,29.045,11.454c0.082,6.89-7.684,1.447-11.414,1.549
		c-7.623,1.997-14.614,6.073-21.972,8.908c3.423,14.227,2.018,31.838,14.817,41.762c2.589,1.447,0.632,6.423-2.466,4.526
		c-9.05-3.16-17.896-6.849-26.885-10.17c-3.729-0.429-1.488-3.956-0.835-5.933c3.017,0.266,6.074,0.448,9.11,0.571
		c-0.305-8.601-3.24-16.733-5.483-24.929c-4.483,0.205-8.295,2.548-12.087,4.709c-1.753,4.3-3.078,8.805-3.404,13.472
		c3.242,2.201,11.191,5.667,4.22,8.928c-9.825-3.322-19.282-7.603-28.985-11.271c0.51-1.284,1.529-3.812,2.038-5.075
		c3.241,0.692,6.502,1.427,9.764,2.159c7.053-14.552,12.311-29.9,17.081-45.331C186.324,392.512,183.124,391.228,179.944,389.943
		L179.944,389.943z"/>
	<path fill="#FFFFFF" d="M422.314,395.019c7.951-2.691,19.978-0.245,22.097,9.089c1.915,5.546-2.08,10.417-4.239,15.166
		c5.462,1.895,12.615,2.854,15.287,8.764c3.485,6.157,3.158,15.979-3.832,19.487c-14.064,8.377-30.106,12.576-45.557,17.549
		c-5.909-4.055,3.934-5.707,6.399-8.132c-4.463-15.349-10.293-30.352-16.408-45.108c-3.505-0.713-11.638,4.321-11.454-1.549
		C396.512,404.049,409.516,399.381,422.314,395.019L422.314,395.019z"/>
	<path fill="#ED1B2D" d="M408.517,406.923c6.054-2.854,13.412-7.378,20.037-3.485c4.566,2.607,4.36,8.337,4.076,12.861
		c-4.852,5.177-11.599,7.562-18.55,8.133C412.186,418.602,410.33,412.771,408.517,406.923L408.517,406.923z"/>
	<path fill="#FFFFFF" d="M517.95,401.275c5.913,7.787,11.05,16.939,10.253,27.109C521.193,421.231,516.708,411.447,517.95,401.275
		L517.95,401.275z"/>
	<path fill="#FFFFFF" d="M86.938,434.765c-0.938-10.66,2.895-20.933,8.5-29.798C95.805,415.299,95.417,427.447,86.938,434.765
		L86.938,434.765z"/>
	<path d="M250.815,409.654c15.104,3.606,31.451,1.467,45.759,8.234c6.645,3.627,14.085,10.577,11.21,18.976
		c-1.039,5.605-6.299,8.479-10.619,11.312c11.292,6.441,10.965,26.357-1.754,30.819c-8.499,3.019-17.263-1.794-25.885-0.692
		c0.468-0.245,1.406-0.735,1.854-0.958c8.866-0.754,18.772,4.545,26.783-1.162c5.014-3.261,6.38-9.58,5.829-15.163
		c0.184-5.974-5.401-9.459-9.314-12.984c4.729-2.813,10.6-5.504,12.006-11.416c2.669-8.133-4.892-14.816-11.475-17.998
		c-13.902-6.154-29.535-4.913-44.272-7.379c-0.122,6.504,9.947,4.935,9.314,10.946c-1.569,14.392-4.137,28.659-6.237,42.986
		c-4.117,0.816-8.234,1.529-12.353,2.325c0.511,0.876,1.529,2.629,2.019,3.505c8.092,2.61,16.653,3.139,24.908,4.995
		c0.285,0.225,0.856,0.691,1.142,0.917c-9.54-0.653-18.854-3.282-28.312-4.628c0.02-2.14,0.041-4.279,0.102-6.399
		c3.954-0.957,11.354,1.101,11.822-4.729c2.079-12.942,4.138-25.927,5.748-38.931c0.795-4.321-5.279-3.853-7.888-5.137
		C251.08,414.606,250.938,412.12,250.815,409.654L250.815,409.654z"/>
	<path d="M346.676,413.79c11.271-1.956,22.686-4.707,34.223-2.996c0.082,2.162,0.082,4.322,0.04,6.504
		c-2.486,0.366-4.933,0.814-7.379,1.386c-7.908,17.733-9.846,37.423-16.225,55.644c-3.933,1.836-8.519,2.264-12.779,1.773
		c-1.772-2.895-2.834-6.134-3.729-9.375c0.183,0.284,0.549,0.876,0.734,1.16c1.447,2.488,2.832,4.995,4.197,7.563
		c3.669-0.549,7.359-1.101,11.027-1.752c5.034-18.589,8.581-37.646,15.471-55.687c2.283-0.63,4.484-1.508,6.563-2.629
		c1.61-2.73-2.689-3.465-4.259-4.463c-7.788,0.938-15.716,1.101-23.339,3.139c-0.246,0.529-0.732,1.569-0.958,2.099
		c0.389,5.239,10.946,0.388,9.62,6.646c-0.896,11.454-3.75,22.971-8.581,33.407c-0.327,0.203-0.999,0.611-1.323,0.814
		c-6.484-11.189-11.844-23.153-14.269-35.894c3.159-1.548,7.889-0.917,9.478-4.667l0.163-1.673
		c-10.519-0.855-21.014,0.938-31.492,1.713c-4.605-1.507-3.28,5.83,0.287,5.258c2.201,0.673,4.423,1.284,6.663,1.856
		c6.727,13.859,13.82,27.617,19.527,41.927c-0.184-0.265-0.571-0.815-0.754-1.101c-6.951-11.21-11.456-23.727-17.446-35.467
		c-1.897-7.256-13.72-4.076-12.923-13.043C321.646,414.648,334.14,413.179,346.676,413.79L346.676,413.79z"/>
	<path fill="#FFFFFF" d="M250.938,411.242c14.737,2.466,30.37,1.225,44.272,7.379c6.583,3.182,14.144,9.865,11.475,17.998
		c-1.406,5.912-7.277,8.604-12.006,11.416c3.914,3.525,9.499,7.011,9.314,12.984c0.551,5.583-0.815,11.902-5.829,15.163
		c-8.01,5.707-17.917,0.408-26.783,1.162l-1.65-0.428c-0.286-0.226-0.857-0.692-1.142-0.917c-8.255-1.856-16.816-2.385-24.908-4.995
		c-0.49-0.876-1.508-2.629-2.019-3.505c4.118-0.796,8.235-1.509,12.353-2.325c2.1-14.327,4.667-28.595,6.237-42.986
		C260.884,416.177,250.815,417.746,250.938,411.242L250.938,411.242z"/>
	<path fill="#FFFFFF" d="M351.221,414.057c7.623-2.038,15.551-2.201,23.339-3.139c1.569,0.998,5.869,1.732,4.259,4.463
		c-2.078,1.121-4.279,1.999-6.563,2.629c-6.89,18.04-10.437,37.098-15.471,55.687c-3.668,0.651-7.358,1.203-11.027,1.752
		c-1.365-2.567-2.75-5.074-4.197-7.563c-0.186-0.284-0.552-0.876-0.734-1.16l-0.49-1.183c-5.707-14.31-12.801-28.067-19.527-41.927
		c-2.24-0.572-4.462-1.184-6.663-1.856c-3.567,0.572-4.893-6.765-0.287-5.258c10.479-0.775,20.974-2.568,31.492-1.713l-0.163,1.673
		c-1.589,3.75-6.318,3.119-9.478,4.667c2.425,12.74,7.784,24.704,14.269,35.894c0.324-0.203,0.996-0.611,1.323-0.814
		c4.831-10.437,7.685-21.953,8.581-33.407c1.326-6.258-9.231-1.406-9.62-6.646C350.488,415.626,350.975,414.586,351.221,414.057
		L351.221,414.057z"/>
	<path fill="#FFFFFF" d="M547.669,435.968c3.995-10.478,12.638-18.101,21.688-24.275
		C566.056,422.413,558.065,431.604,547.669,435.968L547.669,435.968z"/>
	<path fill="#FFF200" d="M345.351,417.542c4.341,1.386,8.846,2.202,13.291,3.261c-0.429,11.802-3.222,23.849-8.663,34.366
		c-5.321-10.805-11.07-21.688-12.903-33.734c2.813-0.651,5.646-1.263,8.48-1.854L345.351,417.542L345.351,417.542z"/>
	<path fill="#FFFFFF" d="M40.974,419.765c13.412,4.809,23.604,16.264,29.291,29.045C56.914,443.896,45.724,433.277,40.974,419.765
		L40.974,419.765z"/>
	<path d="M273.604,420.842c6.747,1.611,16.408,0.083,19.934,7.543c0.897,5.484-1.202,12.862-7.48,14.045
		c4.953-3.364,9.559-11.558,4.015-16.43c-4.565-2.996-10.395-2.874-15.593-3.913c-0.999,5.544-1.936,11.089-2.833,16.652
		c3.485,0.918,6.95,1.875,10.415,2.854c-4.016-0.042-7.908-0.979-11.822-1.753C271.299,433.502,272.502,427.183,273.604,420.842
		L273.604,420.842z"/>
	<path fill="#FFF200" d="M274.479,422.087c5.198,1.039,11.027,0.917,15.593,3.913c5.544,4.872,0.938,13.065-4.015,16.43
		c-1.346-0.225-2.69-0.51-3.995-0.836c-3.465-0.979-6.93-1.937-10.415-2.854C272.543,433.176,273.481,427.631,274.479,422.087
		L274.479,422.087z"/>
	<path fill="#ED1B2D" d="M417.974,432.34c6.522-3.792,14.879-7.563,22.218-3.711c4.361,3.914,5.728,11.253,1.957,16.042
		c-4.71,4.566-11.334,6.644-17.835,6.461C422.275,444.854,420.176,438.576,417.974,432.34L417.974,432.34z"/>
	<path fill="#FFFFFF" d="M105.302,483.644c-3.22-13.21,1.468-26.479,6.564-38.525C113.68,458.145,112.458,472.289,105.302,483.644
		L105.302,483.644z"/>
	<path d="M269.934,447.565c6.604,1.143,14.452,0.61,19.425,5.911c3.404,4.627,1.793,11.495-1.733,15.572
		c-6.4,3.547-13.779,0.265-20.546-0.144C267.081,461.689,268.018,454.516,269.934,447.565L269.934,447.565z"/>
	<path fill="#FFFFFF" d="M503.581,445.71c6.503,10.437,7.34,23.623,5.87,35.568C504.355,470.271,500.932,457.818,503.581,445.71
		L503.581,445.71z"/>
	<path fill="#FFF200" d="M270.606,448.829c6.319,0.979,14.044,0.836,18.406,6.36c1.854,4.952,0.57,12.921-5.483,14.248
		c-5.197,0.366-10.354-0.918-15.471-1.571C268.283,461.447,269.201,455.087,270.606,448.829L270.606,448.829z"/>
	<path fill="#FFFFFF" d="M524.82,489.88c7.828-10.68,16.511-23.013,30.636-25.192C548.668,476.428,537.376,485.09,524.82,489.88
		L524.82,489.88z"/>
	<path fill="#FFFFFF" d="M57.913,477.813c13.392,5.137,26.925,12.474,34.937,24.805C78.052,500.521,65.332,490.552,57.913,477.813
		L57.913,477.813z"/>
	<path fill="#FFFFFF" d="M482.159,501.193c7.644,12.453,5.749,28.026,1.957,41.437C477.41,530.075,476.126,514.278,482.159,501.193
		L482.159,501.193z"/>
	<path fill="#FFFFFF" d="M133.391,504.943c5.156,11.536,4.646,25.906-2.365,36.566C126.908,529.505,129.946,516.704,133.391,504.943
		L133.391,504.943z"/>
	<path fill="#FFFFFF" d="M497.427,542.896c9.028-11.802,21.278-22.382,36.627-24.054
		C526.328,532.092,511.247,538.167,497.427,542.896L497.427,542.896z"/>
	<path fill="#FFFFFF" d="M80.375,525.896c15.573,1.488,27.802,13.167,35.609,25.929C101.002,549.417,86.123,540.512,80.375,525.896
		L80.375,525.896z"/>
	<path fill="#FFFFFF" d="M456.538,546.196c5.259,12.026,5.564,27.049-1.039,38.647C452.726,572.104,453.176,558.794,456.538,546.196
		L456.538,546.196z"/>
	<path fill="#FFFFFF" d="M159.501,591.814c-6.727-12.719-5.34-28.211-0.775-41.398C165.982,562.911,165.29,578.891,159.501,591.814
		L159.501,591.814z"/>
	<path d="M334.588,579.298c5.729,0.103,11.517,0.144,17.143-1.14c0.021,2.221,0.061,4.463,0.122,6.706
		c-4.32,0.02-8.643,0.02-12.944,0.06l0.124,2.161c5.564,0.164,14.919,0.817,14.37,8.602c0.998,11.821-22.137,12.678-20.608,0.346
		c5.523-4.483,8.113,9.274,13.454,3.241c2.995-1.875,0-6.299-2.773-6.419c-3.139-0.653-6.358,0.02-9.519,0.12
		C334.283,588.412,334.486,583.865,334.588,579.298L334.588,579.298z"/>
	<path fill="#FFFFFF" d="M467.382,596.686c7.153-14.166,24.234-15.94,37.872-19.792
		C496.509,589.104,481.385,593.709,467.382,596.686L467.382,596.686z"/>
	<path d="M263.371,584.211c1.447-5.075,8.01-3.975,11.965-5.727c0.04,7.216,0.02,14.451,0,21.687
		c1.162,0.184,3.465,0.571,4.626,0.774v3.302c-5.258,0-10.517,0-15.776,0l-0.142-3.2c1.304-0.285,3.913-0.814,5.217-1.101
		c-0.02-4.91,0.225-9.864-0.346-14.756C267.53,584.945,264.756,584.456,263.371,584.211L263.371,584.211z"/>
	<path d="M285.854,583.336c3.485-5.851,12.637-5.933,17.447-1.692c1.63,2.996-0.224,6.095-1.162,8.968
		c2.548,2.609,4.667,6.463,2.507,10.008c-4.239,5.748-14.411,5.748-18.976,0.45c-2.67-3.324,0.387-6.523,2.568-8.97
		C286.547,589.45,284.447,586.616,285.854,583.336L285.854,583.336z"/>
	<path d="M307.969,589.613c-2.324-11.253,15.43-14.901,20.117-5.87c2.67,5.829,1.855,14.145-3.873,17.937
		c-3.975,2.813-9.07,2.771-13.677,3.404v-3.854c4.322-0.693,8.46-2.18,12.148-4.524
		C317.203,596.379,308.703,596.869,307.969,589.613L307.969,589.613z"/>
	<path fill="#FFF200" d="M291.01,583.683c1.854-0.043,5.544-0.103,7.399-0.144c-0.387,1.283-1.162,3.831-1.55,5.096
		C294.169,588.003,292.009,586.312,291.01,583.683L291.01,583.683z"/>
	<path fill="#FFF200" d="M316.55,583.683c5.115-3.019,8.725,6.196,3.547,7.764C315.53,594.097,312.248,585.923,316.55,583.683
		L316.55,583.683z"/>
	<path fill="#FFFFFF" d="M113.517,586.821c13.064,1.731,26.233,8.438,33.509,19.71C133.655,605.185,121.079,597.989,113.517,586.821
		L113.517,586.821z"/>
	<path fill="#FFF200" d="M291.764,599.295c-2.914-1.388,0.449-6.218,2.997-4.729c2.567,0.408,3.954,2.772,5.564,4.547
		C297.594,599.58,294.251,601.699,291.764,599.295L291.764,599.295z"/>
	<path fill="#FFFFFF" d="M420.767,640.917c1.61-14.351-3.077-30.352,5.219-43.213C428.757,612.198,427.188,627.566,420.767,640.917
		L420.767,640.917z"/>
	<path fill="#FFFFFF" d="M190.727,603.412c6.136,10.396,9.458,22.809,6.788,34.813C191.501,627.688,191.481,615.174,190.727,603.412
		L190.727,603.412z"/>
	<path fill="#FFFFFF" d="M435.809,642.485c10.069-9.823,23.868-15.187,37.872-15.49C464.06,637.432,449.344,640.793,435.809,642.485
		L435.809,642.485z"/>
	<path fill="#FFFFFF" d="M388.114,673.405c1.548-13.899-2.916-30.715,7.644-41.926C399.06,646.013,393.964,660.319,388.114,673.405
		L388.114,673.405z"/>
	<path fill="#FFFFFF" d="M147.189,637.798c11.924,0.244,24.5,3.465,33.02,12.331C168.448,648.988,155.587,646.95,147.189,637.798
		L147.189,637.798z"/>
	<path fill="#FFFFFF" d="M223.318,637.491c7.277,11.069,6.4,25.213,4.119,37.688C219.854,664.194,220.241,649.926,223.318,637.491
		L223.318,637.491z"/>
	<path fill="#FFFFFF" d="M341.212,708.32c3.792-14.878,5.708-31.857,17.674-42.803C358.579,681.213,354.623,698.538,341.212,708.32
		L341.212,708.32z"/>
	<path fill="#FFFFFF" d="M256.298,668.963c9.539,9.865,11.313,24.214,12.025,37.28C260.13,695.663,257.093,682.048,256.298,668.963
		L256.298,668.963z"/>
	<path fill="#FFFFFF" d="M394.983,686.696c10.456-7.399,23.908-7.258,36.158-6.787C421.093,687.899,407.028,686.227,394.983,686.696
		L394.983,686.696z"/>
	<path fill="#FFFFFF" d="M188.994,688.287c12.332-2.854,26.702-1.917,36.261,7.255C212.821,698.191,199.512,695.358,188.994,688.287
		L188.994,688.287z"/>
	<path fill="#FFFFFF" d="M352.362,718.86c13.27-10.66,30.738-2.325,45.819-2.018C384.466,725.81,367.281,722.121,352.362,718.86
		L352.362,718.86z"/>
	<path fill="#FFFFFF" d="M224.685,722.876c11.781-5.811,25.438-4.363,37.362,0.142C250.999,729.866,236.221,727.42,224.685,722.876
		L224.685,722.876z"/>
</g>
</svg>
