<?xml version="1.0" encoding="utf-8"?>
<!-- Generator: Adobe Illustrator 13.0.0, SVG Export Plug-In . SVG Version: 6.00 Build 14948)  -->
<!DOCTYPE svg PUBLIC "-//W3C//DTD SVG 1.0//EN" "http://www.w3.org/TR/2001/REC-SVG-20010904/DTD/svg10.dtd">
<svg version="1.0" id="HQFL" xmlns="http://www.w3.org/2000/svg" xmlns:xlink="http://www.w3.org/1999/xlink" x="0px" y="0px"
	 width="396.851px" height="396.85px" viewBox="0 0 396.851 396.85" enable-background="new 0 0 396.851 396.85"
	 xml:space="preserve">
<path fill="#005298" d="M198.425,0C88.856,0,0,88.856,0,198.425C0,307.993,88.856,396.85,198.425,396.85
	s198.425-88.856,198.425-198.425C396.851,88.856,307.995,0,198.425,0z"/>
<path fill="#FFFFFF" d="M46.3,198.425c0-83.929,68.243-152.211,152.125-152.211c83.882,0,152.125,68.282,152.125,152.211
	c0,83.929-68.243,152.211-152.125,152.211C114.543,350.636,46.3,282.354,46.3,198.425z"/>
<path fill="#FFFFFF" d="M198.425,4.41C91.565,4.41,4.41,91.566,4.41,198.425s87.155,194.015,194.015,194.015
	c106.858,0,194.014-87.156,194.014-194.015S305.283,4.41,198.425,4.41z M198.425,390.964c-106.047,0-192.541-86.493-192.541-192.54
	c0-106.047,86.494-192.54,192.541-192.54c106.046,0,192.539,86.493,192.539,192.54C390.964,304.471,304.471,390.964,198.425,390.964
	z"/>
<path fill="#FFFFFF" d="M198.425,39.109c-87.748,0-159.316,71.568-159.316,159.315s71.568,159.316,159.316,159.316
	s159.315-71.569,159.315-159.316S286.173,39.109,198.425,39.109z M198.425,356.35c-86.981,0-157.924-70.944-157.924-157.925
	c0-86.98,70.943-157.924,157.924-157.924c86.98,0,157.924,70.943,157.924,157.924C356.35,285.406,285.405,356.35,198.425,356.35z"/>
<path fill="#D6B264" d="M198.425,44.049c-85.076,0-154.289,69.253-154.289,154.375S113.349,352.8,198.425,352.8
	s154.29-69.253,154.29-154.375S283.5,44.049,198.425,44.049z M335.126,131.689l-32.583-3.75l-55.018-52.891l-13.41-24.592
	C278.552,61.186,315.44,91.483,335.126,131.689z M304.393,261.796l-44.583,13.781l-31.326-36.379l19.195-53.7l47.753-12.303
	l29.926,43.494L304.393,261.796z M199.34,96.797l0.315,50.441l-47.916,31.714l-41.859-17.915l-5.079-48.721l52.232-29.967
	L199.34,96.797z M109.282,163.135l41.765,17.874l16.028,55.744l-28.674,41.22L94.803,267.26l-16.017-67.868L109.282,163.135z
	 M168.793,238.073l57.795,2.239l31.549,36.64l-22.924,43.187l-65.08-2.459l-29.887-38.57L168.793,238.073z M201.504,96.756
	l46.369-18.371l52.749,50.709l-5.679,41.992l-47.94,12.351l-45.184-36.118L201.504,96.756z M167.036,49.48l-10.713,30.782
	l-53.698,30.808l-31.885,4.707C92.417,82.363,126.826,57.953,167.036,49.48z M47.645,178.208l28.943,21.288l16.461,69.752
	l-4.435,34.405C62.419,276.299,46.3,239.211,46.3,198.425C46.3,191.571,46.764,184.825,47.645,178.208z M141.942,339.751
	l27.682-19.925l67.603,2.554l28.884,12.331c-20.398,10.184-43.383,15.925-67.686,15.925
	C178.475,350.636,159.415,346.767,141.942,339.751z M317.197,293.416l-10.942-30.49l21.785-46.871l22.398-23.184
	c0.066,1.845,0.112,3.695,0.112,5.555C350.55,234.327,338.055,267.359,317.197,293.416z"/>
<polygon fill="#005298" points="324.298,203.844 321.555,202.945 319.697,201.186 320.626,199.385 318.769,198.483 317.398,198.483 
	315.541,198.483 312.797,198.483 311.869,195.352 310.012,193.594 310.012,189.133 308.641,186.859 304.041,186.859 
	301.742,186.002 298.955,184.2 298.027,183.298 296.213,177.508 297.097,174.806 297.097,171.675 297.097,169.015 298.955,166.313 
	303.111,160.522 304.969,157.82 306.782,156.062 310.012,152.029 310.939,147.097 310.012,144.437 310.939,143.536 311.869,137.745 
	311.869,135.043 310.939,135.043 308.641,135.944 305.855,134.143 304.041,133.241 299.884,134.143 298.955,134.143 
	297.097,134.143 297.097,135.043 293.913,136.844 292.984,137.745 290.197,138.603 289.27,138.603 288.383,138.603 285.156,137.745 
	279.628,137.745 276.399,136.844 273.612,133.241 273.612,131.011 274.542,129.252 274.542,127.451 273.612,126.55 269.455,124.791 
	269.455,122.518 269.455,121.66 268.571,118.958 265.784,121.66 264.856,118.958 263.927,118.057 261.627,118.057 258.884,119.859 
	258.884,120.759 257.026,122.518 252.87,121.66 251.985,120.759 251.985,118.958 251.056,118.958 250.127,116.298 248.27,116.298 
	245.042,116.298 243.228,116.298 240.441,114.068 239.071,116.298 239.071,117.156 236.284,118.958 231.685,118.958 
	229.385,118.958 228.456,118.057 228.456,116.298 226.642,116.298 225.714,116.298 221.556,119.859 218.814,122.518 214.657,121.66 
	211.87,120.759 208.199,118.057 206.828,117.156 205.9,116.298 203.113,116.298 198.071,116.298 195.286,117.156 191.172,117.156 
	190.243,114.925 190.243,114.068 189.314,114.068 187.457,114.925 184.715,114.925 182.415,112.266 180.558,112.266 
	179.629,111.365 176.4,109.564 172.729,110.465 167.643,109.564 166.758,108.706 163.972,107.333 158.887,105.575 158.887,104.674 
	158.887,103.773 158.001,101.972 158.001,101.071 157.073,101.071 155.216,102.873 154.286,106.433 151.986,108.706 
	150.173,108.706 147.387,107.333 141.417,107.333 135.401,104.674 132.66,104.674 129.873,106.433 128.502,107.333 124.831,111.365 
	123.902,111.365 122.044,116.298 122.044,117.156 121.116,118.958 117.887,118.958 116.074,118.958 114.216,117.156 
	111.916,114.925 108.245,114.068 105.017,114.068 104.088,111.365 103.16,109.564 102.23,103.773 101.301,102.873 98.56,102.873 
	96.259,101.071 93.473,100.213 90.731,100.213 87.502,104.674 87.502,109.564 85.646,112.266 85.646,113.167 85.646,114.925 
	83.832,118.057 80.604,120.759 80.604,123.891 80.604,129.252 78.745,131.011 76.888,134.143 77.816,135.944 81.975,141.734 
	83.832,144.437 83.832,150.228 84.717,153.831 85.646,156.961 87.502,157.82 89.36,158.721 91.66,157.82 94.402,156.961 
	94.402,157.82 103.16,164.082 103.16,166.313 103.16,168.114 102.23,171.675 102.23,173.047 104.088,176.607 105.017,178.409 
	105.017,182.398 106.388,186.859 108.245,189.133 109.13,191.791 109.13,194.494 111.916,197.583 115.145,198.483 119.744,201.186 
	122.044,202.945 127.573,207.877 129.873,208.778 130.801,212.339 138.63,218.171 138.63,219.93 138.63,222.161 139.559,223.061 
	139.559,223.962 142.3,224.862 147.387,230.654 148.315,231.556 148.315,233.357 151.986,236.016 155.216,239.146 159.814,240.048 
	162.115,240.048 163.972,239.146 164.901,239.146 166.758,240.948 169.943,243.607 170.871,246.74 170.871,251.2 171.8,257.935 
	174.587,262.396 174.587,263.725 176.4,265.526 180.558,269.087 185.644,274.02 192.543,278.909 195.286,281.612 197.143,284.271 
	199.001,290.105 194.401,291.864 192.543,291.864 187.457,292.764 189.314,293.665 191.172,294.995 192.985,296.796 
	194.401,297.698 195.286,296.796 195.286,295.896 196.213,295.896 197.143,295.896 205.9,296.796 208.199,296.796 210.057,297.698 
	211.87,297.698 212.8,299.457 213.728,300.357 213.728,301.258 214.657,303.488 218.814,304.389 220.628,307.092 221.556,309.751 
	222.485,311.081 223.414,311.982 223.414,312.882 227.572,315.541 227.572,317.343 229.385,319.146 234.471,322.276 
	237.213,324.935 238.142,326.736 240.441,328.967 242.3,329.867 244.158,332.528 245.042,334.33 248.27,336.56 250.127,333.428 
	250.127,332.528 250.127,330.769 251.056,329.867 251.985,325.836 256.098,320.474 256.098,319.146 256.098,316.442 
	254.727,315.541 253.799,313.783 251.985,312.882 251.056,311.982 251.056,308.849 251.985,304.389 252.87,300.357 251.985,299.457 
	251.056,296.796 251.056,295.896 251.985,293.665 252.87,291.864 254.727,290.105 258.884,288.304 264.856,286.974 263.927,283.371 
	263.927,282.514 263.927,280.71 265.784,275.778 266.713,274.02 265.784,272.218 265.784,267.286 268.571,268.186 271.8,267.286 
	272.684,266.428 272.684,264.627 274.542,263.725 275.469,262.396 276.399,261.494 280.512,261.494 283.299,262.396 
	284.227,264.627 284.227,266.428 285.156,268.186 288.383,271.318 292.984,265.526 297.097,265.526 298.027,263.725 
	292.984,259.692 292.054,259.692 292.054,258.834 289.27,257.935 289.27,257.033 290.197,253.902 284.227,252.101 285.156,247.64 
	285.156,244.509 289.27,247.64 291.127,248.541 295.284,247.64 298.027,246.74 299.884,248.541 303.111,247.64 304.041,248.541 
	305.855,241.85 308.641,240.948 310.012,241.85 310.939,241.85 313.683,241.85 317.398,241.85 318.769,240.048 318.769,236.916 
	318.769,234.257 318.769,231.556 316.468,227.523 315.541,225.764 312.797,223.962 311.869,222.161 311.869,219.93 310.012,216.37 
	307.712,214.568 305.855,213.239 304.041,213.239 304.969,212.339 304.041,210.58 304.041,209.678 304.969,208.778 306.782,207.877 
	306.782,208.778 307.712,209.678 310.012,210.58 313.683,211.438 317.398,212.339 320.626,212.339 322.44,211.438 324.298,208.778 
	326.597,206.977 327.525,203.844 "/>
<path fill="#FFFFFF" d="M105.973,35.841l3.972,24.506l5.426-3.009l-0.911-4.389l6.823-3.783l3.325,3.052l5.616-3.113l-18.536-16.432
	L105.973,35.841z M113.359,48.025l-1.711-8.255l6.175,5.781L113.359,48.025z"/>
<path fill="#FFFFFF" d="M39.129,124.266c-3.508-1.419-6.681-1.557-9.527-0.422c-2.841,1.139-4.938,3.38-6.291,6.724
	c-1.349,3.342-1.392,6.396-0.128,9.165c1.269,2.773,3.652,4.864,7.161,6.281c3.522,1.422,6.699,1.567,9.531,0.442
	c2.833-1.132,4.922-3.354,6.259-6.667c1.351-3.343,1.396-6.415,0.137-9.21C45.011,127.786,42.632,125.681,39.129,124.266z
	 M41.563,137.942c-0.678,1.677-1.784,2.724-3.317,3.149c-1.537,0.422-3.408,0.188-5.627-0.709c-2.194-0.886-3.702-2.021-4.516-3.402
	c-0.817-1.375-0.891-2.898-0.218-4.564c0.683-1.687,1.804-2.741,3.359-3.168c1.558-0.428,3.426-0.198,5.599,0.68
	c2.208,0.893,3.715,2.032,4.523,3.414C42.176,134.732,42.239,136.266,41.563,137.942z"/>
<path fill="#FFFFFF" d="M37.172,153.048c-0.882-0.829-1.949-1.402-3.205-1.715c-1.303-0.323-2.475-0.249-3.527,0.23
	c-1.051,0.481-1.911,1.332-2.575,2.563c-0.163-1.268-0.57-2.28-1.224-3.035c-0.649-0.749-1.578-1.275-2.792-1.578
	c-1.97-0.491-3.581-0.223-4.848,0.8c-1.265,1.03-2.222,2.855-2.877,5.481l-2.742,10.999l22.666,5.651l2.208-8.861
	c0.275-1.098,0.483-2.024,0.626-2.775c0.141-0.744,0.239-1.389,0.287-1.935c0.087-1.044,0.022-1.97-0.189-2.776
	C38.658,154.897,38.053,153.875,37.172,153.048z M24.789,158.786l-1.16,4.66l-4.292-1.07l1.224-4.905
	c0.22-0.883,0.565-1.505,1.035-1.869c0.475-0.361,1.046-0.46,1.724-0.29c0.74,0.184,1.232,0.563,1.473,1.138
	C25.036,157.017,25.035,157.798,24.789,158.786z M34.016,161.384l-1.091,4.379l-5.005-1.248l1.238-4.969
	c0.259-1.035,0.665-1.764,1.213-2.197c0.545-0.427,1.233-0.541,2.052-0.336c0.915,0.228,1.497,0.663,1.743,1.31
	C34.414,158.966,34.366,159.987,34.016,161.384z"/>
<path fill="#FFFFFF" d="M55.138,105.779c-0.863-0.498-1.753-0.788-2.68-0.871c-0.924-0.078-1.839,0.057-2.754,0.41
	c-0.909,0.349-2.503,1.562-4.783,3.627l-0.19,0.165l-0.92,0.838c-2.239,2.015-3.803,2.765-4.689,2.254
	c-0.544-0.314-0.828-0.829-0.872-1.546c-0.035-0.714,0.188-1.492,0.67-2.326c0.596-1.031,1.285-1.697,2.067-1.989
	c0.776-0.295,1.665-0.231,2.652,0.192l2.814-4.874c-2.042-1.178-4.075-1.403-6.101-0.667c-2.025,0.737-3.74,2.322-5.145,4.756
	c-1.429,2.477-1.991,4.77-1.686,6.885c0.302,2.118,1.415,3.729,3.342,4.841c1.251,0.722,2.573,0.979,3.967,0.772
	c1.39-0.209,2.794-0.875,4.203-1.986c0.96-0.752,2.089-1.745,3.381-2.975c1.298-1.231,2.149-1.97,2.552-2.225
	c0.28-0.17,0.587-0.25,0.925-0.235c0.33,0.01,0.654,0.101,0.953,0.274c0.633,0.365,0.952,0.938,0.971,1.717
	c0.014,0.776-0.28,1.688-0.891,2.743c-0.716,1.242-1.546,2.02-2.486,2.316c-0.997,0.329-2.065,0.163-3.199-0.492l-2.871,4.976
	c1.19,0.687,2.386,1.096,3.581,1.223c1.098,0.121,2.171,0.004,3.224-0.353c1.993-0.681,3.749-2.336,5.264-4.962
	c1.602-2.775,2.287-5.261,2.056-7.458C58.259,108.613,57.14,106.936,55.138,105.779z"/>
<path fill="#FFFFFF" d="M137.813,21.166l2.142,5.58l1.518,3.783l1.962,4.565l-3.007-2.737c-1.042-0.922-2.124-1.837-3.238-2.729
	l-6.87-5.586l-6.038,2.317l8.371,21.808l5.402-2.073l-2.524-6.577l-1.319-3.227c-0.054-0.141-0.423-0.921-1.104-2.348
	c-0.23-0.479-0.449-0.988-0.657-1.527l3.228,2.785c0.524,0.442,1.004,0.848,1.454,1.215c0.447,0.37,0.88,0.724,1.308,1.071
	l7.112,5.729l6.023-2.313l-8.37-21.806L137.813,21.166z"/>
<path fill="#FFFFFF" d="M75.749,57.187l8.575,23.298l4.753-3.988l-1.732-4.135l5.975-5.015l3.846,2.362l4.92-4.129L80.754,52.988
	L75.749,57.187z M89.235,64.457l-3.911,3.281l-3.254-7.776L89.235,64.457z"/>
<rect x="60.736" y="73.606" transform="matrix(-0.7193 -0.6947 0.6947 -0.7193 71.3009 181.9867)" fill="#FFFFFF" width="23.359" height="5.967"/>
<path fill="#FFFFFF" d="M53.689,80.038l4.645,3.762l3.205,2.518l3.981,2.971l-3.972-0.866c-1.365-0.278-2.757-0.527-4.17-0.743
	l-8.742-1.403l-4.07,5.028l18.152,14.699l3.642-4.495l-5.473-4.434L58.13,94.94c-0.118-0.096-0.827-0.586-2.13-1.481
	c-0.439-0.3-0.883-0.63-1.333-0.995l4.187,0.8c0.675,0.121,1.294,0.233,1.867,0.325c0.571,0.097,1.123,0.188,1.668,0.274
	l9.022,1.406l4.061-5.015L57.321,75.553L53.689,80.038z"/>
<path fill="#FFFFFF" d="M358.572,101.46l-12.264,3.858l-2.514,0.78l-1.644,0.559c0.382-0.404,0.77-0.811,1.17-1.229
	c0.456-0.503,0.907-1.005,1.361-1.511l0.679-0.766l8.279-9.287l-3.457-5.32l-15.22,19.449l3.049,4.695l23.989-5.948L358.572,101.46z
	"/>
<path fill="#FFFFFF" d="M312.211,63.875l-2.885,3.439l3.984,3.345c-0.99,0.835-2.062,1.23-3.213,1.176
	c-1.152-0.049-2.26-0.521-3.331-1.417c-1.341-1.126-1.975-2.534-1.908-4.23c0.062-1.699,0.821-3.41,2.268-5.136
	c1.465-1.746,3.053-2.814,4.767-3.206c1.719-0.389,3.226-0.037,4.532,1.061c0.859,0.719,1.421,1.532,1.691,2.428
	c0.27,0.907,0.233,1.864-0.114,2.865l4.387,3.683c1.224-2.218,1.593-4.424,1.109-6.618c-0.485-2.196-1.77-4.164-3.861-5.918
	c-2.778-2.332-5.746-3.316-8.901-2.951c-3.148,0.358-5.957,2.001-8.41,4.926c-1.126,1.344-1.967,2.758-2.526,4.239
	c-0.556,1.491-0.793,2.975-0.719,4.464c0.081,1.488,0.43,2.848,1.06,4.083c0.624,1.238,1.516,2.34,2.676,3.313
	c1.231,1.035,2.51,1.71,3.84,2.036c1.331,0.318,2.713,0.296,4.143-0.077l-1.572,2.615l2.864,2.403l8.184-9.753L312.211,63.875z"/>
<path fill="#FFFFFF" d="M170.158,16.343c-2.163-1.664-4.95-2.196-8.363-1.593l-9.824,1.732l4.056,23.003l9.058-1.597
	c3.791-0.668,6.459-2.118,8-4.35c1.546-2.23,1.978-5.275,1.299-9.125C173.728,20.698,172.32,18.007,170.158,16.343z M168.013,30.737
	c-0.665,1.223-1.902,1.997-3.716,2.316l-3.202,0.565l-2.348-13.307l3.204-0.565c1.814-0.319,3.241-0.017,4.283,0.906
	c1.042,0.919,1.765,2.526,2.168,4.816C168.808,27.762,168.675,29.515,168.013,30.737z"/>
<path fill="#FFFFFF" d="M343.579,84.545c0.275-3.05-0.768-5.935-3.136-8.658c-2.367-2.721-5.065-4.145-8.107-4.276
	c-3.047-0.129-5.992,1.046-8.847,3.529c-2.866,2.492-4.438,5.257-4.72,8.292c-0.279,3.039,0.756,5.908,3.098,8.604
	c2.367,2.72,5.081,4.154,8.146,4.301c3.059,0.147,6.013-1.017,8.866-3.496C341.734,90.359,343.296,87.596,343.579,84.545z
	 M338.019,83.553c-0.325,1.583-1.378,3.143-3.148,4.681c-1.796,1.562-3.497,2.387-5.095,2.478c-1.607,0.092-3.002-0.545-4.187-1.911
	c-1.186-1.365-1.619-2.826-1.3-4.384c0.319-1.563,1.38-3.123,3.185-4.693c1.786-1.552,3.481-2.381,5.081-2.479
	c1.596-0.105,2.987,0.522,4.166,1.877C337.914,80.496,338.345,81.974,338.019,83.553z"/>
<path fill="#FFFFFF" d="M380.327,154.771l-24.698-2.506l1.5,6.02l4.476,0.257l1.888,7.569l-3.808,2.42l1.554,6.231l20.668-13.65
	L380.327,154.771z M367.882,163.706l-1.236-4.955l8.417,0.486L367.882,163.706z"/>
<path fill="#FFFFFF" d="M374.953,135.674l-5.541,2.238l-3.757,1.583l-4.529,2.041l2.682-3.054c0.905-1.059,1.799-2.155,2.673-3.286
	l5.465-6.966l-2.424-5.997l-21.658,8.75l2.168,5.366l6.532-2.64l3.203-1.375c0.14-0.055,0.912-0.438,2.33-1.146
	c0.473-0.238,0.977-0.465,1.515-0.682l-2.729,3.274c-0.433,0.532-0.831,1.019-1.19,1.475c-0.362,0.453-0.707,0.892-1.047,1.327
	l-5.604,7.21l2.417,5.982l21.658-8.75L374.953,135.674z"/>
<rect x="342.869" y="115.784" transform="matrix(0.883 -0.4695 0.4695 0.883 -14.258 180.3461)" fill="#FFFFFF" width="23.359" height="5.965"/>
<polygon fill="#FFFFFF" points="204.101,19.59 195.917,19.448 196.061,11.155 190.053,11.05 189.645,34.404 195.653,34.509 
	195.824,24.664 204.009,24.807 203.835,34.652 209.845,34.756 210.253,11.403 204.244,11.298 "/>
<polygon fill="#FFFFFF" points="214.449,35.295 232.438,37.503 233.021,32.765 220.963,31.283 221.57,26.324 232.248,27.636 
	232.818,22.993 222.14,21.681 222.643,17.594 234.325,19.028 234.909,14.272 217.295,12.109 "/>
<polygon fill="#FFFFFF" points="296.875,55.328 299.351,51.361 290.23,45.661 292.413,42.167 302.395,48.404 304.933,44.342 
	289.885,34.938 277.505,54.747 292.877,64.351 295.407,60.303 285.105,53.864 287.75,49.627 "/>
<path fill="#FFFFFF" d="M254.206,32.272c1.391-0.295,2.496-0.816,3.308-1.569c0.81-0.747,1.388-1.752,1.724-3.006
	c0.576-2.144,0.321-3.911-0.766-5.295c-1.081-1.383-3.052-2.459-5.9-3.223l-10.797-2.893l-6.046,22.563l5.748,1.54l2.262-8.44
	l3.856,1.034c1,0.268,1.698,0.674,2.091,1.216c0.387,0.54,0.513,1.262,0.372,2.167c-0.029,0.255-0.082,0.578-0.163,0.965
	c-0.084,0.394-0.225,0.954-0.42,1.687c-0.189,0.706-0.31,1.33-0.361,1.875c-0.056,0.541-0.06,1.056-0.01,1.54l6.051,1.621
	l0.208-0.779c-0.254-0.248-0.393-0.649-0.416-1.215c-0.023-0.561,0.084-1.294,0.324-2.194l0.408-1.875
	c0.215-0.8,0.335-1.495,0.357-2.101c0.024-0.598-0.024-1.099-0.146-1.507C255.649,33.605,255.084,32.904,254.206,32.272z
	 M253.339,26.856c-0.25,0.935-0.711,1.546-1.376,1.828c-0.67,0.279-1.579,0.265-2.729-0.042l-4.303-1.153l1.379-5.144l4.453,1.193
	c1.094,0.292,1.851,0.712,2.275,1.259C253.458,25.342,253.562,26.024,253.339,26.856z"/>
<polygon fill="#FFFFFF" points="282.521,36.301 284.437,31.998 267.199,24.323 265.282,28.626 275.757,33.288 259.18,41.203 
	257.277,45.475 274.938,53.337 276.839,49.065 265.943,44.214 "/>
<path fill="#FFFFFF" d="M344.479,298.096c-2.984-2.329-5.995-3.336-9.044-3.033c-3.046,0.313-5.681,1.889-7.901,4.73
	c-2.218,2.842-3.099,5.766-2.65,8.775c0.456,3.013,2.171,5.681,5.154,8.01c2.991,2.338,6.006,3.355,9.039,3.052
	c3.036-0.307,5.655-1.868,7.854-4.683c2.22-2.842,3.11-5.781,2.669-8.818C349.161,303.102,347.456,300.422,344.479,298.096z
	 M343.046,311.914c-1.112,1.424-2.464,2.126-4.055,2.112c-1.596-0.016-3.329-0.757-5.214-2.231
	c-1.866-1.458-3.003-2.964-3.403-4.514c-0.408-1.549-0.057-3.033,1.049-4.448c1.119-1.435,2.487-2.138,4.101-2.121
	c1.615,0.018,3.346,0.754,5.195,2.198c1.875,1.466,3.01,2.977,3.406,4.527C344.52,308.997,344.16,310.489,343.046,311.914z"/>
<polygon fill="#FFFFFF" points="102.336,338.616 105.321,334.931 90.272,322.746 87.288,326.431 92.488,330.642 80.771,345.109 
	85.421,348.875 97.138,334.408 "/>
<path fill="#FFFFFF" d="M114.189,359.083c0.69-1.152,0.962-2.294,0.811-3.441c-0.152-1.146-0.714-2.215-1.697-3.21
	c1.261,0.214,2.346,0.12,3.259-0.284c0.905-0.402,1.681-1.137,2.326-2.21c1.046-1.738,1.26-3.359,0.652-4.869
	c-0.614-1.512-2.082-2.961-4.4-4.355l-9.716-5.837l-12.031,20.021l7.828,4.703c0.97,0.586,1.793,1.052,2.471,1.41
	c0.67,0.352,1.259,0.635,1.767,0.841c0.974,0.388,1.876,0.595,2.71,0.63c1.241,0.046,2.396-0.234,3.445-0.836
	C112.664,361.045,113.522,360.191,114.189,359.083z M109.208,355.945c-0.484,0.807-1.071,1.238-1.762,1.284
	c-0.686,0.049-1.648-0.296-2.882-1.038l-3.869-2.324l2.657-4.422l4.389,2.636c0.915,0.549,1.494,1.152,1.746,1.803
	C109.737,354.532,109.643,355.221,109.208,355.945z M109.745,348.128l-4.116-2.474l2.278-3.791l4.333,2.604
	c0.781,0.468,1.274,0.98,1.486,1.537c0.207,0.559,0.133,1.133-0.227,1.731c-0.394,0.656-0.9,1.016-1.52,1.077
	C111.366,348.88,110.618,348.652,109.745,348.128z"/>
<rect x="313.324" y="318.012" transform="matrix(-0.7314 -0.682 0.682 -0.7314 343.7902 777.4058)" fill="#FFFFFF" width="23.359" height="5.966"/>
<polygon fill="#FFFFFF" points="50.075,290.394 45.382,282.264 49.568,279.849 54.973,289.212 59.175,286.786 50.795,272.271 
	30.565,283.95 33.54,289.102 41.19,284.685 45.883,292.815 "/>
<path fill="#FFFFFF" d="M69.304,306.164c0.645-2.994-0.041-5.986-2.057-8.975s-4.524-4.73-7.526-5.233
	c-3.008-0.499-6.073,0.31-9.211,2.425c-3.147,2.124-5.044,4.678-5.696,7.654c-0.646,2.984,0.03,5.957,2.028,8.919
	c2.015,2.988,4.538,4.743,7.559,5.262c3.019,0.519,6.093-0.275,9.226-2.389C66.765,311.712,68.653,309.158,69.304,306.164z
	 M60.211,308.765c-1.975,1.332-3.762,1.943-5.359,1.84c-1.606-0.105-2.913-0.911-3.923-2.409c-1.011-1.5-1.261-3.003-0.756-4.511
	c0.508-1.512,1.751-2.931,3.734-4.27c1.962-1.324,3.746-1.939,5.347-1.841c1.597,0.091,2.9,0.884,3.905,2.371
	c1.017,1.509,1.264,3.028,0.75,4.557C63.391,306.033,62.154,307.453,60.211,308.765z"/>
<path fill="#FFFFFF" d="M291.921,360.074c-0.392-0.402-0.803-1.018-1.228-1.847l-0.95-1.667c-0.375-0.736-0.755-1.334-1.142-1.799
	c-0.382-0.461-0.754-0.802-1.117-1.022c-0.698-0.416-1.586-0.56-2.661-0.442c0.835-1.148,1.307-2.276,1.408-3.377
	c0.102-1.1-0.14-2.233-0.731-3.39c-1.007-1.976-2.38-3.122-4.113-3.421c-1.727-0.305-3.913,0.214-6.542,1.552l-9.959,5.077
	l10.604,20.813l5.302-2.702l-3.967-7.784l3.559-1.815c0.922-0.471,1.713-0.635,2.366-0.495c0.651,0.144,1.226,0.596,1.728,1.363
	c0.149,0.21,0.325,0.484,0.524,0.826c0.2,0.347,0.472,0.858,0.817,1.533c0.332,0.651,0.66,1.196,0.986,1.637
	c0.321,0.438,0.663,0.824,1.022,1.15l5.581-2.843l-0.364-0.719C292.689,360.686,292.316,360.481,291.921,360.074z M280.754,352.13
	c-0.311,0.656-0.996,1.254-2.058,1.795l-3.969,2.023l-2.417-4.746l4.11-2.095c1.008-0.512,1.851-0.705,2.533-0.586
	c0.675,0.125,1.21,0.563,1.601,1.33C280.994,350.714,281.059,351.478,280.754,352.13z"/>
<path fill="#FFFFFF" d="M352.275,289.458c0.579,0.005,1.138,0.007,1.691,0.007l9.133-0.022l3.227-5.588l-20.23-11.678l-2.885,4.997
	l5.176,2.989l3.559,1.986l4.397,2.313l-4.057-0.235c-1.392-0.06-2.808-0.09-4.235-0.083l-8.854-0.017l-3.234,5.602l20.23,11.678
	l2.892-5.009l-6.1-3.522l-3.055-1.678c-0.132-0.077-0.908-0.449-2.336-1.13c-0.48-0.228-0.971-0.484-1.473-0.773l4.264,0.133
	C351.065,289.44,351.697,289.454,352.275,289.458z"/>
<path fill="#FFFFFF" d="M85.945,323.278c0.168-3.058-0.976-5.904-3.437-8.54c-2.458-2.638-5.206-3.966-8.251-3.995
	c-3.048-0.021-5.95,1.256-8.718,3.838c-2.778,2.591-4.252,5.409-4.429,8.451c-0.171,3.047,0.96,5.879,3.397,8.491
	c2.459,2.638,5.225,3.975,8.289,4.017c3.064,0.04,5.977-1.228,8.739-3.803C84.303,329.155,85.771,326.338,85.945,323.278z
	 M80.354,322.483c-0.27,1.593-1.268,3.187-2.982,4.786c-1.742,1.625-3.412,2.508-5.007,2.656c-1.603,0.148-3.02-0.443-4.251-1.764
	c-1.233-1.323-1.716-2.768-1.452-4.336c0.265-1.573,1.27-3.171,3.019-4.802c1.732-1.612,3.397-2.5,4.993-2.656
	c1.592-0.159,3.003,0.419,4.229,1.733C80.143,319.431,80.624,320.891,80.354,322.483z"/>
<path fill="#FFFFFF" d="M242.191,360.59c-2.273-1.509-5.09-1.844-8.452-1.007l-9.681,2.416l5.651,22.663l8.924-2.224
	c3.734-0.932,6.294-2.563,7.675-4.899c1.389-2.331,1.606-5.4,0.661-9.191C246.057,364.685,244.465,362.098,242.191,360.59z
	 M241.056,375.098c-0.579,1.267-1.757,2.124-3.544,2.572l-3.155,0.786l-3.27-13.111l3.155-0.788c1.788-0.443,3.23-0.242,4.336,0.605
	c1.104,0.846,1.936,2.396,2.5,4.653C241.641,372.075,241.632,373.833,241.056,375.098z"/>
<polygon fill="#FFFFFF" points="258.257,372.056 256.547,367.361 266.655,363.682 265.056,359.287 254.948,362.966 253.54,359.095 
	264.598,355.07 262.96,350.567 246.285,356.638 254.274,378.587 271.305,372.389 269.672,367.902 "/>
<path fill="#FFFFFF" d="M288.827,336.255l6.511,23.956l5.081-3.559l-1.363-4.271l6.389-4.474l3.626,2.687l5.26-3.681l-20.152-14.405
	L288.827,336.255z M301.628,344.672l-4.181,2.928l-2.565-8.032L301.628,344.672z"/>
<polygon fill="#FFFFFF" points="317.039,319.956 313.929,316.377 299.314,329.08 302.424,332.659 307.474,328.27 319.69,342.321 
	324.205,338.395 311.99,324.346 "/>
<polygon fill="#FFFFFF" points="149.551,355.994 143.79,354.344 137.351,376.798 153.982,381.567 155.377,376.701 144.507,373.583 
	"/>
<polygon fill="#FFFFFF" points="167.629,360.651 161.747,359.507 157.291,382.435 174.273,385.738 175.239,380.769 164.138,378.61 
	"/>
<path fill="#FFFFFF" d="M112.81,366.057l5.623,2.622l3.016-3.317l7.07,3.298l-0.515,4.481l5.819,2.715l2.399-24.656l-5.921-2.761
	L112.81,366.057z M129.411,363.734l-4.625-2.158l5.673-6.237L129.411,363.734z"/>
<polygon fill="#FFFFFF" points="186.381,386.599 192.328,386.808 192.636,377.978 202.015,378.306 202.185,373.471 192.804,373.141 
	192.974,368.311 203.778,368.689 203.946,363.841 187.197,363.256 "/>
<polygon fill="#FFFFFF" points="212.651,381.365 212.216,376.39 222.931,375.451 222.524,370.792 211.809,371.729 211.449,367.625 
	223.173,366.601 222.756,361.826 205.077,363.375 207.112,386.645 225.169,385.064 224.753,380.308 "/>
</svg>
