<?xml version="1.0" encoding="utf-8"?>
<!-- Generator: Adobe Illustrator 15.0.2, SVG Export Plug-In . SVG Version: 6.00 Build 0)  -->
<!DOCTYPE svg PUBLIC "-//W3C//DTD SVG 1.1//EN" "http://www.w3.org/Graphics/SVG/1.1/DTD/svg11.dtd">
<svg version="1.1" id="Layer_1" xmlns="http://www.w3.org/2000/svg" xmlns:xlink="http://www.w3.org/1999/xlink" x="0px" y="0px"
	 width="226.582px" height="300px" viewBox="0 0 226.582 300" enable-background="new 0 0 226.582 300" xml:space="preserve">
<g>
	<g>
		<polyline fill-rule="evenodd" clip-rule="evenodd" fill="#008558" points="39.485,37.101 42.982,48.08 54.121,48.08 45.181,54.91 
			48.514,65.89 39.485,59.138 30.458,65.89 33.872,54.91 24.844,48.08 35.989,48.08 39.485,37.101 		"/>
		<polyline fill-rule="evenodd" clip-rule="evenodd" fill="#008558" points="73.4,10.829 76.897,21.888 88.039,21.888 79.012,28.72 
			82.425,39.699 73.4,32.948 64.289,39.699 67.707,28.72 58.758,21.807 69.904,21.807 73.4,10.829 		"/>
		<polyline fill-rule="evenodd" clip-rule="evenodd" fill="#008558" points="153.832,10.829 157.246,21.888 168.477,21.888 
			159.443,28.72 162.861,39.699 153.832,32.948 144.805,39.699 148.219,28.72 139.199,21.807 150.336,21.807 153.832,10.829 		"/>
		<polyline fill-rule="evenodd" clip-rule="evenodd" fill="#008457" points="187.096,37.101 190.598,48.08 201.738,48.08 
			192.711,54.91 196.203,65.89 187.096,59.138 178.068,65.89 181.484,54.91 172.541,48.08 183.682,48.08 187.096,37.101 		"/>
		<polyline fill-rule="evenodd" clip-rule="evenodd" fill="#008558" points="113.497,1.639 116.99,12.699 127.889,12.699 
			119.105,19.53 122.525,30.509 113.497,23.757 104.47,30.509 107.883,19.53 98.855,12.617 110.077,12.617 113.497,1.639 		"/>
	</g>
	<path fill-rule="evenodd" clip-rule="evenodd" fill="#004B85" d="M113.414,52.39c3.902,0,7.641,0.325,11.467,1.136
		c0.975,0.244,1.789,0.488,2.764,0.733c6.428,2.032,12.039,5.042,17.408,9.191c6.992,5.935,13.742,12.037,21.146,17.483
		c3.818,2.685,7.721,5.043,11.869,7.155c1.875,0.898,3.744,1.709,5.693,2.523c2.604,0.978,5.211,1.789,7.889,2.521
		c-5.365,7.238-8.215,15.777-9.43,24.724c-0.488,3.906-0.488,7.647-0.572,11.549c-0.488,19.113-0.568,38.309-0.814,57.419
		c-0.242,2.683-0.65,5.125-1.299,7.729c-0.488,1.546-0.979,3.008-1.467,4.47c-1.625,4.069-3.576,7.482-6.016,10.979
		c-0.975,1.304-1.951,2.522-2.93,3.743c-3.334,3.579-6.83,6.505-10.816,8.944c-1.787,1.14-3.576,2.113-5.447,3.012
		c-10.246,4.064-20.578,8.214-29.689,14.229c-3.494,2.36-6.83,4.963-9.756,7.972c-2.846-3.009-6.262-5.611-9.759-7.972
		c-9.354-6.016-19.598-10.165-29.929-14.229c-1.789-0.898-3.58-1.872-5.372-3.012c-4.065-2.439-7.479-5.365-10.816-8.944
		c-1.053-1.221-2.03-2.439-3.008-3.743c-2.44-3.497-4.312-6.91-6.017-10.979c-0.489-1.462-0.978-2.924-1.383-4.47
		c-0.651-2.604-1.14-5.046-1.383-7.729c-0.166-19.11-0.246-38.306-0.731-57.419c-0.079-3.901-0.163-7.643-0.572-11.549
		c-1.219-8.946-4.064-17.485-9.433-24.724c2.686-0.732,5.288-1.544,7.888-2.521c1.954-0.814,3.826-1.625,5.693-2.523
		c4.149-2.112,7.972-4.471,11.878-7.155C67.79,75.487,74.62,69.385,81.614,63.45c5.284-4.149,10.899-7.159,17.324-9.191
		c1.057-0.245,2.03-0.489,3.091-0.733C105.849,52.715,109.592,52.39,113.414,52.39"/>
	<path fill-rule="evenodd" clip-rule="evenodd" fill="#174A7C" d="M113.414,255.547c-8.944-11.788-23.75-18.135-41.56-25.128
		c-16.673-7.968-29.439-24.072-30.99-43.269c-0.237-21.961-0.321-43.918-0.974-65.875c-1.14-14.723-7.562-25.864-14.964-31.396
		c24.239-3.007,36.922-16.425,53.595-30.334c10.654-8.623,22.774-12.446,34.893-12.201c12.197-0.245,24.072,3.578,34.645,12.201
		c16.676,13.909,29.445,27.327,53.68,30.334c-7.484,5.531-13.828,16.673-14.963,31.396c-0.652,21.957-0.736,43.914-0.979,65.875
		c-1.547,19.196-14.316,35.301-30.988,43.269C136.918,237.412,122.357,243.759,113.414,255.547"/>
	<path fill-rule="evenodd" clip-rule="evenodd" fill="#FFD659" d="M113.414,52.39c3.902,0,7.641,0.325,11.467,1.136
		c0.975,0.244,1.789,0.488,2.764,0.733c6.428,2.032,12.039,5.042,17.408,9.191c6.992,5.935,13.742,12.037,21.146,17.483
		c3.818,2.685,7.721,5.043,11.869,7.155c1.875,0.898,3.744,1.709,5.693,2.523c2.604,0.978,5.211,1.789,7.889,2.521
		c-5.365,7.238-8.215,15.777-9.43,24.724c-0.488,3.906-0.488,7.647-0.572,11.549c-0.488,19.113-0.568,38.309-0.814,57.419
		c-0.242,2.683-0.65,5.125-1.299,7.729c-0.488,1.546-0.979,3.008-1.467,4.47c-1.625,4.069-3.576,7.482-6.016,10.979
		c-0.975,1.304-1.951,2.522-2.93,3.743c-3.334,3.579-6.83,6.505-10.816,8.944c-1.787,1.14-3.576,2.113-5.447,3.012
		c-10.246,4.064-20.578,8.214-29.689,14.229c-3.494,2.36-6.83,4.963-9.756,7.972c-2.846-3.009-6.262-5.611-9.759-7.972
		c-9.354-6.016-19.598-10.165-29.929-14.229c-1.789-0.898-3.58-1.872-5.372-3.012c-4.065-2.439-7.479-5.365-10.816-8.944
		c-1.053-1.221-2.03-2.439-3.008-3.743c-2.44-3.497-4.312-6.91-6.017-10.979c-0.489-1.462-0.978-2.924-1.383-4.47
		c-0.651-2.604-1.14-5.046-1.383-7.729c-0.166-19.11-0.246-38.306-0.731-57.419c-0.079-3.901-0.163-7.643-0.572-11.549
		c-1.219-8.946-4.064-17.485-9.433-24.724c2.686-0.732,5.288-1.544,7.888-2.521c1.954-0.814,3.826-1.625,5.693-2.523
		c4.149-2.112,7.972-4.471,11.878-7.155C67.79,75.487,74.62,69.385,81.614,63.45c5.284-4.149,10.899-7.159,17.324-9.191
		c1.057-0.245,2.03-0.489,3.091-0.733C105.849,52.715,109.592,52.39,113.414,52.39"/>
	<g>
		<path fill-rule="evenodd" clip-rule="evenodd" fill="#1E508C" d="M75.919,214.64c6.669,3.822,13.419,7.24,20.008,10.411v-38.226
			h-14.07l17.082-17.646v-11.715H87.634l-17.083,17.73v-14.64H55.019c0.163,7.729,0.325,15.534,0.895,23.262
			C57.947,198.213,63.963,206.832,75.919,214.64"/>
		<path fill-rule="evenodd" clip-rule="evenodd" fill="#1E508C" d="M130.654,186.825v38.226c6.668-3.171,13.42-6.589,20.088-10.411
			c11.877-7.808,17.893-16.427,19.928-30.823c0.568-7.728,0.811-15.533,0.895-23.262h-15.455v14.64l-17.078-17.73h-11.387v11.715
			l17.16,17.646H130.654"/>
		<path fill-rule="evenodd" clip-rule="evenodd" fill="#1E508C" d="M156.109,124.285h15.943c0-0.325,0-0.652,0-0.979
			c0.404-7.808,2.033-15.45,5.125-22.688c-8.463-2.931-15.215-8.055-21.961-13.908c-6.748-7.484-14.314-15.208-24.563-18.87v30.092
			h14.15l-17.16,17.729v11.714h11.387l17.078-17.731V124.285"/>
		<path fill-rule="evenodd" clip-rule="evenodd" fill="#1E508C" d="M95.927,97.932V67.84c-10.165,3.662-17.811,11.386-24.478,18.87
			c-6.751,5.854-13.585,10.978-21.958,13.908c3.087,7.238,4.717,14.881,5.039,22.688c0.079,0.326,0.079,0.653,0.079,0.979h15.941
			v-14.642l17.083,17.731h11.305v-11.714L81.856,97.932H95.927"/>
	</g>
	<path fill-rule="evenodd" clip-rule="evenodd" fill="#008558" d="M171.807,135.748h-51.969V65.563h-12.766v70.186H54.855
		c0.08,4.479,0.08,8.869,0.08,13.342h52.137v79.946l6.342,4.227l6.422-4.227V149.09h51.891
		C171.727,144.617,171.727,140.228,171.807,135.748z"/>
	<polyline fill-rule="evenodd" clip-rule="evenodd" fill="#FFFFFF" points="139.031,157.464 156.109,175.194 156.109,109.644 
		139.031,127.375 127.645,127.375 127.645,115.661 144.805,97.932 81.856,97.932 98.938,115.661 98.938,127.375 87.634,127.375 
		70.551,109.644 70.551,175.194 87.634,157.464 98.938,157.464 98.938,169.179 81.856,186.825 144.805,186.825 127.645,169.179 
		127.645,157.464 139.031,157.464 	"/>
	<path fill-rule="evenodd" clip-rule="evenodd" fill="#1E508C" d="M115.365,132.253c-0.242,0-0.49,0-0.814,0h-6.913v20.253h7.728
		v-3.661h-2.765v-5.041h2.765v-3.658c-0.162,0.082-0.326,0.082-0.49,0.082c-0.324,0.076-0.893,0.076-1.703,0.076h-0.571v-4.307
		h2.274c0.164,0,0.328,0,0.49,0.078V132.253 M97.393,152.912c0.975,0,1.709,0,2.276-0.081c0.485-0.163,1.059-0.325,1.709-0.488
		c0.489-0.163,0.978-0.327,1.38-0.49c0.488-0.245,0.897-0.489,1.303-0.647v-4.718h-0.489c-0.241,0.163-0.488,0.407-0.894,0.729
		c-0.246,0.244-0.648,0.57-1.057,0.896c-0.488,0.244-0.979,0.488-1.546,0.732c-0.568,0.245-1.22,0.327-1.872,0.327
		c-0.646,0-1.22-0.082-1.87-0.327c-0.653-0.244-1.217-0.651-1.706-1.14c-0.488-0.571-0.897-1.218-1.223-2.114
		c-0.327-0.811-0.485-1.868-0.485-3.169c0-1.221,0.158-2.194,0.405-3.093c0.326-0.894,0.731-1.626,1.22-2.114
		c0.572-0.57,1.136-0.977,1.709-1.218c0.571-0.249,1.224-0.326,1.95-0.326c0.572,0,1.224,0.077,1.714,0.24
		c0.563,0.245,1.052,0.489,1.541,0.815c0.409,0.244,0.811,0.569,1.137,0.895c0.408,0.323,0.735,0.567,0.977,0.814h0.489v-4.882
		c-0.326-0.159-0.73-0.408-1.303-0.566c-0.489-0.244-0.974-0.488-1.462-0.571c-0.568-0.163-1.142-0.325-1.789-0.407
		c-0.568-0.081-1.304-0.162-2.114-0.162c-2.929,0-5.289,0.978-6.993,2.847c-1.712,1.951-2.603,4.473-2.603,7.729
		c0,3.332,0.891,5.935,2.603,7.724C92.104,152.016,94.464,152.912,97.393,152.912z M139.684,136.075v-3.822H126.59v20.253h4.881
		v-8.621h7.561v-3.903h-7.561v-3.906H139.684z M115.365,152.506v-3.661h0.084c0.488-0.081,0.977-0.163,1.461-0.407
		c0.49-0.162,0.816-0.488,0.979-0.895c0.242-0.409,0.326-0.811,0.326-1.301c0-0.651-0.084-1.14-0.326-1.462
		c-0.246-0.407-0.65-0.651-1.141-0.813c-0.322-0.082-0.648-0.163-1.221-0.163h-0.162v-3.658c0.246,0,0.408-0.082,0.572-0.164
		c0.402-0.244,0.646-0.489,0.811-0.815c0.162-0.325,0.242-0.73,0.242-1.136c0-0.327-0.08-0.734-0.242-1.06
		c-0.164-0.326-0.408-0.57-0.732-0.732c-0.242-0.082-0.404-0.163-0.65-0.163v-3.822c1.061,0,1.873,0.082,2.439,0.163
		c0.732,0.164,1.463,0.408,2.113,0.729c0.648,0.33,1.221,0.896,1.547,1.548c0.326,0.647,0.488,1.382,0.488,2.277
		c0,0.974-0.246,1.87-0.65,2.604c-0.486,0.811-1.137,1.38-2.035,1.707v0.163c1.223,0.244,2.197,0.813,2.934,1.624
		c0.73,0.815,1.135,1.871,1.135,3.254c0,0.976-0.242,1.952-0.568,2.685c-0.41,0.729-0.898,1.382-1.465,1.87
		c-0.813,0.654-1.627,1.055-2.523,1.302c-0.811,0.241-1.951,0.326-3.33,0.326H115.365z"/>
	<g>
		<path fill-rule="evenodd" clip-rule="evenodd" fill="#008558" d="M63.122,284.196c-1.099-1.311-2.743-2.193-4.83-2.523
			c1.867-0.545,3.293-1.425,4.284-2.637c0.989-1.095,1.426-2.629,1.426-4.387c0-2.742-0.88-4.725-2.747-6.039
			c-1.864-1.429-4.721-2.087-8.452-2.087h-0.439H40.179v31.179h12.185c4.284,0,7.357-0.769,9.335-2.083
			c2.084-1.429,3.182-3.623,3.182-6.59C64.88,287.054,64.221,285.409,63.122,284.196z M48.195,272.122h2.963
			c0.439,0,0.875,0,1.205,0.11c0.992,0.109,1.758,0.333,2.307,0.77c0.879,0.548,1.209,1.428,1.209,2.525
			c0,1.206-0.439,2.084-1.209,2.634c-0.655,0.439-1.314,0.659-2.307,0.875c-0.436,0-0.989,0.114-1.645,0.114h-2.523V272.122z
			 M55.329,291.008c-0.769,0.438-1.758,0.766-2.966,0.875c-0.22,0-0.546,0-0.876,0h-3.292v-7.243h3.622c0.216,0,0.439,0,0.546,0
			c1.321,0.109,2.307,0.325,3.076,0.875s1.095,1.539,1.095,2.743C56.534,289.471,56.098,290.349,55.329,291.008z"/>
		<path fill="#008558" d="M95.094,297.001l-3.535-9.619c-0.989-2.853-2.197-4.496-3.845-5.156c1.978-0.439,3.405-1.322,4.504-2.637
			c0.985-1.317,1.538-2.962,1.538-4.939c0-2.742-0.992-4.725-2.967-6.146c-1.973-1.322-4.939-1.98-9.004-1.98h-0.106H69.491v31.179
			h8.016v-12.188h1.205c1.209,0,2.197,0.114,2.967,0.439c0.22,0.11,0.439,0.225,0.548,0.333c0.77,0.55,1.314,1.534,1.756,2.854
			l2.745,8.562h8.018h0.545h0.36h7.218l2.303-6.589h6.043h5.817l2.189,6.589h8.783l-11.635-31.179h-5.155h-4.726L95.094,297.001
			 M84.425,279.036c-0.659,0.447-1.542,0.772-2.746,0.883c-0.44,0.109-0.77,0.109-1.208,0.109h-2.964v-8.016h2.084
			c0.769,0,1.428,0,2.088,0.109c1.098,0.22,1.977,0.443,2.632,0.88c0.989,0.661,1.429,1.647,1.429,3.072
			C85.739,277.392,85.3,278.378,84.425,279.036z M111.214,285.189h-3.956l3.956-11.526v-0.223l3.948,11.749H111.214z"/>
		<path fill-rule="evenodd" clip-rule="evenodd" fill="#008558" d="M149.855,266.852l-0.658,6.479
			c-1.209-0.548-2.418-0.988-3.625-1.208c-1.1-0.326-2.305-0.439-3.293-0.439c-1.758,0-2.967,0.225-3.955,0.77
			c-0.875,0.55-1.43,1.319-1.43,2.197c0,0.658,0.33,1.319,0.773,1.758c0.439,0.546,1.209,0.879,2.084,1.204
			c0.33,0.113,0.883,0.22,1.428,0.439c3.516,1.208,5.82,2.197,7.023,3.077c1.1,0.875,1.869,1.758,2.418,2.853
			c0.438,1.099,0.768,2.413,0.768,3.841c0,3.406-1.203,6.036-3.4,7.906c-2.309,1.751-5.604,2.634-9.771,2.634
			c-1.646,0-3.186-0.11-4.725-0.33c-1.533-0.215-3.072-0.553-4.281-0.984l0.66-6.918c1.205,0.656,2.527,1.204,3.951,1.537
			c1.322,0.33,2.637,0.547,3.846,0.547c1.645,0,2.854-0.33,3.842-0.985c0.875-0.553,1.428-1.429,1.428-2.523
			c0-1.212-1.539-2.417-4.5-3.515c-0.77-0.225-1.32-0.44-1.648-0.55c-2.967-1.095-5.051-2.308-6.369-3.736
			c-0.875-1.42-1.533-3.179-1.533-5.376c0-3.186,1.1-5.603,2.961-7.246c2.197-1.649,5.377-2.527,9.551-2.527
			c1.539,0,2.967,0.11,4.393,0.333C147.219,266.193,148.533,266.523,149.855,266.852z"/>
		<rect x="155.891" y="266.523" fill-rule="evenodd" clip-rule="evenodd" fill="#008558" width="8.123" height="31.179"/>
		<polygon fill-rule="evenodd" clip-rule="evenodd" fill="#008558" points="169.832,266.523 178.068,266.523 178.068,291.553 
			190.475,291.553 190.475,297.702 169.832,297.702 		"/>
	</g>
</g>
</svg>
