<?xml version="1.0" encoding="utf-8"?>
<!-- Generator: Adobe Illustrator 15.1.0, SVG Export Plug-In . SVG Version: 6.00 Build 0)  -->
<!DOCTYPE svg PUBLIC "-//W3C//DTD SVG 1.1//EN" "http://www.w3.org/Graphics/SVG/1.1/DTD/svg11.dtd">
<svg version="1.1" id="Layer_1" xmlns="http://www.w3.org/2000/svg" xmlns:xlink="http://www.w3.org/1999/xlink" x="0px" y="0px"
	 width="612px" height="792px" viewBox="0 0 612 792" enable-background="new 0 0 612 792" xml:space="preserve">
<g>
	<path fill="#DABD36" d="M66.804,60.051h477.194c-0.144,59.692-0.996,119.37-1.141,179.048c-0.735,19.7,0.145,39.4-0.62,59.086
		c-0.129,17.81,0.158,35.605-0.418,53.4c0.649,42.59-2.887,85.642-15.055,126.616c-10.478,35.647-28.388,69.276-53.399,96.869
		c-13.408,15.271-29.009,28.404-44.683,41.278c22.457-8.343,44.828-16.931,67.241-25.387c3.392,11.661,6.595,23.379,9.943,35.07
		c16.612-0.563,32.386,5.052,48.248,9.064c16.784,4.286,34.219,3.854,51.38,2.944c-7.505,6.855-15.299,13.551-21.158,21.936
		c-6.582,9.18-14.332,17.825-24.549,23.006c7.908,17.81,22.167,31.448,36.108,44.596c-15.297,0.203-30.77-0.015-45.707-3.723
		c-16.511-3.565-32.026-11.562-49.128-12.225c-8.5-0.549-16.93,0.967-25.199,2.771c-3.94-9.871-7.721-19.787-11.647-29.658
		c-49.142,14.23-98.256,28.592-147.368,42.966c-4.994,1.298-10.19,3.953-15.4,2.165c-51.553-15.14-103.163-30.078-154.73-45.203
		c-4.085,9.857-7.477,19.988-11.849,29.717c-9.136-1.906-18.502-3.436-27.84-2.237c-17.391,1.414-33.295,9.323-50.297,12.599
		c-13.74,2.931-27.854,2.988-41.839,2.787c14.014-13.119,28.316-26.758,36.269-44.597c-10.232-5.138-17.969-13.769-24.55-22.919
		c-5.917-8.343-13.696-15.024-21.114-21.966c17.535,0.967,35.374,1.27,52.505-3.233c15.443-4.055,30.871-9.295,47.05-8.818
		c3.305-11.676,6.553-23.352,9.887-35.013c22.515,8.414,44.972,17.016,67.471,25.487c-19.542-15.789-38.535-32.545-54.122-52.361
		c-30.308-37.51-47.237-84.256-54.251-131.608c-6.827-42.503-4.517-85.685-5.485-128.55
		C68.089,222.661,67.381,141.349,66.804,60.051L66.804,60.051z"/>
	<path d="M71.87,64.973c155.567-0.245,311.135-0.029,466.702-0.102c0.144,44.106-0.448,88.197-0.521,132.288
		c-0.995,19.252,0.36,38.535-0.881,57.772c-0.158,34.624,0.102,69.262-0.533,103.885c0.273,28.042-1.746,56.171-6.783,83.78
		c-6.509,35.995-19.051,71.238-39.386,101.821c-15.818,24.029-36.414,44.538-58.697,62.594
		c-10.708,8.847-21.852,17.174-32.517,26.078c31.102-11.661,62.104-23.567,93.219-35.172c6.365,22.516,12.874,45.002,18.993,67.588
		c-67.645,19.715-135.289,39.415-202.904,59.202c-4.374,1.485-8.675-0.953-12.86-1.949c-65.422-19.094-130.83-38.23-196.295-57.224
		c6.177-22.587,12.657-45.117,19.021-67.659c31.059,11.646,62.045,23.511,93.104,35.143c-17.203-14.231-35.359-27.364-51.625-42.72
		c-22.934-20.984-42.157-46.155-55.594-74.227C80.63,466.844,74.136,411.423,73.991,357.373c0.116-29.355-0.216-58.726-0.129-88.096
		c-1.27-19.7,0.086-39.443-0.924-59.143c-0.043-44.25-0.693-88.5-0.491-132.764C72.505,73.228,72.318,69.085,71.87,64.973
		L71.87,64.973z"/>
	<path fill="#DABD36" d="M121.402,96.146c9.353-7.302,22.918-6.682,32.993-1.197c0.015,2.439,0.029,4.863,0.058,7.303
		c-6.783-4.922-15.76-7.664-23.828-4.258c-11.301,5.311-12.08,23.323-3.103,31.116c8.125,6.206,19.585,3.42,27.061-2.497
		c-0.087,2.41-0.145,4.82-0.173,7.23c-7.433,4.532-16.684,5.297-25.012,3.219c-7.519-2.035-13.595-8.515-14.88-16.222
		C112.901,112.224,114.258,102.021,121.402,96.146L121.402,96.146z"/>
	<path fill="#DABD36" d="M180.171,92.365c2.742-0.015,5.484-0.015,8.226-0.029c6.322,15.154,12.701,30.265,18.993,45.434
		c-2.598-0.015-5.181-0.044-7.765-0.015c-1.53-3.867-3.075-7.735-4.619-11.618c-7.115,0.014-14.245,0.014-21.375,0
		c-1.53,3.854-3.06,7.722-4.633,11.56c-2.626,0.043-5.239,0.145-7.851,0.26C167.384,122.717,173.864,107.577,180.171,92.365
		L180.171,92.365z"/>
	<path fill="#DABD36" d="M213.453,92.062c3.506,0.015,7.014,0.015,10.535-0.028c3.479,6.552,6.668,13.263,10.506,19.613
		c3.378-6.523,6.683-13.076,10.074-19.585c3.565,0.03,7.129,0.03,10.709-0.028c-0.217,15.226-0.102,30.452-0.073,45.678
		c-2.367-0.015-4.72-0.015-7.086,0c-0.086-12.802,0-25.588-0.043-38.376c-3.348,6.552-6.769,13.062-10.103,19.614
		c-2.439-0.015-4.864-0.029-7.288-0.043c-3.349-6.582-6.74-13.133-10.218-19.628c0.159,12.801-0.015,25.617,0.101,38.433
		c-2.367-0.015-4.72-0.015-7.086,0C213.395,122.485,213.466,107.273,213.453,92.062L213.453,92.062z"/>
	<path fill="#DABD36" d="M268.945,91.644c8.875,0.029,17.752-0.015,26.628,0.043c0.043,1.891,0.087,3.767,0.13,5.657
		c-6.538-0.101-13.09-0.058-19.643-0.072c0,4.272,0,8.558,0.043,12.845c6.105,0.058,12.21,0.043,18.315,0.029
		c0,1.443,0.029,4.315,0.029,5.744c-6.119-0.145-12.253-0.101-18.373-0.087c-0.014,5.225-0.029,10.45,0,15.674
		c6.683,0.086,13.365,0.057,20.047,0.057c0,1.963,0,3.94,0,5.903c-9.049,0.014-18.098-0.029-27.147,0.043
		C268.988,122.197,269.046,106.928,268.945,91.644L268.945,91.644z"/>
	<path fill="#DABD36" d="M310.424,92.308c8.442,0.591,17.289-1.342,25.43,1.573c9.539,3.739,9.352,18.95,0.015,22.919
		c6.855,5.297,9.31,14,13.912,21.028c-2.799-0.058-5.585-0.116-8.37-0.13c-2.959-5.253-5.283-10.968-9.064-15.716
		c-3.724-4.345-9.871-2.815-14.865-3.074c-0.014,6.292-0.071,12.599,0.102,18.892c-2.396-0.044-4.792-0.073-7.188-0.102
		C310.438,122.572,310.38,107.447,310.424,92.308L310.424,92.308z"/>
	<path fill="#DABD36" d="M364.589,92.827c8.861-2.655,19.743-1.717,26.411,5.296c6.999,8.024,7.635,20.451,2.959,29.774
		c-7.837,14.664-32.357,14.779-40.426,0.318C347.125,116.208,350.444,97.532,364.589,92.827L364.589,92.827z"/>
	<path fill="#DABD36" d="M407.799,91.687c2.512,0,5.037,0,7.563,0.015c0.303,11.083-0.62,22.24,0.49,33.281
		c1.443,7.591,10.854,8.977,16.987,6.696c4.387-1.573,6.061-6.596,6.134-10.868c0.13-9.713-0.029-19.44,0.028-29.154
		c2.454,0,4.908,0,7.36,0c-0.172,10.709,0.376,21.433-0.288,32.112c-0.217,6.913-5.83,12.902-12.644,13.855
		c-6.61,0.851-14.157,1.111-19.771-3.118c-4.676-3.507-5.86-9.756-5.874-15.284C407.755,110.045,407.813,100.866,407.799,91.687
		L407.799,91.687z"/>
	<path fill="#DABD36" d="M459.063,91.629c3.218,0.015,6.422,0.058,9.641,0.102c6.913,12.181,14,24.246,21.101,36.312
		c0-12.109,0.028-24.232-0.015-36.34c2.353-0.029,4.719-0.044,7.086-0.058c-0.028,15.269,0.073,30.539-0.059,45.794
		c-3.102,0-6.191,0-9.279,0c-7.26-12.167-14.287-24.463-21.432-36.702c0.028,12.225,0.042,24.449,0,36.673
		c-2.338,0.014-4.662,0.029-6.985,0.043C458.99,122.183,459.092,106.913,459.063,91.629L459.063,91.629z"/>
	<path d="M317.467,97.979c4.719,0.16,9.698-0.664,14.188,1.155c4.66,2.598,4.834,9.872,0.331,12.686
		c-4.488,2.251-9.698,1.313-14.519,1.515C317.48,108.212,317.48,103.103,317.467,97.979L317.467,97.979z"/>
	<path d="M368.702,97.749c7.577-2.655,16.856,1.443,19.209,9.309c2.035,7.015,1.891,15.63-3.132,21.403
		c-6.509,7.693-21.173,5.816-24.709-3.926C355.828,115.342,358.181,101.429,368.702,97.749L368.702,97.749z"/>
	<path d="M175.813,120.653c2.742-7,5.557-13.971,8.515-20.884c2.872,6.927,5.628,13.913,8.486,20.869
		C187.142,120.681,181.47,120.667,175.813,120.653L175.813,120.653z"/>
	<path fill="#DABD36" d="M90.777,161.078c143.155,0,286.295,0,429.452,0c0.215,30.77-0.477,61.569,0.519,92.31
		c0.115,29.861-0.403,59.736,0.376,89.582c0.042,36.37-3.335,72.984-13.005,108.143c-10.91,40.512-30.394,78.932-57.945,110.683
		c-22.818,26.339-50.629,48.305-81.298,64.801c-20.48,11.243-42.085,20.147-63.633,29.096
		c-18.661-8.255-37.784-15.528-55.781-25.171c-39.342-19.887-74.572-48.404-100.882-83.88
		c-30.54-40.787-48.19-90.174-54.843-140.429c-5.181-36.239-3.94-72.955-3.45-109.426c-0.014-24.059,0-48.103,0-72.147
		C91.267,203.466,90.56,182.265,90.777,161.078L90.777,161.078z"/>
	<path fill="#479A50" d="M96.304,166.533c46.386-0.029,92.786-0.014,139.187,0c0.072,59.361-0.073,118.736,0.072,178.111
		c-18.214,15.659-32.156,36.629-37.264,60.298c-8.977,39.617,5.614,83.766,37.192,109.528c0.014,34.046,0.028,68.092,0,102.138
		c-41.97-24.694-77.979-60.024-101.489-102.831c-26.988-48.393-37.856-104.274-38.505-159.247
		c0.159-22.139-0.347-44.279,0.462-66.404C95.712,247.586,96.203,207.06,96.304,166.533L96.304,166.533z"/>
	<path fill="#ED1C24" d="M241.004,166.591c42.907-0.043,85.814-0.029,128.708-0.014c0.028,57.816,0,115.632,0.028,173.449
		c-16.986-11.763-37.092-19.672-57.873-20.451c-25.141-1.847-50.542,6.221-70.907,20.913
		C241.047,282.513,240.96,224.552,241.004,166.591L241.004,166.591z"/>
	<path fill="#FBD81B" d="M375.254,166.62c46.43-0.188,92.844-0.144,139.273-0.029c0.534,23.641-0.333,47.281,0.52,70.907
		c0.188,27.465-0.173,54.929,0.158,82.395c1.949,54.525-2.496,110.379-23.005,161.456c-21.967,56.675-64.195,104.908-116.86,135.087
		c-0.461-31.03,0.044-62.06-0.259-93.09c0.071-2.757-0.116-5.6,0.678-8.269c3.002-3.768,6.957-6.61,10.218-10.133
		c18.604-19.872,29.659-46.746,29.746-74.023c1.068-33.165-14.895-65.638-40.367-86.58
		C374.965,285.11,375.183,225.865,375.254,166.62L375.254,166.62z"/>
	<path fill="#DABD36" d="M295.76,232.345c3.132-9.8,6.191-19.642,9.641-29.327c3.362,9.713,6.351,19.571,9.583,29.341
		c10.219,0.029,20.437-0.029,30.653,0.029c-8.037,6.249-16.438,12.008-24.635,18.041c2.929,9.871,6.407,19.569,9.352,29.442
		c-8.472-5.846-16.626-12.109-25.069-17.983c-8.327,5.975-16.481,12.195-24.968,17.954c3.046-9.814,6.307-19.557,9.482-29.327
		c-8.299-6.003-16.597-12.022-24.838-18.098C275.223,232.288,285.499,232.418,295.76,232.345L295.76,232.345z"/>
	<path fill="#479A50" d="M291.474,324.193c9.309-1.472,18.849-1.544,28.158,0C310.25,323.659,300.84,323.674,291.474,324.193
		L291.474,324.193z"/>
	<path fill="#479A50" d="M285.297,325.853c-0.65-2.655,3.955-3.204,4.994-1.169C288.746,325.492,287.043,325.982,285.297,325.853
		L285.297,325.853z"/>
	<path d="M290.291,324.684l1.183-0.491c9.367-0.52,18.776-0.534,28.158,0l1.11,0.433c1.559,0.766,3.263,1.588,5.066,1.184
		l2.281-0.216c0.605,1.587,1.76,2.121,3.448,1.616l2.121-0.404l-0.216,2.136c-0.404,2.728-0.245,5.57,0.968,8.082l0.303,0.793
		l0.592,2.655c0.115,0.419,0.346,1.256,0.461,1.675c-10.117,6.336-20.018,13.033-30.033,19.542
		c-10.132-6.538-20.104-13.336-30.568-19.311l0.462-1.054c0.246-0.606,0.722-1.819,0.967-2.425c1.126-2.699,1.299-5.686,0.953-8.573
		c-0.072-0.794-0.202-2.381-0.274-3.175c2.655-0.534,5.311-1.154,8.024-1.299C287.043,325.982,288.746,325.492,290.291,324.684
		L290.291,324.684z"/>
	<path fill="#479A50" d="M320.742,324.626c1.112-1.891,5.527-1.414,5.066,1.184C324.005,326.214,322.301,325.392,320.742,324.626
		L320.742,324.626z"/>
	<path fill="#479A50" d="M328.09,325.594c1.976-1.126,3.131-0.578,3.448,1.616C329.85,327.715,328.695,327.181,328.09,325.594
		L328.09,325.594z"/>
	<path fill="#FFFFFF" d="M219.398,367.707c13.307-18.632,32.69-32.617,54.425-39.747c-0.461,3.666-0.909,7.346-1.356,11.027
		c-15.442,8.602-29.688,19.181-43.095,30.654C226.052,368.992,222.718,368.342,219.398,367.707L219.398,367.707z"/>
	<path fill="#479A50" d="M333.443,328.942l0.491-0.058c1.746,2.136,2.236,5.889,0.477,8.14
		C333.198,334.512,333.039,331.669,333.443,328.942L333.443,328.942z"/>
	<path fill="#FFFFFF" d="M337.397,328.018c21.837,6.985,41.205,21.1,54.671,39.646c-3.607,0.664-7.202,1.328-10.811,1.977
		c-10.103-9.048-20.912-17.319-32.271-24.723c-3.363-2.266-7.129-4.012-10.131-6.783
		C337.989,334.83,337.802,331.395,337.397,328.018L337.397,328.018z"/>
	<path fill="#479A50" d="M277.099,330.284l0.448,0.043c0.347,2.887,0.173,5.874-0.953,8.573
		C274.934,336.418,275.353,332.622,277.099,330.284L277.099,330.284z"/>
	<path fill="#479A50" d="M335.306,340.473c5.396,3.363,10.563,7.145,16.438,9.655c-0.838,0.65-1.646,1.343-2.425,2.05
		c-4.042-3.998-9.323-6.322-13.553-10.031C335.651,341.729,335.421,340.892,335.306,340.473L335.306,340.473z"/>
	<path fill="#479A50" d="M235.866,368.169c13.003-9.28,25.473-19.499,39.761-26.845l-0.462,1.054
		c-0.707,1.992-2.973,2.684-4.532,3.867c-12.585,7.361-24.073,16.367-35.561,25.286
		C235.274,370.695,235.664,369.006,235.866,368.169L235.866,368.169z"/>
	<path fill="#FFFFFF" d="M236.443,375.472c12.167-10.709,25.531-19.945,39.386-28.331c8.659,5.499,17.218,11.156,25.936,16.568
		c0.259,9.396,0.072,18.806,0.129,28.201c-9.034,6.351-17.896,12.946-26.815,19.455c-1.876,1.154-3.897,3.305-6.292,2.035
		c-8.198-2.439-16.236-5.354-24.448-7.75C241.552,395.634,239.185,385.502,236.443,375.472L236.443,375.472z"/>
	<path fill="#FFFFFF" d="M309.529,363.896c8.745-5.686,17.448-11.401,26.151-17.146c13.595,8.76,26.729,18.272,39.069,28.735
		c-2.657,9.915-5.255,19.845-7.65,29.816c-8.616,3.118-17.391,5.76-26.122,8.544c-9.354-6.609-18.561-13.392-27.912-20.003
		c-1.474-1.241-3.84-2.208-3.479-4.546C309.298,380.841,309.587,372.369,309.529,363.896L309.529,363.896z"/>
	<path fill="#479A50" d="M352.625,354.155c-0.174-0.909-0.521-2.742-0.708-3.651c9.511,7.837,19.757,14.764,28.691,23.294
		c-0.433,0.101-1.284,0.303-1.702,0.404C370.376,367.23,361.847,360.202,352.625,354.155L352.625,354.155z"/>
	<path d="M230.886,373.74c1.271-1.025,2.583-2.035,3.911-2.988c-0.779,1.242-1.587,2.469-2.453,3.666
		c2.15,9.742,5.051,19.296,7.245,29.039c0.245,1.27,0.75,3.823,1.01,5.094c-1.27,1.14-2.54,2.266-3.81,3.393
		c-7.404,6.118-14.577,12.57-22.284,18.313l-1.083,0.606c-0.418-0.158-1.271-0.505-1.689-0.678
		c-3.954-1.747-7.765-3.768-11.776-5.369c0.418-4.344,0.635-8.717,0.938-13.076l0.52-1.053c1.097-1.154,1.414-2.454,0.924-3.869
		l-0.621-2.049l1.184-0.938c0.216-0.708,0.649-2.137,0.88-2.858c0.707-4.487,2.526-8.731,4.344-12.859
		c1.819-3.681,3.666-7.332,5.456-11.027c0.982-1.948,2.049-3.853,3.392-5.57C221.665,371.705,226.239,373.105,230.886,373.74
		L230.886,373.74z"/>
	<path d="M380.608,373.798c4.474-0.968,8.977-1.761,13.479-2.627c10.263,15.919,16.611,34.363,17.421,53.327
		c-4.518,2.181-8.963,4.519-13.307,7.028c-1.329-1.024-2.641-2.049-3.955-3.073c-8.11-6.523-15.947-13.379-24.074-19.887
		c2.944-11.446,5.847-22.906,8.733-34.365C379.324,374.101,380.176,373.898,380.608,373.798L380.608,373.798z"/>
	<path fill="#479A50" d="M208.126,388.115c1.299-3.911,3.161-7.606,5.456-11.027C211.792,380.783,209.945,384.434,208.126,388.115
		L208.126,388.115z"/>
	<path d="M272.842,417.89c11.041-8.142,22.183-16.137,33.296-24.175c11.214,7.966,22.341,16.048,33.482,24.102
		c-4.027,12.151-8.528,24.174-11.85,36.543c-5.238,2.9-11.546,1.3-17.261,1.587c-8.587-0.634-17.362,0.751-25.805-1.313
		C281.486,442.178,276.869,430.113,272.842,417.89L272.842,417.89z"/>
	<path fill="#479A50" d="M202.542,401.364l1.241-0.391c-0.231,0.722-0.664,2.15-0.88,2.858l-0.809-1.011L202.542,401.364
		L202.542,401.364z"/>
	<path fill="#479A50" d="M239.589,403.457c0.793,1.746,1.602,3.492,2.424,5.238c-1.747,1.083-3.478,2.165-5.224,3.248
		c1.27-1.127,2.54-2.253,3.81-3.393C240.34,407.28,239.834,404.727,239.589,403.457L239.589,403.457z"/>
	<path fill="#479A50" d="M201.416,410.688c-1.674-1.876-1.371-3.176,0.924-3.869C202.83,408.233,202.513,409.533,201.416,410.688
		L201.416,410.688z"/>
	<path fill="#479A50" d="M199.958,424.816c-0.418-4.388,0.043-8.774,0.938-13.076C200.593,416.1,200.376,420.473,199.958,424.816
		L199.958,424.816z"/>
	<path fill="#FFFFFF" d="M217.738,432.912c8.14-6.624,16.107-13.45,24.304-19.988c9.367,3.319,18.834,6.335,28.259,9.511
		c3.839,11.301,7.664,22.602,11.301,33.974c-5.874,8.054-11.733,16.121-17.521,24.247c-10.536-0.52-21.057-1.039-31.578-1.717
		C226.6,463.942,221.304,448.645,217.738,432.912L217.738,432.912z"/>
	<path fill="#FFFFFF" d="M342.117,422.104c9.007-3.305,18.229-5.961,27.307-9.094c8.053,6.668,16.063,13.394,24.116,20.076
		c-4.2,15.457-8.458,31.073-15.168,45.649c-10.146,1.357-20.494,1.068-30.699,1.993c-5.772-7.809-11.56-15.603-17.188-23.511
		C334.353,445.513,338.38,433.851,342.117,422.104L342.117,422.104z"/>
	<path fill="#479A50" d="M394.247,428.453c1.314,1.024,2.626,2.049,3.955,3.073l0.938,0.737
		c-4.099,17.507-9.54,34.768-17.247,51.047c0.621,1.486,1.241,2.987,1.861,4.488c-0.994-1.674-1.991-3.333-3.002-4.993
		c-0.98,0.014-2.929,0.029-3.911,0.044c1.401-0.188,2.815-0.375,4.23-0.564c6.668-16.452,12.281-33.382,16.322-50.671
		C396.341,430.546,395.286,429.493,394.247,428.453L394.247,428.453z"/>
	<path fill="#FFFFFF" d="M199.337,428.641c3.233,1.746,7.087,2.786,9.742,5.412c3.998,17.016,9.193,33.742,15.804,49.937
		c-1.603,2.873-3.161,5.773-4.719,8.688C206.64,474.204,199.41,451.503,199.337,428.641L199.337,428.641z"/>
	<path fill="#479A50" d="M211.734,430.186c0.418,0.173,1.271,0.52,1.689,0.678l1.083-0.606c-0.173,0.534-0.505,1.616-0.664,2.151
		c1.486,5.556,3.103,11.083,4.142,16.74l-0.491-0.62C213.64,443.318,214.073,436.146,211.734,430.186L211.734,430.186z"/>
	<path fill="#FFFFFF" d="M402.416,433.62c3.175-1.717,6.38-3.405,9.598-5.052c0.49,23.006-7.289,45.853-20.928,64.312
		c-1.688-3.089-3.607-6.076-4.922-9.353c0.304-1.862,1.156-3.594,1.849-5.325C394.247,463.856,398.837,448.832,402.416,433.62
		L402.416,433.62z"/>
	<polygon points="217.493,448.528 217.984,449.148 217.421,449.597 216.916,448.991 217.493,448.528 	"/>
	<path fill="#479A50" d="M216.916,448.991l0.505,0.605c1.89,1.659,2.439,4.171,3.218,6.465c2.685,8.905,5.96,17.622,9.482,26.224
		c1.342,0.174,2.684,0.347,4.041,0.55c-1.01-0.016-3.016-0.029-4.012-0.029c-0.981,1.631-1.919,3.291-2.843,4.95
		c0.39-0.866,1.169-2.626,1.559-3.507C224.392,472.688,219.369,461.201,216.916,448.991L216.916,448.991z"/>
	<path fill="#479A50" d="M284.705,454.634c8.443,2.063,17.218,0.679,25.805,1.313c5.715-0.287,12.022,1.313,17.261-1.587
		c-0.374,0.534-1.14,1.587-1.528,2.121c-11.951,0.534-23.916-0.36-35.88-0.1C288.356,456.265,285.758,456.899,284.705,454.634
		L284.705,454.634z"/>
	<path fill="#FFFFFF" d="M288.919,459.829c11.301-0.217,22.602,0.304,33.916,0.505c6.034,8.443,12.268,16.742,18.229,25.229
		c-3.896,9.524-7.678,19.108-11.301,28.735c-16.077,1.124-32.241,0.952-48.305-0.404c-3.564-9.525-7.115-19.08-10.968-28.49
		C276.984,477.134,282.699,468.315,288.919,459.829L288.919,459.829z"/>
	<path d="M230.15,482.806c0.996,0,3.002,0.014,4.012,0.029c2.425,0,4.835,0.216,7.245,0.505c7.202,0.996,14.476,1.011,21.735,0.967
		c0.692,0,2.107,0,2.814,0c4.272,11.056,8.328,22.183,12.831,33.151c3.738,0.187,7.49,0.462,11.242,0.707
		c-2.021,0.188-4.026,0.391-6.018,0.606c-1.934,0.071-3.854-0.072-5.744-0.463c-2.901,2.699-5.484,5.717-8.458,8.343
		c-0.577,0.087-1.761,0.261-2.352,0.347c-1.588-0.289-3.175-0.606-4.734-0.953c-9.323-3.594-17.708-9.425-25.401-15.716
		c-3.074-2.873-6.105-5.787-9.135-8.703c-1.819-1.833-3.565-3.738-5.283-5.644c1.443-2.757,2.829-5.542,4.402-8.227
		C228.231,486.097,229.169,484.437,230.15,482.806L230.15,482.806z"/>
	<path fill="#479A50" d="M241.408,483.34c7.26-0.058,14.505,0.245,21.735,0.967C255.884,484.351,248.61,484.336,241.408,483.34
		L241.408,483.34z"/>
	<path fill="#479A50" d="M349.246,484.293c6.726-0.752,13.51-1.011,20.279-0.925C362.799,484.307,356.016,484.336,349.246,484.293
		L349.246,484.293z"/>
	<path d="M369.525,483.368c2.424-0.303,4.863-0.505,7.315-0.519c0.982-0.015,2.931-0.03,3.911-0.044
		c1.011,1.66,2.008,3.319,3.002,4.993c1.617,2.671,3.032,5.442,4.489,8.197c-5.47,6.235-11.041,12.629-18.098,17.09
		c-2.137,1.009-4.041,2.395-5.729,4.04c-6.308,5.109-13.928,8.184-21.26,11.475c-3.578-3.522-6.899-7.348-10.982-10.306
		c0.505-1.24,1.024-2.468,1.543-3.694c3.926-10.089,8.199-20.062,11.777-30.28c0.938,0,2.814-0.014,3.752-0.027
		C356.016,484.336,362.799,484.307,369.525,483.368L369.525,483.368z"/>
	<path fill="#479A50" d="M228.188,501.626c3.03,2.916,6.061,5.83,9.135,8.703C233.845,507.919,230.8,504.944,228.188,501.626
		L228.188,501.626z"/>
	<path fill="#479A50" d="M364.416,517.126c1.688-1.646,3.593-3.031,5.729-4.04C370.766,515.711,366.725,518.324,364.416,517.126
		L364.416,517.126z"/>
	<path fill="#479A50" d="M332.376,517.531c0.347-0.722,1.01-2.195,1.341-2.931c-0.519,1.227-1.038,2.454-1.543,3.694l-0.492,1.198
		c-15.859,0.678-31.953,2.078-47.669-0.722c1.992-0.216,3.998-0.419,6.018-0.606C304.131,518.425,318.274,518.728,332.376,517.531
		L332.376,517.531z"/>
	<path fill="#ED1C24" d="M240.989,518.771c37.106,27.319,91.387,27.363,128.738,0.462c0,33.569-0.015,67.125,0,100.681
		c-17.377,9.9-35.648,18.098-54.136,25.675c-3.508,1.328-6.842,3.465-10.594,3.883c-21.865-8.602-43.471-18.084-63.964-29.63
		C240.946,586.156,241.033,552.456,240.989,518.771L240.989,518.771z"/>
	<path fill="#FFFFFF" d="M279.481,522.538c17.491,1.386,35.055,1.516,52.578,0.361c2.337,2.496,4.661,5.021,6.984,7.577
		c-21.648,6.913-45.39,6.984-67.01-0.102C274.559,527.806,277.07,525.222,279.481,522.538L279.481,522.538z"/>
	<path fill="#479A50" d="M262.724,526.045c1.559,0.347,3.146,0.664,4.734,0.953c0.591-0.086,1.775-0.26,2.352-0.347
		C270.475,530.967,262.393,529.394,262.724,526.045L262.724,526.045z"/>
	<path d="M50.756,641.678c17.708-3.03,34.623-11.229,52.923-10.146c-3.464,12.413-7.101,24.767-10.55,37.18
		c10.391,12.555,20.335,25.472,30.669,38.072c-8.385-0.376-16.915-0.896-25.185,0.909c-13.638,2.727-26.484,8.356-40.05,11.343
		c-9.972,2.165-20.176,3.363-30.395,3.378c12.34-12.354,23.886-26.094,29.847-42.749c-17.94-5.225-26.166-23.366-38.16-35.98
		C30.175,643.973,40.595,643.699,50.756,641.678L50.756,641.678z"/>
	<path fill="#DABD36" d="M135.271,657.294c2.973-8.805,5.99-17.594,8.991-26.383c6.495,1.905,13.004,3.825,19.542,5.657
		c-0.562,1.502-1.083,3.03-1.587,4.562c-4.59-1.328-9.193-2.655-13.797-3.955c-0.635,2.021-1.285,4.07-1.935,6.12
		c3.911,1.126,7.837,2.28,11.734,3.448c-0.318,1.126-0.953,3.363-1.271,4.489c-4.026-1.055-8.024-2.179-12.022-3.291
		c-1.241,3.71-2.497,7.419-3.738,11.127C139.211,658.463,137.249,657.871,135.271,657.294L135.271,657.294z"/>
	<path fill="#DABD36" d="M448.57,638.257c7.809-2.223,15.66-4.315,23.482-6.538c0.273,1.17,0.822,3.522,1.111,4.69
		c-2.915,0.81-5.787,1.675-8.674,2.526c1.832,7.505,3.737,15.01,5.426,22.559c-2.035,0.461-4.041,0.967-6.062,1.472
		c-1.832-7.491-3.551-14.995-5.498-22.456c-2.988,0.821-5.961,1.645-8.919,2.468C449.221,641.808,448.788,639.441,448.57,638.257
		L448.57,638.257z"/>
	<path d="M507.224,631.518c14.261-0.779,27.897,3.982,41.465,7.635c13.841,3.796,28.287,5.167,42.619,4.489
		c-8.053,8.067-13.897,17.982-21.894,26.078c-4.547,4.677-10.378,7.852-16.512,9.901c5.917,16.654,17.463,30.352,29.717,42.749
		c-13.351,0.014-26.715-1.949-39.516-5.745c-12.022-3.421-23.727-8.299-36.226-9.828c-6.494-0.636-13.032-0.289-19.541-0.115
		c10.16-12.715,19.988-25.703,30.495-38.131C514.181,656.24,510.718,643.871,507.224,631.518L507.224,631.518z"/>
	<path fill="#DABD36" d="M182.033,641.909c6.999,1.978,13.927,4.156,20.97,5.975c-0.26,1.17-0.765,3.521-1.024,4.69
		c-5.239-1.355-10.421-2.9-15.63-4.344c-0.649,1.905-1.299,3.81-1.92,5.729c4.749,1.313,9.483,2.713,14.231,3.998
		c-0.549,1.516-1.068,3.06-1.574,4.604c-4.748-1.386-9.482-2.785-14.259-4.056c-0.736,2.339-1.515,4.661-2.266,7
		c5.224,1.486,10.435,3.06,15.688,4.503c-0.462,1.559-0.909,3.117-1.357,4.704c-7.23-2.149-14.475-4.271-21.735-6.335
		C176.101,659.56,179.074,650.742,182.033,641.909L182.033,641.909z"/>
	<path fill="#DABD36" d="M417.613,646.167c4.012-0.592,8.617-0.867,12.094,1.631c4.662,3.421,6.381,9.741,5.745,15.283
		c-1.529,9.194-12.397,13.682-20.726,11.459c-9.497-3.204-12.455-17.882-4.791-24.42C412.043,648.087,414.8,646.831,417.613,646.167
		L417.613,646.167z"/>
	<path d="M417.152,651.521c3.275-1.862,7.692-0.81,9.799,2.322c2.41,3.104,1.833,7.217,2.136,10.897
		c-2.295,2.728-5.138,5.513-9.006,5.369C411.465,669.272,408.55,654.639,417.152,651.521L417.152,651.521z"/>
	<path fill="#DABD36" d="M217.421,678.509c-4.979-8.831,1.645-22.586,12.296-22.542c6.74-0.361,14.072,4.388,13.84,11.718
		c-2.064-0.015-4.127-0.028-6.177-0.028c0.073-4.445-4.344-7.635-8.544-6.61c-4.156,1.227-5.96,5.729-6.797,9.599
		c-1.559,4.026,1.819,9.136,6.278,8.832c2.858,0.317,4.662-2.296,6.711-3.824c1.675,1.082,3.363,2.164,5.052,3.247
		C234.899,686.636,222.371,686.201,217.421,678.509L217.421,678.509z"/>
	<path fill="#DABD36" d="M368.89,659.56c5.384-1.805,12.268-1.805,16.323,2.742c3.708,4.474,4.835,10.983,2.959,16.468
		c-3.911,8.674-16.9,12.18-24.334,6.004C356.146,677.542,358.152,662.648,368.89,659.56L368.89,659.56z"/>
	<path d="M371.632,663.904c6.09-2.569,11.199,3.854,11.056,9.511c1.053,6.004-5.773,10.795-11.272,8.891
		C364.069,679.288,362.973,666.111,371.632,663.904L371.632,663.904z"/>
	<path fill="#DABD36" d="M252.521,691.613c6.61-7.88,13.408-15.587,20.076-23.409c1.905,0.477,3.795,1.025,5.657,1.661
		c1.891,9.827,1.891,19.974,2.93,29.932c-2.122-0.664-4.214-1.342-6.307-2.034c-0.202-2.194-0.361-4.373-0.52-6.552
		c-3.651-1.083-7.288-2.151-10.925-3.264c-1.573,1.719-3.103,3.465-4.676,5.211C256.677,692.639,254.599,692.119,252.521,691.613
		L252.521,691.613z"/>
	<path fill="#DABD36" d="M318.087,673.905c6.798-1.645,13.495-3.695,20.263-5.441c0.448,1.545,0.896,3.09,1.372,4.633
		c-4.851,1.256-9.685,2.583-14.49,3.969c0.548,2.079,1.111,4.172,1.66,6.279c4.084-1.185,8.169-2.339,12.281-3.421
		c0.317,1.168,0.953,3.492,1.271,4.662c-4.187,1.111-8.356,2.266-12.499,3.463c1.011,3.781,1.963,7.563,2.958,11.345
		c-2.033,0.576-4.068,1.141-6.09,1.717C322.504,692.062,320.151,683.012,318.087,673.905L318.087,673.905z"/>
	<path d="M103.087,671.813c12.902,3.724,25.791,7.533,38.708,11.257c-3.42,8.516-6.74,17.06-10.132,25.59
		C122.081,696.42,112.526,684.152,103.087,671.813L103.087,671.813z"/>
	<path d="M469.194,683.012c12.47-3.593,24.968-7.129,37.381-10.939c-9.266,12.052-17.982,24.535-27.379,36.485
		C475.862,700.043,472.398,691.571,469.194,683.012L469.194,683.012z"/>
	<path d="M266.722,684.036c2.194-2.914,4.489-5.743,6.783-8.571c0.246,3.521,0.462,7.07,0.577,10.621
		C271.629,685.38,269.161,684.73,266.722,684.036L266.722,684.036z"/>
</g>
</svg>
