<?xml version="1.0" encoding="utf-8"?>
<!-- Generator: Adobe Illustrator 15.1.0, SVG Export Plug-In . SVG Version: 6.00 Build 0)  -->
<!DOCTYPE svg PUBLIC "-//W3C//DTD SVG 1.1//EN" "http://www.w3.org/Graphics/SVG/1.1/DTD/svg11.dtd">
<svg version="1.1" id="Layer_1" xmlns="http://www.w3.org/2000/svg" xmlns:xlink="http://www.w3.org/1999/xlink" x="0px" y="0px"
	 width="612px" height="792px" viewBox="0 0 612 792" enable-background="new 0 0 612 792" xml:space="preserve">
<g>
	<path fill="#D2332A" d="M281.54,102.91c54.07-4.65,109.45,5.93,157.82,30.65c38.12,19.38,71.939,47.18,98.279,80.88
		c37.63,47.83,59.801,107.68,62,168.53c0.011,6.01,0.98,12,0.2,18.011c-0.78,44.77-12.04,89.35-32.729,129.069
		C538.97,584.28,493.55,629.38,438.97,656.9C405.41,673.93,368.49,684.24,331,687.36c-45.48,3.87-91.86-3.141-134.15-20.311
		c-35.04-14.109-67.32-35.12-94.33-61.52c-43.56-42.011-73.59-97.87-84.3-157.45c-12.37-66.81-0.68-137.81,32.93-196.91
		c35.14-62.55,93.98-111.45,162.12-134.07C235.34,109.65,258.33,104.97,281.54,102.91L281.54,102.91z"/>
	<path fill="#063DA7" d="M289.32,113.32c9.22-0.54,18.47-0.06,27.7-0.27c59.03,1.58,117.04,23.17,163.521,59.44
		c26.79,20.85,49.7,46.61,67.47,75.53c33.681,54.33,47.76,120.5,39.16,183.83c-4.91,39.96-19.1,78.631-40.439,112.73
		c-29.95,47.77-74.301,86.5-125.961,109.18c-30.52,13.561-63.489,21.36-96.789,23.471c-64.13,4.05-129.391-15.08-181.4-52.801
		c-34.79-25.01-63.66-58.09-84.06-95.76c-22.31-40.79-33.5-87.29-33.8-133.68c0.39-38.6,8.03-77.24,23.75-112.57
		c12.96-29.4,30.75-56.74,52.91-80.04c3.54-4.13,7.28-8.1,11.45-11.59c42.47-40.61,97.88-67.66,156.19-75.4
		C275.78,114.62,282.52,113.64,289.32,113.32L289.32,113.32z"/>
	<path fill="#FCFCFD" d="M286.58,126.81c3.36-0.36,6.7-0.87,10.03-1.45c2.48,17.88,3.82,35.91,6.18,53.81
		c-5.55,0.77-11.14,1.42-16.75,1.51c-4.28-13.28-8.4-26.63-13.22-39.73c1.25,13.72,2.89,27.4,4.46,41.08
		c-3.47,0.3-6.93,0.67-10.4,0.9c-1.69-17.82-3.88-35.59-5.73-53.39c5.92-0.83,11.88-1.29,17.81-1.95
		c3.8,11.83,7.58,23.67,11.49,35.46C289.43,150.94,287.93,138.88,286.58,126.81L286.58,126.81z"/>
	<path fill="#FCFCFD" d="M349.14,183.49c4.33-17.45,9.2-34.75,13.78-52.12c6.16,1.77,12.43,3.16,18.54,5.1
		c3.4,1.16,6.98,3.17,8.31,6.71c1.65,4.12,0.801,8.66-0.3,12.81c-1.779,6.52-3.529,13.04-5.229,19.58
		c-0.95,3.27-2.09,6.67-4.55,9.14c-3.23,3.43-8.37,4.53-12.881,3.49C360.86,186.88,354.96,185.31,349.14,183.49L349.14,183.49z"/>
	<path fill="#FCFCFD" d="M229.41,135.59c3.33-0.85,6.91-1.33,10.18,0.02c3.82,1.26,5.84,5.08,7.04,8.65
		c2.89,8.7,5.36,17.54,8.12,26.29c1.33,4.65,1.59,10.4-2.03,14.13c-4.58,5.271-12.17,6.88-18.84,5.771
		c-4.05-0.58-7.5-3.74-8.71-7.61c-2.87-8.54-5.27-17.21-8.01-25.79c-1.29-4.14-2.29-8.8-0.37-12.91
		C219.08,139.24,224.37,136.7,229.41,135.59L229.41,135.59z"/>
	<path fill="#063DA7" d="M373.52,141.9c2,1.09,5.07,2.19,4.641,5.06c-0.811,6.3-3.141,12.26-4.561,18.43
		c-1.409,4.96-1.979,10.4-5.38,14.52c-1.609-0.32-3.21-0.63-4.8-0.95C366.83,166.62,369.83,154.16,373.52,141.9L373.52,141.9z"/>
	<path fill="#063DA7" d="M228.34,144.07c1.58,0.12,3.17,0.25,4.75,0.32c3.25,8.54,5.4,17.43,8.3,26.09c1.09,3.21,1.9,6.52,2.33,9.89
		c-1.73,1.06-4.68,2.25-5.73-0.34c-3.66-9.43-5.95-19.33-9.25-28.89C227.78,148.88,227.88,146.44,228.34,144.07L228.34,144.07z"/>
	<path fill="#FCFCFD" d="M405.9,144.67c8.09,3.27,15.81,7.39,23.89,10.69c-0.93,2.7-1.95,5.36-3.13,7.96
		c-4.16-1.86-8.29-3.79-12.49-5.54c-1.45,3.42-3.03,6.79-4.53,10.18c3.801,1.81,7.591,3.66,11.48,5.29
		c-0.78,2.66-1.811,5.24-2.99,7.75c-4.18-1.43-8.08-3.53-12.13-5.27c-2.11,5.33-5.09,10.32-6.8,15.78
		c3.89,1.96,7.979,3.51,11.87,5.47c-1.03,2.58-2.141,5.12-3.261,7.66c-8.21-3.31-16.02-7.5-24.25-10.74
		C390.93,177.46,398.51,161.11,405.9,144.67L405.9,144.67z"/>
	<path fill="#FCFCFD" d="M190.15,152.17c3.82-1.8,7.65-3.58,11.65-4.94c7.6,16.2,14.18,32.85,21.78,49.05
		c-3.9,1.83-7.89,3.47-11.8,5.26C204.21,185.25,197.06,168.75,190.15,152.17L190.15,152.17z"/>
	<path fill="#FCFCFD" d="M166.97,163.04c3.72-2.14,8.3-3.79,12.57-2.37c5.2,2.17,7.75,7.58,10.18,12.29
		c-3.61,2.3-7.27,4.56-11.19,6.3c-1.81-3.37-3.89-6.6-6.54-9.38c-1.24,0.97-2.46,1.94-3.66,2.94c5.25,10.44,11.79,20.18,17.77,30.21
		c1.22,2.49,4.12,1.24,5.91,0.22c-1.24-4.45-3.92-8.25-6.32-12.12c3.75-2.15,7.46-4.36,11.17-6.58c3.23,4.95,7.18,10.3,6.5,16.56
		c-2.24,9.38-12.96,15.37-22.2,13.38c-4.18-1.4-6.59-5.36-8.79-8.9c-4.21-7.05-8.5-14.06-12.66-21.14
		c-2.51-4.16-3.32-9.62-1.11-14.08C160.65,167.23,163.79,164.96,166.97,163.04L166.97,163.04z"/>
	<path fill="#FCFCFD" d="M440.02,225.18c11.711-13.63,23.511-27.18,35.171-40.85c6.829,5.59,13.26,11.67,20.21,17.11
		c-1.841,2.29-3.801,4.48-5.91,6.53c-3.26-2.93-6.53-5.83-9.88-8.64c-2.641,2.84-5.141,5.8-7.591,8.8
		c3.16,2.98,6.591,5.67,9.69,8.73c-1.72,1.92-3.41,3.87-5.06,5.84c-3.48-2.62-6.73-5.51-9.91-8.48
		c-5.62,6.54-11.311,13.01-16.92,19.55C446.54,230.92,443.2,228.14,440.02,225.18L440.02,225.18z"/>
	<path fill="#FCFCFD" d="M123.82,197.77c4.34-3.76,8.66-7.56,12.89-11.45c13.83,11.79,27.47,23.79,41,35.92
		c-2.97,2.88-6.17,5.52-9.31,8.2c-3.37-2.66-6.58-5.5-9.72-8.43c-1.76,1.3-3.45,2.69-5.12,4.11c2.48,3.7,4.97,7.39,7.24,11.22
		c-2.6,2.36-5.3,4.63-8.07,6.8C142.98,228.75,133.45,213.23,123.82,197.77L123.82,197.77z"/>
	<path fill="#FCFCFD" d="M279.63,193.01c16.68-2.1,33.601-2.52,50.311-0.57c33.22,3.61,65.43,15.77,92.909,34.76
		c19.971,13.98,37.62,31.37,51.66,51.31c25.32,36.02,38.471,80.44,36.471,124.45c-1.29,43.5-17.44,86.3-44.86,120.06
		c-21.73,26.99-50.41,48.381-82.521,61.421c-40.04,16.329-85.32,19.09-127.169,8.409c-43.86-11.069-83.27-37.689-110.9-73.39
		c-19.74-25.54-33.19-55.88-39.01-87.62c-5.29-29.47-4.16-60.11,3.55-89.05c9.15-34.54,27.65-66.5,52.96-91.71
		C194.25,219.77,235.78,198.89,279.63,193.01L279.63,193.01z"/>
	<path fill="#063DA7" d="M136.74,200.94c5.73,4.37,10.68,9.64,15.63,14.84c-1.29,0.97-2.58,1.94-3.88,2.9
		C144.56,212.78,140.42,207,136.74,200.94L136.74,200.94z"/>
	<path fill="#FCFCFD" d="M476.66,234.74c9.64-7.86,18.63-16.54,28.649-23.93c2.57,3.1,5.65,5.9,7.48,9.54
		c-10.66,9.5-21.9,18.39-32.48,28c-2.239,1.52-0.85,5.4,1.78,5.33c2.101-0.439,3.76-1.97,5.43-3.24c9.9-8.48,19.7-17.06,29.74-25.37
		c3.04,3.11,5.79,6.47,8.53,9.84c-9.7,7.92-19.01,16.3-28.63,24.32c-3.42,3.02-7.311,6.24-12.16,6.1c-4.63,0.25-8.28-3.06-11.2-6.22
		c-3.41-3.75-6.18-8.78-5.38-14.01C469.53,240.64,473.38,237.66,476.66,234.74L476.66,234.74z"/>
	<path fill="#FCFCFD" d="M97.02,227.03c2.49-2.8,5.18-5.98,9.07-6.67c6.27-1.1,12.07,3.48,14.8,8.8c1.42,2.39,0.45,5.14-0.11,7.63
		c2.6-1.87,6.08-3.51,9.16-1.71c6.93,3.61,11.85,10.27,19.33,12.99c-2.82,3.46-5.56,6.98-8.33,10.47
		c-7.42-3.14-12.24-10.26-19.85-13.06c-1.22,1.11-2.44,2.23-3.64,3.36c6.57,4.84,12.91,9.98,19.18,15.21
		c-2.73,3.22-5.16,6.7-8.16,9.69c-14.23-10.8-28.1-22.04-41.98-33.271C89.88,235.9,93.44,231.46,97.02,227.03L97.02,227.03z"/>
	<path fill="#063DA7" d="M100.41,235.07c1.18-1.21,2.35-2.42,3.54-3.62c3.77,1.53,7.56,3.74,9.52,7.47c0.06,1.86-1,3.5-1.58,5.22
		C107.85,241.4,104.05,238.32,100.41,235.07L100.41,235.07z"/>
	<path fill="#FCFCFD" d="M525.43,251c2.311-1.56,4.71-3,7.2-4.27c5.14,8.52,10.18,17.11,15.05,25.79c-2.31,1.53-4.68,2.97-7.06,4.39
		c-1.53-2.45-2.98-4.93-4.42-7.42c-13.141,7.42-25.97,15.41-39.19,22.66c-2.63-3.42-4.55-7.33-6.64-11.08
		c13.05-7.6,26.2-15.01,39.08-22.89C528.08,255.8,526.71,253.42,525.43,251L525.43,251z"/>
	<path fill="#FCFCFD" d="M65.09,276.15c4.24-7.72,8.66-15.33,13-22.99c2.54,1.26,5.02,2.63,7.49,4.03
		c-2.17,3.96-4.44,7.87-6.64,11.82c3.32,1.74,6.56,3.62,9.83,5.44c2.17-3.74,4.33-7.47,6.37-11.27c2.52,1.42,5.04,2.84,7.53,4.3
		c-2.23,3.58-4.28,7.27-6.45,10.89c4.78,3.18,9.78,6.03,14.89,8.64c2.25-3.84,4.41-7.74,6.63-11.6c2.41,1.35,4.85,2.63,7.29,3.93
		c-3.82,8.07-8.84,15.48-12.84,23.46C96.57,293.78,80.84,284.93,65.09,276.15L65.09,276.15z"/>
	<path fill="#063DA7" d="M353.97,283.36c19.681,1.09,38.63-6.01,56.061-14.46c12.09,14.81,24.31,29.52,36.67,44.11
		c-17.681,22.89-21.681,55.97-8.16,81.82c-19.93-0.07-39.86,0.12-59.79-0.11c8.06-6.15,16.02-12.44,24.13-18.51
		c-22.39-0.1-44.79-0.02-67.18-0.05c-9.11-22.27-17.19-44.96-26.26-67.25c-8.911,22.33-16.99,44.98-25.95,67.29
		c-22.45-0.04-44.9-0.11-67.35,0.04c7.65,6.13,15.15,12.45,22.83,18.55c-20.76,0.06-41.52,0.03-62.28,0.05
		c7.39-11.77,10.98-25.96,9.5-39.81c-1.23-13.19-6-25.97-13.39-36.94c-0.91-1.64-2.45-3.24-2.18-5.25c1.43-2.28,3.3-4.24,5.03-6.29
		c10.52-12.39,20.51-25.22,31.15-37.49c12.45,5.4,25.07,10.77,38.49,13.21c6.15,1.26,12.5,1.88,18.75,1.09
		c10.55-1.62,19.92-7.11,30.09-10.03c6.4-2.06,13.24-2.13,19.88-1.55C327.85,273.74,339.99,281.99,353.97,283.36L353.97,283.36z"/>
	<path fill="#FCFCFD" d="M501.9,301.33c16.39-7.37,33.06-14.08,49.63-21.03c2.689,6.91,6.189,13.52,8.229,20.66
		c1.4,4.21-0.01,9.52-3.99,11.81c-3.26,2-6.949,3.44-10.77,3.81c-2.94,0.16-5.18-2.05-7.33-3.71c-0.189,2.86,0.13,6.45-2.67,8.2
		c-5.05,3.37-10.96,6.37-17.21,5.7c-4.3-0.41-6.96-4.49-8.66-8.05C506.55,313,504.19,307.18,501.9,301.33L501.9,301.33z"/>
	<path fill="#FCFCFD" d="M56.51,297.42c2.39-5.38,9.04-8.42,14.61-6.22c9.05,3.11,18.17,6.11,27.04,9.72
		c4.55,1.8,8.37,5.96,8.37,11.06c0.32,8.34-4.43,15.65-6.59,23.48c-16.9-6.22-33.89-12.17-50.77-18.44
		C51.58,310.48,53.52,303.73,56.51,297.42L56.51,297.42z"/>
	<path fill="#063DA7" d="M536.06,300.05c4.421-1.81,8.771-3.79,13.311-5.28c0.51,1.81,1,3.63,1.42,5.47
		c-3.36,2.73-7.72,5.41-12.22,4.18C537.42,303.16,536.83,301.53,536.06,300.05L536.06,300.05z"/>
	<path fill="#063DA7" d="M64.15,303.18c2.69-0.23,5.26,0.79,7.76,1.65c6.23,2.28,12.43,4.66,18.71,6.82
		c2.08,0.76,4.22,1.54,5.94,2.97c1.91,1.46,0.35,3.97,0.25,5.89c-12.13-4.19-24.28-8.34-36.18-13.15
		C61.66,305.88,62.33,303.88,64.15,303.18L64.15,303.18z"/>
	<path fill="#063DA7" d="M513.58,310.03c4.92-2.9,10.35-4.75,15.58-7c0.63,1.86,1.229,3.74,1.77,5.63c-3.29,2.48-7,4.47-11.04,5.39
		C516.97,315.19,515.02,312.04,513.58,310.03L513.58,310.03z"/>
	<path fill="#FCFCFD" d="M553.66,325.9c5.12-1.55,11.31-0.69,14.96,3.5c4.06,4.86,5.03,11.61,4.49,17.74
		c-0.351,4.38-4.13,7.61-8.141,8.76c-8.939,2.6-18.1,4.35-27.12,6.61c-4.819,1.13-10.51,1.6-14.59-1.73
		c-4.77-4.11-6.27-10.78-6.06-16.83c0.06-5.42,4.16-10.38,9.43-11.57C535.6,330.04,544.689,328.24,553.66,325.9L553.66,325.9z"/>
	<path fill="#FCFCFD" d="M46.09,329.05c2.86,0.47,5.68,1.12,8.52,1.71c-0.98,4.41-2.09,8.8-2.73,13.28
		c3.58,0.73,7.15,1.49,10.69,2.34c1.25-4.24,2.01-8.59,2.95-12.9c2.76,0.67,5.5,1.35,8.24,2.11c-0.79,4.18-1.85,8.31-2.66,12.5
		c5.61,1.35,11.26,2.56,16.95,3.57c0.82-4.42,1.81-8.79,2.71-13.19c2.79,0.68,5.59,1.36,8.37,2.08c-2.06,8.55-3.82,17.17-5.6,25.78
		c-17.66-4.01-35.46-7.4-53.04-11.7C42.87,346.23,44.43,337.62,46.09,329.05L46.09,329.05z"/>
	<path fill="#063DA7" d="M530.09,344.66c9.99-2.38,20-4.72,30-7.09c2.33-0.99,5.061,0.87,4.41,3.49c0.18,1.88-2.26,2.3-3.58,2.81
		c-10.7,2.73-21.51,4.97-32.21,7.72c-1.03-1.06-2.84-1.88-2.51-3.65C526.1,345.92,528.52,345.18,530.09,344.66L530.09,344.66z"/>
	<path fill="#FCFCFD" d="M39.51,364.52c2.67,0.18,5.35,0.35,8.03,0.44c-0.06,4.47-0.14,8.94-0.2,13.41
		c3.64,0.12,7.25,0.88,10.89,0.68c1.19-0.54,0.89-1.96,1.05-3c0.15-3.25,0.1-6.5,0.15-9.75c2.72,0.02,5.44,0.05,8.16,0.11
		c-0.06,4.4-0.59,8.77-0.88,13.15c8.16,1.03,16.41,0.6,24.59,1.42c0.2,0.18,0.6,0.54,0.8,0.72c0.53,4.07-0.01,8.18-0.44,12.23
		c-8.21-0.06-16.4-0.68-24.57-1.4c-9.62,0.03-19.18-1.19-28.79-1.39C38.4,382.26,38.44,373.35,39.51,364.52L39.51,364.52z"/>
	<path fill="#FCFCFD" d="M521.69,373.36c17.92-2.03,35.949-3.1,53.949-4.33c0.49,4.14,0.83,8.29,1,12.46
		c-15.109,0.74-30.149,2.36-45.239,3.34c0.06,4.66,0.449,9.31,1.09,13.93c-2.79,0.2-5.57,0.48-8.351,0.71
		C522.83,390.82,522.9,382.02,521.69,373.36L521.69,373.36z"/>
	<path fill="#DE0E07" d="M169.71,461.02c-6.69-19.159-5.91-40.77,1.82-59.5c25.23,0.171,50.46-0.1,75.69-0.02
		c6.73,5.7,13.67,11.15,20.45,16.79c-6.2,22.61-12.76,45.12-19.11,67.69c20.36-13.091,40.51-26.511,60.74-39.79
		c20.54,13.01,40.59,26.79,61.11,39.829c-7.45-22.579-14.9-45.159-22.16-67.8c7.27-5.479,14.49-11.05,21.65-16.68
		c24.83,0,49.659,0.05,74.489-0.04c7.98,18.89,8.33,40.74,1.391,60c-4.761,13.61-13.73,25.43-24.681,34.69
		C399.49,515.16,372.18,525.76,345.2,534.6c-7.5,2.67-15.45,4.32-22.38,8.391c-5.12,2.859-9.75,6.47-14.58,9.779
		c-17.03-13.689-38.87-18.13-58.71-26.149c-18.35-7.22-36.72-15.37-52.08-27.98C185.33,488.66,174.85,476.02,169.71,461.02
		L169.71,461.02z"/>
	<path fill="#FCFCFD" d="M460.48,570.72c4.18-3.02,10.92,0.09,11.119,5.28c1.021,5.65-6.54,9.86-11,6.59
		C456.5,580.15,456.61,573.3,460.48,570.72L460.48,570.72z"/>
	<path fill="#FCFCFD" d="M407.18,588.53c7.221-4.98,14.86-9.33,22.13-14.261c1.631,2.211,3.311,4.41,4.54,6.881
		c-3.31,3.069-7.51,4.939-11.14,7.59c1.95,2.95,3.6,6.109,5.771,8.91c4.189-0.971,7.38-4.58,11.399-6.2
		c1.42,2.24,2.95,4.42,4.13,6.81c-3.27,2.83-7.25,4.681-10.689,7.29c3,4.71,5.989,9.431,8.89,14.2c4.05-2.1,7.83-4.65,11.68-7.07
		c1.42,2.431,2.92,4.83,4.391,7.25c-7.49,4.681-14.84,9.601-22.48,14.04C426.3,618.8,416.8,603.63,407.18,588.53L407.18,588.53z"/>
	<path fill="#FCFCFD" d="M194.21,581.09c5.9,2.94,11.86,5.82,17.58,9.11c4.05,2.319,7.16,6.99,6.53,11.76
		c-1.85,7.24-6.02,13.57-9.35,20.18c-2.72,5.271-4.81,11.37-9.93,14.88c-4.75,2.711-10.77,1.75-15.42-0.699
		c-4.6-2.44-9.23-4.801-13.87-7.141C177.68,613.03,186.13,597.15,194.21,581.09L194.21,581.09z"/>
	<path fill="#FCFCFD" d="M152.54,582.72c4.18-2.93,10.69,0.17,11.07,5.24c0.89,5.65-6.57,10.08-11.12,6.62
		C148.5,591.93,148.54,585.33,152.54,582.72L152.54,582.72z"/>
	<path fill="#063DA7" d="M202.19,593.46c1.57,1.37,3.08,2.83,4.49,4.38c-2.99,7.351-6.94,14.26-10.46,21.36
		c-1.93,3.7-3.59,7.74-6.99,10.37c-1.46-0.63-2.91-1.24-4.36-1.87C190.38,616.16,196.64,604.99,202.19,593.46L202.19,593.46z"/>
	<path fill="#FCFCFD" d="M382.53,598.94c3.88-1.601,7.75-3.25,11.609-4.9c6.141,13.84,12.07,27.78,18.42,41.53
		c4.23-1.9,8.46-3.78,12.721-5.601c1.12,2.54,2.189,5.12,3.279,7.681c-7.899,3.84-16.149,6.93-23.979,10.92
		C397.03,632.12,389.98,615.43,382.53,598.94L382.53,598.94z"/>
	<path fill="#FCFCFD" d="M212.51,649.02c5.17-17.21,11.28-34.109,16.52-51.279c8.39,2.529,16.7,5.34,24.96,8.229
		c-0.22,2.811-1.33,5.42-2.31,8.03c-4.23-1.37-8.46-2.73-12.69-4.08c-1.24,3.54-2.4,7.11-3.57,10.68
		c4.16,1.341,8.3,2.71,12.44,4.131c-0.91,2.659-1.77,5.329-2.62,8.01c-4.14-1.36-8.29-2.66-12.45-3.96
		c-1.82,5.41-3.7,10.8-5.53,16.21c4.26,1.37,8.5,2.77,12.79,4.029c-0.64,2.881-1.57,5.671-2.7,8.391
		C229.21,654.2,220.73,652.01,212.51,649.02L212.51,649.02z"/>
	<path fill="#FCFCFD" d="M366.06,604.21c4.08-1.2,8.181-2.36,12.2-3.76c5.13,17.25,10.45,34.45,15.391,51.76
		c-4.11,1.45-8.29,2.7-12.54,3.69C376.23,638.63,370.65,621.56,366.06,604.21L366.06,604.21z"/>
	<path fill="#FCFCFD" d="M346.45,608.16c4.33-0.65,8.67-1.2,12.99-1.94c2.71,17.73,6.01,35.391,8.329,53.181
		c-4.05,0.84-8.149,1.369-12.239,1.979c-1.03-8.41-2.641-16.74-3.95-25.11c-1.94,0.211-3.88,0.421-5.82,0.601
		c1.351,8.47,2.57,16.97,4.15,25.41c-4.34,0.76-8.68,1.529-13.05,2.149c-2.471-17.77-5.67-35.439-8.431-53.17
		c4.15-0.819,8.32-1.56,12.53-2.04c0.75,6.19,1.78,12.36,2.82,18.511c1.859,0.779,3.939-0.2,5.88-0.271
		C348.64,621.02,347.89,614.52,346.45,608.16L346.45,608.16z"/>
	<path fill="#FCFCFD" d="M293.28,622.92c0.2-5.939,4.71-11.42,10.74-12.09c5.36-0.48,11.44-1.18,16.17,1.97
		c5.55,3.851,4.829,11.5,5.149,17.45c-4.39,0.04-8.79,0.06-13.18,0.2c-0.24-4.05,1.31-9.391-2.71-12.05
		c-0.73,0.319-2.181,0.97-2.91,1.29c-0.31,3.439-0.57,6.899-0.26,10.359c0.5,8.32-0.061,16.69,0.47,25.01
		c0.49,2.761,3.31,2.37,5.46,2.46c0.63-4.409,0.44-8.869,0.15-13.289c4.39-0.471,8.8-0.471,13.21-0.41
		c0.12,5.56,1.05,11.68-2.051,16.66c-3.739,5.55-11.229,6.77-17.43,5.949c-4.6-0.489-9.26-3.01-11.15-7.399
		c-1-2.88-1.14-5.971-1.22-8.99C293.54,641,292.92,631.95,293.28,622.92L293.28,622.92z"/>
</g>
</svg>
