<?xml version="1.0" encoding="UTF-8" standalone="no"?>
<!-- Created with sK1/UniConvertor (http://sk1project.org/) -->

<svg
   xmlns:dc="http://purl.org/dc/elements/1.1/"
   xmlns:cc="http://creativecommons.org/ns#"
   xmlns:rdf="http://www.w3.org/1999/02/22-rdf-syntax-ns#"
   xmlns:svg="http://www.w3.org/2000/svg"
   xmlns="http://www.w3.org/2000/svg"
   xmlns:sodipodi="http://sodipodi.sourceforge.net/DTD/sodipodi-0.dtd"
   xmlns:inkscape="http://www.inkscape.org/namespaces/inkscape"
   width="301.66"
   height="301.67001"
   viewBox="0 0 241.32801 241.336"
   id="svg3042"
   version="1.1"
   inkscape:version="0.48.4 r9939"
   sodipodi:docname="federacion_colombiana_de_futbol.cdr"
   style="fill-rule:evenodd">
  <metadata
     id="metadata3066">
    <rdf:RDF>
      <cc:Work
         rdf:about="">
        <dc:format>image/svg+xml</dc:format>
        <dc:type
           rdf:resource="http://purl.org/dc/dcmitype/StillImage" />
        <dc:title></dc:title>
      </cc:Work>
    </rdf:RDF>
  </metadata>
  <defs
     id="defs3064" />
  <sodipodi:namedview
     pagecolor="#ffffff"
     bordercolor="#666666"
     borderopacity="1"
     objecttolerance="10"
     gridtolerance="10"
     guidetolerance="10"
     inkscape:pageopacity="0"
     inkscape:pageshadow="2"
     inkscape:window-width="1366"
     inkscape:window-height="706"
     id="namedview3062"
     showgrid="false"
     inkscape:zoom="1.9727042"
     inkscape:cx="199.46791"
     inkscape:cy="170.18686"
     inkscape:window-x="-8"
     inkscape:window-y="-8"
     inkscape:window-maximized="1"
     inkscape:current-layer="svg3042" />
  <g
     id="g3044"
     transform="matrix(0.49961837,0,0,0.49961837,-32.219137,-102.10668)">
    <g
       id="g3046">
      <g
         id="g3048">
        <path
           style="fill:#ffffff;stroke:none"
           d="m 288.722,213.706 c 19.183,-1.328 38.533,-0.487 57.483,2.855 37.134,6.471 72.62,22.155 102.386,45.278 28.843,22.281 52.286,51.479 67.853,84.43 13.925,29.371 21.597,61.682 22.307,94.182 -0.005,7.449 0.097,14.908 -0.547,22.337 -3.2,45.638 -20.35,90.16 -48.529,126.194 -21.252,27.367 -48.751,49.826 -79.754,65.282 -20.537,10.213 -42.57,17.444 -65.197,21.227 -21.743,3.64 -44,4.173 -65.896,1.632 -34,-3.914 -67.057,-15.572 -96.088,-33.685 -31.967,-19.919 -58.959,-47.727 -77.899,-80.282 -20.0142,-34.315 -31.1398,-73.832 -31.5759,-113.573 -0.5729,-29.578 4.6703,-59.248 15.2786,-86.864 13.4323,-35.273 35.6483,-67.164 64.0803,-91.996 27.647,-24.269 61.15,-41.784 96.839,-50.693 12.87,-3.251 26.029,-5.294 39.259,-6.324 z m 8.402,47.083 c 1.963,0.051 3.93,0.097 5.897,0.097 0.117,-6.065 0.269,-12.135 0.401,-18.2 0.102,-2.91 0,-5.841 0.421,-8.732 0.051,2.693 0.543,5.34 0.887,7.997 0.878,6.349 1.75,12.692 2.627,19.036 2.191,0.015 4.386,0.101 6.582,0.081 1.679,-8.884 3.727,-17.697 5.198,-26.617 0.116,1.4 0.147,2.804 0.111,4.209 -0.197,7.495 -0.314,14.99 -0.537,22.484 2.195,0.097 4.391,0.112 6.592,0.147 0.228,-10.699 0.461,-21.399 0.73,-32.098 -3.585,-0.056 -7.17,-0.112 -10.755,-0.188 -1.415,7.51 -2.713,15.04 -4.209,22.535 -0.751,-7.556 -1.481,-15.116 -2.241,-22.672 -3.651,0.015 -7.307,-0.152 -10.958,-0.132 -0.254,10.685 -0.457,21.374 -0.746,32.053 z m -16.12,-30.998 c -2.485,0.38 -5.03,1.486 -6.42,3.682 -1.232,1.769 -1.339,4.026 -1.105,6.105 0.628,5.446 1.288,10.892 1.916,16.343 0.213,1.871 0.695,3.905 2.211,5.167 2.323,2.115 5.715,2.521 8.707,1.998 2.175,-0.39 4.493,-1.105 5.953,-2.875 1.694,-2.018 2.13,-4.812 1.79,-7.368 -0.603,-5.101 -1.202,-10.207 -1.805,-15.314 -0.264,-2.14 -0.71,-4.462 -2.394,-5.968 -2.312,-2.272 -5.866,-2.216 -8.853,-1.77 z m 51.611,0.426 c -1.851,10.542 -3.818,21.059 -5.705,31.592 3.707,0.633 7.404,1.364 11.131,1.926 2.657,0.356 6.085,0.249 7.469,-2.505 1.547,-3.25 2.835,-7.094 1.831,-10.694 -0.517,-1.902 -2.449,-2.713 -4.209,-3.078 1.881,-0.228 4.072,-0.36 5.254,-2.089 1.714,-2.49 2.261,-5.791 1.587,-8.727 -0.807,-2.728 -3.727,-3.92 -6.263,-4.468 -3.686,-0.715 -7.393,-1.359 -11.095,-1.957 z m -79.902,5.913 c 2.353,10.425 4.711,20.851 7.059,31.282 5.086,-1.161 10.162,-2.343 15.243,-3.514 -0.355,-1.608 -0.72,-3.215 -1.08,-4.818 -2.642,0.604 -5.284,1.228 -7.926,1.816 -1.998,-8.813 -3.98,-17.637 -5.978,-26.455 -2.439,0.553 -4.879,1.131 -7.318,1.689 z m 102.138,-1.887 c -2.399,10.431 -4.909,20.836 -7.348,31.257 2.429,0.578 4.863,1.131 7.302,1.694 2.455,-10.426 4.919,-20.852 7.378,-31.282 -2.439,-0.568 -4.878,-1.167 -7.332,-1.669 z m -113.836,4.721 c -3.149,0.649 -6.557,2.034 -8.119,5.041 -1.12,2.043 -0.912,4.487 -0.228,6.643 1.684,5.304 3.398,10.598 5.076,15.902 0.568,1.83 1.511,3.752 3.311,4.64 3.809,2.094 8.57,0.852 11.983,-1.471 2.971,-1.972 3.61,-6.049 2.601,-9.269 -1.592,-5.086 -3.245,-10.147 -4.858,-15.228 -0.649,-1.958 -1.455,-4.062 -3.24,-5.259 -1.866,-1.374 -4.341,-1.455 -6.526,-0.999 z m 115.17,28.727 c 2.008,0.659 4.016,1.328 6.039,1.947 1.171,-2.383 2.358,-4.767 3.575,-7.135 1.293,0.431 2.591,0.857 3.894,1.273 -0.603,2.571 -1.207,5.147 -1.815,7.718 2.368,0.786 4.751,1.547 7.125,2.327 2.033,-10.618 4.077,-21.231 6.105,-31.845 -3.266,-1.039 -6.511,-2.124 -9.767,-3.174 -5.04,9.635 -10.106,19.259 -15.156,28.889 z m 32.869,-22.419 c -4.412,9.772 -8.798,19.554 -13.215,29.325 1.78,0.807 3.575,1.598 5.365,2.399 3.606,-7.911 7.069,-15.882 10.761,-23.752 -1.887,8.671 -3.829,17.327 -5.746,25.988 2.982,1.334 5.969,2.667 8.961,3.996 4.391,-9.767 8.767,-19.543 13.204,-29.289 -1.825,-0.913 -3.712,-1.699 -5.573,-2.536 -3.123,6.912 -6.227,13.834 -9.345,20.745 1.582,-7.586 3.316,-15.136 4.969,-22.707 -3.134,-1.385 -6.252,-2.789 -9.381,-4.169 z m -171.091,2.51 c -2.348,0.999 -4.899,2.151 -6.263,4.432 -1.704,2.318 -1.181,5.452 -0.233,7.967 1.765,4.158 3.641,8.265 5.436,12.413 1.105,2.515 2.272,5.335 4.792,6.755 2.824,1.592 6.308,0.948 9.077,-0.436 2.611,-1.202 5.065,-3.383 5.537,-6.349 0.578,-3.489 -1.521,-6.567 -2.748,-9.665 -2.363,1.049 -4.732,2.084 -7.084,3.154 0.867,2.196 2.104,4.27 2.697,6.567 0.158,1.191 -1.156,1.82 -2.165,1.779 -1.222,-0.395 -1.562,-1.739 -2.069,-2.763 -2.312,-5.441 -4.853,-10.791 -7.064,-16.272 -0.963,-1.755 1.872,-3.499 2.962,-1.872 0.973,1.643 1.587,3.474 2.398,5.198 2.363,-1.045 4.721,-2.099 7.084,-3.144 -1.257,-2.627 -2.008,-5.786 -4.594,-7.485 -2.231,-1.759 -5.319,-1.288 -7.763,-0.279 z m 178.302,36.267 c 1.805,1.101 3.57,2.272 5.405,3.332 1.689,-2.043 3.438,-4.036 5.152,-6.06 1.146,0.725 2.302,1.446 3.464,2.166 -1.172,2.378 -2.434,4.716 -3.621,7.084 2.125,1.308 4.229,2.642 6.344,3.97 4.548,-9.817 9.092,-19.639 13.62,-29.472 -2.9,-1.8 -5.796,-3.615 -8.681,-5.441 -7.231,8.134 -14.477,16.262 -21.683,24.421 z M 187.548,265.16 c 4.224,6.172 8.6,12.241 12.753,18.464 -5.573,-5.198 -11.116,-10.426 -16.643,-15.675 -2.895,1.877 -5.669,3.925 -8.514,5.883 6.09,8.772 12.201,17.535 18.286,26.312 1.612,-1.125 3.23,-2.256 4.837,-3.392 -4.969,-7.17 -9.994,-14.3 -14.908,-21.506 6.45,6.146 12.961,12.226 19.416,18.367 2.703,-1.846 5.35,-3.773 8.073,-5.588 -6.014,-8.839 -12.19,-17.56 -18.265,-26.353 -1.689,1.146 -3.347,2.337 -5.035,3.488 z m 78.552,16.481 c -6.521,1.714 -13.072,3.56 -19.269,6.206 -3.965,10.391 -7.779,20.852 -11.658,31.283 8.438,13.554 16.83,27.139 25.284,40.689 35.78,-0.026 71.565,0.05 107.345,-0.041 7.596,-11.374 15.157,-22.773 22.864,-34.071 -2.484,-10.401 -5.182,-20.745 -7.727,-31.13 C 347.25,276.337 304.923,271.823 266.1,281.641 z m 156.27,19.898 c 2.545,2.155 5.096,4.305 7.652,6.45 2.16,1.795 5.126,2.956 7.936,2.221 1.982,-0.466 3.615,-1.815 4.883,-3.357 3.154,-3.767 6.353,-7.505 9.503,-11.278 1.582,-2.002 2.789,-4.634 2.15,-7.225 -0.583,-2.125 -2.247,-3.697 -3.849,-5.097 -2.5,-2.109 -5.005,-4.209 -7.505,-6.318 -6.932,8.195 -13.859,16.394 -20.77,24.604 z m -253.889,-21.44 c -3.519,1.273 -6.815,3.91 -8.2,7.47 -1.07,2.854 0.163,5.928 2.1,8.088 3.306,3.97 6.622,7.93 9.918,11.911 1.4,1.75 3.139,3.636 5.538,3.742 4.33,0.431 8.245,-2.515 10.507,-5.978 1.947,-2.987 0.978,-7.008 -1.238,-9.574 -3.696,-4.406 -7.302,-8.894 -11.09,-13.225 -1.785,-2.175 -4.802,-3.326 -7.535,-2.434 z m 32.139,34.335 c 9.797,0.02 19.589,-0.035 29.386,0.025 3.103,-7.804 6.055,-15.674 9.051,-23.518 -13.772,6.085 -26.748,13.99 -38.437,23.493 z m -52.098,-16.095 c 7.708,7.399 15.304,14.919 23.037,22.287 1.704,-1.836 3.494,-3.58 5.208,-5.406 -7.667,-7.424 -15.34,-14.847 -22.976,-22.307 -1.77,1.8 -3.519,3.611 -5.269,5.426 z m 289.136,17.256 c 3.591,3.753 7.201,7.49 10.786,11.242 1.202,-1.135 2.399,-2.281 3.6,-3.422 -1.866,-1.958 -3.742,-3.91 -5.608,-5.867 2.5,-2.338 4.888,-4.803 7.434,-7.089 1.983,1.688 3.661,3.742 5.507,5.588 1.186,-1.156 2.388,-2.302 3.58,-3.454 -1.81,-1.906 -3.641,-3.793 -5.461,-5.684 1.678,-1.582 3.321,-3.195 4.999,-4.772 1.806,1.902 3.636,3.778 5.447,5.675 1.171,-1.151 2.347,-2.303 3.575,-3.398 -3.504,-3.747 -7.074,-7.439 -10.659,-11.115 -7.728,7.434 -15.472,14.857 -23.2,22.296 z M 394.931,301.25 c 1.957,7.718 4.021,15.405 5.989,23.123 7.9,0.005 15.806,0.01 23.706,-0.005 -8.991,-8.788 -18.97,-16.562 -29.695,-23.118 z m -255.795,6.633 c -1.648,1.967 -3.403,4.148 -3.565,6.82 -0.441,2.89 1.506,5.456 3.55,7.261 3.803,3.144 7.652,6.227 11.47,9.351 1.967,1.557 4.295,3.103 6.927,2.891 3.063,-0.127 5.557,-2.262 7.312,-4.61 1.719,-2.236 2.885,-5.228 1.962,-8.037 -1.054,-3.372 -4.34,-5.152 -6.845,-7.338 -1.638,1.998 -3.261,4.006 -4.894,6.004 1.709,1.511 3.641,2.779 5.233,4.422 1.329,1.43 -1.034,3.661 -2.464,2.459 -4.483,-3.458 -8.793,-7.134 -13.22,-10.664 -0.897,-0.76 -1.927,-1.435 -2.566,-2.449 -0.796,-1.278 0.994,-3.18 2.303,-2.343 1.602,1.024 2.971,2.363 4.482,3.514 1.638,-2.003 3.276,-4.001 4.899,-6.019 -2.389,-1.815 -4.595,-4.376 -7.799,-4.574 -2.718,-0.41 -5.102,1.38 -6.785,3.312 z m 315.981,28.092 c 1.435,2.039 2.916,4.047 4.366,6.08 4.164,-2.976 8.291,-6.004 12.449,-8.996 1.547,2.12 3.068,4.26 4.62,6.38 1.273,-0.928 2.551,-1.851 3.823,-2.784 -1.536,-2.125 -3.068,-4.245 -4.594,-6.374 1.912,-1.41 3.844,-2.789 5.771,-4.184 1.526,2.13 3.068,4.249 4.594,6.379 1.349,-0.958 2.693,-1.932 4.031,-2.91 -2.997,-4.153 -5.973,-8.322 -8.995,-12.454 -8.692,6.287 -17.373,12.58 -26.065,18.863 z M 191.518,322.309 c -11.79,11.034 -22.074,23.691 -30.344,37.565 -16.896,28.154 -25.319,61.327 -23.722,94.131 1.618,1.891 3.631,3.433 5.391,5.203 8.128,7.626 16.272,15.233 24.386,22.869 16.368,-5.263 32.732,-10.552 49.085,-15.866 11.598,-33.707 23.215,-67.408 34.817,-101.109 0.259,-0.623 0.284,-1.318 -0.157,-1.866 -7.997,-13.94 -15.978,-27.89 -23.975,-41.835 -11.308,0.016 -22.616,-0.01 -33.924,0.016 -0.67,-0.081 -1.096,0.527 -1.557,0.892 z m -63.812,1.41 c -1.886,2.875 -3.778,5.745 -5.649,8.636 7.977,7.307 15.923,14.644 23.894,21.951 1.192,-1.764 2.378,-3.539 3.494,-5.354 -2.018,-1.704 -3.966,-3.484 -5.943,-5.223 0.745,-1.157 1.496,-2.308 2.251,-3.454 2.308,1.263 4.655,2.465 6.963,3.727 1.379,-2.109 2.799,-4.193 4.117,-6.338 -9.731,-4.605 -19.416,-9.3 -29.127,-13.945 z m 268.341,7.282 c -8.393,12.611 -16.876,25.161 -25.294,37.752 9.001,34.984 17.875,69.994 26.861,104.978 15.998,6.582 31.982,13.204 47.975,19.796 9.011,-5.841 18.002,-11.703 27.028,-17.514 2.546,-13.367 3.332,-27.038 2.632,-40.613 -1.937,-37.418 -17.033,-73.918 -41.916,-101.904 -1.055,-0.949 -1.755,-2.81 -3.443,-2.521 -11.283,0.031 -22.566,-0.025 -33.843,0.026 z m 75.865,15.035 c -1.922,1.029 -3.844,2.424 -4.624,4.548 -1.05,2.931 -0.107,6.167 1.419,8.748 1.238,2.008 2.881,4.061 5.289,4.634 2.363,0.599 4.782,-0.284 6.876,-1.353 7.023,-3.717 14.037,-7.455 21.065,-11.162 -1.121,-2.231 -2.297,-4.431 -3.469,-6.637 -7.175,3.772 -14.325,7.586 -21.48,11.384 -0.796,0.39 -1.618,0.806 -2.515,0.862 -1.065,-0.127 -1.78,-1.293 -1.689,-2.292 0.406,-0.989 1.446,-1.445 2.313,-1.947 7.195,-3.798 14.376,-7.632 21.576,-11.43 -1.171,-2.211 -2.332,-4.422 -3.489,-6.633 -7.094,3.758 -14.183,7.515 -21.272,11.278 z m -358.232,2.403 c -1.668,3.109 -3.342,6.212 -5,9.321 9.412,5.05 18.854,10.045 28.265,15.096 1.192,-2.216 2.384,-4.422 3.56,-6.638 -4.3,-2.302 -8.605,-4.589 -12.911,-6.881 0.604,-0.984 1.284,-2.206 2.571,-2.313 4.514,0.791 7.931,4.372 12.434,5.244 1.324,-2.323 2.526,-4.711 3.829,-7.049 -4.944,-0.03 -8.514,-4.325 -13.195,-5.324 -2.454,-0.517 -4.31,1.485 -5.431,3.397 0.366,-1.328 0.791,-2.718 0.492,-4.102 -0.279,-1.947 -1.891,-3.316 -3.494,-4.255 -1.855,-1.105 -4.127,-1.921 -6.277,-1.217 -2.242,0.741 -3.732,2.749 -4.843,4.721 z m 386.127,9.082 c 0.644,1.659 1.313,3.307 1.962,4.965 -8.412,3.372 -16.809,6.785 -25.222,10.157 0.902,2.327 1.83,4.645 2.758,6.967 8.418,-3.377 16.826,-6.79 25.248,-10.167 0.624,1.577 1.258,3.149 1.892,4.726 1.526,-0.614 3.052,-1.237 4.589,-1.836 -2.186,-5.557 -4.432,-11.095 -6.628,-16.652 -1.541,0.598 -3.073,1.217 -4.599,1.84 z m -392.76,4.326 c -1.927,4.761 -3.889,9.513 -5.831,14.269 9.903,4.022 19.812,8.022 29.72,12.034 1.968,-4.838 3.971,-9.661 5.913,-14.508 -1.526,-0.604 -3.048,-1.222 -4.569,-1.841 -1.019,2.515 -2.059,5.02 -3.083,7.535 -3.195,-1.323 -6.435,-2.54 -9.604,-3.94 1.044,-2.408 2.013,-4.848 3.002,-7.277 -1.532,-0.603 -3.058,-1.227 -4.584,-1.84 -0.994,2.439 -1.993,4.878 -2.992,7.317 -2.125,-0.867 -4.25,-1.719 -6.369,-2.586 0.989,-2.439 2.003,-4.873 2.986,-7.312 -1.526,-0.624 -3.052,-1.248 -4.589,-1.851 z m 152.117,5.339 c -11.689,33.468 -23.479,66.906 -35.132,100.383 26.901,19.052 53.782,38.128 80.668,57.2 28.26,-16.267 56.49,-32.58 84.734,-48.868 -8.635,-36.242 -17.231,-72.493 -25.871,-108.73 -34.802,0.01 -69.598,-0.02 -104.399,0.015 z m 222.317,18.818 c 1.09,3.748 2.038,7.536 3.23,11.248 0.832,2.479 2.53,5.278 5.502,5.218 3.509,-0.132 7.469,-0.568 10.187,-3.033 1.537,-1.303 1.466,-3.468 0.989,-5.248 1.024,1.541 2.028,3.473 4.062,3.798 2.951,0.456 6.151,-0.396 8.489,-2.267 2.175,-1.825 2.114,-5.01 1.511,-7.54 -0.908,-3.697 -2.084,-7.322 -3.028,-11.009 -10.329,2.88 -20.633,5.877 -30.942,8.833 z M 102.027,383.52 c -2.3832,0.816 -3.7421,3.164 -4.4825,5.431 -1.0953,3.524 -2.0739,7.089 -3.1287,10.623 10.2782,2.956 20.5522,5.913 30.8312,8.849 0.897,-3.109 1.81,-6.212 2.723,-9.32 0.603,-2.024 0.72,-4.24 0.111,-6.278 -0.791,-2.515 -3.042,-4.351 -5.522,-5.071 -4.726,-1.379 -9.467,-2.713 -14.193,-4.087 -2.044,-0.609 -4.285,-0.776 -6.339,-0.147 z m 407.207,18.224 c -4.3,0.842 -8.595,1.679 -12.895,2.511 -2.252,0.461 -4.767,0.674 -6.517,2.332 -2.16,2.201 -2.763,5.533 -2.2,8.489 0.486,2.845 1.643,5.999 4.416,7.332 3.165,1.648 6.785,0.568 10.071,-0.061 4.62,-0.973 9.31,-1.648 13.879,-2.829 3.068,-0.771 5.208,-3.783 5.152,-6.912 0.015,-3.671 -0.831,-7.951 -4.067,-10.162 -2.297,-1.617 -5.258,-1.257 -7.839,-0.7 z m -415.9998,3.651 c -0.7352,5.076 -1.4857,10.152 -2.2159,15.233 10.5877,1.496 21.1757,2.977 31.7687,4.473 0.756,-5.157 1.496,-10.319 2.257,-15.476 -1.633,-0.234 -3.266,-0.462 -4.899,-0.675 -0.39,2.678 -0.77,5.355 -1.171,8.032 -3.423,-0.476 -6.846,-0.958 -10.263,-1.44 0.37,-2.606 0.755,-5.207 1.135,-7.809 -1.632,-0.243 -3.265,-0.471 -4.898,-0.689 -0.365,2.601 -0.761,5.202 -1.136,7.804 -2.272,-0.315 -4.5484,-0.629 -6.8202,-0.964 0.3701,-2.606 0.7707,-5.213 1.1258,-7.824 -1.6278,-0.203 -3.2556,-0.447 -4.8834,-0.665 z m -2.0181,18.271 c -0.4716,5.106 -0.9534,10.218 -1.4199,15.324 10.6538,0.938 21.3078,1.871 31.9618,2.799 0.238,-2.49 0.466,-4.979 0.695,-7.469 -5.086,-0.436 -10.172,-0.888 -15.259,-1.329 0.249,-2.621 0.487,-5.238 0.731,-7.855 -1.562,-0.147 -3.124,-0.284 -4.686,-0.426 -0.253,2.622 -0.492,5.249 -0.73,7.87 -2.368,-0.212 -4.7363,-0.415 -7.0994,-0.628 0.2283,-2.627 0.5122,-5.249 0.6947,-7.881 -1.6277,-0.121 -3.2605,-0.263 -4.8882,-0.405 z m 398.6719,2.976 c 0.421,5.183 0.862,10.365 1.273,15.553 1.638,-0.132 3.276,-0.279 4.919,-0.411 -0.193,-2.703 -0.441,-5.405 -0.649,-8.103 9.021,-0.791 18.037,-1.582 27.058,-2.368 -0.183,-2.49 -0.406,-4.975 -0.598,-7.465 -10.67,0.923 -21.334,1.866 -32.003,2.794 z M 89.2688,452.058 c 0.7962,39.553 12.9312,78.776 34.4872,111.939 18.61,28.788 44.142,53.057 73.852,70.161 30.785,17.819 66.069,27.738 101.62,28.661 32.216,0.933 64.614,-5.436 94.055,-18.555 23.255,-10.324 44.67,-24.766 63.006,-42.402 19.426,-18.651 35.42,-40.882 46.829,-65.278 12.399,-26.414 19.381,-55.364 20.314,-84.531 -10.867,0.025 -21.734,-0.051 -32.595,0.04 -0.791,19.584 -4.691,39.046 -11.598,57.398 -9.705,25.896 -25.318,49.552 -45.257,68.715 -12.297,11.643 -26.13,21.663 -41.023,29.725 -28.509,15.517 -61.15,23.468 -93.619,22.272 -36.434,-1.116 -72.402,-13.484 -101.808,-35.02 -27.22,-19.776 -48.883,-47.134 -61.763,-78.228 -8.565,-20.532 -13.256,-42.646 -13.92,-64.872 -10.857,-0.066 -21.718,-0.02 -32.5802,-0.025 z m 49.2332,15.121 c 2.084,16.856 6.668,33.443 13.813,48.868 3.19,-8.894 6.602,-17.707 9.741,-26.617 -7.91,-7.353 -15.659,-14.878 -23.554,-22.251 z m 29.528,26.718 c -3.55,10.796 -7.105,21.587 -10.71,32.363 6.597,12.221 14.716,23.62 24.097,33.858 22.317,24.447 51.971,42.134 84.166,49.913 10.35,-6.704 20.694,-13.433 31.034,-20.157 0.193,-19.107 0.583,-38.214 0.669,-57.321 -26.627,-18.722 -53.163,-37.565 -79.8,-56.272 -16.48,5.893 -32.971,11.744 -49.456,17.616 z m 139.195,40.928 c -0.03,18.635 -0.233,37.27 -0.289,55.906 8.605,7.312 17.201,14.64 25.852,21.901 17.722,-2.931 34.984,-8.646 50.901,-16.977 26.176,-13.61 48.645,-34.178 64.689,-58.924 -1.506,-10.451 -3.052,-20.892 -4.543,-31.343 -15.964,-7.282 -31.998,-14.411 -47.996,-21.622 -29.543,17.008 -59.076,34.036 -88.614,51.059 z m 142.614,-35.644 c 1.399,9.371 2.682,18.763 4.158,28.123 7.337,-13.022 12.87,-27.058 16.49,-41.555 -6.896,4.457 -13.767,8.955 -20.648,13.432 z m -172.035,113.36 c 15.238,2.525 30.821,2.976 46.175,1.268 -6.982,-5.938 -13.934,-11.907 -20.917,-17.84 -8.428,5.512 -16.866,11.004 -25.258,16.572 z m 3.585,-377.41 c 1.146,-0.72 2.992,-0.416 3.108,1.161 0.857,6.369 1.557,12.768 2.282,19.153 0.279,1.232 -0.679,2.464 -1.962,2.388 -1.085,0.137 -1.79,-0.928 -1.841,-1.897 -0.77,-6.084 -1.43,-12.185 -2.175,-18.275 -0.071,-0.852 -0.325,-2.008 0.588,-2.53 z m 57.839,0.755 c 1.303,0.213 3.377,0.411 3.341,2.186 -0.111,1.962 -0.294,4.062 -1.278,5.811 -0.836,1.166 -2.423,0.538 -3.59,0.451 0.492,-2.819 1.025,-5.633 1.527,-8.448 z m -98.827,8.595 c 1.131,-0.669 2.394,0.102 2.647,1.304 1.968,6.049 3.93,12.109 5.801,18.194 0.68,1.547 -1.085,2.997 -2.535,2.525 -0.943,-0.481 -1.177,-1.592 -1.496,-2.5 -1.81,-5.796 -3.727,-11.556 -5.517,-17.357 -0.401,-0.913 0.177,-1.912 1.1,-2.166 z m 127.68,13.301 c 2.018,-4.087 3.94,-8.225 5.963,-12.312 -0.999,4.422 -2.119,8.819 -3.164,13.23 -0.938,-0.299 -1.871,-0.603 -2.799,-0.918 z m -32.951,0.725 c 0.588,-3.28 1.172,-6.561 1.785,-9.837 1.232,0.299 3.474,0.345 3.327,2.145 -0.122,2.196 -0.436,4.442 -1.202,6.511 -0.624,1.572 -2.536,1.562 -3.91,1.181 z m 75.059,18.793 c 2.886,-3.438 5.69,-6.947 8.626,-10.344 -1.957,4.005 -4.097,7.92 -6.156,11.881 -0.827,-0.513 -1.648,-1.025 -2.47,-1.537 z m 21.105,25.623 c 4.914,-5.806 9.812,-11.622 14.731,-17.428 0.649,0.694 1.628,1.272 1.75,2.312 0.03,1.105 -0.705,2.013 -1.349,2.824 -3.266,3.854 -6.526,7.713 -9.772,11.577 -0.75,0.878 -1.592,1.76 -2.723,2.1 -1.07,0.005 -1.825,-0.812 -2.637,-1.385 z M 167.786,286.306 c 1.086,-0.69 2.034,0.537 2.693,1.258 3.905,4.72 7.885,9.386 11.749,14.142 1.212,1.192 0.132,3.053 -1.334,3.301 -1.049,-0.04 -1.693,-0.963 -2.322,-1.673 -3.894,-4.762 -7.921,-9.417 -11.785,-14.204 -0.933,-1.014 0.016,-2.312 0.999,-2.824 z m -38.579,45.146 c 4.021,2.054 7.961,4.275 11.947,6.405 -0.537,0.811 -1.07,1.622 -1.602,2.439 -3.454,-2.942 -6.897,-5.898 -10.345,-8.844 z m -13.047,21.779 c 0.578,-0.923 1.034,-2.342 2.368,-2.287 1.962,0.239 3.793,1.288 5.253,2.592 1.177,1.06 0.31,2.53 -0.319,3.61 -2.419,-1.334 -4.868,-2.611 -7.302,-3.915 z m 385.721,34.716 c 2.743,-0.786 5.492,-1.567 8.24,-2.353 0.32,1.262 1.121,3.118 -0.426,3.894 -1.795,0.857 -3.788,1.542 -5.791,1.506 -1.475,-0.157 -1.597,-1.942 -2.023,-3.047 z m -13.854,3.97 c 3.2,-0.908 6.395,-1.851 9.605,-2.738 0.207,1.029 0.684,2.079 0.4,3.149 -0.826,1.126 -2.348,1.313 -3.57,1.77 -1.541,0.38 -3.149,1.13 -4.746,0.664 -1.095,-0.548 -1.4,-1.775 -1.689,-2.845 z m -386.958,1.516 c 0.274,-1.551 1.364,-3.291 3.2,-2.784 4.71,1.126 9.325,2.658 14.005,3.925 1.598,0.497 3.388,0.756 4.671,1.937 0.76,0.959 0.192,2.171 -0.071,3.2 -7.257,-2.135 -14.539,-4.183 -21.805,-6.278 z m 410.751,15.441 c 1.095,-0.111 2.378,-0.781 3.372,-0.015 0.999,1.07 0.887,3.205 -0.821,3.428 -6.354,1.313 -12.733,2.54 -19.118,3.717 -1.201,0.319 -2.347,-0.705 -2.302,-1.912 -0.198,-1.009 0.837,-1.694 1.704,-1.851 5.71,-1.171 11.445,-2.216 17.165,-3.367 z"
           id="path3050"
           inkscape:connector-curvature="0" />
        <path
           style="fill:#ddac05;stroke:none"
           d="m 288.118,205.045 c 46.003,-3.473 92.934,6.628 133.405,28.777 31.961,17.358 59.872,42.089 80.992,71.697 19.082,26.668 32.631,57.281 39.532,89.344 7.231,33.286 7.282,68.107 0.142,101.413 -8.037,37.92 -25.415,73.816 -50.171,103.638 -23.732,28.737 -54.248,51.825 -88.355,66.86 -21.465,9.518 -44.345,15.841 -67.645,18.767 -32.185,4.026 -65.181,1.516 -96.367,-7.424 -34.731,-9.893 -67.174,-27.722 -94.136,-51.748 -28.904,-25.643 -51.4745,-58.356 -65.1912,-94.475 -7.297,-19.133 -12.1397,-39.198 -14.381,-59.553 -3.9704,-35.897 0.2383,-72.67 12.2817,-106.722 10.8516,-30.856 28.0725,-59.456 50.2775,-83.481 23.661,-25.699 52.996,-46.135 85.292,-59.451 23.631,-9.777 48.823,-15.74 74.324,-17.642 z m 0.604,8.661 c -13.23,1.03 -26.389,3.073 -39.259,6.324 -35.689,8.909 -69.192,26.424 -96.839,50.693 -28.432,24.832 -50.648,56.723 -64.0803,91.996 -10.6083,27.616 -15.8515,57.286 -15.2786,86.864 0.4361,39.741 11.5617,79.258 31.5759,113.573 18.94,32.555 45.932,60.363 77.899,80.282 29.031,18.113 62.088,29.771 96.088,33.685 21.896,2.541 44.153,2.008 65.896,-1.632 22.627,-3.783 44.66,-11.014 65.197,-21.227 31.003,-15.456 58.502,-37.915 79.754,-65.282 28.179,-36.034 45.329,-80.556 48.529,-126.194 0.644,-7.429 0.542,-14.888 0.547,-22.337 -0.71,-32.5 -8.382,-64.811 -22.307,-94.182 -15.567,-32.951 -39.01,-62.149 -67.853,-84.43 -29.766,-23.123 -65.252,-38.807 -102.386,-45.278 -18.95,-3.342 -38.3,-4.183 -57.483,-2.855 z"
           id="path3052"
           inkscape:connector-curvature="0" />
        <path
           style="fill:#2c2c2b;stroke:none"
           d="m 297.124,260.789 c 0.289,-10.679 0.492,-21.368 0.746,-32.053 3.651,-0.02 7.307,0.147 10.958,0.132 0.76,7.556 1.49,15.116 2.241,22.672 1.496,-7.495 2.794,-15.025 4.209,-22.535 3.585,0.076 7.17,0.132 10.755,0.188 -0.269,10.699 -0.502,21.399 -0.73,32.098 -2.201,-0.035 -4.397,-0.05 -6.592,-0.147 0.223,-7.494 0.34,-14.989 0.537,-22.484 0.036,-1.405 0.005,-2.809 -0.111,-4.209 -1.471,8.92 -3.519,17.733 -5.198,26.617 -2.196,0.02 -4.391,-0.066 -6.582,-0.081 -0.877,-6.344 -1.749,-12.687 -2.627,-19.036 -0.344,-2.657 -0.836,-5.304 -0.887,-7.997 -0.421,2.891 -0.319,5.822 -0.421,8.732 -0.132,6.065 -0.284,12.135 -0.401,18.2 -1.967,0 -3.934,-0.046 -5.897,-0.097 z m -16.12,-30.998 c 2.987,-0.446 6.541,-0.502 8.853,1.77 1.684,1.506 2.13,3.828 2.394,5.968 0.603,5.107 1.202,10.213 1.805,15.314 0.34,2.556 -0.096,5.35 -1.79,7.368 -1.46,1.77 -3.778,2.485 -5.953,2.875 -2.992,0.523 -6.384,0.117 -8.707,-1.998 -1.516,-1.262 -1.998,-3.296 -2.211,-5.167 -0.628,-5.451 -1.288,-10.897 -1.916,-16.343 -0.234,-2.079 -0.127,-4.336 1.105,-6.105 1.39,-2.196 3.935,-3.302 6.42,-3.682 z m 0.385,5.34 c -0.913,0.522 -0.659,1.678 -0.588,2.53 0.745,6.09 1.405,12.191 2.175,18.275 0.051,0.969 0.756,2.034 1.841,1.897 1.283,0.076 2.241,-1.156 1.962,-2.388 -0.725,-6.385 -1.425,-12.784 -2.282,-19.153 -0.116,-1.577 -1.962,-1.881 -3.108,-1.161 z m 51.226,-4.914 c 3.702,0.598 7.409,1.242 11.095,1.957 2.536,0.548 5.456,1.74 6.263,4.468 0.674,2.936 0.127,6.237 -1.587,8.727 -1.182,1.729 -3.373,1.861 -5.254,2.089 1.76,0.365 3.692,1.176 4.209,3.078 1.004,3.6 -0.284,7.444 -1.831,10.694 -1.384,2.754 -4.812,2.861 -7.469,2.505 -3.727,-0.562 -7.424,-1.293 -11.131,-1.926 1.887,-10.533 3.854,-21.05 5.705,-31.592 z m 6.613,5.669 c -0.502,2.815 -1.035,5.629 -1.527,8.448 1.167,0.087 2.754,0.715 3.59,-0.451 0.984,-1.749 1.167,-3.849 1.278,-5.811 0.036,-1.775 -2.038,-1.973 -3.341,-2.186 z m -4.098,22.621 c 1.374,0.381 3.286,0.391 3.91,-1.181 0.766,-2.069 1.08,-4.315 1.202,-6.511 0.147,-1.8 -2.095,-1.846 -3.327,-2.145 -0.613,3.276 -1.197,6.557 -1.785,9.837 z M 252.713,236.13 c 2.439,-0.558 4.879,-1.136 7.318,-1.689 1.998,8.818 3.98,17.642 5.978,26.455 2.642,-0.588 5.284,-1.212 7.926,-1.816 0.36,1.603 0.725,3.21 1.08,4.818 -5.081,1.171 -10.157,2.353 -15.243,3.514 -2.348,-10.431 -4.706,-20.857 -7.059,-31.282 z m 102.138,-1.887 c 2.454,0.502 4.893,1.101 7.332,1.669 -2.459,10.43 -4.923,20.856 -7.378,31.282 -2.439,-0.563 -4.873,-1.116 -7.302,-1.694 2.439,-10.421 4.949,-20.826 7.348,-31.257 z m -113.836,4.721 c 2.185,-0.456 4.66,-0.375 6.526,0.999 1.785,1.197 2.591,3.301 3.24,5.259 1.613,5.081 3.266,10.142 4.858,15.228 1.009,3.22 0.37,7.297 -2.601,9.269 -3.413,2.323 -8.174,3.565 -11.983,1.471 -1.8,-0.888 -2.743,-2.81 -3.311,-4.64 -1.678,-5.304 -3.392,-10.598 -5.076,-15.902 -0.684,-2.156 -0.892,-4.6 0.228,-6.643 1.562,-3.007 4.97,-4.392 8.119,-5.041 z m -0.614,5.517 c -0.923,0.254 -1.501,1.253 -1.1,2.166 1.79,5.801 3.707,11.561 5.517,17.357 0.319,0.908 0.553,2.019 1.496,2.5 1.45,0.472 3.215,-0.978 2.535,-2.525 -1.871,-6.085 -3.833,-12.145 -5.801,-18.194 -0.253,-1.202 -1.516,-1.973 -2.647,-1.304 z m 115.784,23.21 c 5.05,-9.63 10.116,-19.254 15.156,-28.889 3.256,1.05 6.501,2.135 9.767,3.174 -2.028,10.614 -4.072,21.227 -6.105,31.845 -2.374,-0.78 -4.757,-1.541 -7.125,-2.327 0.608,-2.571 1.212,-5.147 1.815,-7.718 -1.303,-0.416 -2.601,-0.842 -3.894,-1.273 -1.217,2.368 -2.404,4.752 -3.575,7.135 -2.023,-0.619 -4.031,-1.288 -6.039,-1.947 z m 11.896,-9.909 c 0.928,0.315 1.861,0.619 2.799,0.918 1.045,-4.411 2.165,-8.808 3.164,-13.23 -2.023,4.087 -3.945,8.225 -5.963,12.312 z m 20.973,-12.51 c 3.129,1.38 6.247,2.784 9.381,4.169 -1.653,7.571 -3.387,15.121 -4.969,22.707 3.118,-6.911 6.222,-13.833 9.345,-20.745 1.861,0.837 3.748,1.623 5.573,2.536 -4.437,9.746 -8.813,19.522 -13.204,29.289 -2.992,-1.329 -5.979,-2.662 -8.961,-3.996 1.917,-8.661 3.859,-17.317 5.746,-25.988 -3.692,7.87 -7.155,15.841 -10.761,23.752 -1.79,-0.801 -3.585,-1.592 -5.365,-2.399 4.417,-9.771 8.803,-19.553 13.215,-29.325 z m -171.091,2.51 c 2.444,-1.009 5.532,-1.48 7.763,0.279 2.586,1.699 3.337,4.858 4.594,7.485 -2.363,1.045 -4.721,2.099 -7.084,3.144 -0.811,-1.724 -1.425,-3.555 -2.398,-5.198 -1.09,-1.627 -3.925,0.117 -2.962,1.872 2.211,5.481 4.752,10.831 7.064,16.272 0.507,1.024 0.847,2.368 2.069,2.763 1.009,0.041 2.323,-0.588 2.165,-1.779 -0.593,-2.297 -1.83,-4.371 -2.697,-6.567 2.352,-1.07 4.721,-2.105 7.084,-3.154 1.227,3.098 3.326,6.176 2.748,9.665 -0.472,2.966 -2.926,5.147 -5.537,6.349 -2.769,1.384 -6.253,2.028 -9.077,0.436 -2.52,-1.42 -3.687,-4.24 -4.792,-6.755 -1.795,-4.148 -3.671,-8.255 -5.436,-12.413 -0.948,-2.515 -1.471,-5.649 0.233,-7.967 1.364,-2.281 3.915,-3.433 6.263,-4.432 z m 178.302,36.267 c 7.206,-8.159 14.452,-16.287 21.683,-24.421 2.885,1.826 5.781,3.641 8.681,5.441 -4.528,9.833 -9.072,19.655 -13.62,29.472 -2.115,-1.328 -4.219,-2.662 -6.344,-3.97 1.187,-2.368 2.449,-4.706 3.621,-7.084 -1.162,-0.72 -2.318,-1.441 -3.464,-2.166 -1.714,2.024 -3.463,4.017 -5.152,6.06 -1.835,-1.06 -3.6,-2.231 -5.405,-3.332 z m 13.924,-6.749 c 0.822,0.512 1.643,1.024 2.47,1.537 2.059,-3.961 4.199,-7.876 6.156,-11.881 -2.936,3.397 -5.74,6.906 -8.626,10.344 z M 187.548,265.16 c 1.688,-1.151 3.346,-2.342 5.035,-3.488 6.075,8.793 12.251,17.514 18.265,26.353 -2.723,1.815 -5.37,3.742 -8.073,5.588 -6.455,-6.141 -12.966,-12.221 -19.416,-18.367 4.914,7.206 9.939,14.336 14.908,21.506 -1.607,1.136 -3.225,2.267 -4.837,3.392 -6.085,-8.777 -12.196,-17.54 -18.286,-26.312 2.845,-1.958 5.619,-4.006 8.514,-5.883 5.527,5.249 11.07,10.477 16.643,15.675 -4.153,-6.223 -8.529,-12.292 -12.753,-18.464 z m 234.822,36.379 c 6.911,-8.21 13.838,-16.409 20.77,-24.604 2.5,2.109 5.005,4.209 7.505,6.318 1.602,1.4 3.266,2.972 3.849,5.097 0.639,2.591 -0.568,5.223 -2.15,7.225 -3.15,3.773 -6.349,7.511 -9.503,11.278 -1.268,1.542 -2.901,2.891 -4.883,3.357 -2.81,0.735 -5.776,-0.426 -7.936,-2.221 -2.556,-2.145 -5.107,-4.295 -7.652,-6.45 z m 8.924,1.384 c 0.812,0.573 1.567,1.39 2.637,1.385 1.131,-0.34 1.973,-1.222 2.723,-2.1 3.246,-3.864 6.506,-7.723 9.772,-11.577 0.644,-0.811 1.379,-1.719 1.349,-2.824 -0.122,-1.04 -1.101,-1.618 -1.75,-2.312 -4.919,5.806 -9.817,11.622 -14.731,17.428 z M 168.481,280.099 c 2.733,-0.892 5.75,0.259 7.535,2.434 3.788,4.331 7.394,8.819 11.09,13.225 2.216,2.566 3.185,6.587 1.238,9.574 -2.262,3.463 -6.177,6.409 -10.507,5.978 -2.399,-0.106 -4.138,-1.992 -5.538,-3.742 -3.296,-3.981 -6.612,-7.941 -9.918,-11.911 -1.937,-2.16 -3.17,-5.234 -2.1,-8.088 1.385,-3.56 4.681,-6.197 8.2,-7.47 z m -0.695,6.207 c -0.983,0.512 -1.932,1.81 -0.999,2.824 3.864,4.787 7.891,9.442 11.785,14.204 0.629,0.71 1.273,1.633 2.322,1.673 1.466,-0.248 2.546,-2.109 1.334,-3.301 -3.864,-4.756 -7.844,-9.422 -11.749,-14.142 -0.659,-0.721 -1.607,-1.948 -2.693,-1.258 z m -19.264,12.033 c 1.75,-1.815 3.499,-3.626 5.269,-5.426 7.636,7.46 15.309,14.883 22.976,22.307 -1.714,1.826 -3.504,3.57 -5.208,5.406 -7.733,-7.368 -15.329,-14.888 -23.037,-22.287 z m 289.136,17.256 c 7.728,-7.439 15.472,-14.862 23.2,-22.296 3.585,3.676 7.155,7.368 10.659,11.115 -1.228,1.095 -2.404,2.247 -3.575,3.398 -1.811,-1.897 -3.641,-3.773 -5.447,-5.675 -1.678,1.577 -3.321,3.19 -4.999,4.772 1.82,1.891 3.651,3.778 5.461,5.684 -1.192,1.152 -2.394,2.298 -3.58,3.454 -1.846,-1.846 -3.524,-3.9 -5.507,-5.588 -2.546,2.286 -4.934,4.751 -7.434,7.089 1.866,1.957 3.742,3.909 5.608,5.867 -1.201,1.141 -2.398,2.287 -3.6,3.422 -3.585,-3.752 -7.195,-7.489 -10.786,-11.242 z m -298.522,-7.712 c 1.683,-1.932 4.067,-3.722 6.785,-3.312 3.204,0.198 5.41,2.759 7.799,4.574 -1.623,2.018 -3.261,4.016 -4.899,6.019 -1.511,-1.151 -2.88,-2.49 -4.482,-3.514 -1.309,-0.837 -3.099,1.065 -2.303,2.343 0.639,1.014 1.669,1.689 2.566,2.449 4.427,3.53 8.737,7.206 13.22,10.664 1.43,1.202 3.793,-1.029 2.464,-2.459 -1.592,-1.643 -3.524,-2.911 -5.233,-4.422 1.633,-1.998 3.256,-4.006 4.894,-6.004 2.505,2.186 5.791,3.966 6.845,7.338 0.923,2.809 -0.243,5.801 -1.962,8.037 -1.755,2.348 -4.249,4.483 -7.312,4.61 -2.632,0.212 -4.96,-1.334 -6.927,-2.891 -3.818,-3.124 -7.667,-6.207 -11.47,-9.351 -2.044,-1.805 -3.991,-4.371 -3.55,-7.261 0.162,-2.672 1.917,-4.853 3.565,-6.82 z m 315.981,28.092 c 8.692,-6.283 17.373,-12.576 26.065,-18.863 3.022,4.132 5.998,8.301 8.995,12.454 -1.338,0.978 -2.682,1.952 -4.031,2.91 -1.526,-2.13 -3.068,-4.249 -4.594,-6.379 -1.927,1.395 -3.859,2.774 -5.771,4.184 1.526,2.129 3.058,4.249 4.594,6.374 -1.272,0.933 -2.55,1.856 -3.823,2.784 -1.552,-2.12 -3.073,-4.26 -4.62,-6.38 -4.158,2.992 -8.285,6.02 -12.449,8.996 -1.45,-2.033 -2.931,-4.041 -4.366,-6.08 z M 127.706,323.719 c 9.711,4.645 19.396,9.34 29.127,13.945 -1.318,2.145 -2.738,4.229 -4.117,6.338 -2.308,-1.262 -4.655,-2.464 -6.963,-3.727 -0.755,1.146 -1.506,2.297 -2.251,3.454 1.977,1.739 3.925,3.519 5.943,5.223 -1.116,1.815 -2.302,3.59 -3.494,5.354 -7.971,-7.307 -15.917,-14.644 -23.894,-21.951 1.871,-2.891 3.763,-5.761 5.649,-8.636 z m 1.501,7.733 c 3.448,2.946 6.891,5.902 10.345,8.844 0.532,-0.817 1.065,-1.628 1.602,-2.439 -3.986,-2.13 -7.926,-4.351 -11.947,-6.405 z m 342.705,14.584 c 7.089,-3.763 14.178,-7.52 21.272,-11.278 1.157,2.211 2.318,4.422 3.489,6.633 -7.2,3.798 -14.381,7.632 -21.576,11.43 -0.867,0.502 -1.907,0.958 -2.313,1.947 -0.091,0.999 0.624,2.165 1.689,2.292 0.897,-0.056 1.719,-0.472 2.515,-0.862 7.155,-3.798 14.305,-7.612 21.48,-11.384 1.172,2.206 2.348,4.406 3.469,6.637 -7.028,3.707 -14.042,7.445 -21.065,11.162 -2.094,1.069 -4.513,1.952 -6.876,1.353 -2.408,-0.573 -4.051,-2.626 -5.289,-4.634 -1.526,-2.581 -2.469,-5.817 -1.419,-8.748 0.78,-2.124 2.702,-3.519 4.624,-4.548 z m -358.232,2.403 c 1.111,-1.972 2.601,-3.98 4.843,-4.721 2.15,-0.704 4.422,0.112 6.277,1.217 1.603,0.939 3.215,2.308 3.494,4.255 0.299,1.384 -0.126,2.774 -0.492,4.102 1.121,-1.912 2.977,-3.914 5.431,-3.397 4.681,0.999 8.251,5.294 13.195,5.324 -1.303,2.338 -2.505,4.726 -3.829,7.049 -4.503,-0.872 -7.92,-4.453 -12.434,-5.244 -1.287,0.107 -1.967,1.329 -2.571,2.313 4.306,2.292 8.611,4.579 12.911,6.881 -1.176,2.216 -2.368,4.422 -3.56,6.638 -9.411,-5.051 -18.853,-10.046 -28.265,-15.096 1.658,-3.109 3.332,-6.212 5,-9.321 z m 2.48,4.792 c 2.434,1.304 4.883,2.581 7.302,3.915 0.629,-1.08 1.496,-2.55 0.319,-3.61 -1.46,-1.304 -3.291,-2.353 -5.253,-2.592 -1.334,-0.055 -1.79,1.364 -2.368,2.287 z m 383.647,4.29 c 1.526,-0.623 3.058,-1.242 4.599,-1.84 2.196,5.557 4.442,11.095 6.628,16.652 -1.537,0.599 -3.063,1.222 -4.589,1.836 -0.634,-1.577 -1.268,-3.149 -1.892,-4.726 -8.422,3.377 -16.83,6.79 -25.248,10.167 -0.928,-2.322 -1.856,-4.64 -2.758,-6.967 8.413,-3.372 16.81,-6.785 25.222,-10.157 -0.649,-1.658 -1.318,-3.306 -1.962,-4.965 z m -392.76,4.326 c 1.537,0.603 3.063,1.227 4.589,1.851 -0.983,2.439 -1.997,4.873 -2.986,7.312 2.119,0.867 4.244,1.719 6.369,2.586 0.999,-2.439 1.998,-4.878 2.992,-7.317 1.526,0.613 3.052,1.237 4.584,1.84 -0.989,2.429 -1.958,4.869 -3.002,7.277 3.169,1.4 6.409,2.617 9.604,3.94 1.024,-2.515 2.064,-5.02 3.083,-7.535 1.521,0.619 3.043,1.237 4.569,1.841 -1.942,4.847 -3.945,9.67 -5.913,14.508 -9.908,-4.012 -19.817,-8.012 -29.72,-12.034 1.942,-4.756 3.904,-9.508 5.831,-14.269 z m 374.434,24.157 c 10.309,-2.956 20.613,-5.953 30.942,-8.833 0.944,3.687 2.12,7.312 3.028,11.009 0.603,2.53 0.664,5.715 -1.511,7.54 -2.338,1.871 -5.538,2.723 -8.489,2.267 -2.034,-0.325 -3.038,-2.257 -4.062,-3.798 0.477,1.78 0.548,3.945 -0.989,5.248 -2.718,2.465 -6.678,2.901 -10.187,3.033 -2.972,0.06 -4.67,-2.739 -5.502,-5.218 -1.192,-3.712 -2.14,-7.5 -3.23,-11.248 z m 20.4,1.943 c 0.426,1.105 0.548,2.89 2.023,3.047 2.003,0.036 3.996,-0.649 5.791,-1.506 1.547,-0.776 0.746,-2.632 0.426,-3.894 -2.748,0.786 -5.497,1.567 -8.24,2.353 z m -13.854,3.97 c 0.289,1.07 0.594,2.297 1.689,2.845 1.597,0.466 3.205,-0.284 4.746,-0.664 1.222,-0.457 2.744,-0.644 3.57,-1.77 0.284,-1.07 -0.193,-2.12 -0.4,-3.149 -3.21,0.887 -6.405,1.83 -9.605,2.738 z m -386,-8.397 c 2.054,-0.629 4.295,-0.462 6.339,0.147 4.726,1.374 9.467,2.708 14.193,4.087 2.48,0.72 4.731,2.556 5.522,5.071 0.609,2.038 0.492,4.254 -0.111,6.278 -0.913,3.108 -1.826,6.211 -2.723,9.32 -10.279,-2.936 -20.553,-5.893 -30.8312,-8.849 1.0548,-3.534 2.0334,-7.099 3.1287,-10.623 0.7404,-2.267 2.0993,-4.615 4.4825,-5.431 z m -0.958,9.913 c 7.266,2.095 14.548,4.143 21.805,6.278 0.263,-1.029 0.831,-2.241 0.071,-3.2 -1.283,-1.181 -3.073,-1.44 -4.671,-1.937 -4.68,-1.267 -9.295,-2.799 -14.005,-3.925 -1.836,-0.507 -2.926,1.233 -3.2,2.784 z m 408.165,8.311 c 2.581,-0.557 5.542,-0.917 7.839,0.7 3.236,2.211 4.082,6.491 4.067,10.162 0.056,3.129 -2.084,6.141 -5.152,6.912 -4.569,1.181 -9.259,1.856 -13.879,2.829 -3.286,0.629 -6.906,1.709 -10.071,0.061 -2.773,-1.333 -3.93,-4.487 -4.416,-7.332 -0.563,-2.956 0.04,-6.288 2.2,-8.489 1.75,-1.658 4.265,-1.871 6.517,-2.332 4.3,-0.832 8.595,-1.669 12.895,-2.511 z m 2.586,7.13 c -5.72,1.151 -11.455,2.196 -17.165,3.367 -0.867,0.157 -1.902,0.842 -1.704,1.851 -0.045,1.207 1.101,2.231 2.302,1.912 6.385,-1.177 12.764,-2.404 19.118,-3.717 1.708,-0.223 1.82,-2.358 0.821,-3.428 -0.994,-0.766 -2.277,-0.096 -3.372,0.015 z M 93.2342,405.395 c 1.6278,0.218 3.2556,0.462 4.8834,0.665 -0.3551,2.611 -0.7557,5.218 -1.1258,7.824 2.2718,0.335 4.5482,0.649 6.8202,0.964 0.375,-2.602 0.771,-5.203 1.136,-7.804 1.633,0.218 3.266,0.446 4.898,0.689 -0.38,2.602 -0.765,5.203 -1.135,7.809 3.417,0.482 6.84,0.964 10.263,1.44 0.401,-2.677 0.781,-5.354 1.171,-8.032 1.633,0.213 3.266,0.441 4.899,0.675 -0.761,5.157 -1.501,10.319 -2.257,15.476 -10.593,-1.496 -21.181,-2.977 -31.7687,-4.473 0.7302,-5.081 1.4807,-10.157 2.2159,-15.233 z m -2.0181,18.271 c 1.6277,0.142 3.2605,0.284 4.8882,0.405 -0.1825,2.632 -0.4664,5.254 -0.6947,7.881 2.3631,0.213 4.7314,0.416 7.0994,0.628 0.238,-2.621 0.477,-5.248 0.73,-7.87 1.562,0.142 3.124,0.279 4.686,0.426 -0.244,2.617 -0.482,5.234 -0.731,7.855 5.087,0.441 10.173,0.893 15.259,1.329 -0.229,2.49 -0.457,4.979 -0.695,7.469 -10.654,-0.928 -21.308,-1.861 -31.9618,-2.799 0.4665,-5.106 0.9483,-10.218 1.4199,-15.324 z m 398.6719,2.976 c 10.669,-0.928 21.333,-1.871 32.003,-2.794 0.192,2.49 0.415,4.975 0.598,7.465 -9.021,0.786 -18.037,1.577 -27.058,2.368 0.208,2.698 0.456,5.4 0.649,8.103 -1.643,0.132 -3.281,0.279 -4.919,0.411 -0.411,-5.188 -0.852,-10.37 -1.273,-15.553 z"
           id="path3054"
           inkscape:connector-curvature="0" />
        <path
           style="fill:#e21c2a;stroke:none"
           d="m 266.1,281.641 c 38.823,-9.818 81.15,-5.304 116.839,12.936 2.545,10.385 5.243,20.729 7.727,31.13 -7.707,11.298 -15.268,22.697 -22.864,34.071 -35.78,0.091 -71.565,0.015 -107.345,0.041 -8.454,-13.55 -16.846,-27.135 -25.284,-40.689 3.879,-10.431 7.693,-20.892 11.658,-31.283 6.197,-2.646 12.748,-4.492 19.269,-6.206 z m -65.48,32.793 c 11.689,-9.503 24.665,-17.408 38.437,-23.493 -2.996,7.844 -5.948,15.714 -9.051,23.518 -9.797,-0.06 -19.589,-0.005 -29.386,-0.025 z M 394.931,301.25 c 10.725,6.556 20.704,14.33 29.695,23.118 -7.9,0.015 -15.806,0.01 -23.706,0.005 -1.968,-7.718 -4.032,-15.405 -5.989,-23.123 z m -203.413,21.059 c 0.461,-0.365 0.887,-0.973 1.557,-0.892 11.308,-0.026 22.616,0 33.924,-0.016 7.997,13.945 15.978,27.895 23.975,41.835 0.441,0.548 0.416,1.243 0.157,1.866 -11.602,33.701 -23.219,67.402 -34.817,101.109 -16.353,5.314 -32.717,10.603 -49.085,15.866 -8.114,-7.636 -16.258,-15.243 -24.386,-22.869 -1.76,-1.77 -3.773,-3.312 -5.391,-5.203 -1.597,-32.804 6.826,-65.977 23.722,-94.131 8.27,-13.874 18.554,-26.531 30.344,-37.565 z m 204.529,8.692 c 11.277,-0.051 22.56,0.005 33.843,-0.026 1.688,-0.289 2.388,1.572 3.443,2.521 24.883,27.986 39.979,64.486 41.916,101.904 0.7,13.575 -0.086,27.246 -2.632,40.613 -9.026,5.811 -18.017,11.673 -27.028,17.514 -15.993,-6.592 -31.977,-13.214 -47.975,-19.796 -8.986,-34.984 -17.86,-69.994 -26.861,-104.978 8.418,-12.591 16.901,-25.141 25.294,-37.752 z m -136.883,36.185 c 34.801,-0.035 69.597,-0.005 104.399,-0.015 8.64,36.237 17.236,72.488 25.871,108.73 -28.244,16.288 -56.474,32.601 -84.734,48.868 -26.886,-19.072 -53.767,-38.148 -80.668,-57.2 11.653,-33.477 23.443,-66.915 35.132,-100.383 z m 231.673,84.907 c 10.861,-0.091 21.728,-0.015 32.595,-0.04 -0.933,29.167 -7.915,58.117 -20.314,84.531 -11.409,24.396 -27.403,46.627 -46.829,65.278 -4.929,-5.122 -9.777,-10.315 -14.701,-15.441 -2.51,-2.764 -5.258,-5.315 -7.606,-8.215 19.939,-19.163 35.552,-42.819 45.257,-68.715 6.907,-18.352 10.807,-37.814 11.598,-57.398 z m -352.335,15.086 c 7.895,7.373 15.644,14.898 23.554,22.251 -3.139,8.91 -6.551,17.723 -9.741,26.617 -7.145,-15.425 -11.729,-32.012 -13.813,-48.868 z m 29.528,26.718 c 16.485,-5.872 32.976,-11.723 49.456,-17.616 26.637,18.707 53.173,37.55 79.8,56.272 -0.086,19.107 -0.476,38.214 -0.669,57.321 -10.34,6.724 -20.684,13.453 -31.034,20.157 -32.195,-7.779 -61.849,-25.466 -84.166,-49.913 -9.381,-10.238 -17.5,-21.637 -24.097,-33.858 3.605,-10.776 7.16,-21.567 10.71,-32.363 z m 139.195,40.928 c 29.538,-17.023 59.071,-34.051 88.614,-51.059 15.998,7.211 32.032,14.34 47.996,21.622 1.491,10.451 3.037,20.892 4.543,31.343 -16.044,24.746 -38.513,45.314 -64.689,58.924 -15.917,8.331 -33.179,14.046 -50.901,16.977 -8.651,-7.261 -17.247,-14.589 -25.852,-21.901 0.056,-18.636 0.259,-37.271 0.289,-55.906 z m 142.614,-35.644 c 6.881,-4.477 13.752,-8.975 20.648,-13.432 -3.62,14.497 -9.153,28.533 -16.49,41.555 -1.476,-9.36 -2.759,-18.752 -4.158,-28.123 z m -172.035,113.36 c 8.392,-5.568 16.83,-11.06 25.258,-16.572 6.983,5.933 13.935,11.902 20.917,17.84 -15.354,1.708 -30.937,1.257 -46.175,-1.268 z"
           id="path3056"
           inkscape:connector-curvature="0" />
        <path
           style="fill:#ffcc00;stroke:none"
           d="m 89.2688,452.058 c 10.8622,0.005 21.7232,-0.041 32.5802,0.025 0.664,22.226 5.355,44.34 13.92,64.872 12.88,31.094 34.543,58.452 61.763,78.228 29.406,21.536 65.374,33.904 101.808,35.02 0,10.872 -0.137,21.744 -0.112,32.616 -35.551,-0.923 -70.835,-10.842 -101.62,-28.661 -29.71,-17.104 -55.242,-41.373 -73.852,-70.161 C 102.2,530.834 90.065,491.611 89.2688,452.058 z"
           id="path3058"
           inkscape:connector-curvature="0" />
        <path
           style="fill:#273785;stroke:none"
           d="m 392.959,607.931 c 14.893,-8.062 28.726,-18.082 41.023,-29.725 2.348,2.9 5.096,5.451 7.606,8.215 4.924,5.126 9.772,10.319 14.701,15.441 -18.336,17.636 -39.751,32.078 -63.006,42.402 -29.441,13.119 -61.839,19.488 -94.055,18.555 -0.025,-10.872 0.112,-21.744 0.112,-32.616 32.469,1.196 65.11,-6.755 93.619,-22.272 z"
           id="path3060"
           inkscape:connector-curvature="0" />
      </g>
    </g>
  </g>
</svg>
