<?xml version="1.0" encoding="utf-8"?>
<!-- Generator: Adobe Illustrator 15.1.0, SVG Export Plug-In . SVG Version: 6.00 Build 0)  -->
<!DOCTYPE svg PUBLIC "-//W3C//DTD SVG 1.1//EN" "http://www.w3.org/Graphics/SVG/1.1/DTD/svg11.dtd">
<svg version="1.1" id="Layer_1" xmlns="http://www.w3.org/2000/svg" xmlns:xlink="http://www.w3.org/1999/xlink" x="0px" y="0px"
	 width="612px" height="792px" viewBox="0 0 612 792" enable-background="new 0 0 612 792" xml:space="preserve">
<g>
	<path fill="#005EA5" d="M291.087,124.839c7.605,0.19,15.827-1.801,23.051,1.271c5.021,3.92,3.39,10.721,0.592,15.424
		c1.992,5.232,2.438,10.826,3.263,16.313c-1.779-0.19-5.317-0.593-7.097-0.783c-0.403-3.835-0.573-7.734-1.398-11.504
		c-3.283-1.886-7.266-1.568-10.868-1.166c-1.61,4.132-0.509,9.004-0.869,13.411c-1.482,0-4.47-0.021-5.954-0.042
		C291.575,146.788,291.405,135.813,291.087,124.839L291.087,124.839z"/>
	<path fill="#005EA5" d="M264.011,127.678c2.584-0.509,5.148-1.017,7.733-1.526c5.254,10.551,10.509,21.081,15.805,31.61
		c-1.759,0.127-5.296,0.403-7.055,0.552c-1.144-2.161-2.289-4.322-3.411-6.461c-4.217,0.613-8.432,1.27-12.606,1.969
		c-0.212,1.653-0.615,4.979-0.826,6.631c-2.331,0.466-4.661,0.954-6.97,1.42C259.117,150.474,261.871,139.14,264.011,127.678
		L264.011,127.678z"/>
	<path fill="#005EA5" d="M328.291,125.199c7.182,0.91,14.682,0.805,21.482,3.538c5.7,4.003,3.941,12.16-0.89,16.08
		c2.142,5.127,1.717,10.763,1.864,16.208c-1.736-0.253-5.169-0.763-6.906-1.017c0.021-4.088,0.444-8.241-0.34-12.288
		c-3.538-1.271-7.245-1.886-10.91-2.691c-0.635,4.407-1.123,8.834-1.589,13.262c-1.611-0.083-4.852-0.253-6.461-0.317
		C325.813,147.042,327.082,136.131,328.291,125.199L328.291,125.199z"/>
	<path fill="#005EA5" d="M224.689,135.178c8.834-1.991,17.691-4.004,26.525-6.018c0.317,1.251,0.975,3.772,1.292,5.021
		c-3.263,0.806-6.525,1.611-9.789,2.395c1.949,9.025,3.984,18.05,6.313,26.991c-1.609,0.297-4.809,0.932-6.419,1.229
		c-2.056-8.771-4.047-17.563-6.166-26.335c-3.241,0.424-6.441,1.208-9.704,1.377C226.214,138.673,225.197,136.343,224.689,135.178
		L224.689,135.178z"/>
	<path fill="#FFFFFF" d="M297.698,130.029c4.407-0.042,8.792,0.021,13.178,0.317c0.085,2.691-0.17,5.339-0.784,7.945
		c-3.982,1.314-8.221,1.187-12.352,1.441C297.718,136.512,297.698,133.27,297.698,130.029L297.698,130.029z"/>
	<path fill="#FFFFFF" d="M334.456,131.131c5.657-2.288,15.975,2.373,11.419,9.428c-4.024,2.012-8.621,0.233-12.838,0.148
		C333.418,137.507,333.651,134.267,334.456,131.131L334.456,131.131z"/>
	<path fill="#005EA5" d="M363.037,129.711c1.505,0.402,4.533,1.208,6.038,1.61c-2.14,10.636-4.533,21.229-6.23,31.949
		c-1.674-0.232-4.998-0.699-6.651-0.932C358.546,151.47,360.579,140.559,363.037,129.711L363.037,129.711z"/>
	<path fill="#FFFFFF" d="M269.032,134.903c2.204,3.855,4.069,7.881,5.721,12.012c-2.987,0.445-5.974,0.868-8.961,1.25
		C266.66,143.695,267.74,139.266,269.032,134.903L269.032,134.903z"/>
	<path fill="#005EA5" d="M371.003,157.508c-1.293-10.127,5.721-23.75,17.543-21.78c8.092,0.445,13.622,7.69,13.474,15.509
		c-2.119-0.699-4.217-1.398-6.292-2.119c-0.784-4.937-5.34-9.556-10.614-7.797c-7.184,3.919-11.23,16.462-4.09,22.098
		c4.237,2.754,8.264-0.529,11.547-3.072c1.928,0.72,3.856,1.441,5.785,2.161c-2.903,2.838-5.552,6.568-9.789,7.394
		C380.833,171.3,371.258,166.046,371.003,157.508L371.003,157.508z"/>
	<path fill="#005EA5" d="M198.544,145.813c5.53-7.754,18.708-9.153,24.28-0.594c-1.355,0.572-4.068,1.716-5.423,2.288
		c-5.064-4.64-11.314-2.246-15.637,2.013c3.497,6.631,11.547,3.072,17.458,3.581c8.284-1.546,11.97,10.403,6.568,15.487
		c-6.631,6.779-18.645,7.775-24.704-0.339c1.356-0.657,4.067-1.971,5.424-2.627c4.492,4.068,11.567,4.111,15.338-0.953
		c1.992-1.971-0.168-5.254-2.563-5.53c-5.063-0.064-10.084,0.89-15.148,0.72C197.931,158.779,195.938,150.877,198.544,145.813
		L198.544,145.813z"/>
	<path fill="#005EA5" d="M412.932,144.203c7.605,3.051,15.105,6.356,22.646,9.598c-0.699,1.186-2.055,3.581-2.733,4.788
		c-5.253-2.309-10.508-4.597-15.761-6.864c-1.124,2.287-2.225,4.555-3.307,6.864c5.001,2.224,10.043,4.386,15.107,6.546
		c-0.742,1.611-1.483,3.22-2.203,4.852c-5.021-2.161-10.022-4.322-15.064-6.419c-1.123,2.796-2.247,5.594-3.368,8.39
		c5.656,2.5,11.334,4.937,17.034,7.353c-0.573,1.25-1.718,3.749-2.288,5.02c-7.629-3.263-15.234-6.567-22.86-9.872
		C404.478,164.394,408.905,154.394,412.932,144.203L412.932,144.203z"/>
	<path fill="#005EA5" d="M173.227,154.139c11.462-6.165,23.156,5.191,23.813,16.483c2.161,11.907-13.05,20.975-22.965,15.254
		C162.782,179.627,159.117,159.394,173.227,154.139L173.227,154.139z"/>
	<path fill="#FFFFFF" d="M177.443,158.229c6.525-1.292,11.187,5.614,12.903,11.059c2.796,5.933-2.818,13.285-9.238,12.564
		C170.706,180.242,165.07,161.406,177.443,158.229L177.443,158.229z"/>
	<path fill="#005EA5" d="M444.138,157.953c2.034,1.271,4.067,2.563,6.102,3.856c-0.021,8.644-0.275,17.267-0.381,25.911
		c4.618-6.017,8.284-12.669,11.866-19.343c1.82,0.932,3.643,1.843,5.464,2.754c-5.528,9.386-10.55,19.068-16.44,28.221
		c-1.864-0.381-3.707-0.826-5.508-1.356c-0.383-9.216,0.105-18.411-0.465-27.606c-4.79,5.996-8.264,12.861-12.142,19.429
		c-1.694-1.144-3.368-2.268-5.063-3.39C433.144,176.957,438.672,167.465,444.138,157.953L444.138,157.953z"/>
	<path fill="#005EA5" d="M138.587,174.605c5.679-5.233,14.216-4.237,19.788,0.572c-1.377,0.847-4.152,2.542-5.55,3.39
		c-3.856-1.568-8.729-2.84-11.632,1.122c-4.427,6.695,1.484,15.488,7.542,18.92c4.428,2.648,8.327-1.631,11.144-4.534
		c-0.19-1.483-0.593-4.492-0.783-5.974c1.377-0.847,4.11-2.521,5.487-3.369c0.36,4.237,1.589,8.898-0.699,12.818
		c-4.131,7.838-15.763,10.254-22.373,4.152C133.735,195.495,129.52,181.491,138.587,174.605L138.587,174.605z"/>
	<path fill="#005EA5" d="M466.808,189.436c0.445-6.166,6.736-11.292,12.882-9.11c8.56,1.949,13.792,11.102,10.783,19.513
		c-6.672-2.331-3.771-10.827-9.809-13.581c-2.818-2.097-7.564-0.869-7.287,3.178c2.923,4.81,7.245,8.665,9.851,13.708
		c2.606,6.08-3.708,12.838-9.936,11.949c-9.534-1.292-18.941-11.61-13.241-21.292c6.078,3.156,3.093,12.097,9.575,14.513
		c2.817,2.415,6.864,1.25,8.155-2.183C474.881,200.072,468.885,195.94,466.808,189.436L466.808,189.436z"/>
	<path fill="#FDB926" d="M280.96,183.525c49.28-4.894,100,5.276,143.093,29.852c51.419,28.856,91.696,77.14,110.445,133.072
		c17.902,52.267,16.949,110.658-2.584,162.331c-19.768,53.178-59.111,98.623-108.581,126.294
		c-48.073,26.904-105.487,36.631-159.726,26.863c-52.182-9.004-101.038-35.976-136.503-75.297
		c-41.25-44.641-64.301-105.508-63.115-166.293c0.53-50.974,17.987-101.568,48.941-142.075
		C152.591,225.22,215.006,189.987,280.96,183.525L280.96,183.525z"/>
	<path fill="#FFFFFF" d="M283.905,189.034c51.971-4.873,105.446,8.178,149.217,36.652c46.61,30.021,82.288,76.801,98.22,129.958
		c17.268,55.932,12.331,118.241-13.348,170.825c-25.254,52.479-70.655,94.788-124.704,116.463
		c-49.618,19.999-106.08,22.416-157.14,6.441c-51.292-15.7-96.546-49.704-126.419-94.195
		c-32.31-47.692-46.059-107.564-37.626-164.577C80.6,329.076,114.985,271.746,164.9,234.86
		C199.329,208.971,241.024,193.017,283.905,189.034L283.905,189.034z"/>
	<path fill="#005EA5" d="M106.066,200.898c1.398-1.526,2.797-3.073,4.216-4.599c7.5,8.157,15.106,16.229,22.733,24.281
		c-1.653,1.525-3.327,3.029-4.979,4.533c-8.262-2.691-16.546-5.36-25.021-7.394c4.534,6.186,9.873,11.716,15.148,17.289
		c-1.187,0.932-3.538,2.796-4.703,3.728c-7.542-8.135-15.233-16.144-22.84-24.216c1.844-1.546,3.75-2.966,5.763-4.258
		c8.093,1.927,15.826,5.254,24.025,6.821C116.489,211.004,111.15,206.025,106.066,200.898L106.066,200.898z"/>
	<path fill="#005EA5" d="M502.339,197.911c5.911,5.487,11.714,11.081,17.71,16.482c-1.271,1.356-2.52,2.691-3.77,4.069
		c-4.43-4.11-8.793-8.221-13.18-12.352c-1.589,2.012-3.178,4.005-4.746,6.039c3.856,3.559,7.713,7.097,11.611,10.593
		c-1.25,1.377-2.479,2.754-3.708,4.152c-3.918-3.665-7.818-7.352-11.778-10.975c-2.098,2.034-4.176,4.089-6.251,6.144
		c4.407,4.449,8.92,8.792,13.496,13.072c-0.953,0.975-2.882,2.925-3.836,3.899c-6.037-5.699-12.076-11.399-18.24-16.928
		C487.274,214.098,494.859,206.046,502.339,197.911L502.339,197.911z"/>
	<path fill="#005EA5" d="M198.142,230.135c46.717-26.166,103.094-34.026,155.318-22.5c-7.351,3.03-11.079,10.53-10.889,18.243
		c-37.268,0.19-74.407,11.483-105.192,32.52c-38.284,25.848-66.61,66.166-77.458,111.102
		c-10.593,42.522-5.656,88.687,13.814,127.967c15.042,30.954,38.962,57.224,67.712,75.975c-6.864,8.39-15.381,15.232-24.895,20.402
		c-8.834,5.254-18.686,14.724-14.554,26.06c-45.212-23.855-81.653-63.794-101.123-111.08
		c-21.865-52.375-22.373-113.243-1.504-166.018C117.93,295.305,153.565,254.839,198.142,230.135L198.142,230.135z"/>
	<path fill="#FDB926" d="M353.46,207.635c6.271-0.89,15.466-2.754,18.39,4.747c1.123,5.254,1.674,10.614,1.781,15.995
		c0.252,8.263-1.718,16.419-1.463,24.662c-0.041,4.407,5.086,3.348,8.009,3.283c8.855-1.186,18.05-3.156,26.715,0.17
		c17.353,6.313,28.115,22.839,34.916,39.152c3.05,1.441,6.102,2.86,9.195,4.28c-1.505-4.322-3.029-8.602-4.472-12.924
		c3.263,4.449,6.271,9.068,9.005,13.856c7.31,1.991,14.853,2.353,22.204,0.339c0.954,0.402,2.839,1.229,3.792,1.631
		c2.648,1.229,3.39,4.343,4.747,6.673c-0.954,0.805-2.883,2.373-3.836,3.157c-7.966,1.355-15.847-0.742-23.56-2.458
		c-1.25-0.232-3.771-0.72-5.042-0.974c-7.437-0.89-16.335,0.72-21.758-5.679c-6.04-6.207-12.882-13.432-22.076-13.94
		c-5.127-0.423-8.284,4.428-9.683,8.687c-4.026,11.525-0.275,23.941-3.029,35.679c-1.612,8.686-5.87,16.504-10.424,23.961
		c2.944,6.145,5.634,12.648,4.829,19.64c-3.008,9.895-7.711,19.195-13.389,27.818c-6.08,8.876-12.205,17.775-19.407,25.825
		c-6.864,6.251-13.94,12.29-20.106,19.281c-9.47,10.509-16.186,23.092-24.194,34.683c-4.811,7.14-9.979,14.236-12.288,22.647
		c-2.204,6.99-5.297,13.835-10.488,19.152c-9.026,9.429-16.737,19.98-24.089,30.741c-5.169,7.33-9.979,14.915-15.233,22.204
		c-7.183,10.318-17.881,19.768-18.178,33.242c-0.063,7.393-3.475,15.127-11.568,16.461c-7.5-1.694-15.042-4.386-20.762-9.724
		c-4.132-11.336,5.72-20.806,14.554-26.06c9.513-5.17,18.03-12.013,24.895-20.402c6.674-6.885,10.657-15.89,11.102-25.487
		c0.954-10.637,2.648-21.569,8.39-30.826c5.064-9.364,13.919-15.573,21.483-22.734c5.424-6.546,9.789-13.897,14.089-21.228
		c6.801-11.76,12.458-24.133,18.687-36.187c3.579-7.076,7.563-13.962,11.715-20.742c4.28-7.099,8.179-14.449,11.123-22.204
		c1.674-4.575,3.115-9.237,4.515-13.919c-5.827,0.233-11.506,1.652-16.718,4.237c-6.927,3.072-14.301,4.937-21.482,7.288
		c-6.039,4.089-11.42,9.089-17.521,13.115c-9.428,5.783-19.937,9.788-28.602,16.8l-1.25,1.145c0.466,6.78,2.945,14.005-0.042,20.528
		c-1.97,4.322-6.843,5.87-10.826,7.714c-8.623-0.404-19.661,1.186-25.763-6.271c-4.067-10.063,6.378-17.883,14.301-21.716
		c7.14-3.623,13.94-7.989,19.471-13.815c8.834-9.596,11.525-23.283,21.187-32.33c5.253-5.594,11.038-10.699,17.287-15.19
		c4.174-2.754,8.517-5.297,13.072-7.416c6.398-2.775,12.924-5.191,19.471-7.563c7.225-3.263,18.052-4.407,20.425-13.369
		c1.461-13.348-10.063-27.734-24.279-25.826c-7.819,2.499-14.726,7.033-21.04,12.182c-2.689,2.076-5.402,4.152-8.093,6.229
		c-6.695,5.105-13.411,10.169-20.275,15.063c-7.14,5.084-14.28,10.148-21.526,15.085c-2.966,2.054-5.911,4.088-8.856,6.165
		c-1.631,5.424-3.728,10.7-6.398,15.699c-1.652-0.36-4.915-1.059-6.567-1.398c-3.771-5.021-10.615-9.872-9.004-16.97
		c2.859-4.132,8.22-5.445,12.267-8.135c9.173-7.14,17.224-15.594,25.953-23.242c7.139-6.398,14.512-12.521,21.61-18.961
		c15.445-12.988,30.868-26.145,47.881-37.056c6.845-4.555,15.425-5.36,22.246-9.894c0.933-7.395-3.538-14.471-4.916-21.674
		c-0.19-0.636-0.551-1.907-0.72-2.563c-5.106,0.085-10.213-0.042-15.297-0.169c4.809-1.081,9.725-1.674,14.641-2.098
		c-0.255-3.284-0.468-6.568-0.614-9.83C342.381,218.165,346.109,210.665,353.46,207.635L353.46,207.635z"/>
	<path fill="#005EA5" d="M371.85,212.381c35.234,11.461,68.306,31.038,93.454,58.432c-26.229-21.78-57.944-36.949-91.673-42.437
		C373.523,222.995,372.973,217.635,371.85,212.381L371.85,212.381z"/>
	<path fill="#005EA5" d="M70.938,221.406c0.169,2.797,0.276,5.593,0.424,8.411c1.271,0.911,2.521,1.864,3.75,2.839
		c2.246-6.568,10.953-6.737,16.419-4.66c7.161,3.346,13.919,10.444,13.093,18.898c-1.653,8.22-9.895,16.102-18.75,13.792
		c-10.063-2.331-19.682-13.347-14.661-23.94c-1.526-3.517-3.158-6.97-4.725-10.445C67.612,225.071,69.837,222.635,70.938,221.406
		L70.938,221.406z"/>
	<path fill="#FFFFFF" d="M237.379,258.397c30.785-21.037,67.924-32.33,105.192-32.52c0.146,3.262,0.359,6.546,0.614,9.83
		c-4.916,0.424-9.832,1.017-14.641,2.098c-34.873,5.381-68.136,21.271-93.56,45.826c-27.437,25.933-45.911,61.208-51.482,98.56
		c-5.021,33.58-0.339,68.687,14.301,99.407c12.267,26.292,31.42,49.152,54.746,66.356c-0.445,9.598-4.428,18.603-11.102,25.487
		c-28.75-18.751-52.669-45.021-67.712-75.975c-19.47-39.28-24.407-85.445-13.814-127.967
		C170.769,324.563,199.096,284.246,237.379,258.397L237.379,258.397z"/>
	<path fill="#005EA5" d="M509.309,251.746c8.961-6.483,17.521-13.496,26.483-19.979c4.215,6.208,10.444,11.589,11.928,19.216
		c-1.398,10.678-13.03,18.877-23.539,16.865C517.359,264.648,513.991,257.275,509.309,251.746L509.309,251.746z"/>
	<path fill="#FFFFFF" d="M79.985,234.225c7.013-4.026,14.979,2.479,18.073,8.644c3.071,7.351-6.335,15.423-13.051,10.741
		C77.486,250.729,71.468,239.669,79.985,234.225L79.985,234.225z"/>
	<path fill="#EF292F" d="M234.985,283.631c25.424-24.555,58.687-40.444,93.56-45.826c5.084,0.127,10.19,0.254,15.297,0.169
		c0.169,0.657,0.529,1.927,0.72,2.563c-30.042,5.954-58.156,21.461-78.601,44.343c-17.034,18.645-28.517,41.928-34.173,66.484
		c-4.047,2.69-9.408,4.003-12.267,8.135c-1.611,7.098,5.232,11.949,9.004,16.97c0.021,15.679,1.737,31.378,6.123,46.484
		c-7.923,3.833-18.369,11.652-14.301,21.716c6.103,7.457,17.141,5.867,25.763,6.271c9.279,16.589,21.631,31.376,36.314,43.452
		c-7.564,7.161-16.419,13.37-21.483,22.734c-5.741,9.257-7.436,20.189-8.39,30.826c-23.326-17.204-42.479-40.064-54.746-66.356
		c-14.64-30.721-19.322-65.827-14.301-99.407C189.075,344.839,207.549,309.563,234.985,283.631L234.985,283.631z"/>
	<path fill="#FFFFFF" d="M517.444,253.631c5.973-4.555,11.928-9.152,17.859-13.75c2.33,3.982,7.626,7.69,5.7,12.817
		c-3.052,5.042-8.519,9.576-14.704,9.238C521.998,261.067,520.093,256.618,517.444,253.631L517.444,253.631z"/>
	<path fill="#FFFFFF" d="M265.96,284.881c20.445-22.881,48.559-38.389,78.601-44.343c1.378,7.203,5.849,14.279,4.916,21.674
		c-6.821,4.533-15.401,5.339-22.246,9.894c-17.014,10.911-32.437,24.068-47.881,37.056c6.822-16.738,17.86-31.166,30.721-43.729
		c-23.412,14.831-42.12,36.864-52.331,62.69c-8.729,7.648-16.78,16.102-25.953,23.242
		C237.443,326.809,248.926,303.525,265.96,284.881L265.96,284.881z"/>
	<path fill="#005EA5" d="M56.299,257.572c0.975-1.336,2.903-3.984,3.855-5.297c9.111,6.313,18.263,12.542,27.373,18.856
		c-0.974,1.271-2.944,3.855-3.94,5.147C74.563,269.966,65.388,263.801,56.299,257.572L56.299,257.572z"/>
	<path fill="#005EA5" d="M529.053,278.334c9.449-5.636,18.963-11.186,28.392-16.864c4.067,6.864,8.155,13.686,12.202,20.551
		c-1.123,0.783-3.368,2.351-4.491,3.135c-3.094-5.127-6.144-10.275-9.151-15.467c-2.183,1.336-4.365,2.691-6.549,4.068
		c2.903,4.725,5.765,9.491,8.539,14.323c-1.186,0.445-3.559,1.334-4.746,1.779c-3.135-4.173-5.572-8.814-8.262-13.262
		c-2.671,1.377-5.36,2.754-8.009,4.173c3.072,5.361,6.229,10.658,9.407,15.954c-1.144,0.784-3.411,2.373-4.556,3.156
		C537.571,292.698,533.27,285.538,529.053,278.334L529.053,278.334z"/>
	<path fill="#005EA5" d="M257.74,328.123c10.211-25.826,28.919-47.86,52.331-62.69c-12.861,12.563-23.899,26.991-30.721,43.729
		C272.252,315.601,264.879,321.724,257.74,328.123L257.74,328.123z"/>
	<path fill="#005EA5" d="M44.032,276.788c2.796-7.098,10.466-9.682,17.563-8.834c-1.059,2.034-2.119,4.047-3.2,6.059
		c-5-0.36-10.36,3.008-10.19,8.454c2.288,7.627,12.374,14.024,19.831,9.619c4.428-3.136,2.775-8.751,0.445-12.628
		c1.165-1.715,2.331-3.411,3.516-5.105c4.514,5.529,6.738,13.58,1.908,19.64C63.947,309.055,35.897,293.102,44.032,276.788
		L44.032,276.788z"/>
	<path fill="#005EA5" d="M400.325,298.292c1.398-4.258,4.556-9.11,9.683-8.687c9.194,0.509,16.036,7.733,22.076,13.94
		c5.698,18.391,2.266,39.598-10.298,54.428c-7.563,9.683-18.623,15.721-30.085,19.597c0.805-6.991-1.885-13.495-4.829-19.64
		c4.554-7.457,8.812-15.275,10.424-23.961C400.05,322.233,396.299,309.817,400.325,298.292L400.325,298.292z"/>
	<path fill="#005EA5" d="M471.405,289.712c3.622,4.173,7.014,8.538,10.127,13.114c-0.953-0.402-2.838-1.229-3.792-1.631
		C474.986,297.762,473.292,293.652,471.405,289.712L471.405,289.712z"/>
	<path fill="#EF292F" d="M478.673,290.284c22.882,22.711,37.627,53.072,44.067,84.492c7.84,40.021,1.355,82.86-18.962,118.348
		c-19.598,34.958-51.865,62.501-89.363,76.547c-47.459,18.05-102.777,13.559-146.675-11.95
		c7.352-10.761,15.063-21.313,24.089-30.741c5.191-5.317,8.284-12.162,10.488-19.152c26.059,14.195,56.568,20.275,86.016,16.123
		c36.377-4.597,70.318-24.577,92.564-53.624c20.698-26.589,31.566-60.634,30-94.3C510.07,344.839,497.973,314.606,478.673,290.284
		L478.673,290.284z"/>
	<path fill="#FFFFFF" d="M432.084,303.546c5.423,6.398,14.321,4.789,21.758,5.679c4.09,24.724-2.754,51.229-19.555,70
		c-13.961,16.08-34.726,25.571-55.975,26.165c5.678-8.623,10.381-17.923,13.389-27.818c11.462-3.876,22.521-9.915,30.085-19.597
		C434.35,343.144,437.782,321.937,432.084,303.546L432.084,303.546z"/>
	<path fill="#005EA5" d="M549.075,315.136c10.297-3.899,20.466-8.178,30.72-12.204c2.944,7.246,5.826,14.513,8.709,21.78
		c-1.25,0.465-3.751,1.355-5.001,1.801c-2.119-5.191-4.173-10.382-6.251-15.572c-2.542,1.017-5.063,2.034-7.584,3.072
		c1.779,4.661,3.666,9.301,5.656,13.898c-1.736,0.487-3.494,0.89-5.253,1.208c-2.055-4.28-3.688-8.75-5.487-13.136
		c-4.322,1.694-8.623,3.432-12.925,5.211C550.79,319.161,549.923,317.147,549.075,315.136L549.075,315.136z"/>
	<path fill="#005EA5" d="M30.536,305.622c11.674,0.382,23.305,1.336,34.958,2.098c-1.038,2.119-2.054,4.216-3.093,6.334
		c-1.695-0.19-5.106-0.551-6.801-0.741c-1.674,3.898-3.305,7.796-4.915,11.715c1.822,1.652,3.623,3.284,5.444,4.937
		c-0.911,2.077-1.821,4.173-2.733,6.25c-8.495-8.071-17.416-15.698-25.996-23.686C28.439,310.221,29.477,307.911,30.536,305.622
		L30.536,305.622z"/>
	<path fill="#FFFFFF" d="M300.239,319.627c6.314-5.149,13.221-9.683,21.04-12.182c-2.692,13.156-1.188,26.779,3.854,39.195
		c-6.547,2.372-13.072,4.788-19.471,7.563C301.913,343.06,300.239,331.364,300.239,319.627L300.239,319.627z"/>
	<path fill="#005EA5" d="M321.279,307.445c14.216-1.908,25.74,12.478,24.279,25.826c-2.373,8.961-13.2,10.106-20.425,13.369
		C320.092,334.224,318.587,320.602,321.279,307.445L321.279,307.445z"/>
	<path fill="#EF292F" d="M453.842,309.225c1.271,0.254,3.792,0.742,5.042,0.974c8.857,23.898,7.33,51.504-4.194,74.258
		c-10.827,21.653-30.721,38.856-54.153,45.403c-13.494,4.026-27.839,3.453-41.631,1.354c7.202-8.05,13.327-16.949,19.407-25.825
		c21.249-0.594,42.014-10.085,55.975-26.165C451.088,360.454,457.932,333.949,453.842,309.225L453.842,309.225z"/>
	<path fill="#FFFFFF" d="M458.884,310.199c7.713,1.716,15.594,3.813,23.56,2.458c7.225,22.903,8.412,47.902,0.55,70.805
		c-11.588,36.631-43.897,65.911-81.735,73.115c-20.85,4.406-42.756,1.759-62.459-6.081c6.166-6.991,13.242-13.03,20.106-19.281
		c13.792,2.099,28.137,2.672,41.631-1.354c23.433-6.547,43.326-23.75,54.153-45.403
		C466.214,361.703,467.741,334.097,458.884,310.199L458.884,310.199z"/>
	<path fill="#005EA5" d="M482.443,312.657c0.953-0.784,2.882-2.352,3.836-3.157c13.051,24.068,19.937,51.929,16.291,79.28
		c-3.644,33.814-21.863,65.636-48.919,86.207c-38.94,30.574-96.08,34.768-139.047,10.192c8.009-11.591,14.725-24.174,24.194-34.683
		c19.703,7.84,41.609,10.487,62.459,6.081c37.838-7.204,70.147-36.484,81.735-73.115
		C490.855,360.559,489.668,335.56,482.443,312.657L482.443,312.657z"/>
	<path fill="#FFFFFF" d="M36.193,311.978c4.534,0.276,9.068,0.615,13.602,1.017c-1.144,2.818-2.309,5.615-3.453,8.432
		C42.824,318.419,39.413,315.283,36.193,311.978L36.193,311.978z"/>
	<path fill="#EF292F" d="M292.146,325.856c2.691-2.076,5.403-4.152,8.093-6.229c0,11.736,1.674,23.432,5.424,34.576
		c-4.555,2.119-8.897,4.662-13.072,7.416C290.495,349.796,290.218,337.72,292.146,325.856L292.146,325.856z"/>
	<path fill="#FFFFFF" d="M271.872,340.919c6.864-4.895,13.58-9.958,20.275-15.063c-1.928,11.864-1.652,23.94,0.445,35.763
		c-6.25,4.492-12.034,9.597-17.287,15.19C272.697,365.029,271.532,352.974,271.872,340.919L271.872,340.919z"/>
	<path fill="#005EA5" d="M20.41,335.835c5.147-4.979,12.86-1.653,16.017,3.855c1.08-0.36,3.262-1.102,4.343-1.462
		c3.877,0.72,7.775,1.398,11.673,2.013c-0.741,2.139-1.482,4.3-2.204,6.441c-4.025-0.594-8.093-2.353-12.203-1.568
		c-1.886,3.283-2.753,7.013-3.813,10.636c4.258,1.207,8.495,2.436,12.754,3.665c-0.467,1.504-1.356,4.492-1.801,5.996
		c-10.572-3.051-21.166-5.911-31.759-8.814C15.77,349.711,16.32,342,20.41,335.835L20.41,335.835z"/>
	<path fill="#005EA5" d="M567.952,338.822c7.437-2.797,15.296-4.322,22.881-6.632c0.53,1.546,1.61,4.661,2.14,6.208
		c-7.711,2.394-15.721,3.813-23.221,6.821c-5.826,2.204-2.965,13.051,3.242,11.992c7.925-0.954,15.425-3.877,23.136-5.826
		c0.658,2.076,1.335,4.174,2.034,6.271c-9.725,1.992-19.344,7.183-29.448,5.636C559.943,359.203,557.4,342.36,567.952,338.822
		L567.952,338.822z"/>
	<path fill="#FFFFFF" d="M24.286,339.394c2.648,0.869,5.954,0.869,7.691,3.412c0.127,4.088-1.653,7.945-2.67,11.864
		c-3.135-1.06-6.271-2.119-9.427-3.178C21.362,347.445,22.782,343.398,24.286,339.394L24.286,339.394z"/>
	<path fill="#005EA5" d="M595.812,340.856c5.106,0.783,10.001,2.648,10.148,8.771C601.915,347.53,598.015,344.966,595.812,340.856
		L595.812,340.856z"/>
	<path fill="#005EA5" d="M250.346,356.004c7.246-4.937,14.386-10,21.526-15.085c-0.339,12.055,0.826,24.11,3.433,35.89
		c-9.662,9.046-12.352,22.734-21.187,32.33C249.202,391.872,248.481,373.78,250.346,356.004L250.346,356.004z"/>
	<path fill="#FFFFFF" d="M241.489,362.169c2.945-2.076,5.891-4.11,8.856-6.165c-1.864,17.776-1.144,35.868,3.772,53.134
		c-5.531,5.826-12.332,10.192-19.471,13.815c-4.385-15.106-6.102-30.806-6.123-46.484c1.652,0.339,4.915,1.039,6.567,1.398
		C237.761,372.869,239.858,367.593,241.489,362.169L241.489,362.169z"/>
	<path fill="#005EA5" d="M594.245,365.666c1.355-0.17,4.067-0.487,5.423-0.657c1.103,8.728,2.522,17.394,3.877,26.081
		c-1.271,0.253-3.813,0.762-5.085,1.017c-0.592-3.348-1.25-6.653-1.864-10c-9.025,1.356-18.071,2.67-27.033,4.386
		c-0.297-1.589-0.891-4.789-1.186-6.377c9.024-1.674,18.134-2.903,27.182-4.385C595.07,372.36,594.731,368.991,594.245,365.666
		L594.245,365.666z"/>
	<path fill="#005EA5" d="M11.448,366.576c1.292,0.17,3.876,0.509,5.169,0.699c-0.806,5.806-1.696,11.61-2.563,17.416
		c2.457,0.487,4.936,0.995,7.415,1.504c0.975-5.466,1.927-10.953,2.776-16.462c1.27,0.275,3.771,0.826,5.02,1.102
		c-0.762,5.254-1.546,10.508-2.351,15.783c2.203,0.424,6.631,1.314,8.856,1.759c1.08-6.334,2.055-12.67,3.178-18.983
		c1.292,0.36,3.855,1.081,5.147,1.441c-1.271,8.114-2.521,16.25-3.538,24.407c-10.89-1.716-21.801-3.517-32.754-4.894
		C9.075,382.423,10.239,374.5,11.448,366.576L11.448,366.576z"/>
	<path fill="#FFFFFF" d="M325.833,384.352c5.212-2.585,10.891-4.004,16.718-4.237c-1.399,4.682-2.841,9.344-4.515,13.919
		C333.947,390.835,329.859,387.614,325.833,384.352L325.833,384.352z"/>
	<path fill="#EF292F" d="M304.351,391.64c7.182-2.352,14.556-4.216,21.482-7.288c4.026,3.263,8.114,6.483,12.203,9.682
		c-2.944,7.755-6.843,15.105-11.123,22.204C318.186,409.224,310.706,400.834,304.351,391.64L304.351,391.64z"/>
	<path fill="#FFFFFF" d="M286.829,404.755c6.102-4.026,11.483-9.026,17.521-13.115c6.355,9.194,13.835,17.584,22.563,24.598
		c-4.152,6.78-8.136,13.666-11.715,20.742C304.011,427.911,294.265,417.127,286.829,404.755L286.829,404.755z"/>
	<path fill="#005EA5" d="M7.825,406.195c5.445-8.306,17.965-7.881,25.826-3.497c8.728,5.425,4.851,17.014,5.402,25.446
		c-11.018-0.573-22.056-0.912-33.094-1.144C6.447,420.071,5.579,412.847,7.825,406.195L7.825,406.195z"/>
	<path fill="#005EA5" d="M571.151,400.22c11.122-0.551,22.225-1.145,33.368-1.313c-0.359,8.878,2.967,19.111-3.792,26.421
		c-3.665-0.468-7.287-1.06-10.742-2.395c-4.66,4.853-13.283,5.528-16.672-1.144C571.172,414.839,571.914,407.381,571.151,400.22
		L571.151,400.22z"/>
	<path fill="#FFFFFF" d="M15.346,407.359c5.084-2.35,11.547-1.568,16.123,1.633c3.792,3.198,2.458,8.452,2.543,12.773
		c-7.67-0.189-15.34-0.507-23.008-0.846C11.956,416.428,10.049,409.648,15.346,407.359L15.346,407.359z"/>
	<path fill="#005EA5" d="M258.228,421.555c8.665-7.012,19.173-11.017,28.602-16.8c7.436,12.372,17.182,23.156,28.369,32.225
		c-6.229,12.054-11.886,24.427-18.687,36.187C279.731,459.437,266.66,441.492,258.228,421.555L258.228,421.555z"/>
	<path fill="#FFFFFF" d="M576.787,406.068c3.242-0.128,6.461-0.233,9.703-0.339c-0.403,4.744,2.563,14.767-4.916,14.447
		C575.049,419.478,577.782,410.622,576.787,406.068L576.787,406.068z"/>
	<path fill="#FFFFFF" d="M591.214,405.686c2.733-0.19,5.445-0.38,8.199-0.55c0.149,3.623,0.445,7.267,0.149,10.912
		c-0.529,3.263-4.811,3.96-6.801,1.589C591.299,413.844,591.638,409.669,591.214,405.686L591.214,405.686z"/>
	<path fill="#FFFFFF" d="M256.977,422.699l1.25-1.145c8.432,19.938,21.504,37.882,38.284,51.611
		c-4.3,7.33-8.665,14.682-14.089,21.228c-14.683-12.076-27.035-26.863-36.314-43.452c3.983-1.844,8.856-3.392,10.826-7.714
		C259.922,436.704,257.443,429.479,256.977,422.699L256.977,422.699z"/>
	<path fill="#005EA5" d="M33.947,433.887c1.271-0.255,3.792-0.784,5.043-1.039c0.487,8.41,1.228,16.821,2.119,25.211
		c-11.038,0.807-22.056,1.696-33.051,2.841c-0.466-7.968-1.059-15.934-1.822-23.858c1.313-0.169,3.919-0.485,5.232-0.655
		c0.467,5.932,1.017,11.843,1.695,17.754c2.479-0.19,4.958-0.381,7.437-0.571c-0.424-5.489-0.848-10.953-1.208-16.442
		c1.271-0.041,3.834-0.146,5.105-0.211c0.402,5.297,0.847,10.594,1.335,15.89c2.986-0.211,5.995-0.424,9.004-0.614
		C34.646,446.089,33.904,440.009,33.947,433.887L33.947,433.887z"/>
	<path fill="#005EA5" d="M579.944,433.822c10.994-4.196,27.244,2.902,25.041,16.419c0.022,12.797-15.551,17.436-25.571,12.712
		C566.533,459.033,567.063,437.34,579.944,433.822L579.944,433.822z"/>
	<path fill="#FFFFFF" d="M580.283,440.538c7.161-3.412,20.02-0.466,19.449,9.238c-1.44,10.254-16.145,10.783-22.205,4.406
		C573.609,450.178,575.093,442.698,580.283,440.538L580.283,440.538z"/>
	<path fill="#005EA5" d="M9.095,468.44c1.293-0.021,3.877-0.064,5.169-0.085c1.505,5.171,2.246,10.509,3.327,15.764
		c2.753-0.403,5.508-0.805,8.262-1.229c-0.996-5.042-1.949-10.107-2.818-15.19c1.25,0.021,3.75,0.041,5,0.041
		c1.187,4.618,2.056,9.302,3.094,13.94c4.661-0.868,9.322-1.737,14.025-2.52c0.169,1.589,0.53,4.787,0.699,6.377
		c-10.763,1.843-21.461,4.108-32.203,6.058C12.188,483.865,10.706,476.131,9.095,468.44L9.095,468.44z"/>
	<path fill="#005EA5" d="M568.693,467.996c10.933,2.224,21.865,4.448,32.776,6.821c-0.468,1.419-1.398,4.216-1.866,5.615
		c-9.066-0.934-17.859-3.518-26.82-5.086c-1.252,5.487-2.373,11.018-3.602,16.527c-1.314-0.318-3.921-0.977-5.232-1.293
		C565.538,483.06,567.063,475.517,568.693,467.996L568.693,467.996z"/>
	<path fill="#005EA5" d="M518.758,484.012c-14.874,55.085-52.819,103.222-102.099,131.738
		c-57.987,34.109-131.588,39.09-193.898,13.877c8.093-1.334,11.505-9.068,11.568-16.461c0.297-13.475,10.996-22.924,18.178-33.242
		c33.602,18.368,72.86,26.313,110.953,21.991c46.272-4.746,90.234-27.753,120.87-62.711
		C499.075,523.06,509.815,503.843,518.758,484.012L518.758,484.012z"/>
	<path fill="#FDB926" d="M181.85,544.033c16.949-7.626,34.323,10.213,33.729,26.865c0.551,13.263-13.284,24.556-26.187,21.567
		c-8.814-2.309-19.025-6.207-22.605-15.401C162.167,564.288,169.901,549.563,181.85,544.033L181.85,544.033z"/>
</g>
</svg>
