<?xml version="1.0" encoding="utf-8"?>
<!-- Generator: Adobe Illustrator 15.1.0, SVG Export Plug-In . SVG Version: 6.00 Build 0)  -->
<!DOCTYPE svg PUBLIC "-//W3C//DTD SVG 1.1//EN" "http://www.w3.org/Graphics/SVG/1.1/DTD/svg11.dtd">
<svg version="1.1" id="Layer_1" xmlns="http://www.w3.org/2000/svg" xmlns:xlink="http://www.w3.org/1999/xlink" x="0px" y="0px"
	 width="612px" height="792px" viewBox="0 0 612 792" enable-background="new 0 0 612 792" xml:space="preserve">
<g>
	<path fill="#D8B17B" d="M198.79,31.51c30.72-0.38,61.46-0.04,92.19-0.15c41.09,0.1,82.18-0.2,123.27,0.14
		c0.18,8.02,2.23,15.85,5.02,23.33c6.74,17.89,17.9,33.98,31.841,47.02c12.699,11.64,27.29,21.12,42.97,28.22
		c32.83,15.04,69.11,20.29,104.87,22.36c-2.91,18.72-7.45,37.14-11.681,55.6C566.54,294.59,539.33,379.8,502.66,460.98
		c-23.141,51.06-50.46,100.5-84.69,145.01c-7.16,9.109-14.54,18.05-22.31,26.649c-1.771,1.23-0.51,3.181-0.04,4.771
		c4.3,10.43,7.08,21.67,6.979,33.01c-8.81-14.55-17.88-29.06-29-41.99c-4.949-6.05-10.55-11.51-16.09-17
		c-3.62-3.609-7.88-6.489-11.37-10.239c3.17-3.271,6.221-6.671,9.021-10.261c4.899,2.67,9.54,5.82,13.66,9.59
		c7.069-13.239,13.319-26.909,18.979-40.8c1.32-3,2.4-6.09,3.28-9.25c-10.45,1.5-20.88,3.07-31.36,4.28
		c-1.93,11.49-3.729,23.03-6.229,34.42c-1.33,0.32-3.01,0.13-3.87,1.43c-15.36,17.04-29.45,35.721-37.89,57.24
		c-2.95,6.79-4.73,14-7.07,21.01c-0.3,1.511-1.92,1.931-3.11,2.54c-9.91,3.98-20.58,6.12-31.27,6.17
		c0.35-17.93,6.46-35.239,13.69-51.47c8.12-17.28,18.35-33.609,30.46-48.37c8.061,0.28,15.681,3.24,23.65,4.09
		c0.56-6.439,2.03-12.739,3.12-19.1c7.53-44.4,13.67-89.03,19.22-133.72c13.46-110.01,23.771-220.39,32.74-330.84
		c1.21-16.54,2.76-33.06,3.64-49.61c-60.18-0.08-120.36,0-180.53-0.04c0.5,15.21,2.26,30.33,3.21,45.51
		c8.68,106.89,18.52,213.71,31.32,320.2c5.79,48.08,12.22,96.1,20.22,143.87c1.27,7.93,3.06,15.78,3.95,23.77
		c10.67-1.689,21.18-5.159,32.141-4.21c-5.84,9.221-12.561,17.891-17.95,27.42c-13.18,21.98-22.68,46.521-24.88,72.21
		c-12.29,0.74-24.87,0.83-36.72-3.01c4.96-21.74,11.3-43.319,21.19-63.38c3.1-6.95,7.41-13.27,10.82-20.03
		c-2-12.04-4.55-24.02-6.3-36.119c-10.6-1.25-21.18-2.681-31.73-4.301c6.5,16.971,13.87,33.63,22.46,49.66
		c1.86-1.06,3.71-2.12,5.57-3.18c-12.11,23.93-23.57,48.78-27.25,75.6c-4.05-0.55-8.07-1.2-12.06-2.05
		c0.2-12.61,3.61-24.87,8.34-36.479c-23.72-25.761-43.8-54.65-62.07-84.461c-23.25-38.529-42.9-79.149-60.15-120.689
		c-27.64-66.37-49.4-135.1-66.74-204.84c-5.85-23.7-11.55-47.48-15.61-71.57c4.95-0.65,9.95-0.83,14.94-1.03
		c33.04-2.8,66.32-9.34,96.16-24.3c20.71-10.34,39.51-25,53.16-43.82C189.21,68.13,197.7,50.39,198.79,31.51L198.79,31.51z"/>
	<path fill="#0766AF" d="M216.27,48.5c60.17,0.04,120.35-0.04,180.53,0.04c-0.88,16.55-2.43,33.07-3.64,49.61
		c-8.97,110.45-19.28,220.83-32.74,330.84c-5.55,44.689-11.689,89.319-19.22,133.72c-1.09,6.36-2.561,12.66-3.12,19.1
		c-7.97-0.85-15.59-3.81-23.65-4.09c-2.439-0.109-4.88-0.06-7.319-0.08c-10.96-0.949-21.47,2.521-32.141,4.21
		c-0.89-7.989-2.68-15.84-3.95-23.77c-8-47.771-14.43-95.79-20.22-143.87C238,307.72,228.16,200.9,219.48,94.01
		C218.53,78.83,216.77,63.71,216.27,48.5L216.27,48.5z"/>
	<path fill="#EB3226" d="M201.13,80.04c1.04,7.96,1.38,15.98,2.15,23.97c0.58,11.24,2.16,22.42,2.45,33.69
		c-12.74-0.13-25.39-1.65-38.1-2.35c-6.01-0.79-12.13-0.68-18.07-1.96c14.11-9.5,27.36-20.46,38.06-33.75
		C192.72,93.53,197.01,86.82,201.13,80.04L201.13,80.04z"/>
	<path fill="#EB3226" d="M411.77,79.68c12.381,22.01,30.82,40.42,52.211,53.72c-13.91,1.89-27.98,2.47-41.98,3.52
		c-4.89,0.64-9.83,0.72-14.75,0.8C408.37,118.35,410.17,99.02,411.77,79.68L411.77,79.68z"/>
	<path fill="#D8B17B" d="M269.5,92.37c8.4-0.1,16.79-0.05,25.19-0.03c0.41,12.72-0.68,25.52,0.62,38.19
		c7.44-0.17,14.89-0.08,22.33-0.05c0.15-12.65,0.051-25.31,0.07-37.96c8.55-0.36,17.12-0.24,25.68-0.08
		c-0.029,37.37-0.029,74.75,0.011,112.12c-3.131,0.36-6.29,0.84-9.431,0.36c-5.43-0.08-10.88,0.74-16.26-0.47
		c0.01-14.34,0.021-28.69-0.04-43.03c-7.56,0.01-15.12-0.07-22.68,0.02c-0.7,14.62,0.13,29.28-0.43,43.9
		c-8.39,0.1-16.76-0.15-25.12-0.72C269.51,167.2,269.39,129.79,269.5,92.37L269.5,92.37z"/>
	<path fill="#FEFEFD" d="M126.11,149.18c11.61,0.11,23.11,2.04,34.7,2.6c15.5,1.47,31.09,2.1,46.58,3.64
		c2.74,30.12,5.18,60.26,8.26,90.34c-24.82-1.85-49.58-4.53-74.31-7.37c-5.3-25.98-9.47-52.19-13.95-78.32
		C126.72,156.47,126.35,152.83,126.11,149.18L126.11,149.18z"/>
	<path fill="#FEFEFD" d="M419.93,154.25c22.271-1.6,44.551-3.18,66.75-5.59c-0.02,2.54-0.04,5.09-0.449,7.61
		c-4.7,27.39-9.011,54.86-14.511,82.1c-24.689,2.95-49.439,5.38-74.21,7.5c2.66-30.14,5.45-60.28,8.101-90.42
		C410.35,154.66,415.14,154.53,419.93,154.25L419.93,154.25z"/>
	<path fill="#EB3226" d="M104.42,154.37c1.56-0.46,3.15-0.83,4.74-1.18c3.69,24.14,7.9,48.19,12.21,72.22
		c0.74,3.58,1.31,7.19,1.59,10.83c-25.11-3.271-50.24-6.54-75.19-10.85c-4.21-16.85-8.27-33.74-11.88-50.74
		c-0.41-2.16-0.64-4.36-0.86-6.55C58.58,166.21,81.98,161.8,104.42,154.37L104.42,154.37z"/>
	<path fill="#EB3226" d="M503.78,153.17c6.609,1.35,12.85,4,19.399,5.6c18.09,4.99,36.71,7.59,55.32,9.64
		c-4.2,19.05-8.54,38.08-13.24,57.02c-24.89,4.29-49.97,7.34-74.97,10.92c-0.04-4.22,0.81-8.35,1.65-12.46
		C495.95,200.33,500.33,176.82,503.78,153.17L503.78,153.17z"/>
	<path fill="#FEFEFD" d="M52.91,243.73c24.44,3.57,48.86,7.33,73.41,10.07c4.25,20.22,7.85,40.58,12.24,60.78
		c1.44,7.44,3.4,14.79,4.5,22.3c-9.12-0.46-18.11-2.18-27.15-3.36c-12.79-1.97-25.6-3.87-38.36-6.03
		c-7.29-21.17-13.38-42.73-19.67-64.209C56.26,256.76,54.03,250.38,52.91,243.73L52.91,243.73z"/>
	<path fill="#FEFEFD" d="M486.58,253.84c24.52-2.89,48.97-6.35,73.37-10.17c-0.73,5.92-2.771,11.54-4.28,17.29
		c-6.17,22.31-12.82,44.5-20.15,66.47c-14.449,2.41-28.909,4.74-43.42,6.75c-7.369,0.96-14.689,2.44-22.13,2.68
		c3.061-17.72,7.4-35.21,10.69-52.89C482.76,273.95,484.37,263.84,486.58,253.84L486.58,253.84z"/>
	<path fill="#D8B17B" d="M269.44,248.18c8.11-0.4,16.29-0.53,24.39,0.1c6.7,18.06,14.2,35.82,20.99,53.85
		c1.35,3.63,2.81,7.21,4.5,10.69c0.569-10.59-0.03-21.2,0.09-31.8c0.02-10.94-0.08-21.87-0.19-32.81
		c8.05-0.33,16.141-0.81,24.17,0.07c-0.029,37.4-0.02,74.8,0,112.2c-8.1,0.17-16.199,0.08-24.3,0.07
		c-8.83-22.19-17.57-44.41-26.3-66.64c1.02,7.65,0.19,15.4,0.46,23.1c0.33,14.5-0.02,29,0.3,43.5c-8.03,0.12-16.06,0.06-24.08,0.04
		C269.43,323.09,269.49,285.63,269.44,248.18L269.44,248.18z"/>
	<path fill="#EB3226" d="M144.39,256.28c13.57,0.89,27.04,2.899,40.6,3.97c10.77,1.24,21.6,1.81,32.35,3.09
		c2.62,27.49,5.57,54.94,8.4,82.41c-7.3,0.2-14.51-1.06-21.78-1.52c-14.13-1.34-28.25-2.8-42.33-4.65
		C155.27,311.94,149.9,284.09,144.39,256.28L144.39,256.28z"/>
	<path fill="#EB3226" d="M447.99,258.21c6.88-0.51,13.7-1.74,20.609-1.86c-5.43,27.81-11.01,55.6-17.199,83.25
		c-14.33,1.86-28.71,3.34-43.091,4.68c-7.029,0.58-14.029,1.57-21.1,1.57c2.95-27.47,5.83-54.95,8.39-82.46
		C413.03,261.47,430.56,260.26,447.99,258.21L447.99,258.21z"/>
	<path fill="#EB3226" d="M83.84,346.12c19.39,2.5,38.67,5.91,58.1,8.19c1.63,0.2,3.32,0.27,4.9,0.79c1.04,0.91,1.03,2.48,1.49,3.72
		c5.42,24.43,11.56,48.69,17.68,72.95c-12.43-1.289-24.69-3.859-37.01-5.939c-5.52-0.93-11.03-1.92-16.48-3.22
		C102.26,397.39,92.32,372,83.84,346.12L83.84,346.12z"/>
	<path fill="#EB3226" d="M503.7,349.78c8.51-1.09,16.91-2.92,25.47-3.66c-6.37,19.77-13.939,39.13-21.42,58.5
		c-2.4,5.68-4.42,11.53-7.05,17.1c-0.561,1.48-2.391,1.37-3.62,1.761c-16.66,3.02-33.311,6.17-50.1,8.329
		c6.449-25.479,12.85-50.979,18.51-76.649C478.22,353.31,490.99,351.77,503.7,349.78L503.7,349.78z"/>
	<path fill="#FEFEFD" d="M165.61,357.47c20.63,2.27,41.3,4.16,61.96,6.11c3.11,25.67,6.04,51.37,9.2,77.04
		c-17.43-1.68-34.86-3.55-52.18-6.14C177.76,408.94,171.48,383.25,165.61,357.47L165.61,357.47z"/>
	<path fill="#FEFEFD" d="M385.4,363.59c20.569-1.94,41.149-3.82,61.68-6.12c-5.22,25.88-12.021,51.44-18.64,77
		c-17.311,2.57-34.721,4.46-52.131,6.17C379.35,414.96,382.37,389.27,385.4,363.59L385.4,363.59z"/>
	<path fill="#D8B17B" d="M281.92,409.9c7.01-7.61,18.08-10.091,28.05-9.021c6.94,0.84,13.94,3.21,18.98,8.24
		c6.97,7.12,10.21,17.35,9.859,27.2c-7.699,0.08-15.399,0.029-23.1,0.02c-0.95-3.05-1.76-6.55-4.69-8.35
		c-4.27-3.141-12.52-2-13.479,3.979c-1.04,4.7,3.14,8.061,6.93,9.761c8.709,3.81,18.37,5.89,26.07,11.739
		c6.59,5.54,10.29,13.94,10.79,22.46c0.7,10.931-0.66,22.75-7.51,31.7c-5.391,7.57-14.811,10.94-23.75,11.75
		c-9.82,0.8-20.45-1.83-27.57-8.96c-7.56-7.85-10.89-18.99-10.97-29.71c7.89,0.17,15.79-0.24,23.67,0.18
		c2.23,3.11,2.22,7.86,5.84,10.061c5,2.88,13.66,2.1,15.45-4.271c1.31-4.29-1.771-8.06-5.41-9.859
		c-9.77-4.891-21.15-6.98-29.54-14.36c-5.09-5.55-8.2-12.97-8.34-20.52l-0.59-0.801c-0.02-3.05,0.01-6.109,0.15-9.149
		C273.68,424,275.96,415.65,281.92,409.9L281.92,409.9z"/>
	<path fill="#FEFEFD" d="M121.05,442.23c4.1,0.13,8.16,0.789,12.18,1.609c12.43,2.07,24.85,4.3,37.37,5.86
		c3.22,9.35,5.48,18.99,8.42,28.43c4.93,16.7,10.27,33.28,15.93,49.75c-9.77-1.1-19.24-3.83-28.88-5.649
		c-1.91-0.461-3.95-0.65-5.67-1.641c-1.33-1.37-2.24-3.07-3.2-4.7C144.04,491.9,131.98,467.31,121.05,442.23L121.05,442.23z"/>
	<path fill="#FEFEFD" d="M448.81,448.82c14.46-1.71,28.671-5.16,43.15-6.65c-8.47,19.74-17.94,39.021-27.77,58.11
		c-4.021,6.93-7.171,14.38-11.86,20.91c-11.45,1.909-22.64,5.29-34.17,6.739c8.42-24.939,16.189-50.09,23.16-75.47
		C441.8,448.77,446.14,449.46,448.81,448.82L448.81,448.82z"/>
	<path fill="#EB3226" d="M189.33,452.44c16.62,2.279,33.36,3.63,49.97,5.949c3.12,26.16,6.97,52.24,11.17,78.25
		c-6.41-0.149-12.71-1.37-19.03-2.229c-5.83-0.88-11.7-1.54-17.41-3c-5.65-17.45-11.91-34.72-16.93-52.37
		C194.37,470.21,191.98,461.28,189.33,452.44L189.33,452.44z"/>
	<path fill="#EB3226" d="M384.09,457c13.22-1.21,26.38-2.98,39.561-4.54c-7.54,26.64-15.631,53.14-24.98,79.21
		c-11.97,1.97-23.97,4.23-36.1,4.93c3.88-23.449,7.069-47,10.22-70.55c0.45-2.58,0.35-5.359,1.45-7.77
		C377.39,457.27,380.82,457.52,384.09,457L384.09,457z"/>
	<path fill="#EB3226" d="M172.06,541.29c9.35,1.69,18.64,3.72,27.99,5.44c2.22,0.02,2.53,2.47,3.33,4.05
		c7.98,21.34,17.25,42.25,28.25,62.22c-1.3,1.69-2.6,3.4-3.9,5.1C206.66,594.46,188.24,568.5,172.06,541.29L172.06,541.29z"/>
	<path fill="#EB3226" d="M418.72,545.6c7.45-1.279,14.8-3.13,22.271-4.29c-16.181,27.131-34.63,52.931-55.46,76.7
		c-1.37-1.68-2.75-3.359-4.12-5.029c10.56-19.141,19.399-39.19,27.22-59.591c0.82-2.069,1.51-4.22,2.7-6.12
		C413.66,546.27,416.24,546.08,418.72,545.6L418.72,545.6z"/>
	<path fill="#D8B17B" d="M323.29,634.36c5.13-11.141,11.7-21.79,20.65-30.28c15.67,14.4,30.489,29.9,42.63,47.439
		c5.899,8.801,11.859,17.771,15.989,27.54c-0.42,15.78-5.409,31.551-13.89,44.87c-7.49-17.34-16.03-34.33-26.88-49.85
		c-9.62-14.061-21.5-26.63-35.16-36.82C325.48,636.33,324.38,635.34,323.29,634.36L323.29,634.36z"/>
	<path fill="#D8B17B" d="M320.05,638.57c12.97,8.13,23.63,19.41,33.11,31.319c13.01,16.891,23.32,35.74,31.51,55.391
		c0.75,1.66,1.39,3.7-0.15,5.149c-6.93,9.25-15.17,17.79-25.13,23.771c-5.54-15.38-11.449-30.72-19.71-44.891
		c-7.859-13.68-18.27-25.699-29.34-36.85C310.36,660.51,314.42,648.97,320.05,638.57L320.05,638.57z"/>
	<path fill="#D8B17B" d="M210.25,676.14c9.56,2.021,19.16,3.88,28.84,5.21c22.42,2.91,45.44,1.471,67.15-4.92
		c10.859,5.94,18.26,16.4,23.79,27.19c-17.38,8.58-36.79,12.27-56.03,13.31c-11.65,1.12-23.33,0.141-34.96-0.58
		c-6.87-0.58-13.74-1.319-20.52-2.63C213.59,701.8,210.28,689.1,210.25,676.14L210.25,676.14z"/>
	<path fill="#D8B17B" d="M302.65,717.76c10.2-2.27,20.13-5.729,29.53-10.29c5.351,6.78,9.66,14.32,13.42,22.09
		c1.83,3.421,3.46,6.971,4.471,10.74c-28.12,8.811-57.43,15.08-87.05,14.19c-3.79-0.32-7.98,0.59-11.42-1.42
		c-12.42-8.58-22.71-20.17-29.88-33.45C248.59,722.57,276.09,723.87,302.65,717.76L302.65,717.76z"/>
	<path fill="#D8B17B" d="M316.79,754.82c11.74-2.051,23.25-5.351,34.37-9.62c1.62,3.87,3.17,7.77,4.439,11.77
		c-14.729,8.41-31.529,13.42-48.56,13.34c-14.83-0.09-29.96-3.02-43-10.27C281.66,758.8,299.36,757.91,316.79,754.82L316.79,754.82z
		"/>
</g>
</svg>
