<?xml version="1.0" encoding="UTF-8" standalone="no"?>
<!-- Created with Inkscape (http://www.inkscape.org/) -->

<svg
   xmlns:dc="http://purl.org/dc/elements/1.1/"
   xmlns:cc="http://creativecommons.org/ns#"
   xmlns:rdf="http://www.w3.org/1999/02/22-rdf-syntax-ns#"
   xmlns:svg="http://www.w3.org/2000/svg"
   xmlns="http://www.w3.org/2000/svg"
   xmlns:sodipodi="http://sodipodi.sourceforge.net/DTD/sodipodi-0.dtd"
   xmlns:inkscape="http://www.inkscape.org/namespaces/inkscape"
   id="svg2985"
   version="1.1"
   inkscape:version="0.48.4 r9939"
   width="315.5"
   height="293.53"
   xml:space="preserve"
   sodipodi:docname="escudo_fef.ai"><metadata
     id="metadata2991"><rdf:RDF><cc:Work
         rdf:about=""><dc:format>image/svg+xml</dc:format><dc:type
           rdf:resource="http://purl.org/dc/dcmitype/StillImage" /><dc:title></dc:title></cc:Work></rdf:RDF></metadata><defs
     id="defs2989"><clipPath
       clipPathUnits="userSpaceOnUse"
       id="clipPath2999"><path
         d="m 0,595.276 841.89,0 L 841.89,0 0,0 0,595.276 z"
         id="path3001"
         inkscape:connector-curvature="0" /></clipPath><clipPath
       clipPathUnits="userSpaceOnUse"
       id="clipPath3015"><path
         d="m 315.917,493.455 105.493,0 0,-47.11 -105.493,0 0,47.11 z"
         id="path3017"
         inkscape:connector-curvature="0" /></clipPath></defs><sodipodi:namedview
     pagecolor="#ffffff"
     bordercolor="#666666"
     borderopacity="1"
     objecttolerance="10"
     gridtolerance="10"
     guidetolerance="10"
     inkscape:pageopacity="0"
     inkscape:pageshadow="2"
     inkscape:window-width="1366"
     inkscape:window-height="706"
     id="namedview2987"
     showgrid="false"
     inkscape:zoom="0.49320105"
     inkscape:cx="526.18127"
     inkscape:cy="372.04749"
     inkscape:window-x="-8"
     inkscape:window-y="-8"
     inkscape:window-maximized="1"
     inkscape:current-layer="g2993" /><g
     id="g2993"
     inkscape:groupmode="layer"
     inkscape:label="escudo_fef"
     transform="matrix(1.25,0,0,-1.25,0,293.53003)"><g
       id="g3246"
       transform="matrix(0.43880403,0,0,0.43880403,-54.682261,-16.974781)"><path
         inkscape:connector-curvature="0"
         id="path3003"
         style="fill:#373536;fill-opacity:1;fill-rule:nonzero;stroke:none"
         d="m 482.865,555.024 188.08,-2.097 28.362,20.402 -238.484,0 c -57.267,-2.939 -24.703,-29.647 -24.703,-29.647 12.602,-8.402 8.403,-13.657 8.403,-13.657 -1.054,-13.662 -11.547,-4.199 -11.547,-4.199 -14.711,10.5 -31.529,4.199 -31.529,4.199 -24.164,-13.662 -8.414,11.557 -8.414,11.557 21.028,29.42 -29.407,31.747 -29.407,31.747 l -238.5,0 28.367,-20.402 188.063,2.097 c 52.53,-6.524 34.687,-32.36 34.687,-32.36 -6.321,-9.448 -6.321,-39.919 -6.321,-39.919 l 12.617,-1.049 c -1.055,19.963 25.218,22.056 25.218,22.056 50.423,-9.454 21.003,-48.329 21.003,-48.329 -37.806,-17.855 -50.423,8.415 -50.423,8.415 -3.148,18.907 -21.017,-2.11 -21.017,-2.11 0,0 7.361,7.36 -1.054,-3.148 -8.389,-10.509 2.108,-14.705 2.108,-14.705 14.71,-10.517 3.148,-19.971 3.148,-19.971 -16.804,-5.253 -28.367,-34.662 -28.367,-34.662 l 51.491,8.398 -1.054,28.372 c 24.165,14.71 23.111,-30.474 23.111,-30.474 l 15.767,-1.051 c -5.258,47.281 20.999,31.525 20.999,31.525 l 0,-29.421 36.782,1.049 c -6.308,36.772 -21.017,36.772 -21.017,36.772 -7.344,9.463 0,13.659 0,13.659 l 54.641,0 c 16.795,15.756 -1.06,22.063 -1.06,22.063 l -28.36,2.107 c -4.204,13.656 -26.275,11.557 -26.275,11.557 13.656,32.565 -1.037,43.073 -1.037,43.073 -7.35,7.356 -1.06,17.858 -1.06,17.858 13.662,12.617 24.543,10.307 24.543,10.307 l 2.239,-0.012 z" /><path
         inkscape:connector-curvature="0"
         id="path3005"
         style="fill:none;stroke:#373536;stroke-width:1;stroke-linecap:butt;stroke-linejoin:miter;stroke-miterlimit:22.9260006;stroke-opacity:1;stroke-dasharray:none"
         d="m 482.865,555.024 188.08,-2.097 28.362,20.402 -238.484,0 c -57.267,-2.939 -24.703,-29.647 -24.703,-29.647 12.602,-8.402 8.403,-13.657 8.403,-13.657 -1.054,-13.662 -11.547,-4.199 -11.547,-4.199 -14.711,10.5 -31.529,4.199 -31.529,4.199 -24.164,-13.662 -8.414,11.557 -8.414,11.557 21.028,29.42 -29.407,31.747 -29.407,31.747 l -238.5,0 28.367,-20.402 188.063,2.097 c 52.53,-6.524 34.687,-32.36 34.687,-32.36 -6.321,-9.448 -6.321,-39.919 -6.321,-39.919 l 12.617,-1.049 c -1.055,19.963 25.218,22.056 25.218,22.056 50.423,-9.454 21.003,-48.329 21.003,-48.329 -37.806,-17.855 -50.423,8.415 -50.423,8.415 -3.148,18.907 -21.017,-2.11 -21.017,-2.11 0,0 7.361,7.36 -1.054,-3.148 -8.389,-10.509 2.108,-14.705 2.108,-14.705 14.71,-10.517 3.148,-19.971 3.148,-19.971 -16.804,-5.253 -28.367,-34.662 -28.367,-34.662 l 51.491,8.398 -1.054,28.372 c 24.165,14.71 23.111,-30.474 23.111,-30.474 l 15.767,-1.051 c -5.258,47.281 20.999,31.525 20.999,31.525 l 0,-29.421 36.782,1.049 c -6.308,36.772 -21.017,36.772 -21.017,36.772 -7.344,9.463 0,13.659 0,13.659 l 54.641,0 c 16.795,15.756 -1.06,22.063 -1.06,22.063 l -28.36,2.107 c -4.204,13.656 -26.275,11.557 -26.275,11.557 13.656,32.565 -1.037,43.073 -1.037,43.073 -7.35,7.356 -1.06,17.858 -1.06,17.858 13.662,12.617 24.543,10.307 24.543,10.307 l 2.239,-0.012 z" /><path
         inkscape:connector-curvature="0"
         id="path3007"
         style="fill:#ffffff;fill-opacity:1;fill-rule:nonzero;stroke:none"
         d="m 434.64,476.099 c 0,-15.414 -12.49,-27.905 -27.911,-27.905 -15.4,0 -27.911,12.491 -27.911,27.905 0,15.411 12.511,27.91 27.911,27.91 15.421,0 27.911,-12.499 27.911,-27.91" /><path
         inkscape:connector-curvature="0"
         id="path3009"
         style="fill:none;stroke:#ffffff;stroke-width:1;stroke-linecap:butt;stroke-linejoin:miter;stroke-miterlimit:22.9260006;stroke-opacity:1;stroke-dasharray:none"
         d="m 434.64,476.099 c 0,-15.414 -12.49,-27.905 -27.911,-27.905 -15.4,0 -27.911,12.491 -27.911,27.905 0,15.411 12.511,27.91 27.911,27.91 15.421,0 27.911,-12.499 27.911,-27.91 z" /><g
         id="g3011"><g
           id="g3013" /><g
           id="g3019"><g
             id="g3021"
             clip-path="url(#clipPath3015)"><path
               inkscape:connector-curvature="0"
               id="path3023"
               style="fill:#ffffff;fill-opacity:1;fill-rule:nonzero;stroke:none"
               d="m 405.131,491.145 c -4.854,0 -9.158,-2.16 -12.135,-5.521 l -24.336,-0.371 c -25.076,22.052 -32.852,-7.349 -32.852,-7.349 -11.25,-3.887 -12.537,-8.648 -12.537,-8.648 -9.951,-7.777 -6.919,-22.911 -6.919,-22.911 l 5.19,6.056 c 12.095,13.83 29.821,11.665 29.821,11.665 4.33,-6.047 18.158,0.872 18.158,0.872 l 22.785,0 c 2.977,-3.843 7.58,-6.358 12.825,-6.358 8.987,0 16.279,7.29 16.279,16.274 0,9.007 -7.292,16.291 -16.279,16.291" /></g></g></g><path
         inkscape:connector-curvature="0"
         id="path3025"
         style="fill:#373536;fill-opacity:1;fill-rule:nonzero;stroke:none"
         d="m 336.951,474.596 1.753,0.606 0.485,1.799 c 0.028,0.104 2.891,10.439 9.943,12.567 4.605,1.39 10.398,-0.946 17.217,-6.943 l 1.014,-0.892 27.229,0.415 1.024,1.155 c 2.479,2.8 5.858,4.342 9.515,4.342 7.046,0 12.779,-5.738 12.779,-12.791 0,-7.044 -5.733,-12.774 -12.779,-12.774 -3.929,0 -7.595,1.822 -10.058,5.001 l -1.051,1.357 -25.324,0 -0.74,-0.369 c -4.567,-2.273 -12.092,-4.28 -13.749,-1.965 l -0.895,1.25 -1.526,0.186 c -0.784,0.096 -18.964,2.106 -32.082,-11.987 0.544,3.805 2.036,8.067 5.72,10.946 l 0.852,0.665 c 0,0 0.214,0.679 0.305,0.965 0.021,0.049 1.546,3.419 10.368,6.467 m 10.122,21.662 c -8.623,-2.624 -12.716,-11.827 -14.092,-15.714 -8.563,-3.318 -11.603,-7.207 -12.604,-9.21 -6.626,-5.721 -7.964,-14.066 -7.964,-19.691 0,-3.352 0.455,-5.729 0.507,-5.986 l 1.412,-7.048 9.868,11.514 c 9.029,10.325 21.84,10.679 25.633,10.537 5.913,-5.324 17.197,-0.744 20.479,0.778 l 20.405,0 c 3.747,-4.051 8.9,-6.358 14.414,-6.358 10.906,0 19.779,8.87 19.779,19.774 0,10.913 -8.873,19.791 -19.779,19.791 -5.035,0 -9.82,-2.056 -13.488,-5.541 -2.199,-0.034 -19.555,-0.298 -21.743,-0.332 -8.355,7.013 -16.033,9.554 -22.827,7.486" /><path
         inkscape:connector-curvature="0"
         id="path3027"
         style="fill:#373536;fill-opacity:1;fill-rule:nonzero;stroke:none"
         d="m 353.964,479.85 c 0,-1.788 -1.456,-3.239 -3.239,-3.239 -1.794,0 -3.238,1.451 -3.238,3.239 0,1.789 1.444,3.245 3.238,3.245 1.783,0 3.239,-1.456 3.239,-3.245" /><path
         inkscape:connector-curvature="0"
         id="path3029"
         style="fill:#373536;fill-opacity:1;fill-rule:nonzero;stroke:none"
         d="m 250.712,536.79 -30.278,0 0,9.506 30.278,0 0,-9.506 z" /><path
         inkscape:connector-curvature="0"
         id="path3031"
         style="fill:#373536;fill-opacity:1;fill-rule:nonzero;stroke:none"
         d="m 255.888,519.75 -25.076,0 0,9.515 25.076,0 0,-9.515 z" /><path
         inkscape:connector-curvature="0"
         id="path3033"
         style="fill:#373536;fill-opacity:1;fill-rule:nonzero;stroke:none"
         d="m 290.911,519.75 -25.087,0 0,9.515 25.087,0 0,-9.515 z" /><path
         inkscape:connector-curvature="0"
         id="path3035"
         style="fill:#373536;fill-opacity:1;fill-rule:nonzero;stroke:none"
         d="m 325.493,519.75 -25.073,0 0,9.515 25.073,0 0,-9.515 z" /><path
         inkscape:connector-curvature="0"
         id="path3037"
         style="fill:#373536;fill-opacity:1;fill-rule:nonzero;stroke:none"
         d="m 358.345,519.75 -25.073,0 0,9.515 25.073,0 0,-9.515 z" /><path
         inkscape:connector-curvature="0"
         id="path3039"
         style="fill:#373536;fill-opacity:1;fill-rule:nonzero;stroke:none"
         d="m 285.282,501.354 -25.076,0 0,9.515 25.076,0 0,-9.515 z" /><path
         inkscape:connector-curvature="0"
         id="path3041"
         style="fill:#373536;fill-opacity:1;fill-rule:nonzero;stroke:none"
         d="m 316.417,501.354 -25.076,0 0,9.515 25.076,0 0,-9.515 z" /><path
         inkscape:connector-curvature="0"
         id="path3043"
         style="fill:#373536;fill-opacity:1;fill-rule:nonzero;stroke:none"
         d="m 350.999,501.354 -25.075,0 0,9.515 25.075,0 0,-9.515 z" /><path
         inkscape:connector-curvature="0"
         id="path3045"
         style="fill:#373536;fill-opacity:1;fill-rule:nonzero;stroke:none"
         d="m 325.624,482.443 -35.582,0 0,9.513 35.582,0 0,-9.513 z" /><path
         inkscape:connector-curvature="0"
         id="path3047"
         style="fill:#373536;fill-opacity:1;fill-rule:nonzero;stroke:none"
         d="m 208.559,536.79 -35.024,0 -13.827,9.506 48.851,0 0,-9.506 z" /><path
         inkscape:connector-curvature="0"
         id="path3049"
         style="fill:#373536;fill-opacity:1;fill-rule:nonzero;stroke:none"
         d="m 222.813,519.75 -26.335,0 -10.407,9.515 36.742,0 0,-9.515 z" /><path
         inkscape:connector-curvature="0"
         id="path3051"
         style="fill:#373536;fill-opacity:1;fill-rule:nonzero;stroke:none"
         d="m 248.319,501.354 -26.338,0 -10.392,9.515 36.73,0 0,-9.515 z" /><path
         inkscape:connector-curvature="0"
         id="path3053"
         style="fill:#373536;fill-opacity:1;fill-rule:nonzero;stroke:none"
         d="m 281.183,482.443 -31.93,0 -12.602,9.513 44.532,0 0,-9.513 z" /><path
         inkscape:connector-curvature="0"
         id="path3055"
         style="fill:#373536;fill-opacity:1;fill-rule:nonzero;stroke:none"
         d="m 307.546,466.231 -31.918,0 -12.613,9.514 44.531,0 0,-9.514 z" /><path
         inkscape:connector-curvature="0"
         id="path3057"
         style="fill:#373536;fill-opacity:1;fill-rule:nonzero;stroke:none"
         d="m 282.613,536.79 -24.202,0 0,9.506 24.202,0 0,-9.506 z" /><path
         inkscape:connector-curvature="0"
         id="path3059"
         style="fill:#373536;fill-opacity:1;fill-rule:nonzero;stroke:none"
         d="m 317.574,536.79 -25.948,0 0,9.506 25.948,0 0,-9.506 z" /><path
         inkscape:connector-curvature="0"
         id="path3061"
         style="fill:#373536;fill-opacity:1;fill-rule:nonzero;stroke:none"
         d="m 353.588,536.79 -27.235,0 0,9.506 27.235,0 0,-9.506 z" /><path
         inkscape:connector-curvature="0"
         id="path3063"
         style="fill:#373536;fill-opacity:1;fill-rule:nonzero;stroke:none"
         d="m 575.519,536.79 30.264,0 0,9.506 -30.264,0 0,-9.506 z" /><path
         inkscape:connector-curvature="0"
         id="path3065"
         style="fill:#373536;fill-opacity:1;fill-rule:nonzero;stroke:none"
         d="m 570.334,519.75 25.067,0 0,9.515 -25.067,0 0,-9.515 z" /><path
         inkscape:connector-curvature="0"
         id="path3067"
         style="fill:#373536;fill-opacity:1;fill-rule:nonzero;stroke:none"
         d="m 535.319,519.75 25.073,0 0,9.515 -25.073,0 0,-9.515 z" /><path
         inkscape:connector-curvature="0"
         id="path3069"
         style="fill:#373536;fill-opacity:1;fill-rule:nonzero;stroke:none"
         d="m 500.737,519.75 25.057,0 0,9.515 -25.057,0 0,-9.515 z" /><path
         inkscape:connector-curvature="0"
         id="path3071"
         style="fill:#373536;fill-opacity:1;fill-rule:nonzero;stroke:none"
         d="m 467.87,519.75 25.073,0 0,9.515 -25.073,0 0,-9.515 z" /><path
         inkscape:connector-curvature="0"
         id="path3073"
         style="fill:#373536;fill-opacity:1;fill-rule:nonzero;stroke:none"
         d="m 540.937,501.354 25.062,0 0,9.515 -25.062,0 0,-9.515 z" /><path
         inkscape:connector-curvature="0"
         id="path3075"
         style="fill:#373536;fill-opacity:1;fill-rule:nonzero;stroke:none"
         d="m 509.802,501.354 25.073,0 0,9.515 -25.073,0 0,-9.515 z" /><path
         inkscape:connector-curvature="0"
         id="path3077"
         style="fill:#373536;fill-opacity:1;fill-rule:nonzero;stroke:none"
         d="m 471.772,501.354 26.789,0 0,9.515 -26.789,0 0,-9.515 z" /><path
         inkscape:connector-curvature="0"
         id="path3079"
         style="fill:#373536;fill-opacity:1;fill-rule:nonzero;stroke:none"
         d="m 511.118,482.443 25.056,0 0,9.513 -25.056,0 0,-9.513 z" /><path
         inkscape:connector-curvature="0"
         id="path3081"
         style="fill:#373536;fill-opacity:1;fill-rule:nonzero;stroke:none"
         d="m 481.333,482.015 23.29,0 0,9.506 -23.29,0 0,-9.506 z" /><path
         inkscape:connector-curvature="0"
         id="path3083"
         style="fill:#373536;fill-opacity:1;fill-rule:nonzero;stroke:none"
         d="m 617.672,536.79 35.009,0 13.828,9.506 -48.837,0 0,-9.506 z" /><path
         inkscape:connector-curvature="0"
         id="path3085"
         style="fill:#373536;fill-opacity:1;fill-rule:nonzero;stroke:none"
         d="m 603.4,519.75 26.344,0 10.403,9.515 -36.747,0 0,-9.515 z" /><path
         inkscape:connector-curvature="0"
         id="path3087"
         style="fill:#373536;fill-opacity:1;fill-rule:nonzero;stroke:none"
         d="m 577.899,501.354 26.333,0 10.42,9.515 -36.753,0 0,-9.515 z" /><path
         inkscape:connector-curvature="0"
         id="path3089"
         style="fill:#373536;fill-opacity:1;fill-rule:nonzero;stroke:none"
         d="m 545.032,482.443 31.916,0 12.62,9.513 -44.536,0 0,-9.513 z" /><path
         inkscape:connector-curvature="0"
         id="path3091"
         style="fill:#373536;fill-opacity:1;fill-rule:nonzero;stroke:none"
         d="m 524.358,466.231 27.825,0 11.018,9.514 -38.843,0 0,-9.514 z" /><path
         inkscape:connector-curvature="0"
         id="path3093"
         style="fill:#373536;fill-opacity:1;fill-rule:nonzero;stroke:none"
         d="m 543.603,536.79 24.202,0 0,9.506 -24.202,0 0,-9.506 z" /><path
         inkscape:connector-curvature="0"
         id="path3095"
         style="fill:#373536;fill-opacity:1;fill-rule:nonzero;stroke:none"
         d="m 508.656,536.79 25.934,0 0,9.506 -25.934,0 0,-9.506 z" /><path
         inkscape:connector-curvature="0"
         id="path3097"
         style="fill:#373536;fill-opacity:1;fill-rule:nonzero;stroke:none"
         d="m 472.627,536.79 27.232,0 0,9.506 -27.232,0 0,-9.506 z" /><path
         inkscape:connector-curvature="0"
         id="path3099"
         style="fill:#373536;fill-opacity:1;fill-rule:nonzero;stroke:none"
         d="m 603.702,379.204 c 0,0 -33.539,-203.907 -192.643,-340.519 l -1.559,0 C 250.413,175.297 216.842,379.204 216.842,379.204 c 0,0 191.553,80.78 386.86,0" /><path
         inkscape:connector-curvature="0"
         id="path3101"
         style="fill:#c33b3a;fill-opacity:1;fill-rule:nonzero;stroke:none"
         d="m 317.249,159.618 c 24.139,-36.683 54.482,-73.505 92.485,-106.183 l 1.467,0 c 38.006,32.678 68.331,69.5 92.476,106.183 l -186.428,0 z" /><path
         inkscape:connector-curvature="0"
         id="path3103"
         style="fill:#373536;fill-opacity:1;fill-rule:nonzero;stroke:none"
         d="M 495.251,155.169 C 470.32,118.496 441.852,86.084 410.472,58.744 c -31.406,27.358 -59.877,59.763 -84.8,96.425 l 169.579,0 z m -186.263,8.904 4.54,-6.905 c 27.034,-41.076 58.425,-77.116 93.3,-107.105 l 1.254,-1.084 4.771,0 1.253,1.084 c 34.856,29.972 66.247,66.012 93.286,107.105 l 4.546,6.905 -202.95,0 z" /><path
         inkscape:connector-curvature="0"
         id="path3105"
         style="fill:#383f6c;fill-opacity:1;fill-rule:nonzero;stroke:none"
         d="m 264.966,258.14 c 12.821,-30.481 29.873,-64.447 52.283,-98.522 l 186.428,0 c 22.419,34.075 39.459,68.041 52.294,98.522 l -291.005,0 z" /><path
         inkscape:connector-curvature="0"
         id="path3107"
         style="fill:#373536;fill-opacity:1;fill-rule:nonzero;stroke:none"
         d="m 549.106,253.685 c -13.787,-31.79 -29.841,-61.912 -47.902,-89.612 l -181.485,0 c -18.092,27.763 -34.141,57.884 -47.887,89.612 l 277.274,0 z m -290.845,8.904 2.6,-6.176 c 14.845,-35.282 32.565,-68.674 52.667,-99.239 l 1.319,-2.005 191.228,0 1.317,1.999 c 20.065,30.497 37.795,63.888 52.681,99.245 l 2.604,6.176 -304.416,0 z" /><path
         inkscape:connector-curvature="0"
         id="path3109"
         style="fill:#fbe329;fill-opacity:1;fill-rule:nonzero;stroke:none"
         d="m 555.646,257.404 c 27.729,65.686 35.91,115.373 35.91,115.373 -182.85,75.761 -362.185,0 -362.185,0 0,0 8.177,-49.687 35.906,-115.373 l 290.369,0 z" /><path
         inkscape:connector-curvature="0"
         id="path3111"
         style="fill:#373536;fill-opacity:1;fill-rule:nonzero;stroke:none"
         d="m 586.502,369.941 c -2.353,-12.087 -11.594,-54.682 -33.841,-108.082 l -284.396,0 c -22.274,53.454 -31.509,96.083 -33.847,108.121 24.557,9.403 187.402,66.509 352.084,-0.039 M 341.277,405.599 C 273.788,396.156 228.088,377.071 227.636,376.88 l -3.231,-1.365 0.57,-3.458 c 0.082,-0.504 8.585,-50.967 36.199,-116.384 l 1.149,-2.724 296.275,0 1.151,2.724 c 27.613,65.417 36.12,115.88 36.2,116.384 l 0.57,3.484 -3.26,1.35 c -95.382,39.522 -189.675,37.425 -251.982,28.708" /><path
         inkscape:connector-curvature="0"
         id="path3113"
         style="fill:#373536;fill-opacity:1;fill-rule:evenodd;stroke:none"
         d="m 303.618,357.302 46.002,0 0,-12.999 -27.363,0 0,-10.477 23.384,0 0,-12.166 -23.384,0 0,-24.62 -18.639,0 0,60.262 z" /><path
         inkscape:connector-curvature="0"
         id="path3115"
         style="fill:#373536;fill-opacity:1;fill-rule:evenodd;stroke:none"
         d="m 345.743,313.798 17.938,0 0,-16.758 -17.938,0 0,16.758 z" /><path
         inkscape:connector-curvature="0"
         id="path3117"
         style="fill:#373536;fill-opacity:1;fill-rule:evenodd;stroke:none"
         d="m 374.733,357.302 49.879,0 0,-12.888 -31.215,0 0,-9.644 29.027,0 0,-12.259 -29.027,0 0,-11.849 32.161,0 0,-13.622 -50.825,0 0,60.262 z" /><path
         inkscape:connector-curvature="0"
         id="path3119"
         style="fill:#373536;fill-opacity:1;fill-rule:evenodd;stroke:none"
         d="m 434.599,313.798 17.924,0 0,-16.758 -17.924,0 0,16.758 z" /><path
         inkscape:connector-curvature="0"
         id="path3121"
         style="fill:#373536;fill-opacity:1;fill-rule:evenodd;stroke:none"
         d="m 463.798,357.302 46.004,0 0,-12.999 -27.353,0 0,-10.477 23.382,0 0,-12.166 -23.382,0 0,-24.62 -18.651,0 0,60.262 z" /><path
         inkscape:connector-curvature="0"
         id="path3123"
         style="fill:#373536;fill-opacity:1;fill-rule:evenodd;stroke:none"
         d="m 505.938,313.798 17.918,0 0,-16.758 -17.918,0 0,16.758 z" /></g></g></svg>