<?xml version="1.0" encoding="UTF-8" standalone="no"?>
<!-- Created with Inkscape (http://www.inkscape.org/) -->
<svg id="svg2" xmlns:rdf="http://www.w3.org/1999/02/22-rdf-syntax-ns#" xmlns="http://www.w3.org/2000/svg" height="262" width="220" version="1.1" xmlns:cc="http://creativecommons.org/ns#" xmlns:dc="http://purl.org/dc/elements/1.1/">
 <defs id="defs4">
  <clipPath id="clipPath3013" clipPathUnits="userSpaceOnUse">
   <path id="path3015" d="m45.496,27.18,90.983,0,0,50.822-90.983,0,0-50.822z"/>
  </clipPath>
 </defs>
 <metadata id="metadata7">
  <rdf:RDF>
   <cc:Work rdf:about="">
    <dc:format>image/svg+xml</dc:format>
    <dc:type rdf:resource="http://purl.org/dc/dcmitype/StillImage"/>
    <dc:title/>
   </cc:Work>
  </rdf:RDF>
 </metadata>
 <g id="layer1" transform="translate(4.1393895,-534.01482)">
  <g id="g3009" transform="matrix(7.0924191,0,0,-7.0924191,-335.83045,988.60926)">
   <g id="g3011" clip-path="url(#clipPath3013)">
    <g id="g3017" transform="translate(62.278,27.187897)">
     <path id="path3019" d="m0,0c-4.979,1.342-9.098,3.572-11.727,6.565-2.51,2.846-3.789,6.401-3.784,10.414v19.896h31.019v-19.896c0.006-4.013-1.272-7.568-3.783-10.414-2.629-2.993-6.743-5.223-11.725-6.565" fill-rule="nonzero" fill="#FFF"/>
    </g>
    <g id="g3021" transform="translate(76.432999,44.166397)">
     <path id="path3023" d="M0,0c0-7.641-4.938-13.041-14.187-15.603-9.253,2.562-14.155,7.962-14.155,15.603v18.377h28.342v-18.377z" fill-rule="nonzero" fill="#FFF"/>
    </g>
    <g id="g3025" transform="translate(76.175003,44.168793)">
     <path id="path3027" d="m0,0c0-7.486-4.835-12.775-13.897-15.285-9.065,2.51-13.866,7.799-13.866,15.285v18.004h27.763v-18.004zm-28.533,18.754,0-18.756c0-3.832,1.202-7.146,3.567-9.837,2.479-2.824,6.201-4.919,11.066-6.23,4.868,1.311,8.592,3.406,11.072,6.23,2.365,2.691,3.564,6.005,3.564,9.837v18.756h-29.269z" fill-rule="nonzero" fill="#2b57ac"/>
    </g>
    <g id="g3029" transform="translate(61.847,39.451096)">
     <path id="path3031" d="m0,0-0.008,0.135-0.082,0c-0.06-0.033-0.13-0.123-0.179-0.253l-0.023-0.062c-0.057-0.177-0.055-0.312-0.055-0.312s0.133,0.135,0.213,0.243l0.034,0.051,0.1,0.198" fill-rule="nonzero" fill="#1c5329"/>
    </g>
    <g id="g3033" transform="translate(61.111999,40.317306)">
     <path id="path3035" d="m0,0c-0.097-0.068-0.34-0.287-0.196-0.628,0.168-0.399,0.543-0.42,0.639-0.417l0.022,0.061c0.05,0.13,0.12,0.219,0.18,0.253-0.019,0.118-0.046,0.269-0.082,0.366-0.048,0.12-0.156,0.276-0.219,0.359-0.059-0.033-0.167-0.045-0.344,0.006" fill-rule="nonzero" fill="#ea1f29"/>
    </g>
    <g id="g3037" transform="translate(62.251999,40.860504)">
     <path id="path3039" d="m0,0c-0.04,0.056-0.068,0.182-0.082,0.368v0.037c-0.104,0.084-0.468,0.334-0.815,0.05-0.359-0.29-0.227-0.663-0.166-0.792l0.294-0.094c0.081,0.064,0.217,0.168,0.345,0.248,0.132,0.083,0.308,0.149,0.424,0.183" fill-rule="nonzero" fill="#ea1f29"/>
    </g>
    <g id="g3041" transform="translate(61.1577,40.528198)">
     <path id="path3043" d="m0,0c-0.231,0.035-0.388-0.023-0.388-0.023s0.053-0.107,0.335-0.187l0.007-0.001c0.178-0.051,0.286-0.038,0.345-0.006l0.055,0.077-0.028,0.041-0.295,0.095-0.031,0.004" fill-rule="nonzero" fill="#1c5329"/>
    </g>
    <g id="g3045" transform="translate(62.862198,39.675797)">
     <path id="path3047" d="m0,0c-0.133,0.003-0.335,0-0.494-0.033-0.184-0.042-0.412-0.14-0.521-0.192l-0.1-0.197-0.034-0.052c0.06-0.074,0.311-0.348,0.732-0.292,0.482,0.06,0.602,0.392,0.623,0.473l-0.032,0.038-0.174,0.255" fill-rule="nonzero" fill="#ea1f29"/>
    </g>
    <g id="g3049" transform="translate(63.4272,40.580505)">
     <path id="path3051" d="m0,0-0.125-0.062c-0.126-0.047-0.235-0.09-0.305-0.094-0.025-0.076-0.054-0.18-0.062-0.3-0.008-0.118,0.012-0.25,0.028-0.338,0.059-0.044,0.13-0.118,0.21-0.221l0.022-0.03,0.047-0.077c0.143-0.006,0.459,0.034,0.526,0.484,0.078,0.503-0.271,0.62-0.341,0.638" fill-rule="nonzero" fill="#ea1f29"/>
    </g>
    <g id="g3053" transform="translate(63.371902,40.700806)">
     <path id="path3055" d="M0,0c0.013,0.059,0.106,0.548-0.33,0.773-0.307,0.157-0.564-0.007-0.69-0.119l0.013-0.083c0.019-0.154,0.014-0.296-0.011-0.377,0.034-0.027,0.168-0.127,0.315-0.197,0.13-0.06,0.292-0.108,0.335-0.118l0.235,0.087,0.133,0.034" fill-rule="nonzero" fill="#ea1f29"/>
    </g>
    <g id="g3057" transform="translate(62.365402,41.271805)">
     <path id="path3059" d="m0,0-0.014,0.083c-0.035,0.165-0.113,0.188-0.113,0.188s-0.077-0.046-0.068-0.278v-0.037c0.013-0.185,0.041-0.311,0.081-0.368l0.054-0.027,0.046,0.06,0.002,0.003c0.025,0.081,0.03,0.222,0.012,0.376" fill-rule="nonzero" fill="#1c5329"/>
    </g>
    <g id="g3061" transform="translate(63.4272,40.580505)">
     <path id="path3063" d="M0,0c0.11,0.059,0.232,0.133,0.226,0.144-0.005,0.008-0.139,0.003-0.281-0.023l-0.134-0.035-0.234-0.087-0.086-0.114,0.079-0.041c0.07,0.004,0.179,0.047,0.305,0.094l0.125,0.062" fill-rule="nonzero" fill="#1c5329"/>
    </g>
    <g id="g3065" transform="translate(63.173294,39.565002)">
     <path id="path3067" d="M0,0c-0.08,0.104-0.151,0.177-0.21,0.222l-0.061,0.038-0.061-0.006-0.007-0.077,0.028-0.066,0.173-0.255,0.032-0.038,0.026-0.024c0.113-0.105,0.215-0.109,0.215-0.109s0.002,0.084-0.066,0.209l-0.048,0.076-0.021,0.03" fill-rule="nonzero" fill="#1c5329"/>
    </g>
    <g id="g3069" transform="translate(62.583801,40.315201)">
     <path id="path3071" d="m0,0c0.04-0.152-0.085-0.315-0.277-0.364-0.192-0.048-0.381,0.033-0.419,0.184-0.04,0.15,0.086,0.312,0.277,0.361,0.192,0.051,0.379-0.03,0.419-0.181" fill-rule="nonzero" fill="#f2bb0e"/>
    </g>
    <g id="g3073" transform="translate(72.141907,39.451096)">
     <path id="path3075" d="m0,0-0.008,0.135-0.083,0c-0.058-0.033-0.13-0.123-0.178-0.253l-0.02-0.062c-0.058-0.177-0.058-0.312-0.058-0.312s0.135,0.135,0.216,0.243l0.032,0.051,0.099,0.198" fill-rule="nonzero" fill="#1c5329"/>
    </g>
    <g id="g3077" transform="translate(71.405106,40.317306)">
     <path id="path3079" d="m0,0c-0.094-0.068-0.337-0.287-0.193-0.628,0.166-0.399,0.543-0.42,0.641-0.417l0.02,0.061c0.047,0.13,0.12,0.219,0.178,0.253-0.017,0.118-0.044,0.269-0.08,0.366-0.05,0.12-0.158,0.276-0.219,0.359-0.058-0.033-0.167-0.045-0.347,0.006" fill-rule="nonzero" fill="#ea1f29"/>
    </g>
    <g id="g3081" transform="translate(72.547806,40.860504)">
     <path id="path3083" d="m0,0c-0.039,0.056-0.067,0.182-0.082,0.368l-0.003,0.037c-0.099,0.084-0.465,0.334-0.812,0.05-0.358-0.29-0.227-0.663-0.169-0.792l0.296-0.094c0.081,0.064,0.218,0.168,0.345,0.248,0.134,0.083,0.311,0.149,0.425,0.183" fill-rule="nonzero" fill="#ea1f29"/>
    </g>
    <g id="g3085" transform="translate(71.450806,40.528198)">
     <path id="path3087" d="m0,0c-0.231,0.035-0.383-0.023-0.383-0.023s0.05-0.107,0.332-0.187l0.005-0.001c0.18-0.051,0.289-0.038,0.348-0.006l0.055,0.077-0.03,0.041-0.296,0.095-0.031,0.004" fill-rule="nonzero" fill="#1c5329"/>
    </g>
    <g id="g3089" transform="translate(73.156494,39.675797)">
     <path id="path3091" d="m0,0c-0.132,0.003-0.332,0-0.491-0.033-0.186-0.042-0.412-0.14-0.524-0.192l-0.098-0.197-0.033-0.052c0.058-0.074,0.308-0.348,0.729-0.292,0.482,0.06,0.602,0.392,0.624,0.473l-0.032,0.038-0.175,0.255" fill-rule="nonzero" fill="#ea1f29"/>
    </g>
    <g id="g3093" transform="translate(73.724792,40.580505)">
     <path id="path3095" d="m0,0-0.127-0.062c-0.128-0.047-0.234-0.09-0.303-0.094-0.029-0.076-0.058-0.18-0.065-0.3-0.008-0.118,0.013-0.25,0.03-0.338,0.058-0.044,0.128-0.118,0.208-0.221l0.021-0.03,0.049-0.077c0.145-0.006,0.459,0.034,0.527,0.484,0.078,0.503-0.271,0.62-0.34,0.638" fill-rule="nonzero" fill="#ea1f29"/>
    </g>
    <g id="g3097" transform="translate(73.668396,40.700806)">
     <path id="path3099" d="M0,0c0.015,0.059,0.106,0.548-0.329,0.773-0.31,0.157-0.564-0.007-0.691-0.119l0.013-0.083c0.019-0.154,0.014-0.296-0.013-0.377,0.038-0.027,0.17-0.127,0.315-0.197,0.13-0.06,0.293-0.108,0.336-0.118l0.235,0.087,0.134,0.034" fill-rule="nonzero" fill="#ea1f29"/>
    </g>
    <g id="g3101" transform="translate(72.661896,41.271805)">
     <path id="path3103" d="m0,0-0.013,0.083c-0.037,0.165-0.114,0.188-0.114,0.188s-0.078-0.046-0.071-0.278l0.003-0.037c0.015-0.185,0.042-0.311,0.081-0.368l0.055-0.027,0.045,0.06,0.001,0.003c0.027,0.081,0.032,0.222,0.013,0.376" fill-rule="nonzero" fill="#1c5329"/>
    </g>
    <g id="g3105" transform="translate(73.724792,40.580505)">
     <path id="path3107" d="M0,0c0.109,0.059,0.231,0.133,0.224,0.144-0.004,0.008-0.139,0.003-0.28-0.023l-0.135-0.035-0.235-0.087-0.087-0.114,0.083-0.041c0.069,0.004,0.175,0.047,0.303,0.094l0.127,0.062" fill-rule="nonzero" fill="#1c5329"/>
    </g>
    <g id="g3109" transform="translate(73.468201,39.565002)">
     <path id="path3111" d="M0,0c-0.081,0.104-0.15,0.177-0.208,0.222l-0.063,0.038-0.061-0.006-0.006-0.077,0.026-0.066,0.175-0.255,0.032-0.038,0.024-0.024c0.115-0.105,0.218-0.109,0.218-0.109s0,0.084-0.068,0.209l-0.048,0.076-0.021,0.03" fill-rule="nonzero" fill="#1c5329"/>
    </g>
    <g id="g3113" transform="translate(72.879593,40.315201)">
     <path id="path3115" d="m0,0c0.04-0.152-0.085-0.315-0.277-0.364-0.193-0.048-0.381,0.033-0.42,0.184-0.039,0.15,0.085,0.312,0.278,0.361,0.193,0.051,0.38-0.03,0.419-0.181" fill-rule="nonzero" fill="#f2bb0e"/>
    </g>
    <g id="g3117" transform="translate(51.472,39.451096)">
     <path id="path3119" d="m0,0-0.007,0.135-0.081,0c-0.06-0.033-0.13-0.123-0.179-0.253l-0.02-0.062c-0.059-0.177-0.058-0.312-0.058-0.312s0.134,0.135,0.215,0.243l0.033,0.051,0.097,0.198" fill-rule="nonzero" fill="#1c5329"/>
    </g>
    <g id="g3121" transform="translate(50.736404,40.317306)">
     <path id="path3123" d="m0,0c-0.093-0.068-0.335-0.287-0.194-0.628,0.167-0.399,0.543-0.42,0.643-0.417l0.02,0.061c0.049,0.13,0.119,0.219,0.178,0.253-0.017,0.118-0.044,0.269-0.08,0.366-0.049,0.12-0.158,0.276-0.218,0.359-0.06-0.033-0.168-0.045-0.349,0.006" fill-rule="nonzero" fill="#ea1f29"/>
    </g>
    <g id="g3125" transform="translate(51.876694,40.860504)">
     <path id="path3127" d="m0,0c-0.037,0.056-0.067,0.182-0.079,0.368l-0.002,0.037c-0.102,0.084-0.465,0.334-0.814,0.05-0.358-0.29-0.228-0.663-0.164-0.792l0.293-0.094c0.081,0.064,0.217,0.168,0.345,0.248,0.133,0.083,0.309,0.149,0.421,0.183" fill-rule="nonzero" fill="#ea1f29"/>
    </g>
    <g id="g3129" transform="translate(50.7827,40.528198)">
     <path id="path3131" d="m0,0c-0.23,0.035-0.385-0.023-0.385-0.023s0.051-0.107,0.334-0.187l0.005-0.001c0.181-0.051,0.289-0.038,0.348-0.006l0.054,0.077-0.029,0.041-0.293,0.095-0.034,0.004" fill-rule="nonzero" fill="#1c5329"/>
    </g>
    <g id="g3133" transform="translate(52.488296,39.675797)">
     <path id="path3135" d="m0,0c-0.132,0.003-0.333,0-0.493-0.033-0.185-0.042-0.41-0.14-0.523-0.192l-0.097-0.197-0.033-0.052c0.058-0.074,0.309-0.348,0.731-0.292,0.481,0.06,0.599,0.392,0.622,0.473l-0.033,0.038-0.174,0.255" fill-rule="nonzero" fill="#ea1f29"/>
    </g>
    <g id="g3137" transform="translate(53.055496,40.580505)">
     <path id="path3139" d="m0,0-0.125-0.062c-0.128-0.047-0.236-0.09-0.305-0.094-0.028-0.076-0.056-0.18-0.066-0.3-0.005-0.118,0.014-0.25,0.034-0.338,0.056-0.044,0.126-0.118,0.207-0.221l0.02-0.03,0.048-0.077c0.144-0.006,0.461,0.034,0.528,0.484,0.077,0.503-0.271,0.62-0.341,0.638" fill-rule="nonzero" fill="#ea1f29"/>
    </g>
    <g id="g3141" transform="translate(53,40.700806)">
     <path id="path3143" d="M0,0c0.013,0.059,0.105,0.548-0.331,0.773-0.308,0.157-0.563-0.007-0.691-0.119l0.015-0.083c0.019-0.154,0.012-0.296-0.015-0.377,0.039-0.027,0.171-0.127,0.316-0.197,0.132-0.06,0.294-0.108,0.337-0.118l0.236,0.087,0.133,0.034" fill-rule="nonzero" fill="#ea1f29"/>
    </g>
    <g id="g3145" transform="translate(51.992905,41.271805)">
     <path id="path3147" d="m0,0-0.015,0.083c-0.035,0.165-0.112,0.188-0.112,0.188s-0.079-0.046-0.07-0.278l0.001-0.037c0.014-0.185,0.042-0.311,0.08-0.368l0.055-0.027,0.046,0.06v0.003c0.028,0.081,0.034,0.222,0.015,0.376" fill-rule="nonzero" fill="#1c5329"/>
    </g>
    <g id="g3149" transform="translate(53.055496,40.580505)">
     <path id="path3151" d="M0,0c0.109,0.059,0.232,0.133,0.224,0.144-0.003,0.008-0.14,0.003-0.28-0.023l-0.133-0.035-0.235-0.087-0.087-0.114,0.081-0.041c0.069,0.004,0.177,0.047,0.305,0.094l0.125,0.062" fill-rule="nonzero" fill="#1c5329"/>
    </g>
    <g id="g3153" transform="translate(52.8004,39.565002)">
     <path id="path3155" d="M0,0c-0.081,0.104-0.151,0.177-0.207,0.222l-0.064,0.038-0.062-0.006-0.003-0.077,0.024-0.066,0.174-0.255,0.033-0.038,0.024-0.024c0.115-0.105,0.218-0.109,0.218-0.109s0,0.084-0.068,0.209l-0.049,0.076-0.02,0.03" fill-rule="nonzero" fill="#1c5329"/>
    </g>
    <g id="g3157" transform="translate(52.210007,40.315201)">
     <path id="path3159" d="m0,0c0.039-0.152-0.084-0.315-0.277-0.364-0.192-0.048-0.38,0.033-0.418,0.184-0.039,0.15,0.085,0.312,0.277,0.361,0.191,0.051,0.381-0.03,0.418-0.181" fill-rule="nonzero" fill="#f2bb0e"/>
    </g>
    <g id="g3161" transform="translate(61.847,49.046707)">
     <path id="path3163" d="M0,0-0.008,0.135-0.09,0.137c-0.06-0.037-0.13-0.127-0.179-0.256l-0.023-0.059c-0.057-0.177-0.055-0.314-0.055-0.314s0.133,0.135,0.213,0.242l0.034,0.049,0.1,0.201" fill-rule="nonzero" fill="#1c5329"/>
    </g>
    <g id="g3165" transform="translate(61.111999,49.912796)">
     <path id="path3167" d="m0,0c-0.097-0.068-0.34-0.285-0.196-0.63,0.168-0.396,0.543-0.417,0.639-0.415l0.022,0.061c0.05,0.128,0.12,0.218,0.18,0.254-0.019,0.117-0.046,0.271-0.082,0.364-0.048,0.121-0.156,0.277-0.219,0.36-0.059-0.031-0.167-0.045-0.344,0.006" fill-rule="nonzero" fill="#ea1f29"/>
    </g>
    <g id="g3169" transform="translate(62.251999,50.458404)">
     <path id="path3171" d="m0,0c-0.04,0.053-0.068,0.18-0.082,0.367v0.036c-0.104,0.083-0.468,0.334-0.815,0.049-0.359-0.29-0.227-0.664-0.166-0.793l0.294-0.093c0.081,0.066,0.217,0.17,0.345,0.25,0.132,0.082,0.308,0.147,0.424,0.184" fill-rule="nonzero" fill="#ea1f29"/>
    </g>
    <g id="g3173" transform="translate(61.1577,50.123901)">
     <path id="path3175" d="m0,0c-0.231,0.034-0.388-0.024-0.388-0.024s0.053-0.106,0.335-0.186l0.007-0.001c0.178-0.052,0.286-0.037,0.345-0.006l0.055,0.077-0.028,0.04-0.295,0.094-0.031,0.006" fill-rule="nonzero" fill="#1c5329"/>
    </g>
    <g id="g3177" transform="translate(62.862198,49.270401)">
     <path id="path3179" d="m0,0c-0.133,0.004-0.335,0-0.494-0.033-0.184-0.041-0.412-0.138-0.521-0.191l-0.1-0.2-0.034-0.049c0.06-0.073,0.311-0.345,0.732-0.292,0.482,0.062,0.602,0.392,0.623,0.473l-0.032,0.039-0.174,0.253" fill-rule="nonzero" fill="#ea1f29"/>
    </g>
    <g id="g3181" transform="translate(63.4272,50.176193)">
     <path id="path3183" d="M0,0-0.125-0.061c-0.126-0.048-0.235-0.091-0.305-0.095-0.025-0.073-0.054-0.181-0.062-0.302-0.008-0.116,0.012-0.249,0.028-0.337,0.059-0.042,0.13-0.118,0.21-0.222l0.022-0.03,0.047-0.075c0.143-0.007,0.459,0.033,0.526,0.482,0.078,0.504-0.271,0.621-0.341,0.64" fill-rule="nonzero" fill="#ea1f29"/>
    </g>
    <g id="g3185" transform="translate(63.371902,50.296204)">
     <path id="path3187" d="M0,0c0.013,0.06,0.106,0.548-0.33,0.772-0.307,0.158-0.564-0.005-0.69-0.118l0.013-0.084c0.019-0.153,0.014-0.295-0.011-0.375,0.034-0.027,0.168-0.128,0.315-0.197,0.13-0.061,0.292-0.108,0.335-0.12l0.235,0.089,0.133,0.033" fill-rule="nonzero" fill="#ea1f29"/>
    </g>
    <g id="g3189" transform="translate(62.365402,50.867294)">
     <path id="path3191" d="m0,0-0.014,0.084c-0.035,0.163-0.113,0.187-0.113,0.187s-0.077-0.048-0.068-0.277v-0.036c0.013-0.187,0.041-0.313,0.081-0.367l0.054-0.031,0.046,0.06,0.002,0.004c0.025,0.08,0.03,0.223,0.012,0.376" fill-rule="nonzero" fill="#1c5329"/>
    </g>
    <g id="g3193" transform="translate(63.4272,50.176193)">
     <path id="path3195" d="M0,0c0.11,0.058,0.232,0.133,0.226,0.143-0.005,0.007-0.139,0.004-0.281-0.023l-0.134-0.033-0.234-0.089-0.086-0.115,0.079-0.039c0.07,0.004,0.179,0.047,0.305,0.095l0.125,0.061" fill-rule="nonzero" fill="#1c5329"/>
    </g>
    <g id="g3197" transform="translate(63.173294,49.159607)">
     <path id="path3199" d="M0,0c-0.08,0.104-0.151,0.18-0.21,0.222l-0.061,0.04-0.061-0.007-0.007-0.075,0.028-0.069,0.173-0.253,0.032-0.038,0.026-0.025c0.113-0.105,0.215-0.108,0.215-0.108s0.002,0.083-0.066,0.207l-0.048,0.076-0.021,0.03" fill-rule="nonzero" fill="#1c5329"/>
    </g>
    <g id="g3201" transform="translate(62.583801,49.910995)">
     <path id="path3203" d="m0,0c0.04-0.152-0.085-0.314-0.277-0.364s-0.381,0.032-0.419,0.181c-0.04,0.152,0.086,0.315,0.277,0.365,0.192,0.05,0.379-0.031,0.419-0.182" fill-rule="nonzero" fill="#f2bb0e"/>
    </g>
    <g id="g3205" transform="translate(51.342697,49.046707)">
     <path id="path3207" d="M0,0-0.006,0.135-0.091,0.137c-0.056-0.037-0.129-0.127-0.177-0.256l-0.023-0.059c-0.056-0.177-0.056-0.314-0.056-0.314s0.135,0.135,0.218,0.242l0.032,0.049,0.097,0.201" fill-rule="nonzero" fill="#1c5329"/>
    </g>
    <g id="g3209" transform="translate(50.607101,49.912796)">
     <path id="path3211" d="m0,0c-0.095-0.068-0.338-0.285-0.195-0.63,0.166-0.396,0.545-0.417,0.64-0.415l0.023,0.061c0.047,0.128,0.121,0.218,0.176,0.254-0.014,0.117-0.042,0.271-0.078,0.364-0.051,0.121-0.157,0.277-0.219,0.36-0.059-0.031-0.167-0.045-0.347,0.006" fill-rule="nonzero" fill="#ea1f29"/>
    </g>
    <g id="g3213" transform="translate(51.748306,50.458404)">
     <path id="path3215" d="m0,0c-0.04,0.053-0.066,0.18-0.082,0.367v0.036c-0.104,0.083-0.468,0.334-0.816,0.049-0.356-0.29-0.226-0.664-0.166-0.793l0.297-0.093c0.079,0.066,0.215,0.17,0.344,0.25,0.133,0.082,0.31,0.147,0.423,0.184" fill-rule="nonzero" fill="#ea1f29"/>
    </g>
    <g id="g3217" transform="translate(50.652801,50.123901)">
     <path id="path3219" d="m0,0c-0.23,0.034-0.386-0.024-0.386-0.024s0.054-0.106,0.334-0.186l0.006-0.001c0.18-0.052,0.288-0.037,0.348-0.006l0.054,0.077-0.027,0.04-0.298,0.094-0.031,0.006" fill-rule="nonzero" fill="#1c5329"/>
    </g>
    <g id="g3221" transform="translate(52.3573,49.270401)">
     <path id="path3223" d="m0,0c-0.131,0.004-0.333,0-0.491-0.033-0.184-0.041-0.413-0.138-0.524-0.191l-0.097-0.2-0.032-0.049c0.057-0.073,0.306-0.345,0.727-0.292,0.482,0.062,0.603,0.392,0.624,0.473l-0.032,0.039-0.175,0.253" fill-rule="nonzero" fill="#ea1f29"/>
    </g>
    <g id="g3225" transform="translate(52.925003,50.176193)">
     <path id="path3227" d="m0,0-0.127-0.061c-0.126-0.048-0.233-0.091-0.302-0.095-0.028-0.073-0.057-0.181-0.066-0.302-0.005-0.116,0.015-0.249,0.032-0.337,0.057-0.042,0.126-0.118,0.208-0.222l0.021-0.03,0.048-0.075c0.142-0.007,0.459,0.033,0.528,0.482,0.076,0.504-0.272,0.621-0.342,0.64" fill-rule="nonzero" fill="#ea1f29"/>
    </g>
    <g id="g3229" transform="translate(52.869095,50.296204)">
     <path id="path3231" d="M0,0c0.012,0.06,0.105,0.548-0.33,0.772-0.309,0.158-0.564-0.005-0.69-0.118l0.013-0.084c0.018-0.153,0.014-0.295-0.013-0.375,0.037-0.027,0.17-0.128,0.314-0.197,0.132-0.061,0.295-0.108,0.338-0.12l0.235,0.089,0.133,0.033" fill-rule="nonzero" fill="#ea1f29"/>
    </g>
    <g id="g3233" transform="translate(51.862396,50.867294)">
     <path id="path3235" d="m0,0-0.014,0.084c-0.035,0.163-0.113,0.187-0.113,0.187s-0.077-0.048-0.069-0.277v-0.036c0.016-0.187,0.042-0.313,0.082-0.367l0.054-0.031,0.046,0.06,0.001,0.004c0.028,0.08,0.03,0.223,0.013,0.376" fill-rule="nonzero" fill="#1c5329"/>
    </g>
    <g id="g3237" transform="translate(52.925003,50.176193)">
     <path id="path3239" d="M0,0c0.11,0.058,0.232,0.133,0.224,0.143-0.004,0.007-0.138,0.004-0.28-0.023l-0.133-0.033-0.235-0.089-0.088-0.115,0.083-0.039c0.069,0.004,0.176,0.047,0.302,0.095l0.127,0.061" fill-rule="nonzero" fill="#1c5329"/>
    </g>
    <g id="g3241" transform="translate(52.670197,49.159607)">
     <path id="path3243" d="M0,0c-0.081,0.104-0.151,0.18-0.208,0.222l-0.064,0.04-0.061-0.007-0.007-0.075,0.027-0.069,0.175-0.253,0.032-0.038,0.025-0.025c0.114-0.105,0.217-0.108,0.217-0.108s0.002,0.083-0.068,0.207l-0.047,0.076-0.021,0.03" fill-rule="nonzero" fill="#1c5329"/>
    </g>
    <g id="g3245" transform="translate(52.080399,49.910995)">
     <path id="path3247" d="m0,0c0.039-0.152-0.085-0.314-0.277-0.364s-0.38,0.032-0.418,0.181c-0.039,0.152,0.083,0.315,0.277,0.365,0.191,0.05,0.38-0.031,0.418-0.182" fill-rule="nonzero" fill="#f2bb0e"/>
    </g>
    <g id="g3249" transform="translate(72.373703,49.046707)">
     <path id="path3251" d="M0,0-0.006,0.135-0.089,0.137c-0.058-0.037-0.13-0.127-0.178-0.256l-0.021-0.059c-0.058-0.177-0.057-0.314-0.057-0.314s0.135,0.135,0.215,0.242l0.034,0.049,0.096,0.201" fill-rule="nonzero" fill="#1c5329"/>
    </g>
    <g id="g3253" transform="translate(71.638397,49.912796)">
     <path id="path3255" d="m0,0c-0.094-0.068-0.335-0.285-0.194-0.63,0.167-0.396,0.544-0.417,0.641-0.415l0.022,0.061c0.047,0.128,0.119,0.218,0.177,0.254-0.017,0.117-0.044,0.271-0.08,0.364-0.049,0.121-0.157,0.277-0.219,0.36-0.057-0.031-0.166-0.045-0.347,0.006" fill-rule="nonzero" fill="#ea1f29"/>
    </g>
    <g id="g3257" transform="translate(72.779907,50.458404)">
     <path id="path3259" d="m0,0c-0.039,0.053-0.065,0.18-0.08,0.367l-0.002,0.036c-0.101,0.083-0.466,0.334-0.815,0.049-0.358-0.29-0.228-0.664-0.165-0.793l0.296-0.093c0.079,0.066,0.216,0.17,0.344,0.25,0.133,0.082,0.309,0.147,0.422,0.184" fill-rule="nonzero" fill="#ea1f29"/>
    </g>
    <g id="g3261" transform="translate(71.684402,50.123901)">
     <path id="path3263" d="m0,0c-0.229,0.034-0.385-0.024-0.385-0.024s0.051-0.106,0.334-0.186l0.005-0.001c0.181-0.052,0.29-0.037,0.348-0.006l0.055,0.077-0.027,0.04-0.296,0.094-0.034,0.006" fill-rule="nonzero" fill="#1c5329"/>
    </g>
    <g id="g3265" transform="translate(73.391205,49.270401)">
     <path id="path3267" d="m0,0c-0.132,0.004-0.336,0-0.492-0.033-0.185-0.041-0.413-0.138-0.525-0.191l-0.098-0.2-0.033-0.049c0.06-0.073,0.311-0.345,0.731-0.292,0.481,0.062,0.6,0.392,0.622,0.473l-0.032,0.039-0.173,0.253" fill-rule="nonzero" fill="#ea1f29"/>
    </g>
    <g id="g3269" transform="translate(73.957794,50.176193)">
     <path id="path3271" d="m0,0-0.126-0.061c-0.126-0.048-0.236-0.091-0.305-0.095-0.027-0.073-0.057-0.181-0.064-0.302-0.006-0.116,0.013-0.249,0.031-0.337,0.058-0.042,0.126-0.118,0.209-0.222l0.022-0.03,0.047-0.075c0.142-0.007,0.459,0.033,0.528,0.482,0.075,0.504-0.273,0.621-0.342,0.64" fill-rule="nonzero" fill="#ea1f29"/>
    </g>
    <g id="g3273" transform="translate(73.901901,50.296204)">
     <path id="path3275" d="M0,0c0.013,0.06,0.103,0.548-0.332,0.772-0.306,0.158-0.562-0.005-0.689-0.118l0.015-0.084c0.019-0.153,0.014-0.295-0.012-0.375,0.035-0.027,0.166-0.128,0.312-0.197,0.133-0.061,0.293-0.108,0.337-0.12l0.236,0.089,0.133,0.033" fill-rule="nonzero" fill="#ea1f29"/>
    </g>
    <g id="g3277" transform="translate(72.895706,50.867294)">
     <path id="path3279" d="m0,0-0.015,0.084c-0.034,0.163-0.112,0.187-0.112,0.187s-0.08-0.048-0.07-0.277l0.001-0.036c0.014-0.187,0.041-0.313,0.08-0.367l0.056-0.031,0.045,0.06,0.003,0.004c0.026,0.08,0.031,0.223,0.012,0.376" fill-rule="nonzero" fill="#1c5329"/>
    </g>
    <g id="g3281" transform="translate(73.957794,50.176193)">
     <path id="path3283" d="M0,0c0.109,0.058,0.231,0.133,0.226,0.143-0.005,0.007-0.142,0.004-0.282-0.023l-0.133-0.033-0.236-0.089-0.086-0.115,0.08-0.039c0.069,0.004,0.179,0.047,0.305,0.095l0.126,0.061" fill-rule="nonzero" fill="#1c5329"/>
    </g>
    <g id="g3285" transform="translate(73.703003,49.159607)">
     <path id="path3287" d="m0,0c-0.082,0.104-0.152,0.18-0.208,0.222l-0.063,0.04-0.062-0.007-0.005-0.075,0.026-0.069,0.173-0.253,0.033-0.038,0.024-0.025c0.115-0.105,0.218-0.108,0.218-0.108s0,0.083-0.067,0.207l-0.048,0.076-0.021,0.03" fill-rule="nonzero" fill="#1c5329"/>
    </g>
    <g id="g3289" transform="translate(73.111694,49.910995)">
     <path id="path3291" d="m0,0c0.04-0.152-0.084-0.314-0.276-0.364-0.193-0.05-0.379,0.032-0.419,0.181-0.039,0.152,0.086,0.315,0.278,0.365,0.193,0.05,0.378-0.031,0.417-0.182" fill-rule="nonzero" fill="#f2bb0e"/>
    </g>
    <g id="g3293" transform="translate(61.847,58.641006)">
     <path id="path3295" d="M0,0-0.008,0.135-0.09,0.136c-0.06-0.034-0.13-0.124-0.179-0.254l-0.023-0.06c-0.057-0.177-0.055-0.312-0.055-0.312s0.133,0.132,0.213,0.241l0.034,0.049,0.1,0.2" fill-rule="nonzero" fill="#1c5329"/>
    </g>
    <g id="g3297" transform="translate(61.111999,59.5074)">
     <path id="path3299" d="m0,0c-0.097-0.068-0.34-0.286-0.196-0.63,0.168-0.396,0.543-0.417,0.639-0.415l0.022,0.061c0.05,0.129,0.12,0.22,0.18,0.253-0.019,0.118-0.046,0.27-0.082,0.365-0.048,0.121-0.156,0.277-0.219,0.36-0.059-0.031-0.167-0.045-0.344,0.006" fill-rule="nonzero" fill="#ea1f29"/>
    </g>
    <g id="g3301" transform="translate(62.251999,60.051498)">
     <path id="path3303" d="m0,0c-0.04,0.055-0.068,0.182-0.082,0.368v0.037c-0.104,0.082-0.468,0.334-0.815,0.05-0.359-0.291-0.227-0.664-0.166-0.793l0.294-0.093c0.081,0.064,0.217,0.168,0.345,0.247,0.132,0.083,0.308,0.147,0.424,0.184" fill-rule="nonzero" fill="#ea1f29"/>
    </g>
    <g id="g3305" transform="translate(61.1577,59.717895)">
     <path id="path3307" d="m0,0c-0.231,0.034-0.388-0.022-0.388-0.022s0.053-0.107,0.335-0.187l0.007-0.002c0.178-0.051,0.286-0.037,0.345-0.006l0.055,0.079-0.028,0.04-0.295,0.093-0.031,0.005" fill-rule="nonzero" fill="#1c5329"/>
    </g>
    <g id="g3309" transform="translate(62.862198,58.864395)">
     <path id="path3311" d="m0,0c-0.133,0.003-0.335,0.001-0.494-0.034-0.184-0.04-0.412-0.138-0.521-0.189l-0.1-0.2-0.034-0.05c0.06-0.073,0.311-0.345,0.732-0.29,0.482,0.06,0.602,0.391,0.623,0.472l-0.032,0.037-0.174,0.254" fill-rule="nonzero" fill="#ea1f29"/>
    </g>
    <g id="g3313" transform="translate(63.4272,59.769897)">
     <path id="path3315" d="m0,0-0.125-0.06c-0.126-0.048-0.235-0.089-0.305-0.095-0.025-0.074-0.054-0.181-0.062-0.301-0.008-0.118,0.012-0.25,0.028-0.337,0.059-0.044,0.13-0.118,0.21-0.222l0.022-0.03,0.047-0.078c0.143-0.006,0.459,0.036,0.526,0.484,0.078,0.504-0.271,0.621-0.341,0.639" fill-rule="nonzero" fill="#ea1f29"/>
    </g>
    <g id="g3317" transform="translate(63.371902,59.891098)">
     <path id="path3319" d="M0,0c0.013,0.059,0.106,0.548-0.33,0.772-0.307,0.156-0.564-0.005-0.69-0.118l0.013-0.084c0.019-0.152,0.014-0.295-0.011-0.375,0.034-0.027,0.168-0.129,0.315-0.197,0.13-0.061,0.292-0.109,0.335-0.12l0.235,0.089,0.133,0.033" fill-rule="nonzero" fill="#ea1f29"/>
    </g>
    <g id="g3321" transform="translate(62.365402,60.462204)">
     <path id="path3323" d="m0,0-0.014,0.083c-0.035,0.164-0.113,0.188-0.113,0.188s-0.077-0.047-0.068-0.277v-0.036c0.013-0.187,0.041-0.314,0.081-0.369l0.054-0.028,0.046,0.059,0.002,0.004c0.025,0.079,0.03,0.223,0.012,0.376" fill-rule="nonzero" fill="#1c5329"/>
    </g>
    <g id="g3325" transform="translate(63.4272,59.769897)">
     <path id="path3327" d="M0,0c0.11,0.059,0.232,0.133,0.226,0.144-0.005,0.008-0.139,0.004-0.281-0.023l-0.134-0.033-0.234-0.089-0.086-0.114,0.079-0.04c0.07,0.006,0.179,0.047,0.305,0.095l0.125,0.06" fill-rule="nonzero" fill="#1c5329"/>
    </g>
    <g id="g3329" transform="translate(63.173294,58.755096)">
     <path id="path3331" d="M0,0c-0.08,0.103-0.151,0.178-0.21,0.221l-0.061,0.039-0.061-0.006-0.007-0.076,0.028-0.068,0.173-0.254,0.032-0.037,0.026-0.025c0.113-0.105,0.215-0.11,0.215-0.11s0.002,0.085-0.066,0.208l-0.048,0.078-0.021,0.03" fill-rule="nonzero" fill="#1c5329"/>
    </g>
    <g id="g3333" transform="translate(62.583801,59.504394)">
     <path id="path3335" d="m0,0c0.04-0.151-0.085-0.313-0.277-0.363s-0.381,0.031-0.419,0.183c-0.04,0.15,0.086,0.313,0.277,0.363,0.192,0.05,0.379-0.033,0.419-0.183" fill-rule="nonzero" fill="#f2bb0e"/>
    </g>
    <g id="g3337" transform="translate(51.342697,58.641006)">
     <path id="path3339" d="M0,0-0.006,0.135-0.091,0.136c-0.056-0.034-0.129-0.124-0.177-0.254l-0.023-0.06c-0.056-0.177-0.056-0.312-0.056-0.312s0.135,0.132,0.218,0.241l0.032,0.049,0.097,0.2" fill-rule="nonzero" fill="#1c5329"/>
    </g>
    <g id="g3341" transform="translate(50.607101,59.5074)">
     <path id="path3343" d="m0,0c-0.095-0.068-0.338-0.286-0.195-0.63,0.166-0.396,0.545-0.417,0.64-0.415l0.023,0.061c0.047,0.129,0.121,0.22,0.176,0.253-0.014,0.118-0.042,0.27-0.078,0.365-0.051,0.121-0.157,0.277-0.219,0.36-0.059-0.031-0.167-0.045-0.347,0.006" fill-rule="nonzero" fill="#ea1f29"/>
    </g>
    <g id="g3345" transform="translate(51.748306,60.051498)">
     <path id="path3347" d="m0,0c-0.04,0.055-0.066,0.182-0.082,0.368v0.037c-0.104,0.082-0.468,0.334-0.816,0.05-0.356-0.291-0.226-0.664-0.166-0.793l0.297-0.093c0.079,0.064,0.215,0.168,0.344,0.247,0.133,0.083,0.31,0.147,0.423,0.184" fill-rule="nonzero" fill="#ea1f29"/>
    </g>
    <g id="g3349" transform="translate(50.652801,59.717895)">
     <path id="path3351" d="m0,0c-0.23,0.034-0.386-0.022-0.386-0.022s0.054-0.107,0.334-0.187l0.006-0.002c0.18-0.051,0.288-0.037,0.348-0.006l0.054,0.079-0.027,0.04-0.298,0.093-0.031,0.005" fill-rule="nonzero" fill="#1c5329"/>
    </g>
    <g id="g3353" transform="translate(52.3573,58.864395)">
     <path id="path3355" d="m0,0c-0.131,0.003-0.333,0.001-0.491-0.034-0.184-0.04-0.413-0.138-0.524-0.189l-0.097-0.2-0.032-0.05c0.057-0.073,0.306-0.345,0.727-0.29,0.482,0.06,0.603,0.391,0.624,0.472l-0.032,0.037-0.175,0.254" fill-rule="nonzero" fill="#ea1f29"/>
    </g>
    <g id="g3357" transform="translate(52.925003,59.769897)">
     <path id="path3359" d="m0,0-0.127-0.06c-0.126-0.048-0.233-0.089-0.302-0.095-0.028-0.074-0.057-0.181-0.066-0.301-0.005-0.118,0.015-0.25,0.032-0.337,0.057-0.044,0.126-0.118,0.208-0.222l0.021-0.03,0.048-0.078c0.142-0.006,0.459,0.036,0.528,0.484,0.076,0.504-0.272,0.621-0.342,0.639" fill-rule="nonzero" fill="#ea1f29"/>
    </g>
    <g id="g3361" transform="translate(52.869095,59.891098)">
     <path id="path3363" d="M0,0c0.012,0.059,0.105,0.548-0.33,0.772-0.309,0.156-0.564-0.005-0.69-0.118l0.013-0.084c0.018-0.152,0.014-0.295-0.013-0.375,0.037-0.027,0.17-0.129,0.314-0.197,0.132-0.061,0.295-0.109,0.338-0.12l0.235,0.089,0.133,0.033" fill-rule="nonzero" fill="#ea1f29"/>
    </g>
    <g id="g3365" transform="translate(51.862396,60.462204)">
     <path id="path3367" d="m0,0-0.014,0.083c-0.035,0.164-0.113,0.188-0.113,0.188s-0.077-0.047-0.069-0.277v-0.036c0.016-0.187,0.042-0.314,0.082-0.369l0.054-0.028,0.046,0.059,0.001,0.004c0.028,0.079,0.03,0.223,0.013,0.376" fill-rule="nonzero" fill="#1c5329"/>
    </g>
    <g id="g3369" transform="translate(52.925003,59.769897)">
     <path id="path3371" d="M0,0c0.11,0.059,0.232,0.133,0.224,0.144-0.004,0.008-0.138,0.004-0.28-0.023l-0.133-0.033-0.235-0.089-0.088-0.114,0.083-0.04c0.069,0.006,0.176,0.047,0.302,0.095l0.127,0.06" fill-rule="nonzero" fill="#1c5329"/>
    </g>
    <g id="g3373" transform="translate(52.670197,58.755096)">
     <path id="path3375" d="M0,0c-0.081,0.103-0.151,0.178-0.208,0.221l-0.064,0.039-0.061-0.006-0.007-0.076,0.027-0.068,0.175-0.254,0.032-0.037,0.025-0.025c0.114-0.105,0.217-0.11,0.217-0.11s0.002,0.085-0.068,0.208l-0.047,0.078-0.021,0.03" fill-rule="nonzero" fill="#1c5329"/>
    </g>
    <g id="g3377" transform="translate(52.080399,59.504394)">
     <path id="path3379" d="m0,0c0.039-0.151-0.085-0.313-0.277-0.363s-0.38,0.031-0.418,0.183c-0.039,0.15,0.083,0.313,0.277,0.363,0.191,0.05,0.38-0.033,0.418-0.183" fill-rule="nonzero" fill="#f2bb0e"/>
    </g>
    <g id="g3381" transform="translate(72.373703,58.641006)">
     <path id="path3383" d="M0,0-0.006,0.135-0.089,0.136c-0.058-0.034-0.13-0.124-0.178-0.254l-0.021-0.06c-0.058-0.177-0.057-0.312-0.057-0.312s0.135,0.132,0.215,0.241l0.034,0.049,0.096,0.2" fill-rule="nonzero" fill="#1c5329"/>
    </g>
    <g id="g3385" transform="translate(71.638397,59.5074)">
     <path id="path3387" d="m0,0c-0.094-0.068-0.335-0.286-0.194-0.63,0.167-0.396,0.544-0.417,0.641-0.415l0.022,0.061c0.047,0.129,0.119,0.22,0.177,0.253-0.017,0.118-0.044,0.27-0.08,0.365-0.049,0.121-0.157,0.277-0.219,0.36-0.057-0.031-0.166-0.045-0.347,0.006" fill-rule="nonzero" fill="#ea1f29"/>
    </g>
    <g id="g3389" transform="translate(72.779907,60.051498)">
     <path id="path3391" d="m0,0c-0.039,0.055-0.065,0.182-0.08,0.368l-0.002,0.037c-0.101,0.082-0.466,0.334-0.815,0.05-0.358-0.291-0.228-0.664-0.165-0.793l0.296-0.093c0.079,0.064,0.216,0.168,0.344,0.247,0.133,0.083,0.309,0.147,0.422,0.184" fill-rule="nonzero" fill="#ea1f29"/>
    </g>
    <g id="g3393" transform="translate(71.684402,59.717895)">
     <path id="path3395" d="m0,0c-0.229,0.034-0.385-0.022-0.385-0.022s0.051-0.107,0.334-0.187l0.005-0.002c0.181-0.051,0.29-0.037,0.348-0.006l0.055,0.079-0.027,0.04-0.296,0.093-0.034,0.005" fill-rule="nonzero" fill="#1c5329"/>
    </g>
    <g id="g3397" transform="translate(73.391205,58.864395)">
     <path id="path3399" d="m0,0c-0.132,0.003-0.336,0.001-0.492-0.034-0.185-0.04-0.413-0.138-0.525-0.189l-0.098-0.2-0.033-0.05c0.06-0.073,0.311-0.345,0.731-0.29,0.481,0.06,0.6,0.391,0.622,0.472l-0.032,0.037-0.173,0.254" fill-rule="nonzero" fill="#ea1f29"/>
    </g>
    <g id="g3401" transform="translate(73.957794,59.769897)">
     <path id="path3403" d="m0,0-0.126-0.06c-0.126-0.048-0.236-0.089-0.305-0.095-0.027-0.074-0.057-0.181-0.064-0.301-0.006-0.118,0.013-0.25,0.031-0.337,0.058-0.044,0.126-0.118,0.209-0.222l0.022-0.03,0.047-0.078c0.142-0.006,0.459,0.036,0.528,0.484,0.075,0.504-0.273,0.621-0.342,0.639" fill-rule="nonzero" fill="#ea1f29"/>
    </g>
    <g id="g3405" transform="translate(73.901901,59.891098)">
     <path id="path3407" d="M0,0c0.013,0.059,0.103,0.548-0.332,0.772-0.306,0.156-0.562-0.005-0.689-0.118l0.015-0.084c0.019-0.152,0.014-0.295-0.012-0.375,0.035-0.027,0.166-0.129,0.312-0.197,0.133-0.061,0.293-0.109,0.337-0.12l0.236,0.089,0.133,0.033" fill-rule="nonzero" fill="#ea1f29"/>
    </g>
    <g id="g3409" transform="translate(72.895706,60.462204)">
     <path id="path3411" d="m0,0-0.015,0.083c-0.034,0.164-0.112,0.188-0.112,0.188s-0.08-0.047-0.07-0.277l0.001-0.036c0.014-0.187,0.041-0.314,0.08-0.369l0.056-0.028,0.045,0.059,0.003,0.004c0.026,0.079,0.031,0.223,0.012,0.376" fill-rule="nonzero" fill="#1c5329"/>
    </g>
    <g id="g3413" transform="translate(73.957794,59.769897)">
     <path id="path3415" d="M0,0c0.109,0.059,0.231,0.133,0.226,0.144-0.005,0.008-0.142,0.004-0.282-0.023l-0.133-0.033-0.236-0.089-0.086-0.114,0.08-0.04c0.069,0.006,0.179,0.047,0.305,0.095l0.126,0.06" fill-rule="nonzero" fill="#1c5329"/>
    </g>
    <g id="g3417" transform="translate(73.703003,58.755096)">
     <path id="path3419" d="M0,0c-0.082,0.103-0.152,0.178-0.208,0.221l-0.063,0.039-0.062-0.006-0.005-0.076,0.026-0.068,0.173-0.254,0.033-0.037,0.024-0.025c0.115-0.105,0.218-0.11,0.218-0.11s0,0.085-0.067,0.208l-0.048,0.078-0.021,0.03" fill-rule="nonzero" fill="#1c5329"/>
    </g>
    <g id="g3421" transform="translate(73.111694,59.504394)">
     <path id="path3423" d="m0,0c0.04-0.151-0.084-0.313-0.276-0.363-0.193-0.05-0.379,0.031-0.419,0.183-0.039,0.15,0.086,0.313,0.278,0.363,0.193,0.05,0.378-0.033,0.417-0.183" fill-rule="nonzero" fill="#f2bb0e"/>
    </g>
    <g id="g3425" transform="translate(61.847,31.281204)">
     <path id="path3427" d="m0,0-0.008,0.135-0.082,0c-0.06-0.035-0.13-0.123-0.179-0.255l-0.023-0.06c-0.057-0.176-0.055-0.311-0.055-0.311s0.133,0.132,0.213,0.242l0.034,0.05,0.1,0.199" fill-rule="nonzero" fill="#1c5329"/>
    </g>
    <g id="g3429" transform="translate(61.111999,32.1465)">
     <path id="path3431" d="m0,0c-0.097-0.068-0.34-0.284-0.196-0.629,0.168-0.397,0.543-0.417,0.639-0.416l0.022,0.06c0.05,0.132,0.12,0.22,0.18,0.254-0.019,0.117-0.046,0.271-0.082,0.364-0.048,0.122-0.156,0.277-0.219,0.362-0.059-0.032-0.167-0.045-0.344,0.005" fill-rule="nonzero" fill="#ea1f29"/>
    </g>
    <g id="g3433" transform="translate(62.251999,32.690598)">
     <path id="path3435" d="m0,0c-0.04,0.056-0.068,0.182-0.082,0.369v0.035c-0.104,0.084-0.468,0.334-0.815,0.051-0.359-0.292-0.227-0.662-0.166-0.793l0.294-0.093c0.081,0.066,0.217,0.169,0.345,0.248,0.132,0.081,0.308,0.147,0.424,0.183" fill-rule="nonzero" fill="#ea1f29"/>
    </g>
    <g id="g3437" transform="translate(61.1577,32.3582)">
     <path id="path3439" d="m0,0c-0.231,0.034-0.388-0.022-0.388-0.022s0.053-0.107,0.335-0.189l0.007-0.001c0.178-0.05,0.286-0.036,0.345-0.005l0.055,0.077-0.028,0.042-0.295,0.093-0.031,0.005" fill-rule="nonzero" fill="#1c5329"/>
    </g>
    <g id="g3441" transform="translate(62.862198,31.504303)">
     <path id="path3443" d="m0,0c-0.133,0.004-0.335,0-0.494-0.034-0.184-0.038-0.412-0.138-0.521-0.189l-0.1-0.2-0.034-0.049c0.06-0.074,0.311-0.346,0.732-0.293,0.482,0.062,0.602,0.393,0.623,0.473l-0.032,0.039-0.174,0.253" fill-rule="nonzero" fill="#ea1f29"/>
    </g>
    <g id="g3445" transform="translate(63.4272,32.409195)">
     <path id="path3447" d="M0,0-0.125-0.058c-0.126-0.05-0.235-0.092-0.305-0.097-0.025-0.075-0.054-0.18-0.062-0.301-0.008-0.118,0.012-0.249,0.028-0.337,0.059-0.043,0.13-0.118,0.21-0.221l0.022-0.031,0.047-0.077c0.143-0.005,0.459,0.035,0.526,0.484,0.078,0.503-0.271,0.62-0.341,0.638" fill-rule="nonzero" fill="#ea1f29"/>
    </g>
    <g id="g3449" transform="translate(63.371902,32.530396)">
     <path id="path3451" d="M0,0c0.013,0.059,0.106,0.549-0.33,0.774-0.307,0.155-0.564-0.007-0.69-0.121l0.013-0.083c0.019-0.153,0.014-0.295-0.011-0.375,0.034-0.029,0.168-0.129,0.315-0.196,0.13-0.063,0.292-0.11,0.335-0.121l0.235,0.089,0.133,0.033" fill-rule="nonzero" fill="#ea1f29"/>
    </g>
    <g id="g3453" transform="translate(62.365402,33.100998)">
     <path id="path3455" d="m0,0-0.014,0.082c-0.035,0.165-0.113,0.188-0.113,0.188s-0.077-0.046-0.068-0.276v-0.035c0.013-0.187,0.041-0.314,0.081-0.369l0.054-0.029,0.046,0.061,0.002,0.002c0.025,0.081,0.03,0.222,0.012,0.376" fill-rule="nonzero" fill="#1c5329"/>
    </g>
    <g id="g3457" transform="translate(63.4272,32.409195)">
     <path id="path3459" d="M0,0c0.11,0.06,0.232,0.135,0.226,0.145-0.005,0.008-0.139,0.003-0.281-0.024l-0.134-0.033-0.234-0.089-0.086-0.114,0.079-0.04c0.07,0.005,0.179,0.047,0.305,0.097l0.125,0.058" fill-rule="nonzero" fill="#1c5329"/>
    </g>
    <g id="g3461" transform="translate(63.173294,31.395203)">
     <path id="path3463" d="m0,0c-0.08,0.103-0.151,0.178-0.21,0.221l-0.061,0.038-0.061-0.005-0.007-0.076,0.028-0.069,0.173-0.253,0.032-0.039,0.026-0.023c0.113-0.104,0.215-0.109,0.215-0.109s0.002,0.084-0.066,0.207l-0.048,0.077-0.021,0.031" fill-rule="nonzero" fill="#1c5329"/>
    </g>
    <g id="g3465" transform="translate(62.583801,32.143997)">
     <path id="path3467" d="m0,0c0.04-0.15-0.085-0.313-0.277-0.365-0.192-0.047-0.381,0.033-0.419,0.184-0.04,0.151,0.086,0.314,0.277,0.363,0.192,0.05,0.379-0.031,0.419-0.182" fill-rule="nonzero" fill="#f2bb0e"/>
    </g>
    <g id="g3469" transform="translate(71.182999,38.212402)">
     <path id="path3471" d="m0,0s0.41,0.577-1.026,1.156c-1.063,0.428-2.527,0.338-3.459,0.467-0.78,0.109-0.867,0.285-0.823,0.48,0.093,0.431,0.822,0.147,1.277-0.097,0.493-0.265,1.371-0.352,2.011,0.241,0.228,0.214,0.549,0.289,0.549,0.289s-0.379,0.24-0.689,0.026c-0.128-0.087-0.23-0.177-0.49-0.198-0.457-0.034-0.542,0.112-0.542,0.112s0.233-0.157,0.806,0.136c0.744,0.38,0.297,1.213,0.297,1.213s0.049-0.298-0.265-0.503c-0.438-0.289-0.806-0.025-0.806-0.025s0.17-0.085,0.43,0.013c0.326,0.126,0.433,0.295,0.323,0.516-0.048,0.094-0.201,0.207-0.201,0.207s0.358-0.472-1.055-0.373c-0.714,0.05-0.962-0.67-0.962-0.67s-0.327,0.082-0.557,0.005c0.015,0.11-0.001,0.298-0.058,0.411-0.075-0.373-0.36-0.611-0.49-0.77-0.131-0.159-0.414-0.574-0.058-1.062,0.352-0.411,0.993-0.471,1.398-0.503,0.602-0.045,1.598-0.099,2.477-0.22,1.189-0.164,0.983-0.734,0.837-0.91-0.15-0.183-0.434-0.192-1.261,0.096-0.825,0.29-1.688,0.805-3.414,0.737-2.38-0.092-4.073-1.833-4.944-1.739,0,0,0.046-0.209,0.027-0.351-0.077-0.603-0.626-0.929-0.626-0.929l-0.077,0.118c-0.056-0.008-0.004-0.132-0.199-0.277-0.187-0.14-0.283-0.295-0.351-0.575,0,0-0.097,0.193-0.155,0.021-0.076-0.223-0.193-0.231-0.254-0.257l-0.054,0.111c-0.077-0.004-0.106-0.483-0.938-0.404l-0.062-0.015c-0.61-0.105-0.716,0.495-0.933,0.704-0.141,0.136-0.313-0.11-0.313-0.11s-0.117,0.126-0.102,0.359c0.016,0.245,0.061,0.327-0.037,0.496-0.075,0.127-0.393,0.397-0.274,0.856-0.145,0.003-0.435,0.109-0.553,0.962l0.102-0.012c-0.021,0.13-0.135,0.178-0.158,0.328-0.032,0.22-0.06,0.646,0.06,0.796,0.184,0.23,0.692,0.308,0.45,0.757l-0.079-0.125-0.119-0.051-0.152,0.164,0.084,0.146,0.007,0.01c-0.091,0.008-0.17-0.024-0.217-0.045,0.011,0.098,0.175,0.614-0.262,0.731l-0.03-0.205-0.096-0.088-0.199,0.1,0.032,0.168,0.018,0.066c-0.422-0.052-0.336-0.601-0.33-0.686-0.011,0.124-0.267,0.472-0.514,0.315l-0.025-0.02,0.081-0.084,0.024-0.127-0.188-0.118-0.128,0.111-0.011,0.014c-0.088-0.115-0.075-0.321,0.162-0.501,0.351-0.265,0.47-1.343,0.416-1.484-0.074-0.192-0.262,0.081-0.262,0.081s-0.032-0.248,0.145-0.5c0.313-0.448,0.407-0.645,0.173-0.57l-0.146,0.093s0.014-0.223,0.299-0.456c0.113-0.092,0.097-0.144,0.015-0.135-0.094,0.013-0.165,0.072-0.165,0.072s0.078-0.204,0.222-0.398c0.242-0.324,0.461-0.459,0.461-0.459s-0.272,0.025-0.665,0.251c-0.586,0.341-0.339,0.58-0.515,0.985-0.166,0.387-0.275,0.45-0.449,0.473h-0.016l0.023-0.085-0.034-0.126-0.221-0.022-0.063,0.158c-0.165-0.084-0.16-0.26-0.145-0.342-0.113,0.124-0.327,0.296-0.475,0.321-0.09,0.017-0.198-0.008-0.298-0.059l-0.015-0.004,0.031-0.022,0.061-0.114-0.148-0.167-0.154,0.071-0.021,0.015c-0.103-0.185-0.071-0.534,0.534-0.731,0,0-0.292-0.044-0.384-0.257l0.202-0.032,0.087-0.098-0.104-0.196-0.167,0.03-0.027,0.011c0.069-0.305,0.316-0.349,0.524-0.349,0.903,0.012,1.605-0.423,1.605-0.423s-0.197-0.011-0.305-0.151c-0.112-0.146-0.086-0.23-0.086-0.23s0.079,0.074,0.306,0.113c0.239,0.041,0.286-0.045,0.286-0.045s-0.348-0.128-0.213-0.491c0,0,0.14,0.154,0.357,0.231,0.18,0.06,0.388,0.048,0.471-0.069,0.113-0.164-0.37-0.324-0.37-0.324,0.337-0.201,1.073-0.104,1.073-0.104s-0.515-0.092-0.511-0.428c0,0,0.32,0.245,0.948,0,0.951-0.368,2.116-0.545,3.64,0.073,1.92,0.78,1.972,2.438,4.643,3.321,0.087-0.129,0.688-0.692,1.441-0.97,0.605-0.227,1.459-0.378,1.72-0.439,0.376-0.092,1.042-0.234,0.643-0.96-0.19-0.338-0.364-0.44-0.526-0.563-0.031,0.006-0.229,0.062-0.514,0.164-0.167,0.062-0.289,0.025-0.342-0.09l0.127-0.022,0.081-0.085-0.086-0.182-0.149,0.024-0.012,0.003c0.02-0.204,0.191-0.226,0.191-0.226s-0.197-0.074-0.195-0.259l0.103,0.027,0.112-0.034,0.009-0.201-0.145-0.05,0.017-0.012c0.117-0.147,0.457-0.037,0.457-0.037s-0.079-0.176,0.028-0.301l0.072,0.135,0.107,0.048,0.143-0.14-0.071-0.136-0.018-0.022,0.059-0.006c0.165,0.024,0.4,0.175,0.51,0.532,0.135,0.409,0.268,0.498,0.268,0.498s0.346,0.326,0.214-0.255c0.342,0.09,0.3,0.465,0.3,0.465l0.358-0.06c0.115,0.091,0.003,0.362,0.135,0.553,0.147,0.211,0.231-0.034,0.177-0.205,0,0,0.21,0.065,0.22,0.337,0.011,0.175-0.06,0.38,0.106,0.531,0.124,0.105,0.155-0.047,0.119-0.19,0,0,0.163-0.007,0.191,0.278,0.016,0.172-0.025,0.225,0.026,0.248l0.106-0.14s0.145,0.326-0.154,0.522c-0.502,0.327-1.778,0.103-2.54,1.304-0.277,0.441-0.072,0.643-0.072,0.643s1.358-0.64,2.089-0.535c0.886,0.127,0.89,0.602,0.89,0.602s0.145-0.027,0.019-0.315c0,0,0.161,0.035,0.228,0.257,0.127,0.426-0.141,0.69-0.141,0.69,0.215,0.015,0.22-0.242,0.22-0.242" fill-rule="nonzero" fill="#2b57ac"/>
    </g>
    <g id="g3473" transform="translate(52.488296,35.863098)">
     <path id="path3475" d="M0,0,0.104,0.196,0.016,0.294-0.186,0.326-0.211,0.325c-0.274-0.036-0.35-0.238-0.392-0.346,0,0,0.17,0.143,0.408,0.062l0.027-0.011,0.168-0.03" fill-rule="nonzero" fill="#ea1f29"/>
    </g>
    <g id="g3477" transform="translate(52.328003,37.091003)">
     <path id="path3479" d="M0,0,0.149,0.168,0.086,0.281,0.056,0.303-0.127,0.365c-0.274,0.033-0.395-0.145-0.462-0.238,0,0,0.2,0.098,0.414-0.041l0.02-0.015,0.155-0.071" fill-rule="nonzero" fill="#ea1f29"/>
    </g>
    <g id="g3481" transform="translate(53.380096,37.320908)">
     <path id="path3483" d="M0,0,0.221,0.022,0.255,0.148,0.232,0.232,0.156,0.354c-0.177,0.212-0.386,0.165-0.502,0.139,0,0,0.232-0.067,0.283-0.336l0.063-0.157" fill-rule="nonzero" fill="#ea1f29"/>
    </g>
    <g id="g3485" transform="translate(55.690506,39.812897)">
     <path id="path3487" d="m0,0,0.152-0.163,0.12,0.05,0.079,0.125,0.025,0.081c0.058,0.269-0.107,0.407-0.198,0.481,0,0,0.086-0.215-0.087-0.418l-0.006-0.009-0.085-0.147" fill-rule="nonzero" fill="#ea1f29"/>
    </g>
    <g id="g3489" transform="translate(54.977905,40.462494)">
     <path id="path3491" d="m0,0,0.199-0.1,0.096,0.088,0.031,0.205-0.003,0.02c-0.035,0.274-0.238,0.35-0.345,0.389,0,0,0.128-0.15,0.073-0.368l-0.019-0.066-0.032-0.168" fill-rule="nonzero" fill="#ea1f29"/>
    </g>
    <g id="g3493" transform="translate(54.076004,39.975601)">
     <path id="path3495" d="M0,0,0.189,0.119,0.163,0.245,0.083,0.33-0.018,0.389c-0.253,0.107-0.42-0.029-0.512-0.1,0,0,0.227,0.041,0.391-0.163l0.011-0.014,0.128-0.112" fill-rule="nonzero" fill="#ea1f29"/>
    </g>
    <g id="g3497" transform="translate(67.204895,33.881805)">
     <path id="path3499" d="M0,0,0.087,0.182,0.006,0.266-0.12,0.289-0.2,0.284c-0.244-0.039-0.306-0.222-0.339-0.321,0,0,0.154,0.139,0.379,0.063l0.012-0.003,0.148-0.023" fill-rule="nonzero" fill="#ea1f29"/>
    </g>
    <g id="g3501" transform="translate(67.2556,33.415695)">
     <path id="path3503" d="M0,0-0.112,0.035-0.214,0.007-0.301-0.044c-0.197-0.15-0.166-0.339-0.147-0.444,0,0,0.07,0.205,0.312,0.237h0.001l0.144,0.051-0.009,0.2" fill-rule="nonzero" fill="#ea1f29"/>
    </g>
    <g id="g3505" transform="translate(67.943497,32.857803)">
     <path id="path3507" d="M0,0-0.142,0.14-0.249,0.093-0.321-0.043-0.335-0.096c-0.042-0.242,0.111-0.362,0.195-0.427,0,0-0.079,0.183,0.051,0.366l0.019,0.022,0.07,0.135" fill-rule="nonzero" fill="#ea1f29"/>
    </g>
    <g id="g3509" transform="translate(67.287293,35.475906)">
     <path id="path3511" d="M0,0c-1.548,0.295-1.869,0.49-2.498,1.096-0.064-0.031-0.309-0.468,0.35-1.096,0.258-0.247,0.511-0.321,0.511-0.321s-0.454,0.08-1.038,0.024c-0.273,0.076-0.472,0.424-0.837,0.565-0.12,0.046-0.222,0.046-0.302,0.006l0.107-0.069,0.044-0.11-0.145-0.134-0.132,0.075-0.033,0.029c-0.021-0.099,0.01-0.217,0.131-0.34-0.166,0.006-0.329-0.082-0.37-0.274l0.156,0.032,0.104-0.051-0.018-0.2-0.148-0.028-0.078-0.009,0.01-0.021c0.115-0.343,0.639-0.09,0.639-0.09s-0.267-0.195-0.121-0.43l0.06,0.094,0.106,0.049,0.143-0.141-0.072-0.134-0.033-0.048c0.366-0.141,0.661,0.414,0.661,0.431-0.013-0.402,0.304-0.494,0.304-0.494s-0.044,0.174,0.12,0.286c0.186,0.125,0.465,0.092,0.489,0.094-0.051-0.203,0.025-0.296,0.137-0.331,0.028,0.428,0.827,0.442,0.827,0.442,0.046-0.166,0.227-0.223,0.227-0.223s-0.008,0.232,0.161,0.36c0.173,0.134,0.46,0.14,0.763,0.309,0.358,0.198,0.284,0.583-0.225,0.652" fill-rule="nonzero" fill="#2b57ac"/>
    </g>
    <g id="g3513" transform="translate(63.928299,34.132401)">
     <path id="path3515" d="m0,0-0.144,0.141-0.105-0.05-0.06-0.093-0.026-0.094c-0.043-0.244,0.11-0.363,0.192-0.427,0,0-0.071,0.166,0.038,0.341l0.033,0.047,0.072,0.135" fill-rule="nonzero" fill="#ea1f29"/>
    </g>
    <g id="g3517" transform="translate(63.317306,34.708603)">
     <path id="path3519" d="M0,0,0.018,0.2-0.086,0.251-0.242,0.219-0.286,0.197c-0.215-0.122-0.211-0.315-0.209-0.419,0,0,0.08,0.151,0.269,0.184l0.078,0.009,0.148,0.029" fill-rule="nonzero" fill="#ea1f29"/>
    </g>
    <g id="g3521" transform="translate(63.478897,35.436401)">
     <path id="path3523" d="M0,0,0.146,0.135,0.102,0.244-0.005,0.313-0.081,0.338c-0.242,0.052-0.367-0.096-0.436-0.175,0,0,0.178,0.069,0.353-0.059l0.033-0.029,0.131-0.075" fill-rule="nonzero" fill="#ea1f29"/>
    </g>
    <g id="g3525" transform="translate(59.588593,38.476898)">
     <path id="path3527" d="m0,0-0.009-0.021c-0.013-0.035-0.138-0.311-0.416-0.34l-0.017-0.003c-0.178-0.015-0.35,0.106-0.35,0.106s-0.028,0.01-0.052-0.201c-0.017-0.171-0.122-0.175-0.122-0.175s-0.026,0.251,0.033,0.433c0.076,0.23,0.289,0.223,0.289,0.223h0.004l-0.031-0.111c0.009-0.097,0.096-0.17,0.195-0.165,0.1,0.009,0.174,0.096,0.165,0.196l-0.026,0.077h0.323l0.022,0.003-0.008-0.022zm-0.989-1.675c-0.217-0.185-0.179-0.467-0.225-0.662-0.059-0.235-0.272-0.35-0.508-0.301-0.204,0.033-0.397,0.155-0.413,0.37-0.018,0.247,0.389,0.57,0.129,0.877-0.212,0.254-0.199,0.372-0.199,0.372s0.055-0.08,0.194-0.152c0.05-0.024,0.465-0.218,0.547,0.101l-0.093,0.165-0.097,0.07-0.012,0.16s0.114-0.15,0.316-0.184c0.207-0.033,0.384,0.059,0.384,0.059s0.046-0.144-0.12-0.166c-0.089-0.012-0.221-0.018-0.238-0.13-0.052-0.371,0.484-0.29,0.645-0.266,0.129,0.023,0.191,0.04,0.191,0.04-0.109-0.156-0.304-0.184-0.501-0.353m-1.269,2.088,0,0.024,0,0.022,0.019-0.012,0.297-0.123-0.055-0.061c-0.044-0.09-0.01-0.198,0.08-0.244l0.242,0.078,0.014,0.113h0.002s0.202-0.076,0.183-0.318c-0.015-0.19-0.135-0.412-0.135-0.412s-0.098,0.044-0.047,0.208c0.06,0.205,0.029,0.206,0.029,0.206s-0.204-0.046-0.362,0.036l-0.016,0.01c-0.235,0.156-0.244,0.457-0.242,0.494m3.278-0.407c0.067,0.558-0.32,0.518-0.32,0.518s0.152,0.11,0.206,0.309c0.09,0.344-0.112,0.797-0.112,0.797s-0.212-0.375-0.462-0.11c0,0,0.141,0.15,0.116,0.485-0.027-0.095-0.805-0.685-1.026,0.371-0.44-0.097-0.401-0.526-0.673-0.492-0.145,0.016-0.29,0.132-0.18,0.408,0,0-0.398-0.02-0.456-0.434-0.073-0.512-0.323,0.172-0.662,0.147-0.004,0-0.252-0.27-0.237-0.842-0.307-0.012-0.445-0.253-0.475-0.636-0.084-1.09-0.372-0.73-0.368-0.751,0.095-0.67,0.471-0.316,0.471-0.316-0.065-0.466-0.486-0.211-0.486-0.211,0.123-0.714,0.422-0.479,0.422-0.479-0.136-0.596,0.09-0.75,0.172-0.866,0.103-0.145,0.151-0.204,0.113-0.46-0.035-0.23-0.02-0.312-0.02-0.312s0.179,0.182,0.309,0.046c0.2-0.21,0.319-0.844,0.774-0.764,0,0-0.055,0.277,0.044,0.277l0.125-0.243c0.123-0.015,0.469-0.066,0.659,0.178,0.114,0.147,0.143,0.354,0.262,0.345,0.09-0.008,0.1-0.179,0.1-0.179,0.081,0.049,0.097,0.094,0.134,0.293,0.045,0.246,0.169-0.015,0.169-0.015,0.032,0.176,0.125,0.341,0.296,0.452,0.215,0.136,0.153,0.511,0.279,0.602,0.138,0.101,0.171-0.299,0.171-0.299s0.467,0.36,0.304,0.981c-0.073,0.278-0.152,0.513-0.063,0.537,0.085,0.02,0.068-0.248,0.253-0.356,0.129-0.077,0.33,0.033,0.33,0.033-0.238,0.263-0.201,0.713-0.169,0.986" fill-rule="nonzero" fill="#2b57ac"/>
    </g>
    <g id="g3529" transform="translate(57.820206,35.971497)">
     <path id="path3531" d="M0,0c0.46-0.119,0.467,0.359,0.473,0.45,0.031,0.487,0.366,0.527,0.423,0.58-0.156-0.03-0.472-0.02-0.573,0.164-0.108-0.06-0.29-0.091-0.5,0.001l0.118-0.199c0.043-0.12,0.005-0.263-0.043-0.376-0.045-0.109-0.317-0.512,0.102-0.62" fill-rule="nonzero" fill="#ea1f29"/>
    </g>
    <g id="g3533" transform="translate(69.979095,44.108704)">
     <path id="path3535" d="m0,0c-3.714,0.124-4.652,1.181-4.652,1.181s-0.425-0.705,1.279-1.45c0,0-0.577,0.095-0.897,0.108-0.38,0.02-0.783-0.054-0.783-0.054s-0.429,0.391-0.73,0.501c-0.098,0.034-0.258,0.08-0.399-0.005l0.117-0.07,0.054-0.116-0.156-0.155-0.147,0.079-0.049,0.037c-0.076-0.205,0.059-0.344,0.15-0.4-0.431-0.093-0.558-0.202-0.562-0.422l0.138,0.035,0.121-0.045-0.002-0.22-0.16-0.046-0.035-0.006c0.09-0.155,0.284-0.235,0.556-0.143,0.125,0.042,0.157,0.063,0.157,0.063s-0.236-0.268-0.136-0.524l0.083,0.09,0.123,0.031,0.126-0.182-0.105-0.129-0.034-0.031,0.111-0.038c0.238-0.068,0.436,0.133,0.598,0.331,0.326,0.395,0.647,0.275,0.647,0.275-0.219-0.217-0.016-0.479-0.016-0.479s0.179,0.42,0.473,0.302c-0.058-0.256,0.197-0.4,0.197-0.4s0.153,0.411,0.351,0.411c0.262,0,0.129-0.396,0.129-0.396s0.142,0.017,0.367,0.242c0.148,0.147,0.274,0.309,0.578,0.286-0.009-0.047,0.039-0.333,0.304-0.46-0.006,0.982,1.38,1.114,1.609,1.159,0.664,0.13,0.595,0.64,0.595,0.64" fill-rule="nonzero" fill="#2b57ac"/>
    </g>
    <g id="g3537" transform="translate(63.812103,44.048996)">
     <path id="path3539" d="m0,0,0.155,0.155-0.052,0.116-0.118,0.07-0.087,0.027c-0.267,0.048-0.399-0.12-0.472-0.211,0,0,0.188,0.079,0.378-0.041l0.049-0.037,0.147-0.079" fill-rule="nonzero" fill="#ea1f29"/>
    </g>
    <g id="g3541" transform="translate(63.461502,43.113098)">
     <path id="path3543" d="M0,0,0.001,0.22-0.119,0.265-0.257,0.23-0.33,0.189c-0.225-0.153-0.202-0.363-0.189-0.478,0,0,0.082,0.199,0.323,0.236l0.037,0.006,0.159,0.047" fill-rule="nonzero" fill="#ea1f29"/>
    </g>
    <g id="g3545" transform="translate(64.175003,42.395401)">
     <path id="path3547" d="M0,0-0.125,0.183-0.25,0.15-0.332,0.061-0.381-0.032c-0.095-0.254,0.046-0.416,0.121-0.499,0,0-0.046,0.205,0.12,0.372l0.035,0.03,0.105,0.129" fill-rule="nonzero" fill="#ea1f29"/>
    </g>
    <g id="g3549" transform="translate(57.059006,45.380402)">
     <path id="path3551" d="M0,0c0.512-0.178,0.565,0.365,0.581,0.468,0.078,0.551,0.464,0.565,0.534,0.621-0.181-0.021-0.541,0.02-0.639,0.239-0.127-0.057-0.335-0.078-0.568,0.044l0.117-0.234c0.039-0.142-0.019-0.3-0.082-0.426-0.063-0.116-0.408-0.55,0.057-0.712" fill-rule="nonzero" fill="#ea1f29"/>
    </g>
    <g id="g3553" transform="translate(59.2995,48.066193)">
     <path id="path3555" d="m0,0-0.012-0.021c-0.018-0.038-0.184-0.34-0.503-0.35l-0.021-0.001c-0.202,0-0.389,0.151-0.389,0.151s-0.03,0.015-0.076-0.223c-0.035-0.193-0.156-0.188-0.156-0.188s-0.007,0.287,0.077,0.49c0.107,0.255,0.352,0.227,0.352,0.227h0.004l-0.046-0.122c0-0.114,0.094-0.205,0.205-0.205,0.116,0,0.208,0.091,0.208,0.205l-0.025,0.09,0.369-0.027h0.026l-0.013-0.026zm-1.278-1.813c-0.264-0.193-0.246-0.515-0.317-0.732-0.088-0.262-0.339-0.372-0.603-0.297-0.23,0.056-0.438,0.213-0.437,0.459,0.002,0.281,0.495,0.614,0.228,0.987-0.22,0.306-0.195,0.44-0.195,0.44s0.058-0.095,0.21-0.191c0.054-0.031,0.508-0.292,0.628,0.064,0.032,0.091-0.032,0.149-0.091,0.198l-0.101,0.088,0.001,0.182s0.117-0.18,0.341-0.236c0.234-0.058,0.443,0.03,0.443,0.03s0.041-0.168-0.15-0.178c-0.105-0.004-0.256,0-0.285-0.123-0.092-0.42,0.524-0.375,0.71-0.362,0.15,0.012,0.22,0.027,0.22,0.027-0.139-0.169-0.364-0.183-0.602-0.356m-1.253,2.49,0.001,0.026,0.004,0.027,0.021-0.013,0.328-0.169-0.068-0.066c-0.06-0.096-0.03-0.224,0.068-0.285,0.095-0.058,0.222-0.029,0.282,0.067l0.026,0.129,0.003-0.001s0.223-0.107,0.176-0.38c-0.032-0.214-0.191-0.456-0.191-0.456s-0.104,0.059-0.032,0.24c0.086,0.226,0.051,0.232,0.051,0.232s-0.235-0.031-0.408,0.076l-0.018,0.012c-0.265,0.175-0.247,0.52-0.243,0.561m3.748-0.008c0.156,0.379-0.034,1.07-0.034,1.07s-0.31-0.491-0.573-0.227c-0.242,0.243,0.016,0.632,0.016,0.632-0.299,0.097-0.549-0.312-0.92-0.109-0.259,0.141,0.045,0.609,0.045,0.609s-0.337,0.011-0.605-0.12c-0.261-0.127-0.378-0.232-0.559-0.227-0.248,0.009-0.16,0.417-0.16,0.417s-0.295,0.008-0.47-0.296c-0.174-0.3-0.366-0.379-0.366-0.379-0.08,0.13-0.256,0.131-0.391,0.169-0.149,0.043-0.252,0.113-0.252,0.113s-0.274-0.529-0.149-0.967c-0.207-0.056-0.264-0.287-0.297-0.402-0.24-0.873-0.6-0.483-0.597-0.511,0.069-0.77,0.514-0.746,0.475-0.925-0.054-0.242-0.466,0.089-0.466,0.089,0.01-0.542,0.253-0.577,0.353-0.9,0.085-0.28-0.091-0.468,0.052-0.898,0.146-0.445,0.039-0.608,0.039-0.608,0.303-0.007,0.498,0.212,0.498,0.212-0.059-0.57,0.208-0.84,0.208-0.84s0.169,0.348,0.239,0.116c0.191-0.619,0.502-0.84,0.502-0.84s0.28,0.01,0.777,0.533c0.346,0.365,0.191-0.106,0.191-0.106s0.242-0.022,0.744,0.899c0.162,0.299,0.432,0.471,0.528-0.012,0.575,0.62,0.375,1.289,0.375,1.524,0,0.209,0.102,0.233,0.111,0.138,0.059-0.571,0.658-0.377,0.658-0.377s-0.244,0.248,0.007,1.121c0.124,0.436-0.118,0.858-0.118,0.858l0.139,0.244" fill-rule="nonzero" fill="#2b57ac"/>
    </g>
    <g id="g3557" transform="translate(74.374695,44.516098)">
     <path id="path3559" d="m0,0s0.034,0.529-0.351,0.667c-0.502,0.183-1.152-0.054-2.442,0.066-3.135,0.294-2.749,1.425-2.749,1.425s1.971-0.874,2.805-0.466c0.46,0.226,0.429,0.624,0.429,0.624,0.129-0.151-0.011-0.451-0.011-0.451s0.809,0.594-0.152,1.521c-0.349,0.334-0.987,0.582-1.465,0.644-1.379,0.179-1.906,0.105-2.878,0.239-0.813,0.114-0.997,0.401-0.955,0.629,0.124,0.673,1.641-0.284,2.473,0.086,0.222,0.101,0.406,0.253,0.599,0.302,0.202,0.046,0.404-0.017,0.404-0.017s-0.196,0.354-0.839,0.218c-0.529-0.112-0.569,0.066-0.569,0.066s0.248-0.021,0.569,0.167c0.206,0.119,0.263,0.382,0.488,0.48,0.277,0.119,0.556,0.007,0.556,0.007s-0.361,0.615-1.057,0.255c-0.474-0.308-0.645-0.081-0.645-0.081l0.569,0.403c0.175,0.352,0.4,0.407,0.4,0.407s-0.356,0.17-0.657-0.125c-0.195-0.19-0.479-0.246-0.966-0.238-0.617,0.008-0.865-0.726-0.865-0.726s-0.245-0.015-0.456-0.123c-0.186-0.093-0.399-0.301-0.399-0.301l0.079,0.238s-0.459-0.227-0.471-0.931c-0.022-1.186,1.266-1.283,1.688-1.316,0.627-0.049,1.822-0.08,2.738-0.206,1.24-0.171,1.274-0.742,1.11-1.008-0.18-0.297-0.692-0.145-1.552,0.157-0.861,0.301-1.589,0.802-3.332,0.746-2.75-0.088-5.66-2.048-6.502-1.547,0.042-0.319-0.033-0.976-0.756-1.561-0.027,0.49-0.177,0.425-0.343,0.13-0.46-0.829-0.94-0.912-0.94-0.912s0.088,0.282-0.221,0.011c-0.313-0.277-0.672-0.321-0.672-0.321s-0.439,0.315-0.542,0.808l-0.089-0.155c-0.367,0.177-0.452,0.76-0.452,0.76s-0.176-0.114-0.578-0.048c0,0,0.226,0.247-0.029,0.894-0.504,0-2.498,0.347-2.748,1.377-0.092,0.384-0.207,0.568-0.449,0.584l0.051-0.073,0.009-0.138-0.215-0.098-0.118,0.136-0.038,0.056c-0.196-0.154-0.135-0.474-0.135-0.474-0.224,0.187-0.685,0.501-0.956,0.308l0.13-0.079,0.062-0.136c0-0.099-0.081-0.178-0.181-0.176l-0.168,0.09-0.078,0.054c-0.238-0.387,0.536-0.806,0.536-0.806-0.293,0.017-0.712-0.215-0.703-0.48l0.133,0.043,0.129-0.04,0.016-0.234-0.166-0.066-0.031-0.004c0.076-0.161,0.212-0.265,0.592-0.161,0.915,0.26,1.539,0.093,1.539,0.093s-0.028-0.305-0.444-0.224c-0.02,0.003,0.162-0.238,0.535-0.238,0.491,0,0.751,0.196,0.761,0.2,0,0,0.024-0.115-0.116-0.185-0.296-0.151-0.104-0.475-0.104-0.475,0.161,0.361,0.456,0.221,0.456,0.221-0.052-0.072-0.121-0.283,0.054-0.443,0,0,0.019,0.208,0.346,0.291,0.225,0.057,0.419-0.024,0.419-0.024s-0.19-0.267,0.038-0.57c0,0,0.096,0.436,0.398,0.307,0.126-0.053,0.11-0.192,0.074-0.249l-0.195-0.111c0.471-0.225,0.59,0.146,0.954-0.191-0.467-0.212-1.051-0.256-1.59-0.227-1.133,0.098-1.369,0.32-1.635,0.564-0.363,0.348-0.651,0.384-0.824,0.331l0.059-0.042,0.061-0.135c0-0.1-0.079-0.178-0.177-0.178l-0.171,0.092-0.041,0.029c-0.1-0.173,0.085-0.327,0.14-0.403l-0.21,0.041c-0.24,0.052-0.442-0.035-0.501-0.215l0.191-0.013,0.113-0.095-0.085-0.237-0.191,0.01-0.067,0.011c0.071-0.307,0.426-0.345,0.696-0.356-0.13-0.079-0.267-0.195-0.238-0.378l0.13,0.079,0.129-0.009,0.064-0.215-0.144-0.092-0.045-0.021c0.219-0.235,0.757,0.072,0.906,0.158,0.429,0.242,0.799,0.201,1.011,0.095,0.401-0.198-0.14-0.363-0.14-0.363,0.133-0.107,0.346-0.057,0.477,0,0.121,0.054,0.236,0.145,0.294,0.063,0.032-0.051,0.015-0.142-0.076-0.223l-0.172-0.081c0.5-0.192,0.964,0.268,0.964,0.268s0.038-0.063-0.007-0.182c-0.075-0.195-0.261-0.265-0.261-0.265,0.542-0.164,0.819,0.481,0.819,0.481s0.258-0.198-0.061-0.481c0.445-0.013,0.502,0.351,0.722,0.211,0.128-0.083,0.06-0.265-0.126-0.302,0.514-0.175,0.47,0.283,1.067,0.183,0.871-0.151,1.874-0.279,3.406,0.314,2.353,0.902,2.594,2.976,5.171,3.264,0,0,0.217-0.452,1.982-0.928,1.869-0.503,4.743-0.116,4.614-1.005-0.066-0.453-1.345,0.198-1.507-0.253l-0.006-0.024,0.144,0.003,0.106-0.071-0.052-0.215-0.167-0.009-0.02,0.003c0.052-0.098,0.154-0.151,0.262-0.171-0.155-0.081-0.245-0.142-0.256-0.345l0.001-0.058,0.092,0.051,0.128-0.008,0.066-0.209-0.139-0.094-0.019-0.008c0.096-0.091,0.23-0.132,0.354-0.091,0.138,0.046,0.2,0.094,0.227,0.123-0.043-0.072-0.128-0.241-0.085-0.376l0.071-0.12,0.055,0.143,0.11,0.069,0.175-0.133-0.058-0.156-0.013-0.022c0.329-0.012,0.62,0.426,0.677,0.807,0.073,0.486,0.225,0.413,0.225,0.413l0.091-0.186,0.195-0.093c-0.014,0.33,0.231,0.432,0.337,0.34,0.104-0.092,0.018-0.292,0.018-0.292s0.167-0.058,0.365,0.278c0.111,0.178,0.102,0.408,0.233,0.422,0.178,0.006,0.107-0.216,0.107-0.216,0.413,0.222,0.155,0.881,0.316,0.956,0.127,0.033,0.077-0.207,0.077-0.207s0.26,0.14,0.185,0.424c-0.113,0.419,0.092,0.075,0.092,0.075" fill-rule="nonzero" fill="#2b57ac"/>
    </g>
    <g id="g3561" transform="translate(50.623795,45.847198)">
     <path id="path3563" d="M0,0-0.016,0.233-0.146,0.274-0.278,0.231-0.369,0.176c-0.226-0.181-0.184-0.404-0.162-0.525,0,0,0.073,0.222,0.333,0.278l0.032,0.006,0.166,0.065" fill-rule="nonzero" fill="#ea1f29"/>
    </g>
    <g id="g3565" transform="translate(50.759399,47.220093)">
     <path id="path3567" d="m0,0c0.1-0.001,0.18,0.077,0.18,0.176l-0.061,0.136-0.13,0.079-0.105,0.031c-0.308,0.056-0.459-0.135-0.541-0.239,0,0,0.198,0.084,0.411-0.039l0.077-0.054,0.169-0.09" fill-rule="nonzero" fill="#ea1f29"/>
    </g>
    <g id="g3569" transform="translate(51.994705,47.585602)">
     <path id="path3571" d="M0,0,0.215,0.098,0.206,0.235,0.155,0.309,0.036,0.409c-0.252,0.15-0.446,0.031-0.552-0.032,0,0,0.215,0.008,0.36-0.186l0.038-0.055,0.118-0.136" fill-rule="nonzero" fill="#ea1f29"/>
    </g>
    <g id="g3573" transform="translate(51.5867,42.671905)">
     <path id="path3575" d="M0,0-0.065,0.215-0.193,0.224-0.323,0.145-0.376,0.089c-0.176-0.216-0.091-0.413-0.045-0.519,0,0,0.021,0.207,0.232,0.317l0.045,0.021,0.144,0.092" fill-rule="nonzero" fill="#ea1f29"/>
    </g>
    <g id="g3577" transform="translate(51.627304,44.330597)">
     <path id="path3579" d="m0,0c0.098,0,0.177,0.078,0.177,0.179l-0.06,0.134-0.06,0.043-0.176,0.067c-0.307,0.056-0.459-0.136-0.54-0.239,0,0,0.224,0.093,0.447-0.062l0.041-0.03,0.171-0.092" fill-rule="nonzero" fill="#ea1f29"/>
    </g>
    <g id="g3581" transform="translate(51.063507,43.529999)">
     <path id="path3583" d="M0,0c0.089,0.043,0.128,0.148,0.085,0.238l-0.113,0.095-0.191,0.012-0.069-0.012c-0.302-0.082-0.356-0.319-0.384-0.45,0,0,0.154,0.174,0.414,0.139l0.066-0.012,0.192-0.01" fill-rule="nonzero" fill="#ea1f29"/>
    </g>
    <g id="g3585" transform="translate(70.673096,43.206802)">
     <path id="path3587" d="M0,0,0.051,0.213-0.055,0.285-0.198,0.282-0.28,0.261c-0.254-0.1-0.278-0.311-0.29-0.425,0,0,0.13,0.183,0.382,0.157l0.02-0.002,0.168,0.009" fill-rule="nonzero" fill="#ea1f29"/>
    </g>
    <g id="g3589" transform="translate(70.778198,42.459595)">
     <path id="path3591" d="M0,0-0.065,0.21-0.193,0.218-0.286,0.167-0.374,0.081c-0.169-0.215-0.081-0.409-0.034-0.513,0,0,0.019,0.226,0.251,0.33l0.018,0.009,0.139,0.093" fill-rule="nonzero" fill="#ea1f29"/>
    </g>
    <g id="g3593" transform="translate(71.527603,41.973694)">
     <path id="path3595" d="M0,0-0.175,0.133-0.284,0.064-0.34-0.079-0.349-0.152c-0.013-0.271,0.171-0.379,0.268-0.436,0,0-0.113,0.189,0.011,0.409l0.012,0.023,0.058,0.156" fill-rule="nonzero" fill="#ea1f29"/>
    </g>
    <g id="g3597" transform="translate(50.654007,56.766602)">
     <path id="path3599" d="m0,0c0.095-0.023,0.193,0.037,0.217,0.131l-0.028,0.145-0.04,0.05-0.165,0.112c-0.285,0.128-0.478-0.024-0.581-0.105,0,0,0.269,0.044,0.454-0.205l0.006-0.009,0.137-0.119" fill-rule="nonzero" fill="#ea1f29"/>
    </g>
    <g id="g3601" transform="translate(69.760193,53.281296)">
     <path id="path3603" d="m0,0c-3.237,0.096-4.307,1.27-4.307,1.27s-0.546-0.831,0.797-1.375c0,0-0.25,0.07-0.569,0.096-0.378,0.032-0.543,0.035-0.543,0.035s-0.285,0.433-0.787,0.518c-0.137,0.023-0.273,0.03-0.391,0.013l0.023-0.021,0.044-0.119-0.169-0.142-0.139,0.089-0.062,0.051-0.017-0.017c-0.081-0.096-0.117-0.232-0.046-0.392-0.461-0.062-0.612-0.207-0.649-0.395l0.226,0.016,0.103-0.075-0.061-0.214h-0.167l-0.101,0.008c0.045-0.244,0.337-0.419,0.801-0.225,0.114,0.047-0.285-0.14-0.128-0.548l0.035,0.078,0.105,0.074,0.182-0.128-0.053-0.156-0.045-0.116,0.001-0.001c0.394-0.172,0.808,0.302,0.859,0.524,0,0,0.039-0.285,0.211-0.406,0.003-0.001,0.025,0.121,0.118,0.22,0.171,0.186,0.153-0.036,0.153-0.036-0.001-0.34,0.215-0.396,0.215-0.396s-0.033,0.391,0.27,0.454c0.123-0.42,0.585,0.222,0.538,0.029-0.105-0.425,0.083-0.554,0.083-0.554s0.039,0.51,1.06,0.568c-0.011-0.049,0.026-0.335,0.287-0.47,0.072,0.983,1.466,0.992,1.696,1.03,0.667,0.107,0.427,0.713,0.427,0.713" fill-rule="nonzero" fill="#2b57ac"/>
    </g>
    <g id="g3605" transform="translate(63.858093,53.555496)">
     <path id="path3607" d="m0,0,0.169,0.143-0.044,0.12-0.023,0.02-0.174,0.092c-0.263,0.07-0.408-0.086-0.485-0.171,0,0,0.18,0.06,0.356-0.064l0.062-0.05,0.139-0.09" fill-rule="nonzero" fill="#ea1f29"/>
    </g>
    <g id="g3609" transform="translate(63.046707,52.619507)">
     <path id="path3611" d="M0,0,0.166,0,0.227,0.214,0.125,0.289-0.102,0.273c-0.257-0.087-0.291-0.296-0.308-0.41,0,0,0.107,0.14,0.308,0.145l0.102-0.008" fill-rule="nonzero" fill="#ea1f29"/>
    </g>
    <g id="g3613" transform="translate(63.940308,51.878799)">
     <path id="path3615" d="M0,0-0.182,0.127-0.287,0.053-0.321-0.024-0.346-0.166c0-0.271,0.188-0.372,0.289-0.424,0,0-0.089,0.137-0.042,0.318l0.045,0.116,0.054,0.156" fill-rule="nonzero" fill="#ea1f29"/>
    </g>
    <g id="g3617" transform="translate(59.151398,57.290497)">
     <path id="path3619" d="M0,0-0.012-0.023c-0.018-0.038-0.181-0.342-0.497-0.357l-0.022-0.003c-0.202-0.003-0.392,0.146-0.392,0.146s-0.029,0.015-0.072-0.226c-0.03-0.191-0.152-0.188-0.152-0.188s-0.013,0.288,0.07,0.489c0.101,0.258,0.346,0.233,0.346,0.233h0.002l-0.041-0.122c0.001-0.114,0.097-0.205,0.209-0.203,0.115,0.002,0.204,0.097,0.202,0.21l-0.023,0.09,0.369-0.022h0.024l-0.011-0.024zm-1.248-1.834c-0.263-0.197-0.238-0.52-0.306-0.736-0.083-0.265-0.335-0.382-0.6-0.309-0.23,0.054-0.438,0.207-0.443,0.451-0.003,0.281,0.485,0.622,0.211,0.992-0.211,0.324-0.189,0.459-0.189,0.459s0.058-0.094,0.211-0.186c0.058-0.033,0.515-0.284,0.63,0.073,0.03,0.09-0.035,0.149-0.092,0.196l-0.105,0.087-0.003,0.182s0.121-0.179,0.345-0.231c0.235-0.053,0.441,0.039,0.441,0.039s0.044-0.169-0.147-0.183c-0.103-0.005-0.254-0.003-0.282-0.128-0.085-0.42,0.532-0.366,0.718-0.348,0.147,0.014,0.216,0.03,0.216,0.03-0.134-0.171-0.357-0.189-0.593-0.365m-1.295,2.467,0.001,0.028,0.002,0.026,0.022-0.014,0.331-0.163-0.068-0.067c-0.057-0.097-0.025-0.223,0.072-0.282,0.097-0.058,0.224-0.025,0.282,0.072l0.026,0.127h0.002s0.224-0.103,0.184-0.377c-0.031-0.215-0.184-0.46-0.184-0.46s-0.108,0.058-0.037,0.241c0.082,0.228,0.048,0.231,0.048,0.231s-0.237-0.034-0.411,0.07l-0.016,0.012c-0.27,0.172-0.259,0.517-0.254,0.556m3.656-0.604c0.113,0.529-0.303,0.54-0.303,0.54s0.178,0.119,0.247,0.343c0.118,0.394-0.097,0.919-0.097,0.919s-0.141-0.39-0.574-0.202c0,0,0.214,0.253,0.045,0.72-0.033-0.111-0.122-0.219-0.249-0.293-0.221-0.129-0.475-0.101-0.57,0.06-0.082,0.142-0.014,0.338,0.151,0.472-0.062,0.017-0.335,0.085-0.585,0.013-0.266-0.078-0.67-0.346-0.67-0.346s-0.275,0.215-0.138,0.528c0,0-0.415,0.043-0.555-0.437-0.061-0.209-0.237-0.229-0.237-0.229s-0.032,0.334-0.333,0.427c-0.005,0.003-0.559-0.393-0.555-1.14-0.203-0.062-0.286-0.298-0.306-0.418-0.255-1.524-0.649-0.801-0.644-0.827,0.085-0.768,0.608-0.658,0.608-0.658-0.092-0.534-0.646-0.25-0.646-0.25,0.203-0.778,0.671-0.453,0.671-0.453-0.332-0.571-0.081-1.01,0.097-1.449,0.187-0.406,0.181-0.749,0.181-0.749s0.223,0.118,0.344,0.117c0.169-0.003,0.115-0.185,0.119-0.416,0.008-0.325,0.139-0.421,0.139-0.421l0.074,0.144c0.086,0.133,0.134,0.116,0.134,0.116s-0.045-0.408,0.222-0.61c0,0,0.375,0.545,0.582,0.506,0.137-0.025,0.221-0.357,0.221-0.357,1.082,0.685,1.228,2.182,1.431,1.65,0.055-0.13,0.061-0.256,0.061-0.256s0.66,0.393,0.59,1.85c0,0,0.118-0.118,0.323-0.174,0.203-0.057,0.319,0.007,0.319,0.007s-0.29,0.391-0.097,1.273" fill-rule="nonzero" fill="#2b57ac"/>
    </g>
    <g id="g3621" transform="translate(56.953903,54.567306)">
     <path id="path3623" d="M0,0c0.516-0.169,0.56,0.375,0.572,0.476,0.07,0.553,0.456,0.574,0.525,0.631-0.181-0.024-0.54,0.01-0.643,0.228-0.122-0.06-0.333-0.084-0.57,0.036l0.123-0.232c0.041-0.143-0.014-0.302-0.077-0.428-0.06-0.118-0.398-0.556,0.07-0.711" fill-rule="nonzero" fill="#ea1f29"/>
    </g>
    <g id="g3625" transform="translate(50.603897,55.364197)">
     <path id="path3627" d="m0,0-0.013,0.236-0.131,0.04-0.19-0.075-0.034-0.022c-0.226-0.18-0.184-0.405-0.163-0.524,0,0,0.066,0.197,0.293,0.266l0.072,0.018,0.166,0.061" fill-rule="nonzero" fill="#ea1f29"/>
    </g>
    <g id="g3629" transform="translate(51.966904,57.182999)">
     <path id="path3631" d="m0,0,0.23,0.06,0.012,0.138-0.015,0.04-0.121,0.16c-0.225,0.188-0.435,0.105-0.551,0.061,0,0,0.232-0.031,0.337-0.275l0.014-0.031,0.094-0.153" fill-rule="nonzero" fill="#ea1f29"/>
    </g>
    <g id="g3633" transform="translate(51.588501,53.925797)">
     <path id="path3635" d="M0,0,0.227,0.061,0.242,0.198,0.183,0.311,0.104,0.396c-0.224,0.192-0.434,0.107-0.55,0.062,0,0,0.252-0.03,0.352-0.305l0.01-0.03,0.084-0.123" fill-rule="nonzero" fill="#ea1f29"/>
    </g>
    <g id="g3637" transform="translate(50.868698,53.061203)">
     <path id="path3639" d="M0,0c0.093,0.034,0.141,0.136,0.107,0.229l-0.104,0.105-0.22,0.028-0.038-0.005c-0.307-0.052-0.386-0.284-0.426-0.409,0,0,0.16,0.147,0.4,0.103l0.091-0.023,0.19-0.028" fill-rule="nonzero" fill="#ea1f29"/>
    </g>
    <g id="g3641" transform="translate(51.583694,52.2957)">
     <path id="path3643" d="m0,0-0.145,0.034-0.174-0.076-0.056-0.045c-0.231-0.211-0.17-0.448-0.137-0.575,0,0,0.067,0.263,0.37,0.333l0.007,0.001,0.168,0.077-0.033,0.251" fill-rule="nonzero" fill="#ea1f29"/>
    </g>
    <g id="g3645" transform="translate(73.861298,54.399796)">
     <path id="path3647" d="m0,0c-0.225,0.108-0.587,0.062-1.02,0.016-0.34-0.035-0.725-0.072-1.114-0.032-2.617,0.262-2.828,1.224-2.723,1.159,0,0,0.563-0.286,1.419-0.453,2.332-0.454,2.351,0.824,2.351,0.824s0.078-0.057,0.101-0.198c0.024-0.164-0.087-0.387-0.087-0.387s0.292,0.217,0.292,0.541c0,0.485-0.317,0.655-0.317,0.655s0.065,0.007,0.181-0.094c0.117-0.1,0.184-0.347,0.184-0.347s0.123,0.404-0.326,0.779c-1.252,1.047-3.959,0.841-5.001,0.99-0.914,0.131-1.153,0.507-1.086,0.895,0.111,0.637,0.965,0.653,0.965,0.653-0.046-0.694,0.817-1.149,1.637-0.967,0.458,0.102,0.735,0.258,1.06,0.52,0.245,0.196,0.439,0.287,0.439,0.287-0.422,0.081-0.691-0.086-0.86-0.157-0.182-0.076-0.37-0.133-0.567-0.149-0.51-0.043-0.559,0.297-0.559,0.297s0.379-0.181,0.872-0.066c1.42,0.331,0.957,1.657,0.957,1.657s-0.125-0.501-0.57-0.688c-0.42-0.174-0.768,0.101-0.768,0.101s0.687-0.07,0.834,0.468c0.083,0.305-0.207,0.464-0.207,0.464s0.063-0.684-1.578-0.583c-0.717,0.045-0.715-0.568-0.715-0.568s-0.116-0.002-0.408-0.088c-0.266-0.077-0.449-0.205-0.449-0.205,0.073,0.198,0.362,0.293,0.362,0.293-0.38,0-0.696-0.293-0.696-0.293l0.055,0.18c-0.012-0.022-0.423-0.363-0.515-1.091-0.048-0.365,0.062-0.741,0.301-1.021,0.394-0.463,1.147-0.522,1.603-0.558,0.676-0.052,1.79-0.112,2.774-0.247,1.333-0.183,1.413-0.628,1.237-0.912-0.194-0.319-0.788-0.326-1.711,0-0.926,0.324-2.782,0.995-4.117,0.99-3.526-0.015-5.107-1.51-6.16-1.232,0.03-1.35-0.937-1.889-0.937-1.889-0.146,0.744-0.044-0.61-1.478-1.314,0,0-0.011,0.336-0.159,0.365-0.193,0.04-0.471-0.486-0.471-0.486-0.307,0.203-0.403,0.52-0.403,0.52l-0.074-0.151s-0.239,0.15-0.291,0.405c-0.052,0.26,0.026,0.455-0.089,0.46-0.132,0.006-0.413-0.185-0.413-0.185s0.049,0.446-0.156,0.909c-0.113,0.297-0.278,0.568-0.304,0.89-1.136,0.213-2.52,0.668-2.55,1.105-0.03,0.41,0.043,0.827-0.412,0.96l0.014-0.041-0.011-0.138-0.23-0.06-0.094,0.153-0.014,0.032c-0.262-0.154-0.155-0.625-0.155-0.625-0.206,0.21-0.639,0.595-0.901,0.35l0.04-0.05,0.028-0.145c-0.024-0.094-0.122-0.155-0.218-0.131l-0.136,0.119c-0.278-0.391,0.294-0.857,0.294-0.857-0.085-0.043-0.54-0.134-0.542-0.463l0.19,0.074,0.131-0.039,0.013-0.237-0.165-0.062-0.072-0.016c0.161-0.228,0.41-0.226,0.566-0.159,0.729,0.31,0.914,0.135,1.232,0.065,0.226-0.048,0.429,0.006,0.433-0.127,0.002-0.109-0.104-0.19-0.443-0.148,0,0,0.082-0.215,0.452-0.256,0.558-0.061,0.733,0.076,0.807-0.021,0.135-0.178-0.402-0.246-0.402-0.246,0.438-0.334,1.017-0.077,1.017-0.077,0.03-0.195-0.385-0.236-0.385-0.236s0.165-0.184,0.492-0.103c0.123,0.031,0.231,0.089,0.231,0.089s-0.098-0.323,0.188-0.488c0,0,0.163,0.551,0.391,0.409,0.113-0.068,0.128-0.184,0.077-0.25-0.072-0.094-0.179-0.079-0.179-0.079,0.066-0.168,0.36-0.168,0.36-0.168s-0.356-0.22-1.348-0.205c-1.316,0.108-1.24,0.255-1.56,0.643-0.257,0.339-0.406,0.359-0.523,0.308l0.057-0.113-0.013-0.137-0.228-0.061-0.083,0.123c-0.162-0.161-0.132-0.306-0.057-0.44-0.065,0.011-0.686,0.1-0.796-0.186l0.22-0.027,0.104-0.106c0.033-0.093-0.014-0.195-0.108-0.228l-0.19,0.027-0.091,0.024-0.004-0.03c-0.007-0.425,0.613-0.436,0.919-0.449-0.13-0.078-0.27-0.194-0.237-0.38l0.173,0.076,0.145-0.033,0.034-0.252-0.169-0.077c0.406-0.268,0.709,0.104,0.856,0.188,0.428,0.244,1.085,0.216,1.252,0.036,0.124-0.134-0.15-0.288-0.15-0.288,0.303-0.039,0.525,0.147,0.525,0.147s-0.059-0.067-0.082-0.208c-0.035-0.203,0.102-0.311,0.102-0.311,0.251,0.483,0.443,0.451,0.539,0.36,0.116-0.109-0.118-0.274-0.118-0.274,0.291-0.147,0.667,0.152,0.667,0.152s-0.027-0.248,0.114-0.383c0.191,0.348,0.61,0.316,0.887,0.282,0,0-0.397-0.271-0.243-0.611,0.249,0.241,0.56,0.329,0.982,0.277,0.877-0.106,2.537-0.604,5.386,2.04,1.926,1.786,3.212,1.557,3.212,1.557,1.711-1.389,4.998-1.414,5.84-1.477,0.406-0.029,0.412-0.282,0.234-0.499-0.112-0.133-0.259-0.166-0.268-0.168,0,0-0.809,0.335-1.108-0.115l0.157-0.002,0.101-0.074-0.059-0.206-0.163-0.002-0.069,0.008c0.036-0.149,0.152-0.194,0.232-0.214l0.024-0.025c-0.172-0.164-0.169-0.334-0.162-0.39l0.121,0.058,0.121-0.02,0.042-0.21-0.142-0.077-0.044-0.014c0.086-0.135,0.239-0.217,0.474-0.126,0.181,0.067,0.23,0.106,0.242,0.124-0.019-0.037-0.08-0.17-0.015-0.275l0.028-0.037,0.097,0.177,0.115,0.046,0.145-0.157-0.084-0.139-0.037-0.048h0.206c0.252,0.05,0.448,0.265,0.504,0.798,0.021,0.18,0.06,0.279,0.105,0.329,0.084,0.096,0.276,0.166,0.276,0.166s0.08-0.211-0.058-0.367c0.498-0.081,0.565,0.702,0.565,0.702s0.052-0.151,0.164-0.253c0.11-0.102,0.266-0.124,0.266-0.124-0.091,0.558,0.13,0.749,0.235,0.775,0.21,0.052,0.203-0.202,0.203-0.202s0.183,0.122,0.144,0.371c-0.021,0.142-0.096,0.278-0.096,0.278s0.176,0.087,0.27-0.15c0,0,0.188,0.303,0.016,0.471l0.093,0.01,0.084-0.07s0.086,0.402-0.315,0.596" fill-rule="nonzero" fill="#2b57ac"/>
    </g>
    <g id="g3649" transform="translate(70.2742,52.391006)">
     <path id="path3651" d="M0,0,0.059,0.205-0.042,0.28-0.199,0.281-0.261,0.263c-0.25-0.086-0.283-0.289-0.301-0.4,0,0,0.117,0.15,0.33,0.143l0.069-0.007,0.163,0.001" fill-rule="nonzero" fill="#ea1f29"/>
    </g>
    <g id="g3653" transform="translate(70.420502,51.595993)">
     <path id="path3655" d="M0,0-0.042,0.211-0.164,0.229-0.284,0.172-0.352,0.115c-0.184-0.191-0.12-0.385-0.084-0.493,0,0,0.037,0.201,0.25,0.286l0.044,0.015,0.142,0.077" fill-rule="nonzero" fill="#ea1f29"/>
    </g>
    <g id="g3657" transform="translate(71.320404,51.256393)">
     <path id="path3659" d="M0,0-0.146,0.157-0.26,0.111-0.357-0.066-0.361-0.084c-0.06-0.259,0.098-0.392,0.183-0.464,0,0-0.069,0.181,0.057,0.361l0.037,0.049,0.084,0.138" fill-rule="nonzero" fill="#ea1f29"/>
    </g>
   </g>
  </g>
 </g>
</svg>
