<?xml version="1.0" encoding="utf-8"?>
<!-- Generator: Adobe Illustrator 15.1.0, SVG Export Plug-In . SVG Version: 6.00 Build 0)  -->
<!DOCTYPE svg PUBLIC "-//W3C//DTD SVG 1.1//EN" "http://www.w3.org/Graphics/SVG/1.1/DTD/svg11.dtd">
<svg version="1.1" id="Layer_1" xmlns="http://www.w3.org/2000/svg" xmlns:xlink="http://www.w3.org/1999/xlink" x="0px" y="0px"
	 width="612px" height="792px" viewBox="0 0 612 792" enable-background="new 0 0 612 792" xml:space="preserve">
<g>
	<path fill="#FFE500" d="M319.923,66.759h224.396c-0.446,26.48-4.21,52.931-11.409,78.434c-24.842-0.043-49.697-0.115-74.54,0.029
		c-8.821,44.066-31.938,84.885-64.123,116.106c-16.021,15.23-34.124,28.534-54.382,37.558
		c-23.463,10.561-49.555,12.04-74.167,18.678c-39.699,10.057-75.116,35.704-97.142,70.215
		c-21.207,32.686-29.914,73.088-24.382,111.638c5.618,41.192,27.859,79.713,60.503,105.416
		c25.862,20.661,58.147,33.104,91.193,35.13c39.555,2.772,79.956-9.583,111.191-34.023c33.809-25.977,56.71-65.676,62.098-107.987
		c5.159-38.062-3.634-77.874-24.539-110.116c-18.722-29.295-47.013-52.241-79.469-64.641c-7.873,2.155-15.849,3.922-23.907,5.129
		c37.772,9.225,71.954,32.831,92.916,65.704c18.706,28.765,27.154,64.066,23.434,98.176c-3.88,39.54-24.339,77.083-55.272,101.982
		c-26.896,22.012-61.581,34.34-96.351,33.937c-33.621,0.115-67.054-11.652-93.376-32.5c-27.313-21.437-46.926-52.456-54.311-86.379
		c-8.218-36.451-2.255-75.862,16.423-108.218c20.962-37.012,58.175-64.339,99.828-73.09c14.512-3.52,29.525-2.859,44.238-4.813
		c23.018-2.658,44.685-11.352,65.935-20.101c5.358,2.845,10.689,5.79,16.364,7.931c0.159,0.244,0.475,0.733,0.618,0.977
		c-5.704,0.776-11.092,2.859-16.422,4.914c36.953,18.492,67.428,49.856,84.008,87.788c16.48,37.024,19.627,79.755,8.808,118.807
		c-12.313,45.704-43.965,85.646-85.388,108.463c-26.795,14.886-57.499,22.7-88.161,22.127
		c-49.526-0.058-98.333-22.558-130.978-59.714c-23.936-26.781-39.396-61.02-43.534-96.709c-5-40.287,4.468-82.198,26.336-116.408
		c13.52-21.308,31.667-39.641,52.729-53.535c22.127-14.942,47.831-23.304,70.604-37.112c21.983-12.557,41.753-29.152,57.012-49.41
		c32.429-43.19,45.259-97.687,49.555-150.647c-21.71,0-43.42-0.029-65.129,0.015C321.043,82.577,320.699,74.647,319.923,66.759
		L319.923,66.759z"/>
	<path d="M428.099,85.638c1.867,6.005,3.894,11.94,5.689,17.96c6.364,0.1,12.729,0.014,19.079,0.114
		c-5.157,3.736-10.373,7.414-15.416,11.336c2.126,5.819,4.009,11.738,5.847,17.673c-5.114-3.621-10.156-7.314-15.199-11.006
		c-5.102,3.65-10.159,7.357-15.231,11.049c1.797-5.948,3.664-11.868,5.819-17.701c-5.014-3.937-10.259-7.601-15.416-11.351
		c6.351-0.101,12.687-0.014,19.037-0.114C424.147,97.578,426.144,91.615,428.099,85.638L428.099,85.638z"/>
	<path fill="#D40023" d="M321.13,90.509c21.709-0.043,43.419-0.015,65.129-0.015c-4.296,52.96-17.126,107.457-49.555,150.647
		c-15.259,20.258-35.028,36.853-57.012,49.41c-22.773,13.808-48.477,22.17-70.604,37.112c-21.063,13.894-39.21,32.227-52.729,53.535
		c-21.868,34.21-31.336,76.121-26.336,116.408c4.138,35.689,19.598,69.928,43.534,96.709
		c32.644,37.156,81.451,59.656,130.978,59.714c30.662,0.573,61.366-7.241,88.161-22.127c41.423-22.816,73.075-62.759,85.388-108.463
		c10.819-39.052,7.673-81.782-8.808-118.807c-16.58-37.932-47.055-69.296-84.008-87.788c5.33-2.055,10.718-4.138,16.422-4.914
		c31.438,18.262,57.572,45.603,74.081,78.003c17.441,33.793,24.151,72.931,19.268,110.618
		c-5.245,42.486-25.632,82.859-56.553,112.458c-30.143,29.339-70.373,48.132-112.255,52.27
		c-42.572,4.612-86.61-5.892-122.543-29.196c-35.445-22.744-62.946-57.6-76.667-97.442c-14.469-41.522-13.88-88.132,1.695-129.268
		c15.043-40.186,44.282-74.813,81.236-96.58c38.549-22.127,68.808-56.925,89.368-95.992c13.577-26.393,19.942-55.977,21.651-85.474
		C321.632,117.736,321.359,104.115,321.13,90.509L321.13,90.509z"/>
	<path fill="#009535" d="M458.37,145.221c24.843-0.144,49.698-0.072,74.54-0.029c-8.002,28.104-20.76,55.014-38.764,78.104
		c-28.003,36.336-67.558,62.054-109.439,79.727c-21.25,8.75-42.917,17.443-65.935,20.101c-14.712,1.954-29.726,1.293-44.238,4.813
		c-41.653,8.75-78.865,36.078-99.828,73.09c-18.678,32.355-24.641,71.767-16.423,108.218c7.385,33.923,26.998,64.942,54.311,86.379
		c26.322,20.848,59.755,32.615,93.376,32.5c34.77,0.403,69.455-11.925,96.351-33.937c30.934-24.899,51.393-62.442,55.272-101.982
		c3.721-34.109-4.728-69.411-23.434-98.176c-20.962-32.873-55.144-56.479-92.916-65.704c8.059-1.207,16.034-2.974,23.907-5.129
		c32.456,12.399,60.747,35.345,79.469,64.641c20.905,32.242,29.698,72.055,24.539,110.116
		c-5.388,42.312-28.289,82.011-62.098,107.987c-31.235,24.44-71.637,36.796-111.191,34.023
		c-33.046-2.026-65.331-14.469-91.193-35.13c-32.644-25.703-54.885-64.224-60.503-105.416c-5.532-38.55,3.175-78.952,24.382-111.638
		c22.026-34.511,57.442-60.158,97.142-70.215c24.612-6.638,50.704-8.118,74.167-18.678c20.258-9.023,38.361-22.328,54.382-37.558
		C426.432,230.106,449.549,189.287,458.37,145.221L458.37,145.221z"/>
	<path fill="#FFFFFF" d="M247.121,346.931c37.155-17.299,81.725-17.213,118.893-0.043l-2.126,0.891
		c-7.816,3.046-14.985,7.428-21.968,12.012c-2.515,2.112-5.805,0.258-8.621-0.13c-19.742-4.928-40.546-3.764-60.101,1.452
		C265.038,355.494,256.417,350.437,247.121,346.931L247.121,346.931z"/>
	<path d="M201.733,379.877c12.816-13.779,28.29-25.086,45.388-32.946c9.296,3.505,17.917,8.563,26.078,14.181
		c19.554-5.215,40.358-6.379,60.101-1.452c2.816,0.388,6.106,2.242,8.621,0.13c6.982-4.584,14.151-8.966,21.968-12.012
		c2.084-1.221,4.152,0.101,6.063,0.992c15.59,7.816,29.728,18.462,41.537,31.293c-0.861,9.842-2.657,19.598-5.632,29.022
		c12.355,18.664,19.827,40.633,20.46,63.062c7.614,6.249,15.358,12.499,21.437,20.329c-1.264,18.837-7.974,37.055-16.896,53.592
		c-9.267,2.759-18.951,3.363-28.549,4.082c-2.098,0.1-3.032,2.399-4.439,3.634c-13.377,15.963-31.035,28.047-50.489,35.388
		c-3.29,9.354-7.398,18.434-12.701,26.84c-18.491,3.765-37.658,3.707-56.149,0.028c-5.359-8.361-9.468-17.442-12.701-26.811
		c-21.006-7.916-39.771-21.465-53.693-39.079c-10.042-0.49-20.129-1.338-29.842-4.038c-8.994-16.537-15.561-34.785-16.954-53.649
		c6.264-7.716,13.851-14.182,21.581-20.373c0.445-22.443,8.06-44.384,20.388-63.018
		C204.305,399.604,202.365,389.791,201.733,379.877L201.733,379.877z"/>
	<path fill="#FFFFFF" d="M274.434,366.744c20.733-6.235,43.132-6.035,63.938-0.215c6.523,11.609,12.614,23.462,18.994,35.159
		c-8.952,12.586-18.19,24.971-27.156,37.543c-15.731,0.042-31.479,0.027-47.211,0.014c-8.722-12.04-17.486-24.066-26.251-36.092
		c-1.364-1.322-0.014-3.089,0.576-4.396C263.083,388.109,268.859,377.477,274.434,366.744L274.434,366.744z"/>
	<path fill="#FFFFFF" d="M165.339,492.463c-5.618-40.488,8.85-82.645,36.394-112.586c0.632,9.914,2.572,19.727,5.575,29.195
		c-12.328,18.634-19.942,40.574-20.388,63.018C179.19,478.281,171.604,484.747,165.339,492.463L165.339,492.463z"/>
	<path fill="#FFFFFF" d="M411.488,380.063c27.543,29.798,41.982,72.055,36.265,112.413c-6.078-7.83-13.822-14.08-21.437-20.329
		c-0.633-22.429-8.104-44.397-20.46-63.062C408.831,399.661,410.627,389.905,411.488,380.063L411.488,380.063z"/>
	<path fill="#FFFFFF" d="M211.733,412.318c13.132-2.815,26.422-4.87,39.626-7.299c8.98,12.386,17.816,24.872,27.055,37.055
		c-4.684,15.116-9.396,30.273-14.727,45.159c-14.526,5.114-29.281,9.567-43.922,14.382c-8.979-9.972-18.778-19.196-27.672-29.239
		C193.328,451.055,199.951,430.163,211.733,412.318L211.733,412.318z"/>
	<path fill="#FFFFFF" d="M361.862,404.991c13.046,2.443,26.163,4.599,39.209,7.112c12.084,17.988,19.44,39.425,19.54,61.192
		c-9.065,9.411-18.347,18.621-27.168,28.275c-13.334-4.08-26.539-8.591-39.829-12.786c-1.882-0.748-4.755-0.992-5.057-3.55
		c-4.483-14.426-9.712-28.62-13.736-43.189C343.974,429.804,352.839,417.333,361.862,404.991L361.862,404.991z"/>
	<path d="M56,472.621c1.998-16.826,27.543-19.599,35.919-6.409c5.632,9.182,1.796,23.723-9.612,26.021
		c-0.086-2.5-0.13-4.999-0.173-7.485c3.563-2.111,7.012-5.66,5.905-10.2c-1.508-8.435-12.198-10.446-19.109-7.889
		c-5.978,1.638-8.362,9.611-4.986,14.555c1.523,2.012,3.979,2.988,5.963,4.482c0.345-3.002,0.646-5.991,0.89-8.994
		c1.955,0.015,3.909,0.043,5.862,0.072c-0.029,5.015-0.042,10.014-0.058,15.028c-6.594,0-13.189-0.014-19.784-0.029
		c0-1.249,0-3.735,0-4.972c1.48-0.129,2.975-0.229,4.454-0.344c-2.342-2.889-4.856-5.892-5.273-9.741V472.621L56,472.621z"/>
	<path d="M519.521,458.698c12.155-0.086,24.324-0.244,36.479-0.345v7.63c-8.549,5.157-17.198,10.115-25.791,15.186
		c8.593,0.115,17.185-0.1,25.791-0.157v7.127c-12.084,0.085-24.167,0.271-36.235,0.329c-0.029-2.657-0.043-5.316-0.058-7.96
		c8.492-4.928,16.925-9.956,25.445-14.842c-8.535-0.058-17.068,0.131-25.604,0.159C519.535,463.439,519.521,461.069,519.521,458.698
		L519.521,458.698z"/>
	<path fill="#FFFFFF" d="M530.209,481.169c8.593-5.07,17.242-10.028,25.791-15.186v15.028
		C547.394,481.069,538.802,481.284,530.209,481.169L530.209,481.169z"/>
	<path d="M531.489,491.859c8.246-0.617,18.275,2.054,21.882,10.302c3.117,8.606,0.358,20.46-9.038,23.75
		c-9.698,3.29-23.692,0.072-27.098-10.718C513.773,505.235,520.354,492.521,531.489,491.859L531.489,491.859z"/>
	<path d="M57.667,498.871c12.025-1.653,23.994-3.751,36.048-5.216c0.302,2.485,0.589,4.957,0.891,7.442
		c-4.526,0.618-9.038,1.408-13.578,2.012c0.718,4.697,1.509,9.383,2.055,14.108c4.597-0.761,9.181-1.465,13.807-1.997
		c0.273,2.486,0.532,4.972,0.79,7.472c-12.025,1.624-23.965,4.009-36.063,5.057c-0.259-2.427-0.518-4.87-0.776-7.299
		c5.388-0.631,10.732-1.623,16.106-2.298c-0.704-4.697-1.48-9.396-2.04-14.109c-5.445,0.805-10.877,1.724-16.365,2.242
		C58.242,503.813,57.954,501.327,57.667,498.871L57.667,498.871z"/>
	<path fill="#FFFFFF" d="M221.905,506.572c14.727-4.311,29.209-9.454,43.879-14.009c12.558,9.438,25.417,18.477,38.061,27.802
		c-0.071,15.445,0.086,30.904-0.086,46.35c-11.969,5.418-23.563,11.653-35.589,16.926c-20.618-6.522-38.419-20.518-51.968-37.213
		C218.098,533.152,219.491,519.775,221.905,506.572L221.905,506.572z"/>
	<path fill="#FFFFFF" d="M309.419,520.164c12.759-9.095,25.402-18.362,38.062-27.601c14.684,4.799,29.41,9.482,44.052,14.368
		c1.938,12.959,3.39,25.991,5.545,38.922c-12.614,16.896-30.373,29.784-50,37.343c-1.709,0.947-3.405,0.042-4.971-0.704
		c-10.861-5.245-21.624-10.719-32.6-15.69C309.232,551.256,309.392,535.709,309.419,520.164L309.419,520.164z"/>
	<path fill="#FFFFFF" d="M529.276,500.063c5.315-1.107,11.479-0.69,15.876,2.83c4.928,3.894,3.88,12.788-1.854,15.388
		c-5.215,2.429-11.552,1.308-16.336-1.565C520.728,512.951,522.077,501.902,529.276,500.063L529.276,500.063z"/>
	<path d="M514.002,525.438c11.825,3.017,23.693,5.904,35.475,9.108c-0.675,2.399-1.321,4.828-1.938,7.27
		c-10.935-2.614-21.696-5.978-32.774-7.931l3.578,1.278c-0.575,3.578-2.069,6.912-3.304,10.317
		c9.381,3.247,18.691,6.724,28.146,9.784c-0.675,2.457-1.437,4.899-2.256,7.313c-9.512-3.117-18.893-6.638-28.362-9.87
		c-1.234,3.462-2.471,6.925-3.691,10.402c-1.969-0.705-3.938-1.38-5.906-2.026C506.403,549.114,511.991,537.793,514.002,525.438
		L514.002,525.438z"/>
	<path d="M62.624,532.635c12.917,0.159,25.775,1.265,38.678,1.624c0.733,2.873,2.443,5.862,1.811,8.864
		c-9.9,7.787-20.316,14.914-30.345,22.544c-0.862-2.717-1.652-5.46-2.198-8.247c1.982-1.236,3.994-2.443,5.876-3.836
		c-0.187-4.483-2.557-8.692-3.333-13.132c-2.658-0.131-5.316-0.202-7.975-0.26C64.29,537.678,63.472,535.149,62.624,532.635
		L62.624,532.635z"/>
	<path fill="#FFFFFF" d="M79.578,540.466c5.187,0.071,10.374,0.173,15.575,0.173c-4.396,2.83-8.506,6.076-13.118,8.563
		C81.273,546.271,80.439,543.367,79.578,540.466L79.578,540.466z"/>
	<path fill="#FFFFFF" d="M182.293,546.112c9.713,2.7,19.799,3.548,29.842,4.038c13.922,17.614,32.687,31.163,53.693,39.079
		c3.233,9.368,7.342,18.449,12.701,26.811C238.285,608.151,202.308,581.873,182.293,546.112L182.293,546.112z"/>
	<path fill="#FFFFFF" d="M402.308,550.15c9.598-0.719,19.282-1.323,28.549-4.082c-20.015,35.733-55.935,62.083-96.179,69.943
		c5.303-8.406,9.411-17.485,12.701-26.84c19.454-7.341,37.112-19.425,50.489-35.388C399.275,552.55,400.21,550.25,402.308,550.15
		L402.308,550.15z"/>
	<path d="M74.521,569.259c11.063-5.058,21.867-10.704,33.088-15.359c0.992,2.342,2.141,4.642,2.86,7.098
		c-5.015,8.405-11.322,16.006-16.552,24.281c7.471-4.009,15.33-7.241,22.916-11.077c1.106,2.025,2.213,4.052,3.334,6.078
		c-10.747,5.775-22.098,10.345-32.917,15.961c-1.164-2.24-2.313-4.511-3.477-6.751c5.431-8.22,11.336-16.122,16.825-24.311
		c-8.002,2.959-15.503,7.069-23.219,10.675C76.431,573.641,75.454,571.456,74.521,569.259L74.521,569.259z"/>
	<path d="M496.187,573.957c1.278-2.644,2.543-5.302,3.765-7.96c12.845,1.508,25.704,2.889,38.534,4.554
		c-1.249,2.43-2.472,4.856-3.678,7.314c-2.615-0.345-5.229-0.676-7.831-0.978c-1.796,3.822-4.036,7.458-5.358,11.48
		c0.546,2.644,3.42,3.951,5.086,5.876c-1.121,2.429-2.285,4.856-3.463,7.271C514.117,592.434,505.21,583.139,496.187,573.957
		L496.187,573.957z"/>
	<path fill="#FFFFFF" d="M505.871,573.482c4.842,0.905,9.727,1.581,14.568,2.515c-1.351,2.673-2.687,5.359-4.036,8.031
		C512.652,580.781,508.888,577.463,505.871,573.482L505.871,573.482z"/>
	<path d="M485.727,591.672c1.365-2.067,2.701-4.138,4.038-6.191c10.286,6.178,20.315,12.786,30.689,18.851
		c-1.092,2.271-2.255,4.497-3.362,6.752C506.431,604.977,496.015,598.382,485.727,591.672L485.727,591.672z"/>
	<path d="M88.959,599.646c12.529-3.031,25.015-6.192,37.529-9.282c1.408,2.558,3.894,4.799,4.167,7.831
		c-7.284,10.331-15.058,20.331-22.816,30.331c-1.452-2.357-2.946-4.67-4.368-7.027c1.681-1.967,3.333-3.936,5-5.89
		c-2.557-3.735-5.029-7.5-7.514-11.25c-2.586,0.646-5.173,1.351-7.745,2.04C91.791,604.143,90.354,601.902,88.959,599.646
		L88.959,599.646z"/>
	<path fill="#FFFFFF" d="M107.538,602.491c4.785-1.308,9.54-2.73,14.353-3.923c-3.045,4.009-6.25,7.918-9.655,11.639
		C110.655,607.636,109.046,605.092,107.538,602.491L107.538,602.491z"/>
	<path d="M472.954,621.198c-4.784-10.058,4.253-23.635,15.445-22.701c2.299,0.244,4.555,0.675,6.796,1.294
		c-1.451,2.183-2.96,4.31-4.512,6.407c-2.931-0.244-6.594-1.293-8.793,1.351c-3.491,2.673-4.037,8.089-1.437,11.566
		c2.96,4.08,7.255,7.442,12.27,8.477c4.139,0.863,7.933-2.284,9.296-5.991c0.921-2.945-0.99-5.547-1.594-8.305
		c1.278-1.911,2.428-4.539,5.028-4.799c2.271,3.377,4.268,7.299,3.765,11.508c-1.035,9.038-10.188,17.156-19.526,14.757
		C482.609,632.851,476.1,627.907,472.954,621.198L472.954,621.198z"/>
	<path d="M145.209,617.204c1.811,0,2.73,1.839,3.98,2.858c4.799,5.159,9.914,10.029,14.512,15.374
		c-1.494,1.423-2.989,2.83-4.468,4.267c-4.109-3.907-7.831-8.188-11.955-12.082c-2.859-0.891-4.942,2.816-6.422,4.842
		c3.204,3.908,6.94,7.371,10.575,10.862c-1.322,1.81-2.859,3.448-4.468,5.015c-3.506-3.909-7.242-7.601-10.848-11.423
		c-4.037,3.189-7.557,6.954-11.235,10.531c-1.781-1.854-3.549-3.707-5.288-5.574C128.371,633.914,136.474,625.206,145.209,617.204
		L145.209,617.204z"/>
	<path d="M457.797,626.744c10.56-5.157,21.823,3.894,25.761,13.434c5.432,12.815-10.115,27.716-22.701,21.911
		c-7.457-3.478-13.707-10.747-14.296-19.181C446.876,635.94,451.475,629.561,457.797,626.744L457.797,626.744z"/>
	<path fill="#FFFFFF" d="M453.457,641.457c1.179-4.871,5.259-9.67,10.704-9.066c6.436,1.337,11.595,6.882,13.219,13.161
		c0.919,5.862-4.886,11.523-10.704,10.633C459.879,654.374,454.822,648.238,453.457,641.457L453.457,641.457z"/>
	<path d="M161.532,640.983c11.078-3.378,23.807,7.068,22.342,18.577c-1.379,7.745-6.767,14.784-13.937,18.047
		c-11.078,4.252-24.281-5.805-23.592-17.472C147.652,651.787,153.471,643.885,161.532,640.983L161.532,640.983z"/>
	<path fill="#FFFFFF" d="M163.227,648.268c6.048-3.031,14.296,2.14,13.261,9.08c-0.675,8.391-10.761,18.247-19.051,12.242
		C149.606,663.426,156.101,651.945,163.227,648.268L163.227,648.268z"/>
	<path d="M420.225,660.149c2.385-10.173,18.404-17.845,25.315-7.571c-1.896,1.249-3.792,2.515-5.675,3.764
		c-4.728-4.512-14.612,0.676-12.429,7.098c0.489,0.431,1.437,1.308,1.926,1.753c7.04-0.675,13.118-6.178,20.388-5.331
		c5.963,2.013,9.583,9.886,6.12,15.46c-3.793,6.366-11.394,11.452-19.037,10.115c-2.845-0.431-4.783-2.772-6.752-4.612
		c1.838-1.35,3.691-2.657,5.545-3.979c4.757,3.751,11.294,1.078,14.052-3.765c1.811-2.054-0.071-5.963-2.83-5.574
		c-6.982,0.346-13.018,6.509-20.216,4.525C422.278,669.991,419.391,664.948,420.225,660.149L420.225,660.149z"/>
	<path d="M191.215,661.729c10.029-3.821,22.241,3.521,23.966,14.052c0.086,8.075-3.894,16.222-10.532,20.921
		c-8.865,5.904-21.868,0.416-25.603-9.081C176.201,677.649,181.905,666.025,191.215,661.729L191.215,661.729z"/>
	<path d="M393.155,677.348c1.407-12.126,20.532-19.367,27.27-7.514c-2.155,1.006-4.295,2.04-6.466,3.03
		c-4.555-5.89-17.313,0.331-12.14,7.372c6.049-0.26,11.882-2.041,17.772-3.262c4.857,0.373,8.966,3.965,9.511,8.894
		c1.322,6.235-3.806,11.364-8.964,13.836c-4.14,1.926-9.139,3.635-13.507,1.465c-2.471-0.99-3.951-3.361-5.747-5.172
		c2.013-1.135,4.023-2.284,6.035-3.435c4.941,6.279,17.845,0.734,14.77-7.385c-7.558-1.479-14.77,3.735-22.313,1.711
		C395.568,685.222,394.305,680.969,393.155,677.348L393.155,677.348z"/>
	<path fill="#FFFFFF" d="M194.549,668.268c5.948-2.687,13.707,2.428,13.031,9.052c-0.661,6.178-4.339,12.888-10.575,14.87
		c-4.512,0.963-9.425-1.953-10.963-6.25C184.534,679.102,188.543,671.586,194.549,668.268L194.549,668.268z"/>
	<path d="M216.733,671.126l1.235-0.33c9.023,3.089,17.773,6.94,26.825,9.957c7.126,2.284,14.942,2.528,21.695,5.862
		c6.552,3.534,5.302,13.98-1.581,16.38c7.271,5.028,2.228,17.326-6.049,17.787c-7.687-0.431-15.028-3.032-22.572-4.426
		c1.911-10.014,5.431-19.785,6.164-29.972l2.457-0.891c-1.351-0.316-2.586,0.244-3.736,0.92c-2.945-1.121-5.891-2.242-8.85-3.304
		c-3.707,9.323-7.099,18.764-10.776,28.103c-2.356-1.021-4.713-1.982-7.07-2.988c3.665-9.296,7.213-18.621,10.647-28.004
		c-2.816-0.99-5.618-2.011-8.448-2.931c-0.575-1.163-1.135-2.313-1.696-3.447l0.992-0.058L216.733,671.126L216.733,671.126z"/>
	<path d="M370.324,679.79c2.889-1.006,5.805-1.896,8.809-2.558c7.485,10.302,15.92,19.9,23.203,30.345
		c-2.558,0.79-5.101,1.624-7.629,2.473c-1.565-2.155-3.133-4.297-4.741-6.395c-4.238,1.495-8.507,2.888-12.702,4.483
		c0.016,2.528,0.131,5.086-0.086,7.629c-2.385,1.106-4.899,1.867-7.37,2.772C369.865,705.624,370.195,692.707,370.324,679.79
		L370.324,679.79z"/>
	<path fill="#FFFFFF" d="M377.206,686.097c2.89,4.082,5.763,8.177,8.938,12.042c-2.932,1.177-5.893,2.255-8.895,3.261
		C377.164,696.299,377.077,691.199,377.206,686.097L377.206,686.097z"/>
	<path d="M285.009,688.425c2.859-0.042,5.704,0.389,8.534,0.776c3.189,12.356,6.495,24.685,9.712,37.04h-7.83
		c-0.819-2.644-1.465-5.345-2.112-8.018c-4.439-0.444-8.879-0.934-13.333-1.264c-1.078,2.457-2.155,4.913-3.261,7.37
		c-2.645-0.229-5.273-0.444-7.902-0.66C274.305,711.959,279.061,699.891,285.009,688.425L285.009,688.425z"/>
	<path d="M327.954,688.598c2.485-0.33,4.972-0.647,7.456-0.963c1.682,9.785,3.061,19.627,4.628,29.44
		c5.976-1.021,12.011-1.796,17.974-2.888c0.288,2.213,0.56,4.425,0.848,6.652c-8.549,1.148-17.012,2.931-25.604,3.649
		C331.876,712.463,329.592,700.58,327.954,688.598L327.954,688.598z"/>
	<path fill="#FFFFFF" d="M248.629,696.385c0.403-2.499,0.833-4.972,1.25-7.456c4.554,0.817,10.057,0.604,13.477,4.238
		c0.359,1.968-0.215,3.62-1.709,4.942C257.265,699.201,252.896,697.118,248.629,696.385L248.629,696.385z"/>
	<path d="M304.046,689.689c2.615-0.086,5.244-0.144,7.874-0.157c0.187,9.798,0.646,19.597,0.933,29.396
		c6.078-0.058,12.157-0.244,18.22-0.475c0.071,2.227,0.143,4.439,0.215,6.666c-8.577,0.331-17.154,0.317-25.732,0.129
		C305.224,713.382,304.563,701.543,304.046,689.689L304.046,689.689z"/>
	<path fill="#FFFFFF" d="M288.543,697.175c1.02,4.784,2.14,9.555,3.045,14.368c-2.988-0.188-5.963-0.388-8.937-0.589
		C284.333,706.256,286.201,701.6,288.543,697.175L288.543,697.175z"/>
	<path fill="#FFFFFF" d="M244.879,711.917c0.689-3.204,1.422-6.38,2.069-9.583c4.095,1.02,8.448,1.407,12.27,3.318
		c3.248,1.969,1.106,5.947-0.344,8.376C254.089,714.316,249.506,712.851,244.879,711.917L244.879,711.917z"/>
</g>
</svg>
