<?xml version="1.0" encoding="UTF-8" standalone="no"?>
<!-- Created with Inkscape (http://www.inkscape.org/) -->

<svg
   xmlns:dc="http://purl.org/dc/elements/1.1/"
   xmlns:cc="http://creativecommons.org/ns#"
   xmlns:rdf="http://www.w3.org/1999/02/22-rdf-syntax-ns#"
   xmlns:svg="http://www.w3.org/2000/svg"
   xmlns="http://www.w3.org/2000/svg"
   xmlns:sodipodi="http://sodipodi.sourceforge.net/DTD/sodipodi-0.dtd"
   xmlns:inkscape="http://www.inkscape.org/namespaces/inkscape"
   width="429.67032"
   height="709.89008"
   id="svg4012"
   version="1.1"
   inkscape:version="0.47 r22583"
   sodipodi:docname="New document 2">
  <defs
     id="defs4014">
    <inkscape:perspective
       sodipodi:type="inkscape:persp3d"
       inkscape:vp_x="0 : 526.18109 : 1"
       inkscape:vp_y="0 : 1000 : 0"
       inkscape:vp_z="744.09448 : 526.18109 : 1"
       inkscape:persp3d-origin="372.04724 : 350.78739 : 1"
       id="perspective4020" />
    <inkscape:perspective
       id="perspective4030"
       inkscape:persp3d-origin="0.5 : 0.33333333 : 1"
       inkscape:vp_z="1 : 0.5 : 1"
       inkscape:vp_y="0 : 1000 : 0"
       inkscape:vp_x="0 : 0.5 : 1"
       sodipodi:type="inkscape:persp3d" />
  </defs>
  <sodipodi:namedview
     id="base"
     pagecolor="#ffffff"
     bordercolor="#666666"
     borderopacity="1.0"
     inkscape:pageopacity="0.0"
     inkscape:pageshadow="2"
     inkscape:zoom="0.49497475"
     inkscape:cx="37.489273"
     inkscape:cy="286.92793"
     inkscape:document-units="px"
     inkscape:current-layer="layer1"
     showgrid="false"
     inkscape:window-width="1280"
     inkscape:window-height="752"
     inkscape:window-x="0"
     inkscape:window-y="0"
     inkscape:window-maximized="0">
    <inkscape:grid
       type="xygrid"
       id="grid4548"
       empspacing="5"
       visible="true"
       enabled="true"
       snapvisiblegridlinesonly="true" />
  </sodipodi:namedview>
  <metadata
     id="metadata4017">
    <rdf:RDF>
      <cc:Work
         rdf:about="">
        <dc:format>image/svg+xml</dc:format>
        <dc:type
           rdf:resource="http://purl.org/dc/dcmitype/StillImage" />
        <dc:title></dc:title>
      </cc:Work>
    </rdf:RDF>
  </metadata>
  <g
     inkscape:label="Layer 1"
     inkscape:groupmode="layer"
     id="layer1"
     transform="translate(467.19229,-198.62596)">
    <rect
       style="fill:#14448b;fill-opacity:1;fill-rule:nonzero;stroke:none"
       id="rect4036"
       width="429.67032"
       height="709.89008"
       x="-467.19229"
       y="198.62596"
       ry="14.945055" />
    <path
       style="font-size:medium;font-style:normal;font-variant:normal;font-weight:normal;font-stretch:normal;text-indent:0;text-align:start;text-decoration:none;line-height:normal;letter-spacing:normal;word-spacing:normal;text-transform:none;direction:ltr;block-progression:tb;writing-mode:lr-tb;text-anchor:start;color:#000000;fill:#ffffff;fill-opacity:1;stroke:none;stroke-width:16;marker:none;visibility:visible;display:inline;overflow:visible;enable-background:accumulate;font-family:Bitstream Vera Sans;-inkscape-font-specification:Bitstream Vera Sans"
       d="m -280,332.375 0,55.34375 -130.34375,0 0,39.65625 130.34375,0 0,45 45,0 0,-45 135,0 0,-39.65625 -135,0 0,-55.34375 -45,0 z m 45,140 0,390 45,0 0,-390 -45,0 z m -45,0 -45,0 0,390 45,0 0,-390 z m -135,0 0,390 45,0 0,-390 -45,0 z m 270,0 0,390 45,0 0,-390 -45,0 z"
       id="path4562" />
    <g
       transform="matrix(2.4631975,0,0,2.2629498,2340.3728,-907.29024)"
       style="font-size:40px;font-style:normal;font-variant:normal;font-weight:normal;font-stretch:normal;text-align:start;line-height:125%;writing-mode:lr-tb;text-anchor:start;fill:#ffffff;fill-opacity:1;stroke:#ffffff;stroke-width:1.61747181;font-family:Arial;-inkscape-font-specification:Arial"
       id="flowRoot4600">
      <path
         d="m -1118.1172,534.11306 0,-28.63282 20.7031,0 0,3.37891 -16.914,0 0,8.76953 15.8398,0 0,3.35938 -15.8398,0 0,9.74609 17.5781,0 0,3.37891 -21.3672,0"
         id="path4609" />
      <path
         d="m -1079.3281,505.48024 11.0937,28.63282 -4.1211,0 -7.4414,-20.78125 c -0.651,-1.8229 -1.1523,-3.39191 -1.5039,-4.70703 -0.4297,1.57554 -0.9375,3.14455 -1.5234,4.70703 l -7.7344,20.78125 -3.8672,0 11.1914,-28.63282 3.9063,0"
         id="path4611" />
      <path
         d="m -1052.6094,505.48024 11.0938,28.63282 -4.1211,0 -7.4414,-20.78125 c -0.6511,-1.8229 -1.1524,-3.39191 -1.5039,-4.70703 -0.4297,1.57554 -0.9375,3.14455 -1.5235,4.70703 l -7.7343,20.78125 -3.8672,0 11.1914,-28.63282 3.9062,0"
         id="path4613" />
      <path
         d="m -1041.2617,534.11306 10.9961,-28.63282 4.082,0 11.7188,28.63282 -4.3164,0 -3.3399,-8.67188 -11.9727,0 -3.1445,8.67188 -4.0234,0 m 8.2617,-11.75782 9.707,0 -2.9883,-7.92968 c -0.9114,-2.40883 -1.5885,-4.388 -2.0312,-5.9375 -0.3646,1.83596 -0.8789,3.65887 -1.543,5.46875 l -3.1445,8.39843"
         id="path4615" />
      <path
         d="m -992.12109,505.48024 0,3.37891 -15.37111,0 9.76564,10.39063 -9.76564,11.48437 16.17189,0 0,3.37891 -20.27339,0 0,-3.94532 9.3554,-10.91796 -9.3554,-9.96094 0,-3.8086 19.47261,0"
         id="path4617" />
    </g>
  </g>
</svg>
