<?xml version="1.0" encoding="utf-8"?>
<!-- Generator: Adobe Illustrator 15.1.0, SVG Export Plug-In . SVG Version: 6.00 Build 0)  -->
<!DOCTYPE svg PUBLIC "-//W3C//DTD SVG 1.1//EN" "http://www.w3.org/Graphics/SVG/1.1/DTD/svg11.dtd">
<svg version="1.1" id="Layer_1" xmlns="http://www.w3.org/2000/svg" xmlns:xlink="http://www.w3.org/1999/xlink" x="0px" y="0px"
	 width="612px" height="792px" viewBox="0 0 612 792" enable-background="new 0 0 612 792" xml:space="preserve">
<g>
	<path fill="#335BAA" d="M25.232,114.483c4.299-14.558,8.657-29.222,15.382-42.884c4.817,4.169,10.165,7.656,15.606,10.954
		c37.172,21.978,80.421,33.909,123.671,32.896c45.97-0.753,90.88-16.795,128.947-42.13c30.14,19.387,64.062,33.45,99.608,38.738
		c55.063,8.328,113.176-4.864,158.981-36.606c0.813,1.143,1.613,2.308,2.544,3.369c1.779-0.153,3.511-0.601,5.253-0.954
		c19.022,49.162,28.563,101.705,30.823,154.282c2.155,57.654-5.712,115.744-23.897,170.536
		c-14.192,43.58-34.969,84.922-60.575,122.894c-54.544,80.61-130.03,145.132-212.349,196.096c-2.438,2.025-5.395,0.247-7.609-1.166
		c-60.186-37.607-116.616-82.023-163.834-135.189C84.405,525.743,43.37,454.425,22.864,376.866
		C-0.162,291.333,1.263,199.652,25.232,114.483L25.232,114.483z"/>
	<path fill="#FEFEFF" d="M170.586,125.355c48.868,1.225,97.194-14.298,138.358-40.188c34.028,20.777,72.483,34.981,112.364,38.374
		c51.177,4.511,103.672-8.645,146.839-36.453c18.622,50.434,27.361,104.225,28.373,157.886
		c0.472,49.728-6.442,99.608-21.295,147.098c-14.663,47.219-36.972,91.952-65.074,132.599
		c-44.345,64.18-102.458,117.888-166.272,162.339c-12.367,8.504-24.781,16.984-37.666,24.699
		c-72.012-45.122-138.701-100.34-190.136-168.404c-27.726-36.643-50.788-76.9-67.501-119.726
		C12.04,330.979,6.893,227.012,31.098,130.667c3.733-14.77,8.162-29.375,13.533-43.639
		C82.085,110.915,126.159,124.46,170.586,125.355L170.586,125.355z"/>
	<path fill="#335BAA" d="M284.058,112.458c8.574-3.91,16.678-8.739,25.075-12.979c27.056,15.041,55.993,27.172,86.511,32.967
		c37.632,7.456,77.006,5.43,113.754-5.524c18.445-5.194,35.735-13.533,53.344-20.965c5.395,21.106,11.142,42.154,14.617,63.696
		c10.329,60.764,9.27,123.565-4.217,183.763c-10.2,46.018-27.737,90.351-51.424,131.091
		c-43.215,74.521-105.827,136.192-175.565,186.025c-12.897,9.399-26.336,18.021-39.551,26.96
		c-38.079-24.133-74.404-51.164-107.759-81.552C156.617,577.52,119.28,533.375,90.66,483.871
		C50.332,414.604,28.635,334.63,28.542,254.479c-0.401-33.979,3.168-67.972,9.929-101.257c3.228-15.948,7.621-31.612,11.578-47.372
		c14.511,6.137,28.751,12.979,43.674,18.103c35.735,12.461,74.344,16.949,111.916,12.014
		C232.834,132.481,259.335,124.248,284.058,112.458L284.058,112.458z"/>
	<path fill="#FEFEFF" d="M213.436,145.249c33.732-5.077,66.028-17.479,95.722-34.098c39.244,21.813,83.578,35.617,128.699,35.865
		c33.439,0.707,66.889-5.924,97.912-18.315c6.738-2.65,13.322-5.665,19.988-8.503c16.913,60.999,22.802,125.272,14.771,188.18
		c-53.827-0.059-107.653,0-161.491-0.035c2.285,3.816,4.464,7.691,6.631,11.577c51.094-0.153,102.176-0.047,153.27-0.059
		c-0.684,4.405-1.39,8.81-2.179,13.204c-48.563,0.059-97.135,0-145.696,0.023c1.213,3.793,2.319,7.632,3.345,11.484
		c46.689,0.023,93.378,0,140.077,0.011c-9.599,46.96-27.171,92.176-51.104,133.671c-42.213,73.202-103.565,133.753-171.82,182.821
		c-11.378,8.386-23.332,15.959-34.91,24.051c-35.5-22.673-69.245-48.184-100.445-76.512
		c-43.732-39.798-82.282-85.756-110.927-137.627c-21.896-39.457-37.938-82.2-47.019-126.416c48.774,0.011,97.547,0.011,146.321,0
		c1.048-3.84,2.167-7.68,3.38-11.473c-50.658-0.046-101.316,0.024-151.986-0.035c-0.718-4.405-1.461-8.799-2.19-13.192
		c53.284-0.083,106.569,0.059,159.853-0.07c1.885-3.946,4.064-7.727,6.325-11.449c-55.899,0.024-111.811-0.059-167.71,0.035
		c-8.115-62.907-2.12-127.192,14.711-188.227c9.788,4.134,19.445,8.61,29.48,12.167C126.819,147.05,170.904,151.974,213.436,145.249
		L213.436,145.249z"/>
	<path fill="#335BAA" d="M87.079,182.691c6.808-0.142,13.615-0.036,20.423-0.071c-0.659,6.761-1.189,13.533-1.849,20.293
		c3.215,0,6.419,0,9.635,0c0.495-6.76,1.236-13.498,1.66-20.258c6.785-0.071,13.568-0.024,20.353-0.035
		c-1.414,17.596-2.957,35.193-4.617,52.766c-6.738-0.07-13.475-0.047-20.223-0.012c0.424-6.69,1.189-13.356,1.672-20.046
		c-3.168,0-6.337-0.012-9.505-0.012c-0.613,6.655-1.237,13.31-1.731,19.988c-6.796,0.106-13.592-0.023-20.388,0.094
		C83.981,217.826,85.619,200.264,87.079,182.691L87.079,182.691z"/>
	<path fill="#335BAA" d="M159.268,183.41c7.856-1.861,16.207-1.991,24.098-0.2c7.927,2.025,14.888,8.728,15.583,17.137
		c1.001,9.894-0.506,21.26-8.457,28.15c-6.408,7.231-16.819,7.715-25.794,7.432c-7.762,0.083-16.089-2.614-20.789-9.104
		c-4.511-6.348-4.157-14.652-2.992-21.99C142.095,194.94,149.727,186.13,159.268,183.41L159.268,183.41z"/>
	<path fill="#335BAA" d="M201.869,235.281c1.543-17.562,3.015-35.134,4.652-52.696c7.162,0.071,14.311,0.024,21.472,0.036
		c3.899,8.963,7.868,17.891,11.778,26.831c0.789-8.94,1.602-17.879,2.344-26.831c6.819,0,13.651,0,20.471,0
		c-1.366,16.136-2.886,32.249-4.193,48.385c-0.212,1.414-0.118,2.956-0.778,4.264c-6.89,0.235-13.781,0-20.67,0.07
		c-4.158-8.904-8.221-17.844-12.414-26.725c-0.754,8.928-1.543,17.844-2.344,26.76C215.414,235.292,208.642,235.422,201.869,235.281
		L201.869,235.281z"/>
	<path fill="#335BAA" d="M264.446,235.364c1.543-17.597,2.968-35.206,4.688-52.791c10.718,0.377,21.507-0.612,32.19,0.647
		c8.503,1.049,17.278,6.043,19.705,14.759c2.19,9.446,0.554,20.329-6.172,27.655c-6.195,6.573-15.382,9.517-24.24,9.705
		C281.89,235.398,273.163,235.304,264.446,235.364L264.446,235.364z"/>
	<path fill="#335BAA" d="M326,220.24c1.061-12.543,2.214-25.076,3.286-37.619c6.761,0,13.533,0,20.306,0
		c-0.825,12.579-2.509,25.099-3.027,37.679c2.05,3.498,8.893,2.591,9.092-1.791c1.272-11.943,2.039-23.933,3.275-35.888
		c6.783,0,13.592,0,20.388,0c-1.143,13.286-2.273,26.583-3.498,39.857c-0.317,4.995-4.464,8.657-8.763,10.553
		c-7.361,3.228-15.583,3.063-23.45,2.839c-5.513-0.247-11.85-1.201-15.136-6.195C325.905,227.201,325.611,223.585,326,220.24
		L326,220.24z"/>
	<path fill="#335BAA" d="M386.021,182.621c8.645,0.035,17.303-0.059,25.959,0.023c6.548,0.248,13.615,1.484,18.621,6.054
		c4.699,4.099,4.806,11.613,1.743,16.713c-2.05,3.604-5.972,5.382-9.505,7.172c3.169,7.02,6.102,14.158,9.281,21.177
		c6.725-17.031,13.392-34.086,20.069-51.129c8.48-0.011,16.973-0.011,25.465,0c3.828,17.562,7.68,35.135,11.52,52.708
		c-7.161,0.024-14.322-0.011-21.495,0.024c-0.295-3.004-0.601-6.019-0.884-9.022c-3.745-0.165-7.491-0.165-11.225-0.142
		c-1.013,3.027-1.967,6.066-2.897,9.117c-13.687,0.082-27.373-0.024-41.058,0.059c-2.558-6.89-3.169-14.57-6.938-20.942
		c-3.486,6.278-1.084,14.181-3.368,20.824c-6.655,0.283-13.31-0.047-19.952,0.141C382.865,217.802,384.36,200.206,386.021,182.621
		L386.021,182.621z"/>
	<path fill="#335BAA" d="M509.986,182.986c8.057-1.354,16.396-0.754,24.24,1.496c-0.283,4.793-0.825,9.564-1.096,14.357
		c-5.159-2.391-10.907-5.429-16.736-3.651c-2.155,0.471-4.464,3.522-2.227,5.277c5.146,3.969,12.378,4.311,17.184,8.928
		c3.981,3.392,4.053,9.399,2.521,14.004c-2.368,6.667-9.211,10.506-15.818,11.837c-8.881,1.638-18.068,0.542-26.666-2.025
		c0.377-5.124,0.848-10.224,1.261-15.335c4.77,3.615,10.836,6.524,16.937,4.97c2.438-0.412,5.289-3.227,3.356-5.689
		c-5.229-3.804-12.495-4.028-17.184-8.774c-4.534-4.111-4.253-11.378-1.214-16.278C497.984,186.908,504.039,184.151,509.986,182.986
		L509.986,182.986z"/>
	<path fill="#FEFEFF" d="M288.427,194.469c3.592,0.424,7.95,0.495,10.235,3.805c3.286,5.559,2.532,12.72,0.047,18.445
		c-2.285,4.817-7.927,6.313-12.85,6.065C286.743,213.35,287.461,203.892,288.427,194.469L288.427,194.469z"/>
	<path fill="#FEFEFF" d="M405.243,194.352c2.897,0.2,6.349-0.553,8.668,1.649c2.039,2.45,1.202,6.596-1.33,8.386
		c-2.509,1.425-5.523,1.083-8.28,1.295C404.619,201.913,404.949,198.132,405.243,194.352L405.243,194.352z"/>
	<path fill="#FEFEFF" d="M456.844,214.68c2.391-6.748,4.558-13.568,7.125-20.246c1.155,6.748,2.403,13.485,3.475,20.258
		C463.91,214.705,460.377,214.692,456.844,214.68L456.844,214.68z"/>
	<path fill="#FEFEFF" d="M167.324,195.965c2.921-1.72,7.303-1.072,9.046,2.002c2.203,3.922,1.873,8.668,1.284,12.968
		c-0.565,3.592-1.354,7.525-4.158,10.082c-2.944,3.003-8.763,2.626-10.789-1.249c-1.99-4.181-1.46-9.034-0.895-13.474
		C162.495,202.443,163.719,198.085,167.324,195.965L167.324,195.965z"/>
	<path fill="#335BAA" d="M296.036,261.358c24.628-2.957,50.27,2.343,71.423,15.37c19.799,11.967,35.688,30.258,44.686,51.577
		c10.248,23.886,11.578,51.436,3.911,76.252c-7.268,23.804-22.885,44.957-43.485,58.938c-21.978,15.229-49.633,21.907-76.169,18.691
		c-22.285-2.484-43.697-12.025-60.505-26.878c-18.586-16.195-31.495-38.785-35.959-63.036c-5.053-27.079,0.153-56.041,14.935-79.35
		C232.304,284.655,263.033,265.115,296.036,261.358L296.036,261.358z"/>
	<path fill="#FEFEFF" d="M290.724,267.188c25.358-4.357,52.413,0.294,74.238,14.123c-5.1,0.211-10.2,1.79-15.265,1.272
		c-17.055-6.266-35.299-10.376-53.543-8.622C294.411,271.64,292.597,269.39,290.724,267.188L290.724,267.188z"/>
	<path fill="#FEFEFF" d="M294.987,281.251c1.708-2.214,4.817-1.72,7.267-2.014c15.159-0.318,30.247,3.086,44.369,8.457
		c4.146,8.916,8.905,17.538,12.991,26.489c-6.678,8.115-13.616,16.088-21.472,23.108c-1.178,1.319-3.098,0.53-4.604,0.589
		c-14.288-1.507-28.574-2.921-42.861-4.381c-5.123-11.036-9.811-22.284-14.97-33.297
		C282.515,294.29,289.028,288.035,294.987,281.251L294.987,281.251z"/>
	<path fill="#FEFEFF" d="M203.365,364.44c1.685-26.583,14.016-52.307,33.686-70.28c-0.035,1.189-0.106,3.568-0.142,4.758
		c-16.136,16.466-24.922,38.856-29.151,61.211C206.31,361.578,204.849,363.016,203.365,364.44L203.365,364.44z"/>
	<path fill="#FEFEFF" d="M241.562,301.875c9.623,0,19.245,0.024,28.88-0.023c5.547,11.154,9.764,22.92,15.241,34.075
		c-6.208,14.039-12.367,28.09-18.657,42.083c-11.908,3.581-24.31,4.994-36.606,6.643c-5.831-8.362-11.531-16.831-17.055-25.405
		C217.64,338.222,226.144,317.221,241.562,301.875L241.562,301.875z"/>
	<path fill="#FEFEFF" d="M364.138,316.916c10.377,5.182,20.683,10.53,31.117,15.594c7.009,15.866,12.367,32.755,13.228,50.175
		c-7.515,6.973-14.911,14.087-22.52,20.966c-11.908-6.303-24.052-12.144-36.229-17.915c-3.311-14.311-6.267-28.703-9.411-43.049
		C349.037,334.865,357.012,326.22,364.138,316.916L364.138,316.916z"/>
	<path fill="#FEFEFF" d="M399.684,329.247c-2.167-4.028-0.023-8.574,0.483-12.779c12.473,19.705,17.88,43.945,14.982,67.077
		c-1.014-1.166-1.508-2.626-1.544-4.146C412.239,361.979,406.857,345.101,399.684,329.247L399.684,329.247z"/>
	<path fill="#335BAA" d="M60.354,354.582c44.121,0,88.242,0,132.375,0c-3.204,22.897,0.059,46.748,10.117,67.63
		c6.667,13.993,16.089,26.737,27.691,37.031c0.023,52.66,0.012,105.32,0.012,157.981c-42.778-36.242-81.293-77.925-111.54-125.25
		C91.979,449.88,71.814,403.309,60.354,354.582L60.354,354.582z"/>
	<path fill="#335BAA" d="M426.303,354.582c41.554,0,83.106,0,124.66,0c0.472,6.537-1.813,12.732-3.511,18.927
		c-12.072,42.65-30.904,83.307-55.016,120.492c-29.669,46.005-67.241,86.545-108.771,122.045
		c0.011-50.905-0.012-101.799,0.011-152.704c20.07-16.124,34.699-38.997,40.576-64.086
		C427.787,384.675,428.364,369.434,426.303,354.582L426.303,354.582z"/>
	<path fill="#FEFEFF" d="M230.761,389.964c12.484-1.685,25.1-3.016,37.195-6.678c11.696,10.388,23.345,20.847,35.04,31.248
		c-3.404,12.273-6.431,24.651-9.305,37.066c-10.789,1.767-21.459,4.558-32.296,5.817c-15.17-8.798-28.409-21.601-36.276-37.407
		c-0.836-2.05-2.368-4.192-1.649-6.501C225.378,405.512,227.51,397.525,230.761,389.964L230.761,389.964z"/>
	<path fill="#FEFEFF" d="M308.744,414.062c13.286-7.62,26.478-15.395,39.751-23.003c11.791,5.761,23.723,11.248,35.229,17.55
		c-1.508,9.317-2.887,18.657-4.217,28.009c-15.171,14.817-32.838,29.552-54.592,32.449c-8.575-5.854-17.303-11.473-25.854-17.35
		C302.231,439.149,305.011,426.477,308.744,414.062L308.744,414.062z"/>
	<path fill="#FEFEFF" d="M214.331,419.374c1.143,0,3.428-0.012,4.57-0.012c6.561,15.017,17.867,27.62,31.094,37.112
		c3.593,2.78,8.457,4.476,9.977,9.199C240.408,455.497,224.342,438.996,214.331,419.374L214.331,419.374z"/>
	<path fill="#FEFEFF" d="M381.734,441.965c1.778,0.848,3.568,1.695,5.37,2.543c-15.441,15.983-35.723,27.679-57.749,31.401
		c0.153-0.495,0.448-1.484,0.602-1.979C350.145,469.172,367.246,456.333,381.734,441.965L381.734,441.965z"/>
	<path fill="#335BAA" d="M262.963,494.307c2.026,3.486,3.781,7.126,5.606,10.73c3.969,0.553,7.939,1.153,11.908,1.742
		c-2.815,2.897-5.795,5.631-8.739,8.397c0.706,4.028,1.401,8.058,2.084,12.098c-3.533-1.897-7.079-3.77-10.6-5.666
		c-3.687,1.779-7.279,3.722-10.918,5.571c0.671-4.005,1.378-8.009,1.979-12.037c-3.003-2.686-5.854-5.536-8.669-8.397
		c3.934-0.648,7.938-0.931,11.813-1.85C259.711,501.609,261.09,497.817,262.963,494.307L262.963,494.307z"/>
	<path fill="#335BAA" d="M346.953,504.884c2.297-3.357,3.687-7.244,5.747-10.741c1.72,3.662,3.511,7.29,5.384,10.883
		c3.969,0.564,7.95,1.143,11.931,1.684c-2.803,2.945-5.678,5.807-8.669,8.563c0.707,3.97,1.402,7.938,2.062,11.932
		c-3.557-1.837-7.103-3.722-10.647-5.595c-3.676,1.802-7.29,3.71-10.907,5.63c0.742-4.063,1.461-8.126,2.026-12.214
		c-2.968-2.685-5.901-5.406-8.704-8.245C339.097,506.144,343.09,505.838,346.953,504.884L346.953,504.884z"/>
	<path fill="#335BAA" d="M307.708,529.041c2.085,3.345,3.521,7.043,5.571,10.4c3.733,1.437,7.892,1.259,11.79,2.061
		c-2.627,3.026-5.524,5.795-8.539,8.421c0.694,4.005,1.401,7.997,2.084,12.003c-3.604-1.803-7.16-3.687-10.706-5.584
		c-3.627,1.861-7.244,3.77-10.883,5.619c0.754-4.005,1.46-8.021,2.108-12.05c-3.003-2.673-5.877-5.488-8.645-8.397
		c3.958-0.577,7.927-1.131,11.896-1.731C304.198,536.225,305.965,532.633,307.708,529.041L307.708,529.041z"/>
	<path fill="#335BAA" d="M257.568,574.563c1.837-3.604,3.604-7.242,5.571-10.776c1.826,3.581,3.616,7.185,5.418,10.789
		c3.981,0.542,7.938,1.106,11.92,1.685c-2.792,2.921-5.725,5.712-8.739,8.397c0.706,4.052,1.413,8.08,2.073,12.144
		c-3.51-1.908-7.055-3.734-10.519-5.701c-3.698,1.755-7.302,3.699-10.942,5.56c0.601-3.875,1.225-7.738,1.991-11.578
		c-2.827-3.003-5.772-5.889-8.657-8.811C249.642,575.694,253.599,575.117,257.568,574.563L257.568,574.563z"/>
	<path fill="#335BAA" d="M352.489,563.786c2.014,3.51,3.78,7.15,5.605,10.765c3.958,0.566,7.915,1.131,11.885,1.697
		c-2.804,2.897-5.643,5.747-8.539,8.539c0.577,3.98,1.271,7.938,1.978,11.896c-3.58-1.778-7.113-3.651-10.6-5.583
		c-3.698,1.813-7.349,3.722-10.966,5.688c0.507-4.087,1.944-8.209,1.72-12.296c-2.626-2.886-5.7-5.312-8.314-8.21
		c4.004-0.812,8.268-0.753,12.131-2.131C349.226,570.771,350.687,567.189,352.489,563.786L352.489,563.786z"/>
</g>
</svg>
