<?xml version="1.0" encoding="utf-8"?>
<!-- Generator: Adobe Illustrator 12.0.0, SVG Export Plug-In  -->
<!DOCTYPE svg PUBLIC "-//W3C//DTD SVG 1.1//EN" "http://www.w3.org/Graphics/SVG/1.1/DTD/svg11.dtd" [
	<!ENTITY ns_flows "http://ns.adobe.com/Flows/1.0/">
	<!ENTITY ns_svg "http://www.w3.org/2000/svg">
	<!ENTITY ns_xlink "http://www.w3.org/1999/xlink">
]>
<svg  version="1.1" xmlns="&ns_svg;" xmlns:xlink="&ns_xlink;" xmlns:a="http://ns.adobe.com/AdobeSVGViewerExtensions/3.0/"
	 width="356" height="516" viewBox="0 0 356 516" enable-background="new 0 0 356 516" xml:space="preserve">
<defs>
</defs>
<rect opacity="0" fill="#FFFFFF" width="356" height="516"/>
<polygon fill="#202C90" points="347.4306641,8.3916016 347.4306641,400.6845703 176.6767578,508.3916016 7.6738281,401.5615234 
	9.4262695,8.3916016 347.4306641,8.3916016 "/>
<polygon fill="#D1C789" points="58.9038086,46.0463867 69.847168,46.0463867 69.847168,92.0185547 58.9038086,92.0185547 
	58.9038086,46.0463867 58.9038086,46.0463867 "/>
<polygon fill="#D1C789" points="229.6572266,46.0463867 240.5986328,46.0463867 240.5986328,92.0185547 229.6572266,92.0185547 
	229.6572266,46.0463867 229.6572266,46.0463867 "/>
<polygon fill="#D1C789" points="192.6972656,83.6972656 192.6972656,46.0463867 183.8632813,46.0463867 183.8632813,83.6972656 
	183.8632813,89.3911133 183.8632813,92.0185547 213.0166016,92.0185547 213.0166016,83.6972656 192.6972656,83.6972656 
	192.6972656,83.6972656 "/>
<polygon fill="#D1C789" points="118.6186523,46.4838867 85.9648438,46.4838867 85.9648438,54.8032227 97.8759766,54.8032227 
	97.8759766,92.0185547 106.7075195,92.0185547 106.7075195,54.8032227 118.6186523,54.8032227 118.6186523,46.4838867 
	118.6186523,46.4838867 "/>
<path fill="#D1C789" d="M157.8525391,92.0185547h10.0703125l-16.6396484-45.534668h-7.8798828l-16.2016602,45.534668h9.6328125
	l3.4135742-9.1953125h14.7128906L157.8525391,92.0185547L157.8525391,92.0185547L157.8525391,92.0185547z M142.8505859,75.8173828
	l5.3681641-14.4482422l4.5410156,14.4482422H142.8505859L142.8505859,75.8173828L142.8505859,75.8173828z"/>
<path fill="#D1C789" d="M286.1328125,92.0185547h10.0722656l-16.6396484-45.534668h-7.8798828l-16.1982422,45.534668h9.6308594
	l3.4140625-9.1953125h14.7138672L286.1328125,92.0185547L286.1328125,92.0185547L286.1328125,92.0185547z M271.1376953,75.8173828
	l5.3652344-14.4482422l4.5429688,14.4482422H271.1376953L271.1376953,75.8173828L271.1376953,75.8173828z"/>
<polygon fill="#159033" points="31.0991211,116.097168 109.9082031,116.097168 109.9082031,390.6132813 72.4736328,412.2851563 
	31.7573242,390.6132813 31.0991211,116.097168 31.0991211,116.097168 "/>
<polygon fill="#FF1100" points="245.8554688,116.097168 324.6640625,116.097168 324.6640625,390.6132813 287.2333984,412.2851563 
	246.5136719,390.6132813 245.8554688,116.097168 245.8554688,116.097168 "/>
<polygon fill="#FFFFFF" points="119.1020508,116.097168 237.3183594,116.097168 237.3183594,445.125 176.8994141,483.2138672 
	118.4458008,445.125 119.1020508,116.097168 119.1020508,116.097168 "/>
<polygon fill="#D1C789" points="177.8828125,409.8710938 185.9208984,425.2490234 202.2138672,427.5439453 191.1533203,439.5126953 
	192.9179688,456.1416016 177.8828125,448.7470703 162.8486328,456.1416016 165.3422852,439.2197266 153.5527344,427.5439453 
	170.6567383,426.0585938 177.8828125,409.8710938 177.8828125,409.8710938 "/>
<polygon fill="#CD7C1D" points="153.5527344,427.5439453 178.4477539,433.9609375 165.3422852,439.2197266 153.5527344,427.5439453 
	153.5527344,427.5439453 "/>
<polygon fill="#CD7C1D" points="162.8486328,456.1416016 178.4477539,433.9609375 177.8828125,448.7470703 162.8486328,456.1416016 
	162.8486328,456.1416016 "/>
<polygon fill="#CD7C1D" points="192.9179688,456.1416016 178.4477539,433.9609375 191.1533203,439.5126953 192.9179688,456.1416016 
	192.9179688,456.1416016 "/>
<polygon fill="#CD7C1D" points="202.2138672,427.5439453 178.7451172,433.7548828 185.9208984,425.2490234 202.2138672,427.5439453 
	202.2138672,427.5439453 "/>
<polygon fill="#CD7C1D" points="177.8515625,410.1328125 178.4477539,433.9609375 170.6567383,426.0585938 177.8515625,410.1328125 
	177.8515625,410.1328125 "/>
<polygon fill="#D1C789" points="177.8828125,340.9970703 185.9208984,356.375 202.2138672,358.6689453 191.1533203,370.6386719 
	192.9179688,387.2666016 177.8828125,379.8710938 162.8486328,387.2666016 165.3422852,370.34375 153.5527344,358.6689453 
	170.6567383,357.1845703 177.8828125,340.9970703 177.8828125,340.9970703 "/>
<polygon fill="#CD7C1D" points="153.5527344,358.6689453 178.4477539,365.0859375 165.3422852,370.34375 153.5527344,358.6689453 
	153.5527344,358.6689453 "/>
<polygon fill="#CD7C1D" points="162.8486328,387.2666016 178.4477539,365.0859375 177.8828125,379.8710938 162.8486328,387.2666016 
	162.8486328,387.2666016 "/>
<polygon fill="#CD7C1D" points="192.9179688,387.2666016 178.4477539,365.0859375 191.1533203,370.6386719 192.9179688,387.2666016 
	192.9179688,387.2666016 "/>
<polygon fill="#CD7C1D" points="202.2138672,358.6689453 178.7451172,364.8789063 185.9208984,356.375 202.2138672,358.6689453 
	202.2138672,358.6689453 "/>
<polygon fill="#CD7C1D" points="177.8515625,341.2568359 178.4477539,365.0859375 170.6567383,357.1845703 177.8515625,341.2568359 
	177.8515625,341.2568359 "/>
<polygon fill="#D1C789" points="70.503418,340.9970703 78.5410156,356.375 94.8339844,358.6689453 83.7739258,370.6386719 
	85.5395508,387.2666016 70.503418,379.8710938 55.4697266,387.2666016 57.9638672,370.34375 46.1738281,358.6689453 
	63.277832,357.1845703 70.503418,340.9970703 70.503418,340.9970703 "/>
<polygon fill="#CD7C1D" points="46.1738281,358.6689453 71.0688477,365.0859375 57.9638672,370.34375 46.1738281,358.6689453 
	46.1738281,358.6689453 "/>
<polygon fill="#CD7C1D" points="55.4697266,387.2666016 71.0688477,365.0859375 70.503418,379.8710938 55.4697266,387.2666016 
	55.4697266,387.2666016 "/>
<polygon fill="#CD7C1D" points="85.5395508,387.2666016 71.0688477,365.0859375 83.7739258,370.6386719 85.5395508,387.2666016 
	85.5395508,387.2666016 "/>
<polygon fill="#CD7C1D" points="94.8339844,358.6689453 71.3662109,364.8789063 78.5410156,356.375 94.8339844,358.6689453 
	94.8339844,358.6689453 "/>
<polygon fill="#CD7C1D" points="70.4726563,341.2568359 71.0688477,365.0859375 63.277832,357.1845703 70.4726563,341.2568359 
	70.4726563,341.2568359 "/>
<path fill="#FFFFFF" d="M81.8925781,240c0-53.5151367,43.3818359-96.8964844,96.8974609-96.8964844
	c53.5146484,0,96.8974609,43.3813477,96.8974609,96.8964844c0,53.515625-43.3828125,96.8974609-96.8974609,96.8974609
	C125.2744141,336.8974609,81.8925781,293.515625,81.8925781,240L81.8925781,240z"/>
<polygon fill="#D1C789" points="285.2597656,340.9970703 293.2988281,356.375 309.5898438,358.6689453 298.53125,370.6386719 
	300.296875,387.2666016 285.2597656,379.8710938 270.2255859,387.2666016 272.7207031,370.34375 260.9306641,358.6689453 
	278.0341797,357.1845703 285.2597656,340.9970703 285.2597656,340.9970703 "/>
<polygon fill="#CD7C1D" points="260.9306641,358.6689453 285.8251953,365.0859375 272.7207031,370.34375 260.9306641,358.6689453 
	260.9306641,358.6689453 "/>
<polygon fill="#CD7C1D" points="270.2255859,387.2666016 285.8251953,365.0859375 285.2597656,379.8710938 270.2255859,387.2666016 
	270.2255859,387.2666016 "/>
<polygon fill="#CD7C1D" points="300.296875,387.2666016 285.8251953,365.0859375 298.53125,370.6386719 300.296875,387.2666016 
	300.296875,387.2666016 "/>
<polygon fill="#CD7C1D" points="309.5898438,358.6689453 286.1230469,364.8789063 293.2988281,356.375 309.5898438,358.6689453 
	309.5898438,358.6689453 "/>
<polygon fill="#CD7C1D" points="285.2294922,341.2568359 285.8251953,365.0859375 278.0341797,357.1845703 285.2294922,341.2568359 
	285.2294922,341.2568359 "/>
<path fill="#159033" d="M134.9648438,204.3149414c0.6445313-0.4047852,1.296875-0.7963867,1.949707-1.1762695
	c8.8994141-5.1713867,18.6206055-8.7182617,28.8759766-9.9179688c7.59375-0.8774414,17.7944336-2.6445313,34.2075195,2.0175781
	c0,0,22.8242188,10.0126953,9.453125-9.4443359c-17.8701172-26.0380859-58.8745117-30.456543-82.9829102-15.4458008
	c-24.8881836,15.5053711-38.1650391,48.4868164-35.6557617,77.3286133
	c0.3764648,4.2954102,3.0126953,32.2451172,22.3535156,51.5830078c-8.5478516-8.5400391-9.5859375-37.5722656-9.034668-48.0126953
	C105.1733398,231.4472656,118.78125,214.3862305,134.9648438,204.3149414L134.9648438,204.3149414L134.9648438,204.3149414z"/>
<path fill="#FF1100" d="M230.6738281,220.6616211c0.0390625,0.7480469,0.0722656,1.4960938,0.0849609,2.2675781
	c0.25,10.2973633-1.3164063,20.5229492-5.2207031,30.0849609c-5.8945313,14.4995117-12.8613281,23.6108398-18.2480469,28.996582
	c0,0-21.8535156,16.5253906,3.7255859,12.8486328c31.2626953-4.4951172,55.0605469-36.9204102,53.5048828-65.2871094
	c-1.5839844-29.2680664-24.0947266-56.7915039-50.5849609-68.4985352
	c-3.9296875-1.7333984-29.6992188-12.8911133-55.9594727-5.2612305
	c11.6025391-3.3754883,37.5327148,9.6958008,46.4321289,15.2114258
	C221.2460938,181.4755859,229.6445313,201.621582,230.6738281,220.6616211L230.6738281,220.6616211L230.6738281,220.6616211z"/>
<path fill="#202C90" d="M167.5195313,295.0117188c-0.6699219-0.3652344-1.3227539-0.7353516-1.9755859-1.125
	c-16.7045898-9.8349609-31.2314453-31.9365234-22.7988281-20.3105469
	c4.4921875,6.1806641-12.6274414-19.6591797-14.9921875-30.8105469c0,0-1.7084961-26.1948242-12.8837891-3.6186523
	c-14.0053711,28.2944336,2.2924805,66.2475586,27.1982422,79.9125977
	c25.7060547,14.0966797,60.9648438,9.5039063,84.8818359-6.8085938c3.5595703-2.4189453,26.6396484-18.4238281,34.0292969-44.75
	c-3.2626953,11.6259766-28.0634766,26.765625-37.4443359,31.390625
	C205.7607422,307.6835938,184.2236328,304.171875,167.5195313,295.0117188L167.5195313,295.0117188L167.5195313,295.0117188z"/>
<polygon fill="#CD7C1D" points="139.0161133,253.109375 139.0161133,222.7382813 156.9887695,222.7382813 156.9887695,227.8876953 
	144.3310547,227.8876953 144.3310547,235.0761719 155.2973633,235.0761719 155.2973633,240.2250977 144.3310547,240.2250977 
	144.3310547,253.109375 139.0161133,253.109375 139.0161133,253.109375 "/>
<polygon fill="#CD7C1D" points="161.1494141,253.109375 161.1494141,222.7382813 166.4682617,222.7382813 166.4682617,253.109375 
	161.1494141,253.109375 161.1494141,253.109375 "/>
<path fill="#CD7C1D" d="M183.6230469,241.9458008v-5.159668h11.3652344v12.1708984
	c-1.1152344,1.2456055-2.7158203,2.3364258-4.8144531,3.2866211c-2.1015625,0.9379883-4.2373047,1.4130859-6.3984375,1.4130859
	c-2.7412109,0-5.1274414-0.6655273-7.1582031-2.0068359c-2.0375977-1.328125-3.5634766-3.237793-4.5976563-5.7294922
	c-1.0253906-2.4785156-1.5341797-5.1850586-1.5341797-8.1025391c0-3.1674805,0.5761719-5.9790039,1.7255859-8.4477539
	c1.1479492-2.46875,2.8173828-4.3535156,5.0214844-5.6694336c1.6865234-1.0092773,3.7792969-1.5068359,6.2724609-1.5068359
	c3.2587891,0,5.8007813,0.7817383,7.6269531,2.3608398c1.8310547,1.5776367,3.0009766,3.7475586,3.5341797,6.5361328
	l-5.2421875,1.1630859c-0.3681641-1.4956055-1.0683594-2.6699219-2.0839844-3.5366211
	c-1.0214844-0.8657227-2.2919922-1.2919922-3.8193359-1.2919922c-2.3134766,0-4.1474609,0.8540039-5.5126953,2.550293
	c-1.3598633,1.7089844-2.0385742,4.2363281-2.0385742,7.5922852c0,3.6191406,0.6865234,6.3354492,2.0766602,8.1386719
	c1.3818359,1.815918,3.1875,2.7163086,5.4365234,2.7163086c1.0986328,0,2.1992188-0.2475586,3.3193359-0.7587891
	c1.1005859-0.5102539,2.0664063-1.1269531,2.8720703-1.8388672v-3.8793945H183.6230469L183.6230469,241.9458008
	L183.6230469,241.9458008z"/>
<path fill="#CD7C1D" d="M216.5332031,241.9458008l5.1484375,1.875c-0.7929688,3.3227539-2.109375,5.7880859-3.9277344,7.4145508
	c-1.8222656,1.6137695-4.1367188,2.4213867-6.9501953,2.4213867c-3.4746094,0-6.3359375-1.3881836-8.5693359-4.140625
	c-2.2363281-2.7651367-3.3564453-6.5385742-3.3564453-11.331543c0-5.0664063,1.1279297-8.9921875,3.3818359-11.7919922
	c2.2460938-2.8007813,5.2089844-4.1987305,8.8740234-4.1987305c3.2041016,0,5.8056641,1.0908203,7.796875,3.2607422
	c1.1875,1.2944336,2.078125,3.144043,2.6708984,5.5527344l-5.2333984,1.4951172
	c-0.3095703-1.5766602-0.9619141-2.8120117-1.9375-3.7250977c-0.9814453-0.9008789-2.1689453-1.3520508-3.5595703-1.3520508
	c-1.9316406,0-3.4960938,0.7944336-4.6953125,2.4321289c-1.2119141,1.625-1.8134766,4.2460938-1.8134766,7.8779297
	c0,3.8544922,0.59375,6.5957031,1.7792969,8.2324219c1.1748047,1.637207,2.7177734,2.4550781,4.6289063,2.4550781
	c1.3857422,0,2.5839844-0.5209961,3.5927734-1.5654297C215.3583984,245.8251953,216.0917969,244.1894531,216.5332031,241.9458008
	L216.5332031,241.9458008L216.5332031,241.9458008z"/>
</svg>
