<?xml version="1.0" encoding="utf-8"?>
<!-- Generator: Adobe Illustrator 15.1.0, SVG Export Plug-In . SVG Version: 6.00 Build 0)  -->
<!DOCTYPE svg PUBLIC "-//W3C//DTD SVG 1.1//EN" "http://www.w3.org/Graphics/SVG/1.1/DTD/svg11.dtd">
<svg version="1.1" id="Layer_1" xmlns="http://www.w3.org/2000/svg" xmlns:xlink="http://www.w3.org/1999/xlink" x="0px" y="0px"
	 width="612px" height="792px" viewBox="0 0 612 792" enable-background="new 0 0 612 792" xml:space="preserve">
<g>
	<path fill="#F58729" d="M30.129,2.395h549.975c0.013,117.147,0,234.283,0,351.432c-0.096,30.463,0.19,60.954-0.138,91.415
		c-1.243,58.342-12.196,117.3-38.324,169.83c-20.25,41.375-50.099,77.963-86.467,106.225
		c-43.672,34.086-95.941,56.564-150.087,67.38c-45.448-9.476-89.501-26.703-128.25-52.449
		c-24.57-16.326-47.021-35.904-66.094-58.423c-25.541-29.944-44.942-64.92-57.754-102.081
		c-13.946-40.103-20.536-82.517-21.848-124.874c-0.219-2.912-0.547-5.812-1.012-8.683V2.395L30.129,2.395z"/>
	<path fill="#FBFCFA" d="M44.91,16.833c173.727-0.027,347.467-0.014,521.193-0.014c0,119.609,0,239.219,0,358.83
		c-0.423,36.451,1.449,73.026-2.611,109.327c-5.523,53.16-21.124,105.924-49.974,151.207
		c-26.074,41.347-62.937,75.557-105.403,99.605c-31.667,18.09-66.3,30.779-101.931,38.422c-4.075-0.028-7.972-1.669-11.937-2.461
		c-46.842-11.226-91.621-31.858-129.646-61.556c-28.699-22.396-53.255-50.151-71.782-81.503
		c-33.73-56.673-47.376-123.315-47.937-188.712C44.91,298.93,44.868,157.881,44.91,16.833L44.91,16.833z"/>
	<path fill="#2AAE92" d="M58.527,30.793c164.635-0.014,329.268-0.014,493.902,0c0,129.974,0,259.96,0,389.947
		c0.082,31.188-1.38,62.514-7.191,93.223c-8.777,48.715-27.811,96.051-58.219,135.36c-32.624,42.508-77.716,74.694-127.417,94.259
		c-17.638,6.851-35.769,12.88-54.391,16.23c-45.312-9.448-88.75-28.604-125.981-56.182c-32.131-23.859-59.175-54.555-78.537-89.598
		c-22.902-41.168-35.303-87.574-39.814-134.308c-3.022-29.574-2.27-59.326-2.366-89.01C58.527,270.736,58.5,150.771,58.527,30.793
		L58.527,30.793z"/>
	<path fill="#FBFCFA" d="M98.985,72.754c15.437-16.257,38.543-23.982,60.707-21.904c-6.836,3.459-10.965,10.378-11.471,17.966
		c-14.166,2.146-25.706,12.483-32.172,24.898c-9.435,18.089-12.074,39.951-6.071,59.559c3.527,11.471,10.952,22.136,21.767,27.728
		c10.433,5.401,22.725,5.988,34.073,3.678c12.374-2.338,24.063-7.301,35.166-13.126c1.094,5.853,4.17,11.048,8.368,15.218
		c5.004-4.293,2.83-10.775,2.707-16.394c0.833-5.838,7.63-6.945,12.237-8.559c0.958,6.577,2.202,14.698,9.722,16.804
		c2.188-5.374,0.615-11.252,2.051-16.708c3.336-6.768,11.375-8.75,18.021-10.746c0.314,6.932,1.272,14,4.963,20.03
		c1.477-8.423,2.16-17.939,8.409-24.434c2.789-3.117,7.137-3.486,11.034-3.841c-1.532,7.957-0.875,16.12,1.217,23.914
		c3.829-7.589,4.566-16.777,10.624-23.162c4.525-5.237,11.553-6.891,18.157-7.548c-3.978,7.93-6.139,17.241-2.844,25.828
		c4.116-6.713,4.553-15.642,10.87-20.92c3.132-2.844,7.589-2.652,11.525-2.816c-1.693,4.266-3.951,8.545-3.937,13.263
		c0.138,3.486,1.079,6.864,1.94,10.213c4.991-5.961,7.958-13.918,14.985-17.925c4.854-2.967,10.68-3.336,16.217-3.432
		c-4.608,6.563-7.575,14.26-7.356,22.355c4.595-5.21,9.529-10.338,15.711-13.688c5.223-2.639,11.32-1.654,16.79-0.41
		c-0.315,2.584-0.63,5.182-0.985,7.78c-3.212,2.297-6.794,4.512-8.627,8.162c-1.586,3.022-0.931,6.536-0.889,9.777
		c6.44-6.331,13.769-13.345,23.366-13.701c5.414-0.013,9.448,3.924,12.224,8.163c-6.603,2.667-10.87,8.532-13.563,14.89
		c7.178-2.256,14.055-6.549,21.849-5.962c7.287,0.274,12.976,5.456,17.967,10.229c-7.754,2.502-15.328,7.151-18.199,15.203
		c9.174-2.146,19.402-5.113,28.357-0.614c5.44,2.57,8.163,8.244,10.214,13.577c-6.263,2.502-15.137,1.983-18.034,9.366
		c8.039,0.219,16.092-0.068,24.118,0.479c-0.342,19.484,1.6,39.542-4.607,58.383c-3.624,10.542-7.533,21.069-12.758,30.941
		c-11.348,19.853-28.603,35.262-42.521,53.187c-6.55,8.574-12.825,18.021-14.385,28.931c-1.586,10.051,2.79,20.141,9.435,27.524
		c1.669,2.011,3.815,3.678,5.045,6.029c-16.585,17.829-41.305,25.268-64.972,27.046c4.895,9.037,15.613,11.73,25.063,12.604
		c0.382,4.157,0.86,8.368,0.259,12.538c-1.804,11.404-10.678,20.332-11.895,31.914c-0.89,6.59,0.793,13.125,3.035,19.278
		c30.313,5.51,59.422,18.349,83.403,37.764c4.883,3.705,8.697,9.065,14.78,10.938c0.041-8.49-2.57-16.652-5.332-24.569
		c-5.811-16.216-13.782-31.517-21.18-47.021c-1.695-2.994-1.258-6.699,0.874-9.339c7.959-10.678,15.999-21.603,26.514-29.957
		c-5.524,10.446-12.607,20.099-16.817,31.215c-1.97,4.581,0.409,9.422,1.462,13.946c5.497,19.415,19.416,35.275,24.037,55.007
		c2.666,10.513,2.242,21.492,0.643,32.131c-5.675-6.386-12.675-11.418-20.331-15.123c-15.615-7.711-32.814-12.648-50.303-13.017
		c-11.144-0.231-22.547,1.929-32.254,7.589c-19.676,11.745-44.983,14.138-66.245,5.318c-14.07-5.77-25.76-16.489-33.758-29.313
		c-7.52-11.91-12.305-25.392-15.163-39.146c-5.456-29.521-20.414-57.631-43.206-77.375c-11.841-10.009-27.401-17.788-43.289-14.957
		c-13.536,2.215-24.2,12.045-32.117,22.669c12.824-6.946,27.181-12.893,42.07-10.803c14.889,1.847,27.154,12.266,35.194,24.421
		c11.841,17.774,18.048,38.584,22.451,59.285c2.708,12.004,3.049,24.611,7.971,36.041c5.907,14.767,17.952,26.348,31.789,33.785
		c18.144,10.022,38.626,14.549,57.316,23.34c9.367,4.512,18.541,10.732,23.505,20.153c2.883,5.264,4.06,11.253,4.537,17.187
		c1.725,19.293,6.51,38.271,14.002,56.128c0.903,2.584,2.406,5.345,1.367,8.149c-2.022,1.816-4.485,3.021-6.877,4.265
		c-10.351,5.101-20.688,10.255-30.955,15.52c-12.265,6.233-27.141,5.346-39.515-0.123c-47.403-20.359-93.741-45.723-130.493-82.502
		c-29.191-28.728-50.999-64.81-63.114-103.912c-10.624-33.979-14.685-69.747-14.247-105.254c0.109-6.44-0.903-13.728,3.418-19.143
		c9.12-12.183,20.577-22.656,33.498-30.696c3.104-2.063,6.427,0.438,9.229,1.793c9.531,5.317,20.25,8.243,31.079,9.311
		c9.584,1.094,19.551,0.737,28.645,4.375c8.094,3.199,14.37,9.639,19.374,16.572c0.97,1.012,1.627,2.761,3.281,2.692
		c2.844-10.638-5.004-20.48-13.495-25.869c8.081-5.907,12.224-15.437,19.539-22.108c11.075-11.334,27.003-16.503,42.536-17.378
		c17.706-1.135,35.385,1.75,52.558,5.838c6.181,1.531,12.647,1.258,18.829-0.151c16.871-3.855,31.68-13.987,43.778-26.074
		c15.246-15.504,26.841-35.727,28.331-57.754c1.176-25.582-6.932-52.107-24.448-71.126c-15.326-16.763-37.9-25.595-60.337-26.566
		c-13.618-0.971-26.908,2.857-39.788,6.795c-37.846,11.635-75.611,28.029-116,26.634c-21.644-0.259-45.571-3.076-61.979-18.704
		c-16.736-16.367-21.207-40.923-22.136-63.388C73.294,116.849,81.266,90.83,98.985,72.754L98.985,72.754z"/>
	<path fill="#FBFCFA" d="M176.879,50.208c2.146,0.014,4.307-0.027,6.44,0.178c2.57,2.42,3.897,5.811,5.674,8.792
		c-2.051,0-4.102-0.015-6.153-0.015c-0.861-1.339-1.709-2.666-2.57-3.992c-0.848,1.34-1.696,2.666-2.53,4.007
		c-2.119,0-4.225,0-6.33,0.013C173.256,56.197,175.088,53.216,176.879,50.208L176.879,50.208z"/>
	<path fill="#FBFCFA" d="M414.841,63.183c4.662-1.462,10.268-0.765,13.795,2.857c6.537,6.563,8.122,16.312,8.588,25.186
		c0.301,10.843,0.109,22.602-5.989,32.022c-3.678,5.811-11.814,6.549-17.734,4.266c-6.18-2.708-8.887-9.585-10.377-15.71
		c-2.064-10.829-2.023-22.15,0.492-32.897C405.324,72.672,408.291,65.589,414.841,63.183L414.841,63.183z"/>
	<path fill="#FBFCFA" d="M445.359,63.238c3.116-0.028,6.233-0.042,9.365-0.068c-0.042,24.829,0.026,49.659-0.042,74.489
		c-3.103-0.902-6.207-1.833-9.311-2.748C445.359,111.025,445.399,87.125,445.359,63.238L445.359,63.238z"/>
	<path fill="#FBFCFA" d="M175.362,64.277c3.828-1.339,8.436-1.257,11.813,1.204c4.416,3.199,6.768,8.409,8.396,13.454
		c2.872,9.803,2.667,20.153,2.215,30.245c-0.793,8.436-2.42,17.446-8.067,24.091c-4.854,5.798-14.808,5.552-19.361-0.492
		c-6.631-8.641-7.52-20.059-7.958-30.545c0.055-9.667,0.643-19.648,4.567-28.618C168.689,69.76,171.356,65.959,175.362,64.277
		L175.362,64.277z"/>
	<path fill="#FBFCFA" d="M204.417,63.512c9.817,0,19.62-0.014,29.438,0c0,3.923,0,7.833,0,11.758c-3.651,0-7.288,0-10.938,0
		c0,17.734,0,35.468,0,53.201c-2.542,0.329-5.072,0.656-7.616,0.998c0.15-18.048-0.055-36.083,0.123-54.117
		c-3.678-0.055-7.342-0.082-11.006-0.108C204.417,71.333,204.417,67.422,204.417,63.512L204.417,63.512z"/>
	<path fill="#FBFCFA" d="M239.61,63.567c7.779-0.096,15.573-0.055,23.366-0.055c0,3.568,0,7.136,0,10.706
		c-5.592,0.013-11.17,0.013-16.762-0.042c-0.068,4.198-0.055,8.396-0.055,12.58c5.25,0,10.514,0,15.764,0c0,3.459,0,6.932,0,10.391
		c-5.25,0-10.515,0-15.764-0.013c0,5.332,0,10.678,0,16.011c5.811,0,11.622,0,17.446,0c0.014,3.158,0.027,6.317,0.055,9.461
		c-8.04,0.684-16.079,1.49-24.022,2.939C239.624,104.886,239.692,84.226,239.61,63.567L239.61,63.567z"/>
	<path fill="#FBFCFA" d="M290.87,63.525c7.547,0.247,15.369-0.929,22.696,1.354c6.646,3.254,9.216,11.088,10.133,17.938
		c0.792,9.066,1.054,18.705-2.816,27.168c-1.928,4.225-5.675,8.012-10.474,8.573c-6.44,0.944-12.989,0.67-19.47,1.203
		C290.773,101.016,290.911,82.271,290.87,63.525L290.87,63.525z"/>
	<path fill="#FBFCFA" d="M329.892,63.498c2.352,0.014,4.703,0.014,7.056,0.027c-0.083,4.416,0.396,10.268-4.662,12.21
		c-0.794-0.191-2.406-0.602-3.214-0.807c1.23-1.914,2.733-3.624,4.129-5.415l-3.309-0.177
		C329.892,67.395,329.892,65.439,329.892,63.498L329.892,63.498z"/>
	<path fill="#FBFCFA" d="M343.536,63.553c2.857-0.027,5.716-0.055,8.588-0.082c0.122,18.664-0.027,37.34,0.067,56.004
		c-2.884-0.137-5.77-0.288-8.64-0.465C343.552,100.524,343.578,82.039,343.536,63.553L343.536,63.553z"/>
	<path fill="#FBFCFA" d="M362.022,63.512c2.872,0,5.743,0,8.614,0.013c3.035,14.001,6.085,28.001,9.119,42.003
		c3.229-13.946,5.988-28.001,8.956-42.003c2.817-0.013,5.62,0,8.436,0c-4.36,19.689-8.872,39.337-13.413,58.998
		c-2.857-0.41-5.715-0.82-8.558-1.23C370.814,102.028,366.37,82.776,362.022,63.512L362.022,63.512z"/>
	<path fill="#FBFCFA" d="M466.865,141.775c0.164-26.088-0.013-52.175,0.097-78.277c7.739,0.328,15.724-0.93,23.284,1.245
		c6.357,3.459,7.083,11.771,7.506,18.239c0.165,9.626-0.491,21.098-8.736,27.537c2.544,4.17,4.54,8.696,5.359,13.55
		c1.846,10.678,3.527,21.384,5.292,32.063c-3.337-1.682-6.673-3.35-10.063-4.922c-1.642-10.597-2.38-21.357-4.635-31.844
		c-0.944-4.771-4.334-8.887-9.367-9.434c-0.122,11.827-0.026,23.667-0.055,35.495C472.65,144.208,469.751,143.005,466.865,141.775
		L466.865,141.775z"/>
	<path fill="#FBFCFA" d="M507.912,63.963c8.271-0.055,16.53-0.096,24.789,0.027c-0.042,3.869-0.055,7.739-0.055,11.608
		c-5.265-0.014-10.516-0.014-15.766,0c0.055,11.088-0.137,22.19,0.123,33.293c4.978,0.191,9.94,0.15,14.917,0.15
		c0,3.09,0,6.166,0,9.257c-5.018,0-10.036,0-15.04,0c0,12.004,0,24.022,0,36.028c4.717,2.584,9.216,5.551,13.631,8.613
		c0.042,3.528,0.042,7.056,0.042,10.583c-7.397-4.663-14.959-9.039-22.614-13.236C507.939,128.184,507.994,96.066,507.912,63.963
		L507.912,63.963z"/>
	<path fill="#2AAE92" d="M299.893,75.161c5.087,0.273,12.319-0.765,14.617,5.155c2.516,7.055,2.271,15.066,0.383,22.259
		c-1.942,6.317-9.612,6.058-14.89,5.073C299.688,96.832,300.017,85.99,299.893,75.161L299.893,75.161z"/>
	<path fill="#2AAE92" d="M416.153,75.093c4.677-3.049,9.776,1.299,11.145,5.825c2.803,8.683,2.624,18.17,0.901,27.058
		c-1.053,4.608-3.965,10.774-9.599,10.228c-3.869-1.053-6.084-4.977-7.247-8.545c-2.119-7.821-2.16-16.107-0.805-24.064
		C411.301,81.669,412.79,77.527,416.153,75.093L416.153,75.093z"/>
	<path fill="#2AAE92" d="M178.069,76.624c3.951-1.832,7.67,1.667,9.147,5.086c3.172,7.315,3.008,15.546,2.789,23.367
		c-0.506,6.358-1.162,13.618-6.043,18.28c-3.145,3.036-7.875,0.602-9.558-2.761c-4.648-8.451-4.266-18.609-3.623-27.934
		C171.492,86.947,172.409,79.632,178.069,76.624L178.069,76.624z"/>
	<path fill="#2AAE92" d="M475.547,76.186c4.403,0.575,11.418-1.791,13.25,3.843c1.736,6.002,1.818,13.098-1.354,18.663
		c-3.623,1.915-7.944,1.217-11.896,1.518C475.534,92.197,475.534,84.199,475.547,76.186L475.547,76.186z"/>
	<path fill="#FBFCFA" d="M444.66,145.549c24.913,22.998,43.411,54.008,47.746,87.971c4.636,34.496-4.28,69.321-18.498,100.604
		c-11.171,24.625-25.597,47.636-41.361,69.567c-5.277,7.22-12.195,14.041-21.111,16.354c-5.975,1.627-13.07-0.875-15.724-6.7
		c-4.73-9.885-1.135-21.397,4.047-30.354c4.978-9.284,13.469-15.778,20.236-23.654c26.39-28.685,46.105-64.836,49.892-104.063
		C474.043,217.084,462.518,178.978,444.66,145.549L444.66,145.549z"/>
	<path fill="#FBFCFA" d="M510.018,182.069c14.507,16.653,20.975,39.145,20.563,60.966c0.37,17.269-3.294,34.319-8.312,50.754
		c-0.985,3.349-2.271,6.604-3.788,9.749c3.267-16.394,6.959-32.829,7.178-49.646c-2.447,12.565-3.404,25.554-8.176,37.545
		c-1.859,4.895-6.262,9.188-11.472,10.132c-2.215,0.479-2.748-1.983-2.803-3.623c-0.301-7.971,2.625-15.56,4.47-23.189
		C514.816,244.403,514.215,212.805,510.018,182.069L510.018,182.069z"/>
	<path fill="#FBFCFA" d="M294.78,197.628c17.296-2.379,35.358,0.588,50.823,8.737c19.853,10.158,35.207,28.631,41.647,49.96
		c6.275,20.755,4.374,44.027-5.811,63.237c-8.547,16.653-22.902,30.231-39.98,37.874c-15.971,7.465-34.265,8.997-51.492,5.947
		c-21.275-4.17-40.759-16.858-53.023-34.77c-12.059-17.132-16.968-38.926-14.028-59.627c2.857-21.028,14.233-40.69,30.859-53.83
		C265.548,205.791,279.863,199.625,294.78,197.628L294.78,197.628z"/>
	<path fill="#F58729" d="M258.957,214.897c28.782-21.671,72.18-20.154,99.471,3.35c2.897,3.692,3.69,8.573,5.318,12.894
		c-35.222-12.278-74.777-14.383-110.107-1.381C255.307,224.81,255.963,219.258,258.957,214.897L258.957,214.897z"/>
	<path fill="#F58729" d="M228.467,256.517c4.663-14.808,13.768-27.975,25.541-38.051c-3.146,10.514-5.306,21.261-6.891,32.104
		C240.553,251.252,234.25,253.385,228.467,256.517L228.467,256.517z"/>
	<path fill="#F58729" d="M290.487,224.194c10.61-0.984,21.329-0.984,31.898,0.328c1.381,3.295,1.709,6.904,2.339,10.391
		c5.592,33.923,6.713,68.953-0.343,102.738c-11.471,1.23-23.065,1.134-34.523,0C281.955,300.338,283.131,261.494,290.487,224.194
		L290.487,224.194z"/>
	<path fill="#F58729" d="M253.037,232.768c11.212-4.13,22.861-6.974,34.729-8.395c-7.233,37.135-8.19,75.692-0.766,112.882
		c-11.417-1.559-22.67-4.335-33.403-8.532C246.707,297.275,246.146,264.269,253.037,232.768L253.037,232.768z"/>
	<path fill="#F58729" d="M327.034,337.405c7.683-37.094,5.523-75.61-1.463-112.636c13.331,1.818,26.471,4.99,39.132,9.543
		c8.08,30.613,8.217,63.497-0.123,94.069C352.384,332.579,339.845,335.806,327.034,337.405L327.034,337.405z"/>
	<path fill="#F58729" d="M364.155,223.305c9.147,9.134,16.106,20.387,20.154,32.679c-4.253-2.175-8.697-3.951-13.305-5.182
		C369.475,241.463,367,232.316,364.155,223.305L364.155,223.305z"/>
	<path fill="#2AAE92" d="M461.984,328.928c15.149-32.049,22.916-67.352,24.241-102.71c5.318,34.565-0.067,70.442-13.85,102.492
		c-11.923,27.933-29.684,53.022-49.892,75.542c-3.787,4.238-7.82,8.969-13.673,10.133c-2.284,0.573-5.429,0.341-6.372-2.175
		c-0.601-4.881,3.391-8.573,6.507-11.73C431.221,380.542,449.227,355.945,461.984,328.928L461.984,328.928z"/>
	<path fill="#FBFCFA" d="M305.335,252.606c1.9,0,3.788,0,5.689,0c0.013,18.896,0.013,37.805,0.013,56.701
		c-1.914-0.042-3.828-0.082-5.729-0.109C305.404,290.33,305.335,271.475,305.335,252.606L305.335,252.606z"/>
	<path fill="#F58729" d="M227.182,260.769c5.878-4.101,12.661-6.727,19.77-7.67c-1.9,18.226-1.723,36.643,0.329,54.855
		c-6.536-0.944-13.18-2.543-18.677-6.385c-1.531-0.766-1.818-2.502-2.16-3.992C223.982,285.434,224.378,272.814,227.182,260.769
		L227.182,260.769z"/>
	<path fill="#F58729" d="M371.526,253.632c4.948,1.682,10.362,3.268,13.973,7.274c3.444,11.485,3.28,23.927,1.203,35.672
		c-0.602,7.383-9.271,9.078-14.985,11.144C373.903,289.755,373.903,271.571,371.526,253.632L371.526,253.632z"/>
	<path fill="#FBFCFA" d="M257.098,255.724c5.798,0.014,11.595,0.014,17.391,0.014c-0.013,2.229-0.026,4.471-0.026,6.714
		c-4.088,0-8.19,0-12.279,0.013c-0.013,5.277-0.013,10.556,0,15.833c3.5,0,7.001,0,10.501,0.013
		c0.042,2.215,0.083,4.443,0.124,6.672c-3.542,0.028-7.083,0.041-10.625,0.068c-0.027,7.288-0.013,14.562,0,21.849
		c-1.709,0-3.39,0-5.086,0.014C257.098,289.851,257.098,272.787,257.098,255.724L257.098,255.724z"/>
	<path fill="#FBFCFA" d="M341.869,255.724c5.798,0.014,11.596,0.014,17.392,0.014c-0.014,2.229-0.026,4.484-0.026,6.727
		c-4.103-0.013-8.191-0.013-12.279,0c-0.014,5.277-0.014,10.556,0,15.819c3.5,0.014,7,0.027,10.515,0.027
		c0.041,2.215,0.082,4.416,0.137,6.631c-3.555,0.055-7.096,0.082-10.651,0.123c-0.027,7.274-0.014,14.548,0,21.835
		c-1.694,0-3.391,0.014-5.086,0.014C341.869,289.851,341.869,272.787,341.869,255.724L341.869,255.724z"/>
	<path fill="#F58729" d="M255.074,344.078c-12.634-10.009-21.781-24.023-26.785-39.282c6.029,3.077,12.538,5.195,19.305,5.77
		C249.222,321.914,251.656,333.126,255.074,344.078L255.074,344.078z"/>
	<path fill="#FBFCFA" d="M483.738,337.583c3.952-11.061,7.861-22.164,10.855-33.539c7.466,30.86,10.584,63.961,1.272,94.78
		c-3.555,11.32-8.724,22.22-15.792,31.775C485.543,400.054,491.396,368.278,483.738,337.583L483.738,337.583z"/>
	<path fill="#F58729" d="M371.184,310.524c4.676-1.094,9.16-2.872,13.357-5.182c-4.155,12.155-10.787,23.517-19.921,32.624
		C367.26,328.928,369.747,319.835,371.184,310.524L371.184,310.524z"/>
	<path fill="#F58729" d="M254.335,331.977c35.071,12.757,74.394,11.84,109.423-0.574c-1.285,3.664-2.063,7.602-4.102,10.965
		c-26.895,24.501-71.017,26.539-100.194,4.881C256.975,342.463,256.018,337.063,254.335,331.977L254.335,331.977z"/>
	<path fill="#2AAE92" d="M255.785,392.26c7.124-3.542,15.368-3.459,23.134-3.09c17.433,0.985,35.74,7.056,47.445,20.605
		c-7.056,0.507-14.261,0.778-20.906,3.444c-5.852,2.012-10.693,6.004-15.109,10.215c0.165-3.159,0.247-6.331,0.247-9.489
		c-4.539,0.971-6.071,5.169-6.618,9.229c-5.045-0.068-10.104-0.055-15.149-0.109c0.519-6.946,1.955-15.149,8.709-18.772
		c8.915-4.239,18.841-0.849,27.851,1.298c-8.915-5.946-19.702-9.611-30.49-8.71c-4.786,0.425-10.35,2.64-11.923,7.63
		c-1.435,3.35-2.229,7.657-5.974,9.284c-3.118,1.956-8.505,1.381-9.421-2.748C246.022,403.965,249.031,395.542,255.785,392.26
		L255.785,392.26z"/>
	<path fill="#FBFCFA" d="M399.843,515.808c4.428-0.834,8.298,2.325,10.896,5.551c6.521,8.013,10.801,17.515,16.175,26.279
		c1.983,3.623,4.73,7.233,4.484,11.595c-4.868-1.148-8.6-4.621-12.388-7.656c-6.289-5.142-12.647-10.214-18.609-15.725
		c-3.403-3.117-9.133-3.021-11.635-7.109C388.206,522.535,394.7,517.871,399.843,515.808L399.843,515.808z"/>
	<path fill="#FBFCFA" d="M413.487,599.266c3.869-1.161,8.381-2.05,12.06,0.191c3.841,2.516,5.264,7.207,6.043,11.513
		c2.693,15.643,6.55,31.106,11.787,46.105c1.694,5.44,2.022,12.88-3.296,16.435c-4.211,3.034-8.217,6.397-12.661,9.093
		c-2.79,0.942-4.253-2.558-4.936-4.636c-5.551-18.021-13.919-35.153-24.598-50.699c-3.473-5.414-7.192-12.633-3.993-18.963
		C398.692,602.574,406.938,602.043,413.487,599.266L413.487,599.266z"/>
</g>
</svg>
