<?xml version="1.0" encoding="utf-8" standalone="no"?>

<!DOCTYPE svg PUBLIC "-//W3C//DTD SVG 1.1//EN" "http://www.w3.org/Graphics/SVG/1.1/DTD/svg11.dtd">
<svg version="1.1" id="Layer_1" xmlns="http://www.w3.org/2000/svg" xmlns:xlink="http://www.w3.org/1999/xlink" x="0px" y="0px"
	 width="200px" height="226.667px" viewBox="0 0 200 226.667" enable-background="new 0 0 200 226.667" xml:space="preserve">
<path fill="#FFFFFF" d="M99.855,0.088h69.69c1.401,11.521,8.279,25.556,19.768,29.292c0,0,5.643,2.055,8.037,2.055l2.324,45.059
	c-3.556,0.63-8.104,2.347-8.104,2.347c-2.565,1.045-4.411,2.77-5.814,5.438c-3.556,6.64-2.972,17.15-1.436,22.162
	c4.719,15.583,8.96,35.88-0.309,54.782c-9.437,19.35-39.222,36.1-56.116,44.362c-9.097,4.444-16.277,10.292-19.764,13.458
	l-8.275,7.494l-8.312-7.494c-3.486-3.166-10.669-9.014-19.766-13.458c-16.892-8.263-46.677-25.013-56.118-44.362
	c-9.231-18.902-5.026-39.199-0.307-54.782c1.54-5.011,2.12-15.521-1.437-22.162c-1.436-2.667-3.246-4.392-5.811-5.438
	c0,0-4.548-1.717-8.105-2.347l2.324-45.059c2.395,0,8.035-2.055,8.035-2.055c11.492-3.737,18.364-17.771,19.767-29.292H99.855"/>
<path d="M33.342,3.661l-0.991,4.423c-0.037,0.204-4.893,20.634-22.573,25.189l-4.034,1.033L3.657,73.707l4.241,1.282
	c4.034,1.221,7.146,3.783,9.164,7.605c4.104,7.612,3.457,19.134,1.71,24.887c-4.512,14.949-8.616,34.393,0.07,52.172
	c8.993,18.387,38.027,34.664,54.508,42.726c12.894,6.311,22.469,15.355,22.469,15.355l4.034,3.438l4.004-3.438
	c0,0,9.537-9.045,22.465-15.355c16.484-8.062,45.519-24.339,54.512-42.726c8.686-17.779,4.581-37.223,0.066-52.172
	c-1.744-5.752-2.358-17.274,1.71-24.887c2.055-3.822,5.129-6.384,9.164-7.605l4.24-1.282l-2.084-39.401l-4.036-1.033
	c-17.681-4.555-22.537-24.985-22.569-25.189l-0.991-4.423H33.342"/>
<path fill="#FDB913" d="M38.435,9.929l-0.548,1.769c-1.983,6.385-8.308,21.78-24.482,27.04l-1.643,0.537l-1.573,29.794l1.643,0.676
	c4.648,1.9,8.275,5.232,10.77,9.885c5.232,9.787,4.171,23.103,2.188,29.666c-4.205,13.856-8.035,31.784-0.308,47.599
	c5.985,12.21,24.792,26.732,51.64,39.857c10.052,4.905,18.09,11.411,22.021,15.004l1.709,1.523l1.644-1.523
	c3.967-3.593,12.001-10.099,22.057-15.004c26.843-13.125,45.651-27.647,51.637-39.857c7.727-15.815,3.896-33.743-0.309-47.599
	c-1.982-6.563-3.045-19.878,2.188-29.666c2.498-4.653,6.12-7.985,10.773-9.885l1.64-0.676l-1.573-29.794l-1.641-0.537
	c-16.176-5.26-22.5-20.655-24.484-27.04l-0.548-1.769H38.435"/>
<path d="M42.846,16.031l-0.274,0.76c-2.801,7.332-9.674,20.542-24.244,26.618l-0.685,0.284l-1.128,21.486l0.618,0.359
	c4.582,2.542,8.242,6.313,10.874,11.213c6.565,12.31,4.581,27.83,2.634,34.316c-3.9,12.782-7.457,29.237-0.684,43.156
	c5.3,10.84,23.56,24.686,48.833,37.041c8.72,4.262,15.867,9.552,20.311,13.238l0.751,0.627l0.718-0.627
	c4.448-3.687,11.595-8.977,20.314-13.238c25.271-12.355,43.53-26.201,48.8-37.041c6.804-13.919,3.246-30.374-0.65-43.156
	c-1.95-6.486-3.935-22.006,2.632-34.316c2.635-4.9,6.294-8.671,10.876-11.213l0.615-0.359l-1.129-21.486l-0.686-0.284
	c-14.567-6.076-21.439-19.286-24.243-26.618l-0.275-0.76H42.846"/>
<path fill="#FFFFFF" d="M155.219,18.39H44.456c-3.046,7.69-10.123,20.57-24.522,26.899l-0.989,18.558
	c4.648,2.757,8.412,6.722,11.114,11.799c6.973,12.988,4.889,29.3,2.839,36.109c-3.764,12.369-7.25,28.248-0.788,41.424
	c5.063,10.388,22.912,23.832,47.705,35.959c8.479,4.135,15.423,9.198,20.004,12.925c4.582-3.727,11.558-8.79,20.041-12.925
	c24.793-12.127,42.643-25.571,47.705-35.959c6.463-13.177,2.976-29.056-0.789-41.424c-2.05-6.81-4.137-23.121,2.84-36.109
	c2.701-5.077,6.429-9.042,11.114-11.799l-0.991-18.558C165.34,38.96,158.261,26.081,155.219,18.39"/>
<path fill="#DA2128" d="M88.194,70.387c1.058,0.685,3.042,1.962,3.042,1.962l0.614-2.718c0,0,3.864,3.846,4.856,4.212
	c0.992,0.37,11.321-2.322,16.106-1.349c4.789,0.977,6.74,5.045,6.74,5.045s-17.717,5.934-24.112,8.324
	c-7.42,2.784-2.564,13.333,3.593,16.525c6.122,3.197,14.397-10.358,16.892-14.202c2.29-3.551,5.336-8.452,7.594-12.158V18.39H76.188
	v55.424c3.763-2.158,8.312-4.668,8.312-4.668C85.251,68.684,86.003,68.995,88.194,70.387 M85.525,57.467
	c3.967-0.237,4.035-1.272,4.035-4.613V37.792c0-3.289-0.067-4.37-4.035-4.657v-3.86h26.913l4.412,9.694l-3.282,1.605
	c-3.113-4.282-6.396-6.97-11.87-6.97c-4.034,0-3.793,1.179-3.793,4.801v3.765h1.402c1.333,0,2.973,0.099,3.693-1.171
	c0.682-1.129,0.785-2.593,0.956-3.906h3.49V52.29h-3.49c-0.548-4.61-0.888-5.738-6.051-5.505v6.069c0,0.94-0.034,2.633,0.548,3.436
	c0.681,0.894,2.495,1.129,3.553,1.177h0.515v3.857H85.525V57.467z"/>
<path fill="#DA2128" d="M115.722,151.725l4.171,2.45l-3.283,3.009l5.607,1.748l-8.889,5.318l2.256,7.178
	c0,0,5.027,0.347,6.566-0.629c0.548-0.351,0.992-0.615,1.366-0.821v-15.355l-3.421-3.78L115.722,151.725"/>
<polyline fill="#DA2128" points="118.594,119.064 123.52,119.064 123.52,117.187 119.722,117.187 118.594,119.064 "/>
<path fill="#DA2128" d="M82.447,170.829c0.821-0.664,7.08-8.766,7.08-8.766l-6.191-15.515l-1.914-1.68l0.751,4.637l-3.59,2.109
	l0.548,5.858c0,0-1.299-2.028-2.942-4.596v17.334C78.309,171.428,81.762,171.428,82.447,170.829"/>
<path fill="#DA2128" d="M117.054,176.522c-0.787,0-1.401-1.29-2.087-1.29c-0.682,0-8.104-0.037-9.881,0
	c-1.813,0.026-2.976,2.354-2.976,2.354s0-6.393,1.984-6.393c1.059,0,6.018-0.012,6.018-0.012l-7.487-19.985l-5.611-0.387
	l4.345,2.516l-4.208,2.703l7.079,2.368l-9.437,5.083l-5.371,7.757c0,0,6.566,0.071,8.517,0.061c1.813-0.011,2.29,6.226,2.29,6.226
	s-2.771-2.238-3.589-2.238c-0.788,0-11.492-0.213-12.483-0.213c-0.992,0-1.267,1.317-2.429,1.317c-0.581,0-3.042,0-5.54,0v10.928
	c1.198,0.611,2.394,1.222,3.626,1.822c8.479,4.135,15.423,9.198,20.004,12.925c4.582-3.727,11.558-8.79,20.041-12.925
	c1.229-0.606,2.461-1.214,3.657-1.829v-10.788C120.611,176.522,117.498,176.522,117.054,176.522"/>
<path fill="#DA2128" d="M47.088,131.306c-1.64-0.925-4.071-1.122-4.479-1.161c-1.573,0.901-3.764,2.584-4.822,3.446
	c-0.104,0.413-0.651,2.911-0.343,4.862c1.061,0.42,3.66,1.151,4.173,1.291c1.3-1.051,4.068-3.009,5.504-3.85
	C47.121,135.34,47.054,132.671,47.088,131.306"/>
<path fill="#DA2128" d="M36.932,139.819c-1.402,1.272-2.464,3.53-2.634,3.903c0.41,1.924,1.128,4.022,1.747,5.461
	c0.34,0.231,2.735,1.703,4.648,2.033c0.755-0.9,2.258-3.156,2.532-3.603c-0.582-1.576-1.607-4.807-1.95-6.444
	C40.726,141.011,38.231,140.263,36.932,139.819"/>
<path fill="#DA2128" d="M37.272,132.274c0.719-0.573,3.32-2.435,4.208-2.958c0.101-0.351,0.274-1.015,0.374-1.289
	c-2.083,0.807-4.204,2.278-5.81,4.182C36.418,132.195,37.069,132.229,37.272,132.274"/>
<path fill="#DA2128" d="M33.205,144.303c-0.24-0.115-0.547-0.233-0.991-0.578c0.203,2.473,0.855,4.613,2.12,6.704
	c0.101-0.381,0.271-0.986,0.374-1.162C34.367,148.619,33.409,145.399,33.205,144.303"/>
<path fill="#DA2128" d="M36.044,138.592v0.006v-0.045c-0.037-0.273-0.411-2.078,0.237-5.108l-1.195-0.041
	c-1.644,2.395-2.839,5.4-2.909,8.73l1.028,0.744C34.504,140.056,35.836,138.78,36.044,138.592"/>
<path fill="#DA2128" d="M35.563,150.668c2.224,1.33,3.66,1.523,4.789,1.877c0.411,0.982,2.565,3.474,3.212,3.96l-0.922,0.717
	c-3.146-0.995-6.361-3.694-7.454-5.544L35.563,150.668"/>
<path fill="#DA2128" d="M57.824,133.431c-1.162-1.002-3.108-2.426-4.786-3.414c-0.443,0.043-2.908,0.293-4.548,1.223
	c0.033,1.376,0,4.098,0,4.655c1.436,0.841,4.204,2.799,5.506,3.85c0.512-0.14,3.042-0.791,4.138-1.211
	C58.271,136.423,57.928,133.844,57.824,133.431"/>
<path fill="#DA2128" d="M58.783,139.789c-1.299,0.441-3.897,1.223-4.445,1.381c-0.377,1.638-1.369,4.868-1.95,6.444
	c0.273,0.446,1.846,2.865,2.598,3.764c1.95-0.334,4.275-1.737,4.619-1.958c0.615-1.449,1.402-3.762,1.813-5.687
	C61.244,143.361,60.151,141.064,58.783,139.789"/>
<path fill="#DA2128" d="M58.442,132.224c0.374-0.023,0.854-0.033,1.128-0.023c-1.54-1.789-3.387-3.205-5.748-4.146
	c0.07,0.274,0.274,0.851,0.345,1.179C54.953,129.787,57.724,131.648,58.442,132.224"/>
<path fill="#DA2128" d="M47.806,136.984c-0.648,0.391-3.454,2.085-5.3,3.72c0.581,2.719,1.743,5.824,1.913,6.259
	c0.822,0.12,2.018,0.22,3.183,0.253h0.411c1.162-0.033,2.358-0.133,3.179-0.253c0.17-0.435,1.332-3.54,1.88-6.259
	C51.258,139.069,48.457,137.375,47.806,136.984"/>
<path fill="#DA2128" d="M47.806,148.533c-1.369-0.03-2.565-0.084-3.316-0.168c-0.344,0.474-1.88,2.701-2.702,3.8
	c0.822,1.758,2.702,3.368,2.939,3.58c0.821,0.09,1.884,0.158,3.045,0.158c1.162,0,2.291-0.147,3.146-0.23
	c0.24-0.218,1.983-1.878,2.905-3.508c-0.854-1.099-2.358-3.326-2.702-3.8C50.371,148.449,49.175,148.502,47.806,148.533"/>
<path fill="#DA2128" d="M47.806,129.94c0.273-0.153,2.05-0.86,4.926-1.165c-0.104-0.347-0.274-0.999-0.344-1.246
	c-1.096-0.376-2.939-0.686-4.582-0.686c-1.677,0-3.18,0.236-4.652,0.703c-0.1,0.248-0.27,0.888-0.374,1.215
	C45.448,128.929,47.498,129.787,47.806,129.94"/>
<path fill="#DA2128" d="M60.87,149.34c0.067,0.179,0.308,0.657,0.411,1.042c1.059-1.864,1.947-4.179,2.121-6.763l-0.959,0.651
	C62.169,145.191,61.28,148.365,60.87,149.34"/>
<path fill="#DA2128" d="M59.33,133.39c0.615,3.033,0.274,4.89,0.241,5.163h-0.037v0.013l0.037,0.008v0.024v-0.006
	c0.203,0.188,1.536,1.487,2.835,4.312l1.028-0.73c-0.069-3.3-1.231-6.418-2.942-8.823L59.33,133.39"/>
<path fill="#DA2128" d="M47.806,157.009c-1.299-0.018-2.051-0.075-2.632-0.089c-0.344,0.194-0.822,0.568-1.062,0.742
	c1.062,0.207,2.325,0.441,3.694,0.441s2.531-0.142,3.797-0.462l-0.925-0.722C50.167,156.927,49.001,156.992,47.806,157.009"/>
<path fill="#DA2128" d="M55.226,152.505c-0.1,0.234-0.888,1.794-3.146,3.938l0.925,0.771c3.009-1.159,5.574-2.926,7.454-5.576
	l-0.378-0.988C57.38,152.183,55.5,152.458,55.226,152.505"/>
<path d="M129.777,69.535c-2.122-0.041-4.037,2.822-5.271,4.826c-0.307,0.515-0.646,1.073-0.987,1.664
	c-2.258,3.707-5.304,8.608-7.594,12.158c-2.495,3.844-10.771,17.399-16.892,14.202c-6.157-3.191-11.014-13.74-3.593-16.523
	c6.396-2.387,24.112-8.324,24.112-8.324s-1.951-4.07-6.74-5.045c-4.785-0.973-15.114,1.72-16.106,1.349
	c-0.992-0.366-4.856-4.213-4.856-4.213l-0.614,2.722c0,0-1.984-1.282-3.042-1.962c-2.191-1.396-2.943-1.706-3.694-1.245
	c0,0-4.548,2.511-8.312,4.667c-2.395,1.362-4.479,2.58-4.959,2.942c-1.196,0.925-1.366,2.325-1.366,4.325
	c0,1.995,0.07,23.159,0.07,25.156c0,1.993-0.173,2.787-1.028,5.803c-0.855,3.024-2.154,6.819-2.292,8.285
	c-0.1,1.457,6.74,13.185,6.396,14.154c-0.377,0.953-2.292,4.001-2.292,4.001s-3.008-4.897-4.274-5.825
	c-3.968-2.966-6.055-11.014-6.395-11.047c-0.788-0.087-1.266,3.587-2.258,2.933c-1.536-1-4.034-2.169-6.051-0.996
	c-1.403,0.824-2.635,1.463-3.283,1.957c9.094,0.148,16.414,7.55,16.414,16.675c0,3.775-1.266,7.27-3.387,10.063
	c1.299-0.288,5.096-1.354,6.019-4.045c1.095-3.257,0.036-6.075,1.028-6.015c0.614,0.043,4.719,6.211,7.658,10.704
	c1.643,2.567,2.942,4.596,2.942,4.596l-0.548-5.858l3.59-2.111l-0.751-4.635l1.917,1.68l6.188,15.515c0,0-6.258,8.102-7.08,8.766
	c-0.685,0.6-4.138,0.6-6.258-0.617l-0.718-0.479c-2.117-1.867,0.207,1.933-2.872,1.933c-3.08,0-3.213,0.13-4.138,1.76
	c-1.232,2.072-2.291,4.646-2.291,4.646s2.838-1.681,3.897-1.681c0.581,0,3.385,0,6.121,0c2.498,0,4.959,0,5.54,0
	c1.162,0,1.437-1.321,2.429-1.321c0.991,0,11.695,0.217,12.483,0.217c0.821,0,3.589,2.238,3.589,2.238s-0.477-6.236-2.29-6.226
	c-1.951,0.007-8.517-0.061-8.517-0.061l5.371-7.757l9.437-5.083l-7.079-2.368l4.208-2.703l-4.341-2.516l5.606,0.387l7.49,19.985
	c0,0-4.959,0.012-6.021,0.012c-1.984,0-1.984,6.393-1.984,6.393s1.166-2.328,2.976-2.354c1.78-0.037,9.199,0,9.885,0
	c0.682,0,1.299,1.29,2.083,1.29c0.444,0,3.558,0,6.466,0c2.323,0,4.478,0,4.89,0c0.955,0,4.033,1.637,4.033,1.637
	s-1.64-4.347-2.563-5.676c-0.649-0.951-2.666-0.708-4.412-0.715c-0.511-0.006-0.819,0.134-0.819-0.797
	c0-0.814,1.438-2.446-1.128-0.993c-0.377,0.206-0.821,0.471-1.369,0.821c-1.539,0.976-6.566,0.629-6.566,0.629l-2.256-7.178
	l8.889-5.318l-5.607-1.748l3.283-3.009l-4.171-2.45l4.378-0.883l20.449,22.595l6.908-17.273h12.413L123.52,127.86
	c0,0,6.698,0,8.31,0c1.128,0,1.572,0,1.742-0.469c0.273-0.681,3.146-8.327,3.146-8.327h-18.123l1.128-1.884h15.525
	c1.163,0,2.085,0.013,2.905-0.331l5.098-7.619h-18.294l1.092-1.884h15.559c1.303,0,2.258,0.024,3.183-0.45l4.992-7.496h-18.467
	l1.096-1.88h15.557c1.438,0,2.499,0.026,3.492-0.623l4.888-7.328h-18.671l1.092-1.88h15.563c1.606,0,2.77,0.033,3.83-0.905
	l4.72-7.043h-18.843l1.093-1.888h15.559c1.883,0,3.146,0.049,4.411-1.467l4.585-6.854C169.685,69.535,131.829,69.567,129.777,69.535
	"/>
<path fill="#FFFFFF" d="M90.177,78.919c0,1.319-1.095,2.389-2.394,2.389c-1.336,0-2.394-1.07-2.394-2.389
	c0-1.322,1.058-2.384,2.394-2.384C89.082,76.535,90.177,77.597,90.177,78.919 M87.783,77.608c-0.718,0-1.299,0.589-1.299,1.312
	c0,0.724,0.581,1.312,1.299,1.312s1.299-0.588,1.299-1.312C89.082,78.197,88.501,77.608,87.783,77.608z"/>
<path fill="#FFFFFF" d="M92.535,77.55c0,0,0.308,0.381,0.411,0.89c0.067,0.401-0.103,0.942-0.103,0.942l6.669-1.562
	c0,0-0.615-1.049-1.54-1.225C97.018,76.422,92.535,77.55,92.535,77.55"/>
<path d="M50.611,29.275h16.995v3.86l-0.478,0.052c-3.727,0.141-3.934,0.845-3.934,4.422v11.952c0,3.668,0.341,6.677-2.668,9.407
	c-2.702,2.311-6.873,3.156-10.325,3.156c-5.848,0-12.414-2.875-12.414-9.6c0-2.823,1.64-5.317,4.752-5.317
	c2.054,0,3.523,1.548,3.523,3.625c0,2.397-1.644,2.913-1.644,3.908c0,0.698,0.685,1.359,1.232,1.686
	c1.025,0.708,2.361,0.94,3.623,0.94c1.644,0,3.523-0.657,4.516-2.021c1.025-1.455,1.062-3.622,1.062-5.362V37.563
	c0-3.11-0.103-4.096-3.593-4.376l-0.647-0.052V29.275"/>
<path d="M159.525,52.995c1.233,3.012,1.338,3.813,4.583,4.421l0.515,0.049v3.857H147.49v-3.857c0.993-0.143,3.898-0.049,3.898-1.505
	c0-0.658-0.479-1.882-0.652-2.541l-1.262-3.482h-10.123l-1.335,3.482c-0.236,0.611-0.547,1.549-0.547,2.17
	c0,1.641,2.601,1.641,3.729,1.827l0.444,0.049v3.857H127.11v-3.857c4.137-0.424,5.024-3.01,6.429-6.35l9.162-21.839h7.284
	L159.525,52.995 M147.9,45.844l-3.489-9.132l-3.59,9.132H147.9z"/>
<path d="M102.521,57.467h-0.515c-1.058-0.048-2.872-0.284-3.553-1.177c-0.585-0.803-0.548-2.496-0.548-3.436v-6.069
	c5.163-0.232,5.503,0.895,6.051,5.505h3.49V37.093h-3.49c-0.171,1.313-0.274,2.777-0.959,3.906c-0.717,1.271-2.357,1.171-3.69,1.171
	h-1.402v-3.765c0-3.622-0.24-4.801,3.793-4.801c5.474,0,8.756,2.688,11.87,6.97l3.282-1.605l-4.412-9.694H85.525v3.86
	c3.967,0.288,4.035,1.368,4.035,4.657v15.062c0,3.341-0.067,4.376-4.035,4.613v3.857h16.996V57.467"/>
</svg>
