<?xml version="1.0" encoding="utf-8"?>
<!-- Generator: Adobe Illustrator 13.0.0, SVG Export Plug-In  -->
<!DOCTYPE svg PUBLIC "-//W3C//DTD SVG 1.1//EN" "http://www.w3.org/Graphics/SVG/1.1/DTD/svg11.dtd" [
	<!ENTITY ns_flows "http://ns.adobe.com/Flows/1.0/">
]>
<svg version="1.1"
	 xmlns="http://www.w3.org/2000/svg" xmlns:xlink="http://www.w3.org/1999/xlink" xmlns:a="http://ns.adobe.com/AdobeSVGViewerExtensions/3.0/"
	 x="0px" y="0px" width="300px" height="404px" viewBox="0 0 300 404" enable-background="new 0 0 300 404" xml:space="preserve">
<defs>
</defs>
<path fill-rule="evenodd" clip-rule="evenodd" fill="#0E51A0" d="M298.853,66.431c-0.335-0.248-33.839-25.086-69.537-41.101
	C193.63,9.332,150.996,0.211,150.568,0.121L149.998,0l-0.572,0.121c-0.427,0.091-43.04,9.211-78.729,25.209
	C35.001,41.345,1.483,66.183,1.15,66.431L0,67.287v132.718c0,91.44,68.189,184.639,148.903,203.525
	c-0.204-0.058,0.21,0.078,0.21,0.078l0.756,0.238l1.288-0.327l-0.057,0.011C231.814,384.649,300,291.445,300,200.005V67.291
	L298.853,66.431L298.853,66.431z"/>
<path fill-rule="evenodd" clip-rule="evenodd" fill="#957948" d="M72.961,30.563c32.912-14.755,71.891-23.589,77.037-24.721
	c5.147,1.131,44.144,9.966,77.051,24.721c31.582,14.167,61.383,35.327,67.334,39.644c0,2.871,0,129.799,0,129.799
	c0,88.906-66.098,179.484-144.374,197.903C71.609,379.323,5.617,288.839,5.617,200.005c0,0,0-126.927,0-129.799
	C11.569,65.889,41.382,44.729,72.961,30.563L72.961,30.563z"/>
<path fill-rule="evenodd" clip-rule="evenodd" fill="#FFFFFF" d="M149.505,11.047c-0.431,0.106-43.498,10.699-75.481,24.823
	C41.987,50.016,11.3,72.958,10.993,73.189l-0.854,0.641v126.786c0,42.17,15.228,85.834,42.888,122.952
	c26.506,35.561,61.522,60.64,96.073,68.801c-0.145-0.042,0.232,0.072,0.232,0.072l0.558,0.177l1.04-0.26
	c34.528-8.15,69.545-33.229,96.046-68.79c27.665-37.117,42.898-80.781,42.898-122.952V73.831l-0.858-0.641
	c-0.304-0.232-31.006-23.174-63.036-37.319c-31.985-14.124-75.06-24.717-75.492-24.823l-0.49-0.122L149.505,11.047L149.505,11.047z"
	/>
<path fill-rule="evenodd" clip-rule="evenodd" fill="#0E51A0" d="M75.701,39.802c29.915-13.207,69.675-23.308,74.297-24.46
	c4.618,1.152,44.388,11.253,74.303,24.46c28.765,12.706,56.413,32.579,61.361,36.206c0,2.154,0,124.609,0,124.609
	c0,82.829-63.387,170.453-135.654,187.552C77.653,370.955,14.352,283.394,14.352,200.617c0,0,0-122.458,0-124.609
	C19.295,72.381,46.932,52.507,75.701,39.802L75.701,39.802z"/>
<path fill-rule="evenodd" clip-rule="evenodd" fill="#FFFFFF" d="M222.541,203.041c8.194-33.354-10.279-75.7-10.279-75.7
	c4.141-8.662,1.357-17.809,1.357-17.809c-2.715-10.685-11.423-6.44-11.423-6.44c-15.214-23.427-34.328-15.883-34.328-15.883
	c-6.637,1.982-10.925-1.59-10.925-1.59c-7.028-7.143-17.177-2.384-17.177-2.384c-1.162,0.797-26.894,19.171-26.894,19.171
	c-7.597-1.073-11.209,0.518-12.895,3.862c-9.155,18.188,8.315,30.738,8.315,30.738l-3.632,2.22l-4.679-7.648
	c-10.59-19.562-0.509-33.583-0.509-33.583c9.837-16.111,47.235-24.349,47.235-24.349c2.628-0.583,7.886-1.939,7.886-1.939
	c17.17-4.383,25.227-12.384,25.227-12.384c12.002-13.905-5.137-28.364-5.137-28.364c-9.575-8.947-22.127-9.117-22.127-9.117
	c-18.993-1.016-14.812,10.728-12.718,12.89c2.487,3.773,9.301,8.008,9.301,8.008c3.446,3.922-4.637,6.496-4.637,6.496l-17.334,5.483
	c-29.542,9.007-42.765,21.72-42.765,21.72c-37.85,32.75,2.008,90.247,2.008,90.247c-14.254,41.407-8.795,49.587-8.795,49.587
	C65.4,250.9,92.55,278.046,92.55,278.046c3.264,4.839,6.958,9.583,9.809,13.093c-12.67,18.33-14.429,43.249-2.486,63.775
	c16.229,27.939,51.658,37.18,79.11,20.65c8.719-5.253,15.579-12.485,20.365-20.796c2.396-0.665,4.407-2.315,4.407-2.315
	c17.154-0.39,16.814-8.099,16.814-8.099c0.579-16.685-12.464-21.881-12.464-21.881c2.923-6.547,1.89-20.044,1.89-20.044
	c12.887-36.604,6.323-47.23,6.323-47.23c1.168-1.791-0.903-7.698-0.903-7.698c6.563-20.023,3.052-27.151,3.052-27.151
	C224.581,213.561,222.541,203.041,222.541,203.041L222.541,203.041z"/>
<path fill-rule="evenodd" clip-rule="evenodd" fill="#957948" d="M205.666,323.813l-0.396,0.592
	c6.723,7.092,9.466,13.087,8.155,17.832c-1.495,5.399-7.927,7.253-7.989,7.268l0.099,0.717c10.266,0,12.835-4.999,12.941-5.207
	C219.571,329.445,205.807,323.87,205.666,323.813L205.666,323.813z"/>
<path fill-rule="evenodd" clip-rule="evenodd" fill="#0E51A0" d="M217.785,344.827c-0.002-0.052-2.201,3.903-10.146,4.537
	c2.16-1.007,5.404-3.032,6.484-6.931c0.229-0.83,0.345-1.692,0.345-2.59c0-4.158-2.58-9.049-7.478-14.547
	c3.319,1.838,10.853,7.175,10.853,17.916C217.843,343.736,217.824,344.276,217.785,344.827L217.785,344.827z"/>
<path fill-rule="evenodd" clip-rule="evenodd" fill="#957948" d="M206.793,347.091c3.338-6.775-6.048-17.724-6.447-18.186
	l-0.595,0.41c3.341,6.146,4.031,11.213,2.051,15.06c-2.985,5.814-11.167,6.89-11.25,6.899l0.023,0.727
	C199.476,352.525,204.932,350.864,206.793,347.091L206.793,347.091z"/>
<path fill-rule="evenodd" clip-rule="evenodd" fill="#0E51A0" d="M193.456,351.363c2.801-0.831,6.949-2.685,8.991-6.65
	c0.789-1.537,1.184-3.239,1.184-5.113c0-2.367-0.833-5.077-2.087-7.948c2.066,2.851,5.236,7.886,5.236,12.169
	c0,1.043-0.192,2.045-0.639,2.948C204.623,349.857,200.351,351.394,193.456,351.363L193.456,351.363z"/>
<path fill-rule="evenodd" clip-rule="evenodd" fill="#957948" d="M197.944,296.008c-7.649-13.154-19.888-22.457-34.463-26.195
	c-6.862-1.76-13.848-2.139-20.667-1.267c-0.704,7.585-2.083,11.177-5.689,13.477c1.019,12.465-15.307,11.343-15.307,11.343
	c-5.058,12.537-12.697,8.026-18.902,0.748c-11.117,17.547-12.368,40.689-1.221,59.851c7.642,13.149,19.873,22.452,34.438,26.195
	c14.404,3.696,29.379,1.495,42.162-6.204C204.822,357.972,213.638,323.003,197.944,296.008L197.944,296.008z"/>
<path fill-rule="evenodd" clip-rule="evenodd" fill="#FFFFFF" d="M203.631,312.625l-1.962,3.613
	c-0.194,0.296-0.67,2.539-1.021,4.543l-0.703,0.046c-0.428-1.391-1.209-3.742-1.487-4.152c-0.729-1.152-4.353-5.196-7.761-7.46
	c-2.554-1.688-4.761-2.217-6.082-2.533c0,0-0.986-0.286-0.932-0.271c-0.244-0.016-1.558,0.395-3.862,1.334l-1.334,0.551l0.864-1.09
	c1.267-1.594,2.635-3.438,2.729-3.723l0.049-0.509c0.119-1.251,0.402-4.169,0.15-7.735c-0.316-4.101-1.225-8.378-1.918-10.138
	c-0.177-0.441-1.921-2.398-2.979-3.521l0.441-0.57c1.608,0.924,3.566,1.915,3.924,1.915c-0.002,0,2.783-0.057,4.568-0.063
	c-6.512-5.86-14.333-10.117-23.013-12.345c-2.442-0.633-4.9-1.018-7.366-1.308l3.493,3.847c0.216,0.285,2.181,1.433,3.953,2.377
	l-0.21,0.681c-2.204-0.229-4.698-0.385-5.072-0.249c-2.992,1.101-5.829,2.652-8.424,4.625c-2.503,1.932-4.072,3.935-4.918,5.015
	c0,0-0.557,0.675-0.562,0.681c-0.07,0.135-0.216,0.794-0.375,3.649l-0.087,1.442l-0.606-0.96c-0.335-0.524-2.182-3.224-2.507-3.452
	l-3.754-1.334c0.245-1.038,0.367-2.181,0.258-3.51c3.732-2.377,5.088-6.11,5.767-14.245l-39.486,26.907
	c-1.557,2.497-2.924,5.098-4.078,7.781c1.673-0.711,5.235-2.211,5.239-2.211c0.29-0.099,1.31-1.272,2.091-2.331
	c0.197,0.171,0.395,0.343,0.593,0.498c-0.42,1.132-1.011,2.881-1.011,3.364c0,0.005,0,0.01,0,0.016
	c0.045,1.204,0.315,5.472,1.895,9.946c1.148,3.291,2.541,5.695,3.211,6.848c0,0,0.275,0.482,0.276,0.487
	c0.211,0.234,1.906,1.075,4.118,2.04l1.13,0.493l-1.19,0.208c-0.799,0.141-3.938,0.8-4.273,1.022l-0.526,0.546
	c-0.938,0.934-2.688,2.673-4.468,5.471c-1.408,2.212-2.355,4.756-3.046,6.619c0,0-1.058,2.523-1.054,2.513
	c-0.161,0.446,0.453,3.634,1.116,6.318l-0.681,0.243c-1.075-2.263-2.376-4.771-2.683-5.02c0,0-2.712-1.968-4.239-3.131
	c1.202,5.908,3.312,11.717,6.497,17.194c3.021,5.201,6.798,9.754,11.131,13.627c-0.134-1.589-0.515-6.126-0.517-6.126
	c-0.009-0.332-0.751-1.755-1.434-2.892l0.556-0.457c0.925,0.842,2.421,2.082,2.845,2.207c1.951,0.561,7.516,1.749,11.35,1.594
	c3.041-0.114,4.86-0.842,5.949-1.277c0,0,0.908-0.312,0.869-0.301c0.398-0.182,2.632-2.58,2.859-2.86l0.862-0.972l-0.232,1.351
	c-0.579,3.354-0.487,3.856-0.495,3.862l0.37,0.98c0.362,1.158,0.968,3.104,2.873,5.446c2.422,2.99,6.55,5.985,8.6,7.288
	c0.41,0.249,2.702,0.795,4.048,1.085l-0.06,0.722c-1.491,0.058-3.264,0.249-3.519,0.441c0,0-3.173,2.435-4.577,3.452
	c11.823,1.34,23.709-1.168,34.12-7.439c0.529-0.316,1.032-0.669,1.547-1.007l-4.644-1.074l-0.698-0.229
	c-0.382-0.083-2.843,0.478-4.997,1.059l-0.33-0.633c1.47-1.205,3.894-3.266,4.159-3.671c0.734-1.142,2.58-4.298,3.883-9.059
	c0.859-3.146,0.919-5.284,0.947-6.438c0,0,0.036-0.736,0.039-0.736c-0.011-0.083-0.169-0.645-2.123-3.816l0.472-0.602
	c2.386,1.412,3.328,1.816,3.507,1.832c0.003,0,0.028-0.01,0.241-0.063c1.373-0.316,5.561-1.303,9.025-2.72
	c2.829-1.147,5.293-2.699,7.328-4.61c0.316-0.301,1.63-2.969,2.458-4.771l0.69,0.202c-0.314,2.232-0.566,4.761-0.444,5.13
	l0.465,1.007c0,0,0.8,2.097,1.271,3.447c2.801-6.863,4.275-14.24,4.275-21.695C204.994,320.791,204.526,316.685,203.631,312.625
	L203.631,312.625L203.631,312.625z M170.731,314.017c-0.346,1.438-0.272,3.479-0.194,5.84c0,0-0.078,7.59-0.078,7.596l-0.935,6.1
	c-0.462,2.424-0.83,4.34-0.542,5.799c0.091,0.565,1.396,2.762,2.2,4.007l-0.521,0.488c-1.11-0.81-2.904-1.968-3.395-2.004
	c-1.345-0.114-3.486,0.681-5.963,1.589l-6.8,2.165l-5.477,1.079c-2.828,0.493-5.063,0.888-6.432,1.672
	c-0.797,0.426-2.746,3.1-3.432,4.102l-0.653-0.296c0.489-2.051,0.964-4.377,0.92-4.698c-0.434-1.396-1.786-3.219-3.35-5.326
	l-4.053-5.929l-2.974-6.146c-1.026-2.362-1.914-4.397-2.958-5.446c-0.456-0.503-3.231-1.235-4.874-1.583l-0.008-0.711
	c2.283-0.529,4.82-1.194,5.122-1.387c1.454-0.893,2.933-2.673,4.982-5.145l3.213-3.779l3.451-3.758
	c2.121-2.253,3.949-4.189,4.654-5.794c0.178-0.296,0.67-2.647,1.043-4.745l0.204-1.142l0.485,1.054
	c0.856,1.874,1.888,3.951,2.095,4.163l4.687,1.807l6.916,2.549l5.461,2.726c2.284,1.221,4.088,2.186,5.511,2.331l0.036,0.011
	c0.537,0.119,3.479-0.468,5.207-0.862l0.265,0.67C173.052,311.898,170.872,313.414,170.731,314.017L170.731,314.017z"/>
<path fill-rule="evenodd" clip-rule="evenodd" fill="#0E51A0" d="M168.123,339.506c-0.078-0.41-0.117-0.846-0.117-1.309
	c0-1.35,0.304-2.938,0.665-4.812l0.919-6.012l0.08-7.491c-0.036-1.002-0.07-1.946-0.07-2.829c0-1.235,0.067-2.331,0.283-3.239
	c0.143-0.598,1.027-1.381,1.976-2.071c-1.215,0.218-2.448,0.399-2.934,0.316c-1.583-0.177-3.447-1.163-5.809-2.425l-5.402-2.699
	l-6.834-2.522c0,0-4.849-1.88-4.851-1.88c-0.127-0.072-0.466-0.389-1.777-3.125c-0.274,1.423-0.625,3.094-0.838,3.442
	c-0.742,1.697-2.531,3.587-4.797,5.985c0,0-3.426,3.737-3.429,3.737l-3.198,3.774c-2.103,2.528-3.62,4.355-5.189,5.321
	c-0.345,0.218-1.931,0.638-3.354,0.996c1.341,0.358,2.824,0.836,3.278,1.334c1.148,1.153,2.066,3.261,3.128,5.711
	c0,0,2.926,6.048,2.926,6.053l4,5.841c1.612,2.175,3.004,4.054,3.481,5.591c0.02,0.057,0.028,0.14,0.028,0.254
	c0,0.421-0.167,1.365-0.413,2.549c0.788-1.022,1.704-2.102,2.293-2.413c1.492-0.857,3.792-1.262,6.706-1.771l5.428-1.064
	l6.699-2.144c2.682-0.981,4.797-1.755,6.325-1.636c0.426,0.031,1.171,0.421,1.903,0.867
	C168.704,340.923,168.198,339.963,168.123,339.506L168.123,339.506L168.123,339.506z M168.948,312.064
	c-0.011,0-0.047-0.005-0.057-0.01C168.901,312.06,168.938,312.064,168.948,312.064L168.948,312.064z"/>
<path fill-rule="evenodd" clip-rule="evenodd" fill="#0E51A0" d="M187.315,283.674c-0.53,0.016-5.482,0.124-5.482,0.124
	c-0.327,0.031-1.038-0.254-1.879-0.654c0.578,0.675,1.095,1.329,1.22,1.641c0.711,1.797,1.641,6.048,1.978,10.383
	c0.073,1.064,0.102,2.066,0.102,2.985c0,2.247-0.171,4.002-0.257,4.905c0,0-0.044,0.488-0.047,0.498
	c-0.013,0.125-0.143,0.566-1.786,2.726c2.35-0.882,2.643-0.763,2.824-0.68l0.833,0.229c1.282,0.312,3.676,0.888,6.359,2.658
	c3.564,2.367,7.231,6.483,8.005,7.709c0.236,0.348,0.631,1.438,0.977,2.471c0.254-1.262,0.553-2.569,0.786-2.917
	c0,0,2.411-4.449,2.575-4.751c-1.324-5.087-3.31-9.951-5.932-14.457C194.827,291.767,191.361,287.447,187.315,283.674
	L187.315,283.674z"/>
<path fill-rule="evenodd" clip-rule="evenodd" fill="#0E51A0" d="M198.092,341.66c0-0.457,0.063-1.116,0.12-1.76
	c-0.53,1.059-1.067,2.046-1.337,2.3c-2.113,1.988-4.67,3.598-7.595,4.786c-3.53,1.443-7.767,2.44-9.456,2.829
	c-0.189,0.047-0.491,0.089-2.45-0.996c1.137,1.937,1.329,2.476,1.329,2.688c0,0.042-0.039,0.795-0.039,0.795
	c-0.034,1.188-0.091,3.405-0.981,6.645c-1.337,4.88-3.236,8.135-3.992,9.303c-0.252,0.385-1.516,1.495-2.64,2.45
	c1.523-0.368,2.92-0.644,3.333-0.514l0.714,0.233c0,0,4.044,0.939,4.373,1.018c9.06-5.783,16.213-14.058,20.7-23.952
	c-0.114-0.302-1.505-3.972-1.505-3.972l-0.485-1.044C198.115,342.319,198.092,342.039,198.092,341.66L198.092,341.66z"/>
<path fill-rule="evenodd" clip-rule="evenodd" fill="#0E51A0" d="M138.634,368.333c-2.012-2.471-2.649-4.517-3.029-5.736
	c0,0-0.286-0.794-0.292-0.805c-0.051-0.088-0.11-0.192-0.11-0.592c0-0.374,0.096-1.184,0.26-2.294
	c-0.896,0.913-1.955,1.863-2.187,1.915l-0.749,0.271c-1.141,0.451-3.048,1.214-6.24,1.334c-4.369,0.176-10.28-1.241-11.628-1.625
	c-0.286-0.094-0.792-0.478-1.268-0.836c0.187,0.421,0.414,0.888,0.42,1.127c0,0,0.507,6.048,0.536,6.385
	c8.127,7.003,18.043,11.437,28.708,12.844c0.429-0.333,4.745-3.655,4.758-3.665c0.182-0.156,0.711-0.229,1.178-0.322
	c-0.672-0.187-1.292-0.374-1.543-0.524C145.347,374.479,141.125,371.406,138.634,368.333L138.634,368.333z"/>
<path fill-rule="evenodd" clip-rule="evenodd" fill="#0E51A0" d="M110.872,319.524l-0.279-0.493
	c-0.684-1.173-2.106-3.629-3.281-6.998c-1.62-4.584-1.897-8.965-1.944-10.195c0-0.011-0.001-0.026-0.001-0.036
	c0-0.307,0.145-0.862,0.318-1.454c-0.301,0.296-0.629,0.659-0.844,0.732c0,0-5.465,2.305-5.786,2.445
	c-2.851,6.93-4.314,14.281-4.314,21.679c0,3.354,0.314,6.712,0.911,10.045c0.435,0.322,4.876,3.551,4.881,3.551
	c0.246,0.161,0.687,0.862,1.184,1.771c-0.182-1.002-0.279-1.786-0.279-2.305c0-0.343,0.04-0.587,0.122-0.706l0.988-2.383
	c0.706-1.896,1.671-4.485,3.129-6.78c1.833-2.881,3.695-4.734,4.589-5.622c0,0,0.481-0.493,0.471-0.482
	c0.283-0.354,1.923-0.743,3.238-1.018C111.257,320.028,110.951,319.681,110.872,319.524L110.872,319.524z"/>
<path fill-rule="evenodd" clip-rule="evenodd" fill="#0E51A0" d="M158.727,273.566c0,0-3.566-3.915-3.8-4.174
	c-4.103-0.369-8.199-0.265-12.227,0.274c-0.736,6.816-2.152,10.176-5.575,12.355c0.08,0.971,0.023,1.827-0.091,2.647l3.926,1.392
	c0.257,0.109,1.285,1.438,2.07,2.56c0.166-2.315,0.323-2.804,0.511-3.012l0.532-0.644c0.867-1.105,2.481-3.172,5.075-5.17
	c2.668-2.02,5.582-3.624,8.652-4.745c0.415-0.156,1.773-0.099,3.089-0.005C159.895,274.47,158.947,273.872,158.727,273.566
	L158.727,273.566z"/>
<path fill-rule="evenodd" clip-rule="evenodd" fill="#957948" d="M170.046,186.955l-2.912-8.649l-0.706,0.173l1.254,8.19
	c0.039,0.972-0.233,1.686-0.833,2.143c-1.672,1.274-5.306,0.122-5.34,0.11c-6.058-4.702-12.72,0.458-12.786,0.51
	c-2.252,0.785-4.243,0.381-4.262,0.376c-2.359-0.205-2.222-3.26-2.215-3.391l2.353-8.136l-0.678-0.257l-4.009,8.432
	c-1.129,5.451,3.087,6.699,3.13,6.711c0.048,0.01,7.271,1.329,7.271,1.329c2.255,0.604,3.261,3.712,3.273,3.743l1.233,5.731
	l0.714-0.017l0.828-4.877c0.197-3.49,3.521-4.323,3.665-4.357l6.019-1.322c1.594-0.127,2.788-0.729,3.507-1.779
	C170.851,189.716,170.08,187.067,170.046,186.955L170.046,186.955z"/>
<path fill-rule="evenodd" clip-rule="evenodd" fill="#0E51A0" d="M154.285,198.053c-0.052-0.176-1.14-3.551-3.783-4.258
	l-7.312-1.339c-0.087-0.026-2.763-0.84-2.763-4.213c0-0.469,0.051-0.985,0.169-1.558c0,0,1.044-2.189,2.084-4.37
	c-0.574,1.988-1.147,3.98-1.147,3.98c-0.005,0.101-0.009,0.207-0.009,0.318c0,1.463,0.585,3.72,2.831,3.912
	c0.044,0.013,2.157,0.448,4.716-0.466c0.358-0.257,6.39-4.914,12.103-0.503c0.273,0.11,4.138,1.336,6.116-0.165
	c0.742-0.567,1.118-1.429,1.118-2.566c0-0.074,0-0.15-0.003-0.228c0,0-0.316-2.048-0.628-4.098c0.784,2.322,1.576,4.675,1.576,4.675
	c0.002,0.005,0.218,0.762,0.218,1.708c0,0.749-0.135,1.616-0.62,2.327c-0.587,0.86-1.602,1.354-3.014,1.47l-6.071,1.331
	c-0.044,0.01-4.003,0.985-4.224,4.985c0,0-0.267,1.572-0.509,2.982C154.766,200.271,154.285,198.053,154.285,198.053
	L154.285,198.053z"/>
<path fill-rule="evenodd" clip-rule="evenodd" fill="#957948" d="M199.488,186.822c0.405-1.446,3.237-11.539,3.237-11.539
	l-0.351-0.099l-0.348-0.098c-1.462,5.256-4.971,8.923-6.401,10.258c0.128-1.023,0.319-2.574,0.319-2.574l-0.695-0.186
	c-1.36,3.204-7.634,4.139-9.937,4.228c-1.409,0.053-1.409,0.053-3.2-1.478l-1.91-1.608c-3.862-3.181-8.83-4.467-9.041-4.521
	l-0.285,0.658c2.258,1.456,8.742,9.862,8.81,9.948c0.008,0.034,0.345,0.716,1.271,1.572c1.088,8.612,0.063,14.461-3.058,16.915
	c-3.189,2.505-7.548,0.727-7.59,0.71c-13.562-10.61-30.276,0.824-30.445,0.941c-1.351,0.581-2.6,0.543-3.756-0.148
	c-4.968-2.976-6.114-16.845-6.125-16.982l-0.706-0.088c-1.03,3.029-1.544,5.768-1.544,8.204c0,2.85,0.704,5.281,2.112,7.273
	c3.61,5.108,10.341,5.512,11.368,5.545c0.073,0.526,0.921,6.752,0.921,6.752l3.474-5.636c0,0,0.432-3.018,0.58-4.066
	c0.737,0.746,3.003,3.05,3.003,3.05l0.237-0.12c5.644-2.834,13.237-0.446,13.317-0.42l0.197,0.063c0,0,2.954-2.666,3.551-3.206
	c0.34,0.733,1.986,4.271,1.986,4.271c0.16,0.167,3.415,2.513,3.415,2.513l0.507,0.363l0.08-0.61c0,0,0.452-4.069,0.52-4.697
	c3.61,0.758,6.393,0.215,8.218-1.704c4.044-4.265,2.341-13.819,1.433-17.695c1.487,0.884,3.634,1.741,6.853,2.166
	c8.161,1.076,12.994-8.778,13.043-8.877l0.49-1.019C203.039,184.883,200.392,186.33,199.488,186.822L199.488,186.822z"/>
<path fill-rule="evenodd" clip-rule="evenodd" fill="#957948" d="M214.435,276.188c1.03-4.859,1.689-9.89,1.697-15.023l-0.695-0.15
	c-0.055,0.124-5.022,10.798-16.794,15.397C204.127,276.131,209.394,276.058,214.435,276.188L214.435,276.188z"/>
<path fill-rule="evenodd" clip-rule="evenodd" fill="#0E51A0" d="M213.687,276.167c0.927-4.355,1.532-8.861,1.651-13.451
	c-1.63,2.855-6.212,9.672-14.583,13.581C205.22,276.115,209.526,276.084,213.687,276.167L213.687,276.167z"/>
<path fill-rule="evenodd" clip-rule="evenodd" fill="#957948" d="M189.963,274.646c24.243-7.423,22.712-23.34,22.69-23.501
	l-0.085-0.758l-0.535,0.545c-11.239,11.53-20.334,14.007-20.425,14.027c-9.814,1.007-15.252,4.937-18.225,8.44
	c1.639,0.769,3.229,1.615,4.776,2.544C184.471,273.95,189.888,274.636,189.963,274.646L189.963,274.646z"/>
<path fill-rule="evenodd" clip-rule="evenodd" fill="#957948" d="M216.326,220.502l-0.719,0.056
	c-1.368,18.46-27.218,28.142-27.479,28.24c-10.614,5.805-16.9,17.038-19.499,22.614c0.395,0.14,0.773,0.316,1.163,0.462
	c11.099-16.893,27.69-18.024,27.867-18.029c6.533,0,10.813-1.246,12.697-3.707c1.34-1.749,0.901-3.437,0.886-3.504
	C218.912,232.316,216.353,220.617,216.326,220.502L216.326,220.502z"/>
<path fill-rule="evenodd" clip-rule="evenodd" fill="#0E51A0" d="M189.905,273.935c20.493-6.297,21.996-18.73,22.04-21.912
	c-11.112,11.141-20.064,13.616-20.21,13.647c-9.5,0.977-14.79,4.693-17.679,8.031c1.137,0.55,2.232,1.184,3.325,1.816
	C184.094,273.218,189.941,273.914,189.905,273.935L189.905,273.935z"/>
<path fill-rule="evenodd" clip-rule="evenodd" fill="#0E51A0" d="M209.768,249.712c-1.202,1.558-4.283,3.405-12.127,3.405
	c-0.197,0.011-16.825,1.319-28.132,18.154c2.658-5.602,8.753-16.249,18.917-21.813c0.211-0.068,24.368-9.288,27.434-26.861
	c0.083,0.824,0.171,1.769,0.171,3.083c0,4.697-0.913,12.263-5.464,20.875c0,0.011,0,0.016,0,0.021c0,0.13,0.037,0.379,0.037,0.717
	C210.604,247.9,210.479,248.793,209.768,249.712L209.768,249.712z"/>
<path fill-rule="evenodd" clip-rule="evenodd" fill="#957948" d="M223.179,183.153c0-13.592-2.906-33.309-14.463-57.956v-0.001
	c-0.002-0.005-0.002-0.009-0.005-0.013l-0.664,0.297c0.199,0.472,12.293,29.363,12.293,56.394c0,17.173-4.88,33.596-20.797,41.497
	c-0.135,0.108-3.652,3.555-19.301,6.992c-13.661,2.989-20.563,17.802-23.158,23.377c0,0-0.933,1.864-0.986,1.968
	c-0.006,0.016-0.053,0.094-0.058,0.104l0.607,0.39c0,0,0.023-0.047,0.026-0.047h0.005c0.094-0.166,9.594-17.359,17.647-17.691
	c0.083-0.011,14.02-3.845,14.02-3.845c0.301-0.045,31.919-5.063,31.919-28.279c0-0.643-0.026-1.298-0.076-1.965
	C220.235,204.308,223.179,196.83,223.179,183.153L223.179,183.153z"/>
<path fill-rule="evenodd" clip-rule="evenodd" fill="#0E51A0" d="M159.937,249.618c3.491-6.629,9.899-16.231,20.467-18.547
	c15.95-3.5,19.423-6.976,19.563-7.121c16.156-8.012,21.104-24.649,21.104-42.021c0-16.366-4.377-33.273-7.925-44.351
	c7.239,18.922,9.313,34.37,9.313,45.574c0,13.541-2.91,20.963-2.967,21.109c0.046,0.643,0.069,1.271,0.069,1.886
	c0,22.778-31.03,27.707-31.35,27.755c-0.029,0.005-13.999,3.848-13.999,3.848C169.055,237.964,163.531,244.469,159.937,249.618
	L159.937,249.618z"/>
<path fill-rule="evenodd" clip-rule="evenodd" fill="#957948" d="M156.356,255.988c0,0,0.141-0.254,0.371-0.648
	C156.58,255.63,156.455,255.863,156.356,255.988L156.356,255.988z"/>
<path fill-rule="evenodd" clip-rule="evenodd" fill="#957948" d="M156.728,255.34c-0.23,0.395-0.371,0.648-0.371,0.648
	C156.455,255.863,156.58,255.63,156.728,255.34L156.728,255.34z"/>
<polygon fill-rule="evenodd" clip-rule="evenodd" fill="#957948" points="184.485,217.827 184.499,217.82 184.507,217.818 
	184.485,217.827 "/>
<path fill-rule="evenodd" clip-rule="evenodd" fill="#957948" d="M206.183,187.619c-10.131,25.639-21.793,29.475-21.907,29.513
	l-0.023,0.005c-19.553,7.408-26.019,17.553-28.063,22.25c-2.062-4.702-8.56-14.856-28.085-22.25
	c-0.139-0.043-11.792-3.879-21.906-29.518l-0.696,0.197c0.061,0.334,6.258,33.554,25.214,39.232
	c0.198,0.045,17.943,4.441,25.096,22.897c0,0,0.172-0.031,0.343-0.057c0.192,0.025,0.392,0.057,0.392,0.057
	c7.162-18.456,24.908-22.852,25.087-22.891c18.972-5.685,25.186-38.905,25.246-39.237L206.183,187.619L206.183,187.619z"/>
<path fill-rule="evenodd" clip-rule="evenodd" fill="#957948" d="M168.987,219.501l-0.646,0.358
	c-1.243,0.682-2.943,1.619-3.839,2.589c-0.93,1-2.001,1.224-2.012,1.224c-3.873-1.292-9.108-0.392-11.622,0.041l-1.103,0.17
	c-0.002,0-1.675-0.384-1.675-0.384c-1.467-1.595-5.305-1.822-5.467-1.83l-0.157,0.698c1.573,0.648,4.151,3.282,5.121,4.745
	c0.946,1.43,2.338,1.289,2.943,1.016c3.793-1.054,7.498-0.728,9.951-0.511l2.427,0.093c1.775-0.241,2.58-1.673,2.614-1.731
	c0.448-2.414,3.864-5.873,3.9-5.906L168.987,219.501L168.987,219.501z"/>
<path fill-rule="evenodd" clip-rule="evenodd" fill="#0E51A0" d="M147.623,224.05c0.103,0.079,0.981,0.657,2.197,0.559l1.172-0.182
	c2.458-0.42,7.569-1.3,11.459-0.051c0.236,0,1.487-0.255,2.583-1.434c0.561-0.608,1.489-1.19,2.414-1.729
	c-1.062,1.28-2.336,3.034-2.604,4.523c0.013-0.063-0.634,1.062-2.035,1.252c-0.005,0-2.266-0.097-2.266-0.097
	c-2.505-0.221-6.287-0.553-10.261,0.554c-0.171,0.07-1.268,0.505-2.091-0.738c-0.746-1.121-2.41-2.925-3.935-4.083
	C145.422,222.84,146.871,223.24,147.623,224.05L147.623,224.05z"/>
<path fill-rule="evenodd" clip-rule="evenodd" fill="#0E51A0" d="M189.602,194.057c-7.651-1.011-9.279-4.572-9.297-4.607
	c-0.263-0.361-4.776-6.201-7.619-8.973c1.783,0.627,4.621,1.809,7.058,3.813l1.896,1.599c1.897,1.62,2.009,1.716,3.704,1.652
	c0.077-0.002,6.889-0.323,9.699-3.383c-0.124,1.007-0.365,2.96-0.365,2.96l0.698-0.563c0.16-0.128,2.956-2.47,5.209-6.33
	c-0.986,3.513-2.258,8.062-2.258,8.062s1.97-1.08,2.953-1.614C199.821,189.104,195.691,194.861,189.602,194.057L189.602,194.057z"/>
<path fill-rule="evenodd" clip-rule="evenodd" fill="#957948" d="M181.597,191.42c0.026,0.193,0.042,0.377,0.065,0.568
	c0.028,0.022,0.072,0.045,0.104,0.067C181.69,191.758,181.628,191.536,181.597,191.42L181.597,191.42z"/>
<path fill-rule="evenodd" clip-rule="evenodd" fill="#0E51A0" d="M205.353,191.277c-1.199,2.761-2.409,5.233-3.608,7.458
	l-19.125-2.406c-0.285-1.873-0.638-3.415-0.854-4.274c-0.031-0.022-0.075-0.045-0.104-0.067c0.176,1.482,0.329,2.929,0.404,4.271
	l-12.204-1.535c-0.169-0.53-0.623-0.921-1.171-0.921c-0.698,0-1.259,0.614-1.259,1.356c0,0.738,0.561,1.357,1.259,1.357
	c0.529,0,0.976-0.362,1.157-0.86l12.254,1.198c0.006,0.224,0.039,0.48,0.039,0.693c0,1.926-0.16,3.627-0.467,5.127l-10.613-4.19
	c0-0.018,0.008-0.033,0.008-0.051c0-0.749-0.566-1.354-1.249-1.354c-0.695,0-1.259,0.604-1.259,1.354
	c0,0.748,0.563,1.353,1.259,1.353c0.319,0,0.603-0.14,0.825-0.354l10.892,3.872c-0.607,2.503-1.666,4.375-3.19,5.57
	c-0.187,0.145-0.387,0.231-0.576,0.353l-8.96-6.528c-0.011-0.737-0.568-1.343-1.254-1.343c-0.69,0-1.261,0.615-1.261,1.36
	c0,0.748,0.57,1.36,1.261,1.36c0.429,0,0.789-0.25,1.016-0.607l8.742,6.036c-3.336,1.761-7.12,0.247-7.369,0.128
	c-13.215-10.328-29.501,0.801-29.726,0.948c-1.621,0.71-3.13,0.659-4.484-0.156c-0.155-0.091-0.279-0.253-0.427-0.361l11.111-7.062
	c0.206,0.156,0.444,0.268,0.712,0.268c0.681,0,1.247-0.611,1.247-1.353c0-0.757-0.566-1.363-1.247-1.363
	c-0.693,0-1.266,0.606-1.266,1.363c0,0.039,0.019,0.071,0.022,0.11l-11.071,7.622c-1.015-0.932-1.859-2.232-2.545-3.75l10.501-6.088
	c0.227,0.252,0.542,0.408,0.888,0.408c0.701,0,1.268-0.606,1.268-1.361c0-0.749-0.567-1.354-1.268-1.354
	c-0.599,0-1.085,0.474-1.201,1.096l-10.475,6.678c-0.661-1.605-1.16-3.351-1.547-5.029l11.455-4.971
	c0.094,0.023,0.185,0.063,0.286,0.063c0.689,0,1.262-0.606,1.262-1.356c0-0.303-0.112-0.569-0.269-0.794
	c-0.074-0.014-0.126-0.023-0.13-0.023c-0.013-0.004-0.463-0.158-1.014-0.507c-0.618,0.085-1.107,0.637-1.107,1.325
	c0,0.144,0.038,0.277,0.076,0.409l-10.708,5.174c-0.395-1.838-0.665-3.548-0.816-4.763c-0.561,2.017-0.903,3.907-0.964,5.624
	l-12.942,6.253c-2.727-3.775-5.657-8.756-8.539-15.404c2.174,8.702,9.037,30.624,23.874,35.067
	c0.179,0.043,17.812,4.466,25.28,22.708c7.468-18.242,25.105-22.665,25.264-22.703c4.013-1.2,7.424-3.701,10.336-6.849l1.814,1.252
	l-1.778-1.294c2.718-2.944,4.983-6.451,6.848-10.07l0.114,0.041l-0.109-0.043c1.843-3.572,3.302-7.21,4.418-10.48l0.088,0.009
	l-0.088-0.012C204.106,195.926,204.856,193.251,205.353,191.277L205.353,191.277L205.353,191.277z M115.578,206.693l12.896-5.592
	c0.021,2.117,0.468,3.974,1.316,5.576l-9.26,5.902C119.015,211.072,117.341,209.138,115.578,206.693L115.578,206.693
	L115.578,206.693z M120.608,212.659l9.47-5.489c0.122,0.205,0.222,0.423,0.359,0.615c0.838,1.19,1.887,2.103,3,2.815l-8.359,5.755
	C123.88,215.569,122.356,214.388,120.608,212.659L120.608,212.659L120.608,212.659z M184.507,217.818l-0.019,0.009
	c-20.267,7.68-26.304,18.341-27.96,22.571l-0.338,0.862l-0.337-0.862c-1.677-4.235-7.752-14.914-27.984-22.571
	c-0.134-0.041-1.106-0.391-2.627-1.367l8.719-5.542c3.546,2.039,7.523,2.135,7.578,2.135l0.313,0.005c0,0,0.54,3.961,0.731,5.35
	c0.71-1.138,2.357-3.777,2.357-3.777l0.734-5.389c0,0,3.412,3.466,3.696,3.753c5.58-2.635,12.437-0.727,13.392-0.435
	c0.275-0.249,3.977-3.588,3.977-3.588l0.208,0.445l2.035,4.55c0,0,2.107,1.509,2.847,2.044c0.106-0.954,0.538-4.856,0.538-4.856
	l0.396,0.095c2.697,0.636,4.877,0.5,6.523-0.384l7.966,5.505c-1.578,1.028-2.596,1.4-2.754,1.448
	C184.501,217.82,184.504,217.818,184.507,217.818L184.507,217.818L184.507,217.818z M187.427,216.259l-7.776-5.665
	c0.365-0.237,0.734-0.466,1.041-0.787c1.381-1.456,2.024-3.643,2.25-6.005l12.648,4.494
	C192.322,212.489,189.438,214.921,187.427,216.259L187.427,216.259L187.427,216.259z M195.665,208.201l-12.689-5.011
	c0.033-0.518,0.075-1.033,0.075-1.557c0-1.641-0.151-3.258-0.351-4.72l19.026,1.862C199.64,202.644,197.591,205.717,195.665,208.201
	L195.665,208.201z"/>
<path fill-rule="evenodd" clip-rule="evenodd" fill="#957948" d="M205.005,159.188c-1.132-0.106-3.183,1.176-4.213,1.879
	c0.031-0.547,0.064-1.104,0.064-1.599c0-4.605-1.145-6.943-1.238-7.128c0-0.001,0-0.002,0-0.002s-0.016-0.03-0.016-0.031
	l-0.659,0.304c1.539,3.799-2.673,15.64-2.715,15.759c-0.719,2.993-5.163,6.758-5.204,6.795c-2.915,2.461-13.285-0.163-13.389-0.19
	c-1.63-0.946-3.252-1.198-4.729-0.713c-2.427,0.8-3.551,3.293-3.6,3.399l-0.244,0.559l0.607-0.05
	c4.169-0.349,5.614,1.113,5.633,1.129c4.786,3.436,10.048,3.473,10.271,3.473c11.906,0.878,14.416-14.319,14.439-14.475
	c1.55-4.521,5.189-8.461,5.226-8.501l0.501-0.539L205.005,159.188L205.005,159.188z"/>
<path fill-rule="evenodd" clip-rule="evenodd" fill="#0E51A0" d="M185.597,182.047c-0.075-0.001-5.279-0.045-9.816-3.292
	c-0.014-0.021-1.464-1.505-5.498-1.338c0.437-0.722,1.363-1.977,2.858-2.466c1.269-0.417,2.696-0.182,4.223,0.69
	c0.532,0.15,10.933,2.78,14.128,0.081c0.189-0.161,4.673-3.96,5.433-7.146c0.125-0.349,2.547-7.199,2.985-12.251
	c0.127,0.905,0.218,1.941,0.218,3.181c0,0.698-0.025,1.45-0.091,2.253l-0.063,0.793l0.642-0.473
	c0.883-0.651,2.209-1.404,3.266-1.805c-1.194,1.456-3.398,4.418-4.568,7.852C199.273,168.334,196.864,182.876,185.597,182.047
	L185.597,182.047z"/>
<path fill-rule="evenodd" clip-rule="evenodd" fill="#957948" d="M193.742,155.12c0,0-0.083,0.103-0.12,0.149
	c-0.114-0.528-0.241-1.365-0.241-2.386c0-1.075,0.15-2.179,0.634-2.797c0.101-0.151,2.175-3.244,2.302-6.045l0.058-1.255
	l-0.719,1.03c-0.369,0.528-1.485,1.984-2.22,2.37c-0.013,0.005-0.794,0.55-0.898,0.626c0.037-0.077,0.104-0.217,0.104-0.217
	c0.524-0.949,1.188-2.154,1.188-3.156c0-0.368-0.088-0.705-0.304-0.996c0.044,0.073-1.318-5.697,2.806-9.965l0.732-0.755
	l-1.041,0.143c-0.135,0.018-2.868,0.502-4.434,2.204c-0.039-0.981-0.096-2.604-0.096-2.604l-0.69-0.143c0,0-0.792,1.665-1.116,2.352
	c-0.797-0.928-3.061-3.367-5.407-3.792l-0.804-0.146l0.428,0.696c0.013,0.018,1.188,1.932,1.303,3.435
	c-0.075,0.459-2.097,13.151-15.321,13.271l-0.117,0.707c0.106,0.037,10.38,3.376,16.111-4.808c0.205,0.301,0.457,0.628,0.457,0.851
	c0,0.022-0.003,0.044-0.008,0.065l-0.283,1.411c0,0,2.803-3.383,3.52-4.244c0.2,1.089,0.545,3.221,0.545,5.219
	c0,1.253-0.138,2.437-0.537,3.239c-0.023,0.087-0.135,0.628-0.135,1.389c0,1.141,0.252,2.774,1.42,4.109
	c-0.021-0.026,1.962,3.574,0.615,6.374c-0.805,1.669-2.646,2.749-5.467,3.209c-0.06,0.012-5.378,0.967-7.615,0.258
	c0.021,0.002-4.579-2.442-7.206,1.513c-0.094,0.252-1.3,4.039-1.046,5.6l0.218,1.317l0.48-1.246
	c0.075-0.186,1.817-4.516,7.104-3.129c0.29,0.138,8.498,3.857,13.464,1.271c1.835-0.955,2.984-2.65,3.421-5.041
	c0.171-2.538,0.805-9.34,1.682-10.813l0.678-1.133L193.742,155.12L193.742,155.12z"/>
<path fill-rule="evenodd" clip-rule="evenodd" fill="#0E51A0" d="M191.071,169.597c-4.649,2.423-12.802-1.269-12.885-1.308
	c-4.034-1.062-6.173,0.852-7.206,2.258c0.182-1.356,0.61-3.043,0.854-3.805c2.214-3.307,6.107-1.25,6.276-1.16
	c2.468,0.789,7.8-0.167,8.021-0.208c3.063-0.501,5.085-1.717,5.995-3.614c1.511-3.142-0.589-6.946-0.677-7.104
	c-1.75-2.009-1.202-4.813-1.194-4.843c1.368-2.726-0.067-9.314-0.127-9.594l-0.161-0.724c0,0-2.5,3.018-3.122,3.769
	c-0.211-0.507-0.517-0.974-0.623-1.093l-0.322-0.366l-0.26,0.408c-3.95,6.179-10.51,5.934-13.723,5.378
	c11.93-1.438,13.995-13.567,14.017-13.698c-0.078-1.065-0.543-2.166-0.925-2.928c2.269,0.938,4.454,3.567,4.48,3.598l0.36,0.458
	c0,0,0.613-1.288,0.972-2.042c0.033,0.976,0.119,3.309,0.119,3.309l0.633-1.154c0.764-1.386,2.505-2.026,3.598-2.318
	c-2.027,2.546-2.557,5.365-2.557,7.355c0,1.468,0.241,2.478,0.265,2.578c0.135,0.19,0.192,0.425,0.192,0.684
	c0,0.877-0.644,2.045-1.066,2.814c-0.346,0.628-0.556,1.012-0.556,1.292c0,0.11,0.031,0.201,0.096,0.29l0.21,0.271l0.361-0.128
	l1.11-0.754l0.562-0.397c0.49-0.256,1.054-0.84,1.523-1.388c-0.559,2.162-1.869,4.201-1.888,4.227
	c-0.594,0.759-0.786,2.037-0.786,3.263c0,1.507,0.288,2.936,0.462,3.232l0.233,0.391l0.504-0.522l0.335-0.318
	c0,0,0.711-0.382,1.323-0.711c-0.893,2.952-1.367,9.791-1.391,10.121C193.719,167.229,192.696,168.752,191.071,169.597
	L191.071,169.597z"/>
<path fill-rule="evenodd" clip-rule="evenodd" fill="#957948" d="M211.938,177.195c0.426-0.071,1.401-0.232,1.401-0.232
	l-0.272-0.458c-1.196-2.002-5.303-2.275-5.475-2.286c-1.237,0.148-1.941,0.56-2.148,1.229c-0.424,1.341,1.422,3.057,1.63,3.249
	l0.064,0.045c0.351,0.204,0.551,0.449,0.603,0.753c0.104,0.6-0.379,1.325-0.571,1.556c-0.07-0.043-0.524,0.088-0.47,0.474
	c0.052,0.375,0.485,0.375,0.745,0.375c0.815,0,1.461-0.534,1.749-0.791c2.656,0.955,5.617,8.288,6.547,11.098l0.415,1.246
	l0.285-1.28c0.211-0.938,0.307-1.872,0.307-2.785C216.747,183.422,212.957,178.438,211.938,177.195L211.938,177.195z"/>
<path fill-rule="evenodd" clip-rule="evenodd" fill="#0E51A0" d="M215.896,190.492c-1.098-2.941-3.789-9.365-6.624-10.18
	l-0.205-0.06l-0.15,0.154c-0.135,0.134-0.465,0.361-0.828,0.542c0.208-0.354,0.395-0.807,0.395-1.281
	c0-0.099-0.008-0.197-0.025-0.295c-0.089-0.524-0.41-0.947-0.956-1.261l0.063,0.045c-0.667-0.604-1.646-1.813-1.428-2.492
	c0.146-0.465,0.886-0.65,1.479-0.724c0,0.005,2.978,0.273,4.335,1.514c-0.368,0.06-1.381,0.229-1.381,0.229l0.434,0.492
	c0.055,0.063,5.01,5.797,5.01,12.26C216.013,189.785,215.93,190.141,215.896,190.492L215.896,190.492z"/>
<path fill-rule="evenodd" clip-rule="evenodd" fill="#957948" d="M220.688,175.815l-0.127-0.881
	c-0.358-2.447-6.04-7.062-7.873-8.492c0.512-0.14,1.802-0.496,1.802-0.496l-0.618-0.444c-3.424-2.46-7.488-0.878-7.662-0.81
	c-1.155,0.415-1.775,0.99-1.822,1.703c-0.099,1.433,2.256,2.697,2.522,2.836l0.05,0.026l0.057,0.009
	c2.575,0.458,2.614,2.654,2.614,2.749l0.003,0.798l0.602-0.527c0.642-0.562,0.756-1.514,0.756-2.128
	c0-0.026-0.003-0.022-0.006-0.046c3.183,0.781,8.932,5.119,8.992,5.165L220.688,175.815L220.688,175.815z"/>
<path fill-rule="evenodd" clip-rule="evenodd" fill="#0E51A0" d="M207.244,168.587l-0.104-0.035c0.036,0.006,0.06,0.022,0.096,0.028
	c-0.854-0.444-2.175-1.416-2.126-2.138c0.034-0.496,0.759-0.855,1.358-1.07c0.044-0.019,3.244-1.155,6.159,0.331
	c-0.418,0.114-1.547,0.426-1.547,0.426l0.592,0.445c1.816,1.371,5.938,4.828,7.46,7.186c-2.054-1.456-6.085-4.134-8.485-4.495
	l-0.482-0.071l0.067,0.484c0.018,0.11,0.031,0.277,0.031,0.471c0,0.213-0.161,0.416-0.211,0.657
	c-0.332-0.855-1.062-1.878-2.816-2.226C207.239,168.583,207.242,168.586,207.244,168.587L207.244,168.587z"/>
<path fill-rule="evenodd" clip-rule="evenodd" fill="#957948" d="M207.244,168.587c-0.002-0.001-0.005-0.005-0.008-0.006
	c-0.036-0.006-0.06-0.022-0.096-0.028L207.244,168.587L207.244,168.587z"/>
<path fill-rule="evenodd" clip-rule="evenodd" fill="#957948" d="M205.09,156.965L205.09,156.965
	c-0.033-0.008-0.055-0.023-0.088-0.03L205.09,156.965L205.09,156.965z"/>
<path fill-rule="evenodd" clip-rule="evenodd" fill="#957948" d="M218.154,161.063l-0.358-0.958
	c-1.586-4.244-6.948-6.06-8.166-6.427c1.523-2,1.952-3.734,1.952-4.787c0-0.687-0.135-1.101-0.148-1.143l-0.21-0.621l-0.415,0.507
	c-3.45,4.218-6.497,4.43-6.523,4.431c-1.539,0.718-2.25,1.526-2.253,2.438c-0.005,1.732,2.624,3.055,2.733,3.111l0.044,0.021
	l0.044,0.01c2.038,0.427,2.295,2.342,2.306,2.423l0.127,1.018l0.542-0.867c0.395-0.626,0.501-1.436,0.501-2.142
	c0-0.444-0.039-0.826-0.083-1.114c3.026,0.102,8.963,3.543,9.025,3.581L218.154,161.063L218.154,161.063z"/>
<path fill-rule="evenodd" clip-rule="evenodd" fill="#0E51A0" d="M205.09,156.965c-0.651-0.324-2.333-1.395-2.331-2.459
	c0.003-0.611,0.576-1.201,1.7-1.75c-0.005,0.027,2.931-0.261,6.367-4.112c0.011,0.117,0.031,0.099,0.031,0.252
	c0,0.989-0.321,2.697-2.045,4.751l-0.366,0.436l0.55,0.148c0.058,0.016,5.044,1.559,7.292,4.942
	c-2.116-1.129-6.215-3.133-8.506-2.957l-0.421,0.034l0.094,0.41c0.005,0.012,0.147,0.666,0.147,1.434c0,0.231-0.116,0.44-0.15,0.676
	C207.078,158.065,206.388,157.269,205.09,156.965L205.09,156.965z"/>
<path fill-rule="evenodd" clip-rule="evenodd" fill="#957948" d="M212.114,118.104c0-5.238-1.927-9.154-1.971-9.235
	c-0.786-1.638-2.128-2.758-3.992-3.32c-8.807-2.658-26.532,7.819-27.282,8.267c-5.903-1.904-11.278-0.716-11.507-0.666l0.057,0.717
	c19.302,1.335,25.573,15.783,25.635,15.929l0.216,0.516l0.384-0.406c2.508-2.652,4.211-9.8,4.283-10.103l-0.642-0.308
	c-0.683,0.874-1.544,1.365-2.562,1.461c-2.245,0.214-4.609-1.447-5.436-2.088c0.748-0.524,12.202-8.543,12.202-8.543
	c1.168-0.995,2.186-1.314,3.05-0.971c2.744,1.086,3.538,8.096,3.546,8.167c2.619,9.104-12.622,17.19-12.775,17.271l-0.559,0.291
	l0.603,0.37c0.747,0.479,3.82,7.992,6.331,14.817l0.443,1.211l0.255-1.264c0.168-0.857,0.241-1.768,0.241-2.697
	c0-4.868-1.941-10.075-2.267-10.909C209.791,131.02,212.114,123.788,212.114,118.104L212.114,118.104z"/>
<path fill-rule="evenodd" clip-rule="evenodd" fill="#0E51A0" d="M199.753,136.169l-0.27,0.157l0.114,0.292
	c0.028,0.067,2.308,5.87,2.308,10.936c0,0.335-0.065,0.639-0.086,0.963c-1.838-4.922-4.438-11.553-5.765-13.301
	c1.983-1.083,13.087-7.499,13.087-15.477c0-0.773-0.104-1.56-0.335-2.358c-0.021-0.244-0.841-7.453-3.989-8.703
	c-1.137-0.45-2.403-0.088-3.759,1.072l-12.957,9.07l0.351,0.305c0.132,0.117,3.299,2.845,6.349,2.555
	c0.808-0.077,1.498-0.432,2.131-0.914c-0.542,1.984-1.843,6.052-3.496,8.152c-1.279-2.523-7.717-13.124-23.268-15.344
	c2.139-0.16,5.251-0.164,8.778,0.902c0.476-0.144,18.494-10.798,26.995-8.232c1.658,0.501,2.855,1.492,3.554,2.947
	c0.161,0.32,1.985,4.038,1.985,8.965C211.48,123.667,209.199,130.69,199.753,136.169L199.753,136.169z"/>
<path fill-rule="evenodd" clip-rule="evenodd" fill="#957948" d="M200.717,104.269c-13.978-22.298-33.71-14.709-33.907-14.63
	c-6.702,1.421-13.217-2.537-13.281-2.579c-6.338-6.424-12.483-2.27-12.543-2.227c-4.324,1.447-25.958,18.295-26.876,19.012
	l0.425,0.59c17.413-11.689,26.516-12.931,31.087-11.914c1.939,0.431,2.931,1.251,3.382,1.729
	c-8.756,2.349-21.459,8.738-21.591,8.804c0,0,0.014,0.019,0.016,0.021c-0.021,0.018-0.092,0.028-0.109,0.048l0.423,0.579
	c0.017-0.009,0.268-0.134,0.682-0.339c2.445-0.99,11.976-1.412,19.319-1.473c-3.154,1.486-8.651,4.729-8.941,4.901
	c0,0,0.014,0.019,0.016,0.022c-0.02,0.016-0.073,0.018-0.089,0.035l0.442,0.568c0.038-0.022,0.109-0.064,0.146-0.084
	c1.047-0.862,7.582-0.088,12.174,0.701c-3.186,1.659-7.029,4.594-7.208,4.734l0.327,0.634c14.729-4.36,21.734-0.809,21.805-0.774
	l0.454-0.547c-0.023-0.029-0.091-0.063-0.117-0.091l0.003-0.003c0,0-0.011-0.004-0.011-0.005c-1.113-1.27-4.158-2.744-6.208-3.645
	c1.858,0.106,4.191,0.244,4.191,0.244l0.205-0.678c0,0-2.71-1.594-3.714-2.186c5.336-1.827,20.27-0.877,20.428-0.867l1.276,0.087
	l-1.046-0.744c-5.245-3.744-15.514-4.636-19.106-4.838c7.268-4.793,26.302,1.323,26.504,1.392l0.363-0.609
	c-4.772-4.57-15.446-6.427-21.4-7.138c22.141-1.483,31.791,11.555,31.893,11.697l0.604-0.402
	C200.732,104.29,200.717,104.271,200.717,104.269L200.717,104.269z"/>
<path fill-rule="evenodd" clip-rule="evenodd" fill="#0E51A0" d="M163.946,92.591l0.031,0.723
	c0.171,0.009,15.914,1.062,23.399,6.094c-5.608-1.619-20.671-5.305-26.203-0.019l-0.63,0.604l0.869,0.022
	c0.13,0.003,12.16,0.412,18.707,4.023c-4.187-0.215-15.933-0.633-19.953,1.245l-0.623,0.292c0,0,2.427,1.428,3.725,2.192
	c-1.738-0.101-4.766-0.279-4.766-0.279l-0.152,0.702c0.052,0.02,3.859,1.541,6.271,3.041c-2.92-0.777-9.043-1.416-18.509,1.088
	c1.643-1.201,4.438-3.151,6.631-4.135l1.064-0.478l-1.146-0.211c-1.577-0.29-7.923-1.387-11.541-1.209
	c2.998-1.725,7.427-4.182,8.596-4.414l-0.072-0.72c-1.575,0-12.39,0.035-18.426,0.874c4.515-2.131,12.534-5.714,18.516-7.231
	l0.468-0.121l-0.244-0.414c-0.042-0.073-1.043-1.729-4.117-2.432c-4.075-0.932-11.665-0.088-25.106,7.854
	c6.972-5.29,17.706-13.237,20.572-14.205c0.322-0.205,5.805-3.883,11.77,2.151c0.343,0.223,6.892,4.208,13.941,2.705
	c0.236-0.088,17.035-6.48,30.38,10.526C192.465,96.552,181.805,90.009,163.946,92.591L163.946,92.591z"/>
<path fill-rule="evenodd" clip-rule="evenodd" fill="#957948" d="M127.578,103.378c0.152-0.154,0.466-0.291,0.846-0.42
	C127.898,103.216,127.578,103.378,127.578,103.378L127.578,103.378z"/>
<path fill-rule="evenodd" clip-rule="evenodd" fill="#957948" d="M139.398,106.862c-0.176,0.066-0.318,0.146-0.411,0.241
	C138.987,107.103,139.139,107.014,139.398,106.862L139.398,106.862z"/>
<path fill-rule="evenodd" clip-rule="evenodd" fill="#957948" d="M128.424,102.958c-0.38,0.129-0.694,0.266-0.846,0.42
	C127.578,103.378,127.898,103.216,128.424,102.958L128.424,102.958z"/>
<path fill-rule="evenodd" clip-rule="evenodd" fill="#957948" d="M131.835,113.779c-0.458-0.412-18.177-10.888-26.987-8.231
	c-1.864,0.562-3.209,1.681-4,3.328c-0.039,0.078-1.962,3.988-1.962,9.221c0,5.686,2.322,12.919,11.747,18.512
	c-0.325,0.835-2.273,6.049-2.273,10.918c0,0.925,0.073,1.833,0.243,2.688l0.251,1.266l0.445-1.212
	c2.511-6.825,5.586-14.338,6.333-14.817l0.529-0.336l-0.483-0.324c-0.156-0.081-15.397-8.166-12.795-17.209
	c0.019-0.132,0.82-7.142,3.565-8.228c0.864-0.344,1.88-0.024,3.016,0.949c0,0,11.477,8.042,12.227,8.567
	c-0.824,0.639-3.183,2.298-5.428,2.087c-1.019-0.095-1.886-0.588-2.572-1.461l-0.64,0.308c0.071,0.302,1.782,7.451,4.295,10.103
	l0.383,0.405l0.216-0.514c0.06-0.146,6.331-14.594,25.629-15.929l0.056-0.717C143.408,113.099,138.037,111.912,131.835,113.779
	L131.835,113.779z"/>
<path fill-rule="evenodd" clip-rule="evenodd" fill="#0E51A0" d="M114.058,120.765c0.636,0.483,1.33,0.84,2.143,0.915
	c3.05,0.286,6.206-2.438,6.34-2.555l0.348-0.305l-12.979-9.092c-1.329-1.14-2.594-1.5-3.729-1.05
	c-3.148,1.246-3.974,8.458-4.008,8.764c-0.227,0.789-0.331,1.566-0.331,2.333c0,7.938,11.117,14.359,13.099,15.441
	c-1.325,1.748-3.929,8.379-5.764,13.301c-0.022-0.322-0.087-0.623-0.087-0.954c0-5.067,2.286-10.877,2.312-10.945l0.115-0.292
	l-0.271-0.157c-9.447-5.48-11.73-12.507-11.73-18.016c0-4.924,1.824-8.637,1.983-8.955c0.702-1.461,1.897-2.453,3.559-2.954
	c8.502-2.565,26.514,8.088,26.695,8.195c3.725-1.048,6.914-1.03,9.08-0.865c-15.553,2.219-21.989,12.824-23.268,15.345
	C115.903,126.818,114.602,122.747,114.058,120.765L114.058,120.765z"/>
<path fill-rule="evenodd" clip-rule="evenodd" fill="#957948" d="M186.591,127.181l0.501-0.52
	c-13.113-16.728-29.619-5.967-30.479-5.386c-19.079-7.643-32.834,9.188-32.972,9.358l0.454,0.549
	c20.504-10.916,29.184-5.175,29.27-5.114c0.918,0.579,1.172,1.328,1.172,1.984c0,0.592-0.179,1.017-0.299,1.262
	c-9.225-2.898-15.903-2.845-19.811,0.21c-3.711,2.902-3.461,7.38-3.45,7.569l0.055,0.837l0.572-0.613
	c9.412-10.066,17.348-4.546,17.68-4.305c2.917,1.887,3.512,3.724,3.512,4.91c0,0.546-0.107,0.881-0.192,1.094
	c-4.82-1.519-8.525-1.415-10.934,0.427c-3.116,2.384-2.925,6.653-2.917,6.834l0.047,0.872l0.586-0.647
	c5.908-6.528,11.095-4.45,12.827-3.458c-2.897,0.745-5.114,3.231-5.215,3.351l-0.863,1.034l1.265-0.459
	c2.317-0.841,4.157,0.402,4.438,0.605c-0.119,0.484-0.201,1.058-0.201,1.714c0,1.461,0.206,3.006,0.221,3.104l0.724-0.051
	c0-1.239,1.66-3.454,2.465-4.406c1.62,0.445,5.163,3.399,6.445,4.553l0.773,0.698l-0.174-1.028
	c-0.631-3.792-2.422-5.092-3.512-5.574c1.214-0.393,3.631-0.237,5.19,0.029l0.961,0.166l-0.618-0.752
	c-1.596-1.943-5.237-2.456-6.261-2.567c0.102-0.449,0.278-1.217,0.278-1.217c4.814-3.704,10.31-1.268,10.364-1.243
	c1.022,1.985,2.183,3.048,3.286,3.007c1.165-0.043,1.744-1.271,1.771-1.322c-1.462-3.562-3.574-5.608-6.282-6.38
	c-4.093-1.167-8.285,0.874-9.874,1.787c0.175-1.073,0.615-3.822,0.615-3.822c8.156-8.58,22.938-1.905,23.084-1.839l1.173,0.542
	l-0.719-1.073c-7.349-10.97-20.592-4.916-23.554-3.375c0.493-1.563,1.675-3.409,1.688-3.431
	C170.628,115.786,186.433,127.063,186.591,127.181L186.591,127.181z"/>
<path fill-rule="evenodd" clip-rule="evenodd" fill="#0E51A0" d="M157.047,129.196l-0.104,0.75l0.648-0.387
	c0.148-0.088,14.344-8.227,22.419,1.674c-3.888-1.439-15.493-4.853-22.623,2.732l-0.836,4.788l-0.136,0.828l0.696-0.468
	c0.052-0.034,5.223-3.459,9.962-2.105c2.469,0.707,4.412,2.606,5.78,5.623c-0.108,0.015-0.498,0.633-1.103,0.653
	c-0.787,0.026-1.775-0.964-2.788-2.788c-0.226-0.182-6.11-2.806-11.413,1.382l-0.498,1.815l-0.094,0.409l0.421,0.034
	c0.033,0.004,3.141,0.336,5.115,1.584c-1.655-0.176-4.257-0.286-5.115,0.666l-0.46,0.514l0.688,0.089
	c0.106,0.015,2.339,0.536,3.393,4.116c-1.531-1.302-4.482-3.674-5.998-3.962l-0.202-0.039l-0.141,0.156
	c-0.078,0.094-1.448,1.699-2.24,3.28c-0.024-0.42-0.056-0.85-0.056-1.272c0-0.708,0.051-1.363,0.194-1.765l0.091-0.247l-0.206-0.162
	c-0.083-0.065-1.807-1.288-4.092-1.018c0.963-0.912,2.714-2.322,4.771-2.558l0.882-0.101l-0.7-0.546
	c-0.068-0.052-6.503-4.806-13.783,2.519c0.096-1.282,0.531-3.795,2.597-5.37c2.27-1.733,5.837-1.816,10.601-0.248l0.287,0.093
	l0.145-0.262c0.022-0.038,1.956-3.689-3.455-7.19c-0.068-0.05-8.374-5.762-17.951,3.806c0.093-1.336,0.579-4.131,3.139-6.126
	c3.756-2.928,10.3-2.931,19.446-0.004l0.281,0.088l0.147-0.248c0.571-0.964,1.105-3.138-0.989-4.466
	c-0.335-0.237-8.655-5.616-28.309,4.271c3.665-3.77,15.54-14.073,31.069-7.729l0.184,0.075l0.164-0.114
	c0.641-0.45,15.114-10.129,27.686,3.108c-4.966-2.822-16.589-7.979-25.417-0.455C159.004,124.806,157.299,127.395,157.047,129.196
	L157.047,129.196z"/>
<path fill-rule="evenodd" clip-rule="evenodd" fill="#957948" d="M132.52,164.943c-2.166,0.681-7.487-0.272-7.544-0.284
	c-2.827-0.462-4.664-1.542-5.469-3.209c-0.34-0.709-0.467-1.469-0.467-2.21c0-2.184,1.111-4.201,1.125-4.227
	c1.151-1.306,1.388-2.934,1.388-4.05c0-0.735-0.103-1.246-0.113-1.297c-0.414-0.843-0.558-2.071-0.558-3.36
	c0-2.001,0.34-4.107,0.539-5.185c0.714,0.86,3.531,4.258,3.531,4.258l-0.297-1.425c-0.005-0.02-0.005-0.042-0.005-0.063
	c0-0.226,0.25-0.554,0.454-0.855c5.727,8.183,16.007,4.845,16.112,4.808l-0.115-0.707c-13.23-0.12-15.251-12.811-15.33-13.351
	c0.117-1.423,1.292-3.336,1.304-3.354l0.431-0.696l-0.806,0.146c-2.345,0.426-4.61,2.865-5.403,3.792
	c-0.327-0.687-1.12-2.352-1.12-2.352l-0.691,0.143c0,0-0.057,1.623-0.091,2.604c-1.572-1.7-4.305-2.186-4.439-2.204l-1.044-0.144
	l0.733,0.756c2.48,2.562,2.979,5.668,2.979,7.752c0,1.386-0.222,2.321-0.227,2.344c-0.189,0.242-0.267,0.536-0.267,0.863
	c0,0.96,0.68,2.196,1.214,3.166c0,0,0.068,0.136,0.105,0.21c-0.191-0.132-0.885-0.618-0.885-0.618
	c-0.75-0.395-1.869-1.851-2.237-2.38l-0.718-1.028l0.056,1.254c0.128,2.802,2.2,5.895,2.288,6.023
	c0.491,0.628,0.643,1.752,0.643,2.842c0,1.011-0.126,1.838-0.236,2.363c-0.039-0.048-0.123-0.15-0.123-0.15l-3.472-1.879l0.706,1.15
	c0.88,1.472,1.512,8.275,1.684,10.772c0.438,2.431,1.59,4.127,3.425,5.083c4.968,2.584,13.17-1.13,13.517-1.292
	c5.23-1.367,6.976,2.965,7.046,3.149l0.481,1.242l0.218-1.313c0.256-1.561-0.955-5.348-1.006-5.509
	C137.166,162.474,132.566,164.918,132.52,164.943L132.52,164.943z"/>
<path fill-rule="evenodd" clip-rule="evenodd" fill="#0E51A0" d="M132.851,168.268c-0.142,0.06-8.287,3.752-12.938,1.329
	c-1.625-0.845-2.649-2.367-3.041-4.525c-0.018-0.292-0.49-7.125-1.387-10.078c0.629,0.339,1.322,0.711,1.322,0.711l0.671,0.641
	l0.398-0.189c0.171-0.285,0.448-1.707,0.448-3.212c0-1.245-0.191-2.546-0.786-3.308c-0.005-0.006-1.316-2.045-1.871-4.208
	c0.472,0.549,1.043,1.138,1.544,1.402c-0.023-0.015,0.405,0.289,0.405,0.289l1.553,1.047l0.269-0.34
	c0.067-0.086,0.097-0.179,0.097-0.287c0-0.28-0.21-0.662-0.557-1.29c-0.434-0.786-1.098-1.992-1.098-2.812
	c0-0.22,0.048-0.412,0.158-0.561c0.052-0.154,0.314-1.228,0.314-2.754c0-2.012-0.542-4.793-2.546-7.308
	c1.094,0.293,2.834,0.935,3.6,2.319l0.635,1.15c0,0,0.082-2.331,0.115-3.307c0.359,0.754,0.974,2.042,0.974,2.042l0.362-0.458
	c0.023-0.031,2.205-2.654,4.47-3.596c-0.377,0.755-0.838,1.833-0.915,2.848c0.021,0.205,2.084,12.338,14.017,13.777
	c-3.212,0.556-9.772,0.801-13.721-5.378l-0.263-0.408l-0.318,0.366c-0.105,0.121-0.413,0.586-0.625,1.094
	c-0.622-0.75-3.108-3.748-3.108-3.748l-0.176,0.702c-0.063,0.279-1.495,6.868-0.096,9.682c-0.024-0.06,0.526,2.746-1.182,4.694
	c-0.135,0.222-2.236,4.023-0.724,7.167c0.912,1.896,2.93,3.112,6.001,3.615c0.218,0.04,5.549,0.996,7.951,0.233
	c0.228-0.117,4.128-2.175,6.382,1.224c0.213,0.695,0.633,2.361,0.816,3.711C138.972,169.138,136.845,167.221,132.851,168.268
	L132.851,168.268z"/>
<path fill-rule="evenodd" clip-rule="evenodd" fill="#957948" d="M163.077,31.103c-4.247-0.568-7.185,2.222-8.939,3.887
	c-0.512,0.484-1.143,1.077-1.353,1.092c0,0,0.004,0,0.004-0.004c0-0.031-0.038-0.11-0.038-0.11c-0.49-1.563-0.738-2.901-0.738-4.01
	c0-1.433,0.41-2.483,1.227-3.14c4.615-3.718,20.537,5.302,20.7,5.393l0.446-0.563c-8.633-9.305-18.499-9.418-18.6-9.418
	c-7.276,0.114-11.75,1.723-13.303,4.785c-1.811,3.569,1.058,7.687,1.181,7.861c0.069,0.073,10.048,8.518,10.048,8.518l0.185,0.157
	l0.223-0.105c9.952-5.034,19.075,1.156,19.169,1.221l1.015,0.705l-0.472-1.141c-2.89-6.999-13.622-6.232-16.332-5.926
	c0.976-1.79,2.266-2.969,3.971-3.268c6.638-1.158,16.626,9.169,16.729,9.273l0.573-0.44C173.21,36.719,167.928,31.75,163.077,31.103
	L163.077,31.103z"/>
<path fill-rule="evenodd" clip-rule="evenodd" fill="#0E51A0" d="M161.343,36.32c-2.172,0.379-3.828,1.822-4.929,4.288l-0.268,0.606
	l0.654-0.1c0.124-0.018,11.346-1.491,15.395,4.124c-2.97-1.548-10.227-4.412-18.167-0.528c-0.316-0.27-9.839-8.328-9.839-8.328
	c0.041,0.034-2.671-3.866-1.056-7.041c1.422-2.802,5.682-4.276,12.658-4.385c0.086,0,8.23,0.199,16.093,7.335
	c-4.753-2.432-15.202-7.178-19.102-4.039c-1.703,1.372-1.948,4.043-0.724,7.935c0.106,0.336,0.29,0.541,0.546,0.607
	c0.539,0.142,1.103-0.393,2.031-1.276c1.661-1.577,4.443-4.217,8.343-3.696c4.096,0.549,8.586,4.609,13.334,11.707
	C172.865,40.451,166.381,35.44,161.343,36.32L161.343,36.32z"/>
<path fill-rule="evenodd" clip-rule="evenodd" fill="#957948" d="M162.706,56.096c0.005,0.109,0.031,0.197,0.039,0.311
	C162.745,56.407,162.737,56.284,162.706,56.096L162.706,56.096z"/>
<path fill-rule="evenodd" clip-rule="evenodd" fill="#957948" d="M163.108,56.388c-0.182-3.468-1.351-5.955-3.466-7.398
	c-3.88-2.64-9.493-0.805-9.732-0.725c-4.232,2.845-11.393,3.963-11.465,3.975c-0.008,0.001-0.013,0.002-0.022,0.004l0.132,0.715
	c0.003,0,0.023-0.005,0.025-0.005c13.842-2.989,19.653-1.305,22.087,0.636c1.553,1.239,1.664,2.453,1.683,2.685
	c0,0.059,0.028,0.094,0.028,0.151l0.729-0.019l-0.006-0.019H163.108L163.108,56.388z"/>
<path fill-rule="evenodd" clip-rule="evenodd" fill="#0E51A0" d="M146.009,50.967c1.492-0.558,2.968-1.211,4.22-2.056
	c-0.034,0.026,5.427-1.756,9.009,0.683c1.339,0.914,2.1,2.481,2.59,4.343c-0.246-0.308-0.29-0.579-0.675-0.888
	C159.121,51.407,154.841,49.943,146.009,50.967L146.009,50.967z"/>
<path fill-rule="evenodd" clip-rule="evenodd" fill="#957948" d="M162.706,56.096c0.031,0.188,0.039,0.311,0.039,0.311
	C162.737,56.293,162.711,56.205,162.706,56.096L162.706,56.096z"/>
<path fill-rule="evenodd" clip-rule="evenodd" fill="#957948" d="M158.138,47.277l0.067,0.716
	c0.111,0.004,10.938,0.481,12.121,4.789c0.07,0.247,0.104,0.503,0.104,0.77c0,2.644-3.385,6.236-9.786,10.45
	c-0.478-1.655-1.679-4.257-4.927-6.214c-5.554-3.347-14.581-3.418-26.827-0.213l0.135,0.712c0.176-0.02,17.714-2.006,21.182,3.29
	c0.383,0.584,0.575,1.247,0.575,1.985c0,0.94-0.432,2.045-1.053,3.22c-2.798-2.182-19.933-13.791-50.25,1.83
	c-0.001,0-0.024,0.011-0.024,0.011c-0.005,0.002-0.011,0.004-0.016,0.006l0.316,0.655c0.234-0.107,23.252-10.351,36.649,0.504
	c-2.099,0.789-9.119,3.676-14.664,8.875l0.42,0.584c0.128-0.067,12.838-6.83,28.696-7.749c1.025-0.326,22.952-7.681,26.991-18.321
	C177.836,52.859,175.098,43.303,158.138,47.277L158.138,47.277z"/>
<path fill-rule="evenodd" clip-rule="evenodd" fill="#0E51A0" d="M124.353,77.4c6.045-4.801,12.873-7.142,12.95-7.168l0.604-0.201
	l-0.479-0.418c-8.945-7.765-22.295-5.831-30.554-3.542c27.985-11.345,42.632,1.449,42.787,1.591l0.332,0.304l0.227-0.388
	c1.493-2.568,1.698-4.721,0.598-6.399c-2.476-3.777-11.013-4.154-16.669-3.966c9.413-1.862,16.623-1.556,21.196,1.201
	c3.33,2.006,4.41,4.781,4.755,6.255l0.117,0.504l0.434-0.281c6.979-4.53,10.507-8.339,10.507-11.34c0-0.331-0.047-0.65-0.13-0.961
	c-0.939-3.414-6.689-4.635-10.154-5.073c13.869-2.318,16.191,5.281,16.285,5.627c-3.906,10.094-26.211,17.575-26.436,17.647
	C138.927,71.466,128.854,75.382,124.353,77.4L124.353,77.4z"/>
<path fill-rule="evenodd" clip-rule="evenodd" fill="#957948" d="M113.375,73.445c-3.94-5.303-17.599-3.491-18.179-3.411l0.04,0.724
	c16.502,0.43,17.373,9.75,17.403,10.146l0.103,1.413l0.59-1.286C114.769,77.893,114.785,75.34,113.375,73.445L113.375,73.445z"/>
<path fill-rule="evenodd" clip-rule="evenodd" fill="#0E51A0" d="M113.692,76.74c0,0.78-0.377,1.737-0.681,2.658
	c-0.827-2.523-3.823-7.547-13.66-8.945c4.375-0.154,11.032,0.181,13.44,3.424C113.392,74.686,113.692,75.644,113.692,76.74
	L113.692,76.74z"/>
<path fill-rule="evenodd" clip-rule="evenodd" fill="#957948" d="M114.096,82.091c-0.039,0.001-4.088,0.279-8.767,1.205
	c-0.344-0.769-2.235-4.602-6.792-6.31c-3.809-1.429-8.327-0.854-13.428,1.71l0.249,0.679c0.073-0.018,7.303-1.743,11.157,1.577
	c1.611,1.389,2.424,3.486,2.424,6.242c0,0.359-0.027,0.74-0.053,1.122c-1.482-0.074-12.142-0.296-18.087,8.321l0.551,0.469
	c0.035-0.035,3.605-3.404,7.251-2.513c2.505,0.611,4.503,3.072,5.941,7.311l0.444,1.309l0.258-1.356
	c0.021-0.114,2.357-11.456,19.026-19.073L114.096,82.091L114.096,82.091z"/>
<path fill-rule="evenodd" clip-rule="evenodd" fill="#0E51A0" d="M88.77,93.886c-2.124-0.52-4.126,0.228-5.605,1.06
	c6.332-6.576,15.93-5.904,16.036-5.895l0.358,0.03l0.034-0.358c0.347-3.736-0.531-6.536-2.604-8.323
	c-2.583-2.222-6.261-2.331-8.854-2.114c3.785-1.408,7.219-1.716,10.14-0.623c4.646,1.738,6.496,6.131,6.514,6.176l0.113,0.278
	l0.296-0.061c2.94-0.594,5.522-0.907,7.172-1.076C99.524,89.423,95.73,97.913,94.83,100.712
	C93.332,96.852,91.315,94.506,88.77,93.886L88.77,93.886z"/>
<path fill-rule="evenodd" clip-rule="evenodd" fill="#957948" d="M94.666,105.147l-0.625-0.153
	c-0.255-0.063-6.349-1.458-12.709,4.474l0.436,0.578c0.031-0.02,3.081-1.824,6.148-0.923c1.849,0.542,3.348,1.958,4.456,4.206
	l0.689-0.172c-0.051-1.722,0.057-6.444,1.154-7.553L94.666,105.147L94.666,105.147z"/>
<path fill-rule="evenodd" clip-rule="evenodd" fill="#0E51A0" d="M92.33,112.038c-1.128-1.796-2.493-3.11-4.215-3.615
	c-1.567-0.458-3.057-0.279-4.261,0.038c4.341-3.048,8.271-2.998,9.564-2.832C92.526,107.138,92.34,110.283,92.33,112.038
	L92.33,112.038z"/>
<path fill-rule="evenodd" clip-rule="evenodd" fill="#957948" d="M93.855,121.662l-0.076-0.33l-0.334,0.052
	c-9.873,1.501-9.487,11.534-9.483,11.634l0.053,1.043l0.606-0.85c1.864-2.612,3.897-3.969,6.044-4.032
	c3.359-0.1,5.927,3.036,5.953,3.068l0.606-0.391C95.329,128.028,93.871,121.725,93.855,121.662L93.855,121.662z"/>
<path fill-rule="evenodd" clip-rule="evenodd" fill="#0E51A0" d="M84.707,132.104c0.121-2.309,1.152-8.6,8.528-9.916
	c0.214,0.901,1.237,4.907,2.668,8.377c-1.151-0.985-2.966-2.179-5.256-2.114C88.514,128.513,86.539,129.855,84.707,132.104
	L84.707,132.104z"/>
<path fill-rule="evenodd" clip-rule="evenodd" fill="#957948" d="M99.753,134.786c-10.969-2.132-15.983,7.652-17.262,10.687
	c-1.438-3.604-2.243-7-2.243-10.111c0-2.7,0.541-5.207,1.627-7.501c3.75-7.931,12.818-10.645,12.909-10.672l0.915-0.266
	l-0.858-0.411c-5.185-2.487-9.656-2.73-13.288-0.728c-4.887,2.693-7.023,8.671-7.919,12.327c-0.01-0.45-0.056-0.942-0.056-1.378
	c0-23.868,16.897-26.325,17.078-26.348l1.404-0.179l-1.316-0.519c-9.062-3.569-15.06,3.43-17.227,6.619
	c1.283-12.602,11.823-25.708,11.935-25.847l-0.509-0.512c-34.749,28.162,0.96,82.791,1.325,83.339l0.762,1.145l-0.097-1.372
	c-1.328-18.836,12.794-27.515,12.937-27.601l0.815-0.488L99.753,134.786L99.753,134.786z"/>
<path fill-rule="evenodd" clip-rule="evenodd" fill="#0E51A0" d="M86.119,160.576c0,0.38,0.03,0.781,0.042,1.169
	c-3.082-4.998-15.68-26.769-15.68-48.502c0-10.812,3.197-21.571,12.189-30.238c-3.449,4.928-9.761,15.192-10.094,24.916l0.688,0.179
	c0.24-0.468,5.827-10.7,15.724-8.04c-4.24,1.207-16.136,6.357-16.136,26.656c0,1.422,0.06,2.92,0.183,4.496l0.723,0.014
	c0.013-0.111,1.373-11.077,8.148-14.807c3.202-1.765,7.163-1.568,11.726,0.41c-2.432,0.916-9.221,3.975-12.41,10.713
	c-1.134,2.397-1.703,5.008-1.703,7.817c0,3.477,0.87,7.255,2.606,11.304l0.379,0.885l0.299-0.915
	c0.178-0.538,4.384-12.75,15.867-11.229C95.809,137.462,86.119,145.53,86.119,160.576L86.119,160.576z"/>
<path fill-rule="evenodd" clip-rule="evenodd" fill="#957948" d="M147.83,163.83c-0.044-0.024-4.28-2.619-1.569-11.754l-0.655-0.296
	c0,0-1.274,2.567-1.774,3.573c-0.706-1.46-2.875-4.883-8.04-4.982c-0.078-0.004-9.08-0.542-9.653-5.15l-0.719-0.008
	c-0.022,0.142-0.104,0.732-0.104,1.433c0,0.345,0.073,0.709,0.13,1.068c-1.005-1.003-2.361-2.745-3.276-5.779l-0.41-1.361
	l-0.293,1.39c-0.036,0.172-0.869,4.236,0.262,7.643c0.269,0.697,0.853,2.791,0.102,3.461c-0.104,0.144-3.024,5.416,3.025,8.91
	l0.465-0.544c-0.009-0.01-0.485-0.753-0.874-1.638c0.406,0.243,0.84,0.506,1.523,0.61l1.054,0.161l-0.736-0.771
	c-0.027-0.029-2.596-2.755-2.596-5.393c0-0.174,0.012-0.347,0.036-0.519c0.142-1.029,0.794-1.878,1.816-2.582
	c0.275,0.527,0.898,1.713,0.898,1.714c0,0.167,0.906,6.549,5.673,9.246c2.862,1.617,6.492,1.502,10.768-0.276
	c0.259,0.652,0.715,1.381,1.281,1.781c-0.68,0.635-2.625,2.897-2.625,8.488c0,1.872,0.229,4.105,0.81,6.754l0.719-0.078
	c0-0.106,0.059-10.684,4.809-14.501l0.413-0.333L147.83,163.83L147.83,163.83L147.83,163.83z M132.565,159.891
	c-3.383-1.991-4.099-6.712-4.251-8.244c0.746,0.453,1.813,0.947,3.33,1.495c-0.564,0.693-1.037,1.452-1.037,2.31
	c0,2.253,2.074,4.087,4.622,4.087c2.481,0,4.479-1.748,4.585-3.919c0.448,0.113,0.989,0.253,1.351,0.345
	c-0.049,0.181-0.144,0.341-0.144,0.54c0,1.046,0.533,2.099,0.81,2.606C137.999,160.96,134.873,161.249,132.565,159.891
	L132.565,159.891L132.565,159.891z M136.413,156.291c-0.68,0-1.235-0.559-1.235-1.246c0-0.689,0.555-1.25,1.235-1.25
	c0.684,0,1.241,0.561,1.241,1.25C137.654,155.731,137.097,156.291,136.413,156.291L136.413,156.291z"/>
<path fill-rule="evenodd" clip-rule="evenodd" fill="#0E51A0" d="M142.542,175.818c-0.167-1.273-0.266-2.459-0.266-3.491
	c0-6.204,2.584-8.239,2.618-8.263l0.794-0.597l-1.067-0.053c-0.223-0.014-0.798-0.889-1.208-2l-0.132-0.362l-0.353,0.153
	c-4.207,1.825-7.724,1.969-10.452,0.427c-4.459-2.519-5.343-8.772-5.352-8.834l-1.326-2.572l-0.331,0.196
	c-1.443,0.855-2.27,1.99-2.459,3.365c-0.028,0.205-0.043,0.413-0.043,0.618c0,1.92,1.122,3.725,1.948,4.828
	c-0.552-0.305-0.925-0.619-0.942-0.643l-0.651,0.279c0.096,0.568,0.351,1.038,0.58,1.508c-1.652-1.397-2.168-2.929-2.168-4.197
	c0-1.467,0.606-2.568,0.657-2.661c0.423-0.369,0.563-0.962,0.563-1.586c0-1.133-0.46-2.37-0.539-2.574
	c-0.418-1.255-0.544-2.633-0.544-3.848c0-0.828,0.068-1.522,0.135-2.106c1.693,4.327,4.218,5.967,4.338,6.033l0.004-0.008
	c0.005,0.003,0.004,0.013,0.011,0.016l0.342-0.641l-0.017-0.013c-0.396-0.204-0.542-0.91-0.592-1.672
	c2.272,3.528,9.331,3.957,9.675,3.977c5.97,0.117,7.636,5.006,7.704,5.212l0.276,0.844c0,0,0.802-1.625,1.125-2.271
	c-0.17,1.03-0.258,1.973-0.258,2.807c0,4.184,1.77,5.944,2.498,6.506C143.98,167.022,142.903,172.381,142.542,175.818
	L142.542,175.818L142.542,175.818z M141.894,155.899l0.282-0.427l-3.081-0.787l0.03,0.767c0,1.852-1.748,3.36-3.896,3.36
	s-3.895-1.508-3.895-3.36c0-0.831,0.363-1.63,1.021-2.253l0.433-0.41l-0.562-0.197c-2.05-0.719-3.474-1.373-4.118-1.894
	l-0.623-0.502l0.031,0.799c0.012,0.284,0.328,6.958,4.676,9.521c2.606,1.534,6.071,1.235,10.301-0.891l0.348-0.176l-0.199-0.335
	C142.116,158.229,141.446,156.572,141.894,155.899L141.894,155.899L141.894,155.899z M136.413,153.068
	c-1.083,0-1.962,0.886-1.962,1.977c0,1.087,0.88,1.974,1.962,1.974c1.085,0,1.967-0.886,1.967-1.974
	C138.38,153.955,137.498,153.068,136.413,153.068L136.413,153.068z"/>
<path fill-rule="evenodd" clip-rule="evenodd" fill="#957948" d="M189.226,153.158l-0.026-0.051l-0.047-0.04
	c-0.75-0.671-0.163-2.766,0.097-3.444c1.134-3.425,0.298-7.487,0.262-7.66l-0.293-1.39l-0.41,1.361
	c-0.914,3.029-2.266,4.771-3.271,5.775c0.055-0.357,0.132-0.716,0.132-1.058c0-0.705-0.085-1.298-0.105-1.441l-0.722,0.009
	c-0.571,4.608-9.573,5.146-9.664,5.15c-5.157,0.1-7.322,3.522-8.028,4.983c-0.501-1.006-1.778-3.574-1.778-3.574l-0.653,0.296
	c2.712,9.136-1.517,11.73-1.563,11.754l-0.454,0.266l0.41,0.331c4.745,3.819,4.805,14.397,4.805,14.503l0.714,0.078
	c0.584-2.65,0.813-4.884,0.813-6.755c0-5.589-1.944-7.852-2.624-8.486c0.568-0.397,1.022-1.129,1.277-1.781
	c4.282,1.779,7.911,1.894,10.774,0.275c4.773-2.701,5.669-9.097,5.707-9.368c0,0,0.587-1.085,0.862-1.594
	c1.02,0.701,1.669,1.552,1.812,2.581c0.026,0.171,0.034,0.345,0.034,0.52c0,2.638-2.563,5.366-2.594,5.395l-0.731,0.771l1.051-0.161
	c0.688-0.104,1.119-0.367,1.524-0.61c-0.385,0.885-0.862,1.627-0.872,1.638l0.467,0.544
	C192.177,158.483,189.257,153.211,189.226,153.158L189.226,153.158L189.226,153.158z M178.415,159.891
	c-2.306,1.358-5.436,1.068-9.265-0.78c0.278-0.506,0.811-1.559,0.811-2.604c0-0.2-0.094-0.362-0.144-0.542
	c0.358-0.092,0.896-0.229,1.345-0.345c0.106,2.171,2.105,3.919,4.589,3.919c2.55,0,4.626-1.834,4.626-4.087
	c0-0.854-0.473-1.617-1.038-2.31c1.519-0.548,2.582-1.042,3.33-1.497C182.513,153.177,181.799,157.9,178.415,159.891
	L178.415,159.891L178.415,159.891z M177.387,155.984c-0.683,0-1.233-0.558-1.233-1.243c0-0.689,0.551-1.25,1.233-1.25
	c0.686,0,1.24,0.561,1.24,1.25C178.627,155.426,178.072,155.984,177.387,155.984L177.387,155.984z"/>
<path fill-rule="evenodd" clip-rule="evenodd" fill="#0E51A0" d="M187.66,158.868l-0.648-0.279
	c-0.016,0.023-0.393,0.338-0.945,0.643c0.825-1.104,1.944-2.91,1.944-4.829c0-0.207-0.011-0.413-0.039-0.619
	c-0.189-1.375-1.015-2.507-2.455-3.363l-0.327-0.196l-1.296,2.452c-0.049,0.184-0.932,6.435-5.388,8.954
	c-2.726,1.543-6.245,1.399-10.453-0.426l-0.353-0.153l-0.133,0.362c-0.407,1.112-0.986,1.987-1.21,2l-0.999,0.052l0.727,0.599
	c0.034,0.024,2.619,2.06,2.619,8.261c0,1.033-0.102,2.219-0.268,3.494c-0.357-3.437-1.438-8.795-4.563-11.625
	c0.727-0.561,2.489-2.319,2.489-6.5c0-0.838-0.086-1.786-0.257-2.823c0.326,0.654,1.107,2.236,1.107,2.236l0.297-0.798
	c0.067-0.206,1.738-5.095,7.695-5.212c0.354-0.02,7.416-0.449,9.685-3.98c-0.049,0.765-0.192,1.471-0.595,1.676l-0.016,0.013
	l0.343,0.643c0.006-0.002,0.006-0.014,0.014-0.017l0.002,0.008c0.117-0.066,2.643-1.707,4.338-6.033
	c0.064,0.585,0.135,1.279,0.135,2.11c0,1.216-0.127,2.601-0.548,3.862c-0.07,0.188-0.514,1.373-0.514,2.506
	c0,0.663,0.153,1.308,0.62,1.726l-0.072-0.091c0.049,0.091,0.653,1.193,0.653,2.659c0,1.27-0.516,2.802-2.167,4.201
	C187.31,159.909,187.564,159.437,187.66,158.868L187.66,158.868L187.66,158.868z M182.874,150.697
	c-0.649,0.523-2.074,1.177-4.114,1.895l-0.561,0.197l0.431,0.41c0.028,0.026,0.036,0.061,0.063,0.088
	c0.218,0.197,0.397,0.431,0.512,0.71c0.262,0.457,0.446,0.941,0.446,1.455c0,1.852-1.75,3.36-3.899,3.36
	c-2.151,0-3.898-1.508-3.898-3.36v-0.468l-0.418-0.182l-2.627,0.668l0.281,0.43c0.446,0.674-0.224,2.33-0.748,3.215l-0.202,0.335
	l0.348,0.176c4.229,2.126,7.696,2.424,10.3,0.891c4.35-2.563,4.669-9.237,4.68-9.521l0.031-0.797L182.874,150.697L182.874,150.697
	L182.874,150.697z M179.204,153.998c-0.144-0.25-0.296-0.495-0.512-0.71c-0.346-0.317-0.8-0.523-1.306-0.523
	c-1.08,0-1.96,0.886-1.96,1.977c0,1.086,0.88,1.97,1.96,1.97c1.085,0,1.968-0.884,1.968-1.97
	C179.354,154.478,179.297,154.227,179.204,153.998L179.204,153.998z"/>
<path fill-rule="evenodd" clip-rule="evenodd" fill="#957948" d="M178.692,153.288c0.216,0.215,0.368,0.459,0.512,0.71
	C179.09,153.718,178.91,153.485,178.692,153.288L178.692,153.288z"/>
<path fill-rule="evenodd" clip-rule="evenodd" fill="#957948" d="M121.982,225.25c-8.739-3.703-23.109-12.932-26.416-33.979
	c1.173-3.23,3.818-9.296,6.225-10.162c0.283,0.256,0.933,0.791,1.751,0.791c0.257,0,0.689,0,0.744-0.374
	c0.053-0.387-0.398-0.518-0.643-0.589c-0.021-0.117-0.507-0.842-0.404-1.441c0.053-0.304,0.25-0.55,0.606-0.754l0.064-0.045
	c0.21-0.192,2.053-1.91,1.63-3.25c-0.21-0.668-0.908-1.08-2.077-1.226c-0.241,0.008-4.349,0.281-5.548,2.283l-0.274,0.458
	c0,0,0.981,0.161,1.405,0.232c-0.808,0.985-3.329,4.333-4.354,8.64l-0.459-0.004c-0.024,0.313-2.229,31.311,14.174,38.841
	c0.032,0.017,4.883,2.507,13.763,5.225c8.618,2.641,15.729,6.666,23.773,13.471l0.481-0.545
	C146.28,242.688,132.007,229.493,121.982,225.25L121.982,225.25z"/>
<path fill-rule="evenodd" clip-rule="evenodd" fill="#0E51A0" d="M102.067,180.407l-0.152-0.154l-0.208,0.06
	c-2.832,0.815-5.527,7.242-6.628,10.182c-0.03-0.349-0.116-0.705-0.116-1.053c0-6.464,4.963-12.2,5.02-12.264l0.432-0.492
	c0,0-1.014-0.168-1.383-0.229c1.368-1.246,4.371-1.51,4.407-1.512c0.523,0.071,1.259,0.256,1.406,0.72
	c0.214,0.679-0.761,1.89-1.426,2.493l0.065-0.045c-0.549,0.312-0.873,0.737-0.962,1.261c-0.017,0.099-0.023,0.198-0.023,0.295
	c0,0.479,0.183,0.933,0.373,1.273C102.518,180.76,102.199,180.538,102.067,180.407L102.067,180.407z"/>
<path fill-rule="evenodd" clip-rule="evenodd" fill="#0E51A0" d="M121.7,225.919c-8.729-3.697-22.83-12.985-26.503-33.6
	l-0.269,0.809c0.379,9.547,2.688,25.792,13.797,30.891c0.047,0.026,4.848,2.486,13.659,5.185c5.632,1.724,10.627,4.14,15.649,7.411
	C133.141,232.685,126.86,228.102,121.7,225.919L121.7,225.919z"/>
<path fill-rule="evenodd" clip-rule="evenodd" fill="#957948" d="M105.442,165.103c-0.155-0.073-4.105-1.922-7.687,0.309
	l-0.645,0.401c0,0,1.263,0.442,1.761,0.616c-1.918,1.306-7.891,5.534-8.406,7.958l-0.186,0.871l0.742-0.493
	c0.064-0.042,6.104-4.016,9.329-4.576c-0.013,0.14-0.031,0.157-0.031,0.347c0,0.501,0.196,1.086,0.524,1.58
	c-0.001,0-0.005,0.024-0.005,0.024l0.01-0.005c0.06,0.087,0.017,0.205,0.095,0.282l0.566,0.574l0.055-0.806
	c0.006-0.093,0.184-2.279,2.784-2.567l0.055-0.005l0.052-0.021c0.276-0.122,2.706-1.227,2.706-2.662
	C107.16,166.215,106.583,165.601,105.442,165.103L105.442,165.103z"/>
<path fill-rule="evenodd" clip-rule="evenodd" fill="#0E51A0" d="M104.166,168.921c-1.819,0.239-2.606,1.251-2.975,2.094
	c-0.028-0.178-0.146-0.317-0.146-0.487c0-0.298,0.034-0.563,0.067-0.719l0.097-0.475l-0.484,0.04
	c-2.423,0.201-6.618,2.612-8.759,3.934c1.668-2.254,6.005-5.431,7.909-6.679l0.618-0.403c0,0-1.12-0.391-1.544-0.539
	c3.019-1.32,6.157,0.061,6.192,0.078c0.596,0.26,1.292,0.668,1.292,1.164C106.435,167.656,105.044,168.536,104.166,168.921
	L104.166,168.921z"/>
<path fill-rule="evenodd" clip-rule="evenodd" fill="#957948" d="M107.956,151.813c-0.168-0.046-3.198-0.424-6.415-4.825
	l-0.388-0.531l-0.244,0.61c-0.019,0.048-0.216,0.563-0.216,1.43c0,1.057,0.405,2.675,1.674,4.556
	c-1.314,0.232-6.676,1.386-8.476,5.506l-0.373,0.855l0.854-0.377c0.063-0.029,6.188-2.717,9.23-2.619
	c-0.075,0.353-0.162,0.843-0.162,1.477c0,0.615,0.095,1.277,0.396,1.824l0.496,0.897l0.179-1.01
	c0.014-0.082,0.379-1.983,2.432-2.296l0.047-0.007l0.042-0.018c0.115-0.049,2.813-1.23,2.899-2.96
	C109.978,153.412,109.313,152.567,107.956,151.813L107.956,151.813z"/>
<path fill-rule="evenodd" clip-rule="evenodd" fill="#0E51A0" d="M106.748,156.616c-1.356,0.238-2.083,1.035-2.487,1.741
	c-0.017-0.156-0.095-0.292-0.095-0.449c0-0.894,0.229-1.713,0.233-1.726l0.117-0.406l-0.419-0.055
	c-2.3-0.301-6.581,1.258-8.723,2.116c2.388-3.241,7.535-4.156,7.594-4.164l0.61-0.087l-0.369-0.492
	c-1.481-1.968-1.792-3.581-1.792-4.594c0-0.299,0.038-0.301,0.07-0.489c3.216,4.01,6.128,4.47,6.255,4.482
	c0.929,0.549,1.464,1.148,1.464,1.746c0,0.016,0,0.033-0.001,0.048C109.152,155.347,107.417,156.327,106.748,156.616
	L106.748,156.616z"/>
<path fill-rule="evenodd" clip-rule="evenodd" fill="#957948" d="M141.676,177.661c-0.045-0.105-1.173-2.6-3.603-3.398
	c-1.476-0.485-3.098-0.232-4.816,0.75c-0.014-0.01-10.385,2.614-13.296,0.154c-0.046-0.039-4.492-3.804-5.196-6.758
	c-0.055-0.158-4.266-12-2.731-15.798l-0.659-0.304c-0.001,0.002-0.012,0.028-0.014,0.031v0.002
	c-0.095,0.185-1.235,2.523-1.235,7.124c0,0.496,0.035,1.055,0.063,1.604c-1.031-0.704-3.083-1.988-4.209-1.881l-0.734,0.07
	l0.502,0.539c0.037,0.04,3.673,3.98,5.232,8.563c0.009,0.094,2.521,15.291,14.459,14.411c0.193,0.001,5.453-0.036,10.189-3.424
	c0.067-0.062,1.515-1.526,5.688-1.177l0.61,0.05L141.676,177.661L141.676,177.661z"/>
<path fill-rule="evenodd" clip-rule="evenodd" fill="#0E51A0" d="M125.41,182.046c-11.294,0.831-13.705-13.711-13.729-13.859
	c-1.178-3.478-3.383-6.453-4.579-7.912c1.055,0.402,2.377,1.154,3.263,1.805l0.64,0.471l-0.062-0.792
	c-0.063-0.805-0.091-1.558-0.091-2.257c0-1.236,0.092-2.272,0.217-3.176c0.44,5.054,2.863,11.911,2.999,12.288
	c0.749,3.148,5.233,6.947,5.424,7.108c3.195,2.699,13.595,0.07,14.035-0.044c1.621-0.91,3.043-1.143,4.315-0.727
	c1.494,0.488,2.424,1.743,2.863,2.466c-4.042-0.167-5.497,1.32-5.558,1.389C130.664,182.002,125.461,182.046,125.41,182.046
	L125.41,182.046z"/>
<path fill-rule="evenodd" clip-rule="evenodd" fill="#957948" d="M111.934,175.807l-0.217-0.773
	C111.717,175.034,111.786,175.325,111.934,175.807L111.934,175.807z"/>
<path fill-rule="evenodd" clip-rule="evenodd" fill="#957948" d="M142.665,179.351c-4.358,0.611-8.829,4.597-9.016,4.767
	c-1.735,2.371-3.921,2.622-3.942,2.622c-7.506,0.578-10.565-4.011-10.594-4.058l-0.665,0.26c0,0,0.248,1.419,0.423,2.438
	c-5.062-3.774-6.764-10.277-6.794-10.406l-0.01-0.038l-0.705,0.181c0.001,0.001,0.005,0.014,0.005,0.016h-0.001
	c0,0,2.81,10.05,3.183,11.384c-0.844-0.392-2.376-1.101-2.376-1.101l-0.424,0.571c0.269,0.3,6.626,7.343,11.741,8.336
	c5.176,1.004,11.008-4.387,11.253-4.617c4.489-6.645,8.166-9.684,8.204-9.714l1.004-0.823L142.665,179.351L142.665,179.351z"/>
<path fill-rule="evenodd" clip-rule="evenodd" fill="#0E51A0" d="M123.628,193.609c-3.538-0.688-7.848-4.586-9.988-6.713
	c0.645,0.298,2.034,0.943,2.034,0.943l-0.211-0.759c0,0-0.942-3.372-1.868-6.678c1.219,2.178,2.947,4.562,5.621,6.253l0.693,0.438
	c0,0-0.347-1.994-0.523-3.016c1.387,1.429,4.571,3.833,10.385,3.386c0.11-0.01,2.531-0.27,4.414-2.861
	c0.007,0.004,3.481-2.962,7.134-4.083c-1.425,1.375-4.026,4.119-7.125,8.719C134.18,189.237,128.434,194.539,123.628,193.609
	L123.628,193.609z"/>
<path fill-rule="evenodd" clip-rule="evenodd" fill="#957948" d="M111.717,175.034l0.217,0.773
	C111.786,175.325,111.717,175.034,111.717,175.034L111.717,175.034z"/>
<path fill-rule="evenodd" clip-rule="evenodd" fill="#957948" d="M122.814,248.638c-3.14-1.932-6.417-16.415-6.45-16.561
	l-0.716,0.103c0.036,0.564,0.932,13.856,3.938,16.53c1.023,0.908,3.01,0.607,3.094,0.597l0.973-0.15L122.814,248.638
	L122.814,248.638z"/>
<path fill-rule="evenodd" clip-rule="evenodd" fill="#0E51A0" d="M120.067,248.165c-1.696-1.511-2.687-7.065-3.209-11.219
	c1.152,4.138,3,9.666,4.975,11.686C121.234,248.632,120.489,248.544,120.067,248.165L120.067,248.165z"/>
<path fill-rule="evenodd" clip-rule="evenodd" fill="#957948" d="M79.936,235.428c1.785-16.434,13.926-25.828,14.049-25.921
	l1.102-0.837l-1.373,0.187c-4.326,0.597-6.766,2.333-7.572,2.998c-1.671-2.305-2.407-5.781-2.407-10.024
	c0-18.396,12.781-49.909,12.94-50.302l-0.667-0.287c-14.133,31.28-17.387,47.645-17.387,56.083c0,6.105,1.635,7.97,2.156,8.424
	c-2.718,7.664-3.836,14.694-3.836,21.032c0,26.159,18.621,40.726,18.856,40.902l0.497-0.519
	C84,262.711,78.498,248.669,79.936,235.428L79.936,235.428z"/>
<path fill-rule="evenodd" clip-rule="evenodd" fill="#0E51A0" d="M81.521,215.762l0.092-0.258l-0.229-0.162
	c-0.044-0.034-1.978-1.573-1.978-8.049c0-7.025,2.341-19.951,11.766-42.958c-3.705,10.893-8.176,26.304-8.176,37.377
	c0,4.632,0.783,8.5,2.733,10.947l0.249,0.312l0.288-0.278c0.023-0.022,2.171-1.888,6.15-2.785
	c-3.037,2.719-11.693,11.565-13.204,25.429c-0.153,1.402-0.229,2.819-0.229,4.236c0,11.219,4.985,22.945,14.414,34.938
	c-5.188-5.196-15.729-18.148-15.729-37.735C77.669,230.447,78.774,223.428,81.521,215.762L81.521,215.762z"/>
<path fill-rule="evenodd" clip-rule="evenodd" fill="#957948" d="M111.553,229.275c-3.108,1.215-9.316-1.74-9.378-1.769
	c-6.008-4.855-12.833-2.383-12.9-2.357c-11.86,4.577-6.021,22.891-5.958,23.078l0.708-0.109c0-8.524,1.977-14.057,5.873-16.445
	c4.998-3.063,11.559,0.214,11.626,0.244c8.045,2.997,10.469-2.103,10.494-2.154l0.37-0.815L111.553,229.275L111.553,229.275z"/>
<path fill-rule="evenodd" clip-rule="evenodd" fill="#0E51A0" d="M101.813,231.254c-0.244-0.128-6.943-3.478-12.293-0.203
	c-3.735,2.288-5.713,7.343-6.074,14.771c-0.416-1.801-0.903-4.459-0.903-7.418c0-4.965,1.409-10.423,6.99-12.579
	c0.061-0.022,6.508-2.341,12.255,2.29c0.312,0.16,5.624,2.623,9.127,1.982C110.024,231.248,107.523,233.377,101.813,231.254
	L101.813,231.254z"/>
<path fill-rule="evenodd" clip-rule="evenodd" fill="#957948" d="M89.961,237.507c-4.362,3.25-3.603,9.443-3.569,9.703l0.099,0.747
	l0.522-0.54c6.666-6.826,8.667-7.013,9.22-6.774c0.349,0.146,0.335,0.634,0.333,0.659c-12.132,13.14-5.605,23.517-5.537,23.615
	l0.579,0.888l0.087-1.054c0.837-10.148,3.833-17.292,8.902-21.232c5.164-4.013,10.716-3.125,10.772-3.114l0.21-0.69
	C101.403,235.146,94.13,234.405,89.961,237.507L89.961,237.507z"/>
<path fill-rule="evenodd" clip-rule="evenodd" fill="#0E51A0" d="M100.164,242.938c-5.026,3.894-8.02,10.854-9.016,20.558
	c-0.5-1.127-1.193-3.141-1.193-5.971c0-4.08,1.485-9.666,7.243-15.963c0.023-0.124,0.035-0.249,0.035-0.374
	c0-0.493-0.193-0.98-0.706-1.209c-1.476-0.649-4.599,1.479-9.452,6.364c-0.007-0.171-0.019-0.15-0.019-0.379
	c0-1.905,0.402-5.685,3.343-7.875c3.642-2.705,10.067-2.063,18.82,1.526C107.028,239.698,103.58,240.29,100.164,242.938
	L100.164,242.938z"/>
<path fill-rule="evenodd" clip-rule="evenodd" fill="#957948" d="M90.339,247.387l-0.375-0.623c0,0-0.012,0.01-0.014,0.01
	c-0.27,0.156-5.596,3.229-5.596,5.991l0.027-0.135c-0.063,0.15-1.454,3.784,3.638,9.038l0.593-0.4
	C88.566,261.164,84.238,251.243,90.339,247.387L90.339,247.387z"/>
<path fill-rule="evenodd" clip-rule="evenodd" fill="#0E51A0" d="M86.361,254.13c0,2.118,0.471,4.08,0.904,5.492
	c-1.9-2.461-2.365-4.434-2.365-5.58c0-0.728,0.149-1.132,0.155-1.147l0.023-0.063l0.001-0.067c0-1.096,1.19-2.357,2.489-3.427
	C86.726,250.808,86.361,252.479,86.361,254.13L86.361,254.13z"/>
<path fill-rule="evenodd" clip-rule="evenodd" fill="#957948" d="M116.662,252.001c-4.527,0.986-12.44-1.339-12.519-1.365
	c-4.525,1.08-7.522,3.224-9.098,6.386c-2.921,5.86,0.056,13.024,0.184,13.326l0.697-0.172c-0.475-6.681,0.706-11.218,3.51-13.477
	c2.971-2.383,6.81-1.287,6.849-1.276c7.016,0.312,9.799-1.833,10.673-2.772l0.794-0.852L116.662,252.001L116.662,252.001z"/>
<path fill-rule="evenodd" clip-rule="evenodd" fill="#0E51A0" d="M106.405,254.717c-0.083-0.042-4.143-1.21-7.417,1.412
	c-2.58,2.071-3.884,5.865-3.888,11.296c-0.307-1.262-0.591-2.835-0.591-4.563c0-1.812,0.303-3.748,1.189-5.519
	c1.477-2.959,4.313-4.979,8.429-6.006c0.13,0.088,6.775,1.993,11.508,1.484C114.332,253.761,111.649,254.939,106.405,254.717
	L106.405,254.717z"/>
<path fill-rule="evenodd" clip-rule="evenodd" fill="#957948" d="M138.001,251.348l-10.767-1.085l-0.121,0.716
	c7.831,1.843,10.907,4.657,12.106,6.687c1.206,2.045,0.769,3.681,0.765,3.696c-1.141,4.869-4.023,4.62-4.147,4.609l-6.651-0.534
	l-0.147,0.701l7.688,2.647c5.658-1.179,6.52-6.733,6.527-6.791C146.271,255.235,138.083,251.384,138.001,251.348L138.001,251.348z"
	/>
<path fill-rule="evenodd" clip-rule="evenodd" fill="#0E51A0" d="M131.921,266.381c1.875,0.156,3.847,0.317,3.847,0.317
	c0.135,0.01,3.629,0.363,4.919-5.15c0.009-0.031,0.109-0.395,0.109-0.991c0-0.769-0.17-1.926-0.931-3.224
	c-1.455-2.492-4.462-4.475-8.847-5.97c3.138,0.311,6.795,0.675,6.795,0.675c0.165,0.099,5.37,2.554,5.37,7.028
	c0,0.836-0.186,1.755-0.62,2.73c-0.057,0.307-0.833,5.207-5.796,6.292C136.768,268.089,134.135,267.16,131.921,266.381
	L131.921,266.381z"/>
<path fill-rule="evenodd" clip-rule="evenodd" fill="#957948" d="M139.446,268.193l-0.275-1.288l-0.375,1.257
	c-1.565,5.264-3.931,8.218-7.028,8.778c-7.059,1.287-15.818-10.097-15.906-10.211l-0.563,0.363
	c8.295,15.604,16.358,14.026,16.696,13.954c0.088-0.006,0.163-0.036,0.25-0.042c-0.002,0-0.005,0-0.006,0
	c-0.546,2.616-1.681,4.355-3.418,5.166c-6.752,3.125-20.381-8.109-20.517-8.224l-0.508,0.509
	c6.358,7.408,11.659,10.201,15.304,11.188c-0.051,0.067-2.288,3.037-6.756,3.213c-3.992,0.156-10.706-1.951-20.023-12.863
	l-0.582,0.431c0.502,0.763,12.419,18.684,21.227,17.417c3.032-0.437,5.313-3.089,6.781-7.886l-0.605-0.296
	c3.206,0.861,5.124,0.337,5.286,0.285c2.846-0.493,4.799-1.739,5.759-3.69c0.916-1.858,0.76-4.014,0.349-5.783
	c-0.001,0-0.004,0-0.005,0.01c1.373-0.503,2.523-1.287,3.371-2.429C140.711,274.282,139.5,268.432,139.446,268.193L139.446,268.193z
	"/>
<path fill-rule="evenodd" clip-rule="evenodd" fill="#0E51A0" d="M116.864,297.119c-5.635,0.81-12.879-7.107-17.079-12.438
	c6.06,6.006,11.646,9.105,16.607,8.897c2.99-0.119,4.922-1.339,6.071-2.315C121.104,294.741,119.247,296.776,116.864,297.119
	L116.864,297.119z"/>
<path fill-rule="evenodd" clip-rule="evenodd" fill="#0E51A0" d="M117.82,270.025c3.188,3.416,8.903,8.524,14.068,7.579
	c3.075-0.561,5.424-3.312,7.068-7.974c0.053,0.514,0.11,1.08,0.11,1.796c0,1.927-0.33,4.382-1.705,6.23
	c-1.206,1.619-3.043,2.533-5.466,2.725C131.785,280.403,125.134,281.571,117.82,270.025L117.82,270.025z"/>
<path fill-rule="evenodd" clip-rule="evenodd" fill="#0E51A0" d="M132.9,280.891c-0.564,2.959-1.782,5.01-3.771,5.939
	c-5.109,2.367-13.394-2.596-17.976-5.835c10.119,10.148,16.992,8.274,17.106,8.243c2.649-0.462,4.424-1.567,5.276-3.302
	c0.435-0.882,0.598-1.858,0.598-2.829c0-0.83-0.12-1.635-0.288-2.372C133.549,280.813,133.216,280.844,132.9,280.891L132.9,280.891z
	"/>
<path fill-rule="evenodd" clip-rule="evenodd" fill="#0E51A0" d="M14.689,297.778c0,0,5.704,1.854,14.278-0.945
	c13.856-4.651,28.949-9.754,33.24-8.072c1.926,0.872,3.756,1.905,2.829,7.637c-0.732,4.236-2.622,10.839-2.622,10.839
	c0.005,0,10.684,0.82,65.792-17.276c55.173-17.91,100.376-16.274,127.561-7.449c27.088,9.204,28.91,15.942,26.07,20.511
	c-2.987,4.465-15.648,16.705-15.648,16.705s15.49,4.205,18.613,5.233c1.567,0.52,3.021,1.168,3.294,1.816
	c0.199,0.676-1.722,2.633-3.209,3.613c-2.026,1.288-9.915,5.503-13.209,9.215c-3.219,3.806-3.349,8.7-3.349,8.7
	s-29.076-8.228-38.81-11.944c-9.703-3.79-12.597-4.989-6.521-10.508c6.12-5.45,11.823-8.825,11.823-8.825
	c-0.005,0-38.2-5.513-78.467,4.278c-40.184,10.123-78.675,23.101-97.249,24.954c-18.596,1.589-25.413-0.976-27.934-3.452
	c-1.058-1.417,3.146-14.297,3.146-14.302c0,0.005-9.213,3.701-14.882,6.115c-5.647,2.455-9.771,5.814-9.95,3.302
	c0,0,6.59-21.145,6.891-27.939C16.515,303.183,14.689,297.778,14.689,297.778L14.689,297.778z"/>
<path fill-rule="evenodd" clip-rule="evenodd" fill="#FFFFFF" d="M20.677,303.909c0,0.005,2.938,6.1-4.411,26.828
	c0,0,4.57-2.336,7.336-3.437c6.575-2.611,12.545-5.269,12.546-5.269c0,0,1.148-3.427,2.104-7.61c1.081-4.844,1.18-7.419,1.18-7.419
	s0.406-4.251,6.321-6.369c5.92-2.051,10.058-3.992,13.54-5.456c3.462-1.511,0.146-2.237-3.552-1.594
	c-5.111,0.98-13.928,4.313-20.04,6.229C29.537,301.755,24.201,304.823,20.677,303.909L20.677,303.909z"/>
<path fill-rule="evenodd" clip-rule="evenodd" fill="#FFFFFF" d="M56.079,301.807c3.538-1.542,3.912-1.599,3.912-1.599
	c0,0.005-2.06,6.541-2.237,7.33c0,0-6.325,0.82-10.6-0.109c-3.609-0.888,0.596-2.331,1.193-2.688
	C48.938,304.371,51.213,303.914,56.079,301.807L56.079,301.807z"/>
<path fill-rule="evenodd" clip-rule="evenodd" fill="#FFFFFF" d="M43.367,311.862c0,0,1.722,1.37,7.207,1.111
	c0,0,8.73,0.508,20.295-1.594c10.987-2.077,23.699-5.799,41.057-11.058c17.357-5.254,35.425-10.86,45.241-13.124
	c9.821-2.211,31.238-5.902,46.81-6.079c16.57-0.099,31.651,0.524,49.325,5.804c6.726,2.051,16.731,6.479,17.902,7.148
	c2.479,1.521,7.138,4.185,4.576,7.242c-4.646,5.238-17.793,19.332-18.001,18.195c0.116-1.895-0.95-3.582-3.154-4.672
	c-3.662-1.724-12.082-2.689-19.246-3.4c-7.164-0.717-25.943-2.948-52.313-0.146c-26.344,2.97-45.253,9.635-58.26,13.118
	c-13.003,3.468-35.723,10.721-51.136,13.727c-15.43,2.928-22.018,3.255-29.353,2.3c-4.606-0.607-8.146-0.857-7.843-2.3
	c0.569-2.093,1.996-7.258,2.752-9.941c1.215-4.263,2.322-7.543,2.877-9.641C43.145,314.536,43.367,311.862,43.367,311.862
	L43.367,311.862z"/>
<path fill-rule="evenodd" clip-rule="evenodd" fill="#FFFFFF" d="M261.421,324.036c5.232,1.443,10.225,2.834,15.47,4.313
	c-0.288,0.358-6.289,3.442-8.841,6.64c-1.985,2.586-3.62,5.778-3.62,5.783c-0.003-0.005-15.632-4.449-21.528-6.292
	c-5.999-1.899-14.394-3.95-13.921-5.01c0.319-0.399,3.751,0.094,7.4-0.176c3.735-0.296,9.176-0.343,15.529-1.018
	C256.499,327.732,258.755,325.837,261.421,324.036L261.421,324.036z"/>
<path fill-rule="evenodd" clip-rule="evenodd" fill="#FFFFFF" d="M250.226,322.396c-2.017,0.254-5.816,0.467-8.064,0.623
	c-2.611,0.187-7.434,0.727-8.184,0.685c0,0,1.069-1.054,3.709-2.549c2.004-1.137,4.877-3.094,4.877-3.094s4.316,0.213,8.13,1.101
	C252.804,319.727,252.11,322.104,250.226,322.396L250.226,322.396z"/>
<polygon fill-rule="evenodd" clip-rule="evenodd" fill="#0E51A0" points="59.634,325.552 60.417,325.464 62.754,319.473 
	64.82,319.265 61.966,326.429 66.594,333.151 64.471,333.37 60.647,327.748 59.866,327.836 60.466,333.785 58.786,333.967 
	57.375,320.044 59.055,319.872 59.634,325.552 "/>
<path fill-rule="evenodd" clip-rule="evenodd" fill="#0E51A0" d="M69.243,320.724c1.485-0.254,2.1-0.171,2.495,2.425l0.605,3.727
	c0.432,2.669-0.033,3.084-1.555,3.339c-1.663,0.285-2.04,0.077-2.486-2.663l-0.607-3.712
	C67.375,321.643,67.449,321.024,69.243,320.724L69.243,320.724L69.243,320.724z M68.871,318.46c-2.749,0.457-3.54,1.371-2.84,5.653
	l0.604,3.723c0.741,4.532,1.839,5.098,4.528,4.641c2.623-0.441,3.56-1.464,2.846-5.892l-0.608-3.712
	C72.68,318.435,71.371,318.035,68.871,318.46L68.871,318.46z"/>
<path fill-rule="evenodd" clip-rule="evenodd" fill="#0E51A0" d="M76.72,324.285l-0.978-4.667l2.297-0.498
	c1.174-0.26,1.469,0.03,1.875,1.967c0.414,2.01,0.205,2.461-1.013,2.721L76.72,324.285L76.72,324.285L76.72,324.285z
	 M79.729,325.982c0.79-0.15,1.264,0.582,1.501,1.734l0.535,2.549l1.655-0.358l-0.538-2.554c-0.406-1.937-0.899-2.876-2.11-2.788
	l-0.015-0.067c1.386-0.665,1.141-2.154,0.72-4.185c-0.649-3.099-1.573-3.883-3.465-3.54l-4.396,0.95l2.875,13.689l1.651-0.358
	l-0.948-4.521L79.729,325.982L79.729,325.982z"/>
<polygon fill-rule="evenodd" clip-rule="evenodd" fill="#0E51A0" points="84.974,321.066 88.968,320.038 89.497,322.172 85.5,323.2 
	86.387,326.798 90.634,325.713 91.188,327.935 85.301,329.445 81.949,315.875 87.796,314.38 88.342,316.607 84.138,317.682 
	84.974,321.066 "/>
<path fill-rule="evenodd" clip-rule="evenodd" fill="#0E51A0" d="M96.402,321.591l-2.925,0.846l-0.493-7.397l0.017-0.005
	L96.402,321.591L96.402,321.591L96.402,321.591z M97.311,323.444l1.261,2.393l1.648-0.478l-6.616-12.636l-2.396,0.69l0.945,14.276
	l1.678-0.493l-0.179-2.694L97.311,323.444L97.311,323.444z"/>
<polygon fill-rule="evenodd" clip-rule="evenodd" fill="#0E51A0" points="106.691,314.785 110.42,313.55 111.086,315.646 
	107.363,316.872 109.113,322.385 107.509,322.909 103.264,309.604 108.802,307.771 109.494,309.957 105.566,311.244 
	106.691,314.785 "/>
<path fill-rule="evenodd" clip-rule="evenodd" fill="#0E51A0" d="M113.787,308.358c1.422-0.473,2.053-0.499,2.831,2.014l1.163,3.572
	c0.838,2.574,0.441,3.063-1.019,3.551c-1.608,0.54-2.004,0.399-2.867-2.237l-1.158-3.572
	C112.084,309.563,112.061,308.939,113.787,308.358L113.787,308.358L113.787,308.358z M113.076,306.178
	c-2.647,0.888-3.29,1.916-1.952,6.037l1.171,3.588c1.417,4.355,2.594,4.739,5.178,3.878c2.528-0.856,3.298-2.03,1.909-6.271
	l-1.156-3.582C116.83,305.555,115.484,305.368,113.076,306.178L113.076,306.178z"/>
<path fill-rule="evenodd" clip-rule="evenodd" fill="#0E51A0" d="M121.783,305.731c1.437-0.452,2.061-0.452,2.799,2.071l1.103,3.592
	c0.792,2.575,0.386,3.063-1.085,3.525c-1.605,0.52-2.009,0.368-2.82-2.284l-1.111-3.593
	C120.055,306.904,120.046,306.287,121.783,305.731L121.783,305.731L121.783,305.731z M121.108,303.546
	c-2.663,0.846-3.323,1.858-2.048,6.001l1.105,3.608c1.342,4.371,2.51,4.786,5.108,3.955c2.543-0.805,3.335-1.957,2.024-6.234
	l-1.103-3.587C124.872,302.99,123.531,302.772,121.108,303.546L121.108,303.546z"/>
<polygon fill-rule="evenodd" clip-rule="evenodd" fill="#0E51A0" points="133.241,314.552 131.612,315.039 128.383,303.806 
	125.906,304.548 125.266,302.347 131.843,300.384 132.477,302.585 130.003,303.322 133.241,314.552 "/>
<path fill-rule="evenodd" clip-rule="evenodd" fill="#0E51A0" d="M134.902,301.905l2.296-0.639c0.806-0.218,1.199-0.207,1.578,1.226
	c0.389,1.448,0.306,1.952-0.611,2.201l-2.34,0.653L134.902,301.905L134.902,301.905L134.902,301.905z M136.346,307.305l2.5-0.69
	c0.964-0.271,1.285,0.108,1.679,1.583c0.443,1.656,0.009,1.895-0.969,2.165l-2.225,0.617L136.346,307.305L136.346,307.305
	L136.346,307.305z M140.658,312.434c1.792-0.493,2.353-1.479,1.554-4.465c-0.457-1.719-1.017-2.896-2.264-2.777l-0.021-0.078
	c0.933-0.68,0.825-1.77,0.42-3.317c-0.799-2.975-1.779-3.286-3.446-2.813l-4.222,1.163l3.612,13.497L140.658,312.434
	L140.658,312.434z"/>
<path fill-rule="evenodd" clip-rule="evenodd" fill="#0E51A0" d="M145.037,308.524l0.087,2.704l-1.694,0.432l-0.459-14.297
	l2.415-0.607l6.184,12.854l-1.661,0.42l-1.185-2.435L145.037,308.524L145.037,308.524L145.037,308.524z M144.708,299.034
	l-0.018,0.011l0.243,7.408l2.955-0.732L144.708,299.034L144.708,299.034z"/>
<polygon fill-rule="evenodd" clip-rule="evenodd" fill="#0E51A0" points="150.806,295.463 149.152,295.831 152.135,309.495 
	157.789,308.218 157.299,305.98 153.291,306.879 150.806,295.463 "/>
<polygon fill-rule="evenodd" clip-rule="evenodd" fill="#0E51A0" points="159.702,305.492 163.733,304.683 164.175,306.931 
	158.49,308.083 155.819,294.352 157.471,294.015 159.702,305.492 "/>
<path fill-rule="evenodd" clip-rule="evenodd" fill="#0E51A0" d="M175.068,299.854l-3.003,0.468l0.405-7.403l0.023-0.005
	L175.068,299.854L175.068,299.854L175.068,299.854z M175.733,301.812l0.966,2.528l1.697-0.265l-5.025-13.367l-2.458,0.379
	l-0.808,14.281l1.727-0.271l0.153-2.704L175.733,301.812L175.733,301.812z"/>
<path fill-rule="evenodd" clip-rule="evenodd" fill="#0E51A0" d="M178.035,299.637l0.073,0.654c0.478,3.977,2.188,3.67,4.119,3.432
	c2.248-0.275,3.38-0.759,2.912-4.657c-0.423-3.54-1.184-3.675-3.903-3.603c-1.722,0.047-1.947,0.021-2.146-1.688
	c-0.182-1.479,0.057-1.775,1.726-1.978c1.179-0.15,1.565-0.141,1.747,1.36l0.057,0.446l1.669-0.202l-0.052-0.447
	c-0.431-3.654-1.895-3.566-3.681-3.343c-2.097,0.254-3.592,0.561-3.148,4.366c0.485,4.044,1.957,3.753,3.868,3.701
	c1.32-0.052,1.957-0.39,2.186,1.589c0.191,1.614,0.038,2.087-1.487,2.273c-1.55,0.192-1.986,0.13-2.181-1.464l-0.083-0.649
	L178.035,299.637L178.035,299.637z"/>
<path fill-rule="evenodd" clip-rule="evenodd" fill="#0E51A0" d="M187.544,298.525l0.062,0.654c0.141,1.604,0.584,1.667,2.142,1.526
	c1.526-0.14,1.697-0.607,1.55-2.217c-0.177-1.998-0.817-1.672-2.137-1.661c-1.907-0.011-3.39,0.244-3.764-3.811
	c-0.334-3.831,1.166-4.075,3.276-4.277c1.785-0.156,3.255-0.202,3.576,3.452l0.053,0.446l-1.69,0.156l-0.041-0.441
	c-0.133-1.511-0.53-1.526-1.698-1.412c-1.677,0.146-1.918,0.436-1.783,1.926c0.148,1.708,0.377,1.739,2.098,1.744
	c2.718,0.011,3.479,0.166,3.798,3.717c0.348,3.92-0.787,4.361-3.045,4.574c-1.937,0.176-3.655,0.436-4.021-3.557l-0.058-0.653
	L187.544,298.525L187.544,298.525z"/>
<path fill-rule="evenodd" clip-rule="evenodd" fill="#0E51A0" d="M201.318,292.847l0.174,3.759c0.203,4.47-0.851,5.383-3.515,5.508
	c-2.717,0.124-3.745-0.566-3.953-5.15l-0.174-3.764c-0.199-4.345,0.69-5.154,3.481-5.284
	C199.865,287.801,201.111,288.351,201.318,292.847L201.318,292.847L201.318,292.847z M195.535,293.116l0.174,3.77
	c0.125,2.777,0.483,3.011,2.173,2.943c1.526-0.083,2.04-0.441,1.918-3.141l-0.168-3.77c-0.089-2.627-0.69-2.787-2.193-2.72
	C195.621,290.292,195.471,290.895,195.535,293.116L195.535,293.116z"/>
<path fill-rule="evenodd" clip-rule="evenodd" fill="#0E51A0" d="M208.163,292.52v-0.773c0.011-1.625-0.392-1.734-1.868-1.734
	c-1.706-0.005-1.994,0.441-2.002,3.188l-0.013,3.095c0.008,2.798,0.213,3.338,1.991,3.338c1.357,0.016,1.97-0.067,1.975-2.062
	v-0.763l1.69,0.005l-0.003,0.914c0.028,4.205-1.487,4.06-3.668,4.199c-3.094,0.188-3.649-1.443-3.667-5.528l0.005-3.208
	c0.005-4.48,1.101-5.478,3.691-5.478c2.195,0.016,3.452,0.031,3.561,4.039l-0.008,0.769H208.163L208.163,292.52z"/>
<polygon fill-rule="evenodd" clip-rule="evenodd" fill="#0E51A0" points="212.778,301.963 211.086,301.905 211.587,287.915 
	213.274,287.982 212.778,301.963 "/>
<path fill-rule="evenodd" clip-rule="evenodd" fill="#0E51A0" d="M219.553,297.675l-3.031-0.208l1.998-7.133l0.023,0.005
	L219.553,297.675L219.553,297.675L219.553,297.675z M219.792,299.73l0.387,2.684l1.716,0.125l-2.022-14.173l-2.474-0.177
	l-3.875,13.758l1.739,0.124l0.731-2.601L219.792,299.73L219.792,299.73z"/>
<polygon fill-rule="evenodd" clip-rule="evenodd" fill="#0E51A0" points="225.375,302.959 223.693,302.767 224.952,291.144 
	222.388,290.858 222.634,288.579 229.445,289.343 229.196,291.627 226.629,291.336 225.375,302.959 "/>
<polygon fill-rule="evenodd" clip-rule="evenodd" fill="#0E51A0" points="230.388,303.629 228.716,303.385 230.629,289.529 
	232.303,289.773 230.388,303.629 "/>
<path fill-rule="evenodd" clip-rule="evenodd" fill="#0E51A0" d="M237.278,292.795c1.47,0.274,2.022,0.565,1.548,3.146l-0.652,3.717
	c-0.462,2.663-1.038,2.892-2.549,2.622c-1.669-0.302-1.954-0.612-1.479-3.354l0.644-3.717
	C235.205,293.028,235.482,292.473,237.278,292.795L237.278,292.795L237.278,292.795z M237.668,290.542
	c-2.757-0.493-3.797,0.088-4.542,4.371l-0.642,3.711c-0.789,4.517,0.067,5.431,2.746,5.908c2.627,0.478,3.847-0.172,4.612-4.579
	l0.645-3.717C241.253,291.809,240.157,290.993,237.668,290.542L237.668,290.542z"/>
<polygon fill-rule="evenodd" clip-rule="evenodd" fill="#0E51A0" points="249.429,293.189 251.072,293.578 247.926,307.206 
	245.2,306.557 244.184,294.29 244.126,294.274 241.632,305.7 239.991,305.306 243.132,291.679 245.85,292.327 246.893,304.595 
	246.938,304.61 249.429,293.189 "/>
</svg>
