<?xml version="1.0" encoding="UTF-8" standalone="no"?>
<!-- Created with Inkscape (http://www.inkscape.org/) -->

<svg
   xmlns:dc="http://purl.org/dc/elements/1.1/"
   xmlns:cc="http://creativecommons.org/ns#"
   xmlns:rdf="http://www.w3.org/1999/02/22-rdf-syntax-ns#"
   xmlns:svg="http://www.w3.org/2000/svg"
   xmlns="http://www.w3.org/2000/svg"
   xmlns:sodipodi="http://sodipodi.sourceforge.net/DTD/sodipodi-0.dtd"
   xmlns:inkscape="http://www.inkscape.org/namespaces/inkscape"
   version="1.0"
   width="300"
   height="420"
   id="svg17412"
   xml:space="preserve"
   inkscape:version="0.48.1 "
   sodipodi:docname="Niederländische_Fußballnationalmannschaft_Logo.svg"><metadata
     id="metadata103"><rdf:RDF><cc:Work
         rdf:about=""><dc:format>image/svg+xml</dc:format><dc:type
           rdf:resource="http://purl.org/dc/dcmitype/StillImage" /></cc:Work></rdf:RDF></metadata><sodipodi:namedview
     pagecolor="#ffffff"
     bordercolor="#666666"
     borderopacity="1"
     objecttolerance="10"
     gridtolerance="10"
     guidetolerance="10"
     inkscape:pageopacity="0"
     inkscape:pageshadow="2"
     inkscape:window-width="1280"
     inkscape:window-height="738"
     id="namedview101"
     showgrid="false"
     inkscape:zoom="1.2357143"
     inkscape:cx="150"
     inkscape:cy="210"
     inkscape:window-x="-8"
     inkscape:window-y="-8"
     inkscape:window-maximized="1"
     inkscape:current-layer="svg17412" /><defs
     id="defs17415"><clipPath
       id="clipPath17437"><path
         d="m 0.059998,841.89 595.218002,0 0,-841.83 -595.218002,0 0,841.83 z"
         id="path17439"
         inkscape:connector-curvature="0" /></clipPath><clipPath
       id="clipPath17447"><path
         d="m 208.92,92.902 -217.646,0 0,-34.189 217.646,0 0,34.189 z"
         id="path17449"
         inkscape:connector-curvature="0" /></clipPath><clipPath
       id="clipPath17453"><path
         d="m 208.818,58.863 -217.323,0 0,0.666 217.323,0 0,576.27 0,-576.936"
         id="path17455"
         inkscape:connector-curvature="0" /></clipPath><clipPath
       id="clipPath17459"><path
         d="m 0.059998,635.799 208.758002,0 0,-576.936 -208.758002,0 0,576.936 z"
         id="path17461"
         inkscape:connector-curvature="0" /></clipPath><clipPath
       id="clipPath17471"><path
         d="m 0.059998,635.799 146.741002,0 0,-135.688 -146.741002,0 0,135.688 z"
         id="path17473"
         inkscape:connector-curvature="0" /></clipPath><clipPath
       id="clipPath17483"><path
         d="m 146.496,635.799 62.322,0 0,-373.023 -62.322,0 0,373.023 z"
         id="path17485"
         inkscape:connector-curvature="0" /></clipPath><clipPath
       id="clipPath17495"><path
         d="m 0.059998,500.416 146.741002,0 0,-135.991 -146.741002,0 0,135.991 z"
         id="path17497"
         inkscape:connector-curvature="0" /></clipPath><clipPath
       id="clipPath17507"><path
         d="m 0.059998,364.731 146.741002,0 0,-135.838 -146.741002,0 0,135.838 z"
         id="path17509"
         inkscape:connector-curvature="0" /></clipPath><clipPath
       id="clipPath17519"><path
         d="m 146.496,263.081 62.322,0 0,-203.553 -62.322,0 0,203.553 z"
         id="path17521"
         inkscape:connector-curvature="0" /></clipPath><clipPath
       id="clipPath17531"><path
         d="m 0.059998,229.198 146.741002,0 0,-135.991 -146.741002,0 0,135.991 z"
         id="path17533"
         inkscape:connector-curvature="0" /></clipPath><clipPath
       id="clipPath17543"><path
         d="m 0.059998,93.513 146.741002,0 0,-33.984 -146.741002,0 0,33.984 z"
         id="path17545"
         inkscape:connector-curvature="0" /></clipPath><clipPath
       id="clipPath17555"><path
         d="m 0.059998,841.89 595.218002,0 0,-841.83 -595.218002,0 0,841.83 z"
         id="path17557"
         inkscape:connector-curvature="0" /></clipPath><clipPath
       id="clipPath17573"><path
         d="m 0.059998,841.89 595.218002,0 0,-841.83 -595.218002,0 0,841.83 z"
         id="path17575"
         inkscape:connector-curvature="0" /></clipPath><clipPath
       id="clipPath17581"><path
         d="m 0.059998,841.89 595.218002,0 0,-841.83 -595.218002,0 0,841.83 z"
         id="path17583"
         inkscape:connector-curvature="0" /></clipPath><clipPath
       id="clipPath17603"><path
         d="m 0.059998,841.89 595.218002,0 0,-841.83 -595.218002,0 0,841.83 z"
         id="path17605"
         inkscape:connector-curvature="0" /></clipPath><clipPath
       id="clipPath17613"><path
         d="m 32.509,272.019 164.258,0 0,-200.88 -164.258,0 0,200.88 z"
         id="path17615"
         inkscape:connector-curvature="0" /></clipPath><clipPath
       id="clipPath17625"><path
         d="m 32.509,272.019 164.258,0 0,-200.88 -164.258,0 0,200.88 z"
         id="path17627"
         inkscape:connector-curvature="0" /></clipPath><clipPath
       id="clipPath17647"><path
         d="m 595.278,841.89 595.273,0 0,-841.83 -595.273,0 0,841.83 z"
         id="path17649"
         inkscape:connector-curvature="0" /></clipPath><clipPath
       id="clipPath17665"><path
         d="m 595.278,841.89 595.273,0 0,-841.83 -595.273,0 0,841.83 z"
         id="path17667"
         inkscape:connector-curvature="0" /></clipPath><clipPath
       id="clipPath17673"><path
         d="m 595.278,841.89 595.273,0 0,-841.83 -595.273,0 0,841.83 z"
         id="path17675"
         inkscape:connector-curvature="0" /></clipPath><clipPath
       id="clipPath17775"><path
         d="m 665.784,330.123 68.418,0 0,-94.842 -68.418,0 0,94.842 z"
         id="path17777"
         inkscape:connector-curvature="0" /></clipPath><clipPath
       id="clipPath17787"><path
         d="m 824.886,330.6 68.418,0 0,-94.851 -68.418,0 0,94.851 z"
         id="path17789"
         inkscape:connector-curvature="0" /></clipPath><clipPath
       id="clipPath17803"><path
         d="m 140.521,766.384 70.28,0 0,-98.77 -70.28,0 0,98.77 z"
         id="path17805"
         inkscape:connector-curvature="0" /></clipPath><clipPath
       id="clipPath17829"><path
         d="m 140.521,766.384 70.28,0 0,-98.77 -70.28,0 0,98.77 z"
         id="path17831"
         inkscape:connector-curvature="0" /></clipPath><clipPath
       id="clipPath17855"><path
         d="m 140.521,766.384 70.28,0 0,-98.77 -70.28,0 0,98.77 z"
         id="path17857"
         inkscape:connector-curvature="0" /></clipPath><clipPath
       id="clipPath17867"><path
         d="m 649.134,794.142 308.979,0 0,-214.008 -308.979,0 0,214.008 z"
         id="path17869"
         inkscape:connector-curvature="0" /></clipPath><clipPath
       id="clipPath17891"><path
         d="m 0.059998,841.89 595.218002,0 0,-841.83 -595.218002,0 0,841.83 z"
         id="path17893"
         inkscape:connector-curvature="0" /></clipPath><clipPath
       id="clipPath17915"><path
         d="m 595.278,841.89 595.273,0 0,-841.83 -595.273,0 0,841.83 z"
         id="path17917"
         inkscape:connector-curvature="0" /></clipPath><clipPath
       id="clipPath18359"><path
         d="m 316.125,465.636 225.288,0 0,-197.316 -225.288,0 0,197.316 z"
         id="path18361"
         inkscape:connector-curvature="0" /></clipPath></defs><g
     id="g3252"
     transform="matrix(0.99982199,0,0,1.0006603,-187.84736,-502.96111)"><g
       transform="translate(176.89157,0)"
       id="g3230"><path
         inkscape:connector-curvature="0"
         style="fill:#f68b32;fill-opacity:1;fill-rule:nonzero;stroke:none"
         id="path17821"
         d="m 178.80876,857.64164 c -0.0882,0.30642 -0.35679,0.54148 -0.68839,0.52889 -0.36938,-0.0126 -0.6632,-0.30642 -0.68839,-0.65901 -1.5153,-12.34483 -6.61106,-28.35828 -19.65687,-50.64698 -7.46315,-12.76039 -4.66762,-24.95831 2.3506,-35.45625 -1.96023,8.2187 -1.46913,17.0922 4.48712,25.06325 21.17636,28.33729 19.86255,47.12109 14.98506,59.26024 -0.25605,0.63802 -0.59605,1.49851 -0.78913,1.90986" /><path
         inkscape:connector-curvature="0"
         style="fill:#f68b32;fill-opacity:1;fill-rule:nonzero;stroke:none"
         id="path17795"
         d="m 108.05577,838.00156 c 4.7012,-9.00782 3.47133,-16.88652 1.70418,-24.07683 -0.89826,-3.65602 -1.93924,-7.18612 -2.41775,-10.66164 -0.46173,-3.42516 -0.36519,-6.74538 0.96542,-10.08239 4.1933,-10.52732 14.49395,-17.25171 22.83857,-20.43761 -6.43476,5.8681 -17.44479,17.84356 -15.33345,29.11384 5.25107,13.83074 4.73058,28.3205 -7.75697,36.14463" /><path
         inkscape:connector-curvature="0"
         style="fill:#f68b32;fill-opacity:1;fill-rule:nonzero;stroke:none"
         id="path17797"
         d="m 304.06203,747.74701 c -5.45674,0.59184 -12.67224,6.00242 -22.63709,13.5789 -3.19849,2.44714 -6.45575,5.38958 -10.12016,7.80734 -3.55948,2.3464 -7.42537,4.13453 -11.93768,4.46613 -8.94486,0.65481 -20.93291,-4.38638 -38.50363,-23.75782 -11.89151,-13.11298 -26.52398,-17.19295 -38.554,-14.11198 0,0 20.97908,-28.73606 48.9512,0.29382 9.91448,10.27967 24.92473,22.4608 35.536,13.16335 13.75099,-12.04262 27.9805,-7.42537 37.56758,-2.77455 0.23506,0.11334 0.39877,0.35679 0.39877,0.63383 0,0.38617 -0.31482,0.70098 -0.70099,0.70098" /><path
         inkscape:connector-curvature="0"
         style="fill:#f68b32;fill-opacity:1;fill-rule:nonzero;stroke:none"
         id="path17807"
         d="m 96.025747,797.48314 c -5.691804,-6.60267 -7.437962,-18.30109 -7.35821,-24.99609 0.07556,-6.27946 0.910857,-10.69522 1.695788,-11.10238 1.590851,-0.8311 5.31403,2.45134 5.523905,2.36739 0,0 13.60828,-11.75719 33.47923,-6.94266 -0.77654,-44.5858 -54.819299,-35.31773 -54.844484,-35.08687 0,0 -1.477518,6.01082 -2.694792,6.11995 -2.1785,0.19309 -2.81652,-0.87308 -5.926864,-4.62144 0,0 -2.283438,0.36098 -2.43035,-0.0126 -2.1785,-3.29504 -7.198705,-15.7574 -4.99502,-17.08381 2.014798,-1.21308 -2.501708,-7.10216 -0.940239,-8.41598 5.926864,-5.56168 37.214998,-12.77718 38.801651,-8.85252 -0.23506,0.72617 -0.339997,1.5069 -0.344195,2.31282 -0.09654,9.0498 14.153953,3.64343 14.086793,-0.24765 -0.0378,-2.13233 -1.01579,-4.0212 -2.53109,-5.28885 -4.09675,-4.64662 -18.473176,-7.13154 -18.536138,-10.80435 -0.02938,-1.78813 5.746372,-12.10978 13.465568,-9.57869 15.37543,3.33701 20.80699,-5.30983 22.57413,-8.55869 1.24246,3.92046 3.45454,14.45618 -6.14933,20.29909 -0.59605,0.36099 -0.46592,0.99061 0.23086,1.11234 9.44017,1.66221 17.95689,-0.70518 24.08943,-3.45874 4.23527,-1.90147 7.34982,-4.00021 8.8861,-5.12514 -0.021,0.44913 -0.063,1.01159 -0.14272,1.65801 -0.23086,1.80492 -0.76814,4.28984 -2.01479,7.00982 -2.48912,5.41477 -7.80315,11.79076 -19.19515,15.48456 -0.63802,0.20568 -0.69259,0.80172 -0.10074,1.11234 6.34241,3.32021 17.47837,1.42714 26.77582,-1.15012 6.95945,-1.92665 13.36063,-3.61824 16.06802,-4.71379 -10.60288,32.76985 -31.44764,25.68868 -31.64912,27.19558 -0.37778,2.8417 21.19735,-0.8395 30.62073,21.7892 -1.20468,-0.24765 -39.75448,-9.15894 -38.57499,24.6477 -2.25825,0.44913 -9.43177,1.31381 -17.47837,5.46933 -8.89029,4.58786 -16.987264,16.96208 -18.976877,29.02149 -0.05037,0.38617 -0.390367,0.69678 -0.793326,0.70518 -0.243455,0 -0.47012,-0.0965 -0.62123,-0.26444" /><path
         inkscape:connector-curvature="0"
         style="fill:#f68b32;fill-opacity:1;fill-rule:nonzero;stroke:none"
         id="path17815"
         d="m 23.534995,728.3084 c 0.394564,10.76658 6.984633,20.39983 46.164059,9.5619 14.44778,-3.99182 23.501779,-1.13752 29.109633,2.92985 2.816523,2.04838 4.793543,4.41996 6.157723,6.44736 0.44494,0.67159 0.82691,1.30122 1.15012,1.87208 -8.394994,-5.25527 -18.510959,-5.1965 -28.341494,-0.73456 -50.474887,22.91413 -63.621444,7.49253 -64.234279,-1.30123 -0.566662,-8.18092 3.656019,-16.7606 8.995234,-19.32107 0.09235,-0.0588 0.209875,-0.10074 0.331602,-0.10074 0.360985,-0.008 0.663204,0.28963 0.667402,0.64641" /><path
         inkscape:connector-curvature="0"
         style="fill:#f68b32;fill-opacity:1;fill-rule:nonzero;stroke:none"
         id="path17817"
         d="m 140.67031,608.44891 c 0.30222,0.0882 0.51629,0.38617 0.5079,0.71358 -0.0126,0.31481 -0.23506,0.57925 -0.52469,0.659 -10.44337,3.68121 -37.19821,15.94209 -26.6499,46.4285 0,0 -18.070218,-17.37343 -15.392215,-31.25455 4.785145,-24.79881 34.238975,-19.60231 42.058905,-16.54653" /><path
         inkscape:connector-curvature="0"
         style="fill:#f68b32;fill-opacity:1;fill-rule:nonzero;stroke:none"
         id="path17819"
         d="m 136.27134,853.10415 c -0.084,0.0672 -0.1805,0.11753 -0.28963,0.14272 -0.37777,0.0965 -0.75555,-0.13432 -0.85209,-0.5121 -0.0294,-0.13432 -0.021,-0.28123 0.021,-0.40296 0.61283,-1.93085 1.12073,-3.97922 1.46912,-6.23748 1.27184,-8.21869 0.37358,-18.79218 -4.80613,-35.26316 -4.61305,-14.67025 1.26344,-25.02127 9.17992,-32.29973 1.5153,-1.39357 3.10195,-2.66541 4.6928,-3.81972 -5.40637,9.75498 -9.09178,22.26352 -5.41477,31.46863 8.85672,22.18376 7.61846,32.60195 3.71059,38.97794 -1.88888,3.07677 -4.60466,5.49033 -7.7108,7.94586" /><path
         inkscape:connector-curvature="0"
         style="fill:#f68b32;fill-opacity:1;fill-rule:nonzero;stroke:none"
         id="path17823"
         d="m 236.19272,837.45169 c 0.30222,0.0882 0.5163,0.37777 0.5079,0.70098 -0.0168,0.34 -0.25605,0.61703 -0.57506,0.6758 -24.53016,4.34021 -39.46905,-13.411 -44.63617,-29.23136 -7.42537,-22.73784 -15.23691,-36.30834 -22.06623,-44.40951 14.33025,7.00562 31.58615,21.75982 36.45525,40.573 5.40637,20.86155 18.108,29.10963 30.31431,31.69109" /><path
         inkscape:connector-curvature="0"
         style="fill:#f68b32;fill-opacity:1;fill-rule:nonzero;stroke:none"
         id="path17833"
         d="m 272.0981,811.76721 c 0.39037,0.004 0.69679,0.32321 0.69679,0.71358 -0.008,0.3316 -0.24765,0.60863 -0.55407,0.67579 -17.99467,6.00242 -39.0619,7.2071 -47.96059,-11.37941 -10.47695,-21.87734 -22.2971,-33.94934 -33.0217,-40.77867 -5.32242,-3.38738 -10.32164,-5.45255 -14.66605,-6.79574 l -0.28963,-0.0882 c 3.37059,-0.76814 7.15254,-1.26765 11.21571,-1.20468 14.97667,0.23925 35.49823,8.18092 53.87486,43.32655 6.33402,12.11397 18.67886,15.55592 30.70468,15.53073" /><path
         inkscape:connector-curvature="0"
         style="fill:#f68b32;fill-opacity:1;fill-rule:nonzero;stroke:none"
         id="path17835"
         d="m 308.45681,703.47182 c -22.03685,33.29874 -43.41889,35.48983 -84.76843,9.37301 -11.47175,-7.24488 -31.44344,-1.87208 -43.63716,4.46614 0.31481,-0.58346 0.6632,-1.21308 1.05357,-1.87209 2.11554,-3.55947 5.38539,-8.05919 10.04461,-11.88731 9.2093,-7.56808 24.08103,-12.72261 46.84405,-2.06936 26.78002,12.54212 42.79767,11.00164 53.06474,7.97524 2.11974,-0.62962 11.92509,-4.90267 16.48357,-6.99722 0.0797,-0.0378 0.1721,-0.0714 0.27284,-0.0756 0.38616,-0.0168 0.71357,0.28963 0.72616,0.6758 0.008,0.14271 -0.0168,0.29802 -0.0839,0.41135" /><path
         inkscape:connector-curvature="0"
         style="fill:#f68b32;fill-opacity:1;fill-rule:nonzero;stroke:none"
         id="path17837"
         d="m 295.14236,660.89242 c 0.1637,0.13432 0.26444,0.34 0.25185,0.56667 -0.0126,0.36518 -0.29383,0.659 -0.58765,0.67999 -1.92246,0.29802 -5.45255,0.99061 -7.69821,2.0106 -13.89371,6.31303 -21.76402,21.4534 -32.62294,25.56695 -9.23869,3.50071 -20.52156,3.71058 -40.81645,-7.40438 -14.45617,-7.92068 -26.93533,-3.55948 -37.53401,4.5249 0.26445,-1.41456 0.62543,-3.07257 1.10395,-4.64663 1.17949,-3.89528 3.22367,-8.8819 6.6992,-13.33125 6.85031,-8.78536 20.14798,-10.8883 43.26359,-2.49751 6.1913,2.25406 15.84974,9.09178 23.38005,2.19529 17.46578,-15.99246 27.17039,-15.28728 34.65453,-13.48235 4.74317,1.14171 7.99622,3.89527 9.90609,5.81772" /><path
         inkscape:connector-curvature="0"
         style="fill:#f68b32;fill-opacity:1;fill-rule:nonzero;stroke:none"
         id="path17839"
         d="m 272.67316,626.77938 c 0.0965,-0.0504 0.19728,-0.0756 0.31901,-0.0756 0.39037,0.0126 0.69678,0.34 0.67999,0.72617 -0.004,0.0923 -0.0336,0.17629 -0.0672,0.25185 l -2.05677,4.1807 c -2.10714,4.25207 -5.43995,9.25128 -10.59868,13.50754 -11.3962,9.4024 -32.04368,15.45938 -68.70041,0.80173 -15.09839,-6.0402 -29.14741,9.58288 -36.45945,20.4502 -0.75555,-2.88368 -1.71258,-9.3856 1.64542,-17.87714 2.50591,-6.34661 8.15154,-12.9115 13.89791,-17.45319 l 2.22047,-1.75875 -2.71997,-0.79332 c -1.12913,-0.32741 -2.71158,-0.78074 -4.62564,-1.14172 -3.018,-0.57086 -6.89649,-0.91506 -11.14016,-0.14691 -8.14314,1.47332 -17.36504,6.99302 -24.51337,22.16697 -0.28543,-1.35579 -0.55827,-2.89207 -0.72617,-4.357 -0.44493,-3.99602 -0.51209,-9.03721 0.94444,-13.33125 4.95304,-14.56531 16.53813,-28.26593 37.41228,-25.05905 35.78785,5.50292 53.89165,-0.0168 62.44195,-5.04958 l 2.96762,-1.75036 c 0.12593,-0.0839 0.26864,-0.12592 0.42815,-0.12173 0.38617,0.0126 0.68839,0.3358 0.6758,0.72617 0,0.0881 -0.0252,0.17629 -0.0546,0.25605 l -1.78813,4.26045 c -1.6874,4.04639 -4.39059,8.79796 -8.66364,13.10459 -2.92985,2.95503 -6.63204,5.72958 -11.28706,7.91228 l -3.90787,1.8301 4.21429,0.91926 c 31.15381,6.77895 47.95219,3.21528 56.33878,-0.71778 l 3.12294,-1.46072" /></g><g
       transform="translate(173.26736,-0.49995709)"
       id="g3244"><path
         inkscape:connector-curvature="0"
         style="fill:#f68b32;fill-opacity:1;fill-rule:nonzero;stroke:none"
         id="path17841"
         d="m 174.97015,519.22417 -12.9256,11.60045 -12.72962,-11.60045 4.89503,-13.59665 15.86091,0 4.89928,13.59665" /><path
         inkscape:connector-curvature="0"
         style="fill:#f68b32;fill-opacity:1;fill-rule:nonzero;stroke:none"
         id="path17843"
         d="m 220.09953,594.32854 c 1.8385,-3.41257 3.25305,-7.16933 3.37898,-10.78337 0.22247,-6.68661 -1.62863,-11.13176 -4.71799,-13.71322 l -0.28962,-0.23926 0.21407,-0.29802 c 3.16491,-4.46194 7.18611,-5.43156 10.98485,-4.42836 5.04119,1.32221 8.23129,5.77156 4.94465,15.01445 -2.17431,6.12414 -9.06659,12.10557 -13.40681,15.39641 -0.12592,0.10494 -0.29382,0.15531 -0.46592,0.15531 -0.41135,0 -0.74295,-0.3316 -0.74295,-0.73876 0,-0.13012 0.042,-0.26025 0.10074,-0.36518" /><path
         inkscape:connector-curvature="0"
         style="fill:#f68b32;fill-opacity:1;fill-rule:nonzero;stroke:none"
         id="path17845"
         d="m 189.34447,595.91519 c -0.0294,0.0755 -0.0378,0.1721 -0.0378,0.26444 0,0.40716 0.3316,0.73876 0.73876,0.73876 0.1595,0 0.29382,-0.0546 0.41555,-0.13432 6.22488,-4.55848 17.91911,-14.16235 21.42402,-24.03066 4.89008,-13.7468 0.14691,-20.36205 -7.35402,-22.33908 -5.65822,-1.48591 -11.63545,-0.042 -16.34924,6.59427 l -0.31062,0.44074 0.42815,0.36098 c 4.59626,3.83651 7.34981,10.44757 7.01401,20.39563 -0.20567,5.99823 -2.77874,12.18953 -5.96884,17.70924" /><path
         inkscape:connector-curvature="0"
         style="fill:#f68b32;fill-opacity:1;fill-rule:nonzero;stroke:none"
         id="path17847"
         d="m 161.9852,595.98655 c -0.063,0.11333 -0.10074,0.23506 -0.10074,0.36938 0,0.40715 0.3316,0.73876 0.73876,0.73876 0.18469,0 0.35678,-0.0672 0.48271,-0.1763 2.76195,-2.26245 6.99303,-6.13674 9.67103,-10.52312 4.23947,-6.92587 8.5419,-15.94629 8.5419,-24.08523 0,-16.10579 -7.10216,-22.75463 -17.62948,-22.75463 -10.04461,0 -15.44678,4.3696 -17.07961,14.71223 l -0.12593,0.79332 c 0,0 20.61391,-9.33103 20.61391,20.07243 0,8.81054 -3.12294,16.71862 -5.11255,20.85316" /><path
         inkscape:connector-curvature="0"
         style="fill:#f68b32;fill-opacity:1;fill-rule:nonzero;stroke:none"
         id="path17849"
         d="m 109.1807,594.32854 c -1.8385,-3.41257 -3.24886,-7.16933 -3.37059,-10.78337 -0.23086,-6.68661 1.62443,-11.13176 4.70959,-13.71322 l 0.28963,-0.23926 -0.20988,-0.29802 c -3.16911,-4.46194 -7.18611,-5.43156 -10.989041,-4.42836 -5.041193,1.32221 -8.23129,5.77156 -4.94465,15.01445 2.1785,6.12414 9.070791,12.10557 13.406801,15.39641 0.12593,0.10494 0.29382,0.15531 0.46592,0.15531 0.41136,0 0.74296,-0.3316 0.74296,-0.73876 0,-0.13012 -0.042,-0.26025 -0.10074,-0.36518" /><path
         inkscape:connector-curvature="0"
         style="fill:#f68b32;fill-opacity:1;fill-rule:nonzero;stroke:none"
         id="path17859"
         d="m 139.93995,595.91519 c 0.0252,0.0755 0.0378,0.1721 0.0378,0.26444 0,0.40716 -0.33161,0.73876 -0.74296,0.73876 -0.15531,0 -0.29383,-0.0546 -0.41136,-0.13432 -6.22488,-4.55848 -17.91911,-14.16235 -21.42821,-24.03066 -4.88589,-13.7468 -0.14691,-20.36205 7.35821,-22.33908 5.65822,-1.48591 11.63126,-0.042 16.34505,6.59427 l 0.31481,0.44074 -0.42815,0.36098 c -4.60045,3.83651 -7.35401,10.44757 -7.01401,20.39563 0.20148,5.99823 2.77874,12.18953 5.96884,17.70924" /></g><g
       transform="translate(170.58941,0.39976291)"
       id="g3200"><path
         inkscape:connector-curvature="0"
         style="fill:#f68b32;fill-opacity:1;fill-rule:nonzero;stroke:none"
         id="path17809"
         d="m 196.76984,894.21023 c 2.28764,-8.25228 10.60708,-31.55258 10.60708,-31.55258 l 15.93789,0 -21.81019,56.79632 -11.34583,0 -21.13439,-56.79632 16.66406,0 11.08138,31.55258" /><path
         inkscape:connector-curvature="0"
         style="fill:#f68b32;fill-opacity:1;fill-rule:nonzero;stroke:none"
         id="path17811"
         d="m 129.98349,885.84042 c 0.85629,9.52412 0.85629,33.61355 0.85629,33.61355 l -14.07001,0 0,-56.79632 16.89072,0 17.68825,32.6943 c -0.8395,-9.38141 -0.8395,-32.6943 -0.8395,-32.6943 l 14.07001,0 0,56.79632 -16.36604,0 -18.22972,-33.61355" /><path
         inkscape:connector-curvature="0"
         style="fill:#f68b32;fill-opacity:1;fill-rule:nonzero;stroke:none"
         id="path17813"
         d="m 61.178137,862.65765 14.808765,0 0,19.13639 16.752206,-19.13639 18.997862,0 -23.703255,26.59114 25.378055,30.20518 -19.828965,0 -17.595903,-21.87315 0,21.87315 -14.808765,0 0,-56.79632" /><path
         inkscape:connector-curvature="0"
         style="fill:#f68b32;fill-opacity:1;fill-rule:nonzero;stroke:none"
         id="path17861"
         d="m 264.57199,889.76928 c 3.87009,-2.47652 6.376,-6.41797 6.376,-11.59768 0,-13.65026 -12.71422,-15.51395 -21.92772,-15.51395 l -22.30129,0 0,56.79632 24.28251,0 c 9.68782,0 22.4566,-3.73577 22.4566,-16.7648 0,-6.68241 -3.94564,-11.98805 -8.8861,-12.91989 z m -23.31289,-15.16136 7.66883,0 c 3.55108,0 7.61006,1.11654 7.61006,5.48613 0,4.21848 -3.62244,5.7044 -7.10217,5.7044 l -8.17672,0 0,-11.19053 z m 10.13276,32.89578 -10.13276,0 0,-11.92929 8.54191,0 c 3.68959,0 9.12115,0.81852 9.12115,5.77996 0,4.59206 -3.98342,6.14933 -7.5303,6.14933" /></g></g></svg>