<svg version="1.1" xmlns="http://www.w3.org/2000/svg" width="250" height="250" viewBox="0 0 250 250"><title>Nigeria Football Association</title>
<path d="m-33.276,152.73a79.352,79.352,0,1,1,-158.7,0,79.352,79.352,0,1,1,158.7,0z" transform="matrix(1.5752687,0,0,1.5752687,302.41934,-115.59139)" fill="#FFF"/>
<g fill-rule="evenodd" clip-rule="evenodd" transform="matrix(0.43655464,0,0,0.43655464,-49.476484,-8.7310928)">
<ellipse d="m 460.933,406.28699 c 0,33.65016 -27.30167,60.929 -60.98,60.929 -33.67832,0 -60.98,-27.27884 -60.98,-60.929 0,-33.65016 27.30168,-60.929 60.98,-60.929 33.67833,0 60.98,27.27884 60.98,60.929 z" rx="60.98" ry="60.929" cy="406.29" cx="399.95" fill="#fcf6f6"/>
<path d="m383.31,372.78c0.728-0.063,1.456-0.127,2.183-0.195,3.214,5.109,3.95,12.264,12.919,11.964,6.278-0.21,12.62,1.741,18.955,2.567,0.626,0.08,1.426-0.94,2.103-1.5,8.052-6.668,8.674-8.937,4.489-18.408-1.33-3.009-3.184-5.785-4.797-8.669-0.616-4.48,2.108-4.725,5.295-3.998,3.064,0.695,5.942,2.067,8.085,4.368,2.705,2.908,3.457-0.174,4.888-1.299,13.967,9.612,22.13,23.083,24.6,39.587,3.643,24.344-3.617,44.717-24.568,58.851-20.73,13.983-44.039,19.09-65.776,6.025-41.52-24.953-45.122-71.386-12.026-104.25,1.757,2.877-1.551,3.517-2.325,5.27-9.344,10.724-14.862,23.045-16.182,37.7,3.797-1.033,4.941-3.959,6.141-6.285,3.225-6.249,5.647-12.915,8.939-19.124,1.817-3.427,3.199-6.693,2.807-10.579,3.605,0.111,4.361,2.808,5.047,5.567-0.991,0.454-2.338,0.64-2.916,1.406-4.958,6.573-9.428,13.945-10.454,21.82-0.905,6.945,4.081,13.162,9.32,18.176,0.664,0.636,1.348,0.856,2.335,0.604,8.866-2.274,19.123-2.626,20.392-15.135,0.021-0.211,0.11-0.455,0.25-0.606,7.211-7.866,6.256-15.827,0.296-23.854zm-31.767,63.708c-0.55-0.167-1.408-0.64-1.595-0.45-0.788,0.799-0.211,1.429,0.562,1.901,5.514,9.218,12.944,16.396,22.944,20.909-6.883-7.875-14.962-14.579-21.911-22.36zm4.126-3.302c-0.25,4.602,4.045,10.352,12.167,16.286,9.614,7.023,25.047,1.225,28.229-10.192,2.053-7.365,0.045-12.035-5.77-17.103-7.376-6.428-13.29-13.718-24.792-9.105-2.87,1.151-5.121,1.864-6.105,4.688-1.745,5.01-3.201,10.11-3.729,15.426zm42.943-4.354c0.772,5.516-0.133,10.467-2.012,15.245-1.118,2.844-0.545,4.704,2.018,6.738,11.477,9.112,20.807,9.085,32.06-0.233,7.575-6.274,7.4-14.993,7.908-23.551,0.12-2.023-1.676-2.189-2.918-3.049-8.782-6.065-17.314-8.431-26.42-0.24-2.654,2.388-6.672,3.261-10.636,5.09zm54.481-23.635c-0.354-2.61-0.627-5.47-1.144-8.285-2.07-11.271-7.798-16.764-19.127-18.676-2.119-0.358-3.604-0.095-5.289,1.512-5.983,5.707-10.389,11.739-6.736,20.57,0.49,1.188,0.729,2.629,0.596,3.899-0.92,8.722,3.819,13.389,11.35,16.052,2.81,0.995,5.19,3.694,8.595,2.461,4.595-1.665,11.736-12.26,11.755-17.533zm4.498,11.444c5.374-10.408,0.914-32.69-7.539-40.742,0.481,14.115,5.978,26.196,7.539,40.742zm-42.928,45.959c10.526-1.28,19.128-6.124,26.164-13.854-9.809,2.608-16.666,10.67-26.164,13.854z" fill="#050202"/>
<path d="m376.35,362.73c0.079,0.396,0.179,0.783,0.292,1.157,0.59,1.391,2.207,2.396,1.632,4.248-1.921,0.177-3.838,0.354-5.755,0.53-2.821,0.023-4.423-1.255-4.563-4.187-0.169-3.502,1.646-5.58,4.415-6.898,2.851,0.848,2.293,3.815,3.979,5.15z" fill="#050202"/>
<path d="m393.11,356.33c-2.403,2.296-4.806,4.592-7.208,6.885-3.871-4.467-0.528-7.92,2.39-10.248,2.233-1.782,4.963-0.344,4.818,3.363z" fill="#050202"/>
<path d="m519.28,327.58c-7.519-12.026-8.691-25.927-11.878-39.16-2.099-8.717-4.478-17.656-3.471-26.802,0.819-7.441,2.296-14.81,3.445-22.215,1.877-12.082-0.144-23.237-7.229-33.487-3.467-5.015-7.622-9.451-10.222-15.258-4.059-9.067-9.506-17.518-16.871-24.43-8.833-8.29-22.393-6.819-26.446,2.742-2.045,2.397-1.987,5.165-1.41,8.022,0.08,1.744,0.161,3.487,0.241,5.23-0.261,2.915-0.163,5.786,1.051,8.517-0.181,3.267-0.056,6.583-0.618,9.781-0.807,4.591-3.663,6.898-8.566,7.128-5.086,0.238-7.928-1.509-8.104-6.793,0.44-1.513,1.531-1.521,2.768-1.199,3.632,4.55,3.632,4.55,6.398,1.234-0.986-1.596-0.906-4.157-3.714-4.107-0.352-0.258-0.703-0.515-1.054-0.773-1.11-1.941-2.22-3.882-3.33-5.824,0.112-0.678,0.003-1.224-0.812-1.342,0,0-0.028-0.046-0.028-0.046-0.068-2.155-0.133-4.311-0.199-6.467-0.001,0.001,0.221-0.288,0.221-0.288,0.817-0.116,1.633-0.232,2.45-0.348,2.221,0.771,3.437,0.526,2.213-2.188-0.226-0.484-0.453-0.969-0.679-1.452-0.381-1.938-1.084-3.715-2.553-5.109,0.146-1.255-0.27-2.235-1.405-2.857-0.081-0.788-0.161-1.574-0.24-2.361-0.393-0.479-0.784-0.958-1.177-1.436,0.393,0.479,0.784,0.958,1.177,1.435,0.45,0.062,0.899,0.125,1.351,0.187,2.856,0.071,3.578-0.586,2.249-2.018-2.076-2.24-4.345-4.745-7.058-5.854-4.855-1.985-3.795-4.801-1.771-8.458-2.785,0-5.307-0.53-7.492,0.104-5.701,1.652-11.414,1.303-16.56-0.884-3.916-1.665-7.373-1.506-10.741-0.055-3.427,1.477-6.37,0.904-9.59-0.172-8.719-2.915-13.858-1.054-19.138,6.935,2.918,3.458,7.304,4.662,11.051,6.835,11.811,6.849,14.168,16.466,6.669,27.755-1.808,2.722-3.87,5.276-5.816,7.908l-0.011,0.05s-0.372,0.064-0.371,0.068c-4.091,0.841-5.836-1.453-6.07-5.005-0.318-4.836-0.238-9.698-0.342-14.548-0.37-17.282-16.302-28.943-30.909-22.628-2.43,0.435-4.406,1.689-6.412,3.104-25.704,18.135-40.031,58.875-31.682,90.314,1.264,7.187,1.791,14.422,1.072,21.694-0.778,7.875-1.719,15.733-2.588,23.599-2.222,13.911-2.169,27.658,2.982,41.034-0.142,0.936-0.027,1.718,1.123,1.887,0.474,3.978,2.187,7.79,6.374,7.719,3.511-0.06,3.077-4.018,3.094-6.817,0.541-3.058,1.082-6.117,1.622-9.18,1.632-2.567,3.263-5.137,4.894-7.707,8.611-10.059,14.368-22.889,27.631-28.423,0.873-0.089,1.31-0.607,1.418-1.446,0.373-0.387,0.746-0.775,1.119-1.161,0,0,0.213-0.265,0.213-0.265,0.313-0.349,0.627-0.697,0.939-1.045-0.001,0,0.329-0.392,0.329-0.392,0.34-0.735,0.679-1.471,1.017-2.205,0.452-0.197,0.631-0.537,0.535-1.021,0.642-0.592,1.283-1.184,1.926-1.776,0.401-0.143,0.625-0.427,0.669-0.852l0.283,0.082s-0.164-0.226-0.162-0.227c0.809-0.976,1.621-1.952,2.431-2.928,2.176-2.192,4.353-4.384,6.529-6.577-0.001,0.001,0.331-0.272,0.331-0.272,4.059,3.686,2.982,8.147,1.849,12.744,5.419,0.178,4.635,4.135,4.546,7.58-0.146,5.633-2.051,11.416,1.564,16.694l0.136,0.441c-0.184,1.109,0.161,2.026,0.996,2.769,1.692,6.603,3.139,13.282,5.177,19.777,1.119,3.565,0.049,5.176-3.034,6.698-3.794,1.874-7.824,3.667-10.073,7.672,4.902,3.651,6.498-5.221,11.442-2.304-4.43,3.96-7.923,8.467-13.334,10.666,1.764,2.874-1.544,3.514-2.32,5.27,0.569,0.569,1.138,1.139,1.708,1.709,3.605,0.111,4.361,2.808,5.047,5.567,2.648-1.382,7.201,6.691,8.437-1.7-2.822,0.023-4.424-1.255-4.564-4.187-0.169-3.502,1.646-5.58,4.415-6.898,2.852,0.847,2.294,3.813,3.979,5.149,2.903-5.209-0.76-12.235,4.87-16.84,1.699-1.388-1.071-2.557-1.778-3.744,2.532-2.849,4.533-1.427,6.216,0.49,1.17,1.331,2.042,3.125,0.385,4.712-4.219,4.039-7.959,8.207-6.9,14.76,0.072,0.444-1.631,1.174-2.508,1.77,0.597,1.4,2.214,2.406,1.639,4.258,1.675,1.548,3.354,3.095,5.032,4.642,0.728-0.063,1.456-0.127,2.185-0.192,1.718-3.052,0.833-6.22,0.417-9.366-3.874-4.466-0.531-7.919,2.387-10.247,2.233-1.781,4.962-0.344,4.818,3.363,3.362,1.787,4.591,5.179,6.297,8.242,1.278,2.294,3.041,4.14,5.345,5.168,3.169-2.291-0.769-4.808,1.327-7.344,2.464,0.934,2.875,3.784,4.308,5.626,2.284,2.936,5.22,4.586,8.585,2.93,4.257-2.099,0.667-4.761-0.183-7.146-0.648-1.825-1.896-3.664,0.367-5.275-0.616-4.48,2.108-4.725,5.295-3.998,3.064,0.695,5.942,2.067,8.085,4.368,2.705,2.908,3.457-0.174,4.888-1.299-2.947-3.469-5.9-6.932-8.838-10.406-3.127-3.701-2.742-6.493,1.784-8.877,2.146-1.13,4.202-1.097,6.379-1.16,9.086-0.264,18.146-1.211,26.942-3.309,8.004-1.909,8.929-6.231,3.625-12.407-4.085-4.756-9.548-7.88-14.063-12.095-8.622-8.045-14.929-17.54-16.11-29.58-0.392-3.98-1.541-9.482,3.102-11.225,3.886-1.459,6.197,3.303,8.656,5.999,1.327,1.453,2.449,3.142,3.417,4.863,3.684,6.554,7.044,13.3,10.938,19.725,6.191,10.218,15.053,17.764,25.756,22.785,3.958,1.856,8.149,3.093,11.858,5.651,5.73,3.954,11.308,8.44,18.745,9.11,1.879-3.33,1.119-6.781-0.335-9.105zm-19.44-102.95c-0.002,0.231,0,0.462,0.008,0.689-0.008-0.227-0.01-0.458-0.008-0.689zm-69.975,46.297c-4.484-3.749-4.89-9.262-1.098-15.192,2.226,4.945,5.797,9.764,1.098,15.192zm-33.72-6.242c-0.02,0.013-0.036,0.018-0.055,0.03-0.349,3.959,7.157,6.355,1.849,11.621-3.858-3.511-8.765-6.254-7.203-12.666,2.591-1.881,3.235,2.425,5.354,1.044,0.002-0.026,0.001-0.053,0.004-0.079,0.01-0.012,0.021-0.016,0.031-0.027-1.024-4.844-6.112-9.757,0.833-14.641,1.466,2.194,2.992,4.611,4.656,6.928,1.846,2.568,0.833,4.806-0.333,7.275-1.588,3.36-3.604-1.264-5.156,0.438,0.006,0.026,0.015,0.052,0.02,0.077zm18.692-60.957c-0.165-3.293,3.321-4.367,4.97-6.719-1.646,2.352-5.134,3.426-4.967,6.72,4.814,2.505,1.963,5.91,2.046,10.421-5.077-3.51-2.508-7.111-2.856-10.088,0.362,0.114,0.63,0.002,0.807-0.334zm-1.886,12.671c6.672,5.039,0.4,9.666-0.709,14.47-4.457-5.105,2.384-9.469,0.709-14.47zm2.561,21.334c-0.264-0.115-0.569-0.341-0.81-0.405,0.24,0.064,0.548,0.29,0.81,0.405zm-3.472,8.348c-0.317,6.17-7.534-1.763-9.534,3.145,0.703-2.53,1.371-5.072,2.143-7.582,0.177-0.569,0.719-1.026,1.173-1.641,3.21,1.034,6.376,2.98,6.218,6.078zm-0.26,8.345c-0.85,1.818-1.468,3.14-2.421,5.178-1.807-1.961-3.252-3.53-4.808-5.219,2.323-1.485,4.32-0.092,7.229,0.041zm-5.18-18.951c-1.585-0.674-2.131-2.646-4.061-2.008-2.013,1.918,0.452,5.225-2.072,7.138-4.551-5.378-2.047-9.444,2.477-13.459,2.198,2.227,5.27,3.821,3.656,8.329zm-2.883,42.876c0.62,4.546,3.406,3.529,5.423,4.212-1.823,4.391-4.502,4.688-7.894,2.812-0.71-2.473,1.859-3.362,2.471-7.024zm2.092-7.582c-1.205-2.234,1.071-3.287,3.807-3.886,1.047,2.94,1.945,5.626,6.722,6.693-5.526,1.399-8.779,0.441-10.529-2.807zm-37.3-114.78c12.681-1.018,20.679,4.622,19.961,13.547-7.729-3.011-19.219-10.724-19.961-13.547zm17.191,37.803c4.241-5.461,4.694-12.351,8.602-17.75,1.498-2.07-0.857-3.616-1.38-5.424-0.718-2.487-2.318-4.805-1.603-7.634,3.189-2.184,5.773,1.494,8.743,0.917,1.053-3.922,1.053-3.922-8.274-8.713,8.938-1.469,18.253,1.963,30.66,11.296,0.077,4.334-1.783,3.677-4.416,1.849-2.146-1.49-3.001-5.2-7.6-3.97,2.187,3.205,4.158,6.097,6.131,8.988h0.001c0.058,1.493,0.916,3.078-0.496,4.405-2.37-3.017-4.207-6.53-8.409-9.253-0.298,6.351,6.522,10.196,3.837,16.07-2.6,1.015-2.736-3.633-5.714-2.246-1.666,5.102,4.008,10.042,1.648,16.168-2.551-2.352-1.348-5.799-6.085-6.771,2.604,7.437-2.508,13.514-3.311,22.097,3.895-2.942,5.998-4.532,8.12-6.135,0.948,1.527,1.639,2.639,2.328,3.75-0.119,0.857-0.281,1.711-0.351,2.572-0.15,1.869,0.627,4-1.632,5.226-2.568,1.394-2.476-2.897-4.713-2.155-0.473,7.589-3.17,10.49-9.279,9.958-0.698-1.005-1.546-1.2-2.566-0.479,0.467,0.567,0.934,1.134,1.4,1.701,2.318,6.206,2.318,6.206-0.543,11.957-4.338-3.446-7.434-6.985-3.738-12.536-1.562-1.983-3.389-2.214-5.689-1.981v7.06c-3.083-0.891-2.176-3.99-3.775-5.238-0.984-0.947-1.47-1.882-1.449-2.802-0.021,0.92,0.465,1.854,1.449,2.802,0.049-1.841,0.099-3.682,0.149-5.522,0.593-1.35,0.778-2.656-0.409-3.816-0.82-0.029-1.641-0.058-2.462-0.087,0.821,0.029,1.642,0.058,2.462,0.086-1.206-1.56-1.719-3.337-1.667-5.292,2.438-6.845,5.669-13.48,10.031-19.098zm32.638-21.25c-0.252,0.127-0.499,0.256-0.744,0.379,0.245-0.124,0.492-0.252,0.744-0.379zm-33.961,89.105c1.071,1.733,1.438,4.008-0.142,4.727-4.309,1.961-5.772-2.315-8.695-4.404,3.299-0.713,5.9-5.078,8.837-0.323zm-4.846-14.158c3.764,2.06,5.356,5.096,5.533,9.119-1.656-2.939-7.614-3.314-5.533-9.119zm2.458-6.449c3.544-0.783,6.378,0.33,7.875,3.306,1.12,2.229-0.372,4.135-2.495,5.442-3.173-2.072-3.852-5.575-5.38-8.748zm-7.466-19.902c-0.146,0.116-0.303,0.223-0.478,0.317,0.174-0.095,0.332-0.201,0.478-0.317zm-0.559,0.365c-0.021,0.011-0.043,0.02-0.064,0.03,0.02-0.011,0.044-0.019,0.064-0.03zm-3.472,2.549c0.863,6.02,8.379,8.38,7.943,15.635-3.599,0.785-4.867,4.661-7.06,8.133-3.852-3.701-3.369-8.475-5.052-12.352,0.23-3.056,0.466-6.11,0.687-9.167,0.166-2.303,1.272-3.123,3.482-2.249zm-8.218,12.289c-0.504,0.159-0.988,0.267-1.423,0.249,0.435,0.018,0.919-0.09,1.423-0.249,0.201-0.064,0.406-0.135,0.612-0.21-0.206,0.075-0.411,0.146-0.612,0.21zm3.428,12.583c-0.316,0.017-0.626,0.088-0.933,0.184,0.307-0.095,0.617-0.167,0.933-0.184zm-68.885,53.504c-0.6-1.393-0.184-3.089-0.753-4.491,0.569,1.402,0.153,3.098,0.753,4.491,2.286-17.456,6.677-34.819,2.32-52.569-2.655-17.175-0.747-34.065,5.232-50.149,5.69-15.306,15.314-28.13,29.303-37.206,10.95-0.52,15.554,3.029,17.916,13.993,1.161,5.388,1.984,10.85,3.231,16.215,1.063,4.573,2.755,9.349,6.54,12.016,5.501,3.879,6.162,8.106,4.119,14.034-1.033,2.996-1.605,6.303-1.534,9.728,0.044,2.167-0.469,6.215-4.958,4.093-0.386-3.162-2.661-5.273-4.305-7.734-1.733-6.693-3.466-13.388-5.198-20.081-0.16-3.967-0.062-7.966-0.538-11.896-0.878-7.257-1.019-7.241-7.812-9.451-2.634,0.479-2.946,3.833-5.446,4.509-1.37-2.873-1.37-2.873,0.371-8.198-5.299,0.783-9.202,2.703-10.339,8.411-0.278,1.394-1.208,3.259-2.355,3.787-14.48,6.664-14.357,21.129-17.706,33.503-1.845,6.816-0.357,14.098,0.057,21.133,1.117,18.976-3.488,37.297-5.79,55.889-0.978,7.899-0.867,15.897,2.709,23.374v0.002c-0.281,2.201,0.144,4.661-2.241,6.09-3.603-9.539-3.234-19.56-3.576-29.493zm57.411-35.883c-0.025,0.059-0.035,0.116-0.029,0.169-0.005-0.053,0.004-0.11,0.029-0.169zm-2.909-21.59c-2.678,0.476-5.028-1.088-5.691-4.174-0.081-4.789,3.8-6.793,6.679-9.502,0.305-1.41,0.572-2.833,1.095-4.163-0.523,1.33-0.79,2.753-1.095,4.164,0.316,0.212,0.663,0.289,1.039,0.231h0.001c0.459,1.025,0.918,2.05,1.378,3.076,0.056,1.526,0.307,3.076,0.123,4.572-0.3,2.431-0.915,5.332-3.529,5.796zm-45.861,69.483c-0.581-4.342-1.276-8.666-0.437-13.06,1.233-6.458,3.139-12.813,2.32-19.551-0.368-3.024,2.694-4.632,3.307-7.872,4.007,3.018,3.326,6.754,3.049,10.038-0.898,10.677-2.116,21.327-3.213,31.97l-0.002-0.002c0,0.002,0.002,0.002,0.002,0.003,0,0.005,0,0.009-0.001,0.015,0.073,0.073,0.137,0.125,0.207,0.191l-0.257,0.062c-2.408,1.487-4.453,2.111-4.975-1.794zm7.04-46.938c-6.206-3.747,1.298-8.211-1.504-11.879,5.525,2.575,5.525,2.575,1.504,11.879zm1.616,46.952c-0.001,0.004-0.003,0.008-0.004,0.012,0.001-0.004,0.002-0.008,0.004-0.012zm-4.581-90.464c3.106,8.27,12.022,13.855,10.338,24.325-0.754,0.197-1.508,0.395-2.262,0.592,0.357,0.906,0.529,2.018,0.958,2.844-0.429-0.826-0.601-1.938-0.958-2.845-9.906-5.697-8.558-15.422-8.076-24.916zm31.864-12.837c-6.116-6.135-6.456-14.248-0.871-19.369,1.799,1.453,3.288,2.657,4.883,3.947-1.168,5.136-3.701,9.816-4.012,15.422zm-0.875,7.764c2.616,3.605,4.627,3.558,6.562-0.426,1.65,4.646,2.037,8.777-4.168,10.223-3.069-2.063-6.367-3.838-8.666-6.875-0.077-0.762-0.156-1.525-0.234-2.289-0.551-0.006-1.103-0.012-1.654-0.017,0.552,0.005,1.103,0.011,1.655,0.016,1.865-1.897,0.467-4.687,1.8-6.926,2.59,1.455,3.21,4.234,4.705,6.294zm-6.823,36.096c-2.927-1.911-5.092-4.499-6.718-7.567,0.521-1.704,1.042-3.41,1.562-5.114,1.974,1.365,3.911,2.789,5.935,4.076,2.201,1.398,4.148,1.463,5.216-1.44,0.568,0.821,1.135,1.64,1.701,2.461,1.875-0.946,2.117-2.934,2.81-4.632-0.693,1.698-0.935,3.686-2.81,4.632-0.996,1.914-1.993,3.828-2.988,5.742-1.569,0.614-3.138,1.228-4.708,1.842zm-1.623-31.061c3.564,3.757,4.937,7.923,2.387,12.819-0.735,0.286-1.47,0.571-2.205,0.856v0.001c-0.21-0.222-0.432-0.234-0.666-0.033-6.231-4.772-6.129-7.637,0.484-13.643zm-2.072-8.556c0.32,0.126,0.598,0.291,0.854,0.474-0.256-0.183-0.534-0.348-0.854-0.474zm6.121,28.54c-1.748-0.708-3.141-1.776-3.667-3.722,0.527,1.945,1.919,3.014,3.667,3.722zm-6.621-5.396c-0.05,0.042-0.113,0.076-0.161,0.119,0.048-0.043,0.111-0.077,0.161-0.119zm-1.259-23.558s-0.088,0.008-0.091,0.008c0.452,3.948-1.401,6.564-3.829,8.85,2.428-2.286,4.28-4.902,3.826-8.85-8.983-6.021-9.444-10.021-2.495-17.998,2.088-2.396,3.492-5.388,6.203-7.893,1.398,8.989-0.819,17.469-3.614,25.883zm-5.732,0.728c4.025,3.515-1.794,6.769-0.744,10.34-0.351,0.33-0.439,0.719-0.265,1.167-0.214,0.409-0.427,0.818-0.641,1.228-0.424,0.004-0.636,0.219-0.637,0.645-0.335,2.16-0.288,4.157,0.199,6.171,0.195,0.805,0.46,1.613,0.8,2.436-0.339-0.823-0.604-1.631-0.8-2.436-0.488-2.014-0.535-4.011-0.201-6.17-6.934-4.839-8.943-12.57-5.449-21.737,4.253,1.252,4.884,5.864,7.738,8.356zm2.284,39.754h-0.001c0.32-0.231,0.387-0.521,0.201-0.871l-0.269-0.04v-0.005c2.416-0.985,3.954,0.053,5.222,2.099,1.562,2.521,3.276,4.945,4.925,7.411-1.131,0.109-1.356,0.952-1.504,1.857-4.658,2.01-7.647-0.401-10.24-3.864,0.555-2.195,1.111-4.391,1.666-6.587zm-0.747,37.545c-0.781,4.483-2.359,8.15-5.102,11.818-2.41-2.345-0.706-5.388-2.142-7.569v-0.002c-0.11-0.422-0.22-0.845-0.33-1.267,0.255-3.115-0.899-6.388,0.157-9.414-1.055,3.026,0.099,6.299-0.155,9.414,1.758-3.673,0.837-7.645,1.283-11.464,3.091-5.099,1.445-11.292,3.784-16.93,4.696,1.767,1.345,6.38,3.424,8.812-1.153,5.471,0.051,11.033-0.919,16.602zm7.19,0.122c-4.635-5.202-0.591-11.921-4.171-16.507,2.287-3.455,6.767,1.786,8.907-2.248,0.477-0.574,0.953-1.149,1.521-1.834-0.567,0.685-1.044,1.26-1.519,1.835,0.498,1.229,0.995,2.459,1.491,3.689-0.018,1.053-0.035,2.105-0.053,3.158,0.125,0.864,0.192,1.713-0.149,2.458,0.341-0.745,0.274-1.594,0.148-2.457-1.027,0.937-1.093,2.118-0.865,3.374-0.162,0.829-0.324,1.658-0.486,2.487-1.433,1.797-2.866,3.593-4.824,6.045zm16.407-15.825c-0.477,3.376-2.314,5.809-6.738,3.073,1.288-4.565,1.949-9.414,0.773-14.305-0.654,0.044-1.147-1.097-1.661-1.464,0.514,0.368,1.007,1.508,1.661,1.463,0.462-3.462,1.58-5.469,5.04-2.267,2.148,4.367,1.559,9.011,0.925,13.5zm1.067-15.506c-3.567-3.264-4.647-7.183-3.096-11.792,4.342-1.126,5.956,2.529,6.769,5.102,0.741,2.344,0.516,6.104-3.673,6.69zm8.02,6.183c0.199,0.068,0.353,0.02,0.471-0.118-0.119,0.137-0.272,0.186-0.471,0.118zm4.294,1.691c-0.263-0.113-0.569-0.335-0.812-0.396,0.242,0.061,0.549,0.284,0.812,0.396zm5.008-2.633c-1.754,1.52-1.957,4.129-3.156,6.04,1.199-1.91,1.402-4.521,3.156-6.041-0.203-1.229-0.407-2.458-0.61-3.688-1.096-0.957-1.242-2.116-1.219-3.311-0.023,1.195,0.123,2.354,1.219,3.311,0.057-1.916,0.647-3.945-1.162-5.464,0.005-0.403-0.096-0.778-0.303-1.123-0.882-0.015-1.764-0.028-2.646-0.042-1.026,0.833-2.351,1.546-1.287,3.215,0.085,1.04,0.292,2.103,0.067,3.082,0.224-0.979,0.017-2.042-0.068-3.082-1.466,1.353-1.133,3.053-0.92,4.731-0.546,0.849-1.093,1.696-1.639,2.545-0.459,0.002-0.858,0.159-1.197,0.47-0.308-0.369-0.701-0.535-1.18-0.499,0.123-0.458,0.038-0.875-0.257-1.25,0.525-1.128,1.051-2.256,1.577-3.385,0.101-2.075-0.453-4.229-0.272-6.295-0.181,2.066,0.374,4.22,0.272,6.293,2.004-3.119,1.005-6.599,1.199-9.935,0.335-0.153,0.445-0.405,0.328-0.755,0.996-0.687,1.991-1.374,2.985-2.056,0.675-2.07,2.009-4.282,2.226-6.289-0.217,2.008-1.551,4.221-2.227,6.293l0.267,0.277h0.001c0.042,2.213,0.083,4.426,0.125,6.639,0.882,0.015,1.764,0.028,2.646,0.042,0.336-1.094,0.356-2.366,1.655-2.914,1.97,3.466,3.94,6.932,5.911,10.397-1.044,2.264-2.088,4.529-3.427,7.432-0.908-2.04-1.486-3.338-2.064-4.638zm-8.863-13.852c-0.22,0.328-0.391,0.663-0.534,1,0.143-0.337,0.313-0.671,0.534-1zm-0.666,1.335c-0.112,0.316-0.199,0.637-0.26,0.96,0.061-0.323,0.147-0.643,0.26-0.96zm29.399,79.338c-0.185,2.289-2.546,3.115-4.577,2.449-3.902-1.282-4.282-4.582-3.876-8.277,3.385,1.571,8.916,0.067,8.453,5.828zm1.82-7.601c-1.498,0.898-2.999,0.308-4.342-0.527-1.735-1.081-2.041-2.732-1.629-4.607,0.685-3.128,3.505-4.758,5.09-7.255v0.004c0.29,0.878,0.583,1.755,0.877,2.632,0.176,1.71,0.155,3.471,0.582,5.115,0.443,1.705,1.502,3.387-0.578,4.638zm5.049,16.842c-0.833-3.372,2.714-2.028,3.09-4.589-0.081-1.52-3.985-0.607-2.975-4.54,2.36-3.817,7.467-0.036,11.209-1.688-1.679-3.122-1.679-3.122-8.673-2.794-2.728-4.777,4.388-7.975,2.17-12.634,0.821-0.808,1.195-1.765,0.972-2.919l0.143-0.457v0.003c1.323-0.735,0.366-3.205,3.002-3.354,2.39,4.795,4.867,9.771,7.348,14.745,0.595-0.32,1.192-0.641,1.787-0.962-1.354-6.092-4.457-11.472-7.701-16.795-3.715-7.74-11.057-8.974-18.363-11.095-1.475,4.376,0.588,7.002,2.258,9.73,0.809-0.693,1.618-1.386,2.478-2.123-0.859,0.737-1.668,1.43-2.478,2.124-0.063,2.641-0.125,5.281-0.191,7.922-6.778-3.597-5.641,4.309-9.375,6.496-3.859-6.032-4.596-13.373-7.914-19.557,1.229-6.101,4.064-12.272-1.527-18.473,4.118-0.691,3.972-7.166,9.079-4.534,1.532-4.594-9.105-5.562-2.217-10.798,2.892,2.819,6.861,3.669,10.415,5.325-0.057,4.215-1.194,7.12-6.01,6.84-0.14,2.056-0.001,4.243,1.767,4.547,5.164,0.886,7.205-3.924,10.373-6.53,1.981,0.457,3.168,1.646,4.114,3.475-2.146,4.88-4.784,9.103-11.319,8.004-0.051,0.552-0.103,1.104-0.154,1.657,3.687,4.219,7.416,5.679,12.146,1.134,4.649-4.468,8.729-1.231,12.479,1.925,5.13-2.039,5.684-7.881,9.702-10.741,2.372,0.738,2.573,3.348,4.074,4.813,0.519-0.004,1.038-0.008,1.558-0.013-0.52,0.004-1.039,0.009-1.556,0.014-0.309,1.776,0.11,3.356,1.262,4.743v-0.001c2.496,7.89-2.532,11.919-8.404,15.304,1.468,2.706,4.667,3.501,4.836,6.515,0.003,0.474,0.005,0.946,0.007,1.419-0.252,0.776-0.504,1.552-0.756,2.328-1.697-0.371-3.397-0.754-4.864,0.858,1.679,3.208,3.359,6.417,5.042,9.624-3.992,0.686-6.766-2.824-10.493-3.04v0.004c-0.861,0.925-0.584,1.792,0.125,2.642,0.32,3.536-1.522,6.951,0.023,10.694,0.785,1.9-1.594,3.456-3.526,4.037-4.323,1.302-8.707,2.71-12.963,0.715zm7.558-35.581c-1.482,0.74-1.706,2.356-1.687,4.144-0.019-1.787,0.205-3.403,1.687-4.144zm0.542-0.212c0.395-0.118,0.856-0.19,1.398-0.207-0.541,0.016-1.003,0.088-1.398,0.207zm-1.113,50.639c-1.288-7.102,3.592-7.912,9.834-9.417-3.261,4.46-7.819,5.621-9.834,9.417zm19.448-7.635c-4.321,3.643-6.571,8.205-5.688,14.212-3.155-0.143-3.913-2.94-3.513-4,2.584-6.853,2.887-14.604,8.025-21.566,0.276-1.524-2.96-0.776-3.481-2.817,0.849-1.055,1.797-2.233,2.745-3.411v-0.002c1,0.388,1.998,0.774,2.997,1.16-0.298,3.07-0.693,6.078,0.465,9.152,0.969,2.576,0.855,5.244-1.55,7.272zm12.299-17.082c-1.227-0.709-2.388-1.697-3.962-0.938h-0.001c-0.291-5.104,3.246-7.176,7.074-9.019-0.116,1.021-0.173,1.978,1.347,1.318-0.036,0.475-0.162,0.994,0.017,1.364,0.409,0.854,0.878,0.105,1.337-0.053-1.117,3.09,0.631,8.423-5.812,7.328zm14.958-2.997c-3.613,2.352-5.63-1.811-7.975-3.871-0.31-0.272-0.749-0.397-1.129-0.592-0.004,0.01-0.007,0.021-0.011,0.031-0.42-0.42-0.839-0.839-1.26-1.259-0.218-0.718-0.012-1.868-1.336-1.448,0.615-2.266-1.543-3.325-2.251-5.015-1.225-2.925-2.337-5.864,0.81-8.378,6.364-0.814,6.738,5.983,10.605,8.344,0.15,0.752,0.502,1.268,1.348,1.188,0.146,0.796,0.22,1.619,0.487,2.373,1.02,2.873,4.562,6.123,0.712,8.627zm-1.935-23.507c4.519,6.878,9.354,13.549,14.174,20.486-3.437,2.612-4.736-0.409-6.509-1.956-2.274-1.984-2.767-5.986-6.666-6.137,1.439-0.866,0.349-1.692-0.227-2.528-3.675-4.292-5.215-10.623-11.692-12.233-5.522-3.815-3.337-10.882-6.605-15.649,0.154-0.832,0.31-1.665,0.464-2.498,1.871,0.522,3.554,0.514,4.491-1.594,0.322-0.382,0.616-0.648,0.882-0.805-0.266,0.157-0.56,0.423-0.88,0.805,0.855,0.211,1.711,0.424,2.565,0.637-0.032,8.719,5.636,14.826,10.003,21.472zm14.878-21.385c-3.15-6.054-2.78-11.78-4.788-16.729-7.943,1.711-10.515-5.718-14.958-9.376-3.241-2.668,0.615-6.883,1.762-10.218,0.709-2.061,2.648-3.684,5.206-1.674,0.634-0.047,1.268-0.094,1.899-0.14,0.207-1.718-0.953-2.705-2.003-3.75,0.587-1.238,1.36-2.652,2.906-1.83,2.64,1.405,1.911,4.149,2.058,6.498h-0.001l-0.008,0.184c-0.983-0.367-1.968-0.735-2.952-1.102-0.632,0.046-1.266,0.093-1.899,0.141-0.091,1.126,0.122,2.14,1.06,2.887-0.249,2.182-0.605,4.377,0.753,6.203,2.191,1.396,3.91-0.843,5.875-0.426,0.177-1.359,0.354-2.719,0.528-4.079-0.175,1.359-0.352,2.719-0.527,4.079,0.653,1.764,0.988,3.729,2.91,4.689-0.403,1.669-0.161,3.154,1.256,4.305-0.111,0.391-0.014,0.719,0.292,0.985,0.099,3.823-1.08,7.757,0.994,11.407-0.099,2.152-0.197,4.304-0.363,7.946zm23.521-15.608c1.347-1.945,2.969-4.116,2.21-6.885-3.632-2.924-3.749-6.51-1.892-11.566,4.886,3.745,1.462,8.028,1.978,11.535,0,0-0.082,0.033-0.083,0.032,0.757,2.769-0.866,4.939-2.213,6.884zm4.735-32.255v7.936c-8.52-2.692-13.986-14.757-9.85-21.667,3.946,1.355,6.064,4.639,8.23,7.869,0.099,2.076-0.302,4.289,1.62,5.862zm-10.38-21.37c-1.932-4.647-3.176-9.579-4.708-14.339,6.511-0.267,15.529,13.303,16.403,26.109-4.963-3.907-9.596-6.718-11.695-11.77zm-0.726,31.522c0.949-0.226,1.398-0.881,1.801-1.644-0.403,0.762-0.852,1.418-1.801,1.644-0.679,0.662-1.358,1.323-2.039,1.985,0.465,0.839,0.606,1.438,0.532,1.873,0.073-0.436-0.067-1.033-0.532-1.873-0.887-0.74-1.772-1.479-2.658-2.218,0.035-1.498-0.848-2.331-2.098-2.9-1.846-7.688-5.171-15.099-4.591-23.346,6.091,7.963,7.71,17.655,11.386,26.479zm-8.192-32.924c-7.734-3.419-8.932-5.627-7.168-13.226,6.476,0.59,8.191,3.754,7.168,13.226zm-7.246,26.767c-0.426,0.611-0.853,1.222-1.278,1.833l-0.083-0.144c-0.252-0.342-0.561-0.405-0.927-0.191-0.74-0.831-1.479-1.662-2.218-2.492-0.769-1.532-1.959-2.937-1.457-4.85-2.919-1.605-3.863-4.038-4.197-6.727,0.334,2.689,1.278,5.122,4.197,6.726,1.449-0.861,2.485-2.587,4.685-2.158,2.455,2.276,0.228,5.43,1.278,8.003zm-6.22,10.582c0-0.45-0.056-0.957-0.062-1.413,0.006,0.456,0.063,0.963,0.062,1.413zm4.097,10.442c-0.152,0.745-0.304,1.491-0.456,2.235,0.152-0.745,0.304-1.491,0.454-2.234-0.206-0.943-0.04-2.241-1.635-1.871,0.983-3.332-1.06-5.815-2.418-8.49,0.774-0.776,1.548-1.55,2.323-2.325,3.434,2.473,6.706,5.027,5.939,10.01-0.39,2.544-1.143,4.395-4.207,2.675zm7.372,8.135c2.077,0.315,0.607,2.898,2.212,3.51,0.305,0.089,0.567,0.188,0.794,0.298-0.227-0.109-0.488-0.208-0.791-0.297,0.339,1.268,0.678,2.535,1.016,3.802-0.859,8.009,3.66,15.246,3.641,23.333-9.675-4.616-14.007-24.688-6.872-30.646zm3.821-9.983c0.072-1.317,0.145-2.635,0.218-3.953,0.111-0.681,0.226-1.362,0.338-2.042-0.059-0.372-0.004-0.659,0.131-0.887-0.134,0.227-0.188,0.514-0.13,0.885,1.418-0.541,2.448,0.363,3.561,0.954-0.822,5.333,4.013,10.251,1.334,16.261-3.889-3.129-4.432-7.291-5.452-11.218zm24.191,54.743c0.149,1.65,1.509,2.914,2.129,4.754-0.62-1.841-1.981-3.105-2.129-4.754zm5.076-2.889c-0.027-0.472-0.405-0.928-1.115-1.366,0.044,0.943,0.088,1.887,0.13,2.829-1.187,1.375-2.587,1.204-4.054,0.563v0.004c0,0.003-0.32-0.328-0.32-0.328-2.561-0.656-5.12-1.313-7.684-1.966-0.793-0.07-1.582-0.144-2.373-0.215-5.415-9.705-8.414-20.096-8.871-31.208,0.465,0.026,0.87,0.134,1.197,0.353-0.325-0.219-0.73-0.327-1.194-0.352,0.642,0.458,1.28,0.913,1.919,1.368,1.429,2.464,3.457,0.308,5.665,0.364,1.451,10.018,5.949,19.372,3.661,29.688,2.56,0.655,5.119,1.312,7.68,1.969-4.522-9.152-3.526-19.469-6.118-29.03-0.52-1.909-0.928-3.848-1.387-5.774-1.288-0.329-1.392-1.753-2.33-2.622,0.938,0.868,1.042,2.293,2.33,2.621,0.457-0.816,0.916-1.631,1.374-2.446,6.604,7.341,6.359,17.049,8.854,25.8,0.775,2.717,1.028,5.583,1.521,8.38,0.71,0.441,1.088,0.897,1.115,1.368zm4.139,2.527c-3.636-15.827-8.204-31.453-10.271-47.619-0.484-0.19-0.833-0.415-0.819-0.731-0.014,0.316,0.335,0.54,0.819,0.73-0.118-0.471-0.237-0.94-0.355-1.41-0.381-2.195-0.76-4.389-1.142-6.583-0.418-0.229-0.639-0.463-0.647-0.701,0.009,0.238,0.229,0.471,0.647,0.7-0.011-0.476-0.02-0.952-0.029-1.427,0.006-0.853,0.014-1.705,0.021-2.558-0.444-0.252-0.653-0.498-0.643-0.739-0.011,0.241,0.198,0.486,0.643,0.738,0.011-0.482,0.023-0.963,0.034-1.445,4.521-17.956,3.562-35.222-6.55-51.3-2.646-4.207-5.517-8.251-9.479-11.333-7.085,5.037-9.36,3.819-11.094-6.247-3.851,2.511-6.442,5.232-4.61,9.694-1.753,2.215-3.77-1.077-5.88,2.599,0.43,8.309,0.393,18.294-3.486,27.73-4.442,3.902-8.165,8.283-9.483,14.263-3.697,4.168-2.425,10.82-7.218,14.44-0.743,0.082-1.472,0.113-2.12-0.099,0.648,0.212,1.375,0.181,2.119,0.099-0.667-1.852-2.119-1.29-3.442-1.123,2.38-3.441,4.222-6.768,0.768-10.816-0.912-1.07,0.568-2.836,1.58-4.058,2.501-3.021,2.344-6.667,1.753-10.12-0.498-2.92,0.558-4.045,3.406-4.379-1.95-4.436-7.644-6.429-7.589-12.094,0.818-0.22,1.437-0.581,2-0.51,15.521,1.938,22.164-6.119,17.056-20.961-2.086-6.063-2.418-12.013,0.246-17.85,1.633-3.573,3.909-4.955,8.412-3.129,7.883,3.195,13.965,8.911,18.733,15.042,8.017,10.308,15.964,21.074,19.15,34.267,3.178,0.631,3.692,2.436,3.743,4.469,0.006,0.225,0.006,0.455,0.004,0.685,0.002-0.23,0.002-0.459-0.004-0.685-0.051-2.033-0.565-3.836-3.743-4.468,1.137,5.339,2.272,10.679,3.41,16.018-0.429,2.456-0.593,4.906,0.164,7.335-0.091,3.215,0.852,6.512-0.188,9.651,1.04-3.139,0.098-6.435,0.186-9.647-1.593,3.641-1.135,7.442-0.891,11.226-0.071,0.886-0.143,1.772-0.214,2.657,0.868,0.923,1.305,1.837,1.292,2.741,0.013-0.904-0.424-1.817-1.292-2.74-0.695,1.793-0.646,3.603-0.117,5.422-1.267,10.47,0.001,20.69,3.08,30.721,3.351,10.917,4.225,22.393,8.774,34.267-6.233-2.424-5.856-6.906-6.734-10.722z" fill="#338a81"/>
<path d="m381.62,286.48c-0.555,2.168,0.319,3.329,2.454,3.646,0.051-0.553,0.103-1.105,0.153-1.657-1.169-0.245-0.592-2.783-2.607-1.989z" fill="#338a81"/>
</g>
<g fill="#e30613" transform="matrix(0.43655464,0,0,0.43655464,-49.476484,-8.7310928)">
<path d="m186.69,445.31-5.652-9.823,11.455-18.679-0.05-0.087-16.679,9.596-5.225-9.082,31.176-17.935,5.375,9.344-11.528,19.359,0.05,0.087,17.029-9.796,5.225,9.082-31.176,17.934z"/>
<path d="m166.3,407.02-4.231-10.24,33.233-13.733,4.231,10.24-33.233,13.733z"/>
<path d="m182.3,352.87c3.699,1.572,5.994,4.924,7,8.72,2.723,10.271-3.583,18.715-13.464,21.335-13.24,3.51-21.01-4.381-23.088-12.218-2.348-8.859,0.986-15.733,8.751-19.459l2.723,10.271c-2.428,1.061-3.661,3.68-2.99,6.211,1.948,7.35,9.623,5.054,12.008,4.421,3.261-0.863,8.607-3.688,6.878-10.21-0.658-2.483-2.595-4.679-5.316-4.529l1.252,4.721-7.447,1.975-3.769-14.213,19.13-5.072,1.793,6.767-3.461,1.28z"/>
<path d="m147.35,342.15-2.518-29.654,9.182-0.78,1.581,18.616,4.466-0.379-1.436-16.91,8.53-0.725,1.436,16.91,4.466-0.38-1.628-19.168,9.182-0.778,2.565,30.205-35.826,3.043z"/>
<path d="m144.73,300.54,1.734-21.033c0.518-6.275,4.428-11.41,11.205-10.852,3.715,0.307,7.49,2.336,8.542,6.112,1.403-2.917,4.869-4.501,9.37-4.534,1.769-0.006,6.04,0.295,7.779-0.572l-0.91,11.043c-1.853,0.403-3.727,0.451-5.597,0.449-3.438,0.02-7.026,0.027-7.387,4.394l-0.484,5.874,12.499,1.03-0.911,11.043-35.84-2.954zm16.572-9.752,0.476-5.772c0.17-2.058,0.051-4.898-3.162-5.163-2.259-0.187-3.667,0.961-4.016,5.177l-0.426,5.17,7.128,0.588z"/>
<path d="m149.58,258.34,2.317-10.834,35.16,7.519-2.317,10.834-35.16-7.519z"/>
<path d="m157.54,227.49,3.582-10.217,38.259-0.461-3.798,10.834-5.346-0.273-3.781,10.787,4.314,3.22-3.682,10.502-29.548-24.392zm24.693-0.575-11.52-0.624-0.033,0.095,9.304,6.944,2.249-6.415z"/>
<path d="m190.16,161.49,17.058-21.952,7.278,5.654-10.259,13.203,3.539,2.75,8.807-11.334,6.761,5.253-8.808,11.334,10.817,8.405-6.798,8.749-28.395-22.062z"/>
<path d="m226,119.63c8.035-7.41,18.731-6.585,26.176,1.488,7.444,8.072,7.401,18.8-0.633,26.21-8.036,7.41-18.731,6.585-26.176-1.488-7.444-8.072-7.402-18.8,0.633-26.21zm19.464,21.107c2.074-1.913,3.995-6.22-1.435-12.107-5.429-5.887-9.877-4.321-11.951-2.409-2.074,1.913-3.994,6.22,1.435,12.107,5.43,5.888,9.878,4.321,11.951,2.409z"/>
<path d="m263.24,91.139c9.255-5.816,19.621-3.049,25.463,6.249,5.843,9.297,3.841,19.837-5.415,25.653-9.254,5.816-19.62,3.049-25.463-6.249-5.843-9.296-3.84-19.836,5.415-25.653zm15.278,24.31c2.389-1.5,5.065-5.384,0.803-12.165-4.262-6.782-8.921-6.055-11.31-4.553-2.388,1.501-5.064,5.384-0.802,12.166,4.261,6.78,8.921,6.053,11.309,4.552z"/>
<path d="m300.44,82.734-9.313,3.835-3.509-8.522,28.871-11.887,3.509,8.521-9.313,3.834,10.181,24.727-10.244,4.218-10.182-24.726z"/>
<path d="m326.32,63.01,19.191-4.411c9.228-2.121,12.386,2.63,13.21,6.213,0.812,3.534-0.465,5.843-2.74,7.864,3.389,0.357,6.91,2.184,8.094,7.337,1.613,7.019-3.638,12.049-9.822,13.471l-19.877,4.569-8.056-35.043zm13.934,11.162,5.694-1.308c2.257-0.52,3.534-1.484,3.015-3.742-0.406-1.768-2.025-2.067-4.234-1.559l-5.694,1.309,1.219,5.3zm3.001,13.056,6.331-1.455c2.258-0.519,4.074-1.608,3.455-4.308-0.474-2.062-1.96-2.908-4.513-2.322l-6.773,1.557,1.5,6.528z"/>
<path d="m379.01,53.713,10.81-0.615,15.115,35.155-11.463,0.652-1.8-5.042-11.413,0.649-1.317,5.22-11.111,0.632,11.179-36.651zm10.011,22.583-3.848-10.879-0.101,0.006-2.839,11.259,6.788-0.386z"/>
<path d="m411.34,52.956,11.024,1.085-2.618,26.611,15.837,1.558-0.902,9.171-26.861-2.643,3.52-35.782z"/>
<path d="m448.52,57.454,10.748,2.691-6.497,25.944,15.44,3.867-2.239,8.94-26.188-6.558,8.736-34.884z"/>
<path d="m531.08,89.775,9.134,5.815-8.264,37.368-9.688-6.167,1.484-5.145-9.645-6.14-4.119,3.468-9.39-5.977,30.488-23.222zm-5.064,24.18,3.23-11.078-0.084-0.054-8.882,7.481,5.736,3.651z"/>
<path d="m548.59,131.79c-0.603,0.676-1.027,1.378-1.274,2.035-0.84,2.153,0.663,4.1,2.204,5.475,1.354,1.207,3.824,2.599,5.601,0.606,1.24-1.391,0.41-2.806-3.041-8.245-3.177-4.99-6.987-10.48-2.161-15.894,5.53-6.204,13.212-4.146,18.739,0.781,5.827,5.195,9.001,12.005,3.394,18.749l-7.82-6.972c1.056-0.881,1.208-1.96,0.934-3.015-0.241-1.092-1.014-2.118-1.841-2.855-1.127-1.006-3.238-2.347-4.579-0.843-1.56,2.051,1.908,5.884,4.766,10.322,2.859,4.438,5.044,9.558,0.652,14.482-6.234,6.993-14.675,3.518-20.652-1.812-3.045-2.715-10.759-11.548-3.191-20.188l8.269,7.374z"/>
<path d="m573.94,157.05c-0.701,0.575-1.228,1.203-1.574,1.813-1.162,1.997,0.022,4.152,1.332,5.748,1.15,1.4,3.375,3.157,5.438,1.464,1.44-1.183,0.839-2.709-1.729-8.614-2.366-5.42-5.283-11.431,0.321-16.033,6.422-5.272,13.689-2.054,18.388,3.667,4.953,6.032,7.036,13.249,0.456,19.043l-6.647-8.095c1.18-0.707,1.496-1.749,1.389-2.833-0.07-1.116-0.674-2.249-1.378-3.105-0.958-1.167-2.836-2.818-4.392-1.54-1.857,1.786,0.974,6.106,3.112,10.931,2.138,4.826,3.505,10.219-1.593,14.406-7.24,5.944-15.039,1.207-20.12-4.981-2.588-3.152-8.842-13.068-0.032-20.432l7.029,8.561z"/>
<path d="m620.82,180.97c5.402,9.501,2.182,19.734-7.364,25.162-9.544,5.427-19.986,2.962-25.388-6.54-5.402-9.501-2.182-19.734,7.364-25.162,9.544-5.427,19.986-2.962,25.388,6.54zm-24.958,14.19c1.395,2.452,5.155,5.296,12.116,1.338,6.963-3.958,6.441-8.645,5.048-11.098-1.395-2.452-5.155-5.296-12.117-1.338-6.963,3.96-6.44,8.646-5.047,11.098z"/>
<path d="m628.43,233.52c1.171-0.621,4.6-2.878,3.095-7.208-1.703-4.901-7.008-4.817-11.574-3.229-4.568,1.587-8.781,4.811-7.077,9.712,1.223,3.521,4.177,4.041,7.579,3.552l3.572,10.277c-6.851,2.381-16.065-0.655-19.522-10.6-3.818-10.991,1.771-19.919,11.81-23.409,10.705-3.721,20.143,0.572,23.781,11.039,3.193,9.343,0.078,16.185-8.125,20.048l-3.539-10.182z"/>
<path d="m646.56,249.2,2.241,10.852-35.218,7.272-2.241-10.851,35.218-7.273z"/>
<path d="m651.7,280.61,0.842,10.797-34.838,15.852-0.892-11.449,5.005-1.906-0.89-11.399-5.248-1.208-0.864-11.098,36.885,10.411zm-22.372,10.485,10.797-4.076-0.008-0.1-11.318-2.604,0.529,6.78z"/>
<path d="m643.48,316.98,0.686-10.048,9.194,0.627-2.128,31.148-9.193-0.628,0.687-10.047-26.676-1.821,0.753-11.053,26.677,1.822z"/>
<path d="m649.5,347.57-2.067,10.887-35.334-6.708,2.067-10.888,35.334,6.709z"/>
<path d="m640.75,385.92c-3.464,10.364-13.23,14.799-23.644,11.318-10.412-3.481-15.548-12.898-12.082-23.262,3.465-10.365,13.23-14.8,23.643-11.318s15.548,12.897,12.083,23.262zm-27.224-9.102c-0.896,2.674-0.502,7.373,7.094,9.912,7.594,2.539,10.733-0.978,11.629-3.652,0.895-2.676,0.5-7.374-7.095-9.912-7.594-2.539-10.735,0.977-11.628,3.652z"/>
<path d="m629.36,413.4-5.482,9.916-21.904-0.143-0.048,0.088,16.835,9.31-5.068,9.166-31.467-17.399,5.215-9.43,22.523-0.148,0.05-0.088-17.188-9.504,5.07-9.167,31.464,17.399z"/>
<path d="m324.12,509.31,10.004,4.148-1.682,38.242-10.609-4.399,0.573-5.324-10.562-4.384-3.458,4.129-10.283-4.264,26.017-28.148zm-0.809,24.697,1.267-11.473-0.093-0.039-7.457,8.906,6.283,2.606z"/>
<path d="m349.46,519.14,19.354,3.639c9.307,1.749,10.3,7.369,9.621,10.981-0.67,3.563-2.766,5.169-5.658,6.111,2.962,1.686,5.458,4.767,4.481,9.965-1.33,7.078-8.156,9.586-14.393,8.416l-20.047-3.77,6.642-35.342zm5.829,28.974,6.385,1.201c2.278,0.429,4.377,0.157,4.889-2.566,0.391-2.08-0.632-3.45-3.206-3.935l-6.831-1.284-1.237,6.584zm2.474-13.166,5.742,1.079c2.276,0.427,3.833,0.055,4.262-2.222,0.335-1.783-1.03-2.705-3.257-3.125l-5.742-1.079-1.005,5.347z"/>
<path d="m419.87,546.66c0.341,9.967-4.883,14.932-15.857,15.305s-16.572-4.225-16.911-14.19l-0.75-22.05,11.073-0.377,0.665,19.583c0.125,3.675,0.28,8.255,5.667,8.071,5.235-0.178,5.08-4.758,4.955-8.433l-0.665-19.582,11.074-0.374,0.749,22.047z"/>
<path d="m455.57,540.75c2.121,9.692-1.426,14.441-10.233,16.371-8.905,1.951-13.979-2.145-15.66-9.818l-0.649-2.953,9.742-2.137,0.443,2.02c0.593,2.705,1.144,5.214,4.044,4.577,2.805-0.612,1.865-3.964,1.52-5.539l-4.958-22.633,10.822-2.372,4.929,22.484z"/>
<path d="m466.31,512.52,9.947-4.278,26.235,27.854-10.547,4.537-3.417-4.12-10.501,4.517,0.551,5.356-10.222,4.398-2.046-38.264zm17.138,17.791-7.337-8.902-0.094,0.039,1.187,11.549,6.244-2.686z"/>
<circle d="m 564.89401,482.133 c 0,4.68779 -3.80021,8.488 -8.488,8.488 -4.6878,0 -8.488,-3.80021 -8.488,-8.488 0,-4.6878 3.8002,-8.488 8.488,-8.488 4.68779,0 8.488,3.8002 8.488,8.488 z" cx="556.41" cy="482.13" r="8.488"/>
<circle d="m 250.747,482.133 c 0,4.68779 -3.8002,8.488 -8.488,8.488 -4.68779,0 -8.488,-3.80021 -8.488,-8.488 0,-4.6878 3.80021,-8.488 8.488,-8.488 4.6878,0 8.488,3.8002 8.488,8.488 z" cx="242.26" cy="482.13" r="8.488"/>
<path d="m399.67,37.287c36.328,0,71.561,7.111,104.72,21.136,32.035,13.55,60.81,32.952,85.525,57.667,24.714,24.714,44.116,53.489,57.666,85.524,14.024,33.158,21.136,68.391,21.136,104.72,0,36.328-7.111,71.562-21.136,104.72-13.55,32.036-32.952,60.812-57.666,85.525s-53.49,44.115-85.525,57.666c-33.159,14.024-68.392,21.136-104.72,21.136-36.329,0-71.562-7.111-104.72-21.136-32.036-13.551-60.811-32.952-85.525-57.666-24.715-24.714-44.116-53.489-57.666-85.525-14.025-33.157-21.136-68.392-21.136-104.72,0-36.329,7.111-71.562,21.136-104.72,13.55-32.036,32.951-60.811,57.666-85.524,24.714-24.715,53.489-44.117,85.525-57.667,33.158-14.026,68.391-21.136,104.72-21.136m0-17.287c-158.14,0-286.33,128.2-286.33,286.33,0,158.14,128.2,286.33,286.33,286.33,158.12,0,286.32-128.2,286.32-286.34,0-158.13-128.2-286.33-286.33-286.33z"/>
<path d="m399.67,110.68c52.261,0,101.39,20.352,138.35,57.306,36.955,36.954,57.306,86.086,57.306,138.35,0,52.261-20.351,101.39-57.306,138.35-36.954,36.954-86.086,57.306-138.35,57.306-52.261,0-101.39-20.352-138.35-57.306-36.954-36.953-57.305-86.086-57.305-138.35,0-52.26,20.352-101.39,57.305-138.35,36.954-36.955,86.087-57.306,138.35-57.306m0-7.978c-112.46,0-203.63,91.169-203.63,203.63s91.168,203.63,203.63,203.63,203.63-91.168,203.63-203.63-91.169-203.63-203.63-203.63z"/>
</g>
</svg>