<?xml version="1.0" encoding="utf-8"?>
<!-- Generator: Adobe Illustrator 13.0.2, SVG Export Plug-In . SVG Version: 6.00 Build 14948)  -->
<!DOCTYPE svg PUBLIC "-//W3C//DTD SVG 1.0//EN" "http://www.w3.org/TR/2001/REC-SVG-20010904/DTD/svg10.dtd">
<svg version="1.0" id="Ebene_1" xmlns="http://www.w3.org/2000/svg" xmlns:xlink="http://www.w3.org/1999/xlink" x="0px" y="0px"
	 width="424.368px" height="566.928px" viewBox="0 0 424.368 566.928" enable-background="new 0 0 424.368 566.928"
	 xml:space="preserve">
<path d="M144.504,442.08c-7.272-7.92-13.752-16.632-20.376-25.2c-11.376-14.616-25.848-23.544-41.976-31.968
	c3.24-27.288,4.68-54.432,3.024-81.792h-26.64L0,377.64V93.24l45,57.24l40.176-43.488c10.584,6.624,18.504,11.16,31.32,10.44
	c9.792-0.576,19.152-3.384,28.008-7.344V58.536L69.984,0h284.4l-74.52,58.536v51.552c8.856,3.96,18.216,6.768,28.008,7.344
	c12.816,0.72,20.736-3.816,31.32-10.44l40.176,43.488l45-57.24v284.4l-58.536-74.52H339.12c-1.584,27.36-0.144,54.504,3.096,81.792
	c-16.128,8.424-30.6,17.352-41.976,31.968c-6.624,8.568-13.104,17.28-20.376,25.2v66.312l74.52,58.536h-284.4l74.52-58.536V442.08
	L144.504,442.08z M217.08,464.472c-1.872-1.44-3.6-3.096-4.896-5.112c-1.296,2.016-3.024,3.672-4.896,5.112l0.216,41.328h9.36
	L217.08,464.472L217.08,464.472z M207.288,94.824c2.16,2.088,3.888,4.608,4.896,7.344c1.008-2.736,2.736-5.256,4.896-7.344
	l-0.216-33.696h-9.36L207.288,94.824L207.288,94.824z M350.496,231.984c-0.864,3.24-1.656,6.408-2.448,9.576l15.48-0.072v-9.36
	L350.496,231.984L350.496,231.984z M76.32,241.56c-0.792-3.168-1.584-6.336-2.448-9.576l-13.032,0.144v9.36L76.32,241.56z"/>
<path fill="#D3C084" d="M233.496,469.512c-3.024,0-6.192-0.432-9.216-1.44l-0.288,45h-23.616l-0.288-45
	c-3.024,1.008-6.192,1.44-9.216,1.44v51.984h42.624V469.512z"/>
<path fill="#D3C084" d="M355.392,215.424c-1.008,3.096-1.944,6.264-2.88,9.36l18.216,0.144v23.688l-24.264,0.216
	c-0.648,3.096-1.296,6.192-1.872,9.288h34.632v-42.696H355.392z"/>
<path fill="#E42518" d="M364.248,191.592c-2.304,5.472-4.464,11.016-6.408,16.632h28.584v57.168h-43.128
	c-0.72,4.68-1.368,9.36-1.944,14.04h36l23.184,29.448V162l-23.184,29.592H364.248z"/>
<path fill="#D3C084" d="M375.192,167.76c-2.736,5.4-5.328,10.944-7.776,16.488h6.408l34.056-43.416v189.216l-34.056-43.344h-33.336
	c-0.144,1.512-0.288,3.096-0.432,4.68c-0.144,1.44-0.288,2.952-0.432,4.464h29.736l47.664,60.048v-240.84L375.192,167.76z"/>
<path fill="#D3C084" d="M190.872,89.64c3.24-0.36,6.408-0.216,9.216,0.72l0.288-36.504h23.616l0.288,36.504
	c2.808-0.936,5.976-1.08,9.216-0.72V45.432h-42.624V89.64z"/>
<path fill="#E42518" d="M168.264,97.704c3.24-1.656,6.696-3.312,10.152-4.752c1.728-0.648,3.456-1.296,5.184-1.8v-52.92h57.168
	v52.92c1.728,0.504,3.456,1.152,5.184,1.8c3.456,1.44,6.912,3.096,10.152,4.752V47.016l29.52-23.184h-146.88l29.52,23.184V97.704z"
	/>
<path fill="#D3C084" d="M151.848,106.632c2.664-1.368,5.256-2.808,7.848-4.248c0.432-0.216,0.864-0.432,1.296-0.72v-51.12
	l-43.416-34.056h189.216l-43.416,34.056v51.12c0.432,0.288,0.864,0.504,1.296,0.72c2.592,1.44,5.184,2.88,7.848,4.248V55.008
	l60.12-47.664H91.728l60.12,47.664V106.632z"/>
<path fill="#D3C084" d="M79.776,258.12c-0.576-3.096-1.224-6.192-1.872-9.288l-24.264-0.216v-23.688l18.216-0.144
	c-0.936-3.096-1.872-6.264-2.88-9.36H45.144v42.696H79.776z"/>
<path fill="#E42518" d="M83.016,279.432c-0.576-4.68-1.224-9.36-2.016-14.04H37.944v-57.168h28.584
	c-1.944-5.616-4.104-11.16-6.408-16.632H47.016L23.832,162v146.88l23.184-29.448H83.016z"/>
<path fill="#D3C084" d="M84.744,295.848c-0.144-1.512-0.288-3.024-0.432-4.464c-0.144-1.584-0.288-3.168-0.432-4.68H50.544
	l-34.056,43.344V140.832l34.056,43.416h6.408c-2.448-5.544-5.04-11.088-7.776-16.56L7.344,115.056v240.84l47.664-60.048H84.744z"/>
<path fill="#E42518" d="M212.184,114.84c-2.232,5.112-7.128,7.992-12.6,8.568c-6.336,0.72-13.032-2.448-17.208-7.128
	c-3.384,1.872-6.624,4.032-10.008,6.048c-16.416,10.08-35.28,17.856-54.648,18.864c-9.432,0.576-19.08-0.576-27.864-4.176
	l-19.08,20.52c7.416,14.76,13.824,30.024,19.152,45.648c9.216,27.072,15.048,55.224,17.856,83.592
	c2.808,28.224,2.592,56.736-0.216,84.816c13.536,8.064,25.632,18.288,35.28,30.816c11.16,14.328,21.888,29.952,37.872,39.456
	c5.112,3.024,9.72,6.336,13.968,1.656c2.808-3.096,6.192-4.536,9.36-4.68c3.024-0.144,6.048,1.08,8.136,3.168
	c2.088-2.088,5.112-3.312,8.064-3.168c3.168,0.144,6.624,1.584,9.432,4.68c4.248,4.68,8.856,1.368,13.968-1.656
	c15.984-9.504,26.64-25.056,37.872-39.456c9.648-12.528,21.672-22.752,35.28-30.816c-2.808-28.08-3.024-56.592-0.216-84.816
	c2.808-28.368,8.64-56.52,17.856-83.592c5.328-15.624,11.736-30.888,19.152-45.648l-19.08-20.52
	c-8.856,3.6-18.432,4.752-27.864,4.176c-19.368-1.008-38.232-8.784-54.648-18.864c-3.384-2.016-6.624-4.176-10.008-6.048
	c-4.176,4.68-10.872,7.848-17.208,7.128C219.312,122.832,214.416,119.952,212.184,114.84L212.184,114.84z M212.184,166.752
	c4.104-2.232,8.496-4.032,13.104-4.752c11.808-1.728,19.296,3.456,29.664,6.48c15.984,4.752,31.32,5.256,47.736,3.384l16.992,20.304
	c-9.144,27.504-15.768,55.152-19.296,83.88c-3.672,29.304-4.176,58.608-3.312,88.128c-9,5.76-17.136,11.52-24.336,19.44
	c-9.432,10.44-15.552,23.4-27.216,31.824c-19.296,13.896-47.376,13.896-66.672,0c-11.664-8.424-17.784-21.384-27.216-31.824
	c-7.2-7.92-15.336-13.68-24.336-19.44c0.864-29.52,0.36-58.824-3.312-88.128c-3.528-28.728-10.152-56.376-19.296-83.88
	l16.992-20.304c16.416,1.872,31.752,1.368,47.736-3.384c10.368-3.024,17.856-8.208,29.664-6.48
	C203.688,162.72,208.08,164.52,212.184,166.752z"/>
<path fill="#D3C084" d="M160.992,457.2c-0.072,0-0.144-0.072-0.144-0.072c-0.216-0.144-0.36-0.288-0.504-0.36
	c-0.144-0.144-0.288-0.216-0.432-0.36c-0.144-0.072-0.288-0.216-0.504-0.36c-0.072-0.072-0.144-0.144-0.216-0.144
	c-0.144-0.144-0.36-0.288-0.504-0.432c-0.144-0.072-0.216-0.144-0.36-0.288c-0.144-0.072-0.288-0.216-0.432-0.288
	c-0.072-0.144-0.216-0.216-0.36-0.36c-0.144-0.072-0.288-0.216-0.432-0.288c-0.144-0.144-0.216-0.288-0.36-0.36l0,0
	c-0.072-0.072-0.144-0.072-0.144-0.144c-0.072,0-0.144-0.072-0.144-0.144c-0.072,0-0.072,0-0.072,0
	c-0.144-0.144-0.36-0.288-0.504-0.432c-0.072-0.072-0.144-0.072-0.144-0.144c-0.216-0.144-0.432-0.288-0.576-0.504
	c-0.072,0-0.144-0.072-0.144-0.072c-0.072-0.072-0.072-0.144-0.144-0.144c-1.008-0.936-2.088-1.8-3.024-2.736v62.352l-60.12,47.664
	H332.64l-60.12-47.664v-62.352c-1.224,1.152-2.52,2.304-3.888,3.456c0,0.072-0.072,0.072-0.144,0.144
	c-0.432,0.36-0.792,0.72-1.224,1.08c-0.072,0-0.144,0.072-0.216,0.072c0,0.072-0.072,0.072-0.144,0.144
	c-0.144,0.144-0.36,0.288-0.576,0.504c0,0-0.072,0.072-0.144,0.072c0,0.072-0.072,0.072-0.144,0.144
	c-0.144,0.072-0.288,0.216-0.432,0.36c0,0-0.072,0.072-0.144,0.072c0,0.072-0.072,0.072-0.144,0.144
	c-0.144,0.144-0.288,0.216-0.432,0.36c-0.072,0-0.072,0.072-0.144,0.072c-0.072,0.072-0.072,0.072-0.144,0.144h-0.072
	c-0.144,0.144-0.36,0.288-0.504,0.432l0,0c-0.072,0.072-0.144,0.072-0.216,0.144c-0.072,0.072-0.072,0.072-0.144,0.144
	c-0.144,0.072-0.216,0.144-0.288,0.144v59.184l43.416,34.056H117.576l43.416-34.056V457.2z"/>
<path fill="#E42518" d="M183.6,468.576c-4.824-1.08-9.576-3.168-14.04-5.76c-0.432-0.216-0.864-0.432-1.296-0.72v57.816
	l-29.52,23.184h146.88l-29.52-23.184v-57.816c-0.432,0.288-0.864,0.504-1.296,0.72c-4.464,2.592-9.216,4.68-14.04,5.76v60.12H183.6
	V468.576z"/>
<path fill="#D3C084" d="M212.184,175.104c4.392-2.592,9.144-5.112,14.256-5.832c10.44-1.584,17.208,3.456,26.496,6.264
	c15.408,4.536,30.672,5.904,46.656,4.032l11.808,14.184c-8.784,26.568-14.832,53.568-18.288,81.36
	c-3.528,28.296-4.32,56.664-3.456,85.176c-8.352,5.256-15.624,11.088-22.32,18.432c-8.856,9.72-15.48,23.112-26.064,30.816
	c-16.704,12.024-41.472,12.024-58.176,0c-10.584-7.704-17.208-21.096-26.064-30.816c-6.696-7.344-13.968-13.176-22.32-18.432
	c0.864-28.512,0.072-56.88-3.456-85.176c-3.456-27.792-9.504-54.792-18.288-81.36l11.808-14.184
	c15.984,1.872,31.248,0.504,46.656-4.032c9.288-2.808,16.056-7.848,26.496-6.264C203.04,169.992,207.864,172.512,212.184,175.104z"
	/>
<path d="M212.184,183.672c-4.68-2.88-9.72-6.336-15.336-7.2c-8.568-1.296-15.48,3.744-23.328,6.048
	c-14.76,4.392-30.312,6.264-45.648,4.752l-6.696,8.064c8.424,25.776,14.04,52.056,17.352,78.912
	c3.384,26.784,4.392,54.144,3.672,82.08c7.992,5.328,14.4,11.088,20.232,17.496c8.352,9.216,14.976,22.536,24.984,29.736
	c14.04,10.224,35.496,10.224,49.536,0c10.008-7.2,16.632-20.52,24.984-29.736c5.832-6.408,12.24-12.168,20.232-17.496
	c-0.72-27.936,0.288-55.296,3.672-82.08c3.312-26.856,8.928-53.136,17.352-78.912l-6.696-8.064
	c-15.336,1.512-30.888-0.36-45.648-4.752c-7.848-2.304-14.76-7.344-23.328-6.048C221.904,177.336,216.864,180.792,212.184,183.672z"
	/>
<path fill="#D3C084" d="M189.144,462.096c-12.312-1.152-25.416-11.232-34.056-19.44c-9.648-9.144-17.136-19.8-25.2-30.24
	c-10.872-14.04-24.264-23.544-39.888-31.68c6.84-57.96,3.312-116.64-15.624-172.296c-6.336-18.576-14.328-36.216-23.544-53.496
	L86.4,116.352c9.936,6.264,18.648,9,30.456,8.424c16.776-0.936,31.968-7.992,46.368-15.984c9.144-5.112,26.64-15.192,35.496-11.088
	c8.64,4.032,11.088,17.208,0.072,18.432c-5.616,0.648-12.456-4.176-13.464-9.576c-5.688,2.52-11.088,6.12-16.776,9.576
	c-15.192,9.288-33.192,16.776-51.192,17.784c-10.296,0.504-20.16-0.936-29.232-5.832L61.92,156.312
	c8.352,15.984,15.336,32.4,21.096,49.248c18.576,54.432,23.112,113.04,16.776,169.992c14.472,7.92,27.216,18.216,37.296,31.32
	c7.776,10.008,15.048,20.376,24.264,29.16c6.984,6.552,18.648,16.056,28.656,16.992c4.896,0.504,6.984-1.224,10.08-4.608
	c4.176-4.608,9.72-1.656,7.56,4.104C204.912,459.72,196.2,462.816,189.144,462.096L189.144,462.096z M235.224,462.096
	c12.312-1.152,25.416-11.232,34.056-19.44c9.648-9.144,17.136-19.8,25.2-30.24c10.872-14.04,24.264-23.544,39.888-31.68
	c-6.84-57.96-3.312-116.64,15.624-172.296c6.336-18.576,14.256-36.216,23.544-53.496l-35.568-38.592
	c-9.936,6.264-18.648,9-30.456,8.424c-16.776-0.936-31.968-7.992-46.368-15.984C252,103.68,234.504,93.6,225.648,97.704
	c-8.64,4.032-11.088,17.208-0.072,18.432c5.616,0.648,12.456-4.176,13.464-9.576c5.688,2.52,11.088,6.12,16.776,9.576
	c15.192,9.288,33.192,16.776,51.192,17.784c10.296,0.504,20.16-0.936,29.232-5.832l26.208,28.224
	c-8.352,15.984-15.336,32.4-21.096,49.248c-18.576,54.432-23.112,113.04-16.776,169.992c-14.472,7.92-27.216,18.216-37.296,31.32
	c-7.776,10.008-15.048,20.376-24.264,29.16c-6.984,6.552-18.648,16.056-28.656,16.992c-4.896,0.504-6.984-1.224-10.08-4.608
	c-4.176-4.608-9.72-1.656-7.56,4.104C219.384,459.72,228.168,462.816,235.224,462.096z"/>
<path d="M212.184,149.688h-2.304v11.448h-10.296v-36.864h12.888c7.488,0,10.512,6.048,10.512,12.744
	C222.984,144.216,220.032,149.688,212.184,149.688L212.184,149.688z M212.76,137.016c0-0.936,0.144-2.016-0.936-2.016h-1.944v4.104
	h1.944C212.832,139.104,212.76,137.808,212.76,137.016z"/>
<path fill="#FFFFFF" d="M212.184,192.24c-4.68-2.88-10.512-7.632-16.416-8.496c-6.336-1.008-13.968,3.96-20.16,5.76
	c-14.4,4.248-29.52,6.336-44.496,5.328l-1.728,2.088c7.848,24.912,13.176,50.544,16.416,76.464
	c3.312,26.208,4.392,52.704,3.816,79.2c6.624,4.752,12.744,10.224,18.216,16.272c8.136,9,14.04,21.744,23.832,28.8
	c11.52,8.352,29.52,8.352,41.04,0c9.792-7.056,15.696-19.8,23.832-28.8c5.472-6.048,11.592-11.52,18.216-16.272
	c-0.576-26.496,0.504-52.992,3.816-79.2c3.24-25.92,8.568-51.552,16.416-76.464l-1.728-2.088
	c-14.976,1.008-30.096-1.08-44.496-5.328c-6.192-1.8-13.824-6.768-20.16-5.76C222.696,184.608,216.864,189.36,212.184,192.24z"/>
<path fill="#004595" d="M228.816,269.712h-33.264v40.032c0,6.912,7.488,12.6,16.632,12.6s16.632-5.688,16.632-12.6V269.712z"/>
<path fill="#FFFFFF" d="M212.184,297c1.728,0,3.096-1.44,3.096-3.168s-1.368-3.096-3.096-3.096c-1.656,0-3.096,1.368-3.096,3.096
	S210.528,297,212.184,297z"/>
<path fill="#FFFFFF" d="M202.68,281.448c1.656,0,3.096-1.368,3.096-3.096s-1.44-3.168-3.096-3.168c-1.728,0-3.168,1.44-3.168,3.168
	S200.952,281.448,202.68,281.448z"/>
<path fill="#FFFFFF" d="M202.68,312.408c1.656,0,3.096-1.368,3.096-3.096s-1.44-3.168-3.096-3.168c-1.728,0-3.168,1.44-3.168,3.168
	S200.952,312.408,202.68,312.408z"/>
<path fill="#FFFFFF" d="M221.76,281.448c1.728,0,3.096-1.368,3.096-3.096s-1.368-3.168-3.096-3.168s-3.168,1.44-3.168,3.168
	S220.032,281.448,221.76,281.448z"/>
<path fill="#FFFFFF" d="M221.76,312.408c1.728,0,3.096-1.368,3.096-3.096s-1.368-3.168-3.096-3.168s-3.168,1.44-3.168,3.168
	S220.032,312.408,221.76,312.408z"/>
<path fill="#004595" d="M228.816,334.152h-33.264v40.104c0,6.912,7.488,12.528,16.632,12.528s16.632-5.616,16.632-12.528V334.152z"
	/>
<path fill="#FFFFFF" d="M212.184,361.512c1.728,0,3.096-1.44,3.096-3.168c0-1.728-1.368-3.096-3.096-3.096
	c-1.656,0-3.096,1.368-3.096,3.096C209.088,360.072,210.528,361.512,212.184,361.512z"/>
<path fill="#FFFFFF" d="M202.68,345.888c1.656,0,3.096-1.44,3.096-3.168c0-1.728-1.44-3.096-3.096-3.096
	c-1.728,0-3.168,1.368-3.168,3.096C199.512,344.448,200.952,345.888,202.68,345.888z"/>
<path fill="#FFFFFF" d="M202.68,376.92c1.656,0,3.096-1.368,3.096-3.096c0-1.728-1.44-3.168-3.096-3.168
	c-1.728,0-3.168,1.44-3.168,3.168C199.512,375.552,200.952,376.92,202.68,376.92z"/>
<path fill="#FFFFFF" d="M221.76,345.888c1.728,0,3.096-1.44,3.096-3.168c0-1.728-1.368-3.096-3.096-3.096s-3.168,1.368-3.168,3.096
	C218.592,344.448,220.032,345.888,221.76,345.888z"/>
<path fill="#FFFFFF" d="M221.76,376.92c1.728,0,3.096-1.368,3.096-3.096c0-1.728-1.368-3.168-3.096-3.168s-3.168,1.44-3.168,3.168
	C218.592,375.552,220.032,376.92,221.76,376.92z"/>
<path fill="#004595" d="M188.856,269.712h-33.408v40.032c0,6.912,7.488,12.6,16.704,12.6s16.704-5.688,16.704-12.6V269.712z"/>
<path fill="#FFFFFF" d="M172.008,297c1.728,0,3.168-1.44,3.168-3.168s-1.44-3.096-3.168-3.096s-3.168,1.368-3.168,3.096
	S170.28,297,172.008,297z"/>
<path fill="#FFFFFF" d="M162.432,281.448c1.728,0,3.168-1.368,3.168-3.096s-1.44-3.168-3.168-3.168c-1.728,0-3.168,1.44-3.168,3.168
	S160.704,281.448,162.432,281.448z"/>
<path fill="#FFFFFF" d="M162.432,312.408c1.728,0,3.168-1.368,3.168-3.096s-1.44-3.168-3.168-3.168c-1.728,0-3.168,1.44-3.168,3.168
	S160.704,312.408,162.432,312.408z"/>
<path fill="#FFFFFF" d="M181.584,281.448c1.728,0,3.168-1.368,3.168-3.096s-1.44-3.168-3.168-3.168s-3.168,1.44-3.168,3.168
	S179.856,281.448,181.584,281.448z"/>
<path fill="#FFFFFF" d="M181.584,312.408c1.728,0,3.168-1.368,3.168-3.096s-1.44-3.168-3.168-3.168s-3.168,1.44-3.168,3.168
	S179.856,312.408,181.584,312.408z"/>
<path fill="#004595" d="M235.512,269.712h33.408v40.032c0,6.912-7.488,12.6-16.704,12.6c-9.216,0-16.704-5.688-16.704-12.6V269.712z
	"/>
<path fill="#FFFFFF" d="M252.36,297c1.728,0,3.168-1.44,3.168-3.168s-1.44-3.096-3.168-3.096s-3.168,1.368-3.168,3.096
	S250.632,297,252.36,297z"/>
<path fill="#FFFFFF" d="M261.936,281.448c1.728,0,3.168-1.368,3.168-3.096s-1.44-3.168-3.168-3.168s-3.168,1.44-3.168,3.168
	S260.208,281.448,261.936,281.448z"/>
<path fill="#FFFFFF" d="M261.936,312.408c1.728,0,3.168-1.368,3.168-3.096s-1.44-3.168-3.168-3.168s-3.168,1.44-3.168,3.168
	S260.208,312.408,261.936,312.408z"/>
<path fill="#FFFFFF" d="M242.784,281.448c1.728,0,3.168-1.368,3.168-3.096s-1.44-3.168-3.168-3.168c-1.728,0-3.168,1.44-3.168,3.168
	S241.056,281.448,242.784,281.448z"/>
<path fill="#FFFFFF" d="M242.784,312.408c1.728,0,3.168-1.368,3.168-3.096s-1.44-3.168-3.168-3.168c-1.728,0-3.168,1.44-3.168,3.168
	S241.056,312.408,242.784,312.408z"/>
<path fill="#D3C084" d="M211.824,132.336h-4.608v9.432h4.608c2.232,0,3.6-1.584,3.6-4.752
	C215.424,134.424,214.56,132.336,211.824,132.336L211.824,132.336z M212.184,147.096h-4.968v11.376h-5.04v-31.608h10.296
	c4.752,0,7.848,3.312,7.848,10.152C220.32,142.776,218.52,147.096,212.184,147.096z"/>
<rect x="220.896" y="149.544" width="10.152" height="11.592"/>
<rect x="223.56" y="152.208" fill="#D3C084" width="4.896" height="6.264"/>
<polygon points="253.512,165.528 256.032,154.152 265.68,156.312 263.16,167.688 "/>
<polygon fill="#D3C084" points="258.048,157.32 262.584,158.328 261.144,164.52 256.68,163.512 "/>
<polygon points="235.152,161.352 243.288,125.424 264.024,130.104 261.648,140.688 250.632,138.168 250.2,140.112 259.848,142.272 
	257.472,152.856 247.824,150.696 244.944,163.584 "/>
<polygon fill="#D3C084" points="245.232,128.592 260.856,132.12 259.704,137.52 248.688,135 247.032,142.128 256.68,144.288 
	255.456,149.688 245.88,147.528 242.928,160.416 238.32,159.408 "/>
<polygon points="184.968,161.568 182.736,150.192 192.456,148.248 194.184,157.032 194.688,159.624 "/>
<polygon fill="#D3C084" points="185.832,152.28 190.368,151.344 191.592,157.608 187.056,158.472 "/>
<polygon points="166.896,166.104 158.688,130.248 179.352,125.496 181.872,136.008 170.784,138.528 171.288,140.472 180.864,138.24 
	183.312,148.824 173.664,151.056 176.688,163.944 "/>
<polygon fill="#D3C084" points="161.856,132.192 177.408,128.664 178.632,134.064 167.616,136.584 169.272,143.64 178.92,141.408 
	180.144,146.808 170.568,149.04 173.52,161.928 168.912,163.008 "/>
<path fill="#004595" d="M228.816,205.2h-33.264v40.104c0,6.984,7.488,12.6,16.632,12.6s16.632-5.616,16.632-12.6V205.2z"/>
<path fill="#FFFFFF" d="M212.184,232.56c1.728,0,3.096-1.368,3.096-3.096s-1.368-3.168-3.096-3.168c-1.656,0-3.096,1.44-3.096,3.168
	S210.528,232.56,212.184,232.56z"/>
<path fill="#FFFFFF" d="M202.68,216.936c1.656,0,3.096-1.368,3.096-3.096s-1.44-3.168-3.096-3.168c-1.728,0-3.168,1.44-3.168,3.168
	S200.952,216.936,202.68,216.936z"/>
<path fill="#FFFFFF" d="M202.68,247.968c1.656,0,3.096-1.368,3.096-3.096s-1.44-3.168-3.096-3.168c-1.728,0-3.168,1.44-3.168,3.168
	S200.952,247.968,202.68,247.968z"/>
<path fill="#FFFFFF" d="M221.76,216.936c1.728,0,3.096-1.368,3.096-3.096s-1.368-3.168-3.096-3.168s-3.168,1.44-3.168,3.168
	S220.032,216.936,221.76,216.936z"/>
<path fill="#FFFFFF" d="M221.76,247.968c1.728,0,3.096-1.368,3.096-3.096s-1.368-3.168-3.096-3.168s-3.168,1.44-3.168,3.168
	S220.032,247.968,221.76,247.968z"/>
</svg>
