<?xml version="1.0" encoding="utf-8"?>
<!-- Generator: Adobe Illustrator 15.1.0, SVG Export Plug-In . SVG Version: 6.00 Build 0)  -->
<!DOCTYPE svg PUBLIC "-//W3C//DTD SVG 1.1//EN" "http://www.w3.org/Graphics/SVG/1.1/DTD/svg11.dtd">
<svg version="1.1" id="Layer_1" xmlns="http://www.w3.org/2000/svg" xmlns:xlink="http://www.w3.org/1999/xlink" x="0px" y="0px"
	 width="612px" height="792px" viewBox="0 0 612 792" enable-background="new 0 0 612 792" xml:space="preserve">
<g>
	<path fill="#C87904" d="M303.859,72.708c1.241,0,2.494,0,3.742,0c0,1.703,0,3.406,0,5.109c1.595,0,3.184,0,4.779,0
		c0.006,1.17,0.019,2.345,0.03,3.514c-1.607,0.012-3.209,0.019-4.81,0.019c0,2.021,0,4.042,0,6.063c-1.254,0-2.495,0-3.742,0
		c-0.006-2.021-0.006-4.036,0-6.051c-1.686-0.012-3.364-0.024-5.038-0.048c0.198-1.116-0.335-2.567,0.558-3.425
		c1.487-0.137,2.986-0.095,4.479-0.12C303.854,76.084,303.854,74.393,303.859,72.708L303.859,72.708z"/>
	<path fill="#C87904" d="M301.083,91.977c1.542-3.682,7.401-4.786,9.782-1.367c1.89,2.998,0.84,6.716-0.276,9.798
		c-1.354,3.832-2.831,7.628-3.952,11.538c-1.457-4.299-3.28-8.449-4.869-12.695C301.017,96.948,299.968,94.339,301.083,91.977
		L301.083,91.977z"/>
	<path fill="#C87904" d="M293.257,88.9c3.088,1.637,4.629,4.917,5.732,8.066c2.394,6.902,3.329,14.189,4.396,21.385
		c-1.319,0.083-2.645,0.167-3.964,0.239C297.85,108.605,296.297,98.567,293.257,88.9L293.257,88.9z"/>
	<path fill="#C87904" d="M312.879,99.682c1.188-4.036,2.639-8.492,6.471-10.782c-2.566,9.757-4.617,19.658-5.932,29.667
		c-1.175-0.06-2.356-0.126-3.531-0.198C310.265,112.066,311.218,105.775,312.879,99.682L312.879,99.682z"/>
	<path fill="#C87904" d="M84.145,90.525c10.524,9.325,19.916,19.855,28.641,30.854c4.144,5.188,7.652,10.831,11.244,16.402
		c6.045,9.577,12.198,19.124,17.409,29.192c2.171,3.754,1.397,8.241,1.793,12.378c-8.144-10.171-16.089-20.485-24.203-30.68
		c-5.355-6.938-11.388-13.541-18.878-18.224c4.516,12.425,11.838,23.993,21.853,32.707c6.62,6.405,13.127,13.001,20.683,18.326
		c1.301,0.804,1.433,2.447,1.883,3.778c1.703,6.83,5.925,12.666,10.549,17.835c-5.835-2.645-11.838-5.02-17.224-8.54
		c-12.047-7.55-22.668-17.193-32.209-27.688c-7.513-8.546-14.62-17.643-19.585-27.939C79.221,123.748,80.499,106.375,84.145,90.525
		L84.145,90.525z"/>
	<path fill="#C87904" d="M505.062,114.902c7.185-8.719,14.891-17.079,23.587-24.317c2.932,13.091,4.437,26.944,0.978,40.083
		c-2.063,8.084-6.556,15.25-11.329,21.996c-6.699,9.344-14.327,18.015-22.662,25.931c-8,7.436-16.647,14.356-26.465,19.232
		c-3.851,1.799-7.819,3.334-11.586,5.313c5.476-5.931,9.757-13.037,11.599-20.947c8.041-5.625,14.998-12.594,22.014-19.4
		c9.751-8.678,17.092-20.018,21.271-32.359c-7.412,4.923-13.577,11.472-18.986,18.482c-8,10.075-15.867,20.257-23.832,30.356
		c0.253-3.514-0.491-7.292,1.26-10.53C480.162,149.559,491.635,131.436,505.062,114.902L505.062,114.902z"/>
	<path fill="#C87904" d="M287.11,93.523c1.746-0.438,4.138-0.336,5.05,1.5c1.097,2.033,1.595,4.317,2.165,6.542
		c1.271,5.68,2.321,11.424,2.836,17.224c-2.375,0.558-4.671,1.367-6.914,2.309c-2.459-5.859-5.08-11.664-7.01-17.727
		c-0.564-1.859-1.11-3.76-1.146-5.708C282.492,95.257,284.957,94.016,287.11,93.523L287.11,93.523z"/>
	<path fill="#C87904" d="M321.094,93.931c2.688-0.666,5.913-0.851,8.108,1.133c1.848,1.884,1.374,4.816,0.521,7.052
		c-2.417,6.339-4.851,12.672-7.273,19.004c-2.279-1.007-4.636-1.853-7.083-2.351c0.954-6.423,1.92-12.857,3.526-19.154
		C319.379,97.631,320.164,95.742,321.094,93.931L321.094,93.931z"/>
	<path fill="#C87904" d="M248.334,103.616c1.247,0,2.495,0,3.748-0.006c0.03,1.746,0.042,3.491,0.048,5.236
		c1.571,0.018,3.143,0.03,4.72,0.03c0,1.169,0,2.333,0.006,3.502c-1.523-0.006-3.052-0.006-4.575-0.012c0,2.027,0,4.054-0.018,6.081
		c-1.319,0.012-2.633,0.019-3.946,0.024c0-2.033,0-4.066,0-6.093c-1.601-0.006-3.196-0.006-4.792-0.006c0-1.169,0-2.333,0.006-3.496
		c1.589,0,3.185,0,4.786,0C248.31,107.119,248.316,105.367,248.334,103.616L248.334,103.616z"/>
	<path fill="#C87904" d="M360.524,103.556c1.344,0.072,2.692,0.168,4.042,0.246c-0.012,1.691-0.019,3.376-0.019,5.067
		c1.577,0,3.16,0.006,4.744,0.018c-0.007,1.157-0.007,2.315,0,3.472c-1.584,0.012-3.16,0.012-4.737,0.018
		c0,2.027-0.007,4.054,0,6.081c-1.355,0.006-2.705,0.006-4.048,0.012c-0.007-2.033-0.007-4.06,0-6.093
		c-1.571-0.006-3.144-0.012-4.708-0.03c0.06-1.164,0.144-2.321,0.234-3.478c1.486,0,2.974,0.006,4.467,0.006
		C360.5,107.101,360.507,105.326,360.524,103.556L360.524,103.556z"/>
	<path fill="#C87904" d="M246.001,123.508c-0.425-1.625,0.942-3.196,2.531-3.365c1.919-0.312,4.246-0.24,5.655,1.308
		c0.912,1.122,0.563,2.639,0.078,3.856c-1.056,2.62-2.621,4.995-3.928,7.489C248.658,129.829,246.697,126.896,246.001,123.508
		L246.001,123.508z"/>
	<path fill="#C87904" d="M358.077,123.496c-0.377-2.447,2.44-3.616,4.456-3.502c1.853-0.156,4.342,0.653,4.342,2.896
		c-0.408,3.724-2.854,6.77-4.336,10.11C361.094,129.823,358.708,126.999,358.077,123.496L358.077,123.496z"/>
	<path fill="#C87904" d="M293.683,122.482c4.75-1.691,9.889-1.265,14.836-1.253c4.491,0.275,9.29,0.432,13.241,2.854
		c-0.851,1.062-1.967,1.907-3.328,2.153c-5.385,1.253-10.974,1.229-16.467,1.043c-3.724-0.323-7.694-0.431-10.926-2.536
		C291.764,123.838,292.507,122.825,293.683,122.482L293.683,122.482z"/>
	<path fill="#C87904" d="M236.226,123.19c3.16-2.033,7.832,0.131,8.857,3.628c0.983,3.556,1.679,7.184,2.609,10.758
		c-1.565,0.12-3.125,0.258-4.684,0.45c-2.411-3.442-4.72-6.968-6.806-10.615C235.435,126.123,234.727,124.246,236.226,123.19
		L236.226,123.19z"/>
	<path fill="#C87904" d="M348.77,122.938c3.228-1.571,7.479,0.516,8.474,3.91c0.984,3.55,1.674,7.172,2.586,10.734
		c-1.542,0.114-3.083,0.252-4.611,0.432c-2.454-3.4-4.756-6.927-6.808-10.585C347.595,126.104,347.086,123.814,348.77,122.938
		L348.77,122.938z"/>
	<path fill="#C87904" d="M367.918,125.823c1.32-2.981,5.146-4.018,8.078-3.107c1.806,0.612,1.686,2.897,0.84,4.258
		c-2.105,3.82-4.558,7.437-7.005,11.046c-1.565-0.198-3.142-0.33-4.714-0.444C365.778,133.613,366.18,129.499,367.918,125.823
		L367.918,125.823z"/>
	<path fill="#C87904" d="M255.44,126.776c0.869-2.152,2.788-3.958,5.157-4.216c1.409-0.126,3.232-0.342,4.132,1.031
		c0.839,1.11,0.33,2.615-0.3,3.7c-2.075,3.688-4.456,7.196-6.8,10.717c-1.559-0.18-3.119-0.306-4.684-0.408
		C253.809,134.002,254.013,130.218,255.44,126.776L255.44,126.776z"/>
	<path fill="#C87904" d="M305.221,128.593c1.829-0.647,4.287,0.558,4.155,2.681c0.055,2.405-3.082,3.718-4.941,2.405
		C302.756,132.401,303.026,129.151,305.221,128.593L305.221,128.593z"/>
	<path fill="#C87904" d="M275.62,143.112c4.498-8.509,14.057-14.488,23.832-13.271c-1.703,3.791-4.119,7.52-7.778,9.673
		C286.732,142.02,281.155,143.22,275.62,143.112L275.62,143.112z"/>
	<path fill="#C87904" d="M313.311,129.847c6.129-0.563,12.432,1.308,17.187,5.229c2.801,2.165,4.948,5.031,6.777,8.036
		c-6.356,0.324-12.93-1.283-18.116-5.037C316.351,136.065,314.384,133.103,313.311,129.847L313.311,129.847z"/>
	<path fill="#C87904" d="M52.889,132.923c3.364,0.786,6.452,2.387,9.403,4.149c8.318,5.038,15.934,11.148,23.274,17.499
		c4.767,4.006,8.995,8.594,13.559,12.828c8.678,8.317,17.427,16.587,26.687,24.264c1.379,1.247,3.274,2.213,3.814,4.125
		c1.139,3.298,2.212,6.621,3.394,9.901c-14.135-11.197-28.053-22.783-43.454-32.234c-3.814-2.309-7.748-4.449-11.928-6.009
		c6.753,8.93,15.101,16.587,24.252,23.01c10.434,7.358,21.847,13.175,33.313,18.723c1.349,2.128,2.746,4.222,4.107,6.344
		c-12.503-2.135-24.467-6.716-35.771-12.384c-11.568-5.913-22.578-12.989-32.401-21.511c-5.29-4.786-10.578-9.895-13.667-16.437
		C52.691,155.202,51.983,143.808,52.889,132.923L52.889,132.923z"/>
	<path fill="#C87904" d="M540.905,143.543c5.937-4.15,11.897-8.809,19.052-10.584c0.966,11.838-0.018,24.408-6.104,34.872
		c-4.468,7.31-11.064,12.983-17.691,18.267c-8.736,6.794-18.188,12.654-28.083,17.583c-10.963,5.416-22.555,9.769-34.639,11.833
		c1.955-2.501,3.005-6.099,6.172-7.353c17.301-8.336,34.529-17.823,47.909-31.868c2.752-2.782,5.324-5.739,7.651-8.881
		c-8.72,3.376-16.467,8.75-24.09,14.074c-10.753,7.652-21.019,15.964-31.268,24.264c1.313-3.652,2.339-7.412,3.82-11.004
		c1.055-1.505,2.723-2.446,4.078-3.664c10.177-8.564,19.85-17.709,29.342-27.022C524.438,156.599,532.491,149.816,540.905,143.543
		L540.905,143.543z"/>
	<path fill="#C87904" d="M240.352,142.02c1.325-1.829,3.784-1.829,5.811-2.111c4.647-0.209,9.451-0.485,13.931,1.032
		c-0.468,1.9-2.759,1.751-4.289,2.015C250.661,143.22,245.341,143.568,240.352,142.02L240.352,142.02z"/>
	<path fill="#C87904" d="M352.381,141.486c2.183-1.187,4.659-1.625,7.13-1.649c4.209-0.078,8.635-0.438,12.575,1.355
		c-0.054,0.258-0.149,0.768-0.203,1.025c-4.624,1.211-9.457,1.014-14.189,0.798C355.811,142.992,353.987,142.446,352.381,141.486
		L352.381,141.486z"/>
	<path fill="#C87904" d="M265.971,146.44c8.162-0.605,16.515-0.527,24.401-3.016c-1.23,2.309-3.01,4.312-5.397,5.457
		c1.619,0.612,3.185,1.38,4.684,2.249c-1.415,2.099-3.472,3.604-5.715,4.713c4.174,3.736,9.284,6.675,14.999,6.993
		c-1.799,1.283-3.688,2.614-5.932,2.902c-6.584,0.929-13.613-2.129-17.271-7.718c0.228,1.914,0.335,3.832,0.288,5.757
		c-2.159-0.6-4.15-1.685-5.637-3.37c0.894,1.931,1.535,3.97,2.003,6.05c-2.117-0.414-4.15-1.163-6.069-2.135
		c0.354,1.481,0.629,2.987,0.857,4.498c-4.815-1.715-9.594-3.79-13.582-7.052c-0.037,1.458-0.048,2.915-0.061,4.372
		c-4.005-0.822-7.724-3.022-10.17-6.314c-3.544-4.516-4.702-10.339-5.176-15.928c4.384,1.205,8.81,2.423,13.374,2.717
		C256.364,146.938,261.167,146.566,265.971,146.44L265.971,146.44z"/>
	<path fill="#C87904" d="M322.444,143.478c10.284,2.884,21.09,2.668,31.669,3.226c6.873,0.51,13.709-0.762,20.246-2.795
		c-0.336,6.225-1.943,12.792-6.388,17.397c-2.351,2.524-5.529,4.12-8.875,4.833c0.03-1.278,0.071-2.555,0.133-3.832
		c-4.229,2.896-8.995,4.863-13.824,6.525c0.246-1.512,0.54-3.005,0.828-4.504c-1.89,0.959-3.892,1.691-5.974,2.111
		c0.445-1.997,1.098-3.946,2.063-5.751c-1.63,1.517-3.641,2.519-5.786,3.053c-0.012-1.824,0.071-3.646,0.19-5.464
		c-3.753,5.457-10.728,8.444-17.265,7.431c-2.183-0.348-4.023-1.637-5.799-2.873c4.995-0.348,9.716-2.465,13.499-5.709
		c0.415-0.431,1.079-0.779,1.092-1.451c-1.673-1.217-3.616-2.249-4.678-4.102c0.438-1.727,2.729-1.919,4.084-2.705
		C325.316,147.748,323.631,145.745,322.444,143.478L322.444,143.478z"/>
	<path fill="#C87904" d="M231.783,148.743c-0.678-1.211-0.408-2.62-0.276-3.922c1.553-0.047,3.119,0.048,4.654,0.36
		c0.336,4.21,1.421,8.3,2.849,12.264C236.148,154.968,233.461,152.167,231.783,148.743L231.783,148.743z"/>
	<path fill="#C87904" d="M376.691,145.151c1.697-0.39,5.332-1.121,4.877,1.721c-1.021,4.335-4.493,7.604-7.688,10.495
		C375.216,153.397,376.308,149.337,376.691,145.151L376.691,145.151z"/>
	<path fill="#C87904" d="M214.727,151.4c3.065-2.849,7.581-2.477,11.376-1.751c0.869,1.811,1.739,3.694,3.256,5.067
		c3.19,3.034,7.665,3.922,11.364,6.117c1.853,1.073,3.334,2.644,4.816,4.167c-2.675,0.96-5.337,1.949-7.88,3.221
		c-3.358-2.081-7.232-3.634-11.262-3.161c-3.262,0.09-6.087,1.847-8.888,3.311C211.531,165.349,209.762,156.119,214.727,151.4
		L214.727,151.4z"/>
	<path fill="#C87904" d="M386.821,149.738c4.287-1.121,10.086-0.845,12.784,3.227c2.688,4.624,1.241,11.022-2.788,14.422
		c-0.612,0.415-1.295,1.391-2.057,0.702c-2.873-1.709-6.027-3.202-9.444-3.076c-3.641-0.198-7.029,1.367-10.069,3.203
		c-2.729-1.164-5.578-2.003-8.45-2.711c1.841-1.991,3.922-3.772,6.285-5.122c3.399-2.057,7.316-3.25,10.393-5.829
		C385.039,153.295,385.729,151.352,386.821,149.738L386.821,149.738z"/>
	<path fill="#FFFFFF" d="M246.871,151.862c5.588,0.198,11.166-0.09,16.737-0.354c-3.526,0.942-7.412,0.774-10.608,2.771
		c-1.487,0.726-2.177,2.291-2.926,3.664C248.256,156.389,247.458,154.11,246.871,151.862L246.871,151.862z"/>
	<path fill="#FFFFFF" d="M348.849,151.61c2.171-0.3,4.335,0.125,6.506,0.221c3.431,0.156,6.873,0.12,10.304,0.3
		c-0.595,2.177-1.542,4.252-3.054,5.949C360.584,152.431,353.766,152.479,348.849,151.61L348.849,151.61z"/>
	<path fill="#FFFFFF" d="M223.117,157.931c0.966-0.036,1.931-0.066,2.903-0.072c0.401,1.031,1.182,2.087,0.839,3.257
		c-0.192,1.037-1.403,1.199-2.147,1.697c-0.377-0.234-1.127-0.702-1.505-0.942C222.745,160.587,222.787,159.244,223.117,157.931
		L223.117,157.931z"/>
	<path fill="#FFFFFF" d="M386.317,157.895c1.156,0.06,2.759-0.462,3.399,0.845c0.534,0.99,0.133,2.153,0.079,3.208
		c-0.69,0.24-1.374,0.474-2.051,0.708c-0.392-0.157-1.17-0.468-1.561-0.618C385.687,160.653,385.825,159.25,386.317,157.895
		L386.317,157.895z"/>
	<path fill="#C87904" d="M146.524,164.76c8.792,2.135,15.964,8.558,20.768,16.024c2.471,3.658,3.808,7.916,4.875,12.162
		c2.225,8.948,4.186,18.272,9.613,25.942c-12.366-5.876-24.174-14.278-31.118-26.344
		C145.787,184.245,144.348,174.122,146.524,164.76L146.524,164.76z"/>
	<path fill="#C87904" d="M443.594,184.208c4.642-9.019,12.636-17.025,22.745-19.412c1.62,9.499,1.104,19.963-4.311,28.239
		c-7.527,11.466-18.903,19.886-31.064,25.918C438.711,208.874,438.531,195.471,443.594,184.208L443.594,184.208z"/>
	<path fill="#C87904" d="M322.317,179.963c2.147-6.393,6.981-11.97,13.308-14.477c-1.727,5.512-4.041,10.873-7.112,15.772
		c-2.566,4.03-4.144,8.719-4.324,13.505C322.45,190.11,320.747,184.905,322.317,179.963L322.317,179.963z"/>
	<path fill="#C87904" d="M277.089,165.45c6.603,2.633,11.64,8.569,13.571,15.352c1.055,4.75-0.45,9.523-1.979,13.985
		C287.956,183.951,279.644,175.747,277.089,165.45L277.089,165.45z"/>
	<path fill="#C87904" d="M234.193,173.876c2.909-4.187,8.031-5.925,12.774-7.035c2.099,2.446,4.246,4.846,6.417,7.226
		c-4.797,0.827-9.75,2.171-13.397,5.578c-2.123,1.817-3.268,4.395-4.474,6.842c-1.025-0.192-1.248-1.379-1.68-2.166
		C232.353,181.042,232.028,176.94,234.193,173.876L234.193,173.876z"/>
	<path fill="#C87904" d="M358.983,174.488c2.303-2.549,4.557-5.146,6.926-7.64c5.134,1.211,10.891,3.25,13.421,8.288
		c1.979,4.012,0.21,8.486-1.847,12.072c-1.26-3.586-3.412-6.939-6.639-9.056C367.36,175.777,363.146,174.739,358.983,174.488
		L358.983,174.488z"/>
	<path fill="#C87904" d="M250.511,167.813c6.207,1.48,12.557,4.018,16.833,8.953c2.441,2.776,3.466,6.489,3.34,10.141
		C265.017,179.436,255.603,175.825,250.511,167.813L250.511,167.813z"/>
	<path fill="#C87904" d="M269.281,167.837c1.583,0.312,3.154,0.642,4.737,0.971c2.507,5.097,4.93,10.327,8.57,14.74
		c-0.3,1.853-0.713,3.712-1.625,5.368c-0.947-0.204-1.181-1.271-1.673-1.961c-3.712-7.022-9.871-12.282-16.149-16.942
		c2.051,0.606,4.12,1.194,6.176,1.799C269.305,170.482,269.293,169.157,269.281,167.837L269.281,167.837z"/>
	<path fill="#C87904" d="M286.552,167.471c3.898-0.018,7.94,1.014,10.902,3.652c3.466,2.992,5.169,7.448,6.123,11.808
		C295.494,181.576,289.311,174.919,286.552,167.471L286.552,167.471z"/>
	<path fill="#C87904" d="M317.077,169.642c2.686-1.727,5.966-1.937,9.066-2.141c-2.639,7.49-8.91,13.984-16.905,15.472
		C310.228,177.87,312.411,172.437,317.077,169.642L317.077,169.642z"/>
	<path fill="#C87904" d="M346.425,175.759c4.3-4.222,10.04-6.807,15.905-7.952c-5.188,7.898-14.255,11.778-20.324,18.836
		C342,182.596,343.534,178.614,346.425,175.759L346.425,175.759z"/>
	<path fill="#C87904" d="M338.636,168.839c1.624-0.354,3.256-0.69,4.894-0.996c-0.019,1.319-0.024,2.645-0.024,3.97
		c2.111-0.666,4.24-1.271,6.345-1.949c-7.227,5.169-13.907,11.49-17.799,19.61c-0.875-1.896-1.571-3.875-1.793-5.956
		C333.837,179.13,336.261,173.948,338.636,168.839L338.636,168.839z"/>
	<path fill="#C87904" d="M250.679,179.267c2.464-0.191,5.331-2.003,7.495-0.054c5.607,3.413,8.918,9.343,14.208,13.127
		c-1.859,4.684-2.723,9.673-3.011,14.687c-1.721-2.645-3.353-5.391-4.27-8.431c-1.564-4.522-1.913-9.613-4.911-13.529
		C257.893,181.984,254.193,180.485,250.679,179.267L250.679,179.267z"/>
	<path fill="#C87904" d="M351.266,181.78c1.643-1.308,3.261-2.717,5.211-3.557c1.816,0.144,3.58,0.648,5.373,0.978
		c-3.971,1.038-7.712,3.334-9.883,6.885c-1.5,2.272-2.01,4.971-2.633,7.574c-1.182,4.792-3.472,9.188-5.631,13.589
		c-0.372-5.115-1.619-10.111-3.263-14.957C344.687,189.468,347.295,184.922,351.266,181.78L351.266,181.78z"/>
	<path fill="#C87904" d="M183.142,215.98c-6.675-9.805-7.808-22.225-6.549-33.733c2.291,4.899,5.026,9.613,8.443,13.811
		c7.221,9.02,16.474,16.114,25.883,22.686c2.921,2.027,5.511,4.69,6.915,8c1.631,3.676,1.487,7.988,0.036,11.7
		c-3.022,7.581-7.256,14.782-8.755,22.896c-0.545,2.632-0.156,5.757,1.997,7.599c3.113,2.68,7.25,3.718,11.202,4.449
		c7.49,1.097,15.268,0.402,22.362-2.303c1.931,5.037,4.396,9.913,7.898,14.057c-2.381,3.004-6.477,3.274-9.919,2.272
		c1.361,4.761,0.96,9.889-1.199,14.351c-5.499-1.158-10.398-4.685-13.061-9.656c-2.483,3.976-6.267,6.987-10.627,8.678
		c-4.551-3.305-5.187-9.404-4.833-14.585c-3.394,6.633-10.345,11.202-17.75,11.844c-1.319-2.44-2.429-5.067-2.579-7.874
		c-0.438-5.194,1.613-10.267,4.672-14.369c-5.901,3.718-13.277,4.419-19.964,2.758c-0.443-6.813,4.954-11.837,9.649-15.934
		c-7.556-0.654-15.189-4.797-18.356-11.952c4.99-4.678,12.204-6.153,18.842-5.403c-7.94-2.639-13.871-10.027-14.992-18.285
		c7.94-3.658,16.941-0.792,23.976,3.544c-1.2-1.691-2.387-3.388-3.766-4.935C189.738,222.139,185.625,219.837,183.142,215.98
		L183.142,215.98z"/>
	<path fill="#C87904" d="M436.031,182.571c1.349,8.264,0.575,16.917-2.153,24.833c-1.89,5.343-4.821,10.512-9.372,14.027
		c-3.216,2.525-5.872,5.679-8.073,9.109c6.957-4.419,16.061-7.221,23.929-3.473c-0.984,4.714-2.963,9.35-6.435,12.773
		c-2.412,2.477-5.464,4.234-8.673,5.47c6.669-0.822,13.891,0.719,18.951,5.349c-3.136,7.196-10.831,11.316-18.394,11.97
		c4.757,4.042,10.021,9.163,9.704,15.934c-6.723,1.601-14.242,1.067-20.072-2.896c2.747,3.682,4.69,8.09,4.846,12.732
		c0.108,3.382-1.025,6.656-2.603,9.606c-7.412-0.521-14.446-5.085-17.841-11.718c0.335,5.164-0.384,11.106-4.762,14.507
		c-4.479-1.583-8.209-4.756-10.824-8.678c-2.549,4.995-7.442,8.438-12.846,9.691c-2.236-4.45-2.621-9.649-1.205-14.411
		c-3.46,1.037-7.658,0.773-9.979-2.345c3.496-4.072,5.925-8.936,7.748-13.949c8.918,3.22,18.944,3.85,28.022,0.924
		c2.902-1.074,6.249-2.501,7.449-5.602c0.659-2.363,0.359-4.894-0.187-7.244c-1.721-6.59-4.881-12.666-7.563-18.89
		c-2.206-4.534-2.865-10.237-0.228-14.734c3.137-5.487,9.032-8.306,13.835-12.066C420.366,205.348,429.986,194.991,436.031,182.571
		L436.031,182.571z"/>
	<path fill="#C87904" d="M298.168,192.496c-0.228-4.791,4.378-7.52,8.114-9.354c4.203,1.798,9.062,5.379,8.138,10.59
		c-1.17,5.661-6.549,9.355-7.808,15.022C304.285,203.075,298.906,198.817,298.168,192.496L298.168,192.496z"/>
	<path fill="#C87904" d="M277.977,196.646c1.037-1.961,2.747-3.424,4.348-4.912c2.429,4.522,4.707,9.613,3.676,14.873
		c-1.211,5.721-5.727,9.799-8.552,14.716c-0.905-5.379-1.775-10.806-1.553-16.275C275.998,202.151,276.585,199.213,277.977,196.646
		L277.977,196.646z"/>
	<path fill="#C87904" d="M330.462,191.783c1.583,1.325,3.172,2.722,4.186,4.551c2.026,3.532,2.272,7.736,2.255,11.712
		c-0.198,4.492-0.66,8.989-1.68,13.373c-2.194-4.899-6.439-8.588-8.287-13.655C325.094,202.2,327.871,196.599,330.462,191.783
		L330.462,191.783z"/>
	<path fill="#C87904" d="M293.641,191.951c2.693,4.726,4.971,9.702,6.68,14.872c1.271,3.424,0.924,7.4-1.205,10.41
		c-2.806,4.06-6.512,7.424-9.067,11.682c-1.451-2.303-3.245-4.485-3.964-7.154c-0.552-3.55-0.108-7.203,0.876-10.645
		C288.789,204.592,291.59,198.403,293.641,191.951L293.641,191.951z"/>
	<path fill="#C87904" d="M319.014,192.167c1.476,3.268,2.513,6.716,3.82,10.057c2.069,5.709,4.377,11.599,4.018,17.781
		c-0.09,3.448-2.369,6.219-4.245,8.911c-2.081-3.64-4.576-7.016-7.384-10.123c-2.206-2.404-4.054-5.523-3.381-8.917
		C312.921,203.531,316.381,197.948,319.014,192.167L319.014,192.167z"/>
	<path fill="#C87904" d="M31.42,194.182c16.347-0.336,32.665,2.141,48.377,6.584c23.526,6.651,46.572,14.926,69.168,24.228
		c-3.484,0.348-6.962,1.122-10.026,2.891c-1.416,1.014-2.999-0.084-4.414-0.521c-16.767-6.531-34.116-12.126-52.155-13.589
		c8.156,5.236,17.373,8.504,26.621,11.232c9.079,2.615,18.326,4.624,27.615,6.333c1.697,5.385,5.343,10.104,10.345,12.792
		c-9.409-3.79-19.292-6.201-29.127-8.576c-12.965-3.1-26.039-5.811-38.848-9.523c-11.748-3.406-23.202-8.3-33.126-15.526
		C40.019,206.139,34.418,200.946,31.42,194.182L31.42,194.182z"/>
	<path fill="#C87904" d="M532.84,200.79c15.783-4.456,32.167-6.944,48.58-6.608c-3.562,7.748-10.254,13.511-17.162,18.249
		c-9.026,6.009-19.118,10.297-29.506,13.337c-15.855,4.642-32.107,7.725-48.101,11.833c-7.089,1.834-14.152,3.826-20.936,6.59
		c4.995-2.747,9.121-7.25,10.549-12.863c12.317-2.309,24.6-5.043,36.443-9.193c6.116-2.201,12.162-4.768,17.601-8.372
		c-12.33,1.121-24.479,3.898-36.191,7.886c-6.039,1.973-11.964,4.27-17.926,6.47c-1.366,0.66-2.595-0.449-3.795-0.953
		c-2.682-1.416-5.733-1.805-8.695-2.177C486.333,215.8,509.325,207.417,532.84,200.79L532.84,200.79z"/>
	<path fill="#C87904" d="M133.343,197.731c7.412,1.284,14.225,4.696,20.947,7.934c8.984,4.33,16.624,10.837,24.426,16.948
		c-2.345,0.312-4.864,0.341-6.927,1.649c-1.127,0.636-2.141,1.589-3.484,1.745c-5.349,0.738-11.172,0.72-15.976-2.069
		c-4.174-2.459-7.958-5.703-10.633-9.775C138.285,209.036,135.508,203.489,133.343,197.731L133.343,197.731z"/>
	<path fill="#C87904" d="M462.189,203.86c5.547-2.561,11.215-5.037,17.235-6.243c-3.791,9.547-8.473,19.598-17.409,25.367
		c-5.17,3.676-11.874,3.94-17.925,2.956c-1.163-0.228-2.069-1.055-3.064-1.619c-2.038-1.385-4.599-1.385-6.95-1.697
		c5.176-4.066,10.242-8.288,15.706-11.976C453.681,207.98,457.938,205.894,462.189,203.86L462.189,203.86z"/>
	<path fill="#C87904" d="M299.985,224.76c0.42-4.767,5.182-7.484,6.237-12c0.924,4.63,5.769,7.095,6.674,11.676
		c0.181,4.678-3.525,8.174-6.321,11.478C303.218,233.149,299.637,229.449,299.985,224.76L299.985,224.76z"/>
	<path fill="#C87904" d="M344.303,234.109c-5.392-4.959-6.387-13.217-4.702-20.036c2.045,5.871,5.758,11.49,11.412,14.398
		c2.682,1.499,5.738,2.033,8.768,2.249C357.783,237.096,348.92,238.391,344.303,234.109L344.303,234.109z"/>
	<path fill="#C87904" d="M266.319,225.179c3.262-3.016,5.331-7.034,6.956-11.106c1.158,5.697,1.032,12.054-2.17,17.098
		c-2.051,3.364-5.835,5.859-9.889,5.445c-3.736,0.012-6.675-2.747-8.264-5.896C257.887,230.553,262.78,228.67,266.319,225.179
		L266.319,225.179z"/>
	<path fill="#C87904" d="M331.697,220.754c5.061,7.934,10.345,16.149,18.242,21.564c3.263,2.135,7.538,4.006,11.376,2.261
		c3.761-1.859,5.733-5.823,7.335-9.493c1.475,1.68,2.662,3.67,2.956,5.925c0.792,5.146-0.714,10.633-4.03,14.657
		c-2.626,3.184-6.992,5.007-11.094,4.102c-3.479-0.821-6.339-3.184-8.827-5.637c-7.735-8.126-12.696-18.573-15.335-29.403
		C332.051,223.411,331.858,222.085,331.697,220.754L331.697,220.754z"/>
	<path fill="#C87904" d="M263.698,241.713c7.304-5.487,12.539-13.164,17.265-20.864c-1.565,12.732-7.478,25.043-16.761,33.949
		c-3.101,2.794-6.957,5.739-11.395,5.109c-5.397-0.647-9.301-5.331-10.884-10.255c-1.553-4.785-1.607-10.8,2.261-14.537
		c1.637,3.785,3.718,7.935,7.718,9.661C256.028,246.259,260.364,244.07,263.698,241.713L263.698,241.713z"/>
	<path fill="#C87904" d="M283.302,223.458c3.64,5.038,3.55,11.7,1.859,17.445c-1.865,6.344-4.966,12.257-8.216,17.979
		c-0.162,0.018-0.492,0.048-0.653,0.066c-1.901-2.531-3.389-5.349-4.732-8.204C277.779,242.834,281.161,233.18,283.302,223.458
		L283.302,223.458z"/>
	<path fill="#C87904" d="M326.485,234.457c-0.497-3.796,0.93-7.502,3.028-10.597c1.602,6.806,3.407,13.685,6.957,19.784
		c1.288,2.477,3.106,4.635,4.443,7.083c-0.846,3.268-3.07,5.973-4.75,8.852C331.835,251.722,327.409,243.524,326.485,234.457
		L326.485,234.457z"/>
	<path fill="#C87904" d="M139.322,230.816c2.447-1.355,5.031-2.692,7.886-2.807c5.919-0.545,11.568,1.907,17.463,1.835
		c1.829,0.018,3.64-0.3,5.445-0.582c1.289,5.235,4,10.117,7.988,13.774c-3.802,1.127-7.641,2.381-11.652,2.399
		c-6.734,0.102-13.637-1.283-19.496-4.713C143.28,238.546,140.168,235.11,139.322,230.816L139.322,230.816z"/>
	<path fill="#C87904" d="M286.9,241.581c2.219-5.175,6.116-9.343,9.775-13.529c0.959,2.429,1.781,4.978,1.553,7.622
		c-0.126,4.72-4.102,8.378-3.964,13.152c-0.138,4.305,2.147,8.125,4.156,11.766c-4.396-2.597-8.149-6.219-11.172-10.315
		C285.334,247.776,285.713,244.31,286.9,241.581L286.9,241.581z"/>
	<path fill="#C87904" d="M314.575,236.322c-0.497-2.854,0.48-5.679,1.596-8.264c4.204,4.941,9.115,9.943,10.465,16.521
		c0.81,3.515-1.505,6.561-3.748,8.972c-2.466,2.752-5.35,5.139-8.558,6.98c2.015-3.616,4.246-7.412,4.15-11.7
		C318.455,244.31,315.175,240.706,314.575,236.322L314.575,236.322z"/>
	<path fill="#C87904" d="M449.482,229.803c5.463-0.252,10.758-2.321,16.275-1.781c2.795,0.144,5.313,1.475,7.719,2.776
		c-1.008,5.199-5.35,8.911-9.955,11.034c-6.201,2.873-13.211,4.072-20.007,3.389c-2.919-0.336-5.708-1.278-8.521-2.069
		c3.7-3.886,6.314-8.695,7.634-13.895C444.889,229.624,447.18,229.965,449.482,229.803L449.482,229.803z"/>
	<path fill="#C87904" d="M31.821,234.451c6.387-1.487,12.942-2.112,19.49-2.327c7.97-0.618,15.958-0.042,23.928,0.258
		c10.674,0.654,21.319,1.889,31.796,4.06c11.892,2.297,23.436,6.003,35.016,9.475c-1.793,0.924-3.616,1.77-5.463,2.58
		c-17.823-5.158-36.743-7.077-55.154-4.456c5.289,1.787,10.818,2.687,16.293,3.7c11.64,1.895,23.394,3.34,35.202,3.418
		c-1.17,1.476-2.345,2.944-3.502,4.432c-4.233,0-8.468,0.15-12.689,0.432c-12.174,0.66-24.473,0.809-36.527-1.26
		c-15.706-2.488-30.476-9.061-44.011-17.229C34.652,236.634,33.177,235.614,31.821,234.451L31.821,234.451z"/>
	<path fill="#C87904" d="M540.647,232.262c13.528-0.731,27.256-0.617,40.563,2.201c-8.862,6.129-18.572,11.004-28.611,14.896
		c-13.505,5.265-28.102,7.184-42.536,7.1c-8.96,0.042-17.889-0.875-26.848-0.893c-1.062-1.547-2.225-3.017-3.46-4.426
		c12.791-0.06,25.522-1.709,38.104-3.898c4.546-0.881,9.128-1.697,13.519-3.202c-17.92-2.567-36.313-0.768-53.721,4.006
		c-2.357,0.93-4.426-0.996-6.352-2.087c10.621-3.358,21.247-6.758,32.161-9.025C515.694,234.289,528.156,232.79,540.647,232.262
		L540.647,232.262z"/>
	<path fill="#C87904" d="M297.665,248.226c0.168-4.377,3.004-7.892,5.397-11.322c1.061,0.954,2.129,1.896,3.214,2.825
		c1.198-0.87,2.345-1.805,3.472-2.765c1.822,2.789,3.958,5.487,4.858,8.755c1.792,6.483-2.345,13.787-8.463,16.162
		C301.155,259.362,297.736,253.821,297.665,248.226L297.665,248.226z"/>
	<path fill="#C87904" d="M131.562,257.353c3.467-5.673,9.745-9.133,16.216-10.044c6.057-0.744,12.126,0.66,17.697,2.986
		c1.667,3.28,3.484,6.519,6.195,9.068c-5.847,3.67-12.828,5.025-19.634,5.349C144.552,265.185,137.301,261.965,131.562,257.353
		L131.562,257.353z"/>
	<path fill="#C87904" d="M447.084,250.402c5.919-2.579,12.497-3.988,18.943-2.944c6.063,1.217,11.904,4.516,15.154,9.925
		c-5.613,4.336-12.468,7.652-19.712,7.347c-7.046-0.21-14.242-1.625-20.36-5.272C443.575,256.777,445.607,253.737,447.084,250.402
		L447.084,250.402z"/>
	<path fill="#C87904" d="M277.203,267.691c1.308-5.289,4.096-10.081,7.256-14.464c3.575,2.243,6.999,5.097,8.72,9.055
		c1.547,3.232,1.703,6.951,1.181,10.447c-0.306,1.697-1.643,2.909-2.639,4.222c-2.267,2.699-3.796,5.919-4.857,9.259
		c-2.387-3.748-5.661-6.818-8.138-10.489C277.107,273.4,276.514,270.444,277.203,267.691L277.203,267.691z"/>
	<path fill="#C87904" d="M318.228,266.816c0.678-5.955,5.014-10.758,10.094-13.571c3.124,4.516,6.038,9.343,7.333,14.734
		c0.773,2.933-0.251,5.979-1.983,8.359c-2.424,3.407-5.507,6.303-7.683,9.896c-1.398-3.935-3.125-7.874-6.033-10.945
		C317.719,273.143,317.946,269.646,318.228,266.816L318.228,266.816z"/>
	<path fill="#C87904" d="M263.008,260.255c2.453-1.811,4.228-4.324,6.291-6.53c1.091,2.128,2.201,4.251,3.442,6.296
		c0.845,1.475,2.021,2.969,1.745,4.786c-0.407,4.276-0.042,8.797-1.925,12.785c-1.517,3.25-3.466,6.297-5.667,9.134
		c-1.47-3.886-3.298-7.623-4.726-11.521c-1.505-4.03-1.613-8.425-1.098-12.653C261.089,261.401,262.277,260.927,263.008,260.255
		L263.008,260.255z"/>
	<path fill="#C87904" d="M343.511,253.713c2.363,2.843,4.727,5.781,7.929,7.736c0.778,4.695,0.971,9.691-0.894,14.171
		c-1.548,3.736-3.299,7.388-4.695,11.19c-3.029-4.426-6.502-8.984-7.029-14.507c-0.378-3.694-1.686-7.886,0.569-11.238
		C340.854,258.667,342.288,256.244,343.511,253.713L343.511,253.713z"/>
	<path fill="#C87904" d="M128.377,259.746c2.249-0.324,3.833,1.691,5.667,2.621c-14.794,1.631-30.17,1.757-44.095,7.627
		c9.445,1.218,19.022,0.42,28.425-0.785c6.933-0.875,13.703-2.609,20.474-4.252c2.759,0.504,5.391,1.529,8.096,2.272
		c-2.5,1.991-4.084,5.476-7.52,5.979c-18.051,4.479-36.635,6.135-55.124,7.586c-14.243,0.714-28.755,0.594-42.596-3.227
		c5.985-3.772,12.503-6.626,19.076-9.205c7.016-2.621,14.201-5.02,21.667-5.896C97.722,260.945,113.11,261.263,128.377,259.746
		L128.377,259.746z"/>
	<path fill="#C87904" d="M478.753,262.36c1.439-0.857,2.753-1.943,4.295-2.621c5.012,0.18,9.996,0.887,15.021,0.936
		c6.393,0.474,12.809,0.402,19.202,0.894c8.144,0.335,16.389,0.791,24.216,3.262c10.254,3.112,20.353,7.095,29.492,12.737
		c-13.744,3.802-28.161,3.935-42.308,3.238c-17.637-1.355-35.347-2.95-52.617-6.938c-1.722-0.461-3.539-0.695-5.121-1.541
		c-1.877-1.673-3.587-3.544-5.655-4.989c3.016-0.475,5.99-1.218,8.779-2.489c11.88,3.466,24.204,5.355,36.576,5.728
		c4.022,0.072,8.064,0,12.065-0.57C508.846,264.063,493.487,264.021,478.753,262.36L478.753,262.36z"/>
	<path fill="#C87904" d="M245.582,261.965c4.036,1.655,8.636,2.524,12.833,0.894c0.198,3.43,0.552,6.908-0.042,10.32
		c-0.647,3.323-2.675,6.237-5.385,8.222C249.384,275.434,246.403,268.951,245.582,261.965L245.582,261.965z"/>
	<path fill="#C87904" d="M354.438,262.864c4.168,1.655,8.773,0.75,12.737-1.02c-0.348,7.148-3.604,13.763-7.538,19.598
		c-1.836-1.733-3.736-3.55-4.63-5.967C353.364,271.464,353.999,267.044,354.438,262.864L354.438,262.864z"/>
	<path fill="#C87904" d="M164.545,264.981c5.188-0.72,10.519-0.647,15.658,0.384c-2.741,4.054-4.738,8.786-8.677,11.874
		c-5.337,4.293-12.012,6.765-18.782,7.556c-4.366,0.552-9.002-0.156-12.678-2.681c1.523-5.247,4.804-10.135,9.607-12.875
		C154.219,266.654,159.484,265.917,164.545,264.981L164.545,264.981z"/>
	<path fill="#C87904" d="M299.709,267.494c2.021-1.445,4.51-2.039,6.634-3.329c2.752,1.601,6.093,2.477,8.19,5.007
		c1.901,2.501,0.708,5.829-0.743,8.24c-2.422,3.916-5.534,7.394-7.478,11.604c-1.979-4.953-6.123-8.618-8.336-13.445
		C296.663,272.903,297.551,269.449,299.709,267.494L299.709,267.494z"/>
	<path fill="#C87904" d="M432.607,265.365c9.109-1.853,18.607-0.516,27.352,2.375c6.417,2.195,10.849,7.976,12.864,14.267
		c-4.99,3.634-11.605,3.532-17.368,2.153c-6.585-1.589-13.091-4.761-17.367-10.165C436.116,271.212,434.442,268.231,432.607,265.365
		L432.607,265.365z"/>
	<path fill="#C87904" d="M94.429,286.06c14.495-4.894,29.877-5.865,44.797-8.881c-0.87,2.998-4.318,2.782-6.722,3.729
		c-12.18,3.875-24.21,8.654-34.938,15.688c14.68-0.383,28.666-5.685,41.948-11.538c2.908,1.547,6.104,2.519,9.397,2.729
		c-16.743,4.906-32.305,12.978-48.191,20.047c-9.242,3.91-19.01,6.891-29.073,7.508c-3.556,0.36-7.142-0.006-10.632-0.726
		c3.568-6.626,8.065-12.851,13.858-17.708C80.577,292.015,87.347,288.489,94.429,286.06L94.429,286.06z"/>
	<path fill="#C87904" d="M474.117,277.695c14.717,2.291,29.775,3.322,43.945,8.203c14.393,4.738,27.154,15.059,33.607,28.899
		c-9.716,1.667-19.629-0.167-28.94-3.004c-10.154-3.064-19.496-8.167-29.17-12.414c-9.703-4.293-19.412-8.713-29.654-11.586
		c3.353-0.114,6.435-1.422,9.499-2.615c13.301,5.685,27.202,11.088,41.853,11.412c-12.492-8.102-26.608-13.302-40.833-17.451
		C474.345,278.78,474.196,278.055,474.117,277.695L474.117,277.695z"/>
	<path fill="#C87904" d="M259.572,278.486c2.069,3.562,4.174,7.161,5.493,11.083c-4.107-0.528-7.448-3.317-10.314-6.105
		C255.944,281.467,257.995,280.16,259.572,278.486L259.572,278.486z"/>
	<path fill="#C87904" d="M328.152,289.994c2.591-4.132,6.207-7.514,8.684-11.73c2.388,4.996,5.59,9.571,9.247,13.715
		c-1.451,7.904-6.056,14.849-11.854,20.258c-2.981-4.822-5.733-9.919-6.976-15.49C326.72,294.48,326.852,291.979,328.152,289.994
		L328.152,289.994z"/>
	<path fill="#C87904" d="M275.842,278.457c1.877,2.542,3.496,5.283,5.655,7.616c2.207,2.519,4.815,5.361,4.384,8.995
		c-0.833,6.177-4.3,11.556-7.131,16.983c-2.32-1.602-3.964-3.928-5.637-6.146c-2.968-4.174-5.583-8.768-6.537-13.859
		C270.109,287.847,273.551,283.476,275.842,278.457L275.842,278.457z"/>
	<path fill="#C87904" d="M347.661,289.532c1.403-3.916,3.508-7.52,5.367-11.232c1.721,1.649,3.418,3.322,5.121,4.989
		C355.192,286.084,351.918,289.13,347.661,289.532L347.661,289.532z"/>
	<path fill="#C87904" d="M166.165,284.501c3.07-1.409,5.949-3.185,8.689-5.145c0.09,0.377,0.276,1.139,0.367,1.517
		c5.175,1.091,10.578,1.811,15.789,0.503c-0.497,1.728-0.611,3.694-1.901,5.068c-5.613,6.512-14.117,10.296-22.68,10.446
		c-4.072-0.065-7.808-2.261-10.177-5.517C158.566,287.89,162.524,286.229,166.165,284.501L166.165,284.501z"/>
	<path fill="#C87904" d="M289.137,296.213c0.168-6.189,1.943-12.726,6.513-17.152c2.512,4.924,7.148,8.672,8.666,14.087
		c0.509,7.143-2.687,13.775-5.518,20.132C293.718,309.07,288.885,303.188,289.137,296.213L289.137,296.213z"/>
	<path fill="#C87904" d="M317.011,279.158c4.881,4.42,6.482,11.304,6.662,17.643c-0.007,6.825-4.881,12.317-9.69,16.594
		c-2.501-6.076-6.146-12.18-5.518-18.999C309.19,288.315,314.647,284.531,317.011,279.158L317.011,279.158z"/>
	<path fill="#C87904" d="M437.998,279.338c2.272,1.661,4.642,3.208,7.185,4.438c4.054,2.087,8.707,3.658,11.4,7.604
		c-2.356,3.226-6.075,5.409-10.11,5.511c-8.696-0.114-17.356-4.006-22.975-10.698c-1.14-1.355-1.313-3.203-1.883-4.816
		c5.253,1.283,10.686,0.618,15.897-0.521C437.633,280.478,437.879,279.721,437.998,279.338L437.998,279.338z"/>
	<path fill="#C87904" d="M246.067,290.744c3.143-0.006,6.153-1.235,8.318-3.532c2.177,1.386,4.546,2.633,6.315,4.552
		c1.895,3.683,2.249,8.096,1.29,12.102c-0.654,3.088-2.231,5.853-3.658,8.629c-3.652,7.226-6.926,14.638-9.877,22.176
		c-2.255-2.272-3.13-5.427-4.024-8.407c-1.595-5.362-2.104-11.028-4.282-16.216c-1.163-2.836-2.98-5.343-4.971-7.646
		c2.398,1.265,5.007,2.015,7.676,2.44C245.108,300.507,246.463,295.662,246.067,290.744L246.067,290.744z"/>
	<path fill="#C87904" d="M357.273,287.841c1.271-1.224,2.424,0.576,3.502,1.175c1.632,1.355,3.814,1.536,5.842,1.715
		c-0.312,4.93,1.055,9.805,3.376,14.129c2.633-0.474,5.206-1.254,7.635-2.393c-4.175,4.419-6.351,10.261-7.442,16.149
		c-1.332,5.518-2.052,11.611-5.8,16.126c-3.07-7.796-6.519-15.442-10.326-22.902c-3.412-5.75-5.349-13.157-2.452-19.502
		C353.052,290.384,355.367,289.298,357.273,287.841L357.273,287.841z"/>
	<path fill="#C87904" d="M457.962,288.645c10.878,4.132,21.745,8.3,32.485,12.773c5.732,2.44,11.598,4.815,16.563,8.665
		c10.165,7.599,17.067,18.885,20.935,30.849c-10.848,0.408-21.93-2.687-30.685-9.188c-14.273-11.316-26.885-24.563-41.014-36.053
		c0.587-0.624,1.193-1.248,1.787-1.871c12.317,10.165,25.685,19.49,40.76,25.055c-4.101-7.472-10.896-13.025-18.146-17.271
		c-6.735-3.934-13.932-6.974-21.032-10.165C459.065,290.504,458.508,289.575,457.962,288.645L457.962,288.645z"/>
	<path fill="#C87904" d="M150.854,290.132c1.301-0.498,2.627-0.911,3.97-1.271c-0.803,1.146-1.409,2.615-2.837,3.112
		c-8.503,3.838-17.223,7.43-24.88,12.846c-5.242,3.706-9.991,8.335-13.031,14.05c15.028-5.607,28.413-14.86,40.683-25.049
		c0.552,0.624,1.103,1.253,1.661,1.883c-10.53,8.629-20.168,18.279-30.434,27.22c-4.882,4.186-9.547,8.75-15.208,11.898
		c-7.886,4.372-16.995,6.458-25.991,6.104c3.97-12.587,11.556-24.306,22.464-31.933c4.384-3.137,9.41-5.169,14.333-7.287
		C131.262,297.646,141.067,293.898,150.854,290.132L150.854,290.132z"/>
	<path fill="#C87904" d="M173.595,299.812c4.582-4.216,10.351-6.921,16.24-8.792c0.408,2.921,1.649,5.596,2.836,8.258
		c-2.639,5.625-7.742,10.231-13.805,11.82c-2.608,0.714-5.343,0.594-8.012,0.444C169.463,307.487,170.404,302.744,173.595,299.812
		L173.595,299.812z"/>
	<path fill="#C87904" d="M422.958,291.001c5.781,1.853,11.376,4.564,15.964,8.582c3.286,2.962,4.468,7.766,3.034,11.939
		c-4.623,0.521-9.463-0.174-13.433-2.704c-3.688-2.177-6.489-5.5-8.96-8.936C421.177,297.125,422.274,294.114,422.958,291.001
		L422.958,291.001z"/>
	<path fill="#C87904" d="M404.625,296.129c3.347,1.925,6.813,3.791,10.687,4.372c2.027,0.084,3.317,1.751,4.648,3.058
		c3.657,3.79,7.298,7.736,9.643,12.503c0.81,1.572,1.104,3.334,1.266,5.085c-8.953,0.917-18.075-3.37-23.67-10.296
		C403.858,306.786,402.874,301.095,404.625,296.129L404.625,296.129z"/>
	<path fill="#C87904" d="M195.711,300.825c4.239-0.51,8.251-2.141,11.837-4.432c2.165,2.681,2.411,6.459,0.954,9.541
		c-2.765,6.075-8.306,10.495-14.267,13.242c-3.88,1.823-8.228,2.429-12.474,1.955c0.3-2.357,1.001-4.672,2.273-6.692
		C187.124,309.286,191.339,304.909,195.711,300.825L195.711,300.825z"/>
	<path fill="#C87904" d="M374.269,314.702c2.369-6.525,5.806-12.696,10.291-18.003c0.905,1.122,2.302,2.027,2.537,3.556
		c1.69,10.626,1.014,22.147-4.474,31.646c-2.255,3.754-4.923,7.568-8.93,9.613c-2.65,1.427-5.686,1.883-8.66,1.859
		C370.191,334.563,370.767,324.128,374.269,314.702L374.269,314.702z"/>
	<path fill="#C87904" d="M227.711,297.214c3.664,2.663,6.015,6.663,7.904,10.693c5.547,11.304,6.296,24.287,12.161,35.465
		c-5.199,0.588-10.278-1.876-13.583-5.811c-5.66-6.632-8.569-15.34-9.061-23.976c-0.276-4.401,0.054-8.815,0.48-13.193
		C225.689,299.031,226.943,298.21,227.711,297.214L227.711,297.214z"/>
	<path fill="#C87904" d="M134.435,319.967c7.922-7.855,16.474-15.112,25.571-21.571c3.34,0.965,6.795,1.229,10.261,1.014
		c-0.917,1.523-1.739,3.106-2.423,4.755c-7.196,4.006-14.351,8.186-20.683,13.493c-5.577,4.66-10.71,10.099-13.925,16.684
		c8.492-3.707,15.736-9.649,22.633-15.725c4.065-3.586,7.657-7.676,11.682-11.31c0.299,1.77,0.6,3.538,0.959,5.301
		c-9.266,8.899-16.731,19.406-24.228,29.775c-6.716,9.889-18.123,16.131-29.954,17.181c0.984-8.21,3.172-16.396,7.34-23.592
		C125.025,329.982,129.715,324.902,134.435,319.967L134.435,319.967z"/>
	<path fill="#C87904" d="M442.514,299.421c3.425,0.054,6.95,0.228,10.171-1.158c9.889,7.221,19.322,15.125,27.76,24.018
		c5.182,5.385,9.901,11.358,12.96,18.225c2.74,6.027,4.239,12.534,5.108,19.07c-9.546-0.881-18.842-5.001-25.605-11.838
		c-2.604-2.638-4.644-5.751-6.819-8.731c-6.711-9.223-13.512-18.471-21.763-26.393c0.336-1.829,0.666-3.652,0.966-5.481
		c7.25,7.544,14.794,14.902,23.381,20.947c3.401,2.375,6.934,4.653,10.843,6.129c-3.952-7.916-10.513-14.165-17.517-19.394
		c-5.361-4.006-11.166-7.358-16.995-10.615C444.295,302.546,443.473,300.938,442.514,299.421L442.514,299.421z"/>
	<path fill="#C87904" d="M207.957,314.792c-0.06-5.295,2.111-10.351,5.289-14.495c1.025,0.983,1.949,2.117,3.19,2.842
		c1.667,0.564,3.334-0.408,4.918-0.833c2.207,5.973,3.106,12.473,2.189,18.8c-0.912,5.241-3.886,9.889-7.592,13.613
		C211.225,329.196,207.765,322.198,207.957,314.792L207.957,314.792z"/>
	<path fill="#C87904" d="M396.063,303.271c1.427-0.594,2.339-1.943,3.448-2.963c5.307,6.699,6.194,16.054,3.783,24.072
		c-1.337,3.933-3.97,7.238-6.602,10.38c-3.035-3.592-5.817-7.598-6.903-12.246c-1.271-6.693-0.713-13.769,1.529-20.204
		C392.865,302.708,394.419,303.457,396.063,303.271L396.063,303.271z"/>
	<path fill="#C87904" d="M262.607,320.8c-0.246-5.937,2.902-11.227,5.229-16.479c2.53,4.947,7.232,8.905,7.976,14.65
		c0.594,6.123-3.472,11.154-6.009,16.341C266.661,330.941,262.948,326.413,262.607,320.8L262.607,320.8z"/>
	<path fill="#C87904" d="M336.902,320.195c0.275-6.213,4.953-10.849,8.102-15.82c2.201,4.846,4.815,9.74,5.134,15.155
		c0.09,6.092-3.7,11.268-7.28,15.85C341.292,330.138,336.608,325.958,336.902,320.195L336.902,320.195z"/>
	<path fill="#C87904" d="M278.511,321.37c0.264-6.464,5.648-10.788,8.545-16.113c2.417,5.253,7.586,9.367,7.844,15.484
		c0.06,6.291-4.39,11.22-7.245,16.456C283.278,332.932,278.625,327.84,278.511,321.37L278.511,321.37z"/>
	<path fill="#C87904" d="M317.928,321.37c0.054-6.272,4.846-10.902,7.653-16.113c2.824,4.941,7.766,8.941,8.515,14.866
		c0.66,6.902-4.312,12.713-9.134,17.007C322.33,332.039,318.372,327.283,317.928,321.37L317.928,321.37z"/>
	<path fill="#C87904" d="M299.595,319.667c2.034-3.862,4.846-7.274,6.687-11.25c2.069,5.403,7.353,9.307,7.826,15.328
		c0.113,6.159-4.937,10.458-7.509,15.604c-2.086-3.976-5.409-7.179-7.166-11.334C298.271,325.388,298.258,322.233,299.595,319.667
		L299.595,319.667z"/>
	<path fill="#C87904" d="M173.223,314.516c2.807-0.018,5.583-0.492,8.288-1.217c-0.738,1.511-1.403,3.137-2.687,4.282
		c-5.667,5.373-10.986,11.16-15.436,17.589c-3.371,5.073-6.639,10.668-6.819,16.924c4.833-2.945,8.63-7.227,12.114-11.616
		c4.186-5.308,7.819-11.029,11.178-16.894c2.681,0.042,5.361,0.216,8.042,0.373c-4.216,4.197-6.867,9.595-9.589,14.806
		c-3.43,6.633-7.082,13.301-12.366,18.668c-5.745,6.057-13.217,10.363-21.205,12.696c-0.965-11.514,3.113-22.836,9.242-32.425
		C159.364,329.184,166.081,321.592,173.223,314.516L173.223,314.516z"/>
	<path fill="#C87904" d="M431.198,313.286c2.752,0.671,5.595,0.768,8.401,1.152c8.233,8.311,16.095,17.21,21.601,27.609
		c4.593,8.6,7.293,18.339,6.759,28.138c-10.795-3.262-20.485-10.141-26.681-19.616c-6.063-8.498-9.025-19.011-16.383-26.597
		c2.681-0.18,5.367-0.348,8.054-0.384c4.431,7.706,9.271,15.262,15.316,21.823c2.326,2.5,4.869,4.815,7.771,6.638
		c0.03-6.669-3.725-12.551-7.328-17.883c-4.276-6.009-9.325-11.436-14.662-16.504C432.751,316.453,432.037,314.804,431.198,313.286
		L431.198,313.286z"/>
	<path fill="#C87904" d="M200.263,320.71c0.192-2.801,3.19-3.898,5.02-5.529c0.102,8.653-0.51,17.301-1.697,25.865
		c-1.001,6.536-2.183,13.15-4.845,19.244c-3.298,7.028-9.625,12.15-16.348,15.742c-3.988-7.071-4.192-15.616-2.369-23.37
		c2.465-10.825,7.778-20.713,13.421-30.183c1.211-0.486,2.423-0.978,3.641-1.469c-2.585,9.283-6.453,18.296-7.377,27.969
		c-0.275,2.771-0.066,5.565,0.498,8.288c3.922-5.463,5.859-12.036,7.28-18.53C198.812,332.794,199.471,326.737,200.263,320.71
		L200.263,320.71z"/>
	<path fill="#C87904" d="M407.408,315.193c1.631,1.116,3.208,2.309,4.737,3.563c0.485,8.408,2.141,16.72,4.438,24.815
		c1.487,4.713,2.873,9.673,6.052,13.583c1.679-8.833-1.254-17.625-3.815-25.991c-1.072-3.388-2.164-6.777-3.153-10.195
		c1.157,0.492,2.333,0.983,3.508,1.463c5.439,8.768,10.346,18.021,13.067,28.029c2.249,8.366,2.536,17.792-1.798,25.559
		c-7.924-4.096-15.204-10.597-17.794-19.394C408.512,343.253,407.66,329.112,407.408,315.193L407.408,315.193z"/>
	<path fill="#C87904" d="M207.459,357.921c-0.917-9.847-0.156-19.748,0.744-29.565c1.319,2.573,2.854,5.037,4.743,7.232
		c-0.804,4.959-1.007,10.009-0.762,15.028c0.234,2.933,0.695,6.057,2.669,8.377c3.19-7.076,3.634-15.004,3.196-22.644
		c1.757-1.919,3.424-3.916,4.959-6.015c-0.821,12.107-1.732,24.288-4.582,36.12c-0.947,3.682-2.063,7.424-4.293,10.56
		C209.246,371.96,208.119,364.626,207.459,357.921L207.459,357.921z"/>
	<path fill="#C87904" d="M399.834,335.283c1.523-2.147,2.879-4.438,4.684-6.375c0.983,11.658,1.912,23.508-0.042,35.118
		c-0.858,4.708-2.387,9.536-5.847,13.001c-2.956-4.39-4.133-9.643-5.229-14.734c-2.063-10.537-2.969-21.259-3.574-31.958
		c1.511,2.105,3.147,4.126,4.924,6.021c-0.504,7.7-0.114,15.724,3.22,22.818c0.888-1.451,1.697-2.986,2.033-4.672
		C401.381,348.164,400.499,341.652,399.834,335.283L399.834,335.283z"/>
	<path fill="#C87904" d="M225.936,329.688c1.391,2.669,3.286,5.085,4.426,7.88c1.518,7.245,2.111,15.064,6.327,21.391
		c0.852-5.307,0.372-10.722-0.731-15.952c1.709,0.888,3.448,1.715,5.259,2.381c1.883,9.169,2.603,19.454-2.111,27.922
		c-4.037-4.864-7.047-10.549-8.792-16.624C227.819,347.895,226.913,338.743,225.936,329.688L225.936,329.688z"/>
	<path fill="#C87904" d="M382.328,337.892c1.093-2.945,3.054-5.475,4.51-8.246c-1.349,10.962-2.021,22.273-6.355,32.569
		c-1.776,3.994-3.989,7.856-7.022,11.035c-4.407-8.552-3.772-18.632-2.046-27.808c1.901-0.653,3.719-1.523,5.434-2.579
		c-1.073,5.265-1.901,10.753-0.708,16.078C380.074,352.62,380.985,345.058,382.328,337.892L382.328,337.892z"/>
	<path fill="#C87904" d="M269.941,343.546c0.288-5.355,3.862-9.739,7.568-13.289c2.099,3.359,4.282,6.878,4.726,10.902
		c0.24,2.837-0.983,5.53-2.351,7.934c-1.738,2.98-3.544,5.919-5.349,8.863C272.399,353.399,269.659,348.764,269.941,343.546
		L269.941,343.546z"/>
	<path fill="#C87904" d="M331.176,345.705c-2.165-5.48,1.439-10.914,4.174-15.459c3.651,3.598,7.215,7.946,7.538,13.295
		c0.15,5.205-2.483,9.919-4.786,14.41C335.864,353.831,333.023,350.035,331.176,345.705L331.176,345.705z"/>
	<path fill="#C87904" d="M289.251,339.834c1.889-2.783,3.796-5.559,5.649-8.366c4.3,3.97,7.31,9.697,6.776,15.67
		c-0.611,7.431-5.187,13.715-9.913,19.178c-0.936-5.529-5.259-9.751-6.057-15.304C285.227,346.982,286.984,343.067,289.251,339.834
		L289.251,339.834z"/>
	<path fill="#C87904" d="M311.08,345.97c-0.246-5.607,2.794-10.819,6.824-14.507c3.497,4.882,7.867,9.601,9.013,15.688
		c0.966,7.059-3.964,12.762-5.978,19.113C316.033,360.548,311.176,353.813,311.08,345.97L311.08,345.97z"/>
	<path fill="#C87904" d="M298.78,365.261c1.301-5.535,4.09-10.614,7.43-15.172c5.529,5.985,8.852,14.345,7.658,22.53
		c-0.408,3.419-1.871,6.555-3.053,9.746c-1.487,3.928-2.956,7.862-4.51,11.766c-0.953-4.186-3.214-7.898-4.647-11.91
		C299.673,376.835,297.838,371.054,298.78,365.261L298.78,365.261z"/>
	<path fill="#C87904" d="M281.305,353.196c1.876,4.449,4.527,8.833,4.551,13.805c-0.144,4.341-3.4,7.622-6.68,10.039
		c-3.161-2.716-6.507-6.213-6.429-10.674c-0.126-2.357,1.589-4.168,2.986-5.853C277.755,358.203,279.644,355.78,281.305,353.196
		L281.305,353.196z"/>
	<path fill="#C87904" d="M326.798,366.964c-0.036-4.989,2.831-9.289,4.575-13.793c2.525,4.21,6.969,7.179,8.485,11.976
		c1.093,4.917-2.765,9.019-6.272,11.862C330.21,374.689,326.863,371.33,326.798,366.964L326.798,366.964z"/>
	<path fill="#C87904" d="M340.398,374.119c1.547-2.687,2.734-5.625,2.687-8.779c7.479,5.073,15.567,9.913,20.797,17.499
		C355.661,381.171,347.679,378.299,340.398,374.119L340.398,374.119z"/>
	<path fill="#C87904" d="M248.796,382.851c5.427-7.472,13.361-12.492,20.941-17.517c-0.09,3.148,0.996,6.141,2.579,8.821
		C265.024,378.334,257.035,381.219,248.796,382.851L248.796,382.851z"/>
	<path fill="#C87904" d="M278.049,381.98c6.806-3.777,12.851-9.127,16.953-15.783c-0.474,6.554-1.739,13.319-5.463,18.872
		c-2.189,3.316-4.87,6.405-8.21,8.6c-2.386,1.535-5.355,2.344-8.149,1.602c-2.303-0.69-3.97-2.538-5.859-3.917
		c0.66-1.883,1.391-3.814,2.836-5.248C272.22,383.804,275.494,383.504,278.049,381.98L278.049,381.98z"/>
	<path fill="#C87904" d="M317.904,366.521c4.06,6.441,9.937,11.61,16.533,15.346c2.074,1.224,4.486,1.739,6.572,2.944
		c2.357,1.421,3.521,4.048,4.414,6.531c-2.573,2.273-5.541,4.882-9.271,4.132c-6.423-1.188-10.844-6.818-13.901-12.198
		C319.205,378.203,318.984,372.188,317.904,366.521L317.904,366.521z"/>
	<path fill="#C87904" d="M254.343,391.144c5.379-6.417,11.928-12.156,19.916-15.004c1.139,1.013,2.291,2.021,3.448,3.029
		c-2.951,1.523-6.207,2.482-8.936,4.414c-2.465,1.781-3.328,4.846-4.312,7.568C261.137,392.038,257.677,391.852,254.343,391.144
		L254.343,391.144z"/>
	<path fill="#C87904" d="M338.107,376.698c2.201-0.126,4.162,1.169,6.105,2.039c5.78,2.789,10.068,7.706,14.272,12.402
		c-3.37,0.569-7.017,1.206-10.272-0.186c-0.996-2.322-1.577-4.966-3.544-6.723c-2.735-2.494-6.472-3.34-9.662-5.073
		C336.026,378.317,336.974,377.381,338.107,376.698L338.107,376.698z"/>
	<path fill="#C87904" d="M292.675,388.559c0-4.018,1.931-7.67,4-10.992c2.518,8.377,5.535,16.624,9.494,24.437
		c4.293-7.651,7.352-15.927,9.78-24.335c2.446,3.299,4.161,7.304,3.916,11.484c-0.036,6.537-4.456,11.831-5.997,17.979
		c-0.941,3.453-1.649,7.399,0.191,10.691c1.697,3.359,5.037,5.428,8.373,6.902c-3.174,0.881-6.61,0.648-9.536-0.898
		c-2.819-1.362-4.875-3.821-6.561-6.382c-2.818,5.793-9.805,9.134-16.048,7.293c4.271-1.812,8.587-5.002,9.428-9.859
		c0.569-4.983-1.206-9.859-3.251-14.309C294.708,396.763,292.555,392.883,292.675,388.559L292.675,388.559z"/>
	<path fill="#C87904" d="M355.241,383.534c5.354,1.662,10.907,2.525,16.348,3.844c5.99,1.469,11.784,4.498,15.688,9.373
		c-3.322,0.911-6.656,1.8-9.913,2.933c-3.058-1.853-6.128-3.712-9.433-5.085c-1.907-0.816-3.965-1.463-5.481-2.95
		C359.811,389.159,357.844,386.059,355.241,383.534L355.241,383.534z"/>
	<path fill="#C87904" d="M238.955,388.001c6.045-1.697,12.294-2.531,18.333-4.275c-3.551,3.364-5.817,8.377-10.675,10.117
		c-3.916,1.523-7.581,3.598-11.118,5.841c-3.334-1.115-6.734-1.997-10.087-3.04C229.072,392.637,233.702,389.495,238.955,388.001
		L238.955,388.001z"/>
	<path fill="#C87904" d="M238.043,400.494c3.802-2.724,8.054-4.822,12.444-6.412c2.219-0.923,4.552,0.115,6.812,0.318
		c-5.025,1.606-6.218,7.43-10.296,10.201C244.052,403.155,241.024,401.878,238.043,400.494L238.043,400.494z"/>
	<path fill="#C87904" d="M259.098,396.056c1.679-1.775,4.156-2.045,6.417-2.501c1.733,1.074,3.388,2.255,5.007,3.496
		c-5.217-0.474-10.615,2.152-13.229,6.717c-1.301,2.184-1.403,5.397,0.684,7.13c2.554,1.613,5.757,0.673,8.521,0.223
		c-1.793,3.07-4.456,6.194-8.282,6.393c-4.096,0.348-7.61-3.358-7.61-7.353C250.121,404.151,254.991,399.684,259.098,396.056
		L259.098,396.056z"/>
	<path fill="#C87904" d="M285.539,397.867c1.362-1.656,3.101-2.927,4.936-4c0.714,3.862,2.921,7.178,4.18,10.824
		c-0.258,2.682-1.385,5.183-2.285,7.695c-3.424,8.568-8.75,16.911-16.935,21.6c-3.424,1.997-7.304,3.125-11.239,3.527
		c0.66-5.254,4.858-8.888,8.78-11.946c5.199-4.102,11.076-7.958,14.099-14.075c1.421-2.71,1.745-5.798,1.595-8.803
		c-3.472,1.667-5.559,5.025-7.814,7.981c-3.304,4.402-6.854,8.918-11.838,11.489c-2.435,1.314-5.199,1.842-7.934,2.004
		c0.779-2.147,1.829-4.233,3.418-5.896c4.474-4.833,10.597-7.712,15.178-12.419C282.013,403.474,283.32,400.331,285.539,397.867
		L285.539,397.867z"/>
	<path fill="#C87904" d="M322.312,393.849c4.763,2.213,6.765,7.334,10.183,10.98c3.593,4.066,8,7.299,12.527,10.255
		c3.239,2.122,5.409,5.493,6.729,9.079c-5.085-0.078-9.871-2.417-13.47-5.926c-4.071-3.819-6.92-8.676-10.56-12.862
		c-0.996-1.205-2.382-1.967-3.755-2.645c-0.18,4.911,1.541,9.841,4.894,13.456c4.918,5.782,11.993,9.188,16.906,14.963
		c1.589,1.781,2.398,4.071,2.878,6.375c-7.7-0.636-14.782-4.756-19.712-10.609c-5.409-6.332-8.93-14.109-11.022-22.128
		C319.883,401.362,321.364,397.681,322.312,393.849L322.312,393.849z"/>
	<path fill="#C87904" d="M342.281,397.075c1.649-1.229,3.19-2.716,5.17-3.401c4.149,0.187,7.244,3.208,10.003,5.961
		c2.705,2.801,5.188,6.417,4.761,10.507c-0.107,4.107-3.886,7.981-8.131,7.316c-3.605-0.438-6.136-3.371-7.79-6.357
		c2.733,0.605,5.991,1.445,8.438-0.426c2.351-2.021,1.799-5.679,0.222-7.999C352.194,398.599,347.025,396.92,342.281,397.075
		L342.281,397.075z"/>
	<path fill="#C87904" d="M355.438,394.371c1.992-0.132,4.024-0.852,6.01-0.294c4.779,1.374,9.302,3.58,13.427,6.357
		c-3.322,0.941-6.34,2.639-9.396,4.191C361.748,401.555,360.314,396.068,355.438,394.371L355.438,394.371z"/>
	<path fill="#C87904" d="M221.222,404.864c-0.264-2.32,1.326-4.101,2.639-5.798c7.064,2.038,14.428,3.508,20.875,7.195
		c2.147,1.313,4.756,3.335,4.258,6.189c-0.216,0.726-0.246,2.105-1.349,1.764c-1.211-1.597-2.123-3.515-3.862-4.618
		c-2.369-1.59-6.093-1.272-7.82,1.121c-2.801,3.587-5.415,7.311-8.24,10.878c0.947,0.714,1.883,1.451,2.807,2.207
		c1.703-0.299,3.706-0.81,5.199,0.391c3.059,2.284,4.558,6.74,3.047,10.314c-0.636,1.571-2.147,2.452-3.683,2.968
		c-2.321,0.666-3.454,3.16-5.727,3.91c-1.188,0.462-2.369-0.239-3.508-0.516c1.283-0.882,2.747-1.781,2.933-3.484
		c-1.686-0.995-3.389-2.338-2.885-4.552c-1.829,0.661-4.018,1.571-5.841,0.396c-1.475-1.038-2.195-2.771-3.148-4.24
		c-6.411,1.11-10.063,7.958-9.469,14.039c0.504,2.003,1.325,4.018,0.995,6.129c-0.222,1.745-0.815,3.784-2.548,4.593
		c-1.697,0.87-3.634,0.234-5.403-0.005c-1.002,2.194-1.002,4.605-0.444,6.92c-1.056-0.953-2.255-1.865-2.794-3.226
		c-0.624-1.428-0.468-3.017-0.516-4.528c-4.21-2.159-4.444-9.277-0.3-11.628c1.332-0.834,2.933-0.911,4.438-1.122
		c0.006-1.69-0.246-3.562,0.81-5.019c1.032-1.764,3.028-2.495,4.828-3.203c-3.604-0.023-7.412-0.089-10.699,1.62
		c-3.311,1.613-2.351,6.369-5.445,8.257c-2.225,1.776-4.995,0.36-7.46,0.349c-1.955,1.187-2.675,3.483-3.328,5.541
		c-0.899-2.027-2.015-4.15-1.757-6.429c0.114-1.457,1.193-2.495,2.082-3.538c-0.63-2.285-1.494-5.188,0.281-7.173
		c2.189-2.362,5.775-1.799,8.558-1.05c0.228-1.517,0.318-3.369,1.757-4.287c2.548-1.71,5.792-1.109,8.683-1.151
		c-2.914-1.373-5.823-3.142-9.163-3.088c-1.781,2.691-5.301,4.611-8.51,3.437c-1.727-0.571-2.278-2.453-3.016-3.91
		c-2.591-0.138-4.18,1.96-5.631,3.747c0.006-2.063-0.228-4.33,0.918-6.158c0.659-1.254,2.183-1.428,3.376-1.877
		c0.894-2.31,2.524-4.432,4.929-5.271c3.424-1.331,7.172,0.167,9.949,2.249c1.037,0.642,1.907,1.732,3.178,1.907
		c1.745-0.175,3.113-1.476,4.809-1.842c1.338,0.132,2.441,1.001,3.611,1.607c1.313-1.547,2.662-3.364,4.767-3.826
		c4.162-0.834,7.244,3.977,11.389,2.813c3.934-1.59,6.23-5.439,9.007-8.438C226.259,405.543,223.705,405.429,221.222,404.864
		L221.222,404.864z"/>
	<path fill="#C87904" d="M369.682,405.333c6.087-3.034,12.779-4.45,19.285-6.255c1.242,1.576,2.304,3.311,2.873,5.259
		c-1.842,1.043-3.976,1.169-6.038,1.23c2.949,2.854,4.923,7.081,9.084,8.39c3.978,0.804,6.891-3.521,10.874-2.939
		c2.212,0.324,3.657,2.213,4.977,3.832c1.116-0.576,2.177-1.319,3.437-1.547c1.906,0.108,3.357,1.859,5.313,1.816
		c2.927-1.654,5.464-4.323,9.02-4.605c3.91-0.617,7.539,2.147,8.786,5.745c1.133,0.42,2.56,0.564,3.251,1.704
		c1.288,1.87,0.881,4.257,0.893,6.397c-1.289-1.967-2.986-4.096-5.644-3.76c-0.636,1.386-1.097,3.125-2.662,3.742
		c-2.86,1.248-6.135-0.252-8.042-2.495c-0.834-1.235-2.447-0.82-3.646-0.497c-2.188,0.684-4.204,1.793-6.278,2.734
		c2.849,0.029,5.996-0.533,8.563,1.037c1.565,0.912,1.697,2.837,2.058,4.426c2.764-0.851,6.481-1.324,8.545,1.193
		c1.697,2.004,0.762,4.726,0.233,6.98c3.029,2.52,2.189,6.843,0.216,9.757c-0.713-1.984-1.396-4.275-3.364-5.379
		c-2.465,0.217-5.283,1.457-7.454-0.365c-2.53-1.68-2.32-5.122-4.113-7.287c-3.34-2.656-7.893-2.519-11.934-2.488
		c1.625,0.624,3.363,1.283,4.449,2.734c1.326,1.487,1.235,3.599,1.301,5.469c1.68,0.253,3.502,0.415,4.899,1.5
		c3.574,2.735,3.082,9.235-0.94,11.322c-0.061,1.379,0.054,2.807-0.342,4.156c-0.552,1.517-1.812,2.591-2.921,3.706
		c0.534-2.394,0.66-4.899-0.54-7.119c-2.116,0.426-4.856,1.08-6.446-0.863c-2.22-2.808-1.505-6.692-0.396-9.805
		c0.612-6.069-3.129-13.085-9.619-14.027c-0.989,1.619-1.667,3.772-3.609,4.492c-1.703,0.702-3.496-0.09-5.109-0.642
		c0.317,2.194-1.361,3.587-3.07,4.534c0.288,1.69,1.655,2.644,3.028,3.46c-1.247,0.27-2.555,1.05-3.809,0.425
		c-1.643-0.61-2.656-2.129-4.006-3.153c-1.702-0.864-3.838-1.284-4.846-3.095c-2.056-3.521-0.474-8.281,2.543-10.74
		c1.554-1.332,3.683-0.81,5.511-0.522c0.847-0.749,1.716-1.476,2.598-2.183c-2.92-3.982-5.931-7.904-9.067-11.724
		c-2.346-0.402-4.779-1.77-7.154-0.75c-2.675,0.929-3.987,3.629-5.128,6.015c-1.259-1.427-1.93-3.466-1.044-5.265
		C365.43,407.785,367.564,406.418,369.682,405.333L369.682,405.333z"/>
	<path fill="#115DC5" d="M224.874,474.897c21.265-20.108,50.818-30.825,80.005-29.722c-0.168,6.693,0.444,13.386,0.036,20.072
		c-0.156,4.222,0.239,8.449-0.09,12.671c-5.415,1.932-10.291,5.032-15.112,8.096c-7.376,4.828-14.59,9.942-21.349,15.616
		c-13.577-0.42-27.28-1.086-40.737,1.211C225.93,493.631,224.772,484.27,224.874,474.897L224.874,474.897z"/>
	<path fill="#115DC5" d="M309.257,445.183c29.187-1.104,58.733,9.618,79.998,29.727c0.019,9.372-0.929,18.788-2.884,27.963
		c-13.403-2.386-27.082-1.637-40.611-1.241c-7.646-6.375-15.808-12.132-24.233-17.444c-3.916-2.393-7.897-4.744-12.246-6.279
		C309.221,466.999,309.274,456.091,309.257,445.183L309.257,445.183z"/>
	<path fill="#FFFFFF" d="M226.727,475.838c20.438-18.997,48.419-29.349,76.263-28.772c0.012,9.799,0.024,19.604,0,29.409
		c-8.773,3.724-16.605,9.276-24.359,14.74c-3.796,2.729-7.496,5.577-11.136,8.497c-12.75-0.623-25.613-0.911-38.284,0.863
		C227.723,492.414,226.865,484.133,226.727,475.838L226.727,475.838z"/>
	<path fill="#FFFFFF" d="M311.151,447.065c27.831-0.546,55.844,9.757,76.239,28.803c-0.156,8.282-1.008,16.558-2.489,24.707
		c-12.665-1.763-25.529-1.51-38.272-0.856c-7.466-6.003-15.231-11.652-23.34-16.756c-3.898-2.416-7.874-4.756-12.138-6.477
		C311.134,466.675,311.14,456.87,311.151,447.065L311.151,447.065z"/>
	<path fill="#115DC5" d="M218.283,481.745c1.26-1.379,2.531-2.746,3.778-4.138c-0.222,8.989,1.205,17.919,3.023,26.686
		c-3.761,3.42-7.334,7.096-10.111,11.383c-6.506,9.618-10.896,20.468-14.674,31.395c-3.994-0.45-8.024-0.462-12.018-0.937
		C191.531,522.308,202.05,499.508,218.283,481.745L218.283,481.745z"/>
	<path fill="#115DC5" d="M392.068,477.56c13.025,13.367,23.195,29.577,28.91,47.375c2.243,6.909,3.82,14.021,4.84,21.212
		c-3.987,0.449-8.006,0.474-11.987,0.924c-3.574-10.243-7.623-20.427-13.5-29.596c-3.118-4.905-6.836-9.48-11.394-13.114
		C390.94,495.58,392.271,486.578,392.068,477.56L392.068,477.56z"/>
	<path fill="#115DC5" d="M305.37,481.337c2.123-1.331,4.259,0.516,6.177,1.356c10.837,6.081,20.72,13.697,30.495,21.33
		c-3.306,14.004-9.655,27.034-15.741,39.988c-12.829-0.03-25.656-0.042-38.489,0.005c-4.617-9.553-9.001-19.25-12.605-29.234
		c-1.169-3.502-2.405-7.011-3.035-10.65c4.366-3.952,9.308-7.251,14.021-10.788C292.357,489.007,298.522,484.546,305.37,481.337
		L305.37,481.337z"/>
	<path fill="#FFFFFF" d="M190.583,544.509c3.274-22.998,13.919-44.724,29.487-61.899c0.474,7.046,1.355,14.086,2.926,20.978
		c-6.519,5.601-11.34,12.874-15.256,20.461c-3.484,6.71-6.273,13.75-8.756,20.875C196.185,544.785,193.385,544.617,190.583,544.509
		L190.583,544.509z"/>
	<path fill="#FFFFFF" d="M303.23,484.576c1.739-0.882,3.79-2.447,5.696-1.031c10.718,5.643,20.319,13.139,29.938,20.443
		c1.343,0.713,0.569,2.273,0.354,3.405c-3.437,11.97-8.887,23.209-13.979,34.536c-12.119,0.072-24.239,0.072-36.359,0
		c-4.833-10.698-9.925-21.33-13.403-32.568c-0.438-1.476-0.917-2.944-1.043-4.479c0.576-0.792,1.391-1.362,2.159-1.956
		C285.209,496.449,293.826,489.889,303.23,484.576L303.23,484.576z"/>
	<path fill="#FFFFFF" d="M394.059,482.556c15.598,17.175,26.225,38.937,29.481,61.953c-2.807,0.108-5.602,0.276-8.401,0.42
		c-3.27-9.355-7.07-18.585-12.234-27.07c-3.214-5.308-7.106-10.23-11.796-14.309C392.77,496.665,393.525,489.607,394.059,482.556
		L394.059,482.556z"/>
	<path fill="#115DC5" d="M170.41,485.721c0.768,0.342,1.529,0.684,2.297,1.038c0.083,1.092-0.666,2.771,0.792,3.221
		c3.598,1.864,7.406,3.316,11.076,5.049c0.504-0.642,1.008-1.296,1.505-1.937c0.786,0.426,1.565,0.869,2.351,1.313
		c-1.805,3.795-3.1,7.886-5.625,11.292c-1.181,1.57-2.873,3.059-4.947,3.052c-2.759,0.042-5.817-2.026-5.841-4.983
		c-0.245-2.824,1.271-5.308,2.135-7.886c-1.02-1.008-2.417-1.493-3.658-2.147c-0.666,0.595-1.295,1.219-1.871,1.901
		c-0.797-0.336-1.589-0.678-2.387-1.001C167.502,491.604,168.965,488.666,170.41,485.721L170.41,485.721z"/>
	<path fill="#115DC5" d="M435.317,487.059c2.903-2.075,7.047-0.737,9.187,1.835c2.069,2.398,2.688,5.763,2.269,8.84
		c-0.229,1.618-1.446,3.448-3.274,3.334c-1.435,0.192-2.088-1.217-2.861-2.117c0.96-1.931,3.34-3.556,2.681-5.961
		c-0.804-2.271-4.791-3.406-5.991-0.894c-0.533,1.806,0.372,3.61,0.756,5.361c-0.768,0.336-1.523,0.685-2.272,1.038
		c-0.81-1.242-1.446-2.759-2.813-3.473c-2.111-0.803-3.575,2.158-2.525,3.808c1.17,2.604,4.318,2.999,6.819,3.347
		c0.156,0.899,0.316,1.812,0.479,2.728c-2.549,0.42-5.079,0.924-7.641,1.272c-0.155-0.876-0.3-1.757-0.42-2.627
		c-1.745-1.721-3.399-3.813-3.478-6.374c-0.271-2.339,0.449-5.253,2.849-6.214c1.661-0.678,3.298,0.288,4.689,1.128
		C433.717,490.327,433.627,488.145,435.317,487.059L435.317,487.059z"/>
	<path fill="#FFFFFF" d="M177.114,497.146c1.733,0.785,3.455,1.601,5.182,2.404c-0.726,1.308-1.224,2.867-2.471,3.791
		c-1.116,0.293-2.632,0.448-3.43-0.57C175.604,500.912,176.515,498.915,177.114,497.146L177.114,497.146z"/>
	<path fill="#115DC5" d="M436.906,507.286c2.998-2.956,7.897-4.078,11.772-2.267c6.009,2.717,8.371,11.376,4.348,16.671
		c-1.157,1.608-2.938,2.549-4.659,3.425c0.119,0.617,0.365,1.853,0.485,2.471c1.697-0.27,3.394-0.588,5.079-0.954
		c0.204-0.953,0.372-1.907,0.511-2.859c0.803-0.216,1.606-0.434,2.422-0.636c0.834,3.16,1.602,6.344,2.411,9.516
		c-0.888,0.234-1.775,0.475-2.65,0.727c-0.349-0.708-0.689-1.409-1.031-2.105c-4.559,0.462-8.905,2.087-13.272,3.401
		c0.061,0.539,0.181,1.618,0.241,2.158c-0.912,0.222-1.818,0.462-2.712,0.701c-0.773-3.166-1.606-6.314-2.351-9.486
		c0.871-0.258,1.746-0.511,2.627-0.757c0.307,0.68,0.617,1.368,0.936,2.058c1.637-0.018,3.239-0.407,4.791-0.93
		c-0.251-0.894-0.497-1.775-0.75-2.65c-2.344-0.041-4.803-0.438-6.661-1.979C433.53,519.993,432.559,511.862,436.906,507.286
		L436.906,507.286z"/>
	<path fill="#115DC5" d="M231.801,507.334c11.676-1.583,23.514-0.911,35.232-0.21c3.79,12.905,9.547,25.104,15.118,37.307
		c0.192,0.589,0.72,1.325,0.192,1.92c-9.037,12.629-16.233,26.458-23.208,40.305c-12.144,0.024-24.281,0.15-36.425,0.287
		c-7.04-9.588-13.541-19.777-17.475-31.076c-0.798-2.71-1.889-5.486-1.799-8.336c2.291-7.081,5.697-13.774,9.481-20.167
		c3.562-5.847,7.55-11.507,12.534-16.232C227.237,509.415,229.156,507.467,231.801,507.334L231.801,507.334z"/>
	<path fill="#115DC5" d="M346.947,507.166c9.654-0.707,19.352-1.055,29.025-0.521c2.907,0.337,5.925,0.323,8.726,1.296
		c3.021,1.841,5.384,4.569,7.766,7.153c7.363,8.756,13.02,18.879,17.234,29.493c0.516,1.511,1.392,3.064,0.936,4.713
		c-1.93,9.625-6.608,18.43-11.724,26.711c-2.381,3.658-4.719,7.37-7.447,10.776c-12.138,0.234-24.312-0.222-36.463-0.126
		c-7.021-13.817-14.146-27.682-23.226-40.287c-0.3-0.474-0.3-0.96,0-1.463C337.28,532.527,343.385,520.293,346.947,507.166
		L346.947,507.166z"/>
	<path fill="#115DC5" d="M164.779,508.036c5.073-1.355,10.986,1.721,12.6,6.771c1.373,5.019-0.72,11.142-5.542,13.504
		c-5.218,2.55-12.186-0.203-14.267-5.619C155.532,517.019,158.632,509.48,164.779,508.036L164.779,508.036z"/>
	<path fill="#FFFFFF" d="M442.563,510.045c2.344-0.762,5.104-0.773,7.201,0.678c1.92,1.337,2.394,4.294,0.978,6.17
		c-2.039,2.724-5.78,3.809-9.049,3.228c-2.128-0.366-4.187-2.111-4.138-4.402C437.272,512.797,440.092,510.824,442.563,510.045
		L442.563,510.045z"/>
	<path fill="#FFFFFF" d="M163.058,513.553c3.856-1.522,8.797,0.264,10.825,3.886c1.331,2.375-0.252,5.529-2.765,6.273
		c-4.479,1.157-10.057-1.386-10.98-6.189C160.803,516.023,161.349,514.171,163.058,513.553L163.058,513.553z"/>
	<path fill="#115DC5" d="M151.706,541.475c-0.102-5.14,4.21-9.805,9.295-10.262c4.66-0.437,9.535,2.621,10.854,7.18
		c0.978,3.088,0.294,6.411-1.235,9.193c0.078,0.994,0.066,1.99-0.03,2.998c-2.489,0.15-4.978,0.366-7.448,0.684
		c-0.078-0.924-0.156-1.841-0.234-2.753c2.369-1.055,5.403-2.339,5.799-5.253c0.558-3.587-3.179-6.297-6.44-6.351
		c-3.011-0.168-6.735,1.367-7.287,4.66c-0.372,2.757,1.277,5.241,2.927,7.291c-0.678,0.654-1.355,1.308-2.033,1.974
		C153.588,548.233,151.586,545.066,151.706,541.475L151.706,541.475z"/>
	<path fill="#115DC5" d="M449.033,537.373c4.215-1.015,9.121,0.852,11.213,4.737c2.237,4.042,2.261,9.685-1.049,13.169
		c-3.652,4.035-10.614,4.419-14.645,0.743c-3.209-2.926-4.275-7.813-3.07-11.915C442.49,540.671,445.561,538.08,449.033,537.373
		L449.033,537.373z"/>
	<path fill="#FFFFFF" d="M451.306,542.577c1.984-0.112,4.107,0.318,5.679,1.602c1.638,1.332,1.858,3.91,0.895,5.697
		c-2.538,3.484-7.983,4.216-11.545,1.943c-2.081-1.289-2.675-4.371-1.199-6.321C446.555,543.58,449.027,542.823,451.306,542.577
		L451.306,542.577z"/>
	<path fill="#115DC5" d="M188.898,549.378c3.388,0.054,6.771,0.091,10.153,0.096c2.765,15.532,10.831,29.452,19.556,42.356
		c0.93,1.11,0.216,2.52-0.024,3.755c-1.919,6.95-2.369,14.476-0.24,21.433c1.049,3.82,2.878,7.353,4.593,10.909
		c-4.456,0.443-8.93,0.923-13.409,0.623c-0.744,0.048-1.301-0.234-1.667-0.846C192.623,604.887,185.84,576.635,188.898,549.378
		L188.898,549.378z"/>
	<path fill="#115DC5" d="M287.793,549.438c6.111-0.462,12.252-0.265,18.38-0.313c6.711,0.055,13.439-0.167,20.144,0.306
		c8.743,12.444,15.844,25.944,22.734,39.479c-5.973,12.371-13.313,24.395-23.693,33.583c-2.194,1.589-5.127,1.308-7.682,1.721
		c-7.022,0.485-14.087,0.485-21.104,0.012c-2.855-0.455-6.273-0.084-8.479-2.302c-10.015-9.14-17.182-20.888-23.022-33.008
		C271.938,575.376,279.062,561.895,287.793,549.438L287.793,549.438z"/>
	<path fill="#115DC5" d="M415.055,549.48c3.387-0.012,6.776-0.049,10.171-0.103c1.96,17.632,0,35.718-5.991,52.432
		c-3.341,9.415-7.862,18.41-13.386,26.729c-4.899,0.251-9.793-0.036-14.65-0.618c1.751-3.657,3.609-7.298,4.684-11.221
		c2.033-6.956,1.53-14.434-0.396-21.349c-0.233-1.146-0.834-2.482,0.024-3.514C404.224,578.932,412.325,565.018,415.055,549.48
		L415.055,549.48z"/>
	<path fill="#115DC5" d="M150.14,564.269c0.096-6.53,7.065-11.646,13.337-10.309c4.156,0.894,7.287,4.864,7.569,9.044
		c0.179,1.925-0.265,3.832-0.822,5.666c0.27,0.918,0.491,1.854,0.665,2.808c-2.482,0.653-4.959,1.355-7.478,1.883
		c-0.186-0.87-0.372-1.739-0.552-2.603c2.309-1.481,5.109-3.46,4.9-6.562c-0.671-3.712-5.182-5.637-8.558-4.552
		c-2.632,0.685-5.595,2.766-5.253,5.835c0.054,2.747,2.189,4.751,4.018,6.537c-0.575,0.726-1.151,1.464-1.721,2.207
		C153.133,571.777,150.243,568.437,150.14,564.269L150.14,564.269z"/>
	<path fill="#115DC5" d="M454.844,562.47c0.551-0.75,1.108-1.499,1.673-2.236c2.927,2.339,5.828,5.427,6.046,9.372
		c0.557,7.245-7.918,13.074-14.568,10.524c-3.477-1.349-5.996-4.869-6.2-8.587c-0.348-2.896,1.374-5.697,0.156-8.527
		c2.423-0.63,4.84-1.283,7.244-1.997c0.276,0.888,0.552,1.774,0.827,2.669c-2.326,1.475-5.181,3.447-4.972,6.572
		c0.528,3.609,4.859,5.499,8.139,4.659c2.764-0.563,5.896-2.675,5.708-5.829C458.76,566.332,456.732,564.251,454.844,562.47
		L454.844,562.47z"/>
	<path fill="#115DC5" d="M168.684,575.411c0.911-0.114,1.829-0.216,2.746-0.323c0.534,3.201,1.182,6.386,1.565,9.618
		c-0.87,0.12-1.739,0.252-2.608,0.39c-0.276-0.719-0.558-1.427-0.84-2.135c-2.95-0.126-5.792,0.75-8.635,1.41
		c3.292,1.798,5.841,5.534,9.853,5.564c0.012-0.875,0.023-1.744,0.036-2.603c0.911-0.077,1.829-0.149,2.746-0.204
		c0.486,3.202,1.043,6.398,1.578,9.595c-0.864,0.102-1.733,0.204-2.597,0.306c-0.563-0.749-0.653-2.303-1.901-2.075
		c-4.162,0.235-8.18,1.62-12.317,2.178c-0.156,0.846-0.318,1.69-0.474,2.555c-0.81,0.097-1.613,0.192-2.417,0.306
		c-0.558-3.196-1.073-6.397-1.679-9.583c0.887-0.209,1.77-0.427,2.651-0.63c0.33,0.786,0.666,1.577,0.995,2.375
		c2.963-0.12,5.823-0.948,8.719-1.48c-3.172-2.129-5.931-5.494-9.949-5.842c-0.06,0.947-0.114,1.901-0.167,2.86
		c-0.912,0.079-1.824,0.162-2.729,0.253c-0.414-3.202-0.996-6.375-1.565-9.555c0.863-0.179,1.721-0.354,2.584-0.515
		c0.618,0.972,0.941,2.746,2.488,2.2c4-0.6,7.964-1.493,11.917-2.374C168.689,576.935,168.689,576.166,168.684,575.411
		L168.684,575.411z"/>
	<path fill="#115DC5" d="M439.827,590.212c0.769,0.239,1.542,0.49,2.315,0.755c0.023,1.176-0.072,2.795,1.397,3.143
		c3.802,1.361,7.759,2.268,11.608,3.52c0.354-0.695,0.715-1.385,1.068-2.074c0.882,0.265,1.77,0.546,2.656,0.839
		c-1.013,3.059-2.014,6.118-2.968,9.194c-0.869-0.174-1.734-0.336-2.591-0.504c0.024-0.882,0.06-1.764,0.09-2.633
		c-2.614-1.325-5.506-1.913-8.312-2.682c1.289,2.705,2.381,5.536,4.071,8.03c0.474,0.773,1.344,1.135,2.123,1.536
		c0.39-0.756,0.779-1.5,1.17-2.237c0.882,0.275,1.77,0.575,2.656,0.863c-1.037,3.106-2.032,6.226-3.052,9.344
		c-0.847-0.281-1.679-0.54-2.514-0.792c0.085-0.743,0.144-1.518,0.246-2.236c-4.013-2.279-8.694-2.902-13.031-4.337
		c-0.419,0.643-0.785,1.326-1.085,2.04c-0.888-0.294-1.764-0.589-2.64-0.863c1.026-3.16,2.016-6.327,3.106-9.464
		c0.731,0.324,1.494,0.617,2.208,1.02c0.102,0.791,0.216,1.59,0.347,2.387c2.345,1.529,5.266,1.733,7.881,2.638
		c-1.272-2.626-2.346-5.359-3.893-7.837c-0.443-0.846-1.344-1.235-2.117-1.679c-0.371,0.72-0.731,1.444-1.091,2.177
		c-0.857-0.252-1.709-0.505-2.531-0.821C437.607,596.347,438.91,593.33,439.827,590.212L439.827,590.212z"/>
	<path fill="#115DC5" d="M429.777,591.591c1.414-0.456,3.105-1.127,4.479-0.162c1.907,1.212,1.938,3.767,1.77,5.775
		c-0.485,3.988-2.333,8.378-6.315,9.973c-1.822-0.468-3.376-1.56-4.042-3.37c0.912-1.02,1.866-2.398,3.425-2.225
		c1.188-0.223,1.547,0.965,1.918,1.835c1.495-2.495,2.472-5.277,2.675-8.187c-0.599,0.378-1.187,0.762-1.774,1.151
		C430.143,595.381,429.478,593.546,429.777,591.591L429.777,591.591z"/>
	<path fill="#D22C12" d="M234.217,592.94c8.503-0.084,17.014-0.108,25.499-0.726c6.129,12.707,13.914,24.772,24.156,34.56
		c-3.022,5.806-7.077,11.052-11.322,16.023c-2.549,2.818-5.248,5.535-8.384,7.706c-11.034-3.346-21.871-8.317-30.393-16.233
		c-6.243-5.758-10.866-13.486-11.981-21.984c-1.08-6.387,0.095-12.863,1.721-19.053C227.063,592.766,230.649,592.982,234.217,592.94
		L234.217,592.94z"/>
	<path fill="#D22C12" d="M354.419,592.215c12,0.953,24.055,0.426,36.06,0.947c2.585,8.264,3.239,17.402,0.265,25.655
		c-2.902,8.419-9.175,15.256-16.366,20.299c-7.063,4.94-15.046,8.45-23.237,11.047c-1.404,0.72-2.537-0.624-3.557-1.386
		c-6.921-6.381-12.815-13.877-17.451-22.063C340.608,617.132,348.2,604.868,354.419,592.215L354.419,592.215z"/>
	<path fill="#115DC5" d="M173.199,600.28c0.804-0.293,1.601-0.601,2.405-0.888c1.193,3.065,2.44,6.105,3.472,9.235
		c-0.845,0.3-1.685,0.611-2.524,0.936c-0.372-0.659-0.737-1.319-1.103-1.967c-2.909,0.306-5.421,1.896-8.09,2.944
		c3.28,1.649,6.518,3.82,10.297,4.013c-0.024-0.973-0.073-1.943-0.126-2.904c0.792-0.312,1.589-0.623,2.387-0.935
		c1.277,3.058,2.471,6.152,3.514,9.301c-0.851,0.283-1.703,0.582-2.548,0.882c-0.378-0.671-0.756-1.332-1.146-1.979
		c-4.408,0.894-8.306,3.317-12.558,4.708c0.024,0.857,0.061,1.709,0.108,2.585c-0.851,0.265-1.697,0.54-2.542,0.815
		c-1.091-3.059-2.267-6.087-3.472-9.104c0.833-0.3,1.661-0.587,2.5-0.856c0.684,0.785,1.361,2.116,2.645,1.605
		c2.471-0.658,4.708-1.979,7.094-2.866c-3.334-1.433-6.488-3.64-10.189-3.964c-1.001,0.727-0.414,1.926-0.359,2.944
		c-0.845,0.3-1.685,0.606-2.531,0.918c-1.133-3.059-2.327-6.093-3.49-9.14c0.888-0.323,1.775-0.635,2.675-0.93
		c0.198,0.427,0.6,1.284,0.798,1.71c2.488,0.066,4.695-1.164,6.92-2.093c2.021-0.864,4.066-1.674,6.087-2.549
		C173.349,601.888,173.277,601.077,173.199,600.28L173.199,600.28z"/>
	<path fill="#115DC5" d="M181.667,599.956c1.319-0.347,3.4-0.665,4.102,0.863c0.827,2.201-1.548,5.164-3.761,3.299
		c0.45,2.878,1.458,5.655,3.143,8.061c0.108-0.498,0.324-1.5,0.432-1.997c1.751-0.337,3.976,0.06,4.534,2.032
		c-0.018,2.478-3.364,4.21-5.38,2.633c-3.022-2.032-4.498-5.71-5.055-9.193C179.321,603.639,179.681,601.012,181.667,599.956
		L181.667,599.956z"/>
	<path fill="#115DC5" d="M432.104,614.066c0.755,0.307,1.505,0.625,2.267,0.948c-0.042,0.863-0.096,1.732-0.03,2.608
		c1.835,1.452,4.132,2.117,6.237,3.082c1.943,0.78,3.784,1.884,5.853,2.322c0.527-0.511,1.02-1.045,1.476-1.603
		c0.767,0.312,1.54,0.642,2.315,0.978c-1.242,3.04-2.675,5.998-4.091,8.959c-0.768-0.358-1.528-0.713-2.29-1.061
		c0.005-0.895,0.232-1.805-0.007-2.669c-1.241-0.941-2.717-1.481-4.126-2.086c-2.734-1.086-5.33-2.507-8.174-3.287
		c-0.33,0.605-0.659,1.218-0.982,1.835c-0.841-0.389-1.674-0.768-2.507-1.146C429.345,619.968,430.76,617.036,432.104,614.066
		L432.104,614.066z"/>
	<path fill="#115DC5" d="M171.46,639.59c-3.778-6.717,2.225-16.504,10.008-15.772c5.182,0.3,9.151,5.008,9.631,10.003
		c0.671,0.72,1.331,1.458,1.943,2.243c-1.871,1.739-3.712,3.509-5.607,5.229c-0.594-0.678-1.211-1.324-1.721-2.051
		c0.948-2.363,2.795-4.972,1.428-7.556c-1.386-2.909-5.35-3.155-7.958-1.913c-2.759,1.397-5.2,4.455-4.528,7.699
		c0.917,3.167,4.359,4.384,7.22,5.151c-0.126,0.876-0.252,1.757-0.372,2.64C177.63,644.76,173.462,643.176,171.46,639.59
		L171.46,639.59z"/>
	<path fill="#D22C12" d="M289.731,629.378c11.43,2.051,23.225,2.039,34.655,0c5.771,9.354,13.2,17.541,21.092,25.139
		c-5.36,9.091-12.407,17.019-19.105,25.127c-12.762,2.027-25.865,2.032-38.621-0.013c-6.716-8.077-13.703-16.035-19.106-25.079
		C276.711,647.098,284.064,638.822,289.731,629.378L289.731,629.378z"/>
	<path fill="#D22C12" d="M390.228,630.942c4.341,0.103,8.652,0.81,12.971,1.289c-16.827,23.509-42.739,40.101-70.92,46.296
		c6.615-7.262,13.308-14.555,18.663-22.817C365.663,650.685,380.403,643.392,390.228,630.942L390.228,630.942z"/>
	<path fill="#D22C12" d="M210.943,632.214c4.354-0.516,8.708-1.062,13.079-1.35c4.797,6.608,11.442,11.622,18.446,15.688
		c6.555,3.766,13.523,6.764,20.695,9.15c5.368,8.253,12.042,15.545,18.657,22.807C253.641,672.362,227.747,655.722,210.943,632.214
		L210.943,632.214z"/>
	<path fill="#115DC5" d="M417.591,639.674c1.703-2.818,3.61-5.505,5.45-8.233c0.72,0.467,1.446,0.94,2.178,1.428
		c-0.048,0.91-1.151,2.326-0.055,3.004c0.937,0.731,1.979,1.313,2.993,1.954c1.632-2.152,3.173-4.521,5.542-5.937
		c2.729-1.703,6.548,0.036,7.741,2.843c0.941,2.1,0.103,4.438-0.804,6.404c-1.721,3.425-4.204,6.381-6.41,9.493
		c-0.689-0.384-1.38-0.767-2.058-1.139c0.108-1.104,0.924-2.586-0.425-3.227c-2.981-2.021-5.794-4.294-8.84-6.195
		c-1.115-1.05-2.207,0.216-3.101,0.87C419.061,640.514,418.322,640.088,417.591,639.674L417.591,639.674z"/>
	<path fill="#FFFFFF" d="M430.855,639.428c1.205-1.469,2.598-2.782,4.3-3.664c1.56,0.834,2.956,2.52,2.016,4.366
		c-0.516,0.833-1.254,3.148-2.52,2.045C433.327,641.335,432.085,640.388,430.855,639.428L430.855,639.428z"/>
	<path fill="#115DC5" d="M192.113,640.285c0.684-0.581,1.361-1.157,2.045-1.721c1.973,2.429,4.072,4.773,5.817,7.377
		c-0.078,0.894-1.08,1.336-1.589,2.009c-0.846-0.438-1.547-1.368-2.573-1.296c-1.697,0.912-3.022,2.345-4.456,3.604
		c3.046,0.594,6.075,1.391,9.194,1.469c-0.276-0.624-0.558-1.241-0.852-1.841c0.726-0.576,1.451-1.14,2.177-1.697
		c1.895,2.356,3.772,4.731,5.649,7.105c-0.684,0.546-1.367,1.099-2.044,1.656c-2.549-1.955-5.83-2.158-8.9-2.477
		c-0.911,4.125-3.484,8.234-2.099,12.551c-0.63,0.504-1.253,1.02-1.877,1.541c-2.237-2.548-4.251-5.276-6.393-7.897
		c0.726-0.6,1.457-1.188,2.195-1.763c0.402,0.354,1.211,1.056,1.613,1.403c0.875-2.171,1.385-4.456,1.907-6.729
		c-1.205-0.253-2.404-0.511-3.598-0.792c-0.87,0.606-1.727,1.229-2.567,1.877c0.312,0.804,0.642,1.625,0.972,2.441
		c-0.713,0.515-1.421,1.037-2.128,1.57c-1.997-2.579-4.018-5.134-6.075-7.658c0.689-0.54,1.391-1.061,2.093-1.576
		c0.923,0.647,2.159,1.613,3.22,0.623c3.238-2.428,6.236-5.182,9.325-7.796C192.821,641.599,192.467,640.939,192.113,640.285
		L192.113,640.285z"/>
	<path fill="#115DC5" d="M410.467,648.916c2.225-2.369,4.306-4.87,6.548-7.222c0.666,0.601,1.338,1.219,2.016,1.835
		c-0.415,0.601-0.828,1.206-1.236,1.823c1.339,2.333,3.688,3.742,5.638,5.5c1.487,1.229,2.86,2.603,4.456,3.706
		c0.678-0.39,1.349-0.798,2.009-1.217c0.641,0.569,1.283,1.145,1.937,1.732c-2.165,2.476-4.353,4.93-6.591,7.34
		c-0.636-0.611-1.271-1.217-1.895-1.811c0.342-0.918,0.611-1.842,0.888-2.765c-1.289-1.014-2.495-2.142-3.928-2.945
		c-1.709,1.602-3.144,3.467-4.744,5.176c1.14,1.128,2.184,2.375,3.502,3.304c1.02,0.367,1.877-0.641,2.759-0.989
		c0.606,0.618,1.224,1.254,1.835,1.889c-2.212,2.363-4.39,4.763-6.519,7.196c-0.701-0.623-1.397-1.24-2.093-1.858
		c0.414-0.588,0.834-1.175,1.254-1.751c-1.309-2.326-3.61-3.754-5.554-5.48c-1.595-1.374-3.16-2.795-4.935-3.929
		c-0.366,0.378-1.092,1.134-1.451,1.505c-0.702-0.647-1.398-1.289-2.088-1.937c2.146-2.435,4.396-4.779,6.514-7.244
		c0.641,0.545,1.295,1.098,1.948,1.661c-0.228,0.857-0.876,1.745-0.63,2.675c0.762,1.127,1.884,2.021,3.118,2.608
		c1.649-1.577,3.077-3.371,4.685-4.983c-0.966-1.121-1.884-2.34-3.173-3.095c-0.936,0.078-1.649,0.755-2.446,1.17
		C411.679,650.168,411.066,649.539,410.467,648.916L410.467,648.916z"/>
	<path fill="#115DC5" d="M206.697,658.606c0.582-0.685,1.169-1.343,1.751-2.009c2.543,2.033,4.954,4.222,7.472,6.278
		c-0.516,0.665-1.031,1.338-1.541,2.021c-1.05-0.228-2.369-1.355-3.251-0.234c-1.745,1.716-3.046,3.821-4.671,5.649
		c3.646-0.048,7.352-0.012,10.89-1.036c-0.294-1.032-0.797-1.985-1.313-2.903c0.593-0.636,1.187-1.265,1.793-1.884
		c2.416,2.189,4.971,4.217,7.376,6.423c-0.612,0.678-1.218,1.355-1.823,2.052c-0.636-0.413-1.271-0.815-1.907-1.212
		c-2.776,2.142-4.569,5.212-6.878,7.803c-0.63,0.87-1.606,1.606-1.841,2.698c0.317,0.6,0.677,1.188,1.079,1.758
		c-0.527,0.701-1.085,1.379-1.661,2.05c-2.399-2.147-5.008-4.072-7.274-6.367c0.419-0.727,0.954-1.368,1.469-2.016
		c0.87,0.251,1.691,0.894,2.645,0.755c2.165-1.822,3.586-4.335,5.427-6.452c-3.748,0.413-7.868-0.246-11.244,1.757
		c0.474,0.822,0.942,1.631,1.349,2.501c-0.479,0.659-0.978,1.313-1.493,1.96c-2.525-1.996-4.863-4.215-7.412-6.183
		c0.426-0.749,0.888-1.48,1.379-2.182c0.81,0.3,1.631,0.581,2.47,0.815c1.505-0.961,2.489-2.478,3.586-3.833
		c1.673-2.194,3.539-4.233,5.104-6.506C207.687,659.734,207.189,659.164,206.697,658.606L206.697,658.606z"/>
	<path fill="#115DC5" d="M395.169,664.388c0.497,0.593,1.013,1.175,1.444,1.841c-0.071,0.988-1.031,1.883-0.671,2.89
		c0.696,1.057,1.625,1.938,2.494,2.867c2.178-1.763,4.426-3.73,7.262-4.27c2.867-0.583,5.488,1.805,6.213,4.432
		c0.588,2.681-1.175,5.109-2.926,6.944c-2.591,2.591-5.577,4.737-8.527,6.902c-0.528-0.689-1.037-1.361-1.555-2.039
		c0.289-0.39,0.864-1.176,1.152-1.571c-0.191-1.259-1.295-2.105-1.991-3.095c-2.122-2.381-3.735-5.223-6.17-7.31
		c-0.9-0.163-1.679,0.455-2.507,0.701c-0.558-0.623-1.115-1.259-1.661-1.87C390.101,668.549,392.703,666.54,395.169,664.388
		L395.169,664.388z"/>
	<path fill="#115DC5" d="M233.306,667.841c0.731-0.509,1.913-1.114,2.699-0.378c1.517,0.937,1.025,2.934,1.001,4.426
		c-0.54,0.061-1.631,0.181-2.177,0.241c2.135,2.117,4.72,3.766,7.651,4.527c-0.317-0.558-0.624-1.109-0.929-1.655
		c0.978-1.17,2.41-2.321,4.042-1.716c1.937,0.738,1.517,3.431,0.342,4.69c-1.266,1.475-3.455,1.277-5.151,0.846
		c-3.227-0.942-6.339-2.831-8.198-5.687C231.525,671.523,231.506,668.933,233.306,667.841L233.306,667.841z"/>
	<path fill="#FFFFFF" d="M400.439,674.396c1.41-1.025,2.938-1.89,4.594-2.465c0.384,0.191,1.163,0.575,1.554,0.768
		c0.228,0.856,0.533,1.697,0.605,2.607c-0.563,1.481-1.962,2.37-3.09,3.395C402.887,677.257,401.65,675.836,400.439,674.396
		L400.439,674.396z"/>
	<path fill="#115DC5" d="M225.924,674.605c0.228-0.773,0.599-1.486,0.923-2.2c2.836,1.703,5.679,3.394,8.503,5.121
		c-0.438,0.744-0.875,1.505-1.313,2.261c-0.755-0.186-1.511-0.401-2.272-0.516c-2.231,1.854-2.993,4.852-4.54,7.221
		c3.419-0.906,7.106-1.152,10.237-2.915c0.359-1.163-0.786-1.764-1.416-2.514c0.408-0.772,0.816-1.54,1.229-2.295
		c2.861,1.553,5.601,3.315,8.432,4.935c-0.396,0.773-0.797,1.547-1.199,2.327c-0.864-0.156-1.733-0.552-2.621-0.365
		c-1.967,2.248-3.04,5.097-4.624,7.609c-0.666,1.301-1.781,2.519-1.781,4.06c0.438,0.475,0.899,0.936,1.373,1.391
		c-0.462,0.733-0.917,1.47-1.373,2.225c-2.831-1.679-5.667-3.346-8.438-5.108c0.474-0.755,0.953-1.48,1.439-2.213
		c0.978,0.09,2.267,1.091,2.957-0.103c1.589-2.074,2.566-4.545,3.898-6.781c-3.652,0.888-7.592,1.188-10.794,3.347
		c0.569,0.778,1.181,1.547,1.817,2.296c-0.408,0.768-0.816,1.541-1.217,2.327c-2.801-1.625-5.559-3.322-8.342-4.972
		c0.366-0.846,0.767-1.679,1.182-2.495c0.695,0.288,1.397,0.588,2.099,0.9c2.057-1.925,3.082-4.594,4.492-6.957
		c0.774-1.433,1.751-2.759,2.315-4.288C226.961,676.039,226.206,675.374,225.924,674.605L225.924,674.605z"/>
	<path fill="#115DC5" d="M369.369,682.504c5.158-3.034,10.256-6.177,15.413-9.211c0.438,0.736,0.875,1.481,1.319,2.236
		c-0.799,0.811-1.854,1.842-1.122,3.07c1.907,3.545,4.378,6.766,6.38,10.268c0.811-0.229,1.608-0.487,2.412-0.744
		c0.39,0.792,0.791,1.606,1.17,2.423c-2.789,1.644-5.554,3.34-8.361,4.959c-0.437-0.833-0.875-1.661-1.301-2.483
		c0.42-0.286,1.259-0.868,1.679-1.163c-0.647-2.722-2.519-4.856-3.945-7.189c-0.966-1.451-1.733-3.047-2.884-4.354
		c-1.494-0.69-2.724,0.72-3.851,1.451c1.241,4.245,5.031,7.178,6.134,11.483c1.519,5.326-5.271,10.142-10.021,7.934
		c-1.738-0.736-3.801-2.152-3.711-4.269c-0.156-1.578,2.278-2.573,3.159-1.188c1.151,1.002,2.045,2.958,3.868,2.52
		c1.788-0.253,3.874-1.866,3.148-3.88c-1.031-3.454-3.369-6.303-5.307-9.272c-0.559-1.354-1.968-0.467-3.006-0.401
		C370.149,683.955,369.754,683.224,369.369,682.504L369.369,682.504z"/>
	<path fill="#115DC5" d="M352.578,688.771c2.668-0.811,5.661-0.479,8.036,1.007c4.888,2.951,6.608,10.201,3.196,14.885
		c-3.011,4.06-8.995,6.075-13.697,3.898c-4.846-2.213-7.19-8.45-5.271-13.367C346.083,691.883,349.25,689.646,352.578,688.771
		L352.578,688.771z"/>
	<path fill="#115DC5" d="M263.338,690.779c3.077,0.918,6.141,1.901,9.206,2.872c-0.181,0.804-0.36,1.613-0.534,2.436
		c-0.852-0.03-1.709-0.054-2.555-0.065c-0.102,0.425-0.198,0.863-0.288,1.306c2.639,0.894,5.565,1.728,7.4,3.989
		c2.111,2.506,0.479,6.95-2.705,7.628c-2.92,0.582-5.763-0.618-8.6-1.134c0.216,1.2,1.074,1.932,2.135,2.417
		c-0.252,0.846-0.504,1.691-0.744,2.555c-3.136-1.008-6.296-1.931-9.397-3.022c0.282-0.84,0.564-1.68,0.846-2.513
		c0.755,0.078,1.511,0.155,2.272,0.233c0.072-0.317,0.21-0.959,0.282-1.276c-2.483-0.906-5.217-1.662-7.071-3.665
		c-2.333-2.38-1.019-7.154,2.285-7.861c2.866-0.576,5.721,0.341,8.498,0.96c0.006-0.343,0.012-1.026,0.018-1.367
		c-0.642-0.325-1.284-0.636-1.919-0.931C262.75,692.477,263.044,691.625,263.338,690.779L263.338,690.779z"/>
	<path fill="#FFFFFF" d="M352.002,692.44c1.542-0.875,3.461-0.582,4.822,0.498c2.399,1.871,3.688,5.008,3.616,8.024
		c-0.03,1.99-1.235,4.107-3.251,4.653c-1.625,0.671-3.472-0.049-4.719-1.157c-2.525-2.31-3.641-6.046-2.771-9.361
		C350.072,693.952,350.941,692.993,352.002,692.44L352.002,692.44z"/>
	<path fill="#115DC5" d="M332.278,695.151c1.015-0.168,1.967-0.552,2.86-1.05c0.402-0.077,1.212-0.233,1.619-0.312
		c1.193,2.188,2.441,4.354,3.568,6.591c-0.821,0.348-1.618,0.761-2.459,1.061c-1.414-1.396-2.698-3.003-4.599-3.771
		c-1.415,0.396-2.831,0.797-4.211,1.296c0.199,1.481,0.48,2.949,0.787,4.426c2.865-0.199,5.894-0.9,8.664,0.209
		c2.724,1.099,3.784,4.672,2.741,7.274c-0.828,2.123-3.058,3.185-5.092,3.855c-3.754,1.152-7.699,1.512-11.598,1.83
		c-0.126-0.864-0.24-1.709-0.348-2.555c0.726-0.24,1.434-0.522,2.128-0.84c-0.629-4.029-0.971-8.114-1.799-12.102
		c-0.119-1.457-1.852-1.313-2.878-1.613c-0.126-0.828-0.246-1.643-0.365-2.452C324.943,696.309,328.614,695.745,332.278,695.151
		L332.278,695.151z"/>
	<path fill="#115DC5" d="M280.292,695.71c2.98,0.281,5.943,0.731,8.924,1.013c-0.084,0.917-0.168,1.847-0.246,2.789
		c-0.486,0.029-1.457,0.102-1.938,0.132c0.252,2.152,1.002,4.191,1.716,6.224c1.205-1.781,2.566-3.514,3.184-5.606
		c-0.468-0.144-1.397-0.426-1.859-0.57c0.061-0.929,0.132-1.853,0.204-2.771c2.609,0.258,5.205,0.643,7.808,0.942
		c-0.15,0.834-0.306,1.673-0.462,2.519c-0.779,0.282-1.763,0.341-2.165,1.199c-3.004,4.605-5.505,9.589-9.14,13.763
		c-1.613,2.021-5.248,2.591-6.902,0.337c-0.93-0.984-0.558-2.424-0.558-3.629c1.787-0.396,3.497,0.054,4.75,1.439
		c0.678-0.9,1.343-1.806,1.997-2.717c-1.211-3.971-2.345-7.977-3.994-11.789c-0.54-0.217-1.074-0.427-1.607-0.631
		C280.076,697.693,280.22,696.375,280.292,695.71L280.292,695.71z"/>
	<path fill="#115DC5" d="M301.215,697.389c5.062,0.839,10.355,0.767,15.357-0.385c1.146,2.238,1.878,4.666,2.753,7.029
		c-0.852,0.317-1.703,0.653-2.548,0.995c-1.309-1.913-2.855-3.683-4.918-4.797c-0.57,2.817-0.048,5.689-0.3,8.533
		c-0.15,1.9,0.066,3.807,0.294,5.703c0.821,0.228,1.655,0.462,2.488,0.695c-0.029,0.899-0.048,1.805-0.071,2.716
		c-3.232,0.025-6.465,0.066-9.698,0.163c-0.012-0.882-0.03-1.751-0.036-2.615c0.936-0.425,2.58-0.6,2.464-1.967
		c0.146-4.265-0.509-8.503-0.568-12.762c-2.441,0.54-3.688,2.813-4.984,4.726c-0.827-0.288-1.649-0.564-2.471-0.827
		C299.608,702.156,300.387,699.763,301.215,697.389L301.215,697.389z"/>
	<path fill="#FFFFFF" d="M258.145,698.27c1.733-0.239,3.496-0.156,5.229,0.097c-0.504,1.673-1.025,3.333-1.535,5.014
		c-1.968-0.492-3.844-1.458-4.558-3.49C257.497,699.487,257.929,698.678,258.145,698.27L258.145,698.27z"/>
	<path fill="#FFFFFF" d="M266.606,704.915c0.492-1.655,1.008-3.293,1.554-4.925c1.942,0.744,5.223,1.854,3.976,4.618
		C270.595,706.048,268.412,705.238,266.606,704.915L266.606,704.915z"/>
	<path fill="#FFFFFF" d="M330.407,706.582c1.997,0.084,4.888-0.757,6.003,1.481c0.631,3.082-2.782,3.98-5.103,4.179
		C331.037,710.347,330.708,708.465,330.407,706.582L330.407,706.582z"/>
</g>
</svg>
