<?xml version="1.0" standalone="no"?>
<svg id="SFV Logo" width="500" height="340" viewBox="0 0 500 340"
xmlns="http://www.w3.org/2000/svg" version="1.1">

<path id="ASF" fill="#d7002c"
     d="M 116.91734,56.171917 C 128.14168,53.184846 139.8943,51.586958 151.97955,51.586958 L 151.97955,40.995248 C 139.20949,40.995248 126.7851,42.677921 114.90204,45.782388 L 114.88247,45.72369 C 114.38028,45.85413 113.89765,46.023702 113.40198,46.173707 C 56.70633,61.604734 12.78073,110.09572 5,170.02628 L 44.12541,170.02628 C 46.34941,160.05416 50.3213,150.84511 54.95192,142.69263 L 66.62628,142.69263 L 66.62628,132.09439 L 48.95821,132.08787 C 43.87758,140.12948 39.21436,149.33853 35.99901,159.45414 L 17.60048,159.45414 C 26.35951,119.94393 52.25833,86.923096 86.75313,68.204987 C 83.64215,74.250871 81.88773,81.059828 81.88773,88.207928 C 81.88773,98.08222 85.17481,107.19344 90.69894,114.51763 L 90.69894,159.45414 L 64.4088,159.45414 L 64.4088,170.05237 L 101.29717,170.05237 L 101.29717,124.55497 C 108.24309,129.2182 116.59776,131.95091 125.57854,131.95091 L 151.97955,131.95091 L 151.97955,121.35268 L 125.57854,121.35268 C 107.33001,121.35268 92.48596,106.48254 92.48596,88.207928 C 92.48596,73.239963 102.50374,60.169896 116.91734,56.171917 z M 254.21825,82.964249 L 125.44157,82.964249 L 125.44157,93.562481 L 152.00564,93.562481 C 170.29329,93.562481 185.15691,108.38044 185.15691,126.60288 C 185.15691,144.87097 170.29329,159.74111 152.00564,159.74111 L 141.37479,159.74111 L 141.37479,170.33934 L 152.00564,170.33934 C 160.5364,170.33934 168.50627,167.87403 175.25001,163.63473 L 175.25001,198.73608 L 185.84172,198.73608 L 185.84172,154.29525 C 192.03108,146.7493 195.76166,137.10328 195.76166,126.60288 C 195.76166,113.40237 189.84622,101.56496 180.53934,93.562481 L 254.21825,93.562481 L 254.21825,82.964249 z M 208.57737,131.95091 L 249.94635,131.95091 L 249.94635,121.35268 L 208.57737,121.35268 L 208.57737,131.95091 z M 207.89256,154.18437 L 207.89256,198.73608 L 218.4908,198.73608 L 218.4908,164.7826 L 236.04147,164.7826 L 236.04147,154.18437 L 207.89256,154.18437" />

<path id="SFV" fill="#d7002c"
     d="M 88.59234,209.17126 C 64.50011,209.17126 44.90805,228.75027 44.90805,252.80989 C 44.90805,276.92821 64.50011,296.53983 88.59234,296.53983 L 115.24118,296.53983 L 115.24118,285.94812 L 88.59234,285.94812 C 70.34381,285.94812 55.49976,271.08451 55.49976,252.80989 C 55.49976,234.59398 70.34381,219.76949 88.59234,219.76949 L 101.29065,219.76949 L 101.29065,209.17126 L 88.59234,209.17126 z M 218.4908,219.92602 L 218.4908,209.32779 L 141.37479,209.32779 L 141.37479,256.03828 C 134.12886,250.71633 125.1807,247.55969 115.50206,247.55969 L 90.58154,247.55969 L 90.58154,258.15792 L 115.50206,258.15792 C 133.7832,258.15792 148.65333,272.9824 148.65333,291.1918 C 148.65333,309.45989 133.7832,324.33003 115.50206,324.33003 L 115.50206,334.92826 C 139.6269,334.92826 159.25157,315.30359 159.25157,291.1918 C 159.25157,282.30885 156.56451,274.03897 151.97955,267.1387 L 151.97955,219.92602 L 218.4908,219.92602 z M 176.4631,258.04053 L 214.5189,258.04053 L 214.5189,247.44229 L 176.4631,247.44229 L 176.4631,258.04053 z M 176.4631,284.12848 L 176.4631,335 L 187.06133,335 L 187.06133,294.72672 L 203.8098,294.72672 L 203.8098,284.12848 L 176.4631,284.12848 z M 329.10373,203.3406 C 328.15804,204.72327 327.20583,206.11245 326.23406,207.50816 C 316.38585,221.68044 303.1723,237.90062 287.91085,253.84037 C 286.24774,255.57522 284.61724,257.43398 282.98675,259.32536 C 291.11315,243.94651 296.59162,227.08717 298.91997,209.43866 L 259.4815,209.43866 C 256.65748,224.27619 250.48767,238.34412 241.57211,250.57285 L 241.57211,209.34736 L 230.97388,209.34736 L 230.97388,278.27174 L 240.07858,268.8866 C 253.403,255.13824 262.96424,238.20716 267.934,219.92602 L 286.31948,219.92602 C 277.43653,259.89929 250.98335,294.31583 214.12106,312.99481 C 214.05584,313.02742 214.00367,313.05351 213.18842,313.46439 L 213.18842,325.22354 C 214.00367,324.81917 214.06236,324.78656 214.12106,324.76048 C 219.31909,322.35386 224.32145,319.65376 229.15425,316.70582 C 229.45426,316.53625 229.77384,316.33407 230.13255,316.11232 C 230.15863,316.09928 230.18472,316.07319 230.21081,316.06014 C 232.4609,314.65792 234.65881,313.19047 236.82411,311.67084 C 279.37356,282.88278 313.47052,244.50088 335.14962,213.25403 C 336.57793,211.19308 337.96712,209.14517 339.33673,207.09727 L 329.10373,203.3406" />

<path id="Fussballspieler" fill="#d7002c"
     d="M 494.91224,258.94708 L 494.91224,258.94708 L 494.91224,258.94708 C 494.88614,258.67316 494.86664,258.39924 494.84054,258.12531 C 493.10564,239.78548 476.98334,226.05017 458.51304,227.35457 C 450.61494,227.90894 443.32334,231.1308 437.62964,236.47231 L 445.60604,243.56823 C 449.41484,240.27463 454.14984,238.28542 459.25654,237.92019 C 472.17664,237.00711 483.42704,246.77705 484.34014,259.69711 C 484.78364,265.9517 482.76184,272.01063 478.65944,276.74559 C 474.53754,281.48708 468.83084,284.34371 462.56974,284.78721 C 457.93254,285.1133 453.41284,284.06979 449.44744,281.83927 C 449.41484,281.8197 449.38224,281.80013 449.34964,281.78057 C 448.59964,281.35012 447.87564,280.86097 447.16474,280.34573 C 444.76464,278.54566 442.23414,276.36079 439.61234,273.89548 C 416.49184,219.94559 392.64094,178.85053 369.14875,152.47561 C 378.61214,133.20313 384.57974,117.53731 387.76254,108.32826 L 378.14914,103.61939 C 375.35116,111.72622 369.92486,126.20504 361.30279,144.19921 C 350.84152,133.88794 340.47156,126.5507 330.29073,122.38967 L 326.27319,132.19875 C 347.67184,140.94473 381.18184,170.04585 421.31814,257.21223 C 417.33324,251.75985 413.15914,245.06829 409.01114,240.24202 C 397.45414,226.82629 384.35804,211.61701 370.30314,197.48386 C 359.36576,186.48778 347.31965,180.80713 335.67138,175.32214 C 326.93843,171.20676 318.70116,167.31966 311.04434,161.35204 L 310.90738,161.24769 L 310.77042,161.14986 C 303.96799,156.52577 299.91783,148.86243 299.94392,140.64472 C 299.96348,133.66619 303.4984,127.33334 307.24202,120.62874 L 312.13352,111.83709 C 318.16636,100.99755 320.65123,96.497376 321.57083,94.025542 C 323.17524,89.962343 323.95788,85.553478 323.84701,81.046784 C 323.3709,61.800394 309.33558,48.391184 289.71092,48.449882 L 232.74134,48.449882 C 250.63116,39.377795 277.1887,30.886165 305.0702,32.092733 C 321.42083,32.80363 329.26678,36.508119 335.56702,39.482146 C 339.84545,41.503963 343.88256,43.401862 349.00884,43.401862 C 360.24623,43.401862 363.78115,35.458079 365.67253,31.186176 L 366.29211,29.829602 L 366.38994,29.646987 C 367.0291,28.218671 367.79217,26.855575 368.66612,25.596831 C 372.42931,20.164014 378.09694,16.51822 384.59934,15.33774 C 391.10174,14.15726 397.68244,15.57906 403.11524,19.342244 C 408.55464,23.111954 412.20044,28.766518 413.37434,35.275463 C 414.56134,41.777887 413.13304,48.358574 409.36984,53.791391 C 405.17624,59.843797 399.31944,63.82221 393.29964,64.709201 C 388.50604,65.420098 383.94064,64.167876 380.06654,61.089497 C 377.07944,58.722015 375.3055,54.919695 375.44247,51.169551 C 375.52725,48.867289 376.33594,46.701989 377.76434,44.725826 L 368.927,38.908211 C 366.44212,42.47574 365.0138,46.499807 364.85076,50.784754 C 364.5964,57.939376 367.81826,64.898338 373.47282,69.391989 C 379.61004,74.263915 387.20164,76.324864 394.84534,75.196559 C 396.73674,74.916114 398.61514,74.433487 400.44774,73.781288 C 411.75694,84.255602 427.46184,104.44116 433.40994,116.27857 C 435.19044,119.63087 435.74474,123.27014 435.05344,126.90289 C 434.25124,131.1161 431.85764,134.76189 428.30974,137.17502 C 424.76824,139.58816 420.48984,140.47515 416.27014,139.67295 C 412.55914,138.96857 409.37634,137.01197 407.05454,134.27926 L 398.60854,140.7556 C 402.48264,145.51013 407.95454,148.88199 414.29394,150.08204 C 421.29204,151.41253 428.38144,149.94508 434.27084,145.94058 C 440.16014,141.92955 444.13204,135.87715 445.46904,128.87905 C 446.59084,122.93752 445.65164,116.72859 442.82114,111.40664 C 436.27954,98.395275 421.19424,79.351067 410.10684,68.361515 C 413.07434,66.013599 415.78094,63.143923 418.07674,59.824231 C 423.45734,52.063064 425.49224,42.671399 423.80954,33.384087 C 422.12034,24.090252 416.91584,16.01603 409.14814,10.63539 C 401.38694,5.25475 392.00184,3.21989 382.70794,4.90908 C 373.41413,6.59175 365.33338,11.7963 359.95274,19.563991 C 358.70704,21.36406 357.62439,23.294569 356.71783,25.316386 C 356.70479,25.309864 355.99389,26.881663 355.99389,26.881663 C 354.11556,31.094868 353.19596,32.810152 349.00884,32.810152 C 346.26309,32.810152 343.81082,31.649237 340.09328,29.901344 C 333.31042,26.692526 324.01658,22.309749 305.53326,21.507544 C 266.84482,19.824871 230.30212,35.653739 213.22103,47.745507 L 213.22103,59.048114 L 289.73048,59.048114 C 303.47231,59.008982 312.92268,67.957151 313.24878,81.314185 C 313.2553,81.509845 313.2553,81.705505 313.2553,81.901164 C 313.2553,84.777362 312.7205,87.581817 311.67698,90.236267 C 310.95956,92.147209 307.56812,98.245269 302.87229,106.6782 L 297.98732,115.46332 C 293.74803,123.04839 289.37177,130.89435 289.34569,140.61863 L 289.34569,140.71646 C 289.34569,152.37778 295.08504,163.24341 304.71149,169.83715 C 313.24225,176.45696 322.34695,180.75496 331.15164,184.90294 C 342.47381,190.24445 353.16335,195.27943 362.78981,204.95154 C 376.57734,218.81728 388.98214,233.22436 400.97604,247.15533 C 415.65704,264.20381 428.42054,279.49787 440.72104,288.78518 C 447.23004,293.59841 455.14774,295.92676 463.31324,295.35283 C 472.39834,294.70715 480.69434,290.56569 486.66194,283.69151 C 492.62304,276.81081 495.55794,268.02569 494.91224,258.94708 M 304.80932,171.63069 C 304.77019,171.61113 304.7441,171.58504 304.71149,171.55895 C 304.65279,171.5133 304.5941,171.48069 304.52888,171.43503 L 304.80932,171.63069" />

<path id="TM" fill="#d7002c"
     d="M 5,186.76171 L 14.73081,186.76171 L 14.73081,188.58134 L 10.90892,188.58134 L 10.90892,198.78173 L 8.80232,198.78173 L 8.80232,188.58134 L 5,188.58134 L 5,186.76171 z M 17.10481,186.76171 L 20.0658,186.76171 L 23.38549,196.17294 L 23.4181,196.17294 L 26.64648,186.76171 L 29.58138,186.76171 L 29.58138,198.78173 L 27.57913,198.78173 L 27.57913,189.50746 L 27.53999,189.50746 L 24.20726,198.78173 L 22.47241,198.78173 L 19.14619,189.50746 L 19.11358,189.50746 L 19.11358,198.78173 L 17.10481,198.78173 L 17.10481,186.76171" />

</svg>