<?xml version="1.0" encoding="UTF-8" standalone="no"?>
<!-- Generator: Adobe Illustrator 14.0.0, SVG Export Plug-In . SVG Version: 6.00 Build 43363)  -->

<svg
   xmlns:dc="http://purl.org/dc/elements/1.1/"
   xmlns:cc="http://creativecommons.org/ns#"
   xmlns:rdf="http://www.w3.org/1999/02/22-rdf-syntax-ns#"
   xmlns:svg="http://www.w3.org/2000/svg"
   xmlns="http://www.w3.org/2000/svg"
   xmlns:sodipodi="http://sodipodi.sourceforge.net/DTD/sodipodi-0.dtd"
   xmlns:inkscape="http://www.inkscape.org/namespaces/inkscape"
   version="1.1"
   id="Layer_1"
   x="0px"
   y="0px"
   width="426.28601"
   height="501"
   viewBox="37.5 -34.5 426.28601 501"
   enable-background="new 37.5 -34.5 501 501"
   xml:space="preserve"
   inkscape:version="0.48.4 r9939"
   sodipodi:docname="US_Soccer_logo.svg"><metadata
   id="metadata91"><rdf:RDF><cc:Work
       rdf:about=""><dc:format>image/svg+xml</dc:format><dc:type
         rdf:resource="http://purl.org/dc/dcmitype/StillImage" /></cc:Work></rdf:RDF></metadata><defs
   id="defs89" /><sodipodi:namedview
   pagecolor="#ffffff"
   bordercolor="#666666"
   borderopacity="1"
   objecttolerance="10"
   gridtolerance="10"
   guidetolerance="10"
   inkscape:pageopacity="0"
   inkscape:pageshadow="2"
   inkscape:window-width="640"
   inkscape:window-height="480"
   id="namedview87"
   showgrid="false"
   fit-margin-top="0"
   fit-margin-left="0"
   fit-margin-right="0"
   fit-margin-bottom="0"
   inkscape:zoom="0.47105788"
   inkscape:cx="209.384"
   inkscape:cy="250.5"
   inkscape:window-x="0"
   inkscape:window-y="0"
   inkscape:window-maximized="0"
   inkscape:current-layer="Layer_1" />
<path
   d="m 250.839,-23.219 c -0.696,0.306 -62.076,18.417 -102.107,21.1 -36.021,2.349 -93.6,-5.418 -94.171,-5.418 l -6.274,-0.99 v 154.81 c 0.111,1.986 1.912,42.722 6.957,68.828 7.131,35.644 12.76,55.581 29.052,86.355 18.115,34.872 33.472,52.382 60.997,78.736 23.306,22.386 40.059,32.744 65.264,48.582 l 7.393,4.725 c 12.489,7.767 23.453,14.844 29.087,18.284 l 3.682,2.193 3.003,-1.75 c 0.953,-0.443 17.56,-11.132 29.637,-18.728 l 7.377,-4.725 c 25.367,-15.838 42.06,-26.196 65.261,-48.582 27.669,-26.354 43.026,-43.864 61.264,-78.736 16.033,-30.774 21.65,-50.711 28.788,-86.355 5.315,-26.106 6.954,-66.842 6.954,-68.6 0,-0.229 0,-148.708 0,-148.708 v -6.329 l -6.169,0.99 c -0.696,0 -58.106,7.769 -94.153,5.418 -40.004,-2.683 -101.272,-20.792 -101.842,-21.1"
   id="path3"
   inkscape:connector-curvature="0"
   style="fill:#00aeef" />
<path
   d="m 247.386,-33.443 c -6.784,2.188 -63.39,18.149 -99.375,20.558 -27.543,1.8 -68.568,-2.471 -90.572,-5.176 l -2.88,-0.267 1.671,0.13 -18.73,-2.945 v 167.694 l 0.045,0.867 c 0.648,13.3 2.657,46.721 7.107,69.739 7.369,36.846 13.176,57.375 30.115,89.352 18.644,35.9 34.523,54.158 63.063,81.481 23.611,22.676 41.146,33.697 65.424,48.949 l 1.556,0.979 c -0.062,-0.037 7.336,4.688 7.336,4.688 0.102,0.066 17.376,10.936 17.376,10.936 l 11.888,7.457 c 0.109,0.066 9.25,5.501 9.25,5.501 0,0 8.172,-4.758 8.367,-4.871 1.097,-0.599 3.505,-2.119 13.611,-8.549 l 16.46,-10.437 c 0.066,-0.042 7.452,-4.767 7.452,-4.767 -0.094,0.066 0.582,-0.368 0.582,-0.368 25.621,-16.001 42.545,-26.576 66.351,-49.546 28.522,-27.172 44.452,-45.403 63.324,-81.494 16.611,-31.867 22.623,-53.282 29.816,-89.234 5.448,-26.751 7.163,-67.721 7.163,-70.724 V -21.172 l -18.654,2.979 1.695,-0.134 -3.164,0.294 c -37.966,4.643 -70.033,6.467 -90.288,5.148 -36.218,-2.425 -92.694,-18.453 -99.001,-20.523 l -3.326,-1.092 -3.662,1.057 M 149.434,8.644 C 184.666,6.284 235.682,-7.538 250.78,-11.986 266.925,-7 317.734,6.352 351.959,8.64 c 20.812,1.363 52.77,-0.347 90.257,-4.781 0,11.159 0,142.651 0,142.651 -0.076,4.217 -1.874,42.528 -6.743,66.456 -6.917,34.575 -12.31,53.813 -27.788,83.516 -17.558,33.588 -31.815,49.886 -59.13,75.906 -22.23,21.44 -38.392,31.536 -62.853,46.827 l -0.679,0.428 c -0.094,0.056 -7.481,4.786 -7.481,4.786 0.071,-0.048 -16.492,10.446 -16.492,10.446 0,0 -7.301,4.62 -10.305,6.518 -3.233,-2.031 -9.674,-6.078 -9.674,-6.078 L 223.644,424.35 c 0.113,0.069 -7.29,-4.655 -7.29,-4.655 -0.059,-0.038 -1.625,-1.027 -1.625,-1.027 C 190.685,403.56 174.792,393.574 152.758,372.421 125.467,346.284 111.258,329.965 93.868,296.5 78.161,266.841 72.743,247.597 65.819,213.002 61.531,190.8 59.586,156.382 59.087,146.366 c 0,0 -0.004,-0.18 -0.015,-0.351 0,-0.512 0,-131.019 0,-142.155 23.496,2.784 62.725,6.582 90.362,4.784 z"
   id="path5"
   inkscape:connector-curvature="0"
   style="fill:#dbb152" />
<path
   d="m 250.758,-4.972 c 2.407,0.666 58.115,17.176 98.233,19.984 36.248,2.301 85.407,-4.366 87.653,-4.657 V 148.57 c -0.099,0.214 -1.846,40.264 -6.505,64.768 -6.662,32.502 -11.324,51.086 -27.061,81.214 -17.18,32.571 -31.061,48.418 -57.414,73.739 -21.87,20.87 -37.716,30.79 -61.704,45.824 l -7.218,4.517 c -11.688,7.325 -25.68,16.283 -25.984,16.283 -0.257,0 -13.835,-8.591 -26.237,-16.283 l -7.189,-4.517 C 193.355,399.081 177.477,389.161 155.635,368.291 129.243,342.97 115.405,327.123 98.337,294.552 82.495,264.424 77.828,245.84 71.274,213.338 c -5.07,-24.504 -6.657,-64.554 -6.657,-64.99 0,0.222 0,-138.064 0,-138.064 2.402,0.364 51.294,7.03 87.686,4.731 39.976,-2.811 95.945,-19.321 98.455,-19.987"
   id="path7"
   inkscape:connector-curvature="0"
   style="fill:#ffffff" />
<path
   d="M 250.758,-16.221 C 250.095,-15.926 190.43,1.696 151.487,4.288 116.47,6.575 60.498,-0.977 59.954,-0.977 l -6.107,-0.961 v 150.509 c 0.106,1.924 1.851,41.533 6.767,66.919 6.927,34.649 12.408,54.038 28.246,83.948 17.615,33.909 32.531,50.927 59.293,76.546 22.653,21.766 38.944,31.834 63.448,47.238 l 7.18,4.587 c 12.142,7.553 22.8,14.428 28.278,17.762 l 3.602,2.151 2.913,-1.702 c 0.923,-0.449 17.066,-10.812 28.798,-18.211 l 7.176,-4.587 c 24.653,-15.402 40.913,-25.471 63.447,-47.238 26.91,-25.619 41.831,-42.637 59.567,-76.546 15.579,-29.91 21.055,-49.299 27.973,-83.948 5.187,-25.386 6.771,-64.996 6.771,-66.705 0,-0.214 0,-144.577 0,-144.577 v -6.146 l -5.986,0.961 c -0.672,0 -56.485,7.553 -91.542,5.265 -38.904,-2.593 -98.455,-20.214 -99.02,-20.509 m -26.237,434.852 -7.189,-4.517 C 193.356,399.08 177.477,389.16 155.635,368.289 129.243,342.968 115.405,327.12 98.337,294.551 82.495,264.421 77.828,245.84 71.274,213.337 c -5.07,-24.505 -6.657,-64.556 -6.657,-64.991 0,0.223 0,-138.065 0,-138.065 2.402,0.365 51.294,7.031 87.686,4.731 39.976,-2.809 95.946,-19.318 98.457,-19.984 2.407,0.666 58.117,17.176 98.235,19.984 36.245,2.301 85.406,-4.366 87.653,-4.657 V 148.57 c -0.101,0.213 -1.848,40.264 -6.507,64.768 -6.662,32.502 -11.323,51.086 -27.058,81.214 -17.181,32.571 -31.063,48.418 -57.417,73.739 -21.87,20.87 -37.714,30.79 -61.702,45.824 l -7.219,4.517 c -11.689,7.325 -25.681,16.283 -25.984,16.283 -0.259,0 -13.838,-8.591 -26.24,-16.284 z"
   id="path9"
   inkscape:connector-curvature="0"
   style="fill:#1a2d43" />
<polyline
   points="127.604,33.595 126.271,103.923 456.596,103.923 456.453,35.007 415.024,34.859 391.453,36.19   357.587,32.41 320.27,24.796 292.698,16.346 264.555,23.157 228.99,32.856 195.154,34.711 163.182,35.598 127.604,33.595 "
   id="polyline11"
   style="fill:#a30036"
   transform="translate(-41.116,0)" />
<polyline
   points="331.999,267.163 331.999,385.095 320.27,392.132 305.872,402.044 305.872,267.163 331.999,267.163   "
   id="polyline13"
   style="fill:#1a2d43"
   transform="translate(-41.116,0)" />
<polyline
   points="384.63,267.163 384.63,342.97 374.127,353.478 358.397,366.356 358.397,267.163 384.63,267.163 "
   id="polyline15"
   style="fill:#1a2d43"
   transform="translate(-41.116,0)" />
<polyline
   points="436.091,267.163 419.688,295.738 410.88,310.841 410.88,267.163 436.091,267.163 "
   id="polyline17"
   style="fill:#1a2d43"
   transform="translate(-41.116,0)" />
<path
   d="m 360.999,163.519 h 44.489 c 0,0 1.066,-22.658 -9.729,-31.465 -10.924,-8.884 -18.655,-13.694 -42.24,-13.252 -23.583,0.44 -34.796,8.368 -34.796,8.368 0,0 14.654,19.544 14.654,33.833 0,14.214 -1.445,31.388 -10.66,41.159 l 26.394,7.84 c 0,0 8.812,6.302 -4.409,11.855 0,0 -18.091,6.368 -27.567,-11.328 l -17.99,38.719 c 0,0 17.207,9.764 42.642,6.888 25.46,-2.96 46.114,-9.709 57.445,-38.278 0,0 12.104,-32.431 -23.057,-44.12 l -30.911,-8.372 c 0,0 -12.812,-4.88 -6.412,-9.695 0,0 13.192,-7.481 21.062,0.897 l 1.085,6.951"
   id="path19"
   inkscape:connector-curvature="0"
   style="fill:#a30036" />
<path
   d="m 214.67,158.042 -43.564,98.532 45.569,-70.55 c 0,-0.001 -3.335,-14.287 -2.005,-27.982"
   id="path21"
   inkscape:connector-curvature="0"
   style="fill:#1a2d43" />
<path
   d="m 216.675,186.023 -30.392,70.55 37.831,-55.894 c -0.001,0 -6.001,-9.766 -7.439,-14.656"
   id="path23"
   inkscape:connector-curvature="0"
   style="fill:#1a2d43" />
<path
   d="m 224.113,200.679 -22.096,56.415 32.902,-44.126 c 10e-4,-10e-4 -10.806,-9.77 -10.806,-12.289"
   id="path25"
   inkscape:connector-curvature="0"
   style="fill:#1a2d43" />
<path
   d="m 246.499,204.605 -11.58,8.362 -17.171,44.566 27.826,-36.269 -11.728,36.269 25.989,-30.873 -10.404,31.909 24.653,-30.942 -0.522,-13.18 c 0,0 13.736,-9.244 16.252,-12.285 l -23.055,9.778 c 0,-0.001 -12.77,-1.411 -20.26,-7.335"
   id="path27"
   inkscape:connector-curvature="0"
   style="fill:#1a2d43" />
<polyline
   points="315.201,227.627 306.951,258.571 332.934,225.259 315.201,227.627 "
   id="polyline29"
   style="fill:#1a2d43"
   transform="translate(-41.116,0)" />
<path
   d="m 293.291,224.223 -11.323,34.349 33.829,-48.042 c 0,-0.001 -13.731,11.773 -22.506,13.693"
   id="path31"
   inkscape:connector-curvature="0"
   style="fill:#1a2d43" />
<path
   d="m 266.232,163.519 24.501,6.812 18.144,-15.696 c 0,0 12.807,8.884 14.808,14.21 0,0 7.331,-2.512 8.769,-9.324 0,0 0.559,9.78 -7.847,15.18 l -5.33,18.132 c 0,0 0.929,13.328 -3.478,17.697 l -0.512,-13.697 -21.995,0.446 c 0,0 -1.068,-18.214 -2.923,-20.137 l -24.137,-13.623"
   id="path33"
   inkscape:connector-curvature="0"
   style="fill:#1a2d43" />
<path
   d="m 275.046,107.036 c 0,0 25.982,0.518 38.752,15.175 l -7.839,6.886 c 0,0 3.437,14.209 2.396,22.131 0,0 -2.804,-15.692 -7.326,-20.582 0,0 -11.734,-8.884 -23.978,-8.884 0,0 -2.966,-8.808 -2.005,-14.726"
   id="path35"
   inkscape:connector-curvature="0"
   style="fill:#1a2d43" />
<path
   d="m 117.655,121.762 -14.657,81.953 c 0,0 -4.002,29.913 8.407,40.2 0,0 10.097,14.144 46.488,12.221 l 56.776,-100.018 c 0,0 6.399,-23.1 21.179,-33.906 h -48.494 l -14.81,81.954 c 0,0 0,8.292 -9.18,8.292 0,0 -8.916,0.963 -7.472,-7.852 l 14.66,-82.845 h -52.898"
   id="path37"
   inkscape:connector-curvature="0"
   style="fill:#a30036" />
<path
   d="m 270.09,127.983 c 0,0 -14.372,13.55 -14.372,15.92 0,2.369 4.663,21.094 4.663,21.094 l -19.054,17.327 c 0,0 -0.564,17.839 3.439,22.206 0,0 -8.656,-10.215 -8.258,-24.131 0,0 -8.77,-7.699 -9.178,-9.183 -0.402,-1.407 -6.259,1.483 -11.475,6.738 v -2.886 l 9.22,-8.585 c 0,0 1.331,-13.926 5.184,-22.065 0,0 -1.848,-11.627 5.32,-17.839 0,0 -3.474,10.594 -1.479,13.996 l 17.892,-1.046 c -0.002,0.002 15.725,-10.953 18.098,-11.546"
   id="path39"
   inkscape:connector-curvature="0"
   style="fill:#1a2d43" />
<path
   d="m 250.758,20.936 c 0.412,0.156 38.945,12.884 78.916,17.031 32.914,3.556 81.138,1.185 81.659,1.185 l 0.559,118.669 c 0,0.071 -1.225,34.72 -5.597,55.888 -6.141,28.873 -11.726,44.565 -25.205,69.743 -14.508,27.234 -25.43,41.749 -48.642,64.477 -14.395,14.136 -26.096,21.761 -39.719,30.577 -5.993,3.995 -12.244,8.07 -19.43,13.176 -10.391,7.4 -22.397,15.102 -22.543,15.102 -0.257,0 -12.366,-7.699 -22.766,-15.102 -7.208,-5.106 -13.468,-9.182 -19.578,-13.176 C 194.94,369.69 183.204,362.065 168.808,347.929 145.493,325.204 134.717,310.687 120.16,283.452 106.736,258.274 101.141,242.582 95.147,213.709 90.589,192.54 89.26,157.891 89.26,157.597 c 0,0.147 0,-120.148 0,-120.148 2.258,0.072 49.308,4.075 82.214,0.518 40.125,-4.149 78.92,-16.875 79.284,-17.031 v -8.439 c -0.364,0.148 -40.898,13.476 -80.06,17.624 -32.239,3.257 -84.507,-1.042 -85.03,-1.042 l -4.402,-0.288 v 128.952 c 0,1.635 1.481,35.834 5.998,57.681 6.141,29.379 12.261,46.113 25.875,71.723 14.774,27.842 26.504,43.386 50.087,66.482 15.064,14.728 27.049,22.506 40.782,31.528 6,4.003 12.402,8.008 19.327,13.039 10.655,7.55 25.06,16.653 25.321,16.733 l 2.103,1.474 2.005,-1.474 c 0.143,-0.08 14.654,-9.184 25.202,-16.733 7.07,-5.031 13.333,-9.035 19.332,-13.039 13.736,-9.023 25.722,-16.801 40.75,-31.528 23.616,-23.097 35.202,-38.642 50.115,-66.482 13.734,-25.609 19.732,-42.418 25.837,-71.723 4.662,-21.847 5.738,-56.048 5.877,-57.534 0,-0.147 -0.652,-122.882 -0.652,-122.882 v -4.072 l -4.156,0.068 c -0.512,0.074 -52.227,2.374 -84.462,-0.883 -39.308,-4.148 -79.434,-17.476 -79.848,-17.624 l -10e-4,8.439"
   id="path41"
   inkscape:connector-curvature="0"
   style="fill:#1a2d43" />
<polyline
   points="292.842,24.047 303.763,51.294 331.19,51.294 308.681,68.762 317.092,95.262 292.842,79.491   268.446,95.63 276.438,68.762 254.572,51.294 282.187,51.294 292.842,24.047 "
   id="polyline43"
   style="fill:#ffffff"
   transform="translate(-41.116,0)" />
<polyline
   points="292.698,61.501 282.187,51.294 292.842,24.047 292.698,61.501 "
   id="polyline45"
   style="fill:#1a2d43"
   transform="translate(-41.116,0)" />
<polyline
   points="293.211,61.651 254.572,51.294 276.438,68.762 293.211,61.651 "
   id="polyline47"
   style="fill:#1a2d43"
   transform="translate(-41.116,0)" />
<polyline
   points="292.698,61.501 268.446,95.63 292.842,79.491 292.698,61.501 "
   id="polyline49"
   style="fill:#1a2d43"
   transform="translate(-41.116,0)" />
<polyline
   points="291.874,61.059 318.167,96.594 308.681,68.762 291.874,61.059 "
   id="polyline51"
   style="fill:#1a2d43"
   transform="translate(-41.116,0)" />
<polyline
   points="291.874,62.243 303.763,51.294 332.153,51.294 291.874,62.243 "
   id="polyline53"
   style="fill:#1a2d43"
   transform="translate(-41.116,0)" />
<polyline
   points="253.238,267.163 253.238,385.095 266.19,394.94 279.508,402.044 279.508,267.163 253.238,267.163   "
   id="polyline55"
   style="fill:#1a2d43"
   transform="translate(-41.116,0)" />
<polyline
   points="200.747,267.163 200.747,342.97 211.256,353.478 226.99,366.356 226.99,267.163 200.747,267.163   "
   id="polyline57"
   style="fill:#1a2d43"
   transform="translate(-41.116,0)" />
<polyline
   points="149.294,267.163 165.696,295.738 174.505,310.841 174.505,267.163 149.294,267.163 "
   id="polyline59"
   style="fill:#1a2d43"
   transform="translate(-41.116,0)" />
<polyline
   points="403.44,42.258 411.429,62.686 432.209,62.686 415.29,75.716 421.539,95.63 403.44,83.715   385.155,95.85 391.037,75.716 374.795,62.686 395.449,62.686 403.44,42.258 "
   id="polyline61"
   style="fill:#ffffff"
   transform="translate(-41.116,0)" />
<polyline
   points="403.296,70.235 395.449,62.686 403.44,42.258 403.296,70.235 "
   id="polyline63"
   style="fill:#1a2d43"
   transform="translate(-41.116,0)" />
<polyline
   points="403.704,70.391 374.795,62.686 391.037,75.716 403.704,70.391 "
   id="polyline65"
   style="fill:#1a2d43"
   transform="translate(-41.116,0)" />
<polyline
   points="403.296,70.235 385.155,95.85 403.44,83.715 403.296,70.235 "
   id="polyline67"
   style="fill:#1a2d43"
   transform="translate(-41.116,0)" />
<polyline
   points="402.777,69.943 422.208,96.594 415.29,75.716 402.777,69.943 "
   id="polyline69"
   style="fill:#1a2d43"
   transform="translate(-41.116,0)" />
<polyline
   points="402.777,70.978 411.429,62.686 432.873,62.686 402.777,70.978 "
   id="polyline71"
   style="fill:#1a2d43"
   transform="translate(-41.116,0)" />
<polyline
   points="183.945,42.258 191.938,62.686 212.48,62.686 195.677,75.716 202.083,95.63 183.945,83.715   165.583,95.85 171.584,75.716 155.293,62.686 175.835,62.686 183.945,42.258 "
   id="polyline73"
   style="fill:#ffffff"
   transform="translate(-41.116,0)" />
<polyline
   points="183.829,70.235 175.835,62.686 183.945,42.258 183.829,70.235 "
   id="polyline75"
   style="fill:#1a2d43"
   transform="translate(-41.116,0)" />
<polyline
   points="184.237,70.391 155.293,62.686 171.584,75.716 184.237,70.391 "
   id="polyline77"
   style="fill:#1a2d43"
   transform="translate(-41.116,0)" />
<polyline
   points="183.829,70.235 165.583,95.85 183.945,83.715 183.829,70.235 "
   id="polyline79"
   style="fill:#1a2d43"
   transform="translate(-41.116,0)" />
<polyline
   points="183.166,69.943 202.741,96.594 195.677,75.716 183.166,69.943 "
   id="polyline81"
   style="fill:#1a2d43"
   transform="translate(-41.116,0)" />
<polyline
   points="183.166,70.978 191.938,62.686 213.403,62.686 183.166,70.978 "
   id="polyline83"
   style="fill:#1a2d43"
   transform="translate(-41.116,0)" />
<path
   d="m 403.919,378.079 c 8.116,0 14.579,6.589 14.579,14.843 0,8.373 -6.463,14.905 -14.641,14.905 -8.118,0 -14.711,-6.532 -14.711,-14.905 0,-8.254 6.593,-14.843 14.711,-14.843 h 0.062 m -0.061,2.311 c -6.529,0 -11.873,5.605 -11.873,12.533 0,7.054 5.344,12.598 11.935,12.598 6.605,0.062 11.878,-5.544 11.878,-12.536 0,-6.988 -5.272,-12.594 -11.878,-12.594 l -0.062,-0.001 0,0 z m -2.771,21.174 h -2.635 v -16.562 c 1.382,-0.198 2.697,-0.393 4.675,-0.393 2.512,0 4.16,0.524 5.152,1.252 0.988,0.729 1.514,1.842 1.514,3.429 0,2.176 -1.449,3.493 -3.235,4.022 v 0.13 c 1.449,0.269 2.438,1.587 2.771,4.026 0.394,2.574 0.793,3.562 1.056,4.095 h -2.771 c -0.397,-0.533 -0.797,-2.048 -1.124,-4.218 -0.391,-2.119 -1.445,-2.908 -3.562,-2.908 h -1.841 v 7.127 z m 0,-9.172 h 1.907 c 2.181,0 4.033,-0.792 4.033,-2.831 0,-1.454 -1.058,-2.908 -4.033,-2.908 -0.854,0 -1.456,0.067 -1.907,0.134 v 5.605 z"
   id="path85"
   inkscape:connector-curvature="0"
   style="fill:#ffffff" />
</svg>