<?xml version="1.0" encoding="utf-8"?>
<!-- Generator: Adobe Illustrator 12.0.0, SVG Export Plug-In  -->
<!DOCTYPE svg PUBLIC "-//W3C//DTD SVG 1.1//EN" "http://www.w3.org/Graphics/SVG/1.1/DTD/svg11.dtd" [
	<!ENTITY ns_flows "http://ns.adobe.com/Flows/1.0/">
	<!ENTITY ns_svg "http://www.w3.org/2000/svg">
	<!ENTITY ns_xlink "http://www.w3.org/1999/xlink">
]>
<svg  version="1.1" xmlns="&ns_svg;" xmlns:xlink="&ns_xlink;" xmlns:a="http://ns.adobe.com/AdobeSVGViewerExtensions/3.0/"
	 width="195" height="351" viewBox="-0.3779297 -0.3779297 195 351" enable-background="new -0.3779297 -0.3779297 195 351"
	 xml:space="preserve">
<defs>
</defs>
<polygon opacity="0" fill-rule="evenodd" clip-rule="evenodd" fill="#FFFFFF" fill-opacity="0" points="0,0 194,0 194,350 0,350 
	0,0 "/>
<path opacity="0" fill-rule="evenodd" clip-rule="evenodd" fill="#FFFFFF" fill-opacity="0" d="M135.8994141,334.5585938
	l-40.0146484-28.1103516l-39.9379883,28.1103516v-60.9824219H45.5786133v8.9101563H29.9106445v-8.9101563H18.6206055v-64.8974609
	h6.3745117l-0.3837891-0.3847656l-0.4609375-0.5371094l-0.4609375-0.5371094l-0.4604492-0.6162109l-0.4609375-0.6132813
	l-0.4609375-0.6914063l-0.4609375-0.6132813l-0.4609375-0.6914063l-0.3842773-0.6923828l-0.4609375-0.6152344l-0.3837891-0.6894531
	l-0.4604492-0.6914063l-0.3847656-0.6914063l-0.3837891-0.6914063l-0.3837891-0.6923828l-0.3076172-0.6914063l-0.3066406-0.6894531
	l-0.3071289-0.6914063l-0.2304688-0.6914063l-0.2304688-0.6142578l-0.2304688-0.6914063l-0.2304688-0.6152344l-0.2304688-0.6132813
	l-0.2304688-0.6152344l-0.1533203-0.6132813l-0.1533203-0.6152344l-0.1542969-0.5380859l-0.2299805-0.6152344l-0.1542969-0.5371094
	l-0.1533203-0.6132813l-0.1533203-0.5371094l-0.1533203-0.5390625l-0.1533203-0.5371094l-0.1542969-0.5380859l-0.2294922-0.5371094
	l-0.1542969-0.5371094l-0.1533203-0.5390625l-0.230957-0.5371094l-0.1533203-0.4609375l-0.2304688-0.5371094l-0.3076172-0.6142578
	l-0.3066406-0.7695313l-0.3076172-0.9199219l-0.2294922-0.8457031l-0.1542969-0.9990234l-0.0771484-1.1523438l0.1542969-1.4589844
	l0.6904297-1.8427734l1.7670898-1.9194336l1.5356445-0.6142578l-0.1533203-0.4619141l-0.1533203-0.6137695l-0.1542969-0.5380859
	l-0.2299805-0.6142578l-0.1542969-0.5371094l-0.1533203-0.6147461l-0.1533203-0.5371094l-0.1533203-0.5380859l-0.1533203-0.5375977
	l-0.1542969-0.5380859l-0.2294922-0.5371094l-0.1542969-0.5371094l-0.1533203-0.5375977l-0.230957-0.5380859l-0.1533203-0.4609375
	l-0.2304688-0.5375977l-0.3076172-0.6152344l-0.3066406-0.7675781l-0.3076172-0.8442383l-0.2294922-0.921875l-0.1542969-0.9985352
	l-0.0771484-1.1523438l0.1542969-1.4584961l0.6904297-1.8432617l1.7670898-1.9204102l1.5356445-0.6142578l-0.1533203-0.3842773
	l-0.1533203-0.6142578l-0.1542969-0.5380859l-0.2299805-0.6137695l-0.1542969-0.5380859l-0.1533203-0.6142578l-0.1533203-0.5375977
	l-0.1533203-0.5380859l-0.1533203-0.5371094l-0.1542969-0.5380859l-0.2294922-0.5375977l-0.1542969-0.5371094l-0.1533203-0.5380859
	l-0.230957-0.5371094l-0.1533203-0.4614258l-0.2304688-0.5371094l-0.3076172-0.6152344l-0.3066406-0.7680664l-0.3076172-0.84375
	l-0.2294922-0.9223633l-0.1542969-0.9980469l-0.0771484-1.152832l0.1542969-1.4584961l0.6904297-1.8432617l1.7670898-1.9204102
	l1.3823242-0.5371094l0,0l-0.1533203-0.6152344l-0.1542969-0.6142578l-0.2299805-0.5375977l-0.1542969-0.6142578
	l-0.1533203-0.5371094l-0.1533203-0.5385742l-0.1533203-0.6142578l-0.1533203-0.5371094l-0.1542969-0.5380859l-0.2294922-0.4604492
	l-0.1542969-0.5380859l-0.1533203-0.5371094l-0.230957-0.5385742l-0.1533203-0.5371094l-0.2304688-0.5371094l-0.3076172-0.6147461
	l-0.3066406-0.7685547l-0.3076172-0.84375l-0.2294922-0.8452148l-0.1542969-0.9980469l-0.0771484-1.1518555l0.1542969-1.4604492
	l0.6904297-1.9194336l1.7670898-1.8432617l2.4575195-0.9980469l2.0737305,0.0761719l1.4584961,0.4609375l0.9995117,0.5371094
	l0.8447266,0.5385742l0.7675781,0.6142578l0.6147461,0.6142578l0.6142578,0.6147461l0.4609375,0.4609375l0.3842773,0.4599609
	l0.3837891,0.3837891l0.3837891,0.3842773l0.3837891,0.3847656l0.1533203,0.0761719v-0.2304688l0.0771484-0.7680664v-0.84375
	l0.1533203-0.769043l0.0771484-0.7675781l0.1542969-0.6914063l0.0766602-0.7680664l0.1533203-0.6914063l0.1533203-0.690918
	l0.1542969-0.6152344l0.1533203-0.6904297l0.2304688-0.6147461l0.1533203-0.6142578l0.1533203-0.6142578l0.2304688-0.6147461
	l0.1533203-0.6142578l0.1542969-0.5380859l0.2299805-0.5371094l0.1542969-0.6147461l0.1533203-0.5371094l0.1542969-0.5371094
	l0.1523438-0.5385742l0.1542969-0.5371094l0.1533203-0.5380859l0.1533203-0.5375977L30.371582,103.6875l0.1533203-0.5371094
	l0.0771484-0.5371094l0.1533203-0.6157227l0.0766602-0.6132813l0.1538086-0.8452148l0.2299805-0.8447266l0.3076172-0.921875
	l0.3837891-0.9213867l0.5380859-0.9980469l0.9213867-1.0756836l1.6899414-1.2290039l2.4575195-0.6142578l2.5336914,0.5371094
	l1.7670898,1.2299805l0.9213867,1.1518555l0.6152344,1.0742188l0.3837891,0.9223633l0.2294922,0.8447266l0.230957,0.921875
	l0.1533203,0.7680664l0.1542969,0.6904297l0.0761719,0.5385742l0.0771484,0.5371094l0.1542969,0.5371094l0.1523438,0.5380859
	l0.1542969,0.5375977l0.0761719,0.5380859l0.1542969,0.5371094l0.1533203,0.5385742l0.2304688,0.5371094l0.1533203,0.5371094
	l0.1538086,0.6147461l0.1542969,0.5371094l0.2294922,0.5380859l0.1542969,0.6142578l0.1533203,0.6147461l0.2304688,0.6142578
	l0.1533203,0.6142578l0.1542969,0.6147461l0.2294922,0.6142578l0.1542969,0.6914063l0.1533203,0.690918l0.1538086,0.6914063
	l0.1533203,0.7680664l0.0771484,0.6914063l0.1533203,0.7675781l0.0771484,0.769043l0.0761719,0.7675781v0.8442383
	l0.0771484,0.3847656l0.2304688-0.2304688l0.4599609-0.3847656l0.3847656-0.3842773l0.3842773-0.3837891l0.3837891-0.4599609
	l0.4609375-0.4609375l0.6142578-0.6147461l0.6137695-0.6142578l0.7685547-0.6142578l0.7685547-0.5385742l1.074707-0.5371094
	l1.2290039-0.3837891V55.762207H17.3144531V15.440918h156.7548828V55.762207h-38.1699219v58.4477539l1.3828125,0.4609375
	l1.0742188,0.5371094l0.7675781,0.5385742l0.7685547,0.6142578l0.6152344,0.6142578l0.6132813,0.6147461l0.4609375,0.4609375
	l0.3847656,0.4599609l0.3828125,0.3837891l0.3847656,0.3842773l0.4609375,0.3847656l0.2314453,0.2304688l0.0761719-0.3847656
	v-0.8442383l0.0761719-0.7675781l0.078125-0.769043l0.1523438-0.7675781l0.078125-0.6914063l0.1523438-0.7680664
	l0.1542969-0.6914063l0.1523438-0.690918l0.1542969-0.6914063l0.1542969-0.6142578l0.2304688-0.6147461l0.1523438-0.6142578
	l0.1542969-0.6142578l0.2304688-0.6147461l0.1542969-0.6142578l0.2285156-0.5380859l0.1542969-0.5371094l0.1542969-0.6147461
	l0.1523438-0.5371094l0.1542969-0.5371094l0.2304688-0.5385742l0.0761719-0.5371094l0.1542969-0.5380859l0.1533203-0.5375977
	l0.1542969-0.5380859l0.0761719-0.5371094l0.1542969-0.5371094l0.0761719-0.5385742l0.1542969-0.6904297l0.1542969-0.7680664
	l0.1523438-0.921875l0.3066406-0.8447266l0.3847656-0.9223633l0.5371094-1.0742188l0.9980469-1.1518555l1.7685547-1.2299805
	l2.5332031-0.5371094l2.4580078,0.6142578l1.6904297,1.2290039l0.9199219,1.0756836l0.5390625,0.9980469l0.3828125,0.9213867
	l0.3085938,0.921875l0.2285156,0.8447266l0.1542969,0.8452148l0.0761719,0.6132813l0.1542969,0.6157227l0.0761719,0.5371094
	l0.1542969,0.5371094l0.1542969,0.5380859l0.1523438,0.5375977l0.0771484,0.5380859l0.1542969,0.5371094l0.2304688,0.5385742
	l0.1542969,0.5371094l0.1523438,0.5371094l0.1542969,0.6147461l0.2304688,0.5371094l0.1542969,0.5380859l0.1523438,0.6142578
	l0.2304688,0.6147461l0.1542969,0.6142578l0.1523438,0.6142578l0.2304688,0.6147461l0.1542969,0.6904297l0.1523438,0.6152344
	l0.1542969,0.690918l0.1542969,0.6914063l0.0761719,0.7680664l0.1542969,0.6914063l0.0761719,0.7675781l0.0761719,0.769043
	l0.078125,0.84375l0.0761719,0.7680664v0.2304688l0.1542969-0.0761719l0.3837891-0.3847656l0.3847656-0.3842773l0.3828125-0.3837891
	l0.3847656-0.4599609l0.4609375-0.4609375l0.6132813-0.6147461l0.6152344-0.6142578l0.7675781-0.6142578l0.8447266-0.5385742
	l1-0.5371094l1.4570313-0.4609375l2.0751953-0.0761719l2.4570313,0.9980469l1.7666016,1.8432617l0.6914063,1.9194336
	l0.1523438,1.4604492l-0.0761719,1.1518555l-0.1542969,0.9980469l-0.2285156,0.8452148l-0.3085938,0.84375l-0.3066406,0.7685547
	l-0.3066406,0.6147461l-0.2304688,0.5371094l-0.1542969,0.5371094l-0.2304688,0.5385742l-0.1523438,0.5371094l-0.2304688,0.5380859
	l-0.1542969,0.4604492l-0.1542969,0.5380859l-0.1533203,0.5371094l-0.1542969,0.6142578l-0.1523438,0.5385742l-0.1542969,0.5371094
	l-0.1542969,0.6142578l-0.2285156,0.5375977l-0.1542969,0.6142578l-0.1542969,0.6152344l0,0l1.3828125,0.5371094
	l1.7666016,1.9204102l0.6914063,1.8432617l0.1523438,1.4584961l-0.0761719,1.152832l-0.1542969,0.9980469l-0.2285156,0.9223633
	l-0.3085938,0.84375l-0.3066406,0.7680664l-0.3066406,0.6152344l-0.2304688,0.5371094l-0.1542969,0.4614258l-0.2304688,0.5371094
	l-0.1523438,0.5380859l-0.2304688,0.5371094l-0.1542969,0.5375977l-0.1542969,0.5380859l-0.1533203,0.5371094l-0.1542969,0.5380859
	l-0.1523438,0.5375977l-0.1542969,0.6142578l-0.1542969,0.5380859l-0.2285156,0.6137695l-0.1542969,0.5380859l-0.1542969,0.6142578
	l-0.1523438,0.3842773l1.5351563,0.6142578l1.7666016,1.9204102l0.6914063,1.8432617l0.1523438,1.4584961l-0.0761719,1.1523438
	l-0.1542969,0.9985352l-0.2285156,0.921875l-0.3085938,0.8442383l-0.3066406,0.7675781l-0.3066406,0.6152344l-0.2304688,0.5375977
	l-0.1542969,0.4609375l-0.2304688,0.5380859l-0.1523438,0.5375977l-0.2304688,0.5371094l-0.1542969,0.5371094l-0.1542969,0.5380859
	l-0.1533203,0.5375977l-0.1542969,0.5380859l-0.1523438,0.5371094l-0.1542969,0.6147461l-0.1542969,0.5371094l-0.2285156,0.6142578
	l-0.1542969,0.5380859l-0.1542969,0.6137695l-0.1523438,0.4619141l1.5351563,0.6142578l1.7666016,1.9194336l0.6914063,1.8427734
	l0.1523438,1.4589844l-0.0761719,1.1523438l-0.1542969,0.9990234l-0.2285156,0.8457031l-0.3085938,0.9199219l-0.3066406,0.7695313
	l-0.3066406,0.6142578l-0.2304688,0.5371094l-0.1542969,0.4609375l-0.2304688,0.5371094l-0.1523438,0.5390625l-0.2304688,0.5371094
	l-0.1542969,0.5371094l-0.1542969,0.5380859l-0.1533203,0.5371094l-0.1542969,0.5390625l-0.1523438,0.5371094l-0.1542969,0.6132813
	l-0.1542969,0.5371094l-0.2285156,0.6152344l-0.1542969,0.5380859l-0.1542969,0.6152344l-0.2304688,0.6132813l-0.1523438,0.6152344
	l-0.2304688,0.6132813l-0.2304688,0.6152344l-0.2304688,0.6914063l-0.2304688,0.6142578l-0.2304688,0.6914063l-0.3085938,0.6914063
	l-0.3046875,0.6894531l-0.3085938,0.6914063l-0.3837891,0.6923828l-0.3847656,0.6914063l-0.3847656,0.6914063l-0.4589844,0.6914063
	l-0.4609375,0.6894531l-0.3847656,0.6152344l-0.3828125,0.6923828l-0.4609375,0.6914063l-0.4619141,0.6132813l-0.4609375,0.6914063
	l-0.4609375,0.6132813l-0.4609375,0.6162109l-0.4609375,0.5371094l-0.5371094,0.5371094l-0.3066406,0.3847656h6.2207031v64.8974609
	h-11.1367188v8.9101563h-15.6679688v-8.9101563h-10.5214844V334.5585938L135.8994141,334.5585938z M68.9267578,55.762207
	l26.9580078,19.0478516l27.0341797-19.0478516H68.9267578L68.9267578,55.762207z M55.9467773,208.6787109v-7.7578125
	l-0.2304688,0.3847656l-0.4614258,0.6914063l-0.4599609,0.6894531l-0.3837891,0.6152344l-0.4609375,0.6923828l-0.4609375,0.6914063
	l-0.4614258,0.6132813l-0.4599609,0.6914063l-0.4619141,0.6132813l-0.4604492,0.6162109l-0.4609375,0.5371094l-0.4599609,0.5371094
	l-0.3076172,0.3847656H55.9467773L55.9467773,208.6787109z M141.5820313,208.6787109l-0.3066406-0.3847656l-0.4609375-0.5371094
	l-0.4609375-0.5371094l-0.5371094-0.6162109l-0.4619141-0.6132813l-0.4609375-0.6914063l-0.4609375-0.6132813l-0.4609375-0.6914063
	l-0.3828125-0.6923828l-0.3847656-0.6152344l-0.4589844-0.6894531l-0.4628906-0.6914063l-0.3828125-0.6914063v8.0644531H141.5820313
	L141.5820313,208.6787109z"/>
<polygon fill-rule="evenodd" clip-rule="evenodd" points="22.690918,212.8261719 169.1533203,212.8261719 169.1533203,269.5068359 
	22.690918,269.5068359 22.690918,212.8261719 "/>
<path fill-rule="evenodd" clip-rule="evenodd" fill="#FFE625" d="M36.2851563,135.4077148h0.0771484l0.2299805,0.3837891
	l0.2304688,0.3842773l0.2304688,0.3837891l0.2304688,0.3076172l0.1533203,0.3837891l0.2304688,0.3066406v0.078125
	l0.0771484-0.078125l0.1533203-0.3066406l0.2304688-0.3837891l0.2304688-0.3076172l0.2299805-0.3837891l0.2314453-0.3842773
	l0.2294922-0.3837891l0.0771484-0.0761719l-0.2304688,0.0761719l-0.4604492,0.0761719h-0.3847656l-0.4609375,0.078125
	l-0.4599609-0.078125H36.746582L36.2851563,135.4077148L36.2851563,135.4077148z M41.4311523,209.6005859v68.7382813h-7.3730469
	v-68.7382813h-0.1542969l-0.3837891-0.078125l-0.4609375-0.0761719l-0.3842773-0.1542969l-0.4599609-0.1523438l-0.3837891-0.1542969
	l-0.4609375-0.2304688l-0.3842773-0.2304688l-0.3837891-0.3066406l-0.4609375-0.3066406l-0.3847656-0.3085938l-0.3837891-0.3828125
	l-0.3837891-0.3076172l-0.3842773-0.4609375l-0.4599609-0.3847656l-0.3847656-0.4609375l-0.3837891-0.4609375l-0.4614258-0.5371094
	l-0.3837891-0.5371094l-0.3837891-0.5371094l-0.4599609-0.6162109l-0.3847656-0.6132813l-0.4614258-0.6152344l-0.3837891-0.6132813
	l-0.4599609-0.6152344l-0.3837891-0.6132813l-0.3842773-0.6162109l-0.3076172-0.6132813l-0.3076172-0.6152344l-0.3066406-0.6132813
	l-0.3076172-0.6152344l-0.3066406-0.6132813l-0.230957-0.5380859l-0.2304688-0.6152344l-0.2304688-0.6152344l-0.2294922-0.5371094
	l-0.1542969-0.6132813l-0.2304688-0.6152344l-0.1533203-0.5371094l-0.1533203-0.6142578l-0.2304688-0.5390625l-0.1538086-0.5371094
	l-0.1538086-0.6132813l-0.1538086-0.5371094l-0.1533203-0.6152344l-0.1533203-0.5380859l-0.1542969-0.5371094l-0.2294922-0.6152344
	l-0.1542969-0.5371094l-0.1533203-0.6152344l-0.2304688-0.5371094l-0.2304688-0.6132813l-0.1533203-0.6162109l-0.230957-0.5371094
	l-0.3066406-0.6132813l-0.2304688-0.6152344l-0.3076172-0.6914063l-0.1533203-0.6132813l-0.1533203-0.5380859l-0.1542969-0.5390625
	v-0.6132813l0.0771484-0.5371094l0.2304688-0.6914063l0.5371094-0.5371094l0.7680664-0.3085938h0.6914063l0.5380859,0.1542969
	l0.5375977,0.3066406l0.4609375,0.3085938l0.4599609,0.3828125l0.4609375,0.4609375l0.4609375,0.4609375l0.4614258,0.5371094
	l0.4599609,0.4609375l0.4609375,0.4609375l0.4609375,0.3837891l0.4614258,0.4609375l0.4599609,0.3847656l0.4609375,0.3828125
	l0.4609375,0.3847656l0.3842773,0.3828125l0.3837891,0.3085938l-0.2294922-0.3085938l-0.3847656-0.6132813L24.8408203,181.875
	l-0.3837891-0.6152344l-0.4599609-0.6152344l-0.3837891-0.6142578l-0.3842773-0.6152344l-0.3076172-0.6132813l-0.3076172-0.6132813
	l-0.3066406-0.6152344l-0.3076172-0.6152344l-0.3066406-0.6142578l-0.230957-0.5371094l-0.2304688-0.6152344l-0.2304688-0.6142578
	l-0.2294922-0.5371094l-0.1542969-0.6147461l-0.2304688-0.6142578l-0.1533203-0.5375977l-0.1533203-0.5380859l-0.2304688-0.6142578
	l-0.1538086-0.5371094l-0.1538086-0.6147461l-0.1538086-0.5371094l-0.1533203-0.6152344l-0.1533203-0.5375977l-0.1542969-0.5371094
	l-0.2294922-0.6142578l-0.1542969-0.5375977l-0.1533203-0.6152344l-0.2304688-0.5371094l-0.2304688-0.6142578l-0.1533203-0.6147461
	l-0.230957-0.5380859l-0.3066406-0.6132813l-0.2304688-0.6147461l-0.3076172-0.6914063l-0.1533203-0.6142578l-0.1533203-0.5375977
	l-0.1542969-0.5380859v-0.6142578l0.0771484-0.5375977l0.2304688-0.6142578l0.5371094-0.6142578l0.7680664-0.3076172h0.6914063
	l0.5380859,0.1533203l0.5375977,0.3076172l0.4609375,0.3076172l0.4599609,0.3837891l0.4609375,0.4604492l0.4609375,0.4609375
	l0.4614258,0.5380859l0.4599609,0.4599609l0.4609375,0.4614258l0.4609375,0.3837891l0.4614258,0.4609375l0.4599609,0.3837891
	L24.6875,162.519043l0.4609375,0.3842773l0.3842773,0.3837891l0.2304688,0.2304688l-0.0761719-0.1533203L25.3022461,162.75
	l-0.4614258-0.6147461l-0.3837891-0.6142578l-0.4599609-0.6142578l-0.3837891-0.6147461l-0.3842773-0.6142578l-0.3076172-0.6142578
	l-0.3076172-0.6147461l-0.3066406-0.6142578l-0.3076172-0.6142578l-0.3066406-0.6147461l-0.230957-0.5371094l-0.2304688-0.6142578
	l-0.2304688-0.6157227l-0.2294922-0.5371094l-0.1542969-0.6142578l-0.2304688-0.6147461l-0.1533203-0.5371094l-0.1533203-0.5380859
	l-0.2304688-0.6137695l-0.1538086-0.5380859l-0.1538086-0.6142578l-0.1538086-0.5375977l-0.1533203-0.6142578l-0.1533203-0.5380859
	l-0.1542969-0.5371094l-0.2294922-0.6147461l-0.1542969-0.5371094l-0.1533203-0.6152344l-0.2304688-0.5375977l-0.2304688-0.6142578
	l-0.1533203-0.6142578l-0.230957-0.5380859l-0.3066406-0.6137695l-0.2304688-0.6142578l-0.3076172-0.6918945l-0.1533203-0.6142578
	l-0.1533203-0.5371094l-0.1542969-0.5380859v-0.6147461l0.0771484-0.5371094l0.2304688-0.6142578l0.5371094-0.6157227
	l0.7680664-0.3056641h0.6914063l0.5380859,0.1533203l0.5375977,0.3066406l0.4609375,0.3076172l0.4599609,0.3842773
	l0.4609375,0.4599609l0.4609375,0.4609375l0.4614258,0.5385742l0.4599609,0.4599609l0.4609375,0.4609375l0.4609375,0.3837891
	l0.4614258,0.4609375l0.4599609,0.3842773l0.4609375,0.3837891l0.3837891,0.3837891l-0.2304688-0.3066406l-0.3837891-0.6914063
	l-0.4599609-0.6147461L23.6132813,140.9375l-0.3842773-0.6142578l-0.3076172-0.6147461l-0.3076172-0.6142578l-0.3066406-0.6142578
	l-0.3076172-0.5385742l-0.3066406-0.6132813l-0.230957-0.6142578l-0.2304688-0.6147461l-0.2304688-0.5371094l-0.2294922-0.6152344
	l-0.1542969-0.5375977l-0.2304688-0.6142578l-0.1533203-0.5380859l-0.1533203-0.6142578l-0.2304688-0.5375977l-0.1538086-0.6142578
	l-0.1538086-0.5371094l-0.1538086-0.6147461l-0.1533203-0.5380859l-0.1533203-0.5371094l-0.1542969-0.6147461l-0.2294922-0.5371094
	l-0.1542969-0.6142578l-0.1533203-0.5380859l-0.2304688-0.6147461l-0.2304688-0.5371094l-0.1533203-0.6142578l-0.230957-0.6147461
	l-0.3066406-0.6142578l-0.2304688-0.6142578l-0.3076172-0.6147461l-0.1533203-0.6142578l-0.1533203-0.6142578l-0.1542969-0.5385742
	v-0.5371094l0.0771484-0.6142578l0.2304688-0.6147461l0.5371094-0.6142578l0.7680664-0.3066406l0.6914063,0.0761719
	l0.5380859,0.1533203l0.5375977,0.2304688l0.4609375,0.3076172l0.4599609,0.3837891l0.4609375,0.4614258l0.4609375,0.5371094
	l0.4614258,0.4609375l0.4599609,0.4604492l0.4609375,0.4619141l0.4609375,0.4599609l0.4614258,0.3837891l0.4599609,0.4609375
	L24.6875,123.503418l0.4609375,0.3837891l0.3842773,0.3847656l0.4609375,0.3837891l0.4609375,0.3837891l0.4599609,0.3842773
	l0.4614258,0.3837891l0.4609375,0.3066406l0.4609375,0.3847656l0.4599609,0.3837891l0.4614258,0.3842773l0.4609375,0.3837891
	l0.4609375,0.4609375l0.4609375,0.3837891l0.4604492,0.3842773l0.3076172,0.3076172l-0.1542969-0.4619141l-0.0761719-0.5375977
	L31.0625,127.5737305l-0.0766602-0.6142578l-0.0766602-0.6918945l-0.0771484-0.6904297v-0.6914063l-0.0766602-0.6918945v-0.7675781
	v-0.7680664v-0.7675781v-0.6914063v-0.7680664l0.0766602-0.6914063v-0.690918l0.0771484-0.6914063l0.0766602-0.6904297
	l0.0766602-0.6918945l0.1533203-0.6142578l0.0771484-0.6142578l0.1533203-0.6147461l0.1533203-0.6142578l0.0771484-0.6142578
	l0.1542969-0.6157227l0.2304688-0.6132813l0.1533203-0.5380859l0.1533203-0.6147461l0.1533203-0.5371094l0.1533203-0.6142578
	l0.230957-0.5375977l0.1533203-0.5380859l0.1542969-0.6142578l0.2304688-0.5375977l0.1533203-0.5380859l0.1533203-0.6132813
	l0.1533203-0.5380859l0.1542969-0.6147461l0.1533203-0.6142578l0.1533203-0.5371094l0.1542969-0.6157227l0.1533203-0.6904297
	l0.1538086-0.6142578l0.0771484-0.6918945l0.1533203-0.6142578l0.1533203-0.6904297l0.1533203-0.5385742l0.2304688-0.5371094
	l0.3076172-0.4609375l0.3837891-0.4609375l0.5375977-0.3842773l0.7675781-0.2294922l0.7685547,0.2294922l0.6147461,0.3842773
	l0.3837891,0.4609375l0.2304688,0.4609375l0.2304688,0.5371094l0.2294922,0.5385742l0.1542969,0.6904297l0.0766602,0.6914063
	l0.1533203,0.6147461l0.0771484,0.6914063l0.1542969,0.6132813l0.1523438,0.6157227l0.078125,0.5371094l0.1533203,0.6142578
	l0.2304688,0.6147461l0.1533203,0.5380859l0.1533203,0.6132813l0.1533203,0.5380859l0.1542969,0.5375977l0.2299805,0.6142578
	l0.1538086,0.5380859l0.1538086,0.5375977l0.2304688,0.6142578l0.1533203,0.5371094l0.1533203,0.6147461l0.1542969,0.5380859
	l0.1533203,0.6132813l0.1533203,0.6157227l0.1533203,0.6142578l0.1542969,0.6142578l0.1533203,0.6147461l0.0761719,0.6142578
	l0.1542969,0.6142578l0.0766602,0.6918945l0.0771484,0.6904297l0.0761719,0.6914063l0.0771484,0.690918v0.6914063v0.7680664
	v0.6914063v0.7675781v0.7680664v0.7675781l-0.0771484,0.6918945v0.6914063l-0.0761719,0.6904297l-0.0771484,0.6918945
	l-0.0766602,0.6142578l-0.0771484,0.6142578l-0.0771484,0.5375977l-0.1533203,0.5380859v0.1533203l0.0771484-0.0761719
	l0.4604492-0.4609375l0.4619141-0.3842773l0.3828125-0.3837891l0.4609375-0.4609375l0.4614258-0.3837891l0.4609375-0.3842773
	l0.4599609-0.3837891l0.4609375-0.3847656l0.4614258-0.3066406l0.4609375-0.3837891l0.4599609-0.3842773l0.4609375-0.3837891
	l0.4614258-0.3837891l0.4609375-0.3847656l0.4609375-0.3837891l0.4599609-0.3842773l0.4609375-0.4609375l0.4604492-0.3837891
	l0.4619141-0.4599609l0.3837891-0.4619141l0.4604492-0.4604492l0.4619141-0.4609375l0.4599609-0.5371094l0.5371094-0.4614258
	l0.4609375-0.3837891l0.4614258-0.3076172l0.4599609-0.2304688l0.6152344-0.1533203l0.690918-0.0761719l0.7685547,0.3066406
	l0.5371094,0.6142578l0.2304688,0.6147461l0.0771484,0.6142578l-0.0771484,0.5371094l-0.0771484,0.5385742l-0.1533203,0.6142578
	l-0.2304688,0.6142578l-0.2304688,0.6147461l-0.3076172,0.6142578l-0.2294922,0.6142578l-0.2304688,0.6147461l-0.2304688,0.6142578
	l-0.1538086,0.5371094l-0.2304688,0.6147461l-0.1533203,0.5380859l-0.2304688,0.6142578l-0.1533203,0.5371094L56.3305664,129.1875
	l-0.1533203,0.6132813l-0.1533203,0.5380859l-0.2304688,0.6147461l-0.1533203,0.5371094l-0.1542969,0.6142578l-0.1538086,0.5375977
	l-0.1533203,0.6142578l-0.2304688,0.5380859l-0.1533203,0.6142578l-0.2304688,0.5375977l-0.1533203,0.6152344l-0.2304688,0.5371094
	l-0.2304688,0.6147461l-0.3071289,0.6142578l-0.230957,0.6132813l-0.3071289,0.5385742l-0.3076172,0.6142578l-0.3066406,0.6142578
	l-0.3847656,0.6147461L51.7226563,140.9375l-0.3847656,0.6142578l-0.3837891,0.6147461l-0.4599609,0.6914063l-0.2304688,0.3066406
	l0.4609375-0.3837891l0.4599609-0.3837891l0.4609375-0.3842773l0.4604492-0.4609375l0.4619141-0.3837891l0.3837891-0.4609375
	l0.4604492-0.4599609l0.4619141-0.5385742l0.4599609-0.4609375l0.5371094-0.4599609l0.4609375-0.3842773l0.4614258-0.3076172
	l0.4599609-0.3066406l0.6152344-0.1533203h0.690918l0.7685547,0.3056641l0.5371094,0.5385742l0.2304688,0.6914063
	l0.0771484,0.5371094l-0.0771484,0.6147461l-0.0771484,0.5380859l-0.1533203,0.5371094l-0.2304688,0.6142578l-0.2304688,0.6918945
	l-0.3076172,0.6142578l-0.2294922,0.6137695l-0.2304688,0.5380859l-0.2304688,0.6142578l-0.1538086,0.6142578l-0.2304688,0.5375977
	l-0.1533203,0.6152344l-0.2304688,0.5371094l-0.1533203,0.6147461l-0.1542969,0.5371094l-0.1533203,0.5380859l-0.1533203,0.6142578
	l-0.2304688,0.5375977l-0.1533203,0.6142578l-0.1542969,0.5380859l-0.1538086,0.6137695l-0.1533203,0.5380859l-0.2304688,0.5371094
	l-0.1533203,0.6147461l-0.2304688,0.6142578l-0.1533203,0.5371094l-0.2304688,0.6157227l-0.2304688,0.6142578l-0.3071289,0.5371094
	l-0.230957,0.6147461l-0.3071289,0.6142578l-0.3076172,0.6142578l-0.3066406,0.6147461l-0.3847656,0.6142578l-0.3833008,0.6142578
	l-0.3847656,0.6147461l-0.3837891,0.6142578l-0.4599609,0.6142578L50.1103516,162.75l-0.4614258,0.6142578l-0.0771484,0.1533203
	l0.230957-0.2304688l0.4609375-0.3837891l0.4609375-0.3842773l0.4599609-0.3837891l0.4609375-0.3837891l0.4604492-0.4609375
	l0.4619141-0.3837891l0.3837891-0.4614258l0.4604492-0.4599609l0.4619141-0.5380859l0.4599609-0.4609375l0.5371094-0.4604492
	l0.4609375-0.3837891l0.4614258-0.3076172l0.4599609-0.3076172l0.6152344-0.1533203h0.690918l0.7685547,0.3076172
	l0.5371094,0.5371094l0.2304688,0.6914063l0.0771484,0.5375977l-0.0771484,0.6142578l-0.0771484,0.5380859l-0.1533203,0.5375977
	l-0.2304688,0.6142578l-0.2304688,0.6914063l-0.3076172,0.6147461l-0.2294922,0.6132813l-0.2304688,0.5380859l-0.2304688,0.6147461
	l-0.1538086,0.6142578l-0.2304688,0.5371094l-0.1533203,0.6152344l-0.2304688,0.5375977l-0.1533203,0.6142578l-0.1542969,0.5371094
	l-0.1533203,0.5375977l-0.1533203,0.6152344l-0.2304688,0.5371094l-0.1533203,0.6147461l-0.1542969,0.5371094l-0.1538086,0.6142578
	l-0.1533203,0.5380859l-0.2304688,0.5375977l-0.1533203,0.6142578l-0.2304688,0.6147461l-0.1533203,0.5371094l-0.2304688,0.6142578
	l-0.2304688,0.6152344l-0.3071289,0.5371094l-0.230957,0.6142578l-0.3071289,0.6152344l-0.3076172,0.6152344l-0.3066406,0.6132813
	l-0.3847656,0.6132813l-0.3833008,0.6152344l-0.3847656,0.6142578l-0.3837891,0.6152344L50.4941406,181.875l-0.3837891,0.6132813
	l-0.4614258,0.6132813l-0.1533203,0.3085938l0.3071289-0.3085938l0.4609375-0.3828125l0.4609375-0.3847656l0.4599609-0.3828125
	l0.4609375-0.3847656l0.4604492-0.4609375l0.4619141-0.3837891l0.3837891-0.4609375l0.4604492-0.4609375l0.4619141-0.5371094
	l0.4599609-0.4609375l0.5371094-0.4609375l0.4609375-0.3828125l0.4614258-0.3085938l0.4599609-0.3066406l0.6152344-0.1542969
	h0.690918l0.7685547,0.3085938l0.5371094,0.5371094l0.2304688,0.6914063l0.0771484,0.5371094l-0.0771484,0.6132813
	l-0.0771484,0.5390625l-0.1533203,0.5380859l-0.2304688,0.6132813l-0.2304688,0.6914063l-0.3076172,0.6152344l-0.2294922,0.6132813
	l-0.2304688,0.5371094l-0.2304688,0.6162109l-0.1538086,0.6132813l-0.2304688,0.5371094l-0.1533203,0.6152344l-0.2304688,0.5371094
	l-0.1533203,0.6152344l-0.1542969,0.5371094l-0.1533203,0.5380859l-0.1533203,0.6152344l-0.2304688,0.5371094l-0.1533203,0.6132813
	l-0.1542969,0.5371094l-0.1538086,0.5390625l-0.1533203,0.6142578l-0.2304688,0.5371094l-0.1533203,0.6152344l-0.2304688,0.6132813
	l-0.1533203,0.5371094l-0.2304688,0.6152344l-0.2304688,0.6152344l-0.3071289,0.5380859l-0.230957,0.6132813l-0.3071289,0.6152344
	l-0.3076172,0.6132813l-0.3066406,0.6152344l-0.3847656,0.6132813l-0.3833008,0.6162109l-0.3847656,0.6132813l-0.3837891,0.6152344
	l-0.4599609,0.6132813l-0.3837891,0.6152344l-0.4614258,0.6132813l-0.3847656,0.6162109l-0.3837891,0.5371094l-0.4599609,0.5371094
	l-0.3842773,0.5371094l-0.3837891,0.4609375l-0.4609375,0.4609375l-0.3847656,0.3847656l-0.3837891,0.4609375l-0.3837891,0.3076172
	l-0.4604492,0.3828125l-0.3847656,0.3085938l-0.3828125,0.3066406l-0.3847656,0.3066406l-0.4614258,0.2304688l-0.3837891,0.2304688
	l-0.3837891,0.1542969l-0.4609375,0.1523438l-0.3837891,0.1542969l-0.4604492,0.0761719L41.4311523,209.6005859
	L41.4311523,209.6005859L41.4311523,209.6005859z M42.5830078,189.5546875l-0.2304688,0.0761719l-0.4604492,0.0761719
	l-0.4609375,0.078125h-0.3837891h-0.4609375h-0.3842773l-0.4609375-0.078125l-0.3837891-0.0761719l-0.4609375-0.1523438
	l-0.3837891-0.2304688L38.128418,189.09375l-0.3837891-0.2304688l-0.0771484-0.0761719l-0.0771484,0.0761719l-0.3066406,0.2304688
	l-0.3837891,0.1542969l-0.4614258,0.2304688l-0.3837891,0.1523438l-0.3837891,0.0761719l-0.4609375,0.078125h-0.3837891h-0.4614258
	h-0.4609375l-0.3837891-0.078125l-0.4609375-0.0761719l-0.2299805-0.0761719v0.0761719l0.4604492,0.4609375l0.4609375,0.5371094
	l0.4609375,0.5371094l0.3837891,0.5390625l0.4614258,0.6142578l0.3837891,0.6132813l0.3837891,0.6152344l0.2304688,0.3847656
	l0.3076172,0.3828125l0.2299805,0.3066406l0.2304688,0.3847656l0.2304688,0.3828125l0.2304688,0.3857422l0.1533203,0.3066406
	l0.2304688,0.3847656l0,0h0.0771484l0.1533203-0.3847656l0.2304688-0.3066406l0.2304688-0.3857422l0.2299805-0.3828125
	l0.2314453-0.3847656l0.2294922-0.3066406l0.2304688-0.3828125l0.3076172-0.3847656l0.3837891-0.6152344l0.3842773-0.6132813
	l0.4599609-0.6142578l0.3847656-0.5390625l0.4609375-0.5371094l0.3837891-0.5371094l0.4604492-0.4609375L42.5830078,189.5546875
	L42.5830078,189.5546875z M42.5058594,169.815918l-0.1533203,0.0761719l-0.4604492,0.0771484l-0.4609375,0.0766602h-0.3837891
	h-0.4609375h-0.3842773l-0.4609375-0.0766602l-0.3837891-0.1533203l-0.4609375-0.0771484l-0.3837891-0.2304688l-0.3842773-0.1533203
	l-0.3837891-0.2304688l-0.0771484-0.0761719l-0.0771484,0.0761719l-0.3066406,0.2304688l-0.3837891,0.1533203l-0.4614258,0.2304688
	l-0.3837891,0.0771484l-0.3837891,0.1533203l-0.4609375,0.0766602h-0.3837891h-0.4614258h-0.4609375l-0.3837891-0.0766602
	l-0.4609375-0.0771484l-0.1533203-0.0761719l0.3837891,0.4604492l0.4609375,0.5380859l0.4609375,0.5371094l0.3837891,0.5380859
	l0.4614258,0.6137695l0.3837891,0.6152344l0.3837891,0.6142578l0.2304688,0.3842773l0.3076172,0.3837891l0.2299805,0.3837891
	l0.2304688,0.3066406l0.2304688,0.3847656l0.2304688,0.3837891l0.1533203,0.3076172l0.2304688,0.3828125l0,0h0.0771484
	l0.1533203-0.3828125l0.2304688-0.3076172l0.2304688-0.3837891l0.2299805-0.3847656l0.2314453-0.3066406l0.2294922-0.3837891
	l0.2304688-0.3837891l0.3076172-0.3842773l0.3837891-0.6142578l0.3842773-0.6152344l0.4599609-0.6137695l0.3847656-0.5380859
	l0.4609375-0.5371094l0.3837891-0.5380859L42.5058594,169.815918L42.5058594,169.815918z M41.9682617,150.6147461
	l-0.0761719,0.0771484l-0.4609375,0.0771484h-0.3837891h-0.4609375l-0.3842773-0.0771484l-0.4609375-0.0771484l-0.3837891-0.0771484
	l-0.4609375-0.1533203l-0.3837891-0.1533203l-0.3842773-0.2304688l-0.3837891-0.2304688h-0.0771484H37.590332l-0.3066406,0.2304688
	l-0.3837891,0.2304688l-0.4614258,0.1533203l-0.3837891,0.1533203l-0.3837891,0.0771484l-0.4609375,0.0771484l-0.3837891,0.0771484
	h-0.4614258h-0.4609375l-0.3837891-0.0771484l-0.1533203-0.0771484l0.3837891,0.4609375l0.4609375,0.5375977l0.3837891,0.5380859
	l0.4614258,0.6132813l0.3837891,0.6147461l0.3837891,0.6152344l0.2304688,0.3837891l0.3076172,0.3837891l0.2299805,0.3842773
	l0.2304688,0.3076172l0.2304688,0.3837891l0.2304688,0.3837891l0.1533203,0.3066406l0.2304688,0.3837891l0,0h0.0771484
	l0.1533203-0.3837891l0.2304688-0.3066406l0.2304688-0.3837891l0.2299805-0.3837891l0.2314453-0.3076172l0.2294922-0.3842773
	l0.2304688-0.3837891l0.3076172-0.3837891l0.3837891-0.6152344l0.3842773-0.6147461l0.4599609-0.6132813l0.3847656-0.5380859
	l0.4609375-0.5375977L41.9682617,150.6147461L41.9682617,150.6147461z"/>
<path fill-rule="evenodd" clip-rule="evenodd" fill="#CCA300" d="M37.590332,134.1025391
	c-3.6865234,0-5.5288086-3.7636719-5.3754883-12.2119141c-0.1533203-7.7568359,2.9179688-12.2124023,4.1474609-19.5078125
	c0.6147461-3.6103516,1.9194336-3.6865234,2.5341797,0c1.0751953,7.2954102,4.3007813,11.7509766,4.0703125,19.5078125
	C43.1210938,130.3388672,41.3540039,134.1025391,37.590332,134.1025391L37.590332,134.1025391z M39.5878906,207.9873047v68.3554688
	h-3.6865234v-68.4316406c-2.8422852,1.1503906-6.1450195-1.2294922-10.2915039-7.6816406
	c-4.378418-6.375-4.3012695-11.8271484-7.2958984-18.5869141c-1.4594727-3.3017578-0.3847656-4.0693359,2.1499023-1.3818359
	c4.9155273,5.453125,10.0610352,7.4492188,14.1313477,14.0546875c1.3833008,1.9970703,2.3818359,3.8408203,3.0722656,5.3769531
	c0.6914063-1.5361328,1.7670898-3.3798828,3.0722656-5.3769531c4.1474609-6.6054688,9.2163086-8.6015625,14.2084961-14.0546875
	c2.4580078-2.6875,3.5332031-1.9199219,2.0737305,1.3818359c-2.918457,6.7597656-2.8413086,12.2119141-7.2958984,18.5869141
	C45.7319336,206.6035156,42.4296875,208.9853516,39.5878906,207.9873047L39.5878906,207.9873047z M36.8227539,187.6337891
	c-3.0722656,2.0732422-6.6816406-0.0761719-11.2128906-7.21875c-4.378418-6.375-4.3012695-11.8286133-7.2958984-18.5864258
	c-1.4594727-3.3027344-0.3847656-4.0703125,2.1499023-1.3833008c4.9155273,5.4536133,10.0610352,7.4501953,14.1313477,14.0556641
	c1.3833008,1.9970703,2.3818359,3.8398438,3.0722656,5.375c0.6914063-1.5351563,1.7670898-3.3779297,3.0722656-5.375
	c4.1474609-6.6054688,9.2163086-8.6020508,14.2084961-14.0556641c2.4580078-2.6870117,3.5332031-1.9194336,2.0737305,1.3833008
	c-2.918457,6.7578125-2.8413086,12.2114258-7.2958984,18.5864258c-4.5322266,7.1425781-8.0644531,9.2919922-11.137207,7.21875
	c-0.3833008-0.2304688-0.6147461-0.4609375-0.9213867-0.6914063
	C37.4370117,187.1728516,37.1303711,187.4033203,36.8227539,187.6337891L36.8227539,187.6337891z M36.8227539,167.8955078
	c-3.0722656,2.0737305-6.6816406-0.0771484-11.2128906-7.2197266c-4.378418-6.3745117-4.3012695-11.8271484-7.2958984-18.5864258
	c-1.4594727-3.3017578-0.3847656-4.0698242,2.1499023-1.3823242c4.9155273,5.4536133,10.0610352,7.4501953,14.1313477,14.0551758
	c1.3833008,1.996582,2.3818359,3.8398438,3.0722656,5.3764648c0.6914063-1.5366211,1.7670898-3.3798828,3.0722656-5.3764648
	c4.1474609-6.6049805,9.2163086-8.6015625,14.2084961-14.0551758c2.4580078-2.6875,3.5332031-1.9194336,2.0737305,1.3823242
	c-2.918457,6.7592773-2.8413086,12.2119141-7.2958984,18.5864258c-4.5322266,7.1425781-8.0644531,9.293457-11.137207,7.2197266
	c-0.3833008-0.2304688-0.6147461-0.4609375-0.9213867-0.6914063
	C37.4370117,167.4345703,37.1303711,167.6650391,36.8227539,167.8955078L36.8227539,167.8955078z M36.8227539,148.6181641
	c-3.0722656,1.996582-6.6816406-0.1542969-11.2128906-7.2197266c-4.378418-6.3745117-4.3012695-11.8271484-7.2958984-18.5869141
	c-1.4594727-3.3022461-0.3847656-4.1464844,2.1499023-1.3818359c4.9155273,5.453125,10.0610352,7.4501953,14.1313477,14.0541992
	c1.3833008,1.9975586,2.3818359,3.7636719,3.0722656,5.300293c0.6914063-1.5366211,1.7670898-3.3027344,3.0722656-5.300293
	c4.1474609-6.6040039,9.2163086-8.6010742,14.2084961-14.0541992c2.4580078-2.7646484,3.5332031-1.9204102,2.0737305,1.3818359
	c-2.918457,6.7597656-2.8413086,12.2124023-7.2958984,18.5869141c-4.5322266,7.0654297-8.0644531,9.2163086-11.137207,7.2197266
	c-0.3833008-0.2304688-0.6147461-0.4609375-0.9213867-0.7685547
	C37.4370117,148.1572266,37.1303711,148.3876953,36.8227539,148.6181641L36.8227539,148.6181641z"/>
<path fill-rule="evenodd" clip-rule="evenodd" fill="#FFE625" d="M155.7148438,135.4077148h-0.078125l-0.2285156,0.3837891
	l-0.2304688,0.3842773l-0.2304688,0.3837891l-0.2314453,0.3076172l-0.1533203,0.3837891l-0.2314453,0.3066406v0.078125
	l-0.0761719-0.078125l-0.1542969-0.3066406l-0.2304688-0.3837891l-0.2304688-0.3076172l-0.2304688-0.3837891l-0.2304688-0.3842773
	l-0.2285156-0.3837891l-0.078125-0.0761719l0.2304688,0.0761719l0.3847656,0.0761719h0.4589844l0.4628906,0.078125
	l0.4599609-0.078125h0.3847656L155.7148438,135.4077148L155.7148438,135.4077148z M150.5683594,209.6005859v68.7382813h7.3730469
	v-68.7382813h0.1542969l0.3837891-0.078125l0.4609375-0.0761719l0.3847656-0.1542969l0.4589844-0.1523438l0.3847656-0.1542969
	l0.4609375-0.2304688l0.3828125-0.2304688l0.3847656-0.3066406l0.3847656-0.3066406l0.4599609-0.3085938l0.3847656-0.3828125
	l0.3847656-0.3076172l0.3828125-0.4609375l0.4609375-0.3847656l0.3847656-0.4609375l0.3828125-0.4609375l0.3847656-0.5371094
	l0.4609375-0.5371094l0.3837891-0.5371094l0.4609375-0.6162109l0.3847656-0.6132813l0.4589844-0.6152344l0.3847656-0.6132813
	l0.3847656-0.6152344l0.4589844-0.6132813l0.3085938-0.6162109l0.3828125-0.6132813l0.3076172-0.6152344l0.3076172-0.6132813
	L170,196.7734375l0.3066406-0.6132813l0.2304688-0.5380859l0.2304688-0.6152344l0.2304688-0.6152344l0.2304688-0.5371094
	l0.1542969-0.6132813l0.2285156-0.6152344l0.1542969-0.5371094l0.1542969-0.6142578l0.1542969-0.5390625l0.2285156-0.5371094
	l0.1542969-0.6132813l0.1542969-0.5371094l0.1523438-0.6152344l0.1542969-0.5380859l0.1542969-0.5371094l0.2294922-0.6152344
	l0.1542969-0.5371094l0.1542969-0.6152344l0.2304688-0.5371094l0.2285156-0.6132813l0.1542969-0.6162109l0.2304688-0.5371094
	l0.2304688-0.6132813l0.3066406-0.6152344l0.2304688-0.6914063l0.2304688-0.6132813l0.1542969-0.5380859l0.1542969-0.5390625
	v-0.6132813l-0.078125-0.5371094l-0.2304688-0.6914063l-0.5371094-0.5371094l-0.7675781-0.3085938h-0.6914063l-0.5380859,0.1542969
	l-0.5371094,0.3066406l-0.4609375,0.3085938l-0.4609375,0.3828125l-0.4609375,0.4609375l-0.5371094,0.4609375L170,179.7998047
	l-0.3837891,0.4609375l-0.4628906,0.4609375l-0.4589844,0.3837891l-0.4609375,0.4609375l-0.4609375,0.3847656l-0.4609375,0.3828125
	l-0.4609375,0.3847656l-0.4609375,0.3828125l-0.3066406,0.3085938l0.2304688-0.3085938l0.3847656-0.6132813l0.4589844-0.6132813
	l0.3847656-0.6152344l0.3847656-0.6152344l0.4589844-0.6142578l0.3085938-0.6152344l0.3828125-0.6132813l0.3076172-0.6132813
	l0.3076172-0.6152344L170,176.9580078l0.3066406-0.6142578l0.2304688-0.5371094l0.2304688-0.6152344l0.2304688-0.6142578
	l0.2304688-0.5371094l0.1542969-0.6147461l0.2285156-0.6142578l0.1542969-0.5375977l0.1542969-0.5380859l0.1542969-0.6142578
	l0.2285156-0.5371094l0.1542969-0.6147461l0.1542969-0.5371094l0.1523438-0.6152344l0.1542969-0.5375977l0.1542969-0.5371094
	l0.2294922-0.6142578l0.1542969-0.5375977l0.1542969-0.6152344l0.2304688-0.5371094l0.2285156-0.6142578l0.1542969-0.6147461
	l0.2304688-0.5380859l0.2304688-0.6132813l0.3066406-0.6147461l0.2304688-0.6914063l0.2304688-0.6142578l0.1542969-0.5375977
	l0.1542969-0.5380859v-0.6142578l-0.078125-0.5375977l-0.2304688-0.6142578l-0.5371094-0.6142578l-0.7675781-0.3076172h-0.6914063
	l-0.5380859,0.1533203l-0.5371094,0.3076172l-0.4609375,0.3076172l-0.4609375,0.3837891l-0.4609375,0.4604492l-0.5371094,0.4609375
	L170,159.9853516l-0.3837891,0.4599609l-0.4628906,0.4614258l-0.4589844,0.3837891l-0.4609375,0.4609375l-0.4609375,0.3837891
	l-0.4609375,0.3837891l-0.4609375,0.3842773l-0.4609375,0.3837891l-0.1523438,0.2304688l0.0761719-0.1533203L166.6982422,162.75
	l0.4589844-0.6147461l0.3847656-0.6142578l0.3847656-0.6142578l0.4589844-0.6147461l0.3085938-0.6142578l0.3828125-0.6142578
	l0.3076172-0.6147461l0.3076172-0.6142578L170,157.2202148l0.3066406-0.6147461l0.2304688-0.5371094l0.2304688-0.6142578
	l0.2304688-0.6157227l0.2304688-0.5371094l0.1542969-0.6142578l0.2285156-0.6147461l0.1542969-0.5371094l0.1542969-0.5380859
	l0.1542969-0.6137695l0.2285156-0.5380859l0.1542969-0.6142578l0.1542969-0.5375977l0.1523438-0.6142578l0.1542969-0.5380859
	l0.1542969-0.5371094l0.2294922-0.6147461l0.1542969-0.5371094l0.1542969-0.6152344l0.2304688-0.5375977l0.2285156-0.6142578
	l0.1542969-0.6142578l0.2304688-0.5380859l0.2304688-0.6137695l0.3066406-0.6142578l0.2304688-0.6918945l0.2304688-0.6142578
	l0.1542969-0.5371094l0.1542969-0.5380859v-0.6147461l-0.078125-0.5371094l-0.2304688-0.6142578l-0.5371094-0.6157227
	l-0.7675781-0.3056641h-0.6914063l-0.5380859,0.1533203l-0.5371094,0.3066406l-0.4609375,0.3076172l-0.4609375,0.3842773
	l-0.4609375,0.4599609l-0.5371094,0.4609375L170,140.2470703l-0.3837891,0.4599609l-0.4628906,0.4609375l-0.4589844,0.3837891
	l-0.4609375,0.4609375l-0.4609375,0.3842773l-0.4609375,0.3837891l-0.3847656,0.3837891l0.2304688-0.3066406l0.3847656-0.6914063
	l0.3847656-0.6147461l0.4589844-0.6142578l0.3085938-0.6142578l0.3828125-0.6147461l0.3076172-0.6142578l0.3076172-0.6142578
	L170,137.9414063l0.3066406-0.6132813l0.2304688-0.6142578l0.2304688-0.6147461l0.2304688-0.5371094l0.2304688-0.6152344
	l0.1542969-0.5375977l0.2285156-0.6142578l0.1542969-0.5380859l0.1542969-0.6142578l0.1542969-0.5375977l0.2285156-0.6142578
	l0.1542969-0.5371094l0.1542969-0.6147461l0.1523438-0.5380859l0.1542969-0.5371094l0.1542969-0.6147461l0.2294922-0.5371094
	l0.1542969-0.6142578l0.1542969-0.5380859l0.2304688-0.6147461l0.2285156-0.5371094l0.1542969-0.6142578l0.2304688-0.6147461
	l0.2304688-0.6142578l0.3066406-0.6142578l0.2304688-0.6147461l0.2304688-0.6142578l0.1542969-0.6142578l0.1542969-0.5385742
	v-0.5371094l-0.078125-0.6142578l-0.2304688-0.6147461l-0.5371094-0.6142578l-0.7675781-0.3066406l-0.6914063,0.0761719
	l-0.5380859,0.1533203l-0.5371094,0.2304688l-0.4609375,0.3076172l-0.4609375,0.3837891l-0.4609375,0.4614258l-0.5371094,0.5371094
	L170,120.8920898l-0.3837891,0.4604492l-0.4628906,0.4619141l-0.4589844,0.4599609l-0.4609375,0.3837891l-0.4609375,0.4609375
	l-0.4609375,0.3842773l-0.4609375,0.3837891l-0.4609375,0.3847656l-0.3828125,0.3837891l-0.4619141,0.3837891l-0.4609375,0.3842773
	l-0.4609375,0.3837891l-0.4609375,0.3066406l-0.4609375,0.3847656l-0.4589844,0.3837891l-0.4609375,0.3842773l-0.4609375,0.3837891
	l-0.4619141,0.4609375l-0.4609375,0.3837891l-0.4609375,0.3842773l-0.3066406,0.3076172l0.1542969-0.4619141l0.0761719-0.5375977
	l0.0761719-0.6142578l0.0761719-0.6142578l0.078125-0.6918945l0.0761719-0.6904297v-0.6914063v-0.6918945l0.0761719-0.7675781
	v-0.7680664v-0.7675781v-0.6914063v-0.7680664l-0.0761719-0.6914063v-0.690918l-0.0761719-0.6914063l-0.078125-0.6904297
	l-0.0761719-0.6918945l-0.1523438-0.6142578l-0.078125-0.6142578l-0.1523438-0.6147461l-0.1542969-0.6142578l-0.1542969-0.6142578
	l-0.1523438-0.6157227l-0.1542969-0.6132813l-0.1542969-0.5380859l-0.1523438-0.6147461l-0.1542969-0.5371094l-0.2304688-0.6142578
	l-0.1523438-0.5375977l-0.1542969-0.5380859l-0.1542969-0.6142578l-0.2304688-0.5375977l-0.1523438-0.5380859l-0.1542969-0.6132813
	l-0.1533203-0.5380859l-0.1542969-0.6147461l-0.2304688-0.6142578l-0.0761719-0.5371094l-0.1542969-0.6157227l-0.1542969-0.6904297
	l-0.1523438-0.6142578l-0.078125-0.6918945l-0.1523438-0.6142578l-0.1542969-0.6904297l-0.1523438-0.5385742l-0.2304688-0.5371094
	l-0.3085938-0.4609375l-0.3828125-0.4609375l-0.5371094-0.3842773l-0.7685547-0.2294922l-0.7695313,0.2294922l-0.6132813,0.3842773
	l-0.3847656,0.4609375l-0.2304688,0.4609375l-0.2304688,0.5371094l-0.2285156,0.5385742l-0.1542969,0.6904297l-0.078125,0.6914063
	l-0.1523438,0.6147461l-0.078125,0.6914063l-0.1523438,0.6132813l-0.1523438,0.6157227l-0.1542969,0.5371094l-0.1542969,0.6142578
	l-0.1542969,0.6147461l-0.1533203,0.5380859l-0.1542969,0.6132813l-0.1523438,0.5380859l-0.1542969,0.5375977l-0.2304688,0.6142578
	l-0.1542969,0.5380859l-0.1523438,0.5375977l-0.2304688,0.6142578l-0.1542969,0.5371094l-0.1542969,0.6147461l-0.1523438,0.5380859
	l-0.2304688,0.6132813l-0.1542969,0.6157227l-0.0761719,0.6142578l-0.1542969,0.6142578l-0.1523438,0.6147461l-0.1542969,0.6142578
	l-0.0761719,0.6142578l-0.0761719,0.6918945l-0.078125,0.6904297l-0.0761719,0.6914063l-0.0761719,0.690918v0.6914063v0.7680664
	v0.6914063v0.7675781v0.7680664v0.7675781l0.0761719,0.6918945v0.6914063l0.0761719,0.6904297l0.078125,0.6918945
	l0.0761719,0.6142578l0.0761719,0.6142578l0.078125,0.5375977l0.1523438,0.5380859v0.1533203l-0.0761719-0.0761719
	l-0.4609375-0.4609375l-0.4609375-0.3842773l-0.4619141-0.3837891l-0.4609375-0.4609375l-0.4609375-0.3837891l-0.3828125-0.3842773
	l-0.4609375-0.3837891l-0.4609375-0.3847656l-0.4609375-0.3066406l-0.4609375-0.3837891l-0.4599609-0.3842773l-0.4609375-0.3837891
	l-0.4609375-0.3837891l-0.4609375-0.3847656l-0.4609375-0.3837891l-0.4609375-0.3842773l-0.4609375-0.4609375l-0.4609375-0.3837891
	l-0.4609375-0.4599609l-0.3837891-0.4619141l-0.4609375-0.4604492l-0.4609375-0.4609375l-0.5371094-0.5371094l-0.4609375-0.4614258
	l-0.4609375-0.3837891l-0.4609375-0.3076172l-0.4599609-0.2304688l-0.6152344-0.1533203l-0.6914063-0.0761719l-0.7675781,0.3066406
	l-0.5371094,0.6142578l-0.2304688,0.6147461l-0.078125,0.6142578l0.078125,0.5371094l0.0761719,0.5385742l0.1542969,0.6142578
	l0.2304688,0.6142578l0.2304688,0.6147461l0.3066406,0.6142578l0.2304688,0.6142578l0.2304688,0.6147461l0.2304688,0.6142578
	l0.1523438,0.5371094l0.2304688,0.6147461l0.1542969,0.5380859l0.2304688,0.6142578l0.1533203,0.5371094l0.1542969,0.5385742
	l0.1542969,0.6132813l0.1523438,0.5380859l0.1542969,0.6147461l0.2304688,0.5371094l0.1542969,0.6142578l0.1523438,0.5375977
	l0.1542969,0.6142578l0.2304688,0.5380859l0.1523438,0.6142578l0.2304688,0.5375977l0.1542969,0.6152344l0.2304688,0.5371094
	l0.2304688,0.6147461l0.3066406,0.6142578l0.2304688,0.6132813l0.3066406,0.5385742l0.3085938,0.6142578l0.3066406,0.6142578
	l0.3837891,0.6147461l0.3847656,0.6142578l0.3847656,0.6142578l0.3828125,0.6147461l0.3847656,0.6914063l0.3066406,0.3066406
	l-0.4609375-0.3837891l-0.4609375-0.3837891l-0.4609375-0.3842773l-0.4609375-0.4609375l-0.4609375-0.3837891l-0.3837891-0.4609375
	l-0.4609375-0.4599609l-0.4609375-0.5385742l-0.5371094-0.4609375l-0.4609375-0.4599609l-0.4609375-0.3842773l-0.4609375-0.3076172
	l-0.4599609-0.3066406l-0.6152344-0.1533203h-0.6914063l-0.7675781,0.3056641l-0.5371094,0.5385742l-0.2304688,0.6914063
	l-0.078125,0.5371094l0.078125,0.6147461l0.0761719,0.5380859l0.1542969,0.5371094l0.2304688,0.6142578l0.2304688,0.6918945
	l0.3066406,0.6142578l0.2304688,0.6137695l0.2304688,0.5380859l0.2304688,0.6142578l0.1523438,0.6142578l0.2304688,0.5375977
	l0.1542969,0.6152344l0.2304688,0.5371094l0.1533203,0.6147461l0.1542969,0.5371094l0.1542969,0.5380859l0.1523438,0.6142578
	l0.1542969,0.5375977l0.2304688,0.6142578l0.1542969,0.5380859l0.1523438,0.6137695l0.1542969,0.5380859l0.2304688,0.5371094
	l0.1523438,0.6147461l0.2304688,0.6142578l0.1542969,0.5371094l0.2304688,0.6157227l0.2304688,0.6142578l0.3066406,0.5371094
	l0.2304688,0.6147461l0.3066406,0.6142578l0.3085938,0.6142578l0.3066406,0.6147461l0.3837891,0.6142578l0.3847656,0.6142578
	l0.3847656,0.6147461l0.3828125,0.6142578l0.3847656,0.6142578L141.8886719,162.75l0.4609375,0.6142578v0.1533203
	l-0.1523438-0.2304688l-0.4609375-0.3837891l-0.4609375-0.3842773l-0.4609375-0.3837891l-0.4609375-0.3837891l-0.4609375-0.4609375
	l-0.4609375-0.3837891l-0.3837891-0.4614258l-0.4609375-0.4599609l-0.4609375-0.5380859l-0.5371094-0.4609375l-0.4609375-0.4604492
	l-0.4609375-0.3837891l-0.4609375-0.3076172l-0.4599609-0.3076172l-0.6152344-0.1533203h-0.6914063l-0.7675781,0.3076172
	l-0.5371094,0.5371094l-0.2304688,0.6914063l-0.078125,0.5375977l0.078125,0.6142578l0.0761719,0.5380859l0.1542969,0.5375977
	l0.2304688,0.6142578l0.2304688,0.6914063l0.3066406,0.6147461l0.2304688,0.6132813l0.2304688,0.5380859l0.2304688,0.6147461
	l0.1523438,0.6142578l0.2304688,0.5371094l0.1542969,0.6152344l0.2304688,0.5375977l0.1533203,0.6142578l0.1542969,0.5371094
	l0.1542969,0.5375977l0.1523438,0.6152344l0.1542969,0.5371094l0.2304688,0.6147461l0.1542969,0.5371094l0.1523438,0.6142578
	l0.1542969,0.5380859l0.2304688,0.5375977l0.1523438,0.6142578l0.2304688,0.6147461l0.1542969,0.5371094l0.2304688,0.6142578
	l0.2304688,0.6152344l0.3066406,0.5371094l0.2304688,0.6142578l0.3066406,0.6152344l0.3085938,0.6152344l0.3066406,0.6132813
	l0.3837891,0.6132813l0.3847656,0.6152344l0.3847656,0.6142578l0.3828125,0.6152344l0.3847656,0.6152344l0.4589844,0.6132813
	l0.4609375,0.6132813l0.1542969,0.3085938l-0.3066406-0.3085938l-0.4609375-0.3828125l-0.4609375-0.3847656l-0.4609375-0.3828125
	l-0.4609375-0.3847656l-0.4609375-0.4609375l-0.4609375-0.3837891l-0.3837891-0.4609375l-0.4609375-0.4609375l-0.4609375-0.5371094
	l-0.5371094-0.4609375l-0.4609375-0.4609375l-0.4609375-0.3828125l-0.4609375-0.3085938l-0.4599609-0.3066406l-0.6152344-0.1542969
	h-0.6914063l-0.7675781,0.3085938l-0.5371094,0.5371094l-0.2304688,0.6914063l-0.078125,0.5371094l0.078125,0.6132813
	l0.0761719,0.5390625l0.1542969,0.5380859l0.2304688,0.6132813l0.2304688,0.6914063l0.3066406,0.6152344l0.2304688,0.6132813
	l0.2304688,0.5371094l0.2304688,0.6162109l0.1523438,0.6132813l0.2304688,0.5371094l0.1542969,0.6152344l0.2304688,0.5371094
	l0.1533203,0.6152344l0.1542969,0.5371094l0.1542969,0.5380859l0.1523438,0.6152344l0.1542969,0.5371094l0.2304688,0.6132813
	l0.1542969,0.5371094l0.1523438,0.5390625l0.1542969,0.6142578l0.2304688,0.5371094l0.1523438,0.6152344l0.2304688,0.6132813
	l0.1542969,0.5371094l0.2304688,0.6152344l0.2304688,0.6152344l0.3066406,0.5380859l0.2304688,0.6132813l0.3066406,0.6152344
	l0.3085938,0.6132813l0.3066406,0.6152344l0.3837891,0.6132813l0.3847656,0.6162109l0.3847656,0.6132813l0.3828125,0.6152344
	l0.3847656,0.6132813l0.4589844,0.6152344l0.4609375,0.6132813l0.3847656,0.6162109l0.3847656,0.5371094l0.4599609,0.5371094
	l0.3847656,0.5371094l0.3828125,0.4609375l0.4609375,0.4609375l0.3847656,0.3847656l0.3847656,0.4609375l0.3828125,0.3076172
	l0.4609375,0.3828125l0.3837891,0.3085938l0.3847656,0.3066406l0.3847656,0.3066406l0.4609375,0.2304688l0.3828125,0.2304688
	l0.3847656,0.1542969l0.4589844,0.1523438l0.3847656,0.1542969l0.4609375,0.0761719L150.5683594,209.6005859
	L150.5683594,209.6005859L150.5683594,209.6005859z M149.4160156,189.5546875l0.2304688,0.0761719l0.4609375,0.0761719
	l0.4609375,0.078125h0.3837891h0.4609375h0.3847656l0.4609375-0.078125l0.3828125-0.0761719l0.4609375-0.1523438
	l0.3847656-0.2304688l0.3828125-0.1542969l0.3085938-0.2304688l0.1523438-0.0761719l0.078125,0.0761719l0.3066406,0.2304688
	l0.3837891,0.1542969l0.4609375,0.2304688l0.3847656,0.1523438l0.3828125,0.0761719l0.4609375,0.078125h0.3847656h0.4609375
	h0.4609375l0.3837891-0.078125l0.4609375-0.0761719l0.2304688-0.0761719l-0.0761719,0.0761719l-0.3847656,0.4609375
	l-0.4609375,0.5371094l-0.4619141,0.5371094l-0.3828125,0.5390625l-0.4609375,0.6142578l-0.3847656,0.6132813l-0.3828125,0.6152344
	l-0.2304688,0.3847656l-0.3085938,0.3828125l-0.2285156,0.3066406l-0.2304688,0.3847656l-0.2304688,0.3828125l-0.2314453,0.3857422
	l-0.1533203,0.3066406l-0.2314453,0.3847656l0,0h-0.0761719l-0.1542969-0.3847656l-0.2304688-0.3066406l-0.2304688-0.3857422
	l-0.2304688-0.3828125l-0.2304688-0.3847656l-0.2285156-0.3066406l-0.2304688-0.3828125l-0.3085938-0.3847656l-0.3828125-0.6152344
	l-0.3847656-0.6132813l-0.4589844-0.6142578l-0.3857422-0.5390625l-0.4609375-0.5371094l-0.4609375-0.5371094l-0.3828125-0.4609375
	L149.4160156,189.5546875L149.4160156,189.5546875z M149.4941406,169.815918l0.1523438,0.0761719l0.4609375,0.0771484
	l0.4609375,0.0766602h0.3837891h0.4609375h0.3847656l0.4609375-0.0766602l0.3828125-0.1533203l0.4609375-0.0771484
	l0.3847656-0.2304688l0.3828125-0.1533203l0.3085938-0.2304688l0.1523438-0.0761719l0.078125,0.0761719l0.3066406,0.2304688
	l0.3837891,0.1533203l0.4609375,0.2304688l0.3847656,0.0771484l0.3828125,0.1533203l0.4609375,0.0766602h0.3847656h0.4609375
	h0.4609375l0.3837891-0.0766602l0.4609375-0.0771484l0.1542969-0.0761719l-0.3847656,0.4604492l-0.4609375,0.5380859
	l-0.4619141,0.5371094l-0.3828125,0.5380859l-0.4609375,0.6137695l-0.3847656,0.6152344l-0.3828125,0.6142578l-0.2304688,0.3842773
	l-0.3085938,0.3837891l-0.2285156,0.3837891l-0.2304688,0.3066406l-0.2304688,0.3847656l-0.2314453,0.3837891l-0.1533203,0.3076172
	l-0.2314453,0.3828125l0,0h-0.0761719l-0.1542969-0.3828125l-0.2304688-0.3076172l-0.2304688-0.3837891l-0.2304688-0.3847656
	l-0.2304688-0.3066406l-0.2285156-0.3837891l-0.2304688-0.3837891l-0.3085938-0.3842773l-0.3828125-0.6142578l-0.3847656-0.6152344
	l-0.4589844-0.6137695l-0.3857422-0.5380859l-0.4609375-0.5371094l-0.4609375-0.5380859L149.4941406,169.815918
	L149.4941406,169.815918z M149.953125,150.6147461l0.1542969,0.0771484l0.4609375,0.0771484h0.3837891h0.4609375
	l0.3847656-0.0771484l0.4609375-0.0771484l0.3828125-0.0771484l0.4609375-0.1533203l0.3847656-0.1533203l0.3828125-0.2304688
	l0.3085938-0.2304688h0.1523438h0.078125l0.3066406,0.2304688l0.3837891,0.2304688l0.4609375,0.1533203l0.3847656,0.1533203
	l0.3828125,0.0771484l0.4609375,0.0771484l0.3847656,0.0771484h0.4609375h0.4609375l0.3837891-0.0771484l0.1542969-0.0771484
	l-0.3847656,0.4609375l-0.4619141,0.5375977l-0.3828125,0.5380859l-0.4609375,0.6132813l-0.3847656,0.6147461l-0.3828125,0.6152344
	l-0.2304688,0.3837891l-0.3085938,0.3837891l-0.2285156,0.3842773l-0.2304688,0.3076172l-0.2304688,0.3837891l-0.2314453,0.3837891
	l-0.1533203,0.3066406l-0.2314453,0.3837891l0,0h-0.0761719l-0.1542969-0.3837891l-0.2304688-0.3066406l-0.2304688-0.3837891
	l-0.2304688-0.3837891l-0.2304688-0.3076172l-0.2285156-0.3842773l-0.2304688-0.3837891l-0.3085938-0.3837891l-0.3828125-0.6152344
	l-0.3847656-0.6147461l-0.4589844-0.6132813l-0.3857422-0.5380859l-0.4609375-0.5375977L149.953125,150.6147461
	L149.953125,150.6147461z"/>
<path fill-rule="evenodd" clip-rule="evenodd" fill="#CCA300" d="M154.4091797,134.1025391
	c3.6865234,0,5.453125-3.7636719,5.375-12.2119141c0.1542969-7.7568359-2.9169922-12.2124023-4.1474609-19.5078125
	c-0.6132813-3.6103516-1.9189453-3.6865234-2.5341797,0c-1.1503906,7.2954102-4.2998047,11.7509766-4.0712891,19.5078125
	C148.8789063,130.3388672,150.6455078,134.1025391,154.4091797,134.1025391L154.4091797,134.1025391z M152.4111328,207.9873047
	v68.3554688h3.6865234v-68.4316406c2.8427734,1.1503906,6.1445313-1.2294922,10.2158203-7.6816406
	c4.4541016-6.375,4.3779297-11.8271484,7.3730469-18.5869141c1.4589844-3.3017578,0.3828125-4.0693359-2.1513672-1.3818359
	c-4.9150391,5.453125-10.0615234,7.4492188-14.1308594,14.0546875c-1.3828125,1.9970703-2.3808594,3.8408203-3.0732422,5.3769531
	c-0.6914063-1.5361328-1.765625-3.3798828-3.0703125-5.3769531c-4.1484375-6.6054688-9.2177734-8.6015625-14.2089844-14.0546875
	c-2.4580078-2.6875-3.6103516-1.9199219-2.0751953,1.3818359c2.9189453,6.7597656,2.8427734,12.2119141,7.296875,18.5869141
	C146.2666016,206.6035156,149.5703125,208.9853516,152.4111328,207.9873047L152.4111328,207.9873047z M155.1777344,187.6337891
	c3.0712891,2.0732422,6.6806641-0.0761719,11.1357422-7.21875c4.4541016-6.375,4.3779297-11.8286133,7.3730469-18.5864258
	c1.4589844-3.3027344,0.3828125-4.0703125-2.1513672-1.3833008c-4.9150391,5.4536133-10.0615234,7.4501953-14.1308594,14.0556641
	c-1.3828125,1.9970703-2.3808594,3.8398438-3.0732422,5.375c-0.6914063-1.5351563-1.765625-3.3779297-3.0703125-5.375
	c-4.1484375-6.6054688-9.2177734-8.6020508-14.2089844-14.0556641c-2.4580078-2.6870117-3.6103516-1.9194336-2.0751953,1.3833008
	c2.9189453,6.7578125,2.8427734,12.2114258,7.296875,18.5864258c4.4541016,7.1425781,8.0644531,9.2919922,11.1357422,7.21875
	c0.3847656-0.2304688,0.6152344-0.4609375,0.921875-0.6914063
	C154.5625,187.1728516,154.8691406,187.4033203,155.1777344,187.6337891L155.1777344,187.6337891z M155.1777344,167.8955078
	c3.0712891,2.0737305,6.6806641-0.0771484,11.1357422-7.2197266c4.4541016-6.3745117,4.3779297-11.8271484,7.3730469-18.5864258
	c1.4589844-3.3017578,0.3828125-4.0698242-2.1513672-1.3823242c-4.9150391,5.4536133-10.0615234,7.4501953-14.1308594,14.0551758
	c-1.3828125,1.996582-2.3808594,3.8398438-3.0732422,5.3764648c-0.6914063-1.5366211-1.765625-3.3798828-3.0703125-5.3764648
	c-4.1484375-6.6049805-9.2177734-8.6015625-14.2089844-14.0551758c-2.4580078-2.6875-3.6103516-1.9194336-2.0751953,1.3823242
	c2.9189453,6.7592773,2.8427734,12.2119141,7.296875,18.5864258c4.4541016,7.1425781,8.0644531,9.293457,11.1357422,7.2197266
	c0.3847656-0.2304688,0.6152344-0.4609375,0.921875-0.6914063
	C154.5625,167.4345703,154.8691406,167.6650391,155.1777344,167.8955078L155.1777344,167.8955078z M155.1777344,148.6181641
	c3.0712891,1.996582,6.6806641-0.1542969,11.1357422-7.2197266c4.4541016-6.3745117,4.3779297-11.8271484,7.3730469-18.5869141
	c1.4589844-3.3022461,0.3828125-4.1464844-2.1513672-1.3818359c-4.9150391,5.453125-10.0615234,7.4501953-14.1308594,14.0541992
	c-1.3828125,1.9975586-2.3808594,3.7636719-3.0732422,5.300293c-0.6914063-1.5366211-1.765625-3.3027344-3.0703125-5.300293
	c-4.1484375-6.6040039-9.2177734-8.6010742-14.2089844-14.0541992c-2.4580078-2.7646484-3.6103516-1.9204102-2.0751953,1.3818359
	c2.9189453,6.7597656,2.8427734,12.2124023,7.296875,18.5869141c4.4541016,7.0654297,8.0644531,9.2163086,11.1357422,7.2197266
	c0.3847656-0.2304688,0.6152344-0.4609375,0.921875-0.7685547
	C154.5625,148.1572266,154.8691406,148.3876953,155.1777344,148.6181641L155.1777344,148.6181641z"/>
<path fill-rule="evenodd" clip-rule="evenodd" fill="#FFE625" d="M131.7509766,326.5703125l-35.8662109-25.1904297
	l-35.7905273,25.1904297c0-93.9306641,0-178.0292969,0-271.9599609l35.7905273,25.1923828l35.8662109-25.1923828
	C131.7509766,148.5410156,131.7509766,232.6396484,131.7509766,326.5703125L131.7509766,326.5703125z"/>
<polygon fill-rule="evenodd" clip-rule="evenodd" fill="#CCA300" points="129.7548828,322.6533203 95.8847656,298.8447266 
	62.0908203,322.6533203 62.0908203,58.6044922 95.8847656,82.3374023 129.7548828,58.6044922 129.7548828,322.6533203 "/>
<polygon fill-rule="evenodd" clip-rule="evenodd" fill="#FFFFFF" points="22.690918,217.5869141 169.1533203,217.5869141 
	169.1533203,264.6679688 22.690918,264.6679688 22.690918,217.5869141 "/>
<path fill-rule="evenodd" clip-rule="evenodd" fill="#368FC0" d="M22.690918,253.9912109h146.4624023v5.3759766H22.690918
	V253.9912109L22.690918,253.9912109z M22.690918,243.6230469h146.4624023V249H22.690918V243.6230469L22.690918,243.6230469z
	 M22.690918,233.0244141h146.4624023v5.3769531H22.690918V233.0244141L22.690918,233.0244141z M22.690918,222.6572266h146.4624023
	v5.3759766H22.690918V222.6572266L22.690918,222.6572266z"/>
<path fill-rule="evenodd" clip-rule="evenodd" fill="#FFFFFF" d="M80.984375,122.2744141h11.2138672v16.3588867v0.3837891v0.3847656
	v0.3837891v0.3071289v0.3847656v0.3066406l0.0761719,0.3066406v0.3076172v0.2304688v0.3076172v0.2299805v0.2304688v0.2304688
	l0.0771484,0.2304688v0.1533203v0.1533203v0.1542969l0.0771484,0.1533203v0.1533203v0.1538086l0.0761719,0.1533203v0.1542969
	v0.0761719l0.0771484,0.1533203v0.1542969l0.0771484,0.0771484v0.1533203v0.0771484l0.0761719,0.0761719v0.1533203
	l0.0771484,0.0771484v0.0771484l0.0761719,0.1533203l0.0771484,0.1533203l0.1533203,0.1533203l0.0771484,0.1542969
	l0.1538086,0.1538086l0.1533203,0.0761719l0.1533203,0.1542969l0.1542969,0.0761719l0.1533203,0.0771484h0.0761719
	l0.078125,0.0761719h0.1533203l0.1533203,0.0771484h0.0771484l0.1533203,0.0771484h0.1533203l0.1538086,0.0771484h0.1533203
	h0.0771484h0.2304688l0.1533203,0.0761719h0.1533203h0.1542969h0.1533203h0.2304688h0.1533203h0.1542969l0.1533203-0.0761719
	h0.1533203h0.1538086h0.1533203l0.1542969-0.0771484h0.1533203l0.152832-0.0771484h0.0771484l0.1542969-0.0771484h0.0761719
	l0.1542969-0.0761719h0.0761719l0.0761719-0.0771484l0.2304688-0.0761719l0.1542969-0.1542969l0.1542969-0.0761719
	l0.1523438-0.1538086l0.078125-0.1542969l0.0761719-0.1533203l0.1542969-0.1533203l0.0761719-0.1533203v-0.0771484
	l0.0761719-0.0771484v-0.1533203l0.078125-0.0761719v-0.0771484v-0.1533203l0.0761719-0.0771484v-0.1542969l0.0761719-0.1533203
	v-0.0761719v-0.1542969l0.078125-0.1533203v-0.1538086v-0.1533203l0.0761719-0.1533203v-0.1542969v-0.1533203v-0.1533203v-0.2304688
	l0.0761719-0.2304688v-0.2304688v-0.2299805v-0.3076172v-0.2304688v-0.3076172l0.0761719-0.3066406v-0.3066406v-0.3847656
	v-0.3071289v-0.3837891v-0.3847656v-0.3837891v-16.3588867h11.2138672v17.6645508v0.3081055v0.3066406v0.3076172v0.3066406
	l-0.0761719,0.3066406v0.3076172v0.2304688v0.3081055v0.3066406v0.2304688v0.3066406v0.2304688l-0.0761719,0.2304688v0.3071289
	v0.2304688v0.2314453l-0.078125,0.2294922v0.2304688v0.2304688v0.2304688l-0.0761719,0.2304688v0.2304688l-0.0761719,0.2299805
	v0.2304688v0.1533203l-0.078125,0.2314453v0.1533203l-0.0761719,0.2304688v0.1533203l-0.0761719,0.2304688v0.1533203
	l-0.078125,0.1538086l-0.0761719,0.3076172l-0.0761719,0.3837891l-0.1542969,0.3066406l-0.0761719,0.3076172l-0.1542969,0.3076172
	l-0.0761719,0.3071289l-0.1542969,0.3066406l-0.1523438,0.3076172l-0.1542969,0.3066406l-0.1542969,0.2314453l-0.1533203,0.3066406
	l-0.1542969,0.3076172l-0.2304688,0.2299805l-0.1523438,0.2304688l-0.2304688,0.3076172l-0.1542969,0.2294922l-0.2304688,0.2304688
	l-0.3066406,0.3076172l-0.2304688,0.2304688l-0.3085938,0.2299805l-0.2285156,0.2314453l-0.3085938,0.2294922l-0.3066406,0.2304688
	l-0.3066406,0.2304688l-0.3066406,0.1533203l-0.3085938,0.2304688l-0.3076172,0.1533203l-0.3828125,0.1542969l-0.3085938,0.1538086
	l-0.3828125,0.1533203l-0.3847656,0.1542969l-0.3828125,0.1523438l-0.1542969,0.078125l-0.2304688,0.0761719h-0.1523438
	l-0.2324219,0.0771484l-0.1523438,0.0761719l-0.2304688,0.0771484h-0.2304688l-0.1542969,0.0771484h-0.2304688l-0.2294922,0.0761719
	l-0.2304688,0.0771484h-0.1542969l-0.2304688,0.0761719h-0.2304688L100.1083984,156.375h-0.2304688h-0.2304688l-0.2304688,0.0771484
	h-0.2304688h-0.2304688l-0.2285156,0.0761719h-0.2324219h-0.2304688h-0.2294922l-0.2304688,0.0771484h-0.230957h-0.2294922
	h-0.2304688h-0.3081055h-0.2294922h-0.2304688h-0.3076172h-0.2304688h-0.2304688h-0.2304688h-0.3066406h-0.230957h-0.2304688
	h-0.2304688l-0.2294922-0.0771484h-0.2304688h-0.3076172h-0.2304688l-0.230957-0.0761719h-0.2304688h-0.2294922L92.4287109,156.375
	h-0.1542969h-0.2294922l-0.2314453-0.0771484h-0.2304688l-0.2294922-0.0761719h-0.230957l-0.1533203-0.0771484l-0.2304688-0.0761719
	h-0.2304688l-0.1533203-0.0771484h-0.2304688l-0.2304688-0.0771484l-0.1533203-0.0761719l-0.230957-0.0771484H89.355957
	l-0.2299805-0.0761719l-0.1542969-0.078125l-0.3837891-0.1523438l-0.3837891-0.1542969l-0.3837891-0.1533203l-0.3071289-0.1538086
	l-0.3847656-0.1542969l-0.3066406-0.1533203l-0.3076172-0.2304688l-0.3066406-0.1533203l-0.3076172-0.2304688l-0.3071289-0.2304688
	l-0.3066406-0.2294922l-0.3076172-0.2314453l-0.2304688-0.2299805l-0.3076172-0.2304688l-0.2294922-0.2304688l-0.2304688-0.3076172
	L83.75,152.1513672l-0.1538086-0.3076172l-0.2304688-0.2304688l-0.1533203-0.3071289l-0.1542969-0.2304688l-0.1533203-0.3066406
	l-0.1542969-0.2314453l-0.1523438-0.3066406l-0.1542969-0.3076172l-0.1533203-0.3066406l-0.1533203-0.3071289l-0.0771484-0.3076172
	l-0.1538086-0.3076172l-0.0771484-0.3066406l-0.0761719-0.3076172l-0.0771484-0.3837891l-0.0771484-0.1538086l-0.0761719-0.1533203
	v-0.2304688l-0.0771484-0.1533203v-0.2304688v-0.1533203l-0.0771484-0.2314453v-0.1533203l-0.0761719-0.2304688v-0.2299805
	v-0.2304688l-0.0771484-0.2304688v-0.2304688v-0.2304688l-0.0761719-0.2304688v-0.2294922v-0.2314453v-0.2304688
	l-0.0771484-0.3071289v-0.2304688v-0.2304688v-0.3066406v-0.2304688l-0.0771484-0.3066406v-0.3081055v-0.2304688v-0.3076172
	v-0.3066406v-0.3066406v-0.3076172v-0.3066406v-0.3081055V122.2744141L80.984375,122.2744141z M78.2202148,119.2788086
	l11.5966797-33.5625h12.519043l11.5986328,33.5625h-11.4443359l-1.5361328-5.5292969h-9.6777344l-1.612793,5.5292969H78.2202148
	L78.2202148,119.2788086z M93.8881836,104.9174805h4.3764648l-2.1494141-7.1435547L93.8881836,104.9174805L93.8881836,104.9174805z
	 M85.3623047,193.1630859v-33.5625h21.6582031v9.6010742H96.421875v2.4575195h10.0615234v9.4462891H96.421875v12.0576172H85.3623047
	L85.3623047,193.1630859z"/>
<path fill-rule="evenodd" clip-rule="evenodd" fill="#FF0000" d="M82.4438477,123.7338867h8.2949219v14.8994141
	c0,2.1508789,0.0761719,3.7636719,0.1533203,4.6855469c0.1533203,0.9975586,0.3071289,1.7661133,0.6147461,2.3803711
	c0.3066406,0.8452148,0.8447266,1.3823242,1.6894531,1.8432617c0.7680664,0.3842773,1.7666016,0.6147461,2.8417969,0.6147461
	c1.1518555,0,2.1503906-0.2304688,2.9179688-0.6147461c0.7695313-0.4609375,1.3828125-0.9980469,1.6894531-1.8432617
	c0.3085938-0.6142578,0.4609375-1.3828125,0.6152344-2.3803711c0.0761719-0.921875,0.1533203-2.534668,0.1533203-4.6855469
	v-2.1499023v-12.7495117h8.2949219v16.2050781c0,3.3027344-0.2304688,5.8374023-0.6142578,7.4501953
	c-0.3847656,1.5366211-1.0761719,2.9179688-2.0742188,4.0708008c-0.9980469,1.2285156-2.4580078,2.1508789-4.2998047,2.7651367
	c-1.8447266,0.6132813-4.0712891,0.9213867-6.6826172,0.9213867c-2.6108398,0-4.8388672-0.3081055-6.6049805-0.9213867
	c-1.8432617-0.6142578-3.3027344-1.5366211-4.3774414-2.7651367c-0.921875-1.152832-1.6137695-2.5341797-1.9975586-4.0708008
	c-0.4599609-1.612793-0.6142578-4.1474609-0.6142578-7.4501953v-3.2250977V123.7338867L82.4438477,123.7338867z
	 M80.2167969,117.8193359l10.5981445-30.644043h10.4458008l10.5986328,30.644043h-8.2949219l-1.5351563-5.4526367H90.1245117
	l-1.5366211,5.4526367H80.2167969L80.2167969,117.8193359z M91.9677734,106.3769531h8.2949219l-3.1489258-10.1386719
	c-0.0771484-0.3076172-0.230957-0.7685547-0.3842773-1.4594727c-0.1533203-0.6914063-0.3837891-1.5361328-0.6142578-2.6108398
	c-0.2304688,0.7675781-0.3847656,1.4594727-0.5380859,2.1499023c-0.1533203,0.6918945-0.3837891,1.3051758-0.5371094,1.9204102
	L91.9677734,106.3769531L91.9677734,106.3769531z M86.8217773,191.7050781v-30.6450195h18.8178711v6.6821289H94.9628906v5.3764648
	h10.0605469v6.5288086H94.9628906v12.0576172H86.8217773L86.8217773,191.7050781z"/>
<path fill-rule="evenodd" clip-rule="evenodd" fill="#368FC0" d="M134.3632813,31.7236328h13.2109375l4.1455078-12.5961914
	l4.0712891,12.5961914h13.2099609l-10.6748047,7.7568359l4.0703125,12.5961914l-10.6767578-7.7578125L140.96875,52.0766602
	l4.0693359-12.5961914L134.3632813,31.7236328L134.3632813,31.7236328z M97.1137695,31.7236328h13.2104492l4.1474609-12.5961914
	l4.0693359,12.5961914h13.2099609l-10.6738281,7.7568359l4.0693359,12.5961914l-10.6748047-7.7578125L103.71875,52.0766602
	l4.0693359-12.5961914L97.1137695,31.7236328L97.1137695,31.7236328z M59.6333008,31.7236328H72.84375l4.1474609-12.5961914
	l4.0703125,12.5961914h13.2104492l-10.6757813,7.7568359l4.0708008,12.5961914l-10.6757813-7.7578125l-10.7529297,7.7578125
	l4.0703125-12.5961914L59.6333008,31.7236328L59.6333008,31.7236328z M22.4604492,31.7236328h13.2104492l4.0703125-12.5961914
	l4.0703125,12.5961914h13.2104492l-10.675293,7.7568359l4.0703125,12.5961914l-10.6757813-7.7578125l-10.7524414,7.7578125
	l4.1474609-12.5961914L22.4604492,31.7236328L22.4604492,31.7236328z"/>
<path fill-rule="evenodd" clip-rule="evenodd" fill="#80BBD8" d="M122.8427734,48.9272461l-3.2255859-9.9077148
	l-5.1455078-1.6899414L122.8427734,48.9272461L122.8427734,48.9272461z M106.0224609,48.9272461l8.4492188-6.144043v-5.4536133
	L106.0224609,48.9272461L106.0224609,48.9272461z M100.8759766,32.9526367l8.3720703,6.0668945l5.2236328-1.6899414
	L100.8759766,32.9526367L100.8759766,32.9526367z M114.4716797,37.3295898V23.121582l-3.2275391,9.8310547L114.4716797,37.3295898
	L114.4716797,37.3295898z M114.4716797,37.3295898l13.5166016-4.3769531h-10.3691406L114.4716797,37.3295898L114.4716797,37.3295898
	z M48.112793,48.9272461l-3.2255859-9.9077148l-5.1459961-1.6899414L48.112793,48.9272461L48.112793,48.9272461z
	 M31.3701172,48.9272461l8.3710938-6.144043v-5.4536133L31.3701172,48.9272461L31.3701172,48.9272461z M26.1469727,32.9526367
	l8.3720703,6.0668945l5.222168-1.6899414L26.1469727,32.9526367L26.1469727,32.9526367z M39.7412109,37.3295898V23.121582
	l-3.2255859,9.8310547L39.7412109,37.3295898L39.7412109,37.3295898z M39.7412109,37.3295898l13.5942383-4.3769531H42.890625
	L39.7412109,37.3295898L39.7412109,37.3295898z M160.0927734,48.9272461l-3.2255859-9.9077148l-5.1474609-1.6899414
	L160.0927734,48.9272461L160.0927734,48.9272461z M143.2724609,48.9272461l8.4472656-6.144043v-5.4536133L143.2724609,48.9272461
	L143.2724609,48.9272461z M138.1259766,32.9526367l8.3710938,6.0668945l5.2226563-1.6899414L138.1259766,32.9526367
	L138.1259766,32.9526367z M151.7197266,37.3295898V23.121582l-3.2255859,9.8310547L151.7197266,37.3295898L151.7197266,37.3295898z
	 M151.7197266,37.3295898l13.5185547-4.3769531h-10.3691406L151.7197266,37.3295898L151.7197266,37.3295898z M85.3623047,48.9272461
	l-3.2250977-9.9077148l-5.1459961-1.6899414L85.3623047,48.9272461L85.3623047,48.9272461z M68.5424805,48.9272461
	l8.4487305-6.144043v-5.4536133L68.5424805,48.9272461L68.5424805,48.9272461z M63.3969727,32.9526367l8.3710938,6.0668945
	l5.2231445-1.6899414L63.3969727,32.9526367L63.3969727,32.9526367z M76.9912109,37.3295898V23.121582l-3.2255859,9.8310547
	L76.9912109,37.3295898L76.9912109,37.3295898z M76.9912109,37.3295898l13.5170898-4.3769531H80.1396484L76.9912109,37.3295898
	L76.9912109,37.3295898z"/>
<path fill-rule="evenodd" clip-rule="evenodd" fill="#CCA300" d="M95.9609375,247.1572266
	c12.4423828,0,22.5039063,10.0615234,22.5039063,22.5019531c0,12.4423828-10.0615234,22.5800781-22.5039063,22.5800781
	c-12.4418945,0-22.5800781-10.1376953-22.5800781-22.5800781C73.3808594,257.21875,83.519043,247.1572266,95.9609375,247.1572266
	L95.9609375,247.1572266z"/>
<path fill-rule="evenodd" clip-rule="evenodd" d="M95.9609375,246.3115234
	c12.8251953,0,23.3476563,10.5224609,23.3476563,23.3476563c0,12.8271484-10.5224609,23.3496094-23.3476563,23.3496094
	c-12.902832,0-23.3476563-10.5224609-23.3476563-23.3496094C72.6132813,256.8339844,83.0581055,246.3115234,95.9609375,246.3115234
	L95.9609375,246.3115234z M100.9541016,291.3193359c-1.6132813,0.3066406-3.3037109,0.5371094-4.9931641,0.5371094
	c-1.7661133,0-3.3789063-0.2304688-4.9916992-0.5371094l-5.2993164-7.5273438l4.4545898-6.0683594h4.3779297l0,0h7.2963867
	l4.4541016,6.0683594L100.9541016,291.3193359L100.9541016,291.3193359z M118.0820313,271.5800781
	c-0.1542969,1.6894531-0.5390625,3.3027344-1,4.9150391c-0.5380859,1.6894531-1.3056641,3.2255859-2.1494141,4.6083984
	l-8.6796875,2.6884766l-4.4541016-6.0683594L103.1816406,273.5l0,0l2.2265625-6.9121094l7.1425781-2.3027344
	L118.0820313,271.5800781L118.0820313,271.5800781z M104.5625,249.2304688
	c1.5380859,0.6152344,2.9970703,1.4589844,4.4550781,2.4570313c1.3828125,1.0751953,2.6113281,2.1513672,3.6865234,3.4560547
	l-0.1533203,9.1416016l-7.1425781,2.3027344L101.875,263.9765625l0,0l-5.9140625-4.3007813v-7.5273438L104.5625,249.2304688
	L104.5625,249.2304688z M79.2182617,255.1435547c1.074707-1.3046875,2.3041992-2.3808594,3.6865234-3.4560547
	c1.3823242-0.9980469,2.8417969-1.8417969,4.3779297-2.4570313l8.6782227,2.9179688v7.5273438l-3.609375,2.6103516l0,0
	l-5.9135742,4.3017578l-7.1425781-2.3027344L79.2182617,255.1435547L79.2182617,255.1435547z M76.9140625,281.1035156
	c-0.8447266-1.3828125-1.5356445-2.9189453-2.0737305-4.6083984c-0.5375977-1.6123047-0.8442383-3.2255859-0.9985352-4.9150391
	l5.4536133-7.2949219l7.1425781,2.3027344l1.3823242,4.2236328l0,0l2.3041992,6.9121094l-4.4545898,6.0683594
	L76.9140625,281.1035156L76.9140625,281.1035156z"/>
</svg>
